<svg width="80" height="25" viewBox="0 0 80 25" fill="none" xmlns="http://www.w3.org/2000/svg">
<path d="M11.0589 5.0646H13.639V1.34998L10.8615 1.35296C4.84955 1.46381 0 6.40888 0 12.4943C0 18.6453 4.95562 23.6328 11.0589 23.6385H13.639V19.9233H11.0589C9.9391 19.9191 8.83502 19.658 7.83025 19.1601C6.82547 18.6622 5.94627 17.9402 5.2593 17.0493C4.57234 16.1583 4.09552 15.1213 3.86488 14.0172C3.63423 12.9132 3.65612 11.7705 3.92876 10.6759C4.34468 12.2618 5.26945 13.6646 6.5594 14.6654C7.84935 15.6662 9.43104 16.2089 11.0589 16.2089H13.639V12.4943H11.0589C9.03741 12.4943 7.39204 10.8168 7.39204 8.77963C7.39204 6.74241 9.03741 5.0646 11.0589 5.0646Z" fill="#0057FF"/>
<path d="M21.0117 13.9981V10.9898C21.0117 8.86002 22.2921 7.63594 24.6577 7.63594C25.6611 7.63594 26.4933 7.91515 27.1407 8.46122C27.788 9.00729 28.118 9.81843 28.118 10.9247V11.0578H26.0575V10.9247C26.0575 9.96629 25.3841 9.52689 24.5255 9.52689C23.548 9.52689 23.0593 9.96629 23.0593 10.8449V14.146C23.0593 15.0246 23.548 15.4638 24.5255 15.4638C25.4101 15.4638 26.0575 15.0644 26.0575 14.0662V13.9331H28.118V14.0662C28.118 15.1707 27.7878 15.9959 27.1407 16.542C26.4935 17.0881 25.6611 17.3538 24.6577 17.3538C22.2921 17.3526 21.0117 16.1309 21.0117 13.9981ZM29.3064 12.5741C29.3064 11.0431 30.403 9.99316 32.3576 9.99316C34.3122 9.99316 35.3958 11.0449 35.3958 12.5741V14.7173C35.3958 16.2475 34.3126 17.3128 32.3576 17.3128C30.4026 17.3128 29.3064 16.2481 29.3064 14.7173V12.5741ZM33.5198 14.6505V12.6702C33.5198 12.0978 33.0973 11.6982 32.3558 11.6982C31.5765 11.6982 31.1801 12.1241 31.1801 12.6702V14.6533C31.1801 15.1993 31.5765 15.6117 32.3558 15.6117C33.0973 15.6089 33.5198 15.1965 33.5198 14.6505ZM36.8613 17.1532V10.1516H38.7373V17.1532H36.8613ZM40.5102 17.1532V10.1516H41.5801L42.0951 10.8039C42.3614 10.5407 42.6775 10.3333 43.0249 10.1936C43.3715 10.0541 43.7424 9.9854 44.116 9.99137C45.6352 9.99137 46.5333 11.0166 46.5333 12.7207V17.1532H44.6549V12.8268C44.6549 12.0813 44.2587 11.6954 43.6905 11.6954C43.2016 11.6954 42.7657 11.9217 42.3827 12.3611V17.1532H40.5102ZM48.6698 16.5941C48.1152 16.1143 47.8249 15.5026 47.8113 14.7436H49.6344C49.7508 15.3424 50.2286 15.6357 51.0744 15.6357C51.6424 15.6357 51.9858 15.4493 51.9858 15.143C51.9858 14.8903 51.7874 14.7171 51.3783 14.6105L49.674 14.1711C48.5512 13.8779 47.9831 13.2527 47.9831 12.2813C47.9831 10.8572 49.0133 9.99375 50.7968 9.99375C52.5009 9.99375 53.6487 10.9392 53.7029 12.4298H51.8933C51.7478 11.9241 51.3387 11.6714 50.678 11.6714C50.0959 11.6714 49.805 11.8443 49.805 12.1768C49.805 12.3635 49.99 12.5102 50.3596 12.6027L52.1827 13.069C53.2658 13.3482 53.8071 14.0005 53.8071 14.9987C53.8071 16.4499 52.6844 17.3149 50.9015 17.3149C49.9777 17.3128 49.241 17.0728 48.6698 16.5941ZM55.3524 17.1532V7.83535H59.5001C61.1514 7.83535 62.1421 8.96669 62.1421 10.7639C62.1421 12.5611 61.1526 13.6791 59.5001 13.6791H57.4012V17.1532H55.3524ZM57.4 11.8819H59.1172C59.6322 11.8819 60.0682 11.5094 60.0682 10.7639C60.0682 10.0184 59.6322 9.63256 59.1172 9.63256H57.4012L57.4 11.8819ZM67.6778 17.1532L67.1628 16.5008C66.5946 17.0465 65.8945 17.3128 65.0621 17.3128C64.402 17.3128 63.8473 17.1261 63.398 16.7673C62.9486 16.3942 62.7242 15.8749 62.7246 15.2093C62.7246 13.7589 63.6623 12.9337 65.5248 12.9337H66.8852V12.5476C66.8852 11.9752 66.555 11.6954 65.881 11.6954C65.2069 11.6954 64.8776 11.9217 64.8776 12.3876H63.0412C63.0412 10.937 64.0191 9.99157 65.881 9.99157C67.7429 9.99157 68.761 10.937 68.761 12.4145V17.1532H67.6778ZM66.8852 15.0363V14.2644H65.5248C64.9039 14.2644 64.6 14.4909 64.6 14.9565C64.6 15.3671 64.8909 15.6487 65.4585 15.6487C66.04 15.6487 66.5154 15.4493 66.8852 15.0363ZM70.4647 17.1532V10.1516H72.3407V17.1532H70.4647ZM78.9317 17.1532L78.4167 16.501C78.1468 16.7647 77.828 16.9723 77.4784 17.1116C77.1287 17.2509 76.7554 17.3191 76.3795 17.3128C74.9528 17.3128 73.9092 16.433 73.9092 14.7436V12.5476C73.9092 11.709 74.1472 11.0702 74.6077 10.6437C75.0698 10.2049 75.6641 9.99157 76.3777 9.99157C77.0913 9.99157 77.6722 10.178 78.1238 10.5639V7.76908H79.9998V17.1538L78.9317 17.1532ZM78.1255 14.943V12.3623C77.6897 11.9229 77.2274 11.6966 76.7654 11.6966C76.6356 11.6954 76.507 11.7205 76.3872 11.7705C76.2674 11.8202 76.1586 11.8939 76.0674 11.9868C75.9762 12.08 75.9046 12.1905 75.8567 12.3118C75.8087 12.4332 75.7854 12.5631 75.788 12.6937V14.6105C75.7852 14.7411 75.8085 14.871 75.8565 14.9926C75.9044 15.1138 75.9761 15.2243 76.0672 15.3175C76.1584 15.4105 76.2672 15.4841 76.387 15.5339C76.5069 15.5838 76.6356 15.6089 76.7654 15.6077C77.2274 15.6089 77.6897 15.3824 78.1255 14.943Z" fill="#F2F4F8"/>
</svg>
