<svg width="80" height="24" viewBox="0 0 80 24" fill="none" xmlns="http://www.w3.org/2000/svg">
<path d="M30.3203 0.0362765C31.5356 0.0362765 32.4788 0.290218 33.1862 0.798096C33.8755 1.30597 34.2201 2.08593 34.2382 3.11982C34.2382 3.6277 34.1294 4.13558 33.8936 4.58904C33.6941 5.00623 33.3495 5.35086 32.9323 5.55039V5.62294C33.4039 5.8406 33.8029 6.18523 34.0931 6.6387C34.2745 6.91077 34.4015 7.20099 34.4922 7.50935C34.601 7.87212 34.6554 8.27116 34.6373 8.65207C34.6554 9.2325 34.5285 9.7948 34.2927 10.3027C34.075 10.7743 33.7304 11.1733 33.3313 11.4817C32.9141 11.8082 32.4425 12.044 31.9347 12.1891C31.4086 12.3523 30.8463 12.4249 30.3022 12.4249H23.6635V0H30.3203V0.0362765ZM26.8559 4.60718H29.7762C30.1389 4.64346 30.4836 4.53463 30.7556 4.29883C30.937 4.0993 31.0459 3.82723 31.0277 3.55515C31.0277 3.30121 30.937 3.04727 30.7556 2.84775C30.4836 2.61195 30.1208 2.50311 29.7762 2.53939H26.8559V4.60718ZM26.8559 9.93991H29.8124C30.2659 9.97618 30.7194 9.84921 31.064 9.559C31.3179 9.28692 31.4449 8.94229 31.4268 8.56138C31.463 8.14419 31.2998 7.74514 30.9914 7.47307C30.6468 7.21913 30.2296 7.09216 29.8124 7.1103H26.8559V9.93991Z" fill="#F5F7F9"/>
<path d="M37.6664 12.4612H34.2927L38.6822 0.0544244H41.9471L46.4455 12.4612H42.8903L42.2918 10.3027H38.2831L37.6664 12.4612ZM40.2965 3.30122H40.224L38.9361 7.9084H41.5662L40.2965 3.30122Z" fill="#F5F7F9"/>
<path d="M50.182 5.11507H50.1095V12.4612H46.9171V0.0362903H50.4541L54.6804 6.9652H54.7529V0.0362903H57.9453V12.4612H54.7348L50.182 5.11507Z" fill="#F5F7F9"/>
<path d="M62.3892 0.0362903V4.38953L66.4704 0.0362903H70.6785L65.6723 4.77044L70.9687 12.4612H66.9601L63.2961 6.94706L62.3711 7.83585V12.4612H59.1787V0.0362903H62.3892Z" fill="#F5F7F9"/>
<path d="M16.5714 14.3657V16.4516H14.3947V23.7615H12.0912V16.4516H9.91453V14.3657H16.5714Z" fill="#F5F7F9"/>
<path d="M22.1036 14.3657C22.4301 14.3657 22.7747 14.4383 23.0649 14.5652C23.3551 14.6922 23.6272 14.8917 23.8267 15.1457C24.0444 15.3996 24.2076 15.6898 24.3165 16.0163C24.4434 16.361 24.4979 16.7237 24.4979 17.0865C24.516 17.6306 24.3709 18.1567 24.0988 18.6283C23.8267 19.0636 23.4458 19.3901 22.9924 19.6077L24.6974 23.7615H22.2487L20.8339 19.9342H18.9838V23.7615H16.6802V14.3657H22.1036ZM21.4143 17.9753C21.632 17.9934 21.8496 17.9027 21.9766 17.7213C22.1036 17.5581 22.158 17.3586 22.158 17.159C22.158 17.0684 22.1399 16.9595 22.1217 16.8688C22.1036 16.7781 22.0492 16.6874 21.9947 16.5968C21.9403 16.5242 21.8496 16.4516 21.7589 16.3972C21.6501 16.3428 21.5413 16.3065 21.4143 16.3247H19.0019V17.9753H21.4143Z" fill="#F5F7F9"/>
<path d="M26.5294 23.7615H24.0988L27.2549 14.3657H29.6129L32.8416 23.7615H30.2841L29.8487 22.129H26.9647L26.5294 23.7615ZM28.4339 16.8326H28.3977L27.4726 20.3151H29.359L28.4339 16.8326Z" fill="#F5F7F9"/>
<path d="M35.1996 18.2111H35.1452V23.7615H32.8416L32.8416 14.3657H35.381L38.4283 19.6077H38.4827V14.3657H40.7863V23.7615H38.4645L35.1996 18.2111Z" fill="#F5F7F9"/>
<path d="M44.7223 23.9973C44.2144 24.0154 43.7065 23.9428 43.2168 23.7977C42.8178 23.6708 42.455 23.4894 42.1285 23.2536C41.8383 23.0178 41.5843 22.7457 41.403 22.4011C41.2216 22.0564 41.0765 21.6937 40.9858 21.3309L43.1805 20.4421C43.1987 20.9137 43.3801 21.349 43.7065 21.6755C44.0512 21.9657 44.4865 22.1109 44.9218 22.0927C45.0488 22.0927 45.1758 22.0746 45.3027 22.0564C45.4297 22.0383 45.5385 22.002 45.6474 21.9295C45.7562 21.8751 45.8288 21.7844 45.9013 21.6755C45.9739 21.5667 46.0101 21.4216 46.0101 21.2946C46.0101 21.1677 45.992 21.0407 45.9557 20.9137C45.9013 20.7867 45.8288 20.6779 45.7381 20.6054C45.6111 20.4965 45.466 20.4058 45.3027 20.3333C45.0669 20.2244 44.8311 20.1519 44.5953 20.0793C44.0875 19.9342 43.5977 19.7528 43.1261 19.5533C42.7452 19.3901 42.4006 19.1724 42.0741 18.9003C41.802 18.6645 41.5843 18.3743 41.4392 18.0478C41.2941 17.6851 41.2216 17.3041 41.2216 16.9232C41.2216 16.5061 41.3123 16.0889 41.4936 15.7261C41.675 15.3815 41.929 15.0731 42.2555 14.8373C42.6001 14.5834 42.981 14.402 43.3982 14.2932C43.8698 14.1662 44.3595 14.1118 44.8493 14.1118C45.2846 14.1118 45.7381 14.148 46.1552 14.2569C46.4999 14.3476 46.8264 14.4927 47.1166 14.6922C47.3887 14.8736 47.6245 15.1094 47.8058 15.3815C48.0054 15.6898 48.1505 15.9982 48.2775 16.3428L46.3004 17.2135C46.2278 16.8507 46.0464 16.5242 45.7925 16.2703C45.2483 15.9075 44.5591 15.8893 43.9968 16.2158C43.8335 16.3428 43.7428 16.5242 43.7247 16.7237C43.7247 16.8507 43.7428 16.9595 43.7972 17.0683C43.8517 17.1772 43.9423 17.286 44.0512 17.3586C44.1963 17.4674 44.3595 17.5581 44.5409 17.6125C44.813 17.7213 45.0669 17.7939 45.339 17.8664C45.7743 17.9934 46.2097 18.1204 46.5906 18.2473C46.9533 18.3743 47.298 18.5557 47.6063 18.7915C47.8965 19.0273 48.1323 19.3175 48.2956 19.644C48.477 20.0612 48.5677 20.5328 48.5495 20.9863C48.5677 21.4397 48.4588 21.8751 48.2593 22.2922C48.0598 22.655 47.7877 22.9815 47.4431 23.2173C47.0803 23.4712 46.6631 23.6708 46.2278 23.7796C45.7199 23.9428 45.212 24.0154 44.7223 23.9973Z" fill="#F5F7F9"/>
<path d="M51.0164 17.8483H54.5897V19.9342H51.0164V23.7615H48.7128V14.3657H55.678V16.4516H51.0164V17.8483Z" fill="#F5F7F9"/>
<path d="M55.8593 14.3657H62.8245V16.4516H58.1629V17.7213H62.2441V19.8073H58.1629V21.6937H62.9515V23.7796H55.8593V14.3657Z" fill="#F5F7F9"/>
<path d="M68.5382 14.3657C68.8647 14.3657 69.2093 14.4383 69.4995 14.5652C69.7897 14.6922 70.0618 14.8917 70.2613 15.1457C70.479 15.3996 70.6422 15.6898 70.7511 16.0163C70.878 16.361 70.9324 16.7237 70.9324 17.0865C70.9506 17.6306 70.8055 18.1567 70.5334 18.6283C70.2613 19.0636 69.8804 19.3901 69.427 19.6077L71.132 23.7615H68.6833L67.2685 19.9342H65.4183V23.7615H63.1147V14.3657H68.5382ZM67.8489 17.9753C68.0666 17.9934 68.2842 17.9027 68.4112 17.7213C68.5382 17.5581 68.5926 17.3586 68.5926 17.159C68.5926 17.0684 68.5744 16.9595 68.5563 16.8688C68.5382 16.7781 68.4838 16.6874 68.4293 16.5968C68.3749 16.5242 68.2842 16.4516 68.1935 16.3972C68.0847 16.3428 67.9759 16.3065 67.8489 16.3247H65.4365V17.9753H67.8489Z" fill="#F5F7F9"/>
<path d="M22.4301 0.0362903H9.86011V2.55754H22.4301V0.0362903Z" fill="#F5F7F9"/>
<path d="M22.4301 4.77044H9.86011V7.29169H22.4301V4.77044Z" fill="#F5F7F9"/>
<path d="M22.4301 9.95805H9.86011V12.4793H22.4301V9.95805Z" fill="#F5F7F9"/>
</svg>
