<svg width="80" height="24" viewBox="0 0 80 24" fill="none" xmlns="http://www.w3.org/2000/svg">
<path fill-rule="evenodd" clip-rule="evenodd" d="M39.8033 5C39.8033 5.06646 39.8064 5.13527 39.8064 5.20134C39.8064 9.13636 39.8064 13.0749 39.8125 17.0103C39.8125 17.1765 39.7692 17.2112 39.6279 17.2081C39.1952 17.1961 38.7622 17.195 38.3294 17.205C38.2031 17.2081 38.1847 17.1608 38.1847 17.0384C38.1877 14.6262 38.1847 12.214 38.1847 9.80216C38.1847 9.74587 38.2 9.68292 38.1571 9.60434C38.0709 9.84282 37.9847 10.0629 37.9047 10.2893C37.2248 12.1327 36.5415 13.9761 35.8678 15.8261C35.8184 15.9613 35.7602 16.0051 35.6276 15.9926C35.3924 15.9729 35.1562 15.9656 34.9202 15.9707C34.8091 15.9707 34.7632 15.9266 34.7203 15.8198C34.1293 14.2716 33.5325 12.7262 32.9354 11.178C32.7477 10.6881 32.557 10.1982 32.3663 9.70794C32.3617 9.69294 32.3542 9.67906 32.3441 9.66721C32.334 9.65536 32.3216 9.6458 32.3077 9.63913V9.80529C32.3077 12.2113 32.3046 14.6168 32.3107 17.0224C32.3107 17.1639 32.2862 17.2112 32.1479 17.2081C31.7089 17.1976 31.2698 17.1966 30.8307 17.205C30.717 17.2081 30.6802 17.18 30.6833 17.0416C30.6894 16.2284 30.6863 15.4148 30.6863 14.6043V5.21698C30.6863 5.14466 30.6955 5.07233 30.6986 5H32.2123C33.2299 7.6448 34.2483 10.2893 35.2676 12.9334C35.2956 12.8739 35.3109 12.8395 35.3231 12.8047C36.1508 10.6189 36.9816 8.43615 37.8032 6.24716C37.9602 5.83548 38.1356 5.43045 38.2617 5H39.8033ZM74.0711 20.7037C74.0711 20.2044 74.0741 19.7048 74.068 19.1993C74.068 19.0925 74.0956 19.064 74.194 19.0671C74.3633 19.0671 74.5326 19.0828 74.705 19.0452C75.0681 18.9671 75.3109 18.7344 75.4246 18.3482C75.5602 17.8896 75.6862 17.4247 75.8218 16.9692C75.8494 16.8782 75.8341 16.809 75.8065 16.7276L73.1909 8.71256C73.1725 8.65274 73.1541 8.59918 73.1265 8.51473H73.4647C73.8462 8.51473 74.2277 8.51786 74.6126 8.5116C74.7203 8.50848 74.7662 8.54601 74.7973 8.66212C75.3695 10.597 75.9417 12.5315 76.5201 14.4694C76.5323 14.507 76.548 14.5476 76.5695 14.6168C76.7296 14.0769 76.8832 13.5585 77.0371 13.0436C77.4677 11.5767 77.9016 10.1102 78.3325 8.64023C78.3662 8.5335 78.4095 8.51121 78.5018 8.51121C79.0032 8.51473 79.5015 8.51121 80.0002 8.50848V8.57729C79.991 8.5898 79.9787 8.59957 79.9756 8.61521C79.1418 11.2753 78.3141 13.9385 77.4803 16.5955C77.2064 17.4845 76.9356 18.3732 76.6369 19.2497C76.4124 19.9218 75.9972 20.3991 75.3511 20.5938C75.2186 20.6345 75.0834 20.6658 74.9478 20.7033L74.0711 20.7037ZM54.3204 5.00039C54.348 5.06607 54.4005 5.03167 54.4403 5.04105C54.8681 5.14778 55.2006 5.64391 55.1604 6.11502C55.1144 6.66784 54.7452 7.06662 54.2557 7.10141C53.8068 7.12956 53.3728 6.75893 53.2928 6.26867C53.1974 5.69747 53.4927 5.18219 54.0037 5.03792C54.0312 5.03167 54.068 5.04731 54.0776 5.00039H54.3204ZM42.7069 5.00039C42.7161 5.0348 42.7472 5.02854 42.7717 5.0348C43.2857 5.14778 43.6086 5.66307 43.5224 6.24403C43.4485 6.75619 42.9777 7.15771 42.5162 7.09828C41.9873 7.02908 41.618 6.55485 41.6517 5.98014C41.6793 5.53092 41.9716 5.15404 42.3749 5.04105C42.4025 5.03167 42.4488 5.05356 42.4641 5L42.7069 5.00039ZM66.0572 5.00039C66.202 5.06607 66.3525 5.12276 66.4758 5.23888C66.6362 5.39516 66.7458 5.59788 66.7897 5.8197C66.8337 6.04152 66.81 6.27177 66.7217 6.47939C66.5371 6.90671 66.1219 7.15184 65.7033 7.06349C65.282 6.98178 64.9679 6.60841 64.9342 6.14356C64.8909 5.65017 65.128 5.23262 65.5436 5.05982C65.5834 5.04418 65.6359 5.05356 65.6635 5.00039H66.0572ZM48.4219 5.02776C49.3822 5.02776 50.3389 5.03089 51.2957 5.02463C51.416 5.02463 51.4589 5.04965 51.4558 5.19431C51.4456 5.67382 51.4446 6.15349 51.4528 6.63304C51.4558 6.75189 51.4252 6.77731 51.3176 6.77731C49.9391 6.77105 48.5575 6.77418 47.1791 6.77105C47.0435 6.76792 47.0006 6.79607 47.0036 6.95637C47.0103 8.0315 47.0092 9.10667 47.0006 10.1818C47.0006 10.3386 47.0465 10.3671 47.1791 10.3671C48.5514 10.3608 49.9207 10.3671 51.2927 10.3608C51.4282 10.3577 51.4589 10.4015 51.4558 10.5462C51.4436 10.9679 51.4436 11.3899 51.4558 11.8117C51.4589 11.9689 51.4313 12.0189 51.2804 12.0189C49.905 12.0095 48.5361 12.0158 47.1668 12.0095C47.0312 12.0095 47.0036 12.0439 47.0036 12.1886C47.0067 13.806 47.0036 15.4203 47.0098 17.0345C47.0098 17.1823 46.9761 17.2199 46.8435 17.2167C46.4057 17.2089 45.9677 17.2089 45.5298 17.2167C45.4222 17.2167 45.3819 17.1948 45.3819 17.0631C45.3854 13.0964 45.3854 9.13597 45.3819 5.16929C45.3819 5.04652 45.4191 5.02776 45.5206 5.02776C46.4866 5.03089 47.456 5.02776 48.4219 5.02776ZM58.5393 9.45655C58.8006 9.12971 59.053 8.87872 59.3636 8.70591C60.847 7.88294 62.7606 8.82203 63.0314 10.7757C63.0685 11.0454 63.09 11.316 63.09 11.5889C63.0869 13.4045 63.0869 15.2197 63.09 17.0318C63.09 17.1765 63.0528 17.2077 62.9299 17.2046C62.5166 17.1962 62.1032 17.1973 61.69 17.2077C61.5636 17.2109 61.5483 17.1608 61.5483 17.0381C61.5514 15.3389 61.5514 13.643 61.5483 11.9438C61.5483 11.4477 61.4407 10.9829 61.1052 10.6216C60.6685 10.1505 60.1453 10.05 59.5823 10.2353C59.0254 10.4144 58.7082 10.8542 58.5884 11.479C58.5537 11.6695 58.5373 11.863 58.5393 12.0568C58.5393 13.709 58.5363 15.3644 58.5424 17.0162C58.5424 17.1765 58.4991 17.2077 58.367 17.2046C57.9587 17.1967 57.5504 17.1967 57.1421 17.2046C57.0253 17.2077 57.0038 17.1671 57.0038 17.0474C57.0069 14.2587 57.0069 11.4696 57.0038 8.68089C57.0038 8.55813 57.0253 8.50809 57.1517 8.51121C57.5761 8.5206 57.9978 8.51747 58.4191 8.51121C58.5114 8.51121 58.5424 8.53936 58.5424 8.64297C58.5363 8.89748 58.5393 9.15239 58.5393 9.45655ZM69.4373 12.6769C69.4373 11.7972 69.4343 10.9184 69.4438 10.0387C69.4438 9.88192 69.4006 9.85025 69.2715 9.85963C69.1083 9.86902 68.9421 9.85963 68.7728 9.86276C68.6927 9.86589 68.659 9.84087 68.659 9.74039C68.6652 9.3677 68.6652 8.99493 68.659 8.62225C68.659 8.53115 68.6927 8.51278 68.7667 8.51278C68.939 8.51864 69.1114 8.503 69.2807 8.51864C69.4251 8.53428 69.4404 8.4686 69.4404 8.3302C69.4343 7.29415 69.4404 6.26046 69.4343 5.22402C69.4343 5.06725 69.4775 5.03245 69.6097 5.03558C70.0076 5.045 70.4056 5.045 70.8035 5.03558C70.9269 5.03245 70.9636 5.06685 70.9636 5.20838C70.9575 6.24834 70.9636 7.29064 70.9575 8.3302C70.9545 8.49049 71.0004 8.5249 71.1329 8.51864C71.4099 8.50926 71.6868 8.51864 71.9637 8.51239C72.0621 8.50926 72.0805 8.54679 72.0805 8.64414C72.0744 9.0064 72.0744 9.36875 72.0805 9.73101C72.0836 9.85025 72.0438 9.86276 71.9514 9.86276C71.6653 9.85963 71.3758 9.86276 71.0897 9.86276C71.0004 9.85963 70.9575 9.87527 70.9575 9.99491C70.9606 11.6311 70.9575 13.2672 70.9606 14.9038C70.9636 15.3843 71.1299 15.5602 71.5573 15.5602C71.6898 15.5602 71.822 15.5634 71.9514 15.5571C72.0438 15.554 72.0836 15.5727 72.0805 15.6889C72.0744 16.1506 72.0775 16.6123 72.0775 17.074C72.0775 17.1303 72.105 17.2058 72.0097 17.1995C71.6129 17.1901 71.2099 17.2437 70.8189 17.1495C69.9789 16.945 69.4404 16.1787 69.4373 15.1829V12.6769ZM41.8298 12.8364C41.8298 11.4516 41.8329 10.0633 41.8268 8.67815C41.8268 8.54014 41.8544 8.50222 41.9807 8.50535C42.4051 8.51473 42.8268 8.51199 43.2512 8.50535C43.3435 8.50535 43.3684 8.53389 43.3684 8.63749C43.3654 11.4485 43.3654 14.2595 43.3684 17.0705C43.3684 17.1737 43.3405 17.2023 43.2512 17.1987C42.8226 17.1937 42.394 17.1948 41.9654 17.2023C41.8513 17.2023 41.8268 17.1675 41.8268 17.0451C41.8298 15.6443 41.8298 14.2372 41.8298 12.8364ZM53.449 12.8458C53.449 11.454 53.449 10.0598 53.446 8.67151C53.446 8.53975 53.4766 8.50222 53.5938 8.50535C54.0182 8.51473 54.4399 8.5116 54.8643 8.50535C54.9627 8.50535 54.9876 8.5335 54.9876 8.64336C54.9846 11.4512 54.9846 14.2525 54.9876 17.0607C54.9876 17.1671 54.9662 17.2015 54.8643 17.1987C54.443 17.1925 54.0213 17.1925 53.5969 17.1987C53.4797 17.2019 53.446 17.1702 53.446 17.0384C53.449 15.6408 53.449 14.24 53.449 12.8458ZM66.634 12.8364C66.634 14.2247 66.634 15.6193 66.6401 17.0107C66.6401 17.1518 66.6034 17.1866 66.4804 17.1831C66.0671 17.1752 65.6536 17.1752 65.2402 17.1831C65.1418 17.1831 65.102 17.1612 65.102 17.0384C65.105 14.2372 65.105 11.4387 65.102 8.63749C65.102 8.51825 65.1387 8.48971 65.2402 8.48971C65.665 8.49597 66.0863 8.49597 66.508 8.48971C66.6218 8.48658 66.6371 8.53389 66.6371 8.64375C66.634 10.0383 66.634 11.4391 66.634 12.8364Z" fill="#C9CDD4"/>
<path fill-rule="evenodd" clip-rule="evenodd" d="M5.15483 17.2007C4.41331 17.2007 3.81657 16.5443 3.81657 15.7342C3.81657 14.9175 4.42556 14.2548 5.16709 14.2579C5.89941 14.2579 6.50267 14.9331 6.4996 15.7373C6.49347 16.554 5.89635 17.2007 5.15521 17.2007H5.15483ZM20.718 5C20.8198 5.04418 20.9244 5.07858 21.0259 5.13214C21.5487 5.40543 21.8134 6.03331 21.6782 6.65845C21.5491 7.2836 21.0412 7.68863 20.4226 7.67612C19.8968 7.66361 19.4134 7.1925 19.3058 6.59551C19.1767 5.87966 19.6011 5.17632 20.2442 5.03167C20.2629 5.02541 20.2783 5.00977 20.2936 5.00039H20.718V5ZM7.07796 14.9249C7.07796 14.2091 7.59809 13.6281 8.24424 13.6281C8.8992 13.625 9.42585 14.2059 9.4224 14.9312C9.41934 15.6443 8.89652 16.2221 8.24731 16.2221C7.60116 16.2221 7.07796 15.6443 7.07796 14.9249ZM17.4087 8.4815C16.7748 8.4815 16.2734 7.93181 16.2734 7.23746C16.2704 6.54977 16.7779 5.98757 17.4056 5.98757C18.0334 5.98444 18.5409 6.54351 18.5409 7.23473C18.5409 7.92868 18.0426 8.4815 17.4087 8.4815ZM22.2615 7.32504C22.2615 6.70615 22.7043 6.21315 23.2643 6.21002C23.8181 6.21002 24.2766 6.70654 24.2831 7.31878C24.2888 7.93416 23.8242 8.44319 23.2643 8.43967C22.7043 8.43967 22.2611 7.94706 22.2611 7.32504H22.2615ZM2.26573 15.8972C1.7027 15.8972 1.25342 15.4074 1.25342 14.7889C1.25342 14.1762 1.7027 13.6801 2.26267 13.6707C2.8257 13.6645 3.27192 14.1606 3.27192 14.7951C3.27192 15.423 2.83528 15.9007 2.26573 15.8976V15.8972ZM10.7392 12.1464C11.2747 12.1495 11.7082 12.6335 11.7021 13.2238C11.6991 13.8111 11.259 14.2951 10.727 14.2916C10.1915 14.2884 9.76061 13.8017 9.76367 13.2082C9.76674 12.6112 10.1976 12.1432 10.7392 12.1464ZM14.8425 7.96895C15.3626 7.96895 15.7778 8.42755 15.7717 8.99327C15.7686 9.56798 15.3565 10.0137 14.8363 10.0105C14.3258 10.0105 13.9133 9.5582 13.9133 8.99288C13.9102 8.42129 14.3193 7.96895 14.8425 7.96895ZM12.9224 12.1217C12.4299 12.1217 12.0422 11.6917 12.0422 11.1451C12.0422 10.6017 12.4452 10.1587 12.9377 10.1681C13.4299 10.1744 13.8175 10.6079 13.8175 11.1451C13.8175 11.7011 13.4268 12.1249 12.9224 12.1217Z" fill="white"/>
<path fill-rule="evenodd" clip-rule="evenodd" d="M25.5315 9.90772C25.5285 10.4386 25.1378 10.8718 24.6544 10.8781C24.1592 10.8812 23.7624 10.4324 23.7685 9.87019C23.7716 9.32362 24.1592 8.90882 24.6579 8.91233C25.1596 8.91507 25.535 9.33926 25.5315 9.90772ZM24.5989 13.3888C24.1802 13.3826 23.8294 12.99 23.8386 12.5315C23.8451 12.076 24.1986 11.6897 24.6046 11.6897C25.0298 11.6897 25.3802 12.0822 25.3741 12.5537C25.371 13.0213 25.0263 13.392 24.5989 13.3888ZM24.0339 14.4225C24.0339 14.8463 23.729 15.1888 23.3476 15.1857C22.9753 15.1857 22.6616 14.8463 22.6581 14.4382C22.6555 14.0331 22.9661 13.6781 23.3322 13.6688C23.7107 13.6594 24.0309 14.005 24.0339 14.4225ZM21.7155 14.8917C22.1005 14.8917 22.4111 15.2279 22.408 15.6454C22.405 16.0599 22.1005 16.3961 21.7251 16.3961C21.3463 16.3992 21.0357 16.0661 21.0326 15.6548C21.0295 15.231 21.3314 14.8917 21.7155 14.8917ZM19.9276 15.3882C20.2693 15.3882 20.5339 15.6744 20.5339 16.045C20.5339 16.4188 20.257 16.7202 19.9184 16.7171C19.5955 16.7108 19.3278 16.4121 19.3278 16.0513C19.3247 15.6775 19.5894 15.3886 19.9276 15.3886V15.3882ZM18.2121 16.4895C17.9286 16.4864 17.6981 16.2256 17.6981 15.9086C17.6981 15.5915 17.9443 15.3245 18.2305 15.3307C18.5104 15.3401 18.7475 15.6071 18.7475 15.9117C18.7475 16.2323 18.5043 16.4927 18.2121 16.4895ZM16.7876 15.7659C16.5203 15.7627 16.3108 15.5274 16.3138 15.2349C16.3169 14.9429 16.5322 14.704 16.7968 14.704C17.0649 14.704 17.2771 14.946 17.2741 15.2506C17.271 15.552 17.0646 15.7659 16.7876 15.7659ZM15.5003 13.9502C15.7493 13.9534 15.937 14.1637 15.9339 14.437C15.9339 14.7009 15.7278 14.9269 15.4877 14.9206C15.2418 14.9175 15.0541 14.6978 15.0572 14.4214C15.0572 14.1449 15.2418 13.9502 15.4999 13.9502H15.5003ZM0 12.6984C0.126396 12.4376 0.209127 12.1581 0.412509 11.9415C0.904686 11.4106 1.62169 11.2726 2.23069 11.6119C2.84314 11.954 3.15989 12.6765 3.02162 13.4178C2.89216 14.1023 2.30768 14.6489 1.64927 14.6989C0.947584 14.7525 0.329395 14.3252 0.0800506 13.6187C0.0586016 13.5495 0.067794 13.4678 0 13.4209V12.6984ZM1.77299 9.70833C1.77299 10.1982 1.40989 10.6036 0.966735 10.6001C0.52052 10.6001 0.15742 10.1982 0.154739 9.71146C0.154739 9.22471 0.523584 8.81616 0.963671 8.81616C1.40682 8.81303 1.76992 9.21494 1.77299 9.70833ZM1.42138 7.81569C1.42138 7.34771 1.76916 6.96731 2.19086 6.97083C2.61524 6.97395 2.95383 7.35709 2.95383 7.8282C2.95076 8.29305 2.60298 8.66994 2.18166 8.66994C1.76303 8.66994 1.42138 8.28054 1.42138 7.81569ZM3.90179 5.76393C4.28021 5.76706 4.58165 6.10016 4.58471 6.51458C4.58471 6.93212 4.27102 7.2746 3.88954 7.27147C3.51418 7.26835 3.20968 6.93525 3.20968 6.5177C3.20968 6.09351 3.51725 5.7608 3.90179 5.76393ZM5.67899 6.77613C5.34347 6.773 5.07574 6.4747 5.08225 6.1072C5.08532 5.74282 5.36837 5.43474 5.69125 5.44139C6.02064 5.44765 6.2945 5.75533 6.29144 6.11971C6.28837 6.48721 6.01758 6.77926 5.67899 6.77613ZM9.34064 6.91687C9.3437 7.24059 9.10355 7.50449 8.81743 7.50449C8.534 7.50136 8.2973 7.23746 8.29423 6.92665C8.2881 6.61232 8.53438 6.33903 8.82356 6.34216C9.10699 6.34216 9.34064 6.6002 9.34064 6.91687ZM7.83346 6.29759C7.83346 6.61505 7.59982 6.8723 7.31945 6.8723C7.02721 6.87543 6.78438 6.60567 6.79051 6.28821C6.79357 5.97427 7.02721 5.71663 7.31026 5.7135C7.60557 5.7135 7.83346 5.97114 7.83346 6.29759ZM10.0764 8.34622C9.80868 8.34622 9.59955 8.11399 9.59955 7.81843C9.59955 7.5299 9.82094 7.28477 10.0764 7.28477C10.3533 7.2879 10.5628 7.52677 10.5594 7.83133C10.5563 8.12963 10.3503 8.34974 10.0768 8.34622H10.0764ZM11.6181 8.86464C11.615 9.1344 11.4151 9.34825 11.1718 9.342C10.9256 9.33574 10.7352 9.11915 10.7379 8.84548C10.7409 8.57884 10.9382 8.36851 11.1872 8.37164C11.4334 8.37476 11.6211 8.58823 11.6181 8.86425V8.86464Z" fill="#2D99CE"/>
</svg>
