<svg width="80" height="24" viewBox="0 0 80 24" fill="none" xmlns="http://www.w3.org/2000/svg">
<g clip-path="url(#clip0_1006_12386)">
<path d="M30.0157 6.47565H25.6201C25.3689 6.47565 25.1177 6.72682 24.9921 6.978L23.2339 18.4066C23.2339 18.6577 23.3595 18.7833 23.4851 18.7833H25.6201C25.8712 18.7833 26.1224 18.5322 26.248 18.281L26.7504 15.2669C26.7504 15.0157 27.0015 14.7645 27.3783 14.7645H28.7598C31.6483 14.7645 33.4066 13.383 33.7833 10.4945C34.0345 9.2386 33.7833 8.35948 33.1554 7.60594C32.5274 6.85241 31.3971 6.47565 30.0157 6.47565ZM30.518 10.6201C30.2669 12.2527 29.011 12.2527 27.8807 12.2527H27.2527L27.6295 9.2386C27.6295 9.11301 27.7551 8.98742 28.0063 8.98742H28.2574C29.011 8.98742 29.7645 8.98742 30.1413 9.48977C30.518 9.61536 30.518 10.1177 30.518 10.6201ZM43.2025 10.6201H41.0675C40.9419 10.6201 40.6907 10.7457 40.6907 10.8713L40.5651 11.4992L40.4395 11.248C39.9372 10.6201 38.9325 10.3689 37.9278 10.3689C35.5416 10.3689 33.5322 12.1271 33.1554 14.6389C32.9042 15.8948 33.281 17.0251 33.9089 17.9042C34.5369 18.6577 35.5416 19.0345 36.5463 19.0345C38.4301 19.0345 39.4348 17.7786 39.4348 17.7786L39.3092 18.4066C39.3092 18.6577 39.4348 18.7833 39.5604 18.7833H41.4442C41.6954 18.7833 41.9466 18.5322 42.0722 18.281L43.2025 10.9968C43.5792 10.7457 43.4537 10.6201 43.2025 10.6201ZM40.1884 14.7645C40.0628 15.8948 39.0581 16.7739 37.8022 16.7739C37.1742 16.7739 36.6719 16.5227 36.4207 16.146C36.1695 15.7692 36.0439 15.2669 36.0439 14.6389C36.2951 13.383 37.1742 12.6295 38.4301 12.6295C39.0581 12.6295 39.5604 12.8807 39.8116 13.2574C40.1884 13.6342 40.3139 14.1366 40.1884 14.7645ZM54.5055 10.6201H52.3705C52.1193 10.6201 51.9937 10.7457 51.8681 10.8713L48.9796 15.2669L47.7237 11.1224C47.5981 10.8713 47.3469 10.7457 47.0957 10.7457H44.9607C44.7095 10.7457 44.584 10.8713 44.584 11.1224V11.248L46.9701 18.1554L44.7095 21.2951C44.584 21.4207 44.584 21.6719 44.8351 21.7975C44.8351 21.7975 44.9607 21.9231 45.0863 21.9231H47.2213C47.4725 21.9231 47.5981 21.7975 47.7237 21.6719L54.7566 11.3736C54.8822 11.248 54.8822 10.9968 54.6311 10.8713C54.6311 10.6201 54.631 10.6201 54.5055 10.6201Z" fill="#005FCC"/>
<path d="M61.5386 6.47565H57.143C56.8918 6.47565 56.6407 6.72682 56.5151 6.978L54.7568 18.4066C54.7568 18.6577 54.8824 18.7833 55.008 18.7833H57.2686C57.5198 18.7833 57.6454 18.6577 57.6454 18.4066L58.1477 15.1413C58.1477 14.8901 58.3989 14.6389 58.7757 14.6389H60.1571C63.0457 14.6389 64.8039 13.2574 65.1807 10.3689C65.4319 9.11301 65.1807 8.23389 64.5527 7.48036C64.176 6.85241 63.0457 6.47565 61.5386 6.47565ZM62.041 10.6201C61.7898 12.2527 60.5339 12.2527 59.4036 12.2527H58.7757L59.278 9.2386C59.278 9.11301 59.4036 8.98742 59.6548 8.98742H59.906C60.6595 8.98742 61.413 8.98742 61.7898 9.48977C62.041 9.61536 62.1666 10.1177 62.041 10.6201ZM74.851 10.6201H72.716C72.5904 10.6201 72.3392 10.7457 72.3392 10.8713L72.2137 11.4992L72.0881 11.248C71.5857 10.6201 70.581 10.3689 69.5763 10.3689C67.1901 10.3689 65.1807 12.1271 64.8039 14.6389C64.5528 15.8948 64.9295 17.0251 65.5575 17.9042C66.1854 18.6577 67.1901 19.0345 68.1948 19.0345C70.0787 19.0345 71.0834 17.7786 71.0834 17.7786L70.9578 18.4066C70.9578 18.6577 71.0834 18.7833 71.2089 18.7833H73.0928C73.344 18.7833 73.5951 18.5322 73.7207 18.281L74.851 10.9968C75.2278 10.7457 75.1022 10.6201 74.851 10.6201ZM71.8369 14.7645C71.5857 16.0204 70.7066 16.7739 69.4507 16.7739C68.8228 16.7739 68.3204 16.5227 68.0692 16.146C67.8181 15.7692 67.6925 15.2669 67.6925 14.6389C67.9436 13.383 68.8228 12.6295 70.0787 12.6295C70.7066 12.6295 71.2089 12.8807 71.4601 13.2574C71.8369 13.6342 71.9625 14.1366 71.8369 14.7645ZM77.3628 6.72682L75.479 18.4066C75.479 18.6577 75.6046 18.7833 75.7301 18.7833H77.614C77.8652 18.7833 78.1163 18.5322 78.2419 18.281L80.0002 6.85241C80.0002 6.60124 79.8746 6.47565 79.749 6.47565H77.7396C77.4884 6.47565 77.3628 6.60124 77.3628 6.72682Z" fill="#179BD7"/>
<path d="M4.77235 21.0439L5.14912 18.9089H0.62793L3.1397 2.95915C3.1397 2.83356 3.26529 2.83356 3.39088 2.83356H9.41913C11.4286 2.83356 12.81 3.21032 13.5636 4.08944C13.9403 4.46621 14.0659 4.84298 14.1915 5.34533C14.3171 5.84768 14.3171 6.35004 14.1915 7.10357V7.48034L14.5683 7.73151C14.8194 7.8571 15.0706 7.98269 15.1962 8.23387C15.4474 8.61063 15.6986 8.9874 15.6986 9.48975C15.8242 9.99211 15.6986 10.6201 15.573 11.3736C15.4474 12.1271 15.1962 12.8806 14.8194 13.383C14.5683 13.8854 14.0659 14.3877 13.6891 14.6389C13.1868 15.0157 12.6844 15.1412 12.0565 15.3924C11.6797 15.518 11.0518 15.518 10.2983 15.518H9.7959C9.41913 15.518 9.16796 15.6436 8.91678 15.8948C8.6656 16.146 8.54001 16.3971 8.41442 16.7739V17.0251L7.78648 20.7927V21.0439H4.77235Z" fill="#005FCC"/>
<path d="M14.9453 7.10352V7.48028C14.0661 11.4991 11.3032 13.0062 7.7867 13.0062H6.02846C5.6517 13.0062 5.27493 13.2574 5.14934 13.7597L4.27022 19.5368L4.01904 21.1694C4.01904 21.4206 4.14463 21.6718 4.39581 21.6718H7.66111C8.03788 21.6718 8.41465 21.4206 8.41465 21.0439V20.9183L9.04259 17.1506V16.8994C9.04259 16.5227 9.41935 16.2715 9.79612 16.2715H10.2985C13.3126 16.2715 15.8244 15.0156 16.4523 11.3735C16.7035 9.86647 16.5779 8.61058 15.8244 7.73146C15.5732 7.48028 15.322 7.2291 14.9453 7.10352Z" fill="#179BD7"/>
<path d="M14.0661 6.72682C13.8149 6.60124 13.5638 6.60124 13.3126 6.60124C12.8102 6.47565 12.3079 6.47565 11.6799 6.47565H7.03314C6.65638 6.47565 6.27961 6.72682 6.27961 7.10359L5.2749 13.5086V13.6342C5.2749 13.2574 5.65167 13.0063 6.02843 13.0063H7.78668C11.3032 13.0063 14.0661 11.6248 14.8196 7.48036V7.10359C14.5685 6.978 14.4429 6.85241 14.1917 6.85241C14.1917 6.72682 14.1917 6.72682 14.0661 6.72682Z" fill="#005FCC"/>
<path d="M6.27943 7.10356C6.27943 6.7268 6.6562 6.47562 7.03296 6.47562H11.8053C12.3077 6.47562 12.9356 6.47562 13.438 6.60121C13.8148 6.60121 14.0659 6.7268 14.4427 6.85239C14.6939 6.97797 14.945 6.97797 15.0706 7.10356C15.3218 5.5965 15.0706 4.59179 14.1915 3.58708C13.3124 2.58237 11.6797 2.08002 9.54474 2.08002H3.39089C3.01413 2.08002 2.63736 2.45678 2.51177 2.83355L0 18.9089C0 19.1601 0.125589 19.4112 0.376766 19.5368H4.27001L5.27472 13.5086L6.27943 7.10356Z" fill="#005FCC"/>
</g>
<defs>
<clipPath id="clip0_1006_12386">
<rect width="80" height="24" fill="white"/>
</clipPath>
</defs>
</svg>
