<svg width="80" height="24" viewBox="0 0 80 24" fill="none" xmlns="http://www.w3.org/2000/svg">
<path fill-rule="evenodd" clip-rule="evenodd" d="M55.3519 5.72477C56.8932 5.72477 58.2143 4.40367 58.2143 2.86239C58.2143 1.3211 56.8932 0 55.3519 0C53.8106 0 52.4895 1.3211 52.4895 2.86239C52.4895 4.40367 53.8106 5.72477 55.3519 5.72477ZM33.2235 7.26605C33.1134 7.59633 32.1226 10.2385 29.9207 12.9908V1.21101L23.8657 2.42202V23.7798H29.9207V17.1743C31.6822 19.8165 32.5629 23.7798 32.5629 23.7798H39.829C39.0583 20.8073 35.9758 15.3028 35.9758 15.3028C38.7281 11.6697 39.9391 7.9266 40.1593 7.26605H33.2235ZM49.1868 7.04587C43.7923 7.26605 41.04 9.68807 41.04 14.5321V23.7798H46.985V16.1835C46.985 13.3211 47.3152 12 50.8382 11.8899V7.15596C50.1776 7.04587 49.1868 7.04587 49.1868 7.04587ZM13.7373 9.57798C12.9666 9.57798 11.3152 9.46789 11.3152 7.9266C11.3152 6.05505 13.7373 6.05505 14.7281 6.05505C16.3795 6.05505 18.4712 6.49541 20.0125 6.93578C20.0125 6.93578 20.8932 7.26605 21.5538 7.48624H21.6639V2.53211H21.5538C19.7923 1.87156 17.7006 1.3211 13.8473 1.3211C7.13175 1.21101 4.81982 5.06422 4.81982 8.36697C4.81982 10.2385 5.59047 14.7523 13.1868 15.3028C13.8473 15.3028 15.4987 15.4128 15.4987 17.0642C15.4987 18.3853 14.0675 19.156 11.7556 19.156C9.22349 19.156 6.69138 18.4954 5.1501 17.8349V23.1193C7.46203 23.6697 9.99414 24 12.9666 24C19.462 24 22.3244 20.367 22.3244 16.7339C22.4345 12.6606 19.1317 10.0183 13.7373 9.57798ZM52.4895 23.7798H58.3244V7.26605H52.4895V23.7798ZM69.3336 2.31193V23.7798H75.1684V1.21101L69.3336 2.31193ZM60.8565 2.31193L66.6914 1.21101V23.7798H60.8565V2.31193Z" fill="url(#paint0_linear_1006_12403)"/>
<defs>
<linearGradient id="paint0_linear_1006_12403" x1="22.1546" y1="0.308574" x2="27.4322" y2="29.9501" gradientUnits="userSpaceOnUse">
<stop stop-color="#952384"/>
<stop offset="1" stop-color="#6A347F"/>
</linearGradient>
</defs>
</svg>
