<svg width="24" height="24" viewBox="0 0 24 24" fill="none" xmlns="http://www.w3.org/2000/svg">
<path d="M3.81072 3.62284C3.07895 3.79449 2.46915 4.42688 2.28847 5.19478C2.18006 5.66003 2.30653 6.30146 2.59563 6.72606C2.66338 6.82544 4.23532 8.57806 6.09183 10.6198L9.4706 14.3328L9.47963 17.9374C9.49318 21.5014 9.49318 21.5465 9.58804 21.6685C9.80938 21.9712 10.1753 22.0796 10.4689 21.9395C10.5547 21.8989 11.4671 21.1897 12.497 20.3631C13.8476 19.2835 14.3942 18.8182 14.4484 18.7053C14.5207 18.5608 14.5297 18.3575 14.5297 16.4377V14.3328L17.5245 11.0399C19.1687 9.22852 20.7181 7.52558 20.962 7.25456C21.4589 6.70348 21.6441 6.37825 21.7254 5.89944C21.8564 5.12702 21.4544 4.2733 20.7587 3.85773C20.2528 3.55508 20.8084 3.57315 11.9776 3.57767C7.45147 3.58219 3.91009 3.60025 3.81072 3.62284Z" fill="currentColor"/>
</svg>
