<svg width="24" height="24" viewBox="0 0 24 24" fill="none" xmlns="http://www.w3.org/2000/svg">
<g clip-path="url(#clip0_10946_310291)">
<path d="M1.60146 3.72745C1.63922 3.72729 1.67698 3.72713 1.71588 3.72697C1.84199 3.72666 1.96806 3.72769 2.09416 3.72872C2.18472 3.72877 2.27528 3.72874 2.36583 3.72863C2.61143 3.72858 2.857 3.72968 3.10259 3.73099C3.35934 3.73216 3.61608 3.73227 3.87283 3.7325C4.35891 3.73308 4.84498 3.73462 5.33106 3.7365C5.88448 3.73859 6.43791 3.73963 6.99134 3.74057C8.12968 3.74253 9.26801 3.74582 10.4063 3.75C10.3955 3.78378 10.3846 3.81756 10.3734 3.85237C10.3238 4.00671 10.2742 4.16107 10.2247 4.31543C10.2076 4.36858 10.1905 4.42172 10.1729 4.47647C10.1563 4.52829 10.1397 4.5801 10.1225 4.63349C10.0997 4.70455 10.0997 4.70455 10.0764 4.77705C10.0276 4.93393 9.98274 5.09202 9.9376 5.25C7.92666 5.25 5.91572 5.25 3.84385 5.25C4.29246 6.95472 5.14723 8.21696 6.53056 9.3197C6.65451 9.42039 6.77281 9.52515 6.89072 9.63281C7.05091 9.77881 7.21441 9.91837 7.38291 10.0547C7.5948 10.2262 7.79854 10.4046 7.99998 10.5883C8.09865 10.6777 8.19882 10.7649 8.2999 10.8516C8.97187 11.4429 9.67063 12.2055 9.7605 13.1393C9.80985 14.1753 9.47484 14.9157 8.78632 15.6767C8.48305 16.0062 8.1637 16.3061 7.81339 16.5853C7.68944 16.686 7.57114 16.7908 7.45322 16.8984C7.25651 17.0777 7.05338 17.2467 6.84531 17.4126C6.63662 17.5869 6.43656 17.7712 6.23447 17.9531C9.04979 17.9531 11.8651 17.9531 14.7657 17.9531C14.2788 17.5029 14.2788 17.5029 13.7755 17.0782C13.3094 16.6995 12.8601 16.3012 12.422 15.8906C12.3913 15.8625 12.3606 15.8343 12.329 15.8053C11.7737 15.278 11.273 14.5324 11.2344 13.7485C11.223 13.1198 11.274 12.4458 11.7188 11.9531C11.9499 11.9531 12.0135 12.0347 12.1671 12.1875C12.4236 12.4335 12.6911 12.6422 12.9845 12.8438C12.97 12.8795 12.9555 12.9153 12.9405 12.9521C12.8155 13.2683 12.7773 13.585 12.8885 13.9131C13.2842 14.6953 14.0948 15.3076 14.7657 15.8438C15.0624 16.0828 15.3532 16.3257 15.6347 16.5824C15.7112 16.652 15.7881 16.7211 15.8655 16.7897C16.2905 17.1664 16.7013 17.561 17.0626 18C17.0817 18.0231 17.1008 18.0463 17.1204 18.0701C18.0192 19.1659 18.5046 20.3195 18.7501 21.7031C18.7947 21.7038 18.7947 21.7038 18.8403 21.7045C18.9763 21.707 19.1122 21.7109 19.2481 21.7148C19.295 21.7155 19.3418 21.7162 19.3901 21.7169C19.7523 21.7289 19.9215 21.789 20.1739 22.0547C20.2863 22.2968 20.2854 22.5188 20.2501 22.7813C20.1418 23.0145 20.0023 23.1238 19.7813 23.25C19.6277 23.2735 19.6277 23.2735 19.4576 23.2736C19.426 23.2739 19.3945 23.2741 19.3619 23.2744C19.2562 23.2751 19.1505 23.2745 19.0447 23.2738C18.9681 23.274 18.8915 23.2743 18.8149 23.2747C18.6044 23.2755 18.394 23.2751 18.1835 23.2745C17.9565 23.2741 17.7295 23.2747 17.5025 23.2753C17.0578 23.2761 16.6132 23.2759 16.1685 23.2754C15.8072 23.2749 15.4458 23.2749 15.0845 23.2751C15.0074 23.2751 15.0074 23.2751 14.9287 23.2752C14.8243 23.2752 14.7199 23.2753 14.6155 23.2754C13.6361 23.2759 12.6567 23.2753 11.6773 23.2743C10.8367 23.2734 9.99602 23.2736 9.15537 23.2744C8.17951 23.2754 7.20366 23.2758 6.2278 23.2753C6.12377 23.2752 6.01974 23.2751 5.91571 23.2751C5.86452 23.2751 5.81334 23.275 5.7606 23.275C5.39963 23.2748 5.03866 23.2751 4.67769 23.2756C4.23788 23.2761 3.79807 23.2759 3.35826 23.2749C3.13379 23.2744 2.90934 23.2743 2.68487 23.2749C2.47946 23.2754 2.27408 23.2751 2.06867 23.2741C1.99429 23.2739 1.91991 23.274 1.84554 23.2745C1.74452 23.275 1.64358 23.2745 1.54257 23.2736C1.48644 23.2736 1.43031 23.2735 1.37248 23.2735C1.13367 23.237 0.989635 23.1173 0.826271 22.9453C0.713863 22.7032 0.714764 22.4812 0.750099 22.2188C0.85158 22.0002 0.996371 21.8464 1.21885 21.75C1.39643 21.7211 1.57239 21.7174 1.75205 21.7148C1.82393 21.7128 1.82393 21.7128 1.89725 21.7106C2.01487 21.7073 2.13245 21.7049 2.2501 21.7031C2.26551 21.6163 2.26551 21.6163 2.28123 21.5277C2.54782 20.0807 3.12302 18.9196 4.11851 17.8293C4.20561 17.7333 4.29011 17.6358 4.37412 17.5371C4.71401 17.1474 5.08885 16.7856 5.48447 16.4531C5.53076 16.4137 5.57704 16.3742 5.62473 16.3336C5.86409 16.1297 6.10474 15.9278 6.34873 15.7295C7.51867 14.8687 7.51867 14.8687 8.17539 13.6534C8.19235 13.1292 7.97961 12.8018 7.63486 12.4219C7.25777 12.021 6.84629 11.6597 6.41795 11.3146C6.23489 11.1652 6.05606 11.011 5.87753 10.8562C5.75598 10.7513 5.6339 10.6477 5.50853 10.5472C5.17926 10.2834 4.87393 10.002 4.57627 9.70313C4.55289 9.67974 4.52951 9.65634 4.50542 9.63224C4.10537 9.23051 3.74045 8.81375 3.42197 8.34375C3.39481 8.30379 3.39481 8.30379 3.36709 8.26303C3.25215 8.09113 3.14766 7.91493 3.04697 7.73438C3.03135 7.70645 3.01572 7.67853 2.99962 7.64976C2.59069 6.90846 2.37193 6.1315 2.2501 5.29688C2.20545 5.29622 2.20545 5.29622 2.1599 5.29555C2.02391 5.29302 1.888 5.2891 1.75205 5.28516C1.70522 5.28449 1.65839 5.28383 1.61015 5.28314C1.24786 5.27115 1.07868 5.211 0.826271 4.94531C0.713863 4.70321 0.714764 4.48124 0.750099 4.21875C0.923359 3.84558 1.20553 3.72126 1.60146 3.72745Z" fill="currentColor"/>
<path d="M21.0305 2.01984C22.0635 2.90164 22.7398 3.94471 23.1095 5.25001C23.1255 5.30524 23.1415 5.36046 23.158 5.41737C23.5111 6.91209 23.212 8.60042 22.4232 9.90491C21.9316 10.6868 21.2743 11.3773 20.4845 11.8594C20.4342 11.8914 20.3839 11.9234 20.3321 11.9564C19.0667 12.7268 17.4128 12.9997 15.9651 12.6574C15.8819 12.6336 15.8819 12.6336 15.797 12.6094C15.7653 12.6008 15.7335 12.5923 15.7009 12.5834C14.8386 12.3461 14.0378 11.9259 13.3595 11.3438C13.3202 11.3109 13.2809 11.2781 13.2404 11.2443C12.3262 10.4601 11.7056 9.35625 11.3907 8.20313C11.3748 8.147 11.3589 8.09086 11.3426 8.03303C11.0581 6.81778 11.2203 5.49393 11.7188 4.35938C11.7321 4.32872 11.7454 4.29805 11.7591 4.26646C11.9896 3.74439 12.2957 3.30002 12.6563 2.85938C12.695 2.81201 12.7337 2.76464 12.7735 2.71583C13.5594 1.80593 14.6535 1.21749 15.797 0.890633C15.8529 0.87456 15.9088 0.858487 15.9663 0.841927C17.6975 0.437032 19.6596 0.895348 21.0305 2.01984ZM16.7345 3.98438C16.5442 4.22609 16.4951 4.42449 16.4925 4.72646C16.4921 4.77013 16.4916 4.8138 16.4912 4.85879C16.491 4.90547 16.4908 4.95215 16.4906 5.00025C16.4903 5.04886 16.49 5.09747 16.4898 5.14755C16.4893 5.25031 16.489 5.35306 16.4888 5.45582C16.4884 5.61208 16.4869 5.76831 16.4854 5.92457C16.4851 6.02467 16.4849 6.12476 16.4847 6.22486C16.4841 6.27116 16.4836 6.31747 16.483 6.36517C16.4839 6.66993 16.5018 6.99883 16.7005 7.24636C17.0042 7.5241 17.373 7.51446 17.7595 7.51411C17.8322 7.51441 17.8322 7.51441 17.9064 7.51472C18.0086 7.51498 18.1108 7.51501 18.213 7.5148C18.3684 7.51466 18.5238 7.51576 18.6792 7.51694C18.7789 7.51705 18.8786 7.51708 18.9782 7.51704C19.0473 7.51768 19.0473 7.51768 19.1177 7.51834C19.4198 7.51634 19.7617 7.50267 19.9981 7.29132C20.1882 7.06879 20.2199 6.91895 20.2162 6.63465C20.1969 6.45823 20.1337 6.36479 20.0157 6.23438C19.7304 6.00974 19.5046 5.99401 19.1491 5.99543C19.0996 5.99553 19.0996 5.99553 19.0492 5.99563C18.9446 5.99589 18.84 5.99648 18.7354 5.99708C18.6642 5.99731 18.593 5.99753 18.5218 5.99772C18.3479 5.99823 18.174 5.99904 18.0001 6.00001C18.0012 5.93516 18.0012 5.93516 18.0023 5.86901C18.0047 5.70677 18.0065 5.54456 18.0078 5.38231C18.0085 5.31244 18.0095 5.24257 18.0107 5.1727C18.0441 4.5481 18.0441 4.5481 17.7914 4.00298C17.5702 3.81112 17.4187 3.7802 17.1347 3.78388C16.9583 3.80315 16.8649 3.86639 16.7345 3.98438Z" fill="currentColor"/>
</g>
<defs>
<clipPath id="clip0_10946_310291">
<rect width="24" height="24" fill="currentColor"/>
</clipPath>
</defs>
</svg>
