<svg width="24" height="24" viewBox="0 0 24 24" fill="none" xmlns="http://www.w3.org/2000/svg">
<g id="icn / main">
<path id="a-twitter-icon_header" d="M21 6.50379C20.3375 6.79291 19.6266 6.98899 18.8798 7.07653C19.6424 6.62676 20.2261 5.91336 20.5028 5.06591C19.7875 5.48242 18.9979 5.78487 18.1565 5.94882C17.4828 5.24095 16.5244 4.80005 15.4615 4.80005C13.4223 4.80005 11.7688 6.42848 11.7688 8.43577C11.7688 8.72046 11.8014 8.99851 11.8644 9.2644C8.79601 9.11261 6.07515 7.66476 4.25412 5.46469C3.9358 6.00087 3.75471 6.62563 3.75471 7.29254C3.75471 8.55431 4.40709 9.66762 5.39692 10.319C4.79177 10.299 4.22262 10.1351 3.72435 9.86257V9.90799C3.72435 11.6693 4.99762 13.1394 6.68592 13.4739C6.37659 13.5559 6.05042 13.6013 5.71297 13.6013C5.47453 13.6013 5.24395 13.5781 5.01786 13.5337C5.488 14.9794 6.85127 16.0307 8.46648 16.0595C7.20333 17.0343 5.61062 17.6137 3.88071 17.6137C3.58265 17.6137 3.28906 17.596 3 17.5639C4.63433 18.5974 6.57459 19.2 8.65995 19.2C15.4525 19.2 19.1655 13.6589 19.1655 8.85342L19.1531 8.38262C19.8786 7.873 20.5062 7.23272 21 6.50379Z" fill="#8E949F"/>
</g>
</svg>
