<svg width="24" height="24" viewBox="0 0 24 24" fill="none" xmlns="http://www.w3.org/2000/svg">
<path d="M8.53125 17.5312C8.72654 17.6055 8.88054 17.6993 9.05273 17.8184C9.76198 18.2857 10.5062 18.4659 11.3438 18.6562C11.3438 19.9247 11.3438 21.1931 11.3438 22.5C10.2967 22.3898 10.2967 22.3898 9.91699 22.3037C9.87214 22.2937 9.82729 22.2836 9.78108 22.2733C8.41818 21.9549 7.18054 21.3122 6.09375 20.4375C6.03147 20.3903 5.96907 20.3433 5.90625 20.2969C5.92786 20.0951 6.05724 19.9864 6.19511 19.8514C6.22026 19.8263 6.24542 19.8011 6.27133 19.7751C6.35445 19.6921 6.43805 19.6096 6.52167 19.5271C6.57943 19.4696 6.63717 19.4121 6.69487 19.3545C6.84676 19.2031 6.99907 19.0522 7.15146 18.9014C7.30693 18.7474 7.462 18.5929 7.6171 18.4385C7.92143 18.1357 8.2262 17.8333 8.53125 17.5312Z" fill="currentColor"/>
<path d="M15.375 17.5312C15.5567 17.6055 15.68 17.729 15.8161 17.8658C15.8409 17.8902 15.8656 17.9147 15.891 17.9399C15.9724 18.0207 16.0535 18.1018 16.1345 18.1829C16.191 18.2392 16.2475 18.2955 16.304 18.3518C16.4222 18.4696 16.5402 18.5877 16.6581 18.7058C16.8095 18.8574 16.9613 19.0085 17.1134 19.1595C17.2301 19.2755 17.3464 19.3918 17.4627 19.5082C17.5186 19.5641 17.5746 19.6198 17.6307 19.6755C17.7089 19.7531 17.7867 19.8312 17.8644 19.9094C17.8877 19.9324 17.9111 19.9554 17.9352 19.9792C18.0938 20.1402 18.0938 20.1402 18.0938 20.2969C18.0355 20.3599 18.0355 20.3599 17.9524 20.4241C17.9057 20.4604 17.9057 20.4604 17.8581 20.4973C17.8065 20.5359 17.8065 20.5359 17.7539 20.5752C17.7183 20.602 17.6827 20.6288 17.6461 20.6564C16.1694 21.7473 14.486 22.3593 12.6562 22.5C12.6562 21.2316 12.6562 19.9631 12.6562 18.6562C12.9502 18.5944 13.2441 18.5325 13.5469 18.4688C13.714 18.4153 13.8676 18.3639 14.0273 18.2959C14.0657 18.2801 14.104 18.2643 14.1435 18.2481C14.5818 18.0617 14.9985 17.8238 15.375 17.5312Z" fill="currentColor"/>
<path d="M17.4844 13.8281C18.7373 13.8281 19.9903 13.8281 21.2812 13.8281C21.2812 14.1842 21.2706 14.4899 21.2051 14.833C21.1967 14.8774 21.1884 14.9218 21.1798 14.9675C20.8972 16.403 20.3082 17.7385 19.4062 18.8906C19.3715 18.9358 19.3368 18.981 19.301 19.0276C19.2273 19.1231 19.153 19.2179 19.0781 19.3125C18.7643 19.0548 18.4811 18.7683 18.195 18.4808C18.1419 18.4276 18.0888 18.3744 18.0356 18.3212C17.8967 18.1822 17.758 18.043 17.6193 17.9037C17.4773 17.7613 17.3352 17.619 17.1931 17.4767C16.9151 17.1981 16.6372 16.9194 16.3594 16.6406C16.4254 16.4695 16.5 16.3271 16.6025 16.1748C17.087 15.4215 17.2969 14.703 17.4844 13.8281Z" fill="currentColor"/>
<path d="M2.71875 13.8281C3.97172 13.8281 5.22469 13.8281 6.51563 13.8281C6.59297 14.153 6.67031 14.4778 6.75 14.8125C6.96808 15.4444 7.25922 16.0009 7.64063 16.5469C7.56598 16.7313 7.43875 16.8551 7.29957 16.9923C7.27441 17.0175 7.24925 17.0427 7.22333 17.0686C7.14036 17.1515 7.05706 17.2341 6.97376 17.3167C6.91607 17.3742 6.8584 17.4317 6.80075 17.4893C6.64915 17.6405 6.49726 17.7915 6.34532 17.9424C6.19025 18.0965 6.03544 18.2509 5.88062 18.4052C5.57692 18.7079 5.27293 19.0103 4.96875 19.3125C3.78803 18.1457 3.09616 16.4401 2.79492 14.833C2.78706 14.7918 2.7792 14.7506 2.7711 14.7081C2.71785 14.4035 2.71875 14.1466 2.71875 13.8281Z" fill="currentColor"/>
<path d="M4.92188 7.07812C5.10338 7.15244 5.22727 7.27559 5.36377 7.4119C5.38856 7.4363 5.41335 7.46071 5.43889 7.48585C5.52053 7.56636 5.60181 7.64723 5.68304 7.72815C5.73964 7.78432 5.79623 7.84049 5.85283 7.89665C5.97125 8.0143 6.08946 8.13215 6.20756 8.25011C6.35918 8.40148 6.51154 8.55207 6.66409 8.70248C6.78114 8.81814 6.89766 8.93432 7.01404 9.05065C7.07001 9.10642 7.12618 9.16201 7.18253 9.21739C7.26111 9.29471 7.33891 9.37273 7.41656 9.45097C7.4401 9.47381 7.46365 9.49666 7.4879 9.5202C7.55143 9.58511 7.55143 9.58511 7.64062 9.70312C7.63364 9.90468 7.48523 10.0664 7.37695 10.2305C6.91236 10.9607 6.73347 11.6442 6.51562 12.5156C5.26266 12.5156 4.00969 12.5156 2.71875 12.5156C2.71875 10.5399 3.6305 8.54934 4.92188 7.07812Z" fill="currentColor"/>
<path d="M18.9843 7.07812C19.796 7.44678 20.4267 9.02818 20.7304 9.81445C20.9542 10.4133 21.1157 11.0219 21.2256 11.6514C21.2314 11.6842 21.2372 11.7171 21.2432 11.751C21.2853 12.0141 21.2812 12.241 21.2812 12.5156C20.0282 12.5156 18.7753 12.5156 17.4843 12.5156C17.3915 12.1444 17.2987 11.7731 17.2031 11.3906C16.9973 10.8778 16.783 10.3588 16.4174 9.93567C16.3593 9.84375 16.3593 9.84375 16.364 9.76038C16.4253 9.60905 16.5335 9.51056 16.6482 9.3983C16.6734 9.37313 16.6985 9.34795 16.7244 9.32202C16.8075 9.239 16.8911 9.15649 16.9748 9.07397C17.0325 9.01647 17.0903 8.95894 17.148 8.90137C17.2999 8.75002 17.4522 8.59909 17.6046 8.44825C17.76 8.29423 17.9151 8.1398 18.0702 7.98541C18.3745 7.68259 18.6793 7.38022 18.9843 7.07812Z" fill="currentColor"/>
<path d="M12.2812 10.4063C12.3845 10.5386 12.4534 10.6826 12.5244 10.834C12.5437 10.873 12.563 10.9119 12.5829 10.952C12.6211 11.0292 12.6588 11.1066 12.6959 11.1844C12.7481 11.293 12.8027 11.4003 12.8578 11.5075C12.9375 11.6719 12.9375 11.6719 12.9375 11.7657C13.0121 11.78 13.0867 11.7943 13.1614 11.8085C13.2277 11.8211 13.294 11.8338 13.3603 11.8466C13.546 11.8819 13.7313 11.9133 13.9186 11.9387C13.9751 11.9468 13.9751 11.9468 14.0329 11.955C14.106 11.9653 14.1793 11.9748 14.2527 11.9834C14.4288 12.0089 14.5186 12.0345 14.6472 12.1606C14.7405 12.318 14.7577 12.3822 14.7187 12.5626C14.6237 12.7018 14.5092 12.8182 14.3906 12.9376C14.3374 12.9926 14.3374 12.9926 14.2831 13.0487C14.1376 13.1972 13.9945 13.3391 13.8311 13.4678C13.7254 13.5543 13.6895 13.6082 13.6406 13.7344C13.6396 13.839 13.6396 13.839 13.6606 13.9483C13.667 13.9893 13.6734 14.0302 13.6801 14.0724C13.6874 14.1156 13.6946 14.1587 13.7021 14.2032C13.7158 14.292 13.7293 14.3809 13.7428 14.4698C13.7494 14.5126 13.7561 14.5555 13.7629 14.5996C13.8587 15.2214 13.8587 15.2214 13.752 15.4307C13.6274 15.5258 13.5608 15.5471 13.4062 15.5626C13.2952 15.5278 13.2952 15.5278 13.1812 15.4712C13.1392 15.4507 13.0973 15.4303 13.054 15.4092C12.9891 15.3763 12.9891 15.3763 12.9229 15.3428C12.8587 15.3113 12.8587 15.3113 12.7933 15.2792C12.4479 15.1091 12.4479 15.1091 12.3185 15.0331C12.1547 14.9391 12.0796 14.9021 11.8874 14.9268C11.6753 15.0189 11.473 15.1231 11.2705 15.2344C10.634 15.5828 10.634 15.5828 10.4209 15.5333C10.2984 15.4604 10.2456 15.4028 10.1719 15.2813C10.1635 15.1746 10.1635 15.1746 10.1777 15.0499C10.1829 15.001 10.188 14.9521 10.1933 14.9017C10.2133 14.7581 10.2359 14.6158 10.2603 14.4729C10.2674 14.4295 10.2745 14.3861 10.2818 14.3413C10.2962 14.2543 10.3117 14.1674 10.3282 14.0807C10.3629 13.8707 10.3766 13.7692 10.2797 13.5737C10.1904 13.4738 10.1059 13.3849 10.002 13.3008C9.29738 12.7077 9.29738 12.7077 9.2666 12.4307C9.2852 12.241 9.33399 12.1803 9.46875 12.0469C9.6212 11.9995 9.6212 11.9995 9.79999 11.9744C9.83164 11.9697 9.8633 11.9649 9.89591 11.96C9.99658 11.9451 10.0974 11.9315 10.1982 11.918C10.2992 11.9036 10.4001 11.8888 10.5011 11.874C10.5925 11.8608 10.684 11.8482 10.7755 11.8357C10.9228 11.8165 10.9228 11.8165 11.0625 11.7657C11.0963 11.6728 11.1267 11.5787 11.1562 11.4844C11.2332 11.3071 11.3176 11.1337 11.4023 10.96C11.4242 10.9133 11.446 10.8665 11.4684 10.8184C11.5644 10.6225 11.6359 10.4815 11.8088 10.3453C12.0082 10.3 12.098 10.3129 12.2812 10.4063Z" fill="currentColor"/>
<path d="M9.51562 4.21875C9.53447 4.25174 9.55331 4.28473 9.57273 4.31873C9.78654 4.69255 10.0019 5.06542 10.2188 5.4375C10.2429 5.47909 10.2671 5.52069 10.292 5.56355C10.5749 6.04659 10.8278 6.40774 11.3438 6.65625C11.3451 6.82715 11.3459 6.99804 11.3467 7.16895C11.3471 7.21774 11.3475 7.26653 11.3479 7.3168C11.348 7.36318 11.3482 7.40955 11.3483 7.45734C11.3486 7.50029 11.3488 7.54325 11.3491 7.58751C11.3438 7.6875 11.3438 7.6875 11.2969 7.73438C11.1936 7.75531 11.09 7.7745 10.9863 7.79297C10.1136 7.96065 9.32045 8.30537 8.625 8.85938C8.31116 8.60169 8.02795 8.31518 7.74188 8.02771C7.68876 7.9745 7.63563 7.92131 7.58249 7.86812C7.44361 7.72905 7.30486 7.58985 7.16614 7.45061C7.02419 7.30817 6.8821 7.16587 6.74002 7.02356C6.46197 6.745 6.18406 6.4663 5.90625 6.1875C6.2825 5.36246 7.87524 4.75522 8.65915 4.45024C9.29228 4.21875 9.29228 4.21875 9.51562 4.21875Z" fill="currentColor"/>
<path d="M14.4844 4.21875C14.808 4.27301 15.1014 4.35716 15.4043 4.48242C15.4651 4.50727 15.4651 4.50727 15.5272 4.53262C16.3699 4.88233 17.1608 5.31485 17.8594 5.90625C17.9374 5.96894 18.0155 6.03148 18.0938 6.09375C18.0192 6.27819 17.8919 6.40199 17.7527 6.5392C17.7276 6.56437 17.7024 6.58955 17.6765 6.61548C17.5935 6.69839 17.5102 6.78096 17.4269 6.86353C17.3692 6.92104 17.3116 6.97857 17.2539 7.03613C17.1023 7.18738 16.9504 7.33834 16.7985 7.48925C16.6434 7.64336 16.4886 7.79773 16.3338 7.95209C16.0301 8.25478 15.7261 8.55717 15.4219 8.85938C14.9063 8.53125 14.9063 8.53125 14.7691 8.44341C14.196 8.08125 13.5467 7.87128 12.8817 7.75818C12.75 7.73438 12.75 7.73438 12.6563 7.6875C12.5793 6.75403 12.5793 6.75403 12.7491 6.53833C12.8702 6.47461 12.8702 6.47461 12.9905 6.43689C13.411 6.24349 13.6171 5.7363 13.8311 5.34961C13.8793 5.26353 13.9275 5.17753 13.9758 5.09153C14.0071 5.03582 14.0383 4.98008 14.0695 4.92432C14.2029 4.68612 14.3421 4.45168 14.4844 4.21875Z" fill="currentColor"/>
<path d="M10.3292 1.48105C10.3691 1.48073 10.4091 1.48041 10.4502 1.48007C10.5825 1.47921 10.7147 1.4794 10.847 1.47966C10.9388 1.47945 11.0307 1.4792 11.1225 1.47892C11.3151 1.4785 11.5076 1.47861 11.7002 1.47908C11.9471 1.47962 12.194 1.47867 12.4409 1.4773C12.6306 1.47644 12.8202 1.47646 13.0099 1.47672C13.101 1.47673 13.192 1.47645 13.283 1.47587C13.4103 1.47517 13.5375 1.47567 13.6648 1.47647C13.7213 1.47579 13.7213 1.47579 13.779 1.4751C13.9459 1.47731 14.0429 1.48533 14.1784 1.58676C14.2723 1.71884 14.2922 1.80685 14.2969 1.96874C14.2527 2.10021 14.2527 2.10021 14.1768 2.24413C14.1623 2.27167 14.1479 2.29921 14.133 2.32758C13.9311 2.70582 13.7103 3.07416 13.4927 3.44347C13.276 3.81119 13.0634 4.18122 12.8508 4.5513C12.7965 4.64574 12.7419 4.74008 12.6872 4.83429C12.6352 4.92417 12.5838 5.01442 12.533 5.10502C12.4969 5.16826 12.4969 5.16826 12.46 5.23278C12.439 5.27007 12.418 5.30736 12.3964 5.34578C12.3188 5.44997 12.2616 5.48657 12.1406 5.53124C11.9533 5.54685 11.8302 5.53957 11.6719 5.43749C11.5972 5.33431 11.5972 5.33431 11.5245 5.20458C11.497 5.15615 11.4695 5.10773 11.4411 5.05783C11.4119 5.00523 11.3827 4.95262 11.3525 4.89843C11.3215 4.84352 11.2905 4.78865 11.2594 4.7338C11.1946 4.61954 11.1301 4.50514 11.0658 4.39065C10.9146 4.12211 10.7598 3.85561 10.6055 3.58886C10.5475 3.48815 10.4895 3.38744 10.4315 3.28673C10.3248 3.10181 10.2172 2.9175 10.1085 2.73375C10.0845 2.69287 10.0604 2.65199 10.0356 2.60987C9.99123 2.53461 9.94661 2.4595 9.90166 2.38458C9.71818 2.07254 9.71818 2.07254 9.70312 1.87499C9.80661 1.5128 9.97467 1.47907 10.3292 1.48105Z" fill="currentColor"/>
</svg>
