<svg width="68" height="24" viewBox="0 0 68 24" fill="none" xmlns="http://www.w3.org/2000/svg">
<path fill-rule="evenodd" clip-rule="evenodd" d="M4.20887 2.98674L4.01594 3.01085L3.6747 0.247186L4.28966 0.171222L4.60919 2.78296C4.84673 2.67203 5.09392 2.57556 5.35075 2.49116L5.06377 0.150723L6.29127 0L6.56136 2.19936C7.06779 2.11736 7.60557 2.07637 8.17109 2.07637C9.7772 2.07637 11.3712 2.30547 12.9569 2.76367V3.29662C11.4982 2.89837 9.99305 2.69563 8.48098 2.69373C5.96691 2.69373 4.03162 3.50523 2.67631 5.12822C1.3198 6.74879 0.642148 9.06632 0.642148 12.0772C0.642148 14.1077 0.376875 13.6326 1.01232 15.047C0.170685 13.5265 0.332261 13.7954 0.332261 11.4586C0.332261 8.44775 1.01112 6.13143 2.36643 4.50965C2.87961 3.89093 3.50463 3.37431 4.20887 2.98674ZM12.0947 22.2263L12.2828 23.7528L11.0553 23.9035L10.8757 22.4445C10.6204 22.4757 10.3643 22.499 10.1076 22.5145L10.2812 23.9252L9.66627 24L9.48781 22.5386L9.22977 22.5422C8.97191 22.5391 8.71418 22.529 8.45686 22.5121C6.41064 22.3517 4.78765 21.5354 3.58909 20.0667C2.24223 18.4148 1.5694 16.1141 1.5694 13.1588C1.5694 10.1479 2.24705 7.83159 3.60356 6.20981C4.96007 4.58802 6.89536 3.77653 9.40823 3.77653C11.0131 3.77653 12.6084 4.00563 14.194 4.46383V7.3758C12.3962 6.61133 10.8901 6.23031 9.67712 6.23031C8.12527 6.23031 6.92792 6.82717 6.08628 8.02211C5.24343 9.21825 4.82262 10.9148 4.82262 13.1117C4.82262 15.2701 5.27479 16.9522 6.18033 18.1592C7.08467 19.3674 8.34352 19.9703 9.95445 19.9703C11.4014 19.9703 12.8604 19.5277 14.3327 18.6427V21.3834C13.6271 21.762 12.8746 22.0458 12.0947 22.2275V22.2263ZM8.67993 18.2737L9.95566 18.4232C11.6377 18.3316 12.9701 17.9904 13.9516 17.3995L14.3327 17.8939C13.4211 18.4039 12.0658 18.7862 10.2643 19.0418C9.19601 19.0816 8.35919 18.6982 7.7563 17.8939C7.58025 17.6588 7.88893 17.7854 8.67993 18.2737ZM21.8785 10.8159L23.0939 11.244C22.907 11.9964 22.5971 12.5547 22.1643 12.92C21.7302 13.2854 21.1803 13.4686 20.5135 13.4686C19.6888 13.4686 19.0111 13.1551 18.4806 12.5305C17.95 11.9035 17.6848 11.0498 17.6848 9.96463C17.6848 8.81672 17.9512 7.92564 18.4854 7.29019C19.0184 6.65595 19.7201 6.33762 20.5907 6.33762C21.3504 6.33762 21.9665 6.58722 22.4416 7.08521C22.7237 7.38063 22.936 7.80386 23.077 8.35611L21.8351 8.68529C21.7798 8.36034 21.6187 8.06276 21.3769 7.83883C21.1432 7.63115 20.8393 7.51996 20.5268 7.52773C20.0662 7.52773 19.6924 7.71101 19.4054 8.07878C19.1196 8.44534 18.9762 9.03979 18.9762 9.86093C18.9762 10.7327 19.1172 11.3537 19.3994 11.7239C19.6827 12.0941 20.0505 12.2785 20.5015 12.2785C20.6612 12.2806 20.8197 12.2504 20.9674 12.1897C21.1152 12.129 21.2491 12.039 21.3612 11.9252C21.6012 11.6901 21.7736 11.3211 21.8785 10.8159ZM25.0497 9.88023L23.9705 9.66318C24.0911 9.18087 24.3009 8.82275 24.5975 8.59003C24.8942 8.35852 25.3343 8.24277 25.9191 8.24277C26.4496 8.24277 26.8451 8.3127 27.1056 8.45257C27.3648 8.59124 27.5481 8.76849 27.653 8.98312C27.7591 9.19895 27.8122 9.59325 27.8122 10.1672L27.8001 11.7094C27.8001 12.1483 27.8182 12.4727 27.8568 12.6801C27.8954 12.8887 27.9653 13.1129 28.0702 13.3505H26.8934C26.8502 13.2222 26.812 13.0923 26.7788 12.961C26.7664 12.9083 26.7523 12.8561 26.7366 12.8043C26.5528 13.0093 26.3314 13.1771 26.0843 13.2986C25.8526 13.4087 25.5992 13.4651 25.3427 13.4638C24.8797 13.4638 24.5143 13.324 24.2479 13.0454C23.9814 12.7657 23.8475 12.4136 23.8475 11.9867C23.8475 11.7046 23.9078 11.4526 24.0296 11.2319C24.1502 11.0113 24.3214 10.8412 24.5397 10.7243C24.7591 10.6061 25.075 10.5036 25.4874 10.4156C26.0421 10.2998 26.4279 10.1913 26.6438 10.0912V9.9586C26.6438 9.70539 26.5871 9.52452 26.475 9.416C26.3604 9.30748 26.1482 9.25442 25.8347 9.25442C25.6225 9.25442 25.4573 9.30024 25.3391 9.39309C25.2197 9.48593 25.1245 9.64751 25.0497 9.88023ZM26.6438 10.9522C26.4061 11.0329 26.1642 11.1006 25.9191 11.1547C25.5887 11.2331 25.3729 11.3091 25.2704 11.3838C25.1971 11.4374 25.1378 11.5077 25.0973 11.5889C25.0568 11.6701 25.0364 11.7598 25.0377 11.8505C25.0377 12.035 25.1004 12.1953 25.2245 12.3304C25.2843 12.3963 25.3575 12.4485 25.4393 12.4835C25.5211 12.5184 25.6095 12.5353 25.6984 12.533C25.9246 12.5289 26.1422 12.4457 26.3134 12.2978C26.4524 12.1861 26.5517 12.0327 26.5967 11.8601C26.6281 11.7468 26.6438 11.5322 26.6438 11.215V10.9522ZM28.567 11.9252L29.7607 11.7239C29.8114 11.9807 29.9151 12.176 30.0706 12.3087C30.225 12.4413 30.4432 12.5088 30.7217 12.5088C31.0304 12.5088 31.2619 12.4461 31.4175 12.3207C31.4687 12.2779 31.5095 12.2239 31.5367 12.1629C31.5639 12.1018 31.5767 12.0354 31.5742 11.9686C31.5778 11.8779 31.5477 11.789 31.4898 11.7191C31.4295 11.6564 31.2969 11.5985 31.0919 11.5442C30.1309 11.3091 29.522 11.0945 29.2651 10.9003C28.9094 10.6302 28.7322 10.2564 28.7322 9.77653C28.7322 9.34244 28.8853 8.98071 29.1928 8.68529C29.5015 8.38987 29.9778 8.24277 30.6253 8.24277C31.2402 8.24277 31.6984 8.3537 31.9975 8.57677C32.2965 8.79984 32.5039 9.12902 32.616 9.56551L31.4934 9.79461C31.4565 9.61874 31.3598 9.4611 31.2197 9.34847C31.0871 9.24477 30.8942 9.19293 30.6458 9.19293C30.3323 9.19293 30.108 9.24116 29.9729 9.33883C29.9302 9.36901 29.8954 9.40916 29.8717 9.4558C29.8479 9.50245 29.8359 9.55418 29.8367 9.60651C29.8365 9.65321 29.8473 9.6993 29.868 9.74115C29.8887 9.783 29.9188 9.81946 29.9561 9.84767C30.0634 9.93449 30.4336 10.0587 31.0678 10.2178C31.702 10.3782 32.1446 10.5748 32.3954 10.8063C32.6438 11.0414 32.7692 11.3694 32.7692 11.789C32.7692 12.2472 32.5967 12.6403 32.2507 12.9707C31.907 13.2986 31.397 13.4638 30.7229 13.4638C30.1092 13.4638 29.6257 13.3264 29.2676 13.0502C28.9079 12.7703 28.6596 12.3715 28.567 11.9252ZM34.9963 6.45579V8.99035C35.3809 8.49236 35.8403 8.24277 36.3733 8.24277C36.647 8.24277 36.8942 8.29944 37.1148 8.41158C37.3343 8.52492 37.5007 8.66961 37.6116 8.84566C37.7237 9.0205 37.7997 9.21463 37.8407 9.42805C37.8817 9.64148 37.9022 9.97186 37.9022 10.4204V13.3505H36.7133V10.7122C36.7133 10.1889 36.6904 9.85611 36.6458 9.71503C36.6035 9.57341 36.5141 9.45051 36.3924 9.36672C36.2707 9.28293 36.1239 9.2433 35.9766 9.25442C35.7875 9.25132 35.6021 9.30693 35.446 9.41359C35.2824 9.53227 35.1628 9.70191 35.106 9.8959C35.0336 10.1105 34.9975 10.4289 34.9975 10.8485V13.3505H33.8073V6.45579H34.9975H34.9963ZM40.7237 12.5932L40.8335 13.3408C40.6449 13.388 40.4515 13.4134 40.2571 13.4168C39.9798 13.4168 39.7664 13.3686 39.6132 13.2709C39.4672 13.1814 39.3542 13.0468 39.2913 12.8875C39.2298 12.7295 39.1984 12.3955 39.1984 11.8879V9.01568H38.6389V8.35732H39.1984V7.11897L39.9569 6.61133V8.35611H40.7237V9.01447H39.9569V11.9337C39.9569 12.1748 39.9701 12.3316 39.9967 12.3991C40.0224 12.4668 40.0688 12.5246 40.1293 12.5643C40.1896 12.6053 40.2752 12.6246 40.3885 12.6246C40.4729 12.6246 40.5851 12.615 40.7237 12.592V12.5932ZM41.1856 10.8533C41.1856 9.92846 41.4171 9.24357 41.8801 8.79743C42.2659 8.42846 42.7386 8.24277 43.2945 8.24277C43.9131 8.24277 44.4183 8.46825 44.8114 8.91801C45.2032 9.36777 45.3998 9.98995 45.3998 10.7834C45.3998 11.426 45.313 11.9313 45.1393 12.3002C44.9772 12.655 44.7132 12.9534 44.3809 13.1576C44.0552 13.3597 43.679 13.4658 43.2957 13.4638C42.6651 13.4638 42.1562 13.2395 41.768 12.791C41.3797 12.3424 41.1856 11.6973 41.1856 10.8533ZM41.9693 10.8533C41.9693 11.4924 42.0947 11.9723 42.3455 12.2906C42.5975 12.6089 42.9123 12.7681 43.2945 12.7681C43.6731 12.7681 43.9878 12.6077 44.2386 12.2882C44.4906 11.9686 44.616 11.4803 44.616 10.8256C44.616 10.207 44.4894 9.74035 44.2374 9.42082C43.9842 9.10249 43.6707 8.94333 43.2945 8.94333C43.11 8.9416 42.9277 8.98378 42.7627 9.06638C42.5977 9.14899 42.4547 9.26965 42.3455 9.41841C42.0947 9.73553 41.9693 10.2142 41.9693 10.8533ZM50.3254 10.8159L51.5421 11.244C51.3552 11.9964 51.0453 12.5547 50.6124 12.92C50.1783 13.2854 49.6285 13.4686 48.9617 13.4686C48.1381 13.4686 47.4593 13.1551 46.9287 12.5305C46.3982 11.9035 46.1329 11.0498 46.1329 9.96463C46.1329 8.81672 46.3994 7.92564 46.9336 7.29019C47.4665 6.65595 48.1683 6.33762 49.0389 6.33762C49.7985 6.33762 50.4147 6.58722 50.8897 7.08521C51.1719 7.38063 51.3841 7.80386 51.5252 8.35611L50.2832 8.68529C50.228 8.36034 50.0669 8.06276 49.825 7.83883C49.5913 7.63115 49.2875 7.51996 48.975 7.52773C48.5143 7.52773 48.1405 7.71101 47.8536 8.07878C47.5678 8.44534 47.4243 9.03979 47.4243 9.86093C47.4243 10.7327 47.5654 11.3537 47.8487 11.7239C48.1309 12.0941 48.4975 12.2785 48.9496 12.2785C49.1093 12.2806 49.2678 12.2504 49.4156 12.1897C49.5633 12.129 49.6973 12.039 49.8094 11.9252C50.0505 11.6901 50.2217 11.3211 50.3266 10.8159H50.3254ZM52.3343 10.7834C52.3343 10.3432 52.4307 9.91881 52.6261 9.50764C52.8214 9.09767 53.0963 8.78416 53.4545 8.56712C53.8114 8.35008 54.2105 8.24277 54.6506 8.24277C55.3319 8.24277 55.8889 8.48875 56.3242 8.9783C56.7583 9.47026 56.9754 10.09 56.9754 10.8388C56.9754 11.5949 56.7571 12.2219 56.3182 12.7186C56.1143 12.9583 55.8596 13.1495 55.5727 13.2783C55.2857 13.4072 54.9736 13.4706 54.659 13.4638C54.2467 13.4638 53.8536 13.3601 53.4798 13.1539C53.1064 12.948 52.8077 12.6294 52.6261 12.2436C52.4319 11.8432 52.3343 11.3561 52.3343 10.7834ZM53.5533 10.8533C53.5533 11.3477 53.6594 11.7287 53.8717 11.9916C53.9617 12.1146 54.0794 12.2148 54.2154 12.2838C54.3514 12.3528 54.5017 12.3888 54.6542 12.3888C54.8067 12.3888 54.957 12.3528 55.093 12.2838C55.229 12.2148 55.3468 12.1146 55.4368 11.9916C55.6466 11.7287 55.7527 11.3453 55.7527 10.8436C55.7527 10.3553 55.6466 9.9791 55.4368 9.71503C55.3468 9.59194 55.229 9.49182 55.093 9.4228C54.957 9.35378 54.8067 9.31781 54.6542 9.31781C54.5017 9.31781 54.3514 9.35378 54.2154 9.4228C54.0794 9.49182 53.9617 9.59194 53.8717 9.71503C53.6594 9.9791 53.5533 10.3577 53.5533 10.8533ZM62.0336 13.3505H60.9291V12.6174C60.7682 12.8803 60.5445 13.0991 60.278 13.254C60.0484 13.3882 59.7879 13.4605 59.522 13.4638C59.0059 13.4638 58.5634 13.2323 58.1944 12.7705C57.8254 12.3075 57.6409 11.6624 57.6409 10.834C57.6409 9.98754 57.8218 9.34486 58.1799 8.90474C58.5381 8.46342 58.9914 8.24277 59.5389 8.24277C60.0417 8.24277 60.477 8.47548 60.8435 8.93851V6.45458H62.0336V13.3517V13.3505ZM58.8576 10.746C58.8576 11.2777 58.9239 11.6636 59.0565 11.9023C59.2495 12.2472 59.5172 12.4196 59.8608 12.4196C60.1345 12.4196 60.3672 12.2906 60.5602 12.0314C60.7531 11.7733 60.8484 11.3863 60.8484 10.8726C60.8484 10.2986 60.7555 9.88505 60.5686 9.63304C60.4898 9.51562 60.3832 9.41958 60.2582 9.3535C60.1332 9.28743 59.9938 9.25338 59.8524 9.25442C59.5702 9.25442 59.3339 9.37862 59.1434 9.62821C58.9529 9.87781 58.8576 10.2492 58.8576 10.7448V10.746ZM65.8126 11.7613L66.9991 11.9819C66.8459 12.4642 66.6048 12.8332 66.2756 13.0852C65.9476 13.3384 65.5352 13.4638 65.0421 13.4638C64.2583 13.4638 63.6795 13.1805 63.3057 12.6125C63.0079 12.158 62.8596 11.584 62.8596 10.8907C62.8596 10.0635 63.0549 9.41479 63.4444 8.94574C63.6199 8.7225 63.8447 8.54289 64.1011 8.42094C64.3576 8.29899 64.6388 8.23801 64.9227 8.24277C65.5919 8.24277 66.12 8.48875 66.5071 8.9783C66.8942 9.47026 67.0787 10.2215 67.0618 11.2343H64.0799C64.0883 11.6262 64.1848 11.9313 64.3692 12.1495C64.5513 12.3666 64.7804 12.4751 65.0541 12.4751C65.2266 12.4803 65.3946 12.42 65.5244 12.3063C65.651 12.1941 65.7475 12.0121 65.8126 11.7613ZM65.8801 10.4252C65.8717 10.043 65.7836 9.75241 65.6136 9.55225C65.5399 9.45892 65.4459 9.38361 65.3387 9.332C65.2315 9.2804 65.114 9.25387 64.9951 9.25442C64.8705 9.25258 64.7474 9.28012 64.6355 9.3348C64.5236 9.38948 64.4262 9.46976 64.3512 9.56913C64.1824 9.77894 64.0979 10.0647 64.1016 10.4252H65.8801ZM20.2374 18.545L20.6956 18.6017C20.6365 18.8488 20.4949 19.0683 20.2941 19.2239C20.0987 19.371 19.8504 19.4445 19.5465 19.4445C19.1643 19.4445 18.8616 19.3276 18.6385 19.0912C18.4143 18.8561 18.3033 18.5269 18.3033 18.1025C18.3033 17.6636 18.4155 17.3223 18.6409 17.08C18.753 16.9598 18.8896 16.8651 19.0415 16.8023C19.1934 16.7395 19.3569 16.71 19.5212 16.7158C19.8708 16.7158 20.1566 16.834 20.3773 17.0715C20.5991 17.3103 20.7101 17.6443 20.7101 18.0748L20.7077 18.1929H18.7591C18.7748 18.4799 18.8556 18.6994 19.0027 18.8525C19.0723 18.9269 19.1568 18.9858 19.2507 19.0253C19.3446 19.0647 19.4458 19.0839 19.5477 19.0816C19.7105 19.0816 19.8491 19.0382 19.9637 18.9526C20.0926 18.8465 20.1874 18.7047 20.2362 18.545H20.2374ZM18.7844 17.8288H20.2434C20.2229 17.6093 20.1675 17.4453 20.0746 17.3344C20.0092 17.2526 19.9258 17.187 19.8308 17.1429C19.7358 17.0987 19.6319 17.0772 19.5272 17.08C19.4325 17.0777 19.3382 17.0945 19.2502 17.1295C19.1621 17.1645 19.082 17.217 19.0147 17.2838C18.8723 17.43 18.7904 17.6247 18.7856 17.8288H18.7844ZM22.9541 19.0635C22.8144 19.1881 22.6546 19.288 22.4814 19.3589C22.3295 19.4156 22.1667 19.4445 21.993 19.4445C21.7061 19.4445 21.4866 19.3746 21.3311 19.2347C21.2558 19.1673 21.1962 19.0842 21.1564 18.9913C21.1166 18.8984 21.0976 18.798 21.1008 18.6969C21.0995 18.5778 21.1277 18.4603 21.1828 18.3547C21.2379 18.2491 21.3183 18.1587 21.4167 18.0916C21.5142 18.0264 21.6217 17.9775 21.735 17.9469C21.8218 17.924 21.952 17.9023 22.1281 17.8806C22.485 17.8384 22.7491 17.7878 22.9179 17.7287C22.9179 17.6684 22.9203 17.6298 22.9203 17.6129C22.9203 17.4321 22.8781 17.3055 22.7949 17.2319C22.6815 17.1318 22.5127 17.0824 22.2909 17.0824C22.0823 17.0824 21.9291 17.1186 21.8291 17.1909C21.7302 17.2633 21.6566 17.3935 21.6096 17.5792L21.1767 17.5189C21.2061 17.3564 21.2725 17.2029 21.3709 17.0703C21.4738 16.9477 21.6092 16.8566 21.7615 16.8075C21.9327 16.7472 22.1293 16.7158 22.3548 16.7158C22.5388 16.7099 22.7225 16.7364 22.8974 16.7942C23.0372 16.8473 23.1385 16.9124 23.2049 16.992C23.27 17.0715 23.317 17.1728 23.3423 17.2934C23.358 17.3694 23.3652 17.5044 23.3652 17.701V18.2918C23.3652 18.703 23.3737 18.9634 23.393 19.0719C23.4123 19.1805 23.4496 19.2854 23.5051 19.3855H23.0433C22.9945 19.2843 22.9643 19.1753 22.9541 19.0635ZM22.9179 18.0748C22.7563 18.1411 22.5163 18.1965 22.1944 18.2424C22.0135 18.2689 21.8845 18.2978 21.8086 18.3304C21.738 18.3588 21.6777 18.4078 21.6356 18.4711C21.5934 18.5344 21.5713 18.6089 21.5722 18.6849C21.5722 18.8031 21.6168 18.9019 21.7061 18.9803C21.7953 19.0587 21.9267 19.0985 22.0991 19.0985C22.2692 19.0985 22.4211 19.0611 22.5537 18.9863C22.6807 18.9174 22.7828 18.8102 22.8455 18.6801C22.9006 18.5393 22.9253 18.3885 22.9179 18.2375V18.0748ZM23.8741 18.6053L24.3118 18.5378C24.3359 18.7126 24.4046 18.8477 24.5168 18.9405C24.6289 19.0346 24.7856 19.0804 24.987 19.0804C25.1908 19.0804 25.3415 19.0394 25.4392 18.9562C25.4844 18.9222 25.5213 18.8784 25.547 18.8281C25.5727 18.7777 25.5865 18.7221 25.5875 18.6656C25.5885 18.6182 25.577 18.5714 25.5542 18.5299C25.5313 18.4884 25.4979 18.4537 25.4573 18.4293C25.397 18.3895 25.245 18.34 25.0051 18.2797C24.7743 18.2281 24.5484 18.1567 24.3299 18.0663C24.2122 18.0135 24.1127 17.9271 24.0441 17.8179C23.9798 17.7127 23.9464 17.5915 23.9476 17.4682C23.9476 17.3513 23.9741 17.244 24.0272 17.1451C24.0794 17.047 24.1537 16.9624 24.2442 16.8979C24.3302 16.8391 24.4257 16.7955 24.5264 16.7689C24.6506 16.7328 24.7793 16.715 24.9086 16.7158C25.1136 16.7158 25.2945 16.7448 25.4488 16.8039C25.5838 16.849 25.7028 16.9323 25.7913 17.0438C25.8727 17.1648 25.9247 17.3031 25.9432 17.4478L25.5115 17.508C25.4983 17.3843 25.4367 17.2708 25.3403 17.1921C25.2239 17.1104 25.0831 17.0708 24.9412 17.08C24.7374 17.08 24.5915 17.1125 24.5059 17.1801C24.4191 17.2476 24.3757 17.326 24.3757 17.4164C24.3757 17.4743 24.3938 17.5249 24.4287 17.5707C24.4649 17.619 24.5216 17.6576 24.5987 17.6889C24.6434 17.7058 24.7736 17.7432 24.9894 17.8022C25.3029 17.8867 25.5212 17.9542 25.6454 18.0072C25.7624 18.0555 25.8633 18.1363 25.936 18.24C26.0079 18.3612 26.0438 18.5004 26.0395 18.6414C26.0353 18.7823 25.991 18.9191 25.9118 19.0358C25.8201 19.1703 25.691 19.2751 25.5405 19.3372C25.3789 19.4096 25.1944 19.4445 24.9894 19.4445C24.6506 19.4445 24.3926 19.3746 24.2141 19.2335C24.0368 19.0924 23.9223 18.8838 23.8741 18.6065V18.6053ZM26.5485 20.3911L26.5003 19.9751C26.5967 20.0016 26.6811 20.0149 26.7535 20.0149C26.8347 20.0187 26.9155 20.0021 26.9886 19.9666C27.0478 19.9334 27.0976 19.8857 27.1333 19.828C27.1873 19.7221 27.2324 19.612 27.2684 19.4988L27.3082 19.3903L26.317 16.7737H26.7945L27.3371 18.287C27.4082 18.4787 27.4709 18.6801 27.5276 18.8911C27.5782 18.6885 27.6385 18.4895 27.7085 18.2966L28.2668 16.7749H28.7093L27.7169 19.4301C27.6464 19.6323 27.5634 19.8301 27.4685 20.0221C27.4055 20.1495 27.3124 20.2596 27.1972 20.3428C27.0893 20.4127 26.9628 20.4485 26.8343 20.4453C26.7367 20.4431 26.6401 20.4248 26.5485 20.3911ZM28.8371 19.3855V18.8814H29.3411V19.3855H28.8371ZM29.9344 18.6065L30.3721 18.5378C30.3962 18.7126 30.4649 18.8477 30.577 18.9405C30.6892 19.0346 30.8459 19.0804 31.0473 19.0804C31.2511 19.0804 31.4018 19.0394 31.4995 18.9562C31.5447 18.9222 31.5815 18.8784 31.6072 18.8281C31.6329 18.7777 31.6468 18.7221 31.6478 18.6656C31.6488 18.6182 31.6373 18.5714 31.6145 18.5299C31.5916 18.4884 31.5582 18.4537 31.5176 18.4293C31.4573 18.3895 31.3053 18.34 31.0642 18.2797C30.8334 18.2281 30.6075 18.1567 30.3889 18.0663C30.2717 18.0133 30.1727 17.9269 30.1044 17.8179C30.0401 17.7127 30.0067 17.5915 30.0079 17.4682C30.0079 17.3513 30.0344 17.244 30.0875 17.1451C30.1397 17.047 30.214 16.9624 30.3045 16.8979C30.3905 16.8391 30.486 16.7955 30.5867 16.7689C30.7109 16.7328 30.8396 16.715 30.9689 16.7158C31.1739 16.7158 31.3548 16.7448 31.5091 16.8039C31.6441 16.849 31.7631 16.9323 31.8516 17.0438C31.9329 17.1648 31.985 17.3031 32.0035 17.4478L31.5718 17.508C31.5586 17.3843 31.497 17.2708 31.4006 17.1921C31.2839 17.1101 31.1426 17.0706 31.0003 17.08C30.7977 17.08 30.653 17.1125 30.5662 17.1801C30.4794 17.2476 30.436 17.326 30.436 17.4164C30.436 17.4743 30.4528 17.5249 30.489 17.5707C30.5252 17.619 30.5819 17.6576 30.659 17.6889C30.7036 17.7058 30.8339 17.7432 31.0497 17.8022C31.3632 17.8867 31.5815 17.9542 31.7057 18.0072C31.8227 18.0555 31.9235 18.1363 31.9963 18.24C32.0682 18.3612 32.1041 18.5004 32.0998 18.6414C32.0956 18.7823 32.0513 18.9191 31.9721 19.0358C31.8804 19.1703 31.7513 19.2751 31.6008 19.3372C31.438 19.4096 31.2547 19.4445 31.0497 19.4445C30.7109 19.4445 30.4516 19.3746 30.2744 19.2335C30.0971 19.0924 29.9826 18.8838 29.9344 18.6065ZM34.3319 19.0635C34.1922 19.1881 34.0324 19.288 33.8592 19.3589C33.7073 19.4156 33.5457 19.4445 33.3709 19.4445C33.0839 19.4445 32.8644 19.3746 32.7101 19.2347C32.6346 19.1674 32.5748 19.0844 32.5348 18.9915C32.4948 18.8986 32.4756 18.798 32.4786 18.6969C32.4773 18.5778 32.5055 18.4603 32.5606 18.3547C32.6157 18.2491 32.6961 18.1587 32.7945 18.0916C32.892 18.0264 32.9995 17.9775 33.1128 17.9469C33.1996 17.924 33.3299 17.9023 33.5059 17.8806C33.8628 17.8384 34.1269 17.7878 34.2957 17.7287L34.2981 17.6129C34.2981 17.4321 34.2559 17.3055 34.1727 17.2319C34.0594 17.1318 33.8918 17.0824 33.6687 17.0824C33.4601 17.0824 33.3069 17.1186 33.2069 17.1909C33.108 17.2633 33.0344 17.3935 32.9874 17.5792L32.5545 17.5189C32.5839 17.3564 32.6503 17.2029 32.7487 17.0703C32.8516 16.9477 32.987 16.8566 33.1393 16.8075C33.3106 16.7472 33.5071 16.7158 33.7326 16.7158C33.9167 16.7099 34.1003 16.7364 34.2752 16.7942C34.4151 16.8473 34.5164 16.9124 34.5827 16.992C34.649 17.0715 34.6948 17.1728 34.7201 17.2934C34.7358 17.3694 34.743 17.5044 34.743 17.701V18.2918C34.743 18.703 34.7527 18.9634 34.7708 19.0719C34.7901 19.1805 34.8274 19.2854 34.8829 19.3855H34.4211C34.3723 19.2843 34.3421 19.1753 34.3319 19.0635ZM34.2957 18.0748C34.1341 18.1411 33.8942 18.1965 33.5722 18.2424C33.3913 18.2689 33.2623 18.2978 33.1864 18.3304C33.1159 18.3588 33.0556 18.4078 33.0134 18.4711C32.9712 18.5344 32.9491 18.6089 32.95 18.6849C32.95 18.8031 32.9946 18.9019 33.0839 18.9803C33.1743 19.0587 33.3045 19.0985 33.477 19.0985C33.647 19.0985 33.7989 19.0611 33.9315 18.9863C34.0585 18.9174 34.1606 18.8102 34.2233 18.6801C34.2785 18.5393 34.3031 18.3885 34.2957 18.2375V18.0748ZM35.534 19.3855V17.1186H35.1434V16.7749H35.534V16.4976C35.534 16.3215 35.5497 16.1913 35.5811 16.1057C35.6241 15.9909 35.7032 15.8932 35.8065 15.8272C35.9432 15.7482 36.0999 15.7109 36.2575 15.7199C36.3817 15.7199 36.5192 15.7343 36.6699 15.7645L36.6036 16.1503C36.5176 16.1346 36.4305 16.1266 36.3431 16.1262C36.2093 16.1262 36.114 16.1539 36.0586 16.2106C36.0019 16.2685 35.9742 16.3758 35.9742 16.5338V16.7749H36.483V17.1186H35.9742V19.3855H35.534ZM38.6148 18.545L39.073 18.6017C39.0139 18.8488 38.8723 19.0683 38.6715 19.2239C38.4762 19.371 38.2278 19.4445 37.9239 19.4445C37.5417 19.4445 37.239 19.3276 37.0159 19.0912C36.7917 18.8561 36.6795 18.5269 36.6795 18.1025C36.6795 17.6636 36.7929 17.3223 37.0196 17.08C37.1317 16.9598 37.2683 16.8651 37.4201 16.8023C37.572 16.7395 37.7356 16.71 37.8998 16.7158C38.2495 16.7158 38.534 16.834 38.7559 17.0715C38.9766 17.3103 39.0863 17.6443 39.0863 18.0748C39.0863 18.1013 39.0863 18.1411 39.0839 18.1929H37.1377C37.1534 18.4799 37.2342 18.6994 37.3801 18.8525C37.4498 18.9271 37.5345 18.986 37.6287 19.0255C37.7228 19.065 37.8243 19.0841 37.9263 19.0816C38.0891 19.0816 38.2278 19.0382 38.3423 18.9526C38.4713 18.8465 38.5661 18.7047 38.6148 18.545ZM37.1618 17.8288H38.6209C38.6004 17.6093 38.5449 17.4453 38.452 17.3344C38.3867 17.2526 38.3032 17.187 38.2082 17.1429C38.1132 17.0987 38.0093 17.0772 37.9046 17.08C37.8099 17.0777 37.7156 17.0945 37.6276 17.1295C37.5395 17.1645 37.4594 17.217 37.3922 17.2838C37.2492 17.4298 37.1669 17.6245 37.1618 17.8288ZM39.7531 19.3855V18.8814H40.2571V19.3855H39.7531ZM42.8134 18.545L43.2716 18.6017C43.2125 18.8488 43.0708 19.0683 42.87 19.2239C42.6759 19.371 42.4263 19.4445 42.1225 19.4445C41.7414 19.4445 41.4388 19.3276 41.2145 19.0912C40.9914 18.8561 40.8793 18.5269 40.8793 18.1025C40.8793 17.6636 40.9926 17.3223 41.2181 17.08C41.3302 16.9598 41.4668 16.8651 41.6187 16.8023C41.7705 16.7395 41.9341 16.71 42.0983 16.7158C42.448 16.7158 42.7326 16.834 42.9545 17.0715C43.1751 17.3103 43.286 17.6443 43.286 18.0748C43.286 18.1013 43.286 18.1411 43.2836 18.1929H41.3363C41.3532 18.4799 41.4327 18.6994 41.5799 18.8525C41.6496 18.9271 41.7343 18.986 41.8284 19.0255C41.9226 19.065 42.024 19.0841 42.1261 19.0816C42.2877 19.0816 42.4263 19.0382 42.5409 18.9526C42.6698 18.8465 42.7646 18.7047 42.8134 18.545ZM41.3604 17.8288H42.8194C42.7989 17.6093 42.7434 17.4453 42.6506 17.3344C42.5852 17.2526 42.5018 17.187 42.4068 17.1429C42.3118 17.0987 42.2079 17.0772 42.1032 17.08C42.0084 17.0777 41.9142 17.0945 41.8261 17.1295C41.7381 17.1645 41.658 17.217 41.5907 17.2838C41.4482 17.43 41.3664 17.6247 41.3616 17.8288H41.3604ZM44.5521 19.3855L43.5586 16.7749H44.0264L44.5859 18.3388C44.6462 18.5076 44.7029 18.6825 44.7547 18.8645C44.8036 18.6971 44.8583 18.5314 44.9187 18.3678L45.4975 16.7749H45.9533L44.9645 19.3855H44.5521ZM48.1321 18.545L48.5891 18.6017C48.53 18.8488 48.3884 19.0683 48.1876 19.2239C47.9934 19.371 47.7438 19.4445 47.44 19.4445C47.059 19.4445 46.7563 19.3276 46.532 19.0912C46.309 18.8561 46.1968 18.5269 46.1968 18.1025C46.1968 17.6636 46.3102 17.3223 46.5356 17.08C46.6477 16.9598 46.7843 16.8651 46.9362 16.8023C47.0881 16.7395 47.2516 16.71 47.4159 16.7158C47.7655 16.7158 48.0501 16.834 48.272 17.0715C48.4926 17.3103 48.6036 17.6443 48.6036 18.0748C48.6036 18.1013 48.6036 18.1411 48.6012 18.1929H46.6538C46.6707 18.4799 46.7515 18.6994 46.8974 18.8525C46.9671 18.9271 47.0518 18.986 47.146 19.0255C47.2401 19.065 47.3415 19.0841 47.4436 19.0816C47.6052 19.0816 47.745 19.0382 47.8584 18.9526C47.9878 18.8466 48.083 18.7049 48.1321 18.545ZM46.6791 17.8288H48.1369C48.1164 17.6093 48.061 17.4453 47.9693 17.3344C47.9038 17.2524 47.8202 17.1868 47.725 17.1426C47.6298 17.0984 47.5256 17.077 47.4207 17.08C47.326 17.0777 47.2317 17.0945 47.1436 17.1295C47.0556 17.1645 46.9755 17.217 46.9082 17.2838C46.7657 17.43 46.6839 17.6247 46.6791 17.8288ZM49.1389 19.3855V16.7749H49.5369V17.1704C49.6393 16.9847 49.7334 16.8629 49.819 16.8039C49.9025 16.7458 50.0019 16.7151 50.1036 16.7158C50.2531 16.7158 50.405 16.7641 50.5582 16.8581L50.4062 17.2681C50.3084 17.2073 50.1958 17.1744 50.0807 17.1728C49.9866 17.1719 49.8949 17.2025 49.8202 17.2596C49.7413 17.3211 49.6839 17.4059 49.6562 17.502C49.6057 17.6693 49.5809 17.8433 49.5827 18.0181V19.3855H49.1401H49.1389ZM50.8017 20.3911L50.7535 19.9751C50.85 20.0016 50.9344 20.0149 51.0067 20.0149C51.0879 20.0187 51.1687 20.0021 51.2418 19.9666C51.301 19.9334 51.3508 19.8857 51.3865 19.828C51.4405 19.7221 51.4856 19.612 51.5216 19.4988L51.5614 19.3903L50.5702 16.7737H51.0477L51.5903 18.287C51.6614 18.4787 51.7241 18.6801 51.7796 18.8911C51.8303 18.6885 51.8918 18.4895 51.9617 18.2966L52.52 16.7749H52.9625L51.9689 19.4301C51.8984 19.6323 51.8154 19.8301 51.7205 20.0221C51.6579 20.1493 51.5652 20.2594 51.4504 20.3428C51.3422 20.413 51.2152 20.4487 51.0863 20.4453C50.9891 20.443 50.893 20.4246 50.8017 20.3911ZM53.821 19.3855L53.0216 16.7749H53.4798L53.8946 18.2822L54.0489 18.8428L54.184 18.3039L54.6 16.7749H55.0545L55.4452 18.2894L55.5754 18.7886L55.7262 18.2846L56.1723 16.7749H56.604L55.7877 19.3855H55.327L54.9123 17.8215L54.811 17.3766L54.2828 19.3855H53.821ZM56.9754 19.3855V15.7814H57.4179V17.0752C57.5127 16.9603 57.6321 16.8683 57.7674 16.8061C57.9027 16.7439 58.0503 16.713 58.1992 16.7158C58.3922 16.7158 58.561 16.7532 58.7033 16.8304C58.8455 16.9064 58.948 17.0113 59.0095 17.1463C59.0698 17.2801 59.1012 17.4755 59.1012 17.7311V19.3855H58.6586V17.7311C58.6586 17.5092 58.6104 17.3489 58.5139 17.2488C58.4606 17.1965 58.3968 17.156 58.3268 17.1298C58.2569 17.1037 58.1822 17.0924 58.1076 17.0969C57.9777 17.0966 57.8502 17.1316 57.7386 17.1982C57.6279 17.2608 57.541 17.3583 57.4914 17.4755C57.442 17.5912 57.4179 17.7528 57.4179 17.9578V19.3855H56.9754ZM61.5622 18.545L62.0204 18.6017C61.9613 18.8488 61.8196 19.0683 61.6189 19.2239C61.4235 19.371 61.1751 19.4445 60.8713 19.4445C60.4902 19.4445 60.1864 19.3276 59.9633 19.0912C59.739 18.8561 59.6281 18.5269 59.6281 18.1025C59.6281 17.6636 59.7402 17.3223 59.9657 17.08C60.0778 16.9598 60.2144 16.8651 60.3663 16.8023C60.5181 16.7395 60.6817 16.71 60.8459 16.7158C61.1956 16.7158 61.4814 16.834 61.702 17.0715C61.9239 17.3103 62.0348 17.6443 62.0348 18.0748L62.0324 18.1929H60.0851C60.1008 18.4799 60.1815 18.6994 60.3287 18.8525C60.3982 18.9269 60.4828 18.9858 60.5767 19.0253C60.6706 19.0647 60.7718 19.0839 60.8737 19.0816C61.0365 19.0816 61.1751 19.0382 61.2897 18.9526C61.4186 18.8465 61.5134 18.7047 61.5622 18.545ZM60.1092 17.8288H61.5682C61.5477 17.6093 61.4922 17.4453 61.3994 17.3344C61.334 17.2526 61.2506 17.187 61.1556 17.1429C61.0606 17.0987 60.9567 17.0772 60.852 17.08C60.7572 17.0777 60.663 17.0945 60.5749 17.1295C60.4869 17.1645 60.4068 17.217 60.3395 17.2838C60.197 17.43 60.1152 17.6247 60.1104 17.8288H60.1092ZM62.5702 19.3855V16.7749H62.9681V17.1704C63.0706 16.9847 63.1647 16.8629 63.2503 16.8039C63.3334 16.7461 63.4324 16.7153 63.5336 16.7158C63.6832 16.7158 63.8351 16.7641 63.9894 16.8581L63.8363 17.2681C63.7388 17.2075 63.6267 17.1746 63.5119 17.1728C63.4179 17.1719 63.3262 17.2025 63.2515 17.2596C63.1721 17.3209 63.1143 17.4057 63.0863 17.502C63.0362 17.6694 63.0118 17.8434 63.0139 18.0181V19.3855H62.5702ZM66.0393 18.545L66.4975 18.6017C66.4384 18.8488 66.2967 19.0683 66.0959 19.2239C65.9006 19.371 65.6522 19.4445 65.3484 19.4445C64.9661 19.4445 64.6635 19.3276 64.4404 19.0912C64.2161 18.8561 64.104 18.5269 64.104 18.1025C64.104 17.6636 64.2173 17.3223 64.444 17.08C64.5561 16.9598 64.6927 16.8651 64.8446 16.8023C64.9964 16.7395 65.16 16.71 65.3242 16.7158C65.6739 16.7158 65.9585 16.834 66.1803 17.0715C66.401 17.3103 66.5107 17.6443 66.5107 18.0748C66.5107 18.1013 66.5107 18.1411 66.5083 18.1929H64.5622C64.5779 18.4799 64.6586 18.6994 64.8045 18.8525C64.8743 18.9271 64.959 18.986 65.0531 19.0255C65.1473 19.065 65.2487 19.0841 65.3508 19.0816C65.5135 19.0816 65.6522 19.0382 65.7668 18.9526C65.8957 18.8465 65.9905 18.7047 66.0393 18.545ZM64.5863 17.8288H66.0453C66.0248 17.6093 65.9693 17.4453 65.8765 17.3344C65.8111 17.2526 65.7277 17.187 65.6327 17.1429C65.5377 17.0987 65.4338 17.0772 65.3291 17.08C65.2343 17.0777 65.1401 17.0945 65.052 17.1295C64.9639 17.1645 64.8839 17.217 64.8166 17.2838C64.6737 17.4298 64.5914 17.6245 64.5863 17.8288ZM67.1775 19.3855V18.8814H67.6815V19.3855H67.1775Z" fill="white"/>
</svg>
