<svg width="70" height="24" viewBox="0 0 70 24" fill="none" xmlns="http://www.w3.org/2000/svg">
<path fill-rule="evenodd" clip-rule="evenodd" d="M12.4482 0C19.0014 0 24.3054 5.3676 24.3054 12C24.3054 18.6324 19.0014 24 12.4482 24C5.89384 24 0.589844 18.6324 0.589844 12C0.589844 5.3676 5.92144 0 12.4482 0Z" fill="#53AE94"/>
<path d="M13.9196 10.398V8.62802H17.9744V5.87402H6.97757V8.62802H11.03V10.398C7.78157 10.566 5.30957 11.214 5.30957 12C5.30957 12.7872 7.78157 13.4328 11.0576 13.602V19.3344H13.9736V13.518C17.2508 13.3776 19.6952 12.702 19.6952 11.916C19.6952 11.1288 17.2232 10.5384 13.9736 10.314L13.9196 10.398ZM13.9736 13.068H11.06C8.17157 12.9276 6.00557 12.4212 6.00557 11.832C6.00557 11.2416 8.17157 10.7076 11.06 10.5672V12.5616H14.0036V10.5384C16.8632 10.6788 19.0292 11.1852 19.0292 11.8032C19.0292 12.4212 16.8632 12.8988 13.9748 13.068" fill="white"/>
<path d="M35.5301 1.39557H33.7349V6.27957C33.7349 7.75797 32.9297 8.72157 31.7285 8.72157C30.4613 8.72157 29.6297 7.75797 29.6297 6.27957V1.39557H27.8345V6.27957C27.8345 8.76117 29.3921 10.4376 31.7285 10.4376C34.0121 10.4376 35.5301 8.76117 35.5301 6.27957V1.39557ZM40.5461 1.19757C38.4737 1.19757 37.1801 2.30637 37.1801 3.89037C37.1801 5.61837 38.4473 6.20037 39.5033 6.42477L41.3777 6.78117C42.1697 6.93957 42.4073 7.24317 42.4073 7.74477C42.4073 8.37837 41.8661 8.86677 40.8365 8.86677C39.8333 8.86677 39.0941 8.43117 38.8565 7.42677L36.9689 7.81077C37.1933 9.57957 38.8169 10.4376 40.6649 10.4376C42.7637 10.4376 44.1761 9.36837 44.1761 7.65237C44.1761 6.27957 43.2917 5.42037 41.8529 5.11797L39.9521 4.73397C39.2657 4.60197 39.0677 4.28637 39.0677 3.83757C39.0677 3.24357 39.6089 2.74197 40.5065 2.74197C41.3909 2.74197 42.1169 3.28197 42.2489 4.11477L44.0441 3.74517C43.7009 2.17197 42.3413 1.19757 40.5461 1.19757ZM45.7601 1.39557V10.2396H49.0205C51.9377 10.2396 53.8781 8.45757 53.8781 5.81757C53.8781 3.17757 51.9377 1.39557 49.0205 1.39557H45.7601ZM47.5553 8.61597V3.01917H49.0205C50.8553 3.01917 52.0697 4.10157 52.0697 5.81757C52.0697 7.53357 50.8553 8.61597 49.0205 8.61597H47.5553ZM62.3525 3.01917V1.39557H54.6701V3.01917H57.6137V10.2396H59.4089V3.01917H62.3525Z" fill="white"/>
<path d="M34.6324 20.0544H29.7088V18.048H34.2232V16.452H29.7088V14.4576H34.606V12.834H27.9136V21.678H34.6324V20.0544ZM44.1232 21.678L41.1532 18.3912C42.6976 18.1668 43.6876 17.1108 43.6876 15.6324C43.6876 13.956 42.4204 12.834 40.5196 12.834H36.2824V21.678H38.0776V18.432H39.0148L41.932 21.6792H44.1232V21.678ZM38.0776 16.8072V14.4576H40.5196C41.3512 14.4576 41.9056 14.9328 41.9056 15.6336C41.9056 16.332 41.3512 16.8072 40.5196 16.8072H38.0776ZM49.4296 20.1996C47.8456 20.1996 46.5916 18.9324 46.5916 17.256C46.5916 15.5796 47.8456 14.3256 49.4296 14.3256C50.6572 14.3256 51.7132 14.9988 52.0432 16.53L53.7856 16.0416C53.3368 13.9176 51.5548 12.636 49.4296 12.636C46.8292 12.636 44.7832 14.6688 44.7832 17.256C44.7832 19.8564 46.8292 21.876 49.4296 21.876C51.5548 21.876 53.35 20.6088 53.7856 18.3384L52.0432 17.982C51.7132 19.5264 50.6572 20.1996 49.4296 20.1996ZM60.7552 20.0544H57.4156L58.7752 18.7224C60.0688 17.454 60.7024 16.6224 60.7024 15.3948C60.7024 13.758 59.4748 12.636 57.6928 12.636C55.8976 12.636 54.6568 13.7184 54.5776 15.4608L56.2144 15.804C56.2936 14.682 56.8084 14.1804 57.6664 14.1804C58.432 14.1804 58.9732 14.6964 58.9732 15.4344C58.9732 16.4244 58.2604 17.0184 57.7192 17.5596L54.736 20.5164V21.678H60.7552V20.0544ZM65.6128 12.636C63.3424 12.636 61.8112 14.5104 61.8112 17.256C61.8112 20.016 63.3424 21.876 65.6128 21.876C67.8832 21.876 69.4144 20.016 69.4144 17.256C69.4144 14.5104 67.8832 12.636 65.6128 12.636ZM65.6128 20.226C64.3984 20.226 63.6328 19.0116 63.6328 17.256C63.6328 15.5004 64.3984 14.286 65.6128 14.286C66.8272 14.286 67.5928 15.5004 67.5928 17.256C67.5928 19.0116 66.8272 20.226 65.6128 20.226Z" fill="#1AA88B"/>
</svg>
