<svg width="36" height="24" viewBox="0 0 36 24" fill="none" xmlns="http://www.w3.org/2000/svg">
<path d="M4.23532 0.408875H31.7636C32.4938 0.408875 33.1941 0.612423 33.7104 0.974742C34.2267 1.33706 34.5167 1.82847 34.5167 2.34087V21.6593C34.5167 22.1716 34.2267 22.663 33.7104 23.0253C33.1942 23.3876 32.494 23.5911 31.7638 23.5911H4.23492C3.50491 23.5911 2.8048 23.3876 2.28861 23.0254C1.77242 22.6631 1.48242 22.1718 1.48242 21.6595V2.34073C1.48242 2.08704 1.55363 1.83582 1.69197 1.60144C1.83032 1.36706 2.0331 1.15409 2.28873 0.974701C2.54436 0.795312 2.84783 0.653012 3.18183 0.555928C3.51583 0.458843 3.8738 0.408874 4.23532 0.408875V0.408875Z" fill="#FDB913"/>
<path d="M31.7642 0.408873C32.4942 0.409029 33.1943 0.612641 33.7104 0.974938C34.2266 1.33723 34.5166 1.82855 34.5167 2.34087V21.6593C34.5166 22.1716 34.2266 22.6629 33.7105 23.0252C33.1943 23.3874 32.4942 23.591 31.7642 23.5911H4.23544C3.8739 23.5912 3.51589 23.5413 3.18185 23.4442C2.84782 23.3471 2.54431 23.2048 2.28866 23.0254C2.03301 22.846 1.83024 22.633 1.69192 22.3986C1.55361 22.1642 1.48246 21.913 1.48254 21.6593V2.34087C1.48247 2.08715 1.55363 1.83591 1.69195 1.6015C1.83026 1.36708 2.03304 1.15409 2.28868 0.974677C2.54432 0.795267 2.84782 0.652957 3.18185 0.555875C3.51588 0.458793 3.87389 0.408841 4.23544 0.408873H31.7642H31.7642ZM31.7642 0H4.23544C3.35106 0.000672252 2.50318 0.247519 1.87785 0.686375C1.25251 1.12523 0.900808 1.72025 0.899902 2.34087V21.6593C0.900881 22.2799 1.25262 22.8748 1.87794 23.3137C2.50326 23.7525 3.3511 23.9993 4.23544 24H31.7642C32.6485 23.9993 33.4962 23.7524 34.1215 23.3136C34.7467 22.8748 35.0984 22.2798 35.0993 21.6593V2.34087C35.0985 1.72028 34.7468 1.12528 34.1216 0.686428C33.4963 0.247572 32.6485 0.00070585 31.7642 0" fill="white"/>
<path d="M19.9271 12.2502L19.9243 8.09967L21.4682 7.84256V8.38667C21.4682 8.38667 21.8681 7.6711 22.7961 7.50502C22.9347 7.47368 23.0822 7.46673 23.2255 7.48477V8.5438C22.9476 8.54634 22.6729 8.58646 22.4166 8.66196C21.8461 8.82005 21.559 9.16503 21.559 9.69165L21.56 11.9835L19.9271 12.2502Z" fill="#231F20"/>
<path d="M11.7885 13.6C11.7885 13.6 11.5376 13.3358 11.5376 12.402V10.3353L10.7432 10.4679V9.61659L11.5393 9.48466V8.55661L13.1809 8.28448V9.21254L14.3409 9.01919V9.86957L13.1809 10.0628C13.1809 10.0628 13.1791 11.756 13.1809 12.1672C13.1809 13.124 13.5428 13.3077 13.5428 13.3077L11.7885 13.6Z" fill="#231F20"/>
<path d="M14.5127 11.1308C14.5127 10.3929 14.6624 9.85456 14.9839 9.44142C15.3664 8.95116 15.9935 8.63166 16.9073 8.48568C18.7082 8.19827 19.3581 8.94634 19.333 9.94945C19.3234 10.3082 19.3257 10.483 19.3257 10.483L16.1529 11.0063V11.0422C16.1529 11.743 16.3623 12.0756 16.9952 11.9814C17.5419 11.9004 17.694 11.6601 17.7372 11.3629C17.7442 11.315 17.7476 11.1931 17.7476 11.1931L19.2339 10.9432C19.2339 10.9432 19.2374 11.0286 19.2353 11.1244C19.2223 11.5227 19.0573 12.5107 16.9914 12.8534C15.0345 13.1794 14.5127 12.3407 14.5127 11.1308V11.1308ZM16.9732 9.25881C16.4475 9.34254 16.1717 9.70446 16.1598 10.3041L17.7558 10.0373C17.7586 10.0102 17.7589 9.95041 17.7586 9.85677C17.7558 9.4041 17.5564 9.16517 16.9732 9.25881" fill="#231F20"/>
<path d="M28.782 8.70355C28.7206 7.43947 29.1879 6.43623 31.1976 6.11673C32.4785 5.9125 32.9649 6.14634 33.2112 6.37233C33.4481 6.58799 33.5395 6.87884 33.5395 7.2862L33.5409 7.36098L31.9686 7.62318C31.9686 7.62318 31.9674 7.47445 31.9674 7.46963C31.9686 6.98653 31.7773 6.80282 31.2773 6.89068C30.6826 6.99548 30.4424 7.39155 30.4424 8.179C30.4424 8.45856 30.4442 8.50869 30.4442 8.54642C30.4442 9.34668 30.6 9.713 31.2853 9.61233C31.8797 9.52612 31.9612 9.1598 31.9708 8.83865C31.972 8.78825 31.9749 8.62685 31.9749 8.62685L33.5448 8.36657C33.5448 8.36657 33.5464 8.44795 33.5464 8.53843C33.5425 9.58782 32.7544 10.2491 31.2778 10.4903C29.2436 10.8249 28.8452 9.99999 28.782 8.70355Z" fill="#231F20"/>
<path d="M23.3467 10.4733C23.3467 9.51179 24.1493 9.20772 25.3574 8.85696C26.4438 8.5416 26.4673 8.38501 26.4718 8.11096C26.4779 7.88029 26.3254 7.68295 25.7846 7.77976C25.6042 7.80526 25.4415 7.87276 25.3226 7.97132C25.2038 8.06989 25.1359 8.19373 25.1299 8.32277C25.1211 8.3936 25.1177 8.46472 25.1197 8.53581L23.5965 8.78824C23.5863 8.57521 23.6217 8.36231 23.7017 8.15668C23.9452 7.58173 24.6678 7.19489 25.9151 6.99231C27.5357 6.73024 28.0759 7.22932 28.0779 8.00561V9.84396C28.0779 10.733 28.313 10.8633 28.313 10.8633L26.8176 11.1116C26.7351 10.9904 26.6681 10.8642 26.6173 10.7347C26.6173 10.7347 26.2897 11.3136 25.1606 11.4998C23.9747 11.6961 23.3467 11.1803 23.3467 10.4733V10.4733ZM26.4614 9.16035C26.2094 9.28436 25.9433 9.3937 25.6659 9.48728C25.1674 9.65818 24.9421 9.86903 24.9421 10.1938C24.9421 10.475 25.1904 10.6596 25.6415 10.5814C26.1255 10.4958 26.4614 10.1789 26.4614 9.73861V9.16035Z" fill="#231F20"/>
<path d="M3.20538 16.5095C3.03471 16.5094 2.86725 16.4769 2.72064 16.4156C2.57403 16.3543 2.45368 16.2664 2.37227 16.1611C2.29087 16.0558 2.2514 15.9371 2.25804 15.8174C2.26468 15.6978 2.31718 15.5816 2.41 15.4811L2.4206 15.4714L2.43846 15.4681L4.67131 15.0982V16.2882L4.63658 16.2938C4.13008 16.3794 3.52467 16.4767 3.40005 16.4953C3.33605 16.5048 3.2708 16.5096 3.20538 16.5095" fill="#231F20"/>
<path d="M3.20538 18.0318C2.95412 18.0318 2.71313 17.9619 2.53535 17.8373C2.35758 17.7127 2.25758 17.5436 2.25733 17.3673C2.25681 17.2389 2.30989 17.1131 2.41001 17.0055L2.4206 16.9944L2.43846 16.9912L4.67131 16.6215V17.8114L4.63658 17.8178C4.13008 17.903 3.52467 18.0015 3.40005 18.019C3.33591 18.0277 3.27071 18.032 3.20538 18.0318" fill="#231F20"/>
<path d="M3.20538 19.557C2.95405 19.5569 2.71306 19.4868 2.53531 19.3621C2.35756 19.2375 2.25758 19.0684 2.25733 18.892C2.25662 18.7635 2.30971 18.6377 2.41001 18.5302L2.4206 18.5182L4.67131 18.146V19.336L4.63658 19.3423C4.10162 19.4327 3.50759 19.5269 3.40005 19.5435C3.33596 19.5525 3.27075 19.557 3.20538 19.557" fill="#231F20"/>
<path d="M2.942 15.0513L2.94141 8.393L4.67129 8.10614V14.7643L2.942 15.0513Z" fill="#231F20"/>
<path d="M7.25074 14.4849C7.25074 14.2862 7.1383 14.0957 6.93815 13.9553C6.738 13.8148 6.46653 13.7359 6.18348 13.7359C5.90042 13.7359 5.62896 13.8148 5.42881 13.9553C5.22865 14.0957 5.11621 14.2862 5.11621 14.4849L5.11798 20.708C5.11893 21.2454 5.42343 21.7607 5.96476 22.1408C6.50608 22.5209 7.24008 22.735 8.00588 22.736C8.81381 22.736 11.027 22.7332 11.027 22.7332L11.028 20.1371C11.0286 18.7186 11.029 17.2748 11.029 17.2419C11.0293 17.0805 10.9728 16.9216 10.8645 16.7792C10.7562 16.6368 10.5995 16.5154 10.4083 16.4257L7.71564 15.1423C7.71564 15.1423 7.71505 17.9285 7.71505 18.0566C7.71505 18.0993 7.69086 18.1403 7.6478 18.1705C7.60474 18.2008 7.54634 18.2177 7.48545 18.2177C7.42455 18.2177 7.36615 18.2008 7.32309 18.1705C7.28003 18.1403 7.25584 18.0993 7.25584 18.0566C7.25584 18.0254 7.25074 14.8698 7.25074 14.4849" fill="#231F20"/>
<path d="M8.69202 9.84181C8.36483 9.89509 8.05788 9.99731 7.79215 10.1415C7.52642 10.2857 7.30816 10.4684 7.1523 10.6772V10.2092L5.59473 10.4679L5.59649 13.4563C5.86972 13.3804 6.16749 13.3591 6.45691 13.3946C6.74633 13.4301 7.01613 13.5211 7.23649 13.6575V11.7279C7.23649 11.2658 7.56422 10.8966 8.03245 10.8241C8.38471 10.7699 8.67887 10.8583 8.67887 11.2986L8.68005 14.1137L10.3206 13.8438V10.8657C10.3206 10.1437 9.92442 9.63896 8.69202 9.84181" fill="#231F20"/>
<path d="M32.5291 5.58032C32.3285 5.58045 32.1323 5.5388 31.9654 5.46067C31.7986 5.38253 31.6684 5.27141 31.5916 5.14137C31.5147 5.01132 31.4945 4.8682 31.5336 4.7301C31.5726 4.59201 31.6692 4.46515 31.811 4.36558C31.9529 4.266 32.1336 4.19819 32.3304 4.17072C32.5272 4.14325 32.7311 4.15736 32.9165 4.21125C33.1018 4.26515 33.2602 4.35642 33.3716 4.4735C33.483 4.59059 33.5424 4.72824 33.5423 4.86903C33.5421 5.05757 33.4353 5.23834 33.2453 5.37169C33.0554 5.50504 32.7978 5.58007 32.5291 5.58032V5.58032ZM32.5291 4.24656C32.3537 4.24653 32.1823 4.28301 32.0364 4.35137C31.8906 4.41973 31.7769 4.5169 31.7097 4.63061C31.6425 4.74431 31.6249 4.86944 31.6591 4.99017C31.6933 5.11089 31.7777 5.22179 31.9017 5.30885C32.0257 5.3959 32.1837 5.4552 32.3557 5.47924C32.5278 5.50328 32.7061 5.49098 32.8681 5.4439C33.0302 5.39682 33.1687 5.31708 33.2662 5.21475C33.3637 5.11243 33.4157 4.99211 33.4158 4.86903C33.4156 4.70403 33.3221 4.54582 33.1559 4.42912C32.9897 4.31242 32.7643 4.24677 32.5291 4.24656" fill="#231F20"/>
<path d="M32.1597 4.44493H32.5967C32.6394 4.44172 32.6826 4.44531 32.7231 4.45543C32.7636 4.46556 32.8003 4.48195 32.8305 4.50341C32.8607 4.52486 32.8836 4.55081 32.8975 4.57934C32.9114 4.60786 32.916 4.63822 32.9109 4.66816C32.9109 4.78081 32.8397 4.86743 32.7046 4.88217V4.88382C32.8275 4.89264 32.892 4.94015 32.8983 5.0623C32.9007 5.11738 32.9019 5.18569 32.9056 5.23885C32.9056 5.2538 32.911 5.26851 32.9213 5.28162C32.9315 5.29474 32.9463 5.30583 32.9643 5.3139H32.7409C32.7196 5.29093 32.7081 5.26419 32.7076 5.23678C32.7007 5.18486 32.7025 5.13584 32.6991 5.07277C32.6958 4.97802 32.6544 4.93657 32.5188 4.93657H32.3571V5.3139H32.1597V4.44493ZM32.5153 4.8319C32.5421 4.83363 32.5692 4.83115 32.5945 4.82465C32.6198 4.81815 32.6427 4.80779 32.6616 4.79431C32.6805 4.78083 32.6949 4.76457 32.7038 4.74671C32.7127 4.72885 32.7158 4.70983 32.7129 4.69102C32.7129 4.59834 32.6558 4.54959 32.5257 4.54959H32.3571V4.8319H32.5153Z" fill="#231F20"/>
</svg>
