<svg width="80" height="24" viewBox="0 0 80 24" fill="none" xmlns="http://www.w3.org/2000/svg">
<path fill-rule="evenodd" clip-rule="evenodd" d="M10.5498 24H65.0937L69.4568 0H14.6955L10.5498 24ZM24.3316 12.3338C24.3316 10.1359 26.1917 8.29144 28.6422 8.29144C30.721 8.29144 32.2474 9.61227 32.2343 11.6138C32.2343 13.8117 30.3872 15.7085 27.9367 15.7085C25.8579 15.7085 24.3316 14.3222 24.3316 12.3338ZM26.4993 12.2408C26.4993 13.2093 27.1536 13.8376 28.0905 13.8379C29.2591 13.8375 30.0796 12.8572 30.0665 11.7722C30.0665 10.8035 29.412 10.149 28.476 10.149C27.3083 10.149 26.4993 11.1687 26.4993 12.2408ZM39.0858 12.3338C39.0858 10.1359 40.9329 8.29144 43.3834 8.29144C45.4752 8.29144 47.0029 9.61227 46.9898 11.6138C46.9898 13.8117 45.1414 15.7085 42.6909 15.7085C40.6121 15.7085 39.0858 14.3222 39.0858 12.3338ZM41.2549 12.2408C41.2549 13.2093 41.9078 13.8376 42.8447 13.8379C44.0133 13.8375 44.8207 12.8572 44.8207 11.7722C44.8207 10.8035 44.1662 10.149 43.2302 10.149C42.0626 10.149 41.2549 11.1687 41.2549 12.2408ZM51.3384 8.44722C53.1868 8.44722 54.2 9.2981 54.2 10.6333C54.2 11.7447 53.4944 12.6466 52.3006 13.0655L53.9042 15.5527H51.4026L50.248 13.3142H50.1459L49.7859 15.5514H47.6051L48.7465 8.44722H51.3384ZM50.3894 11.8115H50.7101C51.4536 11.8115 51.9668 11.5235 51.9668 10.9868C51.9668 10.5286 51.6081 10.3191 50.9287 10.3191H50.6329L50.3894 11.8115ZM20.8155 10.5142C20.8155 10.7498 20.9961 10.8545 21.83 11.2865C22.8942 11.8363 23.5618 12.3979 23.5618 13.4451C23.5618 14.7149 22.5225 15.7098 20.5982 15.7098C19.3533 15.7098 18.5312 15.2778 17.9683 14.8589L18.289 12.8836C18.8401 13.4072 19.7643 13.9177 20.5589 13.9177C21.021 13.9177 21.3679 13.7606 21.3679 13.4726C21.3679 13.2108 21.1624 13.0668 20.3285 12.6348C19.4043 12.1505 18.6228 11.602 18.6228 10.5417C18.6228 9.31119 19.7002 8.29013 21.5603 8.29013C22.4963 8.29013 23.5239 8.61739 24.6261 9.25882C24.2164 9.74317 23.8957 10.2917 23.7032 10.9069C22.9204 10.1477 22.1245 10.0822 21.5983 10.0822C21.1493 10.0822 20.8155 10.2262 20.8155 10.5142ZM35.4296 11.5614H37.9954C37.9692 11.7447 37.9574 11.9149 37.9443 12.1112L37.7519 13.3273H35.16L34.8013 15.5645H32.6204L33.4909 10.0835C33.6336 9.14232 34.4806 8.44853 35.4807 8.44853H39.9707C39.2916 8.92775 38.7445 9.57074 38.3802 10.3178H35.6352L35.4296 11.5614ZM55.2774 10.3191C55.2001 9.54812 54.8401 8.90669 54.2511 8.44853L61.6027 8.44722L61.3081 10.3191H59.2804L58.4466 15.5514H56.2657L57.0995 10.3191H55.2774Z" fill="#EDEDED"/>
</svg>
