<svg width="80" height="24" viewBox="0 0 80 24" fill="none" xmlns="http://www.w3.org/2000/svg">
<path d="M19.0843 20.6601H17.73V23.9662H19.0843C20.0771 23.9662 20.7518 23.3542 20.7518 22.3083C20.7518 21.2722 20.0723 20.6601 19.0843 20.6601ZM19.0843 23.2626H18.6071V21.3637H19.0843C19.5325 21.3637 19.865 21.6529 19.865 22.3083C19.865 22.9686 19.5373 23.2626 19.0843 23.2626ZM22.3671 23.253V22.6505H23.6829V21.9613H22.3671V21.3734H23.8949V20.6601H21.49V23.9662H23.919V23.253H22.3671ZM26.1405 20.6601H24.6947V23.9662H25.5718V22.9011H26.1405C26.9743 22.9011 27.437 22.4963 27.437 21.7734C27.437 21.0456 26.9743 20.6601 26.1405 20.6601ZM26.1405 22.1927H25.5718V21.3637H26.1405C26.4056 21.3637 26.5502 21.5276 26.5502 21.7782C26.5502 22.0384 26.4056 22.1927 26.1405 22.1927ZM29.6483 24C30.6363 24 31.34 23.3397 31.34 22.3083C31.34 21.277 30.6363 20.6167 29.6483 20.6167C28.6603 20.6167 27.9567 21.277 27.9567 22.3083C27.9567 23.3397 28.6603 24 29.6483 24ZM29.6483 23.2433C29.2001 23.2433 28.8435 22.9011 28.8435 22.3083C28.8435 21.7155 29.2001 21.3782 29.6483 21.3782C30.0965 21.3782 30.4532 21.7155 30.4532 22.3083C30.4532 22.9011 30.1014 23.2433 29.6483 23.2433ZM32.8203 21.6095C32.8203 21.4312 32.9698 21.33 33.2686 21.33C33.5722 21.33 33.712 21.4408 33.712 21.677H34.5939C34.5939 21.0167 34.0975 20.6167 33.2782 20.6167C32.483 20.6167 31.948 21.036 31.9528 21.6288C31.9528 22.9349 33.7794 22.4144 33.7794 23.0168C33.7794 23.1951 33.6011 23.2867 33.2782 23.2867C32.9408 23.2867 32.7818 23.171 32.777 22.9445H31.8998C31.8998 23.6241 32.3866 24 33.2445 24C34.0782 24 34.6469 23.6289 34.6469 23.0168C34.6469 21.6481 32.8203 22.1782 32.8203 21.6095ZM35.3816 23.9662H36.2588V20.6601H35.3816V23.9662ZM37.8974 23.9662H38.7746V21.383H39.7915V20.6601H36.8853V21.383H37.8974V23.9662ZM43.491 22.2264V22.2168C43.65 22.1589 43.9344 21.9372 43.9344 21.4842C43.9344 21.0119 43.6066 20.6601 43.0379 20.6601H41.7367V23.9662H43.0476C43.6645 23.9662 44.0549 23.6144 44.0549 23.0505C44.0549 22.5686 43.7753 22.3035 43.491 22.2264ZM43.5054 21.5469C43.5054 21.8505 43.3271 22.0818 42.9512 22.0818H42.1608V21.0312H42.956C43.2934 21.0312 43.5054 21.2143 43.5054 21.5469ZM43.0379 23.6H42.1608V22.4288H43.009C43.3898 22.4288 43.6259 22.6216 43.6259 23.0168C43.6259 23.4072 43.3946 23.6 43.0379 23.6ZM47.3276 20.6601H46.8601L45.9347 22.236L45.0046 20.6601H44.5371L45.7178 22.6264V23.9662H46.142V22.6312L47.3276 20.6601ZM51.0621 22.2264V22.2168C51.2212 22.1589 51.5055 21.9372 51.5055 21.4842C51.5055 21.0119 51.1778 20.6601 50.6091 20.6601H49.3078V23.9662H50.6187C51.2356 23.9662 51.626 23.6144 51.626 23.0505C51.626 22.5686 51.3465 22.3035 51.0621 22.2264ZM51.0766 21.5469C51.0766 21.8505 50.8983 22.0818 50.5223 22.0818H49.7319V21.0312H50.5272C50.8645 21.0312 51.0766 21.2143 51.0766 21.5469ZM50.6091 23.6H49.7319V22.4288H50.5802C50.9609 22.4288 51.1971 22.6216 51.1971 23.0168C51.1971 23.4072 50.9657 23.6 50.6091 23.6ZM54.6709 23.9662H55.0998L53.8805 20.6601H53.3937L52.1744 23.9662H52.6033L52.9069 23.1277H54.3672L54.6709 23.9662ZM53.0467 22.7517L53.6395 21.1324L54.2275 22.7517H53.0467ZM58.0317 20.6601V23.3012L56.3015 20.6601H55.8677V23.9662H56.2918V21.3203L58.022 23.9662H58.4558V20.6601H58.0317ZM61.7635 23.9662H62.2792L60.8816 22.1059L62.178 20.6601H61.6479L60.0237 22.5204V20.6601H59.5996V23.9662H60.0237V23.0602L60.5972 22.4192L61.7635 23.9662Z" fill="#1A63AB"/>
<path d="M51.4666 0H28.4401C27.8486 0 27.3691 0.479502 27.3691 1.071V14.4585C27.3691 15.05 27.8486 15.5295 28.4401 15.5295H51.4666C52.0581 15.5295 52.5376 15.05 52.5376 14.4585V1.071C52.5376 0.479502 52.0581 0 51.4666 0Z" fill="#1A63AB"/>
<path fill-rule="evenodd" clip-rule="evenodd" d="M44.1145 3.74847V11.7587H43.0773V3.74847H44.1145ZM47.0558 6.44123V5.07918H46.0185V6.44096H45.1724V7.38826H46.0185V10.0425L46.0188 10.0762C46.0319 11.1831 46.6972 11.7807 47.832 11.7807C48.0703 11.7807 48.3517 11.7419 48.6944 11.665L48.7889 11.6439V10.7408L48.6483 10.7632L48.5943 10.7715C48.3629 10.8063 48.1701 10.8229 47.9969 10.8229H47.9575C47.3192 10.8138 47.0558 10.582 47.0558 9.99132V7.38826H48.624V6.44096L47.0558 6.44123ZM31.9876 6.44123H30.8727L33.3577 11.781H33.8022L36.2762 6.44123H35.1615L33.5794 10.02L31.9876 6.44123ZM39.2324 6.44123L39.2736 6.44176L39.3165 6.4415C40.747 6.44524 41.9562 7.61933 41.9744 9.0226V9.06544L41.9741 9.10614L41.9747 9.14684C41.9803 10.544 40.7679 11.7526 39.3483 11.7711H39.3055L39.2637 11.7708L39.2225 11.7713C37.8058 11.7767 36.6017 10.5892 36.5742 9.19021L36.5736 9.14791V9.10587L36.5734 9.06517C36.5675 7.65387 37.7657 6.45917 39.1893 6.44123H39.2324ZM39.2463 7.42012C38.3322 7.4161 37.5552 8.19285 37.575 9.10641C37.5616 10.0157 38.3413 10.8122 39.2672 10.7924L39.295 10.7927H39.3229C40.2252 10.7804 40.9926 9.99748 40.973 9.10641C40.9926 8.20222 40.2314 7.43833 39.3296 7.42066L39.3017 7.42012L39.2742 7.42039L39.2463 7.42012Z" fill="white"/>
<path d="M44.1145 11.7587L44.1146 11.8592H44.215V11.7588L44.1145 11.7587ZM44.1145 3.74847L44.215 3.74849V3.64809H44.1146L44.1145 3.74847ZM43.0773 11.7587L42.9769 11.7588V11.8592H43.0773L43.0773 11.7587ZM43.0773 3.74847L43.0773 3.64809H42.9769V3.74849L43.0773 3.74847ZM47.0558 5.07918L47.1562 5.07948V4.97907H47.0558L47.0558 5.07918ZM47.0558 6.44123L46.9554 6.44125V6.54166H47.0558L47.0558 6.44123ZM46.0185 5.07918L46.0186 4.97907H45.9182V5.07948L46.0185 5.07918ZM46.0185 6.44096L46.0186 6.54166H46.119V6.44125L46.0185 6.44096ZM45.1724 6.44096L45.1725 6.34085H45.0721V6.44125L45.1724 6.44096ZM45.1724 7.38826L45.0721 7.38855V7.48896H45.1725L45.1724 7.38826ZM46.0185 7.38826L46.119 7.38855V7.28814H46.0186L46.0185 7.38826ZM48.7889 11.6439L48.8109 11.7422L48.8894 11.7245V11.6442L48.7889 11.6439ZM48.7889 10.7408L48.8894 10.741V10.6235L48.7732 10.642L48.7889 10.7408ZM47.0558 7.38826L47.0558 7.28814H46.9554V7.38855L47.0558 7.38826ZM48.624 7.38826L48.624 7.48896H48.7244V7.38855L48.624 7.38826ZM48.624 6.44096L48.7244 6.44125V6.34085H48.624L48.624 6.44096ZM30.8727 6.44123L30.8728 6.34085H30.7153L30.7817 6.48356L30.8727 6.44123ZM31.9876 6.44123L32.0793 6.40029L32.0527 6.34085H31.9877L31.9876 6.44123ZM33.3577 11.781L33.2667 11.8233L33.2938 11.8814H33.358L33.3577 11.781ZM33.8022 11.781L33.8022 11.8814H33.8665L33.8933 11.823L33.8022 11.781ZM36.2762 6.44123L36.3673 6.48329L36.4337 6.34085H36.2762L36.2762 6.44123ZM35.1615 6.44123L35.1616 6.34085H35.0963L35.0697 6.40055L35.1615 6.44123ZM33.5794 10.02L33.4879 10.061L33.5797 10.2679L33.6713 10.0607L33.5794 10.02ZM39.2736 6.44176L39.2723 6.54246H39.2742L39.2736 6.44176ZM39.2324 6.44123L39.2338 6.34111H39.2319L39.2324 6.44123ZM41.9744 9.06544L42.0751 9.0668V9.06493L41.9744 9.06544ZM41.9741 9.10614L41.8735 9.10509V9.10777L41.9741 9.10614ZM39.3055 11.7711L39.3039 11.872H39.3058L39.3055 11.7711ZM39.2637 11.7708L39.2651 11.6707H39.2624L39.2637 11.7708ZM36.5736 9.14791L36.4733 9.14767V9.14927L36.5736 9.14791ZM36.5736 9.10587L36.6744 9.1067V9.10483L36.5736 9.10587ZM36.5734 9.06517L36.473 9.06573V9.0668L36.5734 9.06517ZM37.575 9.10641L37.6758 9.10804V9.10456L37.575 9.10641ZM39.2672 10.7924L39.2697 10.6923H39.2654L39.2672 10.7924ZM39.3229 10.7927L39.3232 10.8934H39.3243L39.3229 10.7927ZM40.973 9.10641L40.8727 9.10456V9.10884L40.973 9.10641ZM39.3017 7.42012L39.3029 7.32001H39.3013L39.3017 7.42012ZM39.2742 7.42039L39.2729 7.52109H39.2748L39.2742 7.42039ZM44.215 11.7588V3.74849H44.0142V11.7588H44.215ZM43.0773 11.8592H44.1146V11.6586H43.0773V11.8592ZM42.9769 3.74849V11.7588H43.178V3.74849H42.9769ZM44.1146 3.64809H43.0773L43.0776 3.8489H44.1149L44.1146 3.64809ZM46.9557 5.07948L46.9554 6.44125H47.1565L47.1562 5.07948H46.9557ZM46.0188 5.17988H47.0561L47.0558 4.97907H46.0186L46.0188 5.17988ZM46.119 6.44125L46.1192 5.07948H45.9182L45.9184 6.44125H46.119ZM45.1727 6.54166H46.0186L46.0188 6.34085H45.1725L45.1727 6.54166ZM45.2732 7.38855V6.44125H45.0721V7.38855H45.2732ZM46.0186 7.28814H45.1727L45.1725 7.48896H46.0188L46.0186 7.28814ZM46.1192 10.0428L46.119 7.38855H45.9184L45.9182 10.0428H46.1192ZM46.1195 10.076L46.1192 10.0428H45.9182L45.9184 10.077L46.1195 10.076ZM47.8323 11.6806C47.2818 11.6806 46.8593 11.536 46.5733 11.2704C46.2885 11.0058 46.1259 10.609 46.1195 10.076L45.9184 10.077C45.9251 10.6505 46.1021 11.1065 46.4368 11.4174C46.7707 11.7274 47.2481 11.8814 47.8323 11.8814V11.6806ZM48.6728 11.5673C48.3338 11.6434 48.0604 11.6806 47.8323 11.6806V11.8814C48.0808 11.8814 48.3699 11.841 48.7164 11.7633L48.6728 11.5673ZM48.7673 11.5462L48.6728 11.5673L48.7164 11.7633L48.8109 11.7422L48.7673 11.5462ZM48.6888 10.741V11.6442H48.8894V10.741H48.6888ZM48.6639 10.8626L48.805 10.8404L48.7732 10.642L48.6329 10.6642L48.6639 10.8626ZM48.6093 10.8709L48.6639 10.8626L48.6329 10.6642L48.5793 10.6725L48.6093 10.8709ZM47.9967 10.9236C48.1764 10.9236 48.3748 10.9062 48.6093 10.8709L48.5793 10.6725C48.3515 10.707 48.164 10.7228 47.9972 10.7228L47.9967 10.9236ZM47.9772 10.9239L47.9967 10.9236L47.9972 10.7228L47.9777 10.7231L47.9772 10.9239ZM47.9563 10.9234L47.9761 10.9236L47.9777 10.7231L47.9589 10.7228L47.9563 10.9234ZM46.9557 9.99161C46.9557 10.2995 47.024 10.5392 47.1999 10.6998C47.3731 10.8578 47.6291 10.9188 47.9563 10.9234L47.9589 10.7228C47.6476 10.7186 47.4534 10.6591 47.3354 10.5512C47.2197 10.446 47.1565 10.2744 47.1565 9.99161H46.9557ZM46.9554 7.38855L46.9557 9.99161H47.1565V7.38855H46.9554ZM48.6243 7.28814H47.0558L47.0561 7.48896H48.624L48.6243 7.28814ZM48.5239 6.44125V7.38855H48.7244V6.44125H48.5239ZM47.0558 6.54166H48.6243L48.624 6.34085H47.0561L47.0558 6.54166ZM30.873 6.54166H31.9879L31.9877 6.34085H30.8728L30.873 6.54166ZM33.4491 11.7387L30.9641 6.39895L30.7817 6.48356L33.2667 11.8233L33.4491 11.7387ZM33.8025 11.6806H33.358V11.8814H33.8022L33.8025 11.6806ZM36.1855 6.39895L33.7115 11.7387L33.8933 11.823L36.3673 6.48329L36.1855 6.39895ZM35.1619 6.54166H36.2765L36.2762 6.34085H35.1616L35.1619 6.54166ZM33.6713 10.0607L35.254 6.48168L35.0697 6.40055L33.4879 9.97956L33.6713 10.0607ZM31.8964 6.48195L33.4879 10.061L33.6716 9.9793L32.0793 6.40029L31.8964 6.48195ZM39.2753 6.34138L39.2338 6.34111L39.2314 6.54166L39.2723 6.54246L39.2753 6.34138ZM39.3168 6.34138L39.2734 6.34111L39.2742 6.54246L39.3173 6.54193L39.3168 6.34138ZM42.0751 9.02129C42.0564 7.56125 40.8001 6.3454 39.3168 6.34138L39.3173 6.54193C40.6949 6.54567 41.8569 7.67718 41.8743 9.02396L42.0751 9.02129ZM42.0751 9.06493V9.02129L41.8743 9.02396V9.06573L42.0751 9.06493ZM42.0749 9.10777L42.0751 9.0668L41.8746 9.06386L41.8735 9.10509L42.0749 9.10777ZM42.0754 9.14552L42.0749 9.10483L41.8735 9.10777L41.8746 9.1482L42.0754 9.14552ZM39.35 11.8712C40.8226 11.8525 42.0813 10.5997 42.0754 9.14552L41.8746 9.1482C41.88 10.4886 40.7136 11.653 39.3473 11.6707L39.35 11.8712ZM39.3058 11.872L39.3489 11.8717L39.3484 11.6707H39.3053L39.3058 11.872ZM39.2627 11.8712L39.3039 11.872L39.3069 11.6709L39.2651 11.6707L39.2627 11.8712ZM39.2242 11.8717L39.2654 11.8712L39.2624 11.6707L39.2215 11.6709L39.2242 11.8717ZM36.4738 9.19184C36.5025 10.6452 37.7513 11.8779 39.2231 11.872L39.2215 11.6709C37.8597 11.6763 36.7011 10.5325 36.6746 9.18836L36.4738 9.19184ZM36.4733 9.14927L36.4738 9.19184L36.6746 9.18836L36.6741 9.14686L36.4733 9.14927ZM36.4733 9.10536V9.14767L36.6741 9.14847L36.6744 9.1067L36.4733 9.10536ZM36.473 9.0668L36.4736 9.10723L36.6744 9.10483L36.6738 9.06386L36.473 9.0668ZM39.1888 6.34138C37.7116 6.36012 36.4669 7.59793 36.473 9.06573L36.6738 9.06386C36.6682 7.70905 37.8206 6.55906 39.1907 6.54193L39.1888 6.34138ZM39.2319 6.34111L39.1888 6.34138L39.1896 6.54166H39.2327L39.2319 6.34111ZM37.6758 9.10456C37.6573 8.24883 38.3872 7.5168 39.2458 7.52055L39.2477 7.32001C38.2782 7.31572 37.4538 8.13771 37.4749 9.10857L37.6758 9.10456ZM39.2654 10.6923C38.3971 10.7111 37.6634 9.96162 37.6758 9.10804L37.4747 9.10509C37.4608 10.0701 38.2857 10.914 39.2697 10.8929L39.2654 10.6923ZM39.2956 10.6923H39.2697L39.2654 10.8929L39.2948 10.8934L39.2956 10.6923ZM39.3224 10.6923H39.2956L39.2948 10.8934H39.3232L39.3224 10.6923ZM40.8727 9.10884C40.8909 9.94288 40.1704 10.6808 39.3224 10.6923L39.3243 10.8934C40.281 10.8803 41.0941 10.0524 41.0735 9.10429L40.8727 9.10884ZM39.3278 7.52082C40.1763 7.53769 40.8909 8.25793 40.8727 9.10456L41.0735 9.10857C41.0944 8.14682 40.2868 7.33928 39.3315 7.32054L39.3278 7.52082ZM39.301 7.52082H39.3278L39.3315 7.32054L39.3029 7.32001L39.301 7.52082ZM39.2748 7.52109L39.3023 7.52082L39.3013 7.32001H39.2734L39.2748 7.52109ZM39.2458 7.52055L39.2729 7.52109L39.2756 7.32001H39.2477L39.2458 7.52055Z" fill="white"/>
<path d="M36.2818 3.76397H30.8497V4.65612H36.2818V3.76397Z" fill="white"/>
<path fill-rule="evenodd" clip-rule="evenodd" d="M30.4731 3.38745H36.6583V5.03264H30.4731V3.38745ZM31.2262 4.1405V4.27959H35.9053V4.1405H31.2262Z" fill="white"/>
</svg>
