<svg width="136" height="24" fill="none" xmlns="http://www.w3.org/2000/svg"><path d="M17.335 10.542h-.34l3.067-8.282c.41-1.087-.392-2.26-1.55-2.26H6.647C2.983 0 0 3.02 0 6.729c0 3.692 2.983 6.729 6.648 6.729h.443l8.795.086h1.33c2.08 0 3.767 1.726 3.767 3.813 0 2.105-1.705 3.813-3.767 3.813h-2.642a4.1 4.1 0 0 1-.648-.051c-.409-.07-.63-.5-.494-.898l1.33-3.588c.29-.76-.273-1.57-1.075-1.57H7.415c-.546 0-1.023.345-1.21.845L4.04 21.74C3.63 22.827 4.432 24 5.59 24h11.762C21 24 24 20.98 24 17.271c-.017-3.71-3.017-6.729-6.665-6.729Zm-9.733.086h-.835C4.687 10.628 3 8.903 3 6.815 3 4.71 4.705 3.002 6.767 3.002H9.41c.75 0 1.261.76 1.006 1.467l-2.097 5.659a.77.77 0 0 1-.716.5Z" fill="url(#a)"/><path fill-rule="evenodd" clip-rule="evenodd" d="M31.414 5.403a5.02 5.02 0 0 0-1.046 1.519A4.769 4.769 0 0 0 30 8.785c0 .656.115 1.277.368 1.852a5.127 5.127 0 0 0 2.552 2.565 4.678 4.678 0 0 0 1.863.368h1.414c.23 0 .437.046.62.127.208.092.38.195.518.333.126.138.241.31.322.518.08.184.126.39.126.62 0 .22-.046.427-.126.622a1.579 1.579 0 0 1-.322.506c-.15.15-.322.265-.517.345a1.71 1.71 0 0 1-.621.127h-5.484a.659.659 0 0 0-.483.195.66.66 0 0 0-.195.483v1.83a.66.66 0 0 0 .195.482.658.658 0 0 0 .483.196h5.484c.678 0 1.299-.115 1.85-.368a4.837 4.837 0 0 0 2.552-2.554c.242-.54.369-1.161.369-1.852a4.57 4.57 0 0 0-.368-1.863 4.366 4.366 0 0 0-1.023-1.53 4.758 4.758 0 0 0-1.53-1.024c-.54-.241-1.16-.368-1.85-.368h-1.414a1.59 1.59 0 0 1-1.127-.46 1.651 1.651 0 0 1-.345-.506 1.726 1.726 0 0 1-.126-.632c0-.23.046-.449.126-.633a1.42 1.42 0 0 1 .345-.506c.138-.15.299-.253.494-.334.196-.08.403-.126.633-.126h4.322a.658.658 0 0 0 .483-.196.698.698 0 0 0 .196-.483V4.68a.659.659 0 0 0-.196-.483.658.658 0 0 0-.483-.196h-4.322c-.667 0-1.288.127-1.863.368-.575.265-1.08.61-1.506 1.035Zm10.99 13.895c0 .184.07.345.196.472a.698.698 0 0 0 .483.184h1.667a.65.65 0 0 0 .483-.184.624.624 0 0 0 .184-.472V4.805a.642.642 0 0 0-.184-.471.65.65 0 0 0-.483-.184h-1.667a.65.65 0 0 0-.678.655v14.493Zm21.523.242c-.667-.3-1.219-.667-1.656-1.127a5.16 5.16 0 0 1-1.127-1.657 5.141 5.141 0 0 1-.425-2.047V4.702c0-.196.058-.345.184-.472a.64.64 0 0 1 .471-.184h1.645c.195 0 .344.058.47.184a.642.642 0 0 1 .185.472v3.094h3.874c.196 0 .357.069.483.195a.659.659 0 0 1 .195.483v1.645a.651.651 0 0 1-.195.472.658.658 0 0 1-.483.196h-3.851v3.933c0 .31.057.61.172.886.127.288.288.53.483.725.184.184.425.345.724.483.276.115.564.172.886.172h1.598a.65.65 0 0 1 .678.668v1.633a.65.65 0 0 1-.678.656h-1.598a4.909 4.909 0 0 1-2.035-.403Zm43.618-1.127c.437.46.989.828 1.656 1.127a4.889 4.889 0 0 0 2.023.402h1.598a.648.648 0 0 0 .678-.655v-1.633a.649.649 0 0 0-.678-.667h-1.598a2.25 2.25 0 0 1-.885-.173 2.47 2.47 0 0 1-.724-.483 2.33 2.33 0 0 1-.483-.725 2.294 2.294 0 0 1-.173-.886v-3.934h3.875a.656.656 0 0 0 .482-.195.65.65 0 0 0 .196-.472V8.474a.657.657 0 0 0-.196-.483.656.656 0 0 0-.482-.195h-3.875V4.702a.64.64 0 0 0-.184-.472.623.623 0 0 0-.471-.184h-1.656a.64.64 0 0 0-.471.184.626.626 0 0 0-.184.472v10.007c0 .725.15 1.403.425 2.047a5.161 5.161 0 0 0 1.127 1.657Zm10.232.517a1.594 1.594 0 0 1-.805.84c-.184.069-.39.104-.609.104-.253 0-.448-.035-.598-.104a2.142 2.142 0 0 1-.506-.345 1.493 1.493 0 0 1-.333-.495 1.663 1.663 0 0 1-.126-.61c0-.206.046-.402.126-.609.08-.184.184-.345.333-.472.161-.16.334-.276.506-.345a1.39 1.39 0 0 1 .598-.115c.253 0 .46.035.609.115.173.08.334.196.483.345.15.138.253.288.322.472.081.173.115.38.115.61 0 .253-.034.448-.115.61Zm4.277-12.273a1.61 1.61 0 0 0 .322-.495c.08-.16.115-.356.115-.61 0-.23-.035-.436-.115-.609a1.199 1.199 0 0 0-.322-.471 1.687 1.687 0 0 0-.483-.345c-.149-.081-.356-.115-.609-.115-.23 0-.426.034-.598.115a1.532 1.532 0 0 0-.506.345 1.258 1.258 0 0 0-.333.471 1.644 1.644 0 0 0-.127.61c0 .207.046.402.127.61.08.195.195.356.333.494.115.115.288.23.506.345.149.07.345.104.598.104.218 0 .425-.035.609-.104.173-.08.334-.195.483-.345Zm-2.426 13.113a.653.653 0 0 1-.195-.472V8.428a.651.651 0 0 1 .678-.656h1.679c.195 0 .344.058.471.185a.644.644 0 0 1 .184.471v10.87a.626.626 0 0 1-.184.472.642.642 0 0 1-.471.184h-1.679a.7.7 0 0 1-.483-.184Zm-15.555-9.317.38.644a1.45 1.45 0 0 1-.529 1.967l-.495.287a5.78 5.78 0 0 1-.391.242l-.781.426-2.599 1.506a.817.817 0 0 1-1.103-.299l-.633-1.092a.818.818 0 0 1 .3-1.104l1.655-.955c-.007-.007-.01-.01-.013-.01-.002-.002-.005-.002-.01-.002l1.081-.61a3.646 3.646 0 0 0-.817-.482 2.913 2.913 0 0 0-1.172-.23c-.391 0-.77.069-1.116.218-.356.15-.678.38-.977.69a2.911 2.911 0 0 0-.632.978 2.835 2.835 0 0 0-.184 1.127c.011.38.103.76.276 1.162.172.38.437.736.782 1.07.322.322.678.563 1.057.713.391.16.782.241 1.184.241.38.012.759-.057 1.127-.207.38-.15.701-.368.977-.644a.638.638 0 0 1 .472-.207c.184 0 .333.058.471.196l1.184 1.138a.67.67 0 0 1 .219.472.73.73 0 0 1-.184.483 5.66 5.66 0 0 1-1.955 1.323 5.72 5.72 0 0 1-2.253.46c-.759.011-1.53-.138-2.31-.437-.748-.288-1.438-.748-2.082-1.357-.655-.633-1.138-1.312-1.448-2.06a6.143 6.143 0 0 1-.53-2.3 6.146 6.146 0 0 1 .403-2.254 5.943 5.943 0 0 1 1.276-2.002 6.266 6.266 0 0 1 1.943-1.38 5.703 5.703 0 0 1 2.22-.483c.77-.012 1.528.138 2.298.437.771.299 1.484.77 2.173 1.438.265.264.472.517.633.759l.103.138Zm-45.458.77a5.968 5.968 0 0 0-1.287-1.955 6.073 6.073 0 0 0-1.886-1.277 6.3 6.3 0 0 0-2.345-.437c-.816 0-1.587.15-2.322.46-.725.322-1.369.748-1.898 1.3-.54.552-.965 1.208-1.299 1.967-.31.748-.46 1.576-.46 2.473 0 .886.15 1.703.46 2.45.322.77.76 1.415 1.3 1.956.528.552 1.16.989 1.897 1.31.712.323 1.483.473 2.322.473a5.81 5.81 0 0 0 2.345-.472 6.02 6.02 0 0 0 1.886-1.311c.54-.541.965-1.197 1.287-1.956.322-.748.472-1.564.472-2.45.011-.932-.15-1.783-.472-2.53Zm-5.507 5.752a3.215 3.215 0 0 1-3.219-3.22 3.215 3.215 0 0 1 3.22-3.222 3.222 3.222 0 0 1 0 6.441Zm81.132-7.707a5.96 5.96 0 0 1 1.288 1.956c.322.747.483 1.598.471 2.53 0 .886-.149 1.703-.471 2.45-.322.76-.747 1.415-1.288 1.956a6.011 6.011 0 0 1-1.885 1.31 5.812 5.812 0 0 1-2.345.473c-.84 0-1.61-.15-2.323-.472a5.843 5.843 0 0 1-1.897-1.311 6.003 6.003 0 0 1-1.299-1.956c-.31-.748-.46-1.564-.46-2.45 0-.897.15-1.725.46-2.473.334-.76.759-1.415 1.299-1.967.529-.552 1.173-.978 1.897-1.3a5.894 5.894 0 0 1 2.323-.46c.839 0 1.621.15 2.345.437.713.31 1.345.737 1.885 1.277Zm-7.438 4.486a3.215 3.215 0 0 0 3.219 3.22 3.222 3.222 0 0 0 0-6.44 3.215 3.215 0 0 0-3.219 3.22Zm-35.34-2.473c-.323-.748-.737-1.403-1.277-1.955a5.983 5.983 0 0 0-1.897-1.3 6.153 6.153 0 0 0-2.334-.449 3.85 3.85 0 0 0-.839.08 6.014 6.014 0 0 0-.816.23c-.265.093-.518.23-.736.403l-.218.15a3.626 3.626 0 0 0-.357.242l-.011-3.992a.624.624 0 0 0-.184-.471.641.641 0 0 0-.472-.184h-1.678a.624.624 0 0 0-.472.184.642.642 0 0 0-.183.471v9.099c0 .908.16 1.736.47 2.484.323.77.748 1.427 1.289 1.967a6.04 6.04 0 0 0 1.908 1.277c.713.299 1.483.448 2.322.448.828 0 1.61-.149 2.334-.437a5.316 5.316 0 0 0 1.897-1.276c.529-.53.943-1.174 1.276-1.944.322-.76.483-1.6.483-2.52-.023-.92-.184-1.748-.506-2.507Zm-5.439 5.74a3.215 3.215 0 0 1-3.219-3.22 3.216 3.216 0 0 1 2.69-3.176 1.87 1.87 0 0 1 .357-.034h.172a3.215 3.215 0 0 1 3.22 3.22 3.212 3.212 0 0 1-3.22 3.21ZM73.32 12.51s1.793.035 2.38.116c1.114.16 2.816 1.242 2.804 3.37 0 1.921-1.172 3.324-3.207 3.83-.494.115-1.472.161-2.472.173h-2.207a.565.565 0 0 1-.414-.172.603.603 0 0 1-.161-.415v-1.599c0-.16.046-.299.16-.414a.563.563 0 0 1 .415-.16h4.162c.563 0 1-.46 1.011-1.013.012-.368-.276-.725-.436-.828l-.012-.011a.733.733 0 0 0-.161-.092c-.058-.035-.333-.081-.38-.081H73.01c-1.276-.104-3.162-1.07-3.288-3.359-.138-2.38 1.84-3.67 2.909-3.991.724-.219 3.046-.207 4.323-.196v.012h.31c.172 0 .322.057.437.172a.599.599 0 0 1 .172.437v1.668a.591.591 0 0 1-.61.598H73.355c-.483 0-.931.346-1 .829a.976.976 0 0 0 .966 1.127Z" fill="#fff"/><defs><linearGradient id="a" x1="31.213" y1="-5.25" x2="-2.788" y2="29.209" gradientUnits="userSpaceOnUse"><stop offset=".104" stop-color="#FFC53A"/><stop offset=".938" stop-color="#FF124C"/></linearGradient></defs></svg>