<svg width="116" height="40" viewBox="0 0 116 40" fill="none" xmlns="http://www.w3.org/2000/svg">
<path d="M100.379 2.09526C98.4553 2.48738 96.7374 3.81312 95.9905 5.51231C95.3743 6.85672 95.3743 9.09741 95.9718 10.3298C96.5507 11.5435 97.5216 12.6078 98.5113 13.1306L99.3702 13.5788V18.0135H93.6658L93.5911 14.223C93.5351 10.5445 93.5164 10.4325 93.0123 9.4802C92.4334 8.35986 91.4064 7.29553 90.4168 6.79137L89.7072 6.4366V13.196C89.6886 27.9659 89.7259 33.3995 89.8006 33.4742C90.006 33.6796 91.7239 32.3912 92.34 31.5696C93.4604 30.0945 93.6284 29.2729 93.6284 25.3704V21.9347H98.7914C101.854 21.9347 102.152 21.8973 102.601 21.5612C102.881 21.3372 103.179 20.8517 103.291 20.4782C103.403 20.0488 103.478 21.776 103.478 14.7925V13.5788L104.337 13.1306C105.327 12.6078 106.298 11.5435 106.877 10.3298C107.474 9.09741 107.474 6.85672 106.858 5.49364C105.794 3.14092 102.862 1.59111 100.379 2.09526Z" fill="#C9CDD4"/>
<path d="M13.8413 2.51539C11.9741 3.24362 10.5736 4.88679 10.1628 6.81004C10.0135 7.53827 9.97612 11.5155 10.0135 20.6276L10.0695 33.4182L10.499 34.3705C11.2832 36.107 13.0197 37.4328 14.999 37.8062C16.4368 38.0676 79.176 38.0676 80.6511 37.7875C82.5931 37.4328 83.7321 36.6112 84.9831 34.7066L85.6927 33.6049V19.9181C85.6927 10.059 85.6367 6.19385 85.4873 6.10049C85.3752 6.0258 85.0952 5.63368 84.8898 5.22289C84.4043 4.28927 83.3213 3.24362 82.2383 2.68344L81.398 2.23531L48.0678 2.19796C15.8206 2.16062 14.7002 2.16062 13.8413 2.51539ZM37.2938 6.81004L37.798 7.37021V32.7273L37.2191 33.3062C36.4349 34.0904 35.4453 34.1091 34.5863 33.3435L33.9701 32.802L33.9141 20.3102C33.8768 10.9927 33.9328 7.70632 34.0822 7.29553C34.6237 5.98846 36.3229 5.72704 37.2938 6.81004ZM61.1945 6.81004L61.6987 7.37021V32.7273L61.1198 33.3062C60.3356 34.0904 59.3459 34.1091 58.487 33.3435L57.8708 32.802L57.8148 20.3102C57.7774 10.9927 57.8335 7.70632 57.9828 7.29553C58.5243 5.98846 60.2235 5.72704 61.1945 6.81004ZM28.9659 10.3578C29.5261 10.7126 29.8435 11.3848 29.8249 12.0943C29.8062 12.4304 29.246 13.8309 28.5925 15.2126C26.912 18.6857 25.7356 21.4679 24.9514 23.8766C24.2792 25.8559 24.2792 25.8932 24.634 26.1546C25.5862 26.8268 25.8477 27.2003 25.8477 27.9285C25.8477 28.47 25.6983 28.8061 25.3062 29.2543L24.7647 29.8704H19.0883L18.5468 29.2543C17.7812 28.3953 17.7999 27.4057 18.5841 26.6214C18.9389 26.248 19.3497 26.0426 19.6858 26.0426C20.1713 26.0426 20.2273 25.9679 20.5074 24.7916C20.9555 23.0364 22.3186 19.3579 23.5136 16.6691C24.0738 15.3993 24.5406 14.3163 24.5406 14.2417C24.5406 14.1483 23.9617 14.0923 23.2335 14.0923C22.0011 14.0923 21.9265 14.1109 21.8144 14.5591C21.6277 15.2873 20.7128 15.9595 19.8725 15.9595C19.3123 15.9595 19.0136 15.8288 18.5841 15.3807C18.0239 14.8205 18.0053 14.7645 18.0053 13.084C18.0053 11.1047 18.2853 10.5072 19.3683 10.1897C19.7044 10.0777 21.9078 10.0217 24.2605 10.0404C27.6589 10.0777 28.6485 10.1337 28.9659 10.3578ZM52.8666 10.3578C53.4268 10.7126 53.7442 11.3848 53.7255 12.0943C53.7069 12.4304 53.1467 13.8309 52.4932 15.2126C50.8126 18.6857 49.6363 21.4679 48.852 23.8766C48.1798 25.8559 48.1798 25.8932 48.5346 26.1546C49.4869 26.8268 49.7483 27.2003 49.7483 27.9285C49.7483 28.47 49.5989 28.8061 49.2068 29.2543L48.6653 29.8704H42.9889L42.4474 29.2543C41.6818 28.3953 41.7005 27.4057 42.4848 26.6214C42.8395 26.248 43.2503 26.0426 43.5864 26.0426C44.0719 26.0426 44.1279 25.9679 44.408 24.7916C44.8562 23.0364 46.2192 19.3579 47.4143 16.6691C47.9744 15.3993 48.4413 14.3163 48.4413 14.2417C48.4413 14.1483 47.8624 14.0923 47.1342 14.0923C45.9018 14.0923 45.8271 14.1109 45.7151 14.5591C45.5284 15.2873 44.6134 15.9595 43.7732 15.9595C43.213 15.9595 42.9142 15.8288 42.4848 15.3807C41.9246 14.8205 41.9059 14.7645 41.9059 13.084C41.9059 11.1047 42.186 10.5072 43.269 10.1897C43.6051 10.0777 45.8084 10.0217 48.1612 10.0404C51.5595 10.0777 52.5492 10.1337 52.8666 10.3578ZM76.7673 10.3578C77.3274 10.7126 77.6449 11.3848 77.6262 12.0943C77.6075 12.4304 77.0474 13.8309 76.3938 15.2126C74.7133 18.6857 73.5369 21.4679 72.7527 23.8766C72.0805 25.8559 72.0805 25.8932 72.4353 26.1546C73.3876 26.8268 73.649 27.2003 73.649 27.9285C73.649 28.47 73.4996 28.8061 73.1075 29.2543L72.566 29.8704H66.8896L66.3481 29.2543C65.5825 28.3953 65.6012 27.4057 66.3854 26.6214C66.7402 26.248 67.151 26.0426 67.4871 26.0426C67.9726 26.0426 68.0286 25.9679 68.3087 24.7916C68.7568 23.0364 70.1199 19.3579 71.3149 16.6691C71.8751 15.3993 72.3419 14.3163 72.3419 14.2417C72.3419 14.1483 71.7631 14.0923 71.0348 14.0923C69.8025 14.0923 69.7278 14.1109 69.6157 14.5591C69.429 15.2873 68.5141 15.9595 67.6738 15.9595C67.1136 15.9595 66.8149 15.8288 66.3854 15.3807C65.8253 14.8205 65.8066 14.7645 65.8066 13.084C65.8066 11.1047 66.0867 10.5072 67.1697 10.1897C67.5058 10.0777 69.7091 10.0217 72.0618 10.0404C75.4602 10.0777 76.4498 10.1337 76.7673 10.3578Z" fill="#C9CDD4"/>
</svg>
