<svg width="240" height="240" viewBox="0 0 240 240" fill="none" xmlns="http://www.w3.org/2000/svg">
<g clip-path="url(#clip0_890_64846)">
<circle opacity="0.24" cx="120" cy="120" r="120" fill="#282F3E"/>
<g opacity="0.5" filter="url(#filter0_d_890_64846)">
<ellipse cx="170.278" cy="48.8856" rx="11.4992" ry="15.3484" transform="rotate(-31 170.278 48.8856)" fill="#19202F"/>
</g>
<ellipse cx="173.802" cy="46.8919" rx="11.4992" ry="15.1305" transform="rotate(-31 173.802 46.8919)" fill="#151C2A"/>
<path opacity="0.32" fill-rule="evenodd" clip-rule="evenodd" d="M180.318 51.2231C180.536 49.2222 180.054 46.6197 178.516 44.0596C176.977 41.4994 174.906 39.8519 173.037 39.1056C171.173 38.3613 169.869 38.6032 169.1 39.0655C168.33 39.5278 167.504 40.5653 167.287 42.5606C167.068 44.5614 167.55 47.164 169.088 49.7241C170.627 52.2843 172.698 53.9318 174.567 54.6781C176.432 55.4224 177.735 55.1805 178.505 54.7182C179.274 54.2559 180.1 53.2184 180.318 51.2231ZM181.595 59.8612C187.039 56.5903 187.963 48.1321 183.659 40.9693C179.355 33.8066 171.453 30.6516 166.009 33.9225C160.566 37.1934 159.642 45.6516 163.945 52.8143C168.249 59.9771 176.151 63.1321 181.595 59.8612Z" fill="#282F3E"/>
<path opacity="0.72" d="M171.597 44.154L172.502 45.8552C172.544 45.9341 172.605 45.99 172.686 46.023C172.776 46.0507 172.861 46.0436 172.94 46.0016L174.345 45.2544C175.568 44.6041 176.526 44.9299 177.218 46.2317L178.406 48.4655C179.098 49.7673 178.833 50.7434 177.61 51.3936L175.968 52.2667C174.745 52.9169 173.787 52.5911 173.095 51.2893L172.717 50.5793L174.685 49.5331L175.086 50.2876C175.128 50.3665 175.189 50.4224 175.27 50.4553C175.361 50.4831 175.446 50.4759 175.525 50.434L176.397 49.9699C176.476 49.928 176.525 49.8643 176.542 49.7789C176.57 49.6883 176.563 49.6035 176.521 49.5246L175.396 47.4091C175.354 47.3302 175.288 47.2769 175.197 47.2492C175.117 47.2163 175.037 47.2208 174.958 47.2627L173.567 48.0021C172.344 48.6523 171.387 48.3266 170.695 47.0247L168.862 43.5779L173.892 40.9035L174.733 42.4864L171.597 44.154Z" fill="#11141C"/>
<g opacity="0.5" filter="url(#filter1_d_890_64846)">
<ellipse cx="207.566" cy="134.328" rx="11.4992" ry="15.3484" transform="rotate(14 207.566 134.328)" fill="#19202F"/>
</g>
<ellipse cx="211.468" cy="135.41" rx="11.4992" ry="15.1305" transform="rotate(14 211.468 135.41)" fill="#151C2A"/>
<path opacity="0.32" fill-rule="evenodd" clip-rule="evenodd" d="M213.013 143.08C214.582 141.82 216.081 139.638 216.804 136.74C217.527 133.842 217.227 131.213 216.433 129.363C215.641 127.519 214.548 126.768 213.677 126.551C212.806 126.334 211.489 126.483 209.924 127.74C208.354 129 206.855 131.182 206.132 134.08C205.41 136.978 205.71 139.607 206.504 141.457C207.295 143.301 208.388 144.052 209.259 144.269C210.13 144.486 211.448 144.337 213.013 143.08ZM207.808 150.091C213.97 151.627 220.604 146.3 222.626 138.192C224.647 130.084 221.291 122.265 215.129 120.729C208.966 119.193 202.332 124.52 200.311 132.628C198.289 140.736 201.646 148.555 207.808 150.091Z" fill="#282F3E"/>
<path opacity="0.72" d="M211.845 131.915L211.282 133.757C211.256 133.843 211.259 133.926 211.293 134.006C211.338 134.09 211.403 134.145 211.488 134.171L213.01 134.636C214.335 135.041 214.782 135.949 214.35 137.359L213.611 139.778C213.18 141.188 212.302 141.691 210.977 141.286L209.199 140.742C207.874 140.337 207.428 139.43 207.859 138.02L208.094 137.25L210.225 137.902L209.975 138.719C209.949 138.805 209.953 138.888 209.987 138.968C210.031 139.052 210.096 139.107 210.182 139.133L211.127 139.422C211.212 139.448 211.292 139.437 211.365 139.389C211.448 139.345 211.503 139.28 211.529 139.194L212.23 136.903C212.256 136.818 212.247 136.733 212.202 136.649C212.168 136.569 212.109 136.516 212.023 136.49L210.517 136.029C209.193 135.624 208.746 134.717 209.177 133.307L210.318 129.574L215.766 131.239L215.242 132.953L211.845 131.915Z" fill="#11141C"/>
<g filter="url(#filter2_d_890_64846)">
<path fill-rule="evenodd" clip-rule="evenodd" d="M228.961 35.8963C228.87 34.7533 228.076 33.8208 226.983 33.4732L183.243 19.5555C180.801 18.7785 178.37 21.2936 178.997 23.7784C181.252 32.7128 183.347 49.6593 172.332 63.5341C156.583 83.3723 150.645 103.004 153.928 121.638C175.643 131.611 203.965 139.03 203.965 139.03C203.965 139.03 194.568 118.648 213.751 90.4996C230.025 66.6215 229.496 42.6266 228.961 35.8963Z" fill="#202735"/>
</g>
<path opacity="0.48" fill-rule="evenodd" clip-rule="evenodd" d="M194.822 136.443C200.397 138.095 203.965 139.03 203.965 139.03C203.965 139.03 202.481 135.81 201.896 130.164C201.01 121.602 202.192 107.461 213.751 90.4996C230.025 66.6215 229.496 42.6266 228.961 35.8963C228.87 34.7533 228.076 33.8208 226.983 33.4732L183.243 19.5555C180.801 18.7785 178.37 21.2936 178.997 23.7784C181.252 32.7128 183.347 49.6593 172.332 63.5341C156.583 83.3723 150.645 103.004 153.928 121.638C167.936 128.071 184.692 133.441 194.822 136.443ZM193.707 127.754C192.379 127.348 190.973 126.912 189.505 126.447C181.048 123.769 170.694 120.196 161.259 116.141C159.929 101.467 165.115 85.4913 178.597 68.5083C189.062 55.3274 189.641 40.149 188.235 29.5391L221.144 40.0102C221.279 48.6804 219.824 67.384 207.14 85.9943C196.641 101.4 193.722 115.089 193.665 125.275C193.66 126.129 193.675 126.955 193.707 127.754Z" fill="#11141C"/>
<ellipse opacity="0.48" rx="3.89569" ry="4.7614" transform="matrix(-0.990268 0.139173 0.139173 0.990268 203.726 48.0501)" fill="#11141C"/>
<ellipse opacity="0.48" rx="3.89569" ry="4.7614" transform="matrix(-0.996195 -0.0871557 -0.0871557 0.996195 178.003 107.615)" fill="#11141C"/>
<ellipse opacity="0.48" rx="11.9468" ry="17.141" transform="matrix(-0.891007 -0.45399 -0.45399 0.891007 192.248 77.7256)" fill="#11141C"/>
<path d="M194.018 76.874C195.762 77.7981 196.164 79.1816 195.225 81.0246L193.817 83.7892C192.863 85.6605 191.507 86.1484 189.749 85.2526L188.877 84.8084L187.935 86.6585L187.148 86.2576L188.091 84.4075L187.24 83.9741C185.482 83.0783 185.08 81.6948 186.033 79.8234L186.759 78.3986L189.269 79.6772L188.359 81.4635C188.301 81.5769 188.286 81.6942 188.313 81.8154C188.355 81.9438 188.432 82.0369 188.546 82.0947L189.12 82.3872L191.146 78.4106L190.296 77.9772C188.538 77.0814 188.135 75.6979 189.089 73.8265L190.4 71.2534C191.354 69.382 192.709 68.8942 194.467 69.7899L195.318 70.2233L195.881 69.1175L196.668 69.5184L196.105 70.6242L196.828 70.9926C198.586 71.8884 198.988 73.2719 198.034 75.1433L197.514 76.164L195.005 74.8855L195.698 73.5245C195.756 73.411 195.764 73.2901 195.722 73.1617C195.695 73.0406 195.624 72.9511 195.511 72.8933L195.064 72.6657L193.147 76.4297L194.018 76.874ZM191.807 75.7471L192.36 76.0288L194.278 72.2648L193.725 71.9831C193.611 71.9253 193.49 71.9173 193.362 71.959C193.248 72.008 193.162 72.0891 193.104 72.2026L191.62 75.1159C191.562 75.2294 191.547 75.3467 191.574 75.4678C191.616 75.5962 191.693 75.6893 191.807 75.7471ZM191.123 82.8721L192.716 79.7461C192.774 79.6326 192.782 79.5117 192.74 79.3833C192.712 79.2622 192.642 79.1727 192.528 79.1149L191.933 78.8115L189.907 82.7882L190.502 83.0915C190.616 83.1493 190.73 83.1538 190.844 83.1048C190.972 83.0631 191.065 82.9855 191.123 82.8721Z" fill="#282F3E"/>
<g filter="url(#filter3_d_890_64846)">
<path d="M130.387 234.628C129.751 234.655 129.141 234.668 128.558 234.668C105.473 234.668 47.2537 239.127 30.0574 189.168C14.2568 143.282 73.1713 72.9283 82.8805 61.767C83.7427 60.774 84.2165 60.25 84.2165 60.25C84.2165 60.25 81.6519 58.3632 133.58 56.3644C193.217 102.076 202.641 138.265 202.641 138.265C221.613 212.412 155.126 233.612 130.387 234.628Z" fill="#202735"/>
</g>
<path opacity="0.4" d="M130.387 234.628C129.751 234.654 129.141 234.668 128.558 234.668C105.473 234.668 47.2537 239.127 30.0574 189.167C14.2567 143.282 73.1713 72.9284 82.8805 61.7671C85.3597 61.3835 87.7388 61.5009 90.0059 62.2048C90.8736 62.4756 -30.8892 218.194 130.387 234.628Z" fill="#1C212B"/>
<path opacity="0.8" d="M74.343 21.0478C74.343 21.0478 84.0283 4.58764 97.7005 10.6519C111.373 16.7162 122.391 21.2644 129.602 16.9328C136.813 12.6012 140.594 9.16797 142.598 18.682C144.603 28.196 117.256 51.5877 117.256 51.5877C117.256 51.5877 75.4825 51.5877 74.343 21.0478Z" fill="#1D2432"/>
<path opacity="0.3" d="M74.343 28.2694C74.343 28.2694 84.0283 11.8092 97.7005 17.8735C111.373 23.9378 122.391 28.486 129.602 24.1544C136.813 19.8227 140.594 16.3895 142.598 25.9035C144.603 35.4175 117.256 58.8093 117.256 58.8093C117.256 58.8093 75.4825 58.8093 74.343 28.2694Z" fill="#11141C"/>
<path d="M144.654 44.4084C140.779 50.1625 136.258 55.0962 132.28 57.1271C127.289 59.6728 118.402 61.2165 109.551 61.8616C100.7 62.5068 91.8708 62.2452 87.03 61.1889H87.0208C85.8198 60.9274 84.8676 60.6163 84.2166 60.2593C84.2166 60.2593 68.5692 35.4267 68.3434 23.8405C68.2671 20.1623 69.7482 17.8193 73.7719 18.0267C90.4834 18.8894 90.8644 28.2052 102.258 25.6053C113.651 23.0054 122.006 5.67789 129.601 16.9438C137.197 28.2097 145.362 12.1772 152.199 17.377C156.611 20.7212 151.706 33.9235 144.654 44.4084Z" fill="#202735"/>
<path opacity="0.6" d="M83.3002 58.7588C83.3002 58.7588 114.06 67.5689 134.169 55.9708C135.902 58.1577 136.803 58.8616 136.803 58.8616C136.803 58.8616 122.027 72.3457 82.0615 62.716C82.0606 62.7179 83.0321 59.8628 83.3002 58.7588Z" fill="#11141C"/>
<path opacity="0.4" d="M144.653 44.4084C140.779 50.1625 136.258 55.0962 132.28 57.1271C127.289 59.6728 118.402 61.2165 109.551 61.8616L87.03 61.1889H87.0208C85.8198 60.9274 84.8676 60.6163 84.2166 60.2593C84.2166 60.2593 68.5693 35.4267 68.3434 23.8405C68.5335 23.6377 74.6791 17.1411 82.0578 31.0666C89.5542 45.2068 92.2638 57.5336 101.142 51.5978C110.02 45.662 123.722 22.3419 126.133 33.3233C128.544 44.3047 119.658 54.8704 126.133 53.124C131.182 51.7502 140.909 44.2139 144.653 44.4084Z" fill="#1C212B"/>
<g opacity="0.9">
<path d="M131.306 136.73C142.505 136.324 148.412 141.986 149.027 153.717L149.949 171.314C150.573 183.225 145.291 189.474 134.101 190.061L128.551 190.352L129.169 202.128L124.16 202.39L123.543 190.614L118.129 190.898C106.939 191.484 101.032 185.822 100.408 173.91L99.9328 164.841L115.905 164.004L116.501 175.374C116.539 176.096 116.797 176.716 117.277 177.234C117.847 177.747 118.493 177.984 119.215 177.947L122.869 177.755L121.543 152.443L116.128 152.727C104.939 153.313 99.0319 147.651 98.4076 135.739L97.5492 119.361C96.925 107.449 102.208 101.2 113.397 100.614L118.812 100.33L118.443 93.2915L123.451 93.029L123.82 100.068L128.422 99.8265C139.612 99.24 145.519 104.903 146.143 116.814L146.483 123.311L130.511 124.148L130.057 115.485C130.019 114.764 129.715 114.146 129.146 113.633C128.666 113.115 128.065 112.875 127.343 112.913L124.501 113.062L125.756 137.02L131.306 136.73ZM117.229 137.467L120.748 137.283L119.493 113.325L115.973 113.509C115.251 113.547 114.634 113.851 114.121 114.42C113.698 114.986 113.506 115.629 113.543 116.351L114.515 134.895C114.553 135.617 114.812 136.237 115.291 136.755C115.861 137.268 116.507 137.505 117.229 137.467ZM134.098 174.452L133.055 154.554C133.017 153.832 132.713 153.215 132.143 152.702C131.664 152.184 131.063 151.944 130.341 151.982L126.551 152.181L127.878 177.493L131.668 177.294C132.389 177.256 132.962 176.955 133.385 176.39C133.898 175.82 134.135 175.174 134.098 174.452Z" fill="#3D4451"/>
</g>
<path d="M54.1983 61.7283C54.1983 76.3835 42.7326 87.9122 28.0778 87.4627C12.8265 86.9948 0 73.8287 0 58.0769C0 42.3252 12.8265 30.8872 28.0778 32.4746C42.7326 33.9991 54.1983 47.073 54.1983 61.7283Z" fill="#181E2A"/>
<path d="M58.1584 60.465C58.1584 75.1202 46.6926 86.6489 32.0379 86.1987C16.7874 85.7307 3.96008 72.5662 3.96008 56.8129C3.96008 41.0597 16.7874 29.6232 32.0379 31.2106C46.6926 32.7359 58.1584 45.8098 58.1584 60.465Z" fill="#1B2436"/>
<path d="M57.0083 60.3874C57.0083 74.3973 46.0376 85.3996 32.0379 84.9463C17.4954 84.4761 5.28394 71.9123 5.28394 56.9005C5.28394 41.8888 17.4947 30.9724 32.0379 32.4615C46.0384 33.8969 57.0083 46.3776 57.0083 60.3874Z" fill="#121927"/>
<path d="M56.1864 60.3321C56.1864 73.8794 45.5709 84.506 32.0402 84.0519C18.0028 83.5809 6.23108 71.4505 6.23108 56.9659C6.23108 42.4812 18.0005 31.9368 32.0379 33.3575C45.5686 34.7268 56.1864 46.7818 56.1864 60.3321Z" fill="#151C2A"/>
<g opacity="0.48">
<path d="M26.1915 60.2538C27.3995 58.7151 28.0035 56.4133 28.0037 53.3485C28.0037 50.4174 27.3895 48.1622 26.1611 46.5829C24.9328 45.0036 23.1716 44.2142 20.8776 44.2145C16.1947 44.2145 13.8533 47.2592 13.8533 53.3485C13.8533 56.3333 14.464 58.6151 15.6856 60.1939C16.9071 61.7727 18.6377 62.5622 20.8776 62.5623C23.2119 62.5623 24.9832 61.7928 26.1915 60.2538ZM20.9182 58.425C20.2393 58.425 19.7474 58.0087 19.4422 57.1759C19.1371 56.3432 18.9844 55.0807 18.984 53.3884C18.984 51.6965 19.1368 50.4407 19.4422 49.6209C19.7477 48.8011 20.2397 48.3914 20.9182 48.3917C22.2214 48.3917 22.873 50.0573 22.873 53.3884C22.873 56.7462 22.2214 58.425 20.9182 58.425Z" fill="#3A414F"/>
<path d="M47.0099 58.2551C45.7813 56.6761 44.0202 55.8866 41.7266 55.8866C37.0436 55.8866 34.702 58.9313 34.702 65.0206C34.702 67.9916 35.3129 70.2668 36.5346 71.8461C37.7563 73.4254 39.487 74.2148 41.7268 74.2145C44.0611 74.2145 45.8325 73.445 47.0408 71.9059C48.2491 70.3669 48.8533 68.0718 48.8533 65.0206C48.8533 62.0896 48.2388 59.8344 47.0099 58.2551ZM41.7672 70.0972C41.0884 70.0972 40.5963 69.6808 40.291 68.8481C39.9857 68.0153 39.8331 66.7528 39.8331 65.0606C39.8331 63.3678 39.9857 62.112 40.291 61.2933C40.5963 60.4745 41.0884 60.0648 41.7672 60.0641C43.0702 60.0641 43.7213 61.7296 43.7204 65.0606C43.7213 68.4185 43.0702 70.0973 41.7672 70.0972Z" fill="#3A414F"/>
<path d="M41.4698 44.9387C41.4131 44.8423 41.3318 44.7619 41.234 44.7055C41.1362 44.6491 41.0252 44.6186 40.9118 44.6169H37.8928C37.6594 44.6186 37.4308 44.6815 37.2303 44.7989C37.0299 44.9163 36.865 45.084 36.7526 45.2848L21.1465 72.9064C21.0917 73.0039 21.0635 73.1138 21.0648 73.2252C21.066 73.3367 21.0967 73.4459 21.1537 73.5423C21.2107 73.6387 21.2921 73.7189 21.39 73.7752C21.488 73.8316 21.5992 73.8621 21.7127 73.8637H25.1175C25.2334 73.8628 25.347 73.8316 25.4465 73.7733C25.546 73.7149 25.6279 73.6316 25.6837 73.5318L41.478 45.5763C41.5327 45.4784 41.5608 45.3682 41.5593 45.2564C41.5579 45.1447 41.5271 45.0352 41.4698 44.9387Z" fill="#3A414F"/>
</g>
</g>
<defs>
<filter id="filter0_d_890_64846" x="145.642" y="22.4543" width="49.271" height="52.8626" filterUnits="userSpaceOnUse" color-interpolation-filters="sRGB">
<feFlood flood-opacity="0" result="BackgroundImageFix"/>
<feColorMatrix in="SourceAlpha" type="matrix" values="0 0 0 0 0 0 0 0 0 0 0 0 0 0 0 0 0 0 127 0" result="hardAlpha"/>
<feOffset/>
<feGaussianBlur stdDeviation="6"/>
<feColorMatrix type="matrix" values="0 0 0 0 0 0 0 0 0 0 0 0 0 0 0 0 0 0 0.16 0"/>
<feBlend mode="normal" in2="BackgroundImageFix" result="effect1_dropShadow_890_64846"/>
<feBlend mode="normal" in="SourceGraphic" in2="effect1_dropShadow_890_64846" result="shape"/>
</filter>
<filter id="filter1_d_890_64846" x="183.804" y="107.175" width="47.5248" height="54.3056" filterUnits="userSpaceOnUse" color-interpolation-filters="sRGB">
<feFlood flood-opacity="0" result="BackgroundImageFix"/>
<feColorMatrix in="SourceAlpha" type="matrix" values="0 0 0 0 0 0 0 0 0 0 0 0 0 0 0 0 0 0 127 0" result="hardAlpha"/>
<feOffset/>
<feGaussianBlur stdDeviation="6"/>
<feColorMatrix type="matrix" values="0 0 0 0 0 0 0 0 0 0 0 0 0 0 0 0 0 0 0.16 0"/>
<feBlend mode="normal" in2="BackgroundImageFix" result="effect1_dropShadow_890_64846"/>
<feBlend mode="normal" in="SourceGraphic" in2="effect1_dropShadow_890_64846" result="shape"/>
</filter>
<filter id="filter2_d_890_64846" x="141.055" y="7.41193" width="100.096" height="143.618" filterUnits="userSpaceOnUse" color-interpolation-filters="sRGB">
<feFlood flood-opacity="0" result="BackgroundImageFix"/>
<feColorMatrix in="SourceAlpha" type="matrix" values="0 0 0 0 0 0 0 0 0 0 0 0 0 0 0 0 0 0 127 0" result="hardAlpha"/>
<feOffset/>
<feGaussianBlur stdDeviation="6"/>
<feColorMatrix type="matrix" values="0 0 0 0 0 0 0 0 0 0 0 0 0 0 0 0 0 0 0.16 0"/>
<feBlend mode="normal" in2="BackgroundImageFix" result="effect1_dropShadow_890_64846"/>
<feBlend mode="normal" in="SourceGraphic" in2="effect1_dropShadow_890_64846" result="shape"/>
</filter>
<filter id="filter3_d_890_64846" x="11.3812" y="40.3644" width="210.619" height="210.406" filterUnits="userSpaceOnUse" color-interpolation-filters="sRGB">
<feFlood flood-opacity="0" result="BackgroundImageFix"/>
<feColorMatrix in="SourceAlpha" type="matrix" values="0 0 0 0 0 0 0 0 0 0 0 0 0 0 0 0 0 0 127 0" result="hardAlpha"/>
<feOffset/>
<feGaussianBlur stdDeviation="8"/>
<feColorMatrix type="matrix" values="0 0 0 0 0 0 0 0 0 0 0 0 0 0 0 0 0 0 0.24 0"/>
<feBlend mode="normal" in2="BackgroundImageFix" result="effect1_dropShadow_890_64846"/>
<feBlend mode="normal" in="SourceGraphic" in2="effect1_dropShadow_890_64846" result="shape"/>
</filter>
<clipPath id="clip0_890_64846">
<rect width="240" height="240" fill="white"/>
</clipPath>
</defs>
</svg>
