<svg width="240" height="260" viewBox="0 0 240 260" fill="none" xmlns="http://www.w3.org/2000/svg">
<g clip-path="url(#clip0_887_64481)">
<circle opacity="0.24" cx="120" cy="140" r="120" fill="#282F3E"/>
<g opacity="0.5" filter="url(#filter0_d_887_64481)">
<ellipse cx="164.762" cy="55.8856" rx="11.4992" ry="15.3484" transform="rotate(-31 164.762 55.8856)" fill="#19202F"/>
</g>
<ellipse cx="168.286" cy="53.8919" rx="11.4992" ry="15.1305" transform="rotate(-31 168.286 53.8919)" fill="#151C2A"/>
<path opacity="0.32" fill-rule="evenodd" clip-rule="evenodd" d="M174.801 58.2231C175.02 56.2222 174.538 53.6197 173 51.0596C171.461 48.4994 169.39 46.8519 167.521 46.1056C165.656 45.3613 164.353 45.6032 163.583 46.0655C162.814 46.5278 161.988 47.5653 161.77 49.5606C161.552 51.5614 162.034 54.164 163.572 56.7241C165.111 59.2843 167.182 60.9318 169.051 61.6781C170.915 62.4224 172.219 62.1805 172.988 61.7182C173.758 61.2559 174.584 60.2184 174.801 58.2231ZM176.079 66.8612C181.522 63.5903 182.446 55.1321 178.143 47.9693C173.839 40.8066 165.937 37.6516 160.493 40.9225C155.049 44.1934 154.125 52.6516 158.429 59.8143C162.733 66.9771 170.635 70.1321 176.079 66.8612Z" fill="#282F3E"/>
<path opacity="0.72" d="M166.081 51.154L166.986 52.8552C167.028 52.9341 167.089 52.99 167.17 53.023C167.26 53.0507 167.345 53.0436 167.424 53.0016L168.829 52.2544C170.052 51.6041 171.01 51.9299 171.702 53.2317L172.89 55.4655C173.582 56.7673 173.317 57.7434 172.094 58.3936L170.452 59.2667C169.229 59.9169 168.271 59.5911 167.579 58.2893L167.201 57.5793L169.169 56.5331L169.57 57.2876C169.612 57.3665 169.673 57.4224 169.754 57.4553C169.845 57.4831 169.929 57.4759 170.008 57.434L170.881 56.9699C170.96 56.928 171.008 56.8643 171.026 56.7789C171.054 56.6883 171.047 56.6035 171.005 56.5246L169.88 54.4091C169.838 54.3302 169.772 54.2769 169.681 54.2492C169.601 54.2163 169.521 54.2208 169.442 54.2627L168.051 55.0021C166.828 55.6523 165.871 55.3266 165.179 54.0247L163.346 50.5779L168.376 47.9035L169.217 49.4864L166.081 51.154Z" fill="#11141C"/>
<g opacity="0.5" filter="url(#filter1_d_887_64481)">
<ellipse cx="217.05" cy="141.328" rx="11.4992" ry="15.3484" transform="rotate(14 217.05 141.328)" fill="#19202F"/>
</g>
<ellipse cx="220.952" cy="142.41" rx="11.4992" ry="15.1305" transform="rotate(14 220.952 142.41)" fill="#151C2A"/>
<path opacity="0.32" fill-rule="evenodd" clip-rule="evenodd" d="M222.496 150.08C224.066 148.82 225.565 146.638 226.288 143.74C227.01 140.842 226.71 138.213 225.916 136.363C225.125 134.519 224.032 133.768 223.161 133.551C222.29 133.334 220.972 133.483 219.407 134.74C217.838 136 216.339 138.182 215.616 141.08C214.894 143.978 215.193 146.607 215.987 148.457C216.779 150.301 217.872 151.052 218.743 151.269C219.614 151.486 220.931 151.337 222.496 150.08ZM217.292 157.091C223.454 158.627 230.088 153.3 232.109 145.192C234.131 137.084 230.774 129.265 224.612 127.729C218.45 126.193 211.816 131.52 209.794 139.628C207.773 147.736 211.129 155.555 217.292 157.091Z" fill="#282F3E"/>
<path opacity="0.72" d="M221.329 138.915L220.766 140.757C220.739 140.843 220.743 140.926 220.777 141.006C220.822 141.09 220.887 141.145 220.972 141.171L222.494 141.636C223.819 142.041 224.265 142.949 223.834 144.359L223.095 146.778C222.664 148.188 221.786 148.691 220.461 148.286L218.683 147.742C217.358 147.337 216.911 146.43 217.343 145.02L217.578 144.25L219.709 144.902L219.459 145.719C219.433 145.805 219.437 145.888 219.47 145.968C219.515 146.052 219.58 146.107 219.665 146.133L220.611 146.422C220.696 146.448 220.775 146.437 220.848 146.389C220.932 146.345 220.987 146.28 221.013 146.194L221.713 143.903C221.74 143.818 221.73 143.733 221.686 143.649C221.652 143.569 221.592 143.516 221.507 143.49L220.001 143.029C218.676 142.624 218.23 141.717 218.661 140.307L219.802 136.574L225.25 138.239L224.726 139.953L221.329 138.915Z" fill="#11141C"/>
<g filter="url(#filter2_d_887_64481)">
<path fill-rule="evenodd" clip-rule="evenodd" d="M111.073 52.641C110.421 49.6115 108.337 47.0881 105.485 45.876V45.876V45.876C108.343 44.6612 110.449 42.1538 111.151 39.1285L111.181 39.0014L111.21 39.1285C111.913 42.1538 114.019 44.6612 116.877 45.876V45.876V45.876C114.025 47.0881 111.941 49.6115 111.289 52.641L111.181 53.1435L111.073 52.641Z" fill="#3D4451"/>
</g>
<g filter="url(#filter3_d_887_64481)">
<path fill-rule="evenodd" clip-rule="evenodd" d="M10.9685 182.875C9.99092 178.331 6.86438 174.546 2.58641 172.728V172.728V172.728C6.87386 170.905 10.0325 167.144 11.0863 162.606L11.1306 162.416L11.1749 162.606C12.2287 167.144 15.3874 170.905 19.6748 172.728V172.728V172.728C15.3968 174.546 12.2703 178.331 11.2927 182.875L11.1306 183.629L10.9685 182.875Z" fill="#3D4451"/>
</g>
<g filter="url(#filter4_d_887_64481)">
<path fill-rule="evenodd" clip-rule="evenodd" d="M223.444 42.8963C223.354 41.7533 222.56 40.8208 221.467 40.4732L177.727 26.5555C175.285 25.7785 172.854 28.2936 173.481 30.7784C175.736 39.7128 177.831 56.6593 166.816 70.5341C151.066 90.3723 145.129 110.004 148.412 128.638C170.127 138.611 198.449 146.03 198.449 146.03C198.449 146.03 189.052 125.648 208.235 97.4996C224.509 73.6215 223.979 49.6266 223.444 42.8963Z" fill="#202735"/>
</g>
<path opacity="0.48" fill-rule="evenodd" clip-rule="evenodd" d="M189.306 143.443C194.881 145.095 198.449 146.03 198.449 146.03C198.449 146.03 196.965 142.81 196.38 137.164C195.494 128.602 196.676 114.461 208.235 97.4996C224.509 73.6215 223.979 49.6266 223.445 42.8963C223.354 41.7533 222.56 40.8208 221.467 40.4732L177.727 26.5555C175.285 25.7785 172.854 28.2936 173.481 30.7784C175.736 39.7128 177.831 56.6593 166.816 70.5341C151.066 90.3723 145.129 110.004 148.412 128.638C162.419 135.071 179.176 140.441 189.306 143.443ZM188.191 134.754C186.863 134.348 185.457 133.912 183.989 133.447C175.532 130.769 165.178 127.196 155.743 123.141C154.413 108.467 159.599 92.4913 173.081 75.5083C183.545 62.3274 184.125 47.149 182.719 36.5391L215.627 47.0102C215.763 55.6804 214.308 74.384 201.624 92.9943C191.125 108.4 188.206 122.089 188.148 132.275C188.144 133.129 188.159 133.955 188.191 134.754Z" fill="#11141C"/>
<ellipse opacity="0.48" rx="3.89569" ry="4.7614" transform="matrix(-0.990268 0.139173 0.139173 0.990268 198.21 55.0501)" fill="#11141C"/>
<ellipse opacity="0.48" rx="3.89569" ry="4.7614" transform="matrix(-0.996195 -0.0871557 -0.0871557 0.996195 172.487 114.615)" fill="#11141C"/>
<ellipse opacity="0.48" rx="11.9468" ry="17.141" transform="matrix(-0.891007 -0.45399 -0.45399 0.891007 186.732 84.7256)" fill="#11141C"/>
<path d="M188.502 83.874C190.246 84.7981 190.648 86.1816 189.709 88.0246L188.3 90.7892C187.347 92.6605 185.991 93.1484 184.233 92.2526L183.361 91.8084L182.419 93.6585L181.632 93.2576L182.575 91.4075L181.724 90.9741C179.966 90.0783 179.564 88.6948 180.517 86.8234L181.243 85.3986L183.753 86.6772L182.842 88.4635C182.785 88.5769 182.769 88.6942 182.797 88.8154C182.839 88.9438 182.916 89.0369 183.03 89.0947L183.604 89.3872L185.63 85.4106L184.779 84.9772C183.022 84.0814 182.619 82.6979 183.573 80.8265L184.884 78.2534C185.837 76.382 187.193 75.8942 188.951 76.7899L189.802 77.2233L190.365 76.1175L191.152 76.5184L190.589 77.6242L191.312 77.9926C193.07 78.8884 193.472 80.2719 192.518 82.1433L191.998 83.164L189.489 81.8855L190.182 80.5245C190.24 80.411 190.248 80.2901 190.206 80.1617C190.179 80.0406 190.108 79.9511 189.995 79.8933L189.548 79.6657L187.63 83.4297L188.502 83.874ZM186.291 82.7471L186.844 83.0288L188.762 79.2648L188.209 78.9831C188.095 78.9253 187.974 78.9173 187.846 78.959C187.732 79.008 187.646 79.0891 187.588 79.2026L186.103 82.1159C186.046 82.2294 186.031 82.3467 186.058 82.4678C186.1 82.5962 186.177 82.6893 186.291 82.7471ZM185.607 89.8721L187.2 86.7461C187.257 86.6326 187.266 86.5117 187.224 86.3833C187.196 86.2622 187.126 86.1727 187.012 86.1149L186.417 85.8115L184.391 89.7882L184.986 90.0915C185.1 90.1493 185.213 90.1538 185.328 90.1048C185.456 90.0631 185.549 89.9855 185.607 89.8721Z" fill="#282F3E"/>
<path d="M11 12.4078C11 5.55569 16.5547 0.000984192 23.4068 0.000984192H56.1671C62.5458 0.000984192 67.7167 5.17194 67.7167 11.5506C67.7167 17.9293 62.5458 23.1003 56.1671 23.1003H11V12.4078Z" fill="#171E2C"/>
<g filter="url(#filter5_d_887_64481)">
<path fill-rule="evenodd" clip-rule="evenodd" d="M24.6487 0.000934342H71.2878C84.8961 0.000934342 95.9278 11.0326 95.9278 24.6409V102.424H61.3778C48.8983 102.424 38.7816 92.3078 38.7816 79.8282V14.3221C38.7816 6.48591 32.4841 0.104585 24.6487 0.000934342Z" fill="#202735"/>
</g>
<path fill-rule="evenodd" clip-rule="evenodd" d="M61.7193 79.1459C61.7193 74.2724 65.6702 70.3215 70.5437 70.3215C87.9494 70.3215 102.059 84.4316 102.059 101.837V102.424H53.7736C58.6583 99.8671 61.7193 94.8093 61.7193 89.2956V79.1459Z" fill="#171E2C"/>
<g filter="url(#filter6_d_887_64481)">
<path fill-rule="evenodd" clip-rule="evenodd" d="M77.5332 70.3215H112.676C126.284 70.3215 137.316 81.3533 137.316 94.9615V125.355H91.7084V84.6844C91.7084 76.825 85.3919 70.4249 77.5332 70.3215Z" fill="#202735"/>
</g>
<g opacity="0.24">
<path d="M50.7078 55.0345C50.7078 53.768 51.7344 52.7414 53.0008 52.7414H81.3717C82.6381 52.7414 83.6648 53.768 83.6648 55.0345C83.6648 56.3009 82.6381 57.3275 81.3717 57.3275H53.0008C51.7344 57.3275 50.7078 56.3009 50.7078 55.0345Z" fill="#11141C"/>
<path d="M102.059 105.482C102.059 104.215 103.086 103.189 104.352 103.189H125.825C127.092 103.189 128.118 104.215 128.118 105.482C128.118 106.748 127.092 107.775 125.825 107.775H104.352C103.086 107.775 102.059 106.748 102.059 105.482Z" fill="#11141C"/>
</g>
<g opacity="0.4">
<path d="M50.7078 21.4029C50.7078 20.1364 51.7344 19.1098 53.0008 19.1098H81.3717C82.6381 19.1098 83.6648 20.1364 83.6648 21.4029C83.6648 22.6693 82.6381 23.6959 81.3717 23.6959H53.0008C51.7344 23.6959 50.7078 22.6693 50.7078 21.4029Z" fill="#11141C"/>
<path d="M50.7078 37.4543C50.7078 36.1879 51.7344 35.1613 53.0008 35.1613H81.3717C82.6381 35.1613 83.6648 36.1879 83.6648 37.4543C83.6648 38.7207 82.6381 39.7474 81.3717 39.7474H53.0008C51.7344 39.7474 50.7078 38.7207 50.7078 37.4543Z" fill="#11141C"/>
<path d="M50.7078 46.6266C50.7078 45.3602 51.7344 44.3335 53.0008 44.3335H74.4737C75.7402 44.3335 76.7668 45.3602 76.7668 46.6266C76.7668 47.893 75.7402 48.9196 74.4737 48.9196H53.0008C51.7344 48.9196 50.7078 47.893 50.7078 46.6266Z" fill="#11141C"/>
<path d="M102.059 88.6661C102.059 87.3997 103.086 86.373 104.352 86.373H125.825C127.092 86.373 128.118 87.3997 128.118 88.6661C128.118 89.9325 127.092 90.9591 125.825 90.9591H104.352C103.086 90.9591 102.059 89.9325 102.059 88.6661Z" fill="#11141C"/>
<path d="M102.059 97.074C102.059 95.8075 103.086 94.7809 104.352 94.7809H119.694C120.96 94.7809 121.987 95.8075 121.987 97.074C121.987 98.3404 120.96 99.367 119.694 99.367H104.352C103.086 99.367 102.059 98.3404 102.059 97.074Z" fill="#11141C"/>
</g>
<g filter="url(#filter7_d_887_64481)">
<rect x="25" y="121" width="191" height="117" rx="10" fill="#202735"/>
</g>
<rect opacity="0.56" x="25" y="141.75" width="191" height="25.1316" fill="#11141C"/>
<g opacity="0.64">
<circle opacity="0.6" cx="59.5559" cy="203.72" r="15.7072" fill="#11141C"/>
<circle opacity="0.502038" cx="74.6351" cy="203.72" r="15.7072" fill="#11141C"/>
</g>
<rect opacity="0.64" x="161.967" y="209.375" width="35.1842" height="10.0526" rx="5.02632" fill="#11141C"/>
</g>
<defs>
<filter id="filter0_d_887_64481" x="140.126" y="29.4543" width="49.271" height="52.8626" filterUnits="userSpaceOnUse" color-interpolation-filters="sRGB">
<feFlood flood-opacity="0" result="BackgroundImageFix"/>
<feColorMatrix in="SourceAlpha" type="matrix" values="0 0 0 0 0 0 0 0 0 0 0 0 0 0 0 0 0 0 127 0" result="hardAlpha"/>
<feOffset/>
<feGaussianBlur stdDeviation="6"/>
<feColorMatrix type="matrix" values="0 0 0 0 0 0 0 0 0 0 0 0 0 0 0 0 0 0 0.16 0"/>
<feBlend mode="normal" in2="BackgroundImageFix" result="effect1_dropShadow_887_64481"/>
<feBlend mode="normal" in="SourceGraphic" in2="effect1_dropShadow_887_64481" result="shape"/>
</filter>
<filter id="filter1_d_887_64481" x="193.288" y="114.175" width="47.5248" height="54.3056" filterUnits="userSpaceOnUse" color-interpolation-filters="sRGB">
<feFlood flood-opacity="0" result="BackgroundImageFix"/>
<feColorMatrix in="SourceAlpha" type="matrix" values="0 0 0 0 0 0 0 0 0 0 0 0 0 0 0 0 0 0 127 0" result="hardAlpha"/>
<feOffset/>
<feGaussianBlur stdDeviation="6"/>
<feColorMatrix type="matrix" values="0 0 0 0 0 0 0 0 0 0 0 0 0 0 0 0 0 0 0.16 0"/>
<feBlend mode="normal" in2="BackgroundImageFix" result="effect1_dropShadow_887_64481"/>
<feBlend mode="normal" in="SourceGraphic" in2="effect1_dropShadow_887_64481" result="shape"/>
</filter>
<filter id="filter2_d_887_64481" x="89.4849" y="23.0014" width="43.3922" height="46.1421" filterUnits="userSpaceOnUse" color-interpolation-filters="sRGB">
<feFlood flood-opacity="0" result="BackgroundImageFix"/>
<feColorMatrix in="SourceAlpha" type="matrix" values="0 0 0 0 0 0 0 0 0 0 0 0 0 0 0 0 0 0 127 0" result="hardAlpha"/>
<feOffset/>
<feGaussianBlur stdDeviation="8"/>
<feColorMatrix type="matrix" values="0 0 0 0 0 0 0 0 0 0 0 0 0 0 0 0 0 0 0.24 0"/>
<feBlend mode="normal" in2="BackgroundImageFix" result="effect1_dropShadow_887_64481"/>
<feBlend mode="normal" in="SourceGraphic" in2="effect1_dropShadow_887_64481" result="shape"/>
</filter>
<filter id="filter3_d_887_64481" x="-13.4136" y="146.416" width="49.0884" height="53.2132" filterUnits="userSpaceOnUse" color-interpolation-filters="sRGB">
<feFlood flood-opacity="0" result="BackgroundImageFix"/>
<feColorMatrix in="SourceAlpha" type="matrix" values="0 0 0 0 0 0 0 0 0 0 0 0 0 0 0 0 0 0 127 0" result="hardAlpha"/>
<feOffset/>
<feGaussianBlur stdDeviation="8"/>
<feColorMatrix type="matrix" values="0 0 0 0 0 0 0 0 0 0 0 0 0 0 0 0 0 0 0.24 0"/>
<feBlend mode="normal" in2="BackgroundImageFix" result="effect1_dropShadow_887_64481"/>
<feBlend mode="normal" in="SourceGraphic" in2="effect1_dropShadow_887_64481" result="shape"/>
</filter>
<filter id="filter4_d_887_64481" x="135.539" y="14.4119" width="100.096" height="143.618" filterUnits="userSpaceOnUse" color-interpolation-filters="sRGB">
<feFlood flood-opacity="0" result="BackgroundImageFix"/>
<feColorMatrix in="SourceAlpha" type="matrix" values="0 0 0 0 0 0 0 0 0 0 0 0 0 0 0 0 0 0 127 0" result="hardAlpha"/>
<feOffset/>
<feGaussianBlur stdDeviation="6"/>
<feColorMatrix type="matrix" values="0 0 0 0 0 0 0 0 0 0 0 0 0 0 0 0 0 0 0.16 0"/>
<feBlend mode="normal" in2="BackgroundImageFix" result="effect1_dropShadow_887_64481"/>
<feBlend mode="normal" in="SourceGraphic" in2="effect1_dropShadow_887_64481" result="shape"/>
</filter>
<filter id="filter5_d_887_64481" x="8.64868" y="-15.9991" width="103.279" height="134.424" filterUnits="userSpaceOnUse" color-interpolation-filters="sRGB">
<feFlood flood-opacity="0" result="BackgroundImageFix"/>
<feColorMatrix in="SourceAlpha" type="matrix" values="0 0 0 0 0 0 0 0 0 0 0 0 0 0 0 0 0 0 127 0" result="hardAlpha"/>
<feOffset/>
<feGaussianBlur stdDeviation="8"/>
<feColorMatrix type="matrix" values="0 0 0 0 0 0 0 0 0 0 0 0 0 0 0 0 0 0 0.24 0"/>
<feBlend mode="normal" in2="BackgroundImageFix" result="effect1_dropShadow_887_64481"/>
<feBlend mode="normal" in="SourceGraphic" in2="effect1_dropShadow_887_64481" result="shape"/>
</filter>
<filter id="filter6_d_887_64481" x="61.5332" y="54.3215" width="91.7825" height="87.0335" filterUnits="userSpaceOnUse" color-interpolation-filters="sRGB">
<feFlood flood-opacity="0" result="BackgroundImageFix"/>
<feColorMatrix in="SourceAlpha" type="matrix" values="0 0 0 0 0 0 0 0 0 0 0 0 0 0 0 0 0 0 127 0" result="hardAlpha"/>
<feOffset/>
<feGaussianBlur stdDeviation="8"/>
<feColorMatrix type="matrix" values="0 0 0 0 0 0 0 0 0 0 0 0 0 0 0 0 0 0 0.24 0"/>
<feBlend mode="normal" in2="BackgroundImageFix" result="effect1_dropShadow_887_64481"/>
<feBlend mode="normal" in="SourceGraphic" in2="effect1_dropShadow_887_64481" result="shape"/>
</filter>
<filter id="filter7_d_887_64481" x="13" y="109" width="215" height="141" filterUnits="userSpaceOnUse" color-interpolation-filters="sRGB">
<feFlood flood-opacity="0" result="BackgroundImageFix"/>
<feColorMatrix in="SourceAlpha" type="matrix" values="0 0 0 0 0 0 0 0 0 0 0 0 0 0 0 0 0 0 127 0" result="hardAlpha"/>
<feOffset/>
<feGaussianBlur stdDeviation="6"/>
<feColorMatrix type="matrix" values="0 0 0 0 0 0 0 0 0 0 0 0 0 0 0 0 0 0 0.16 0"/>
<feBlend mode="normal" in2="BackgroundImageFix" result="effect1_dropShadow_887_64481"/>
<feBlend mode="normal" in="SourceGraphic" in2="effect1_dropShadow_887_64481" result="shape"/>
</filter>
<clipPath id="clip0_887_64481">
<rect width="240" height="260" fill="white"/>
</clipPath>
</defs>
</svg>
