<svg width="48" height="48" viewBox="0 0 48 48" fill="none" xmlns="http://www.w3.org/2000/svg">
<path d="M23.4131 4.1443C23.2409 4.23034 22.8027 4.56664 22.4349 4.89513C20.2592 6.87389 17.8488 8.2035 15.0314 9.00126C13.4271 9.45489 11.0089 9.77556 9.22454 9.78338C8.11324 9.7912 7.72194 9.96326 7.38542 10.6046C7.22107 10.9096 7.22107 10.9957 7.22107 16.3923C7.21325 22.3207 7.23673 22.8057 7.69064 25.6604C9.10715 34.5609 13.9358 40.3408 22.7401 43.6569C24.047 44.1497 24.0314 44.1497 25.9018 43.4067C28.4374 42.4056 30.8713 41.0212 32.7417 39.5117C33.7591 38.6905 35.3791 37.0168 36.1695 35.9687C38.2904 33.1531 39.6286 29.8056 40.3173 25.5822C40.7556 22.876 40.7869 22.3051 40.7791 16.3923C40.7791 10.9331 40.7791 10.9174 40.6069 10.589C40.4034 10.1979 40.1217 9.96326 39.7382 9.86941C39.5817 9.8303 38.8773 9.77556 38.1652 9.75209C33.1017 9.58003 28.9305 7.97668 25.5653 4.89513C24.587 4.00352 24.0862 3.83145 23.4131 4.1443ZM30.707 18.8247C31.2157 19.3643 31.6383 19.8414 31.6539 19.8727C31.6696 19.9118 29.6818 21.8124 27.2479 24.1118C22.7479 28.3431 22.4036 28.6324 21.8479 28.6324C21.2844 28.6246 21.0497 28.4213 18.7958 25.9263C17.5984 24.5967 16.5575 23.4392 16.4793 23.3531C16.3384 23.1967 16.3619 23.1733 17.3714 22.2816C17.9427 21.7811 18.4279 21.3587 18.4592 21.3431C18.4905 21.3353 19.2731 22.1643 20.2044 23.1967C21.1357 24.2291 21.9418 25.0816 21.9888 25.0894C22.0436 25.0973 23.7888 23.4705 25.8783 21.4761C27.9679 19.4817 29.6974 17.847 29.7287 17.847C29.7522 17.8392 30.1904 18.285 30.707 18.8247Z" fill="url(#paint0_linear_135_12133)"/>
<defs>
<linearGradient id="paint0_linear_135_12133" x1="50.8656" y1="52.75" x2="-5.07021" y2="5.18675" gradientUnits="userSpaceOnUse">
<stop offset="0.104422" stop-color="#FFC53A"/>
<stop offset="0.9375" stop-color="#FF124C"/>
</linearGradient>
</defs>
</svg>
