<svg width="47" height="16" viewBox="0 0 47 16" fill="none" xmlns="http://www.w3.org/2000/svg">
<g clip-path="url(#clip0_1748_12233)">
<path d="M11.8656 8.6276L4.156 0.9092C3.824 0.5704 4.056 0 4.5312 0H12.2408C12.5348 0 12.7728 0.2384 12.7728 0.5328V8.2512C12.7728 8.7216 12.2032 8.96 11.8656 8.6276ZM14.5812 8.6276L22.2908 0.9092C22.6228 0.5772 22.3908 0 21.9156 0H14.206C14.1361 -7.90665e-08 14.0668 0.013787 14.0022 0.0405725C13.9376 0.067358 13.8789 0.106616 13.8295 0.156102C13.7801 0.205587 13.741 0.264329 13.7143 0.328967C13.6876 0.393604 13.6739 0.462869 13.674 0.5328V8.2512C13.674 8.7216 14.25 8.96 14.5812 8.6276ZM24.062 8.6276L31.7712 0.9092C32.1032 0.5772 31.8712 0 31.396 0H23.6864C23.6165 -7.90665e-08 23.5472 0.013787 23.4826 0.0405725C23.418 0.067358 23.3593 0.106616 23.3099 0.156102C23.2605 0.205587 23.2213 0.264329 23.1947 0.328967C23.168 0.393604 23.1543 0.462869 23.1544 0.5328V8.2512C23.1544 8.7216 23.7304 8.96 24.062 8.6276ZM18.5896 15.9924C18.6196 15.8356 19.4168 13.8876 19.6696 13.1784C19.6696 13.1784 20.4596 15.0892 20.8396 15.9924H22.1436V10.9464H21.2044V14.5368L20.124 11.842H19.2748L18.1944 14.462V10.9464H17.2632V15.9924H18.5892H18.5896ZM23.976 10.9464L22.5604 16H23.6556L24.0208 14.7312H25.3096L25.6748 16H26.822L25.3916 10.9464H23.976ZM24.244 13.9396L24.6616 12.4916L25.0788 13.9396H24.244ZM35.7768 10.9464L34.3616 16H35.4564L35.8216 14.7312H37.1104L37.476 16H38.6232L37.1928 10.9464H35.7772H35.7768ZM36.0448 13.9396L36.4624 12.4916L36.8796 13.9396H36.0452H36.0448ZM32.4168 10.9464H31.0016V16H32.3424C33.84 16 34.3612 15.0744 34.3612 13.3724C34.354 11.7748 33.81 10.9464 32.4172 10.9464H32.4168ZM32.3276 15.2536H31.9772V11.6928H32.3352C33.1172 11.6928 33.3484 12.208 33.3484 13.3648C33.3484 14.7236 33.0876 15.2536 32.3276 15.2536ZM30.3904 15.2088V15.082H28.5132L30.2788 11.9916V10.9464H27.0976V11.9168H29.1092L27.0976 15.2236V15.9924H30.3904V15.2084V15.2088ZM41.536 10.9464H41.4164V13.768C41.3572 13.604 40.1872 10.9464 40.1872 10.9464H39.0624V16H40.046V13.096L41.4984 16H42.4V10.9464H41.536Z" fill="white"/>
</g>
<defs>
<clipPath id="clip0_1748_12233">
<rect width="46.4" height="16" fill="white"/>
</clipPath>
</defs>
</svg>
