<svg width="47" height="16" viewBox="0 0 47 16" fill="none" xmlns="http://www.w3.org/2000/svg">
<path d="M41.5832 0H4.82178V16H41.5832V0Z" fill="#1A212A"/>
<path d="M4.91715 6.18828C5.26539 6.53698 5.61362 6.88193 5.96045 7.23204C6.20045 7.47534 6.43668 7.72428 6.65174 7.94451C6.27292 8.33887 5.88609 8.74451 5.49409 9.14687C5.30351 9.34216 5.10915 9.53369 4.91668 9.7271L4.37598 10.2542V5.66028C4.5628 5.84193 4.73974 6.01651 4.91715 6.18875V6.18828ZM41.496 9.7464C41.25 9.49887 41.0036 9.25181 40.7567 9.00522C40.4235 8.67393 40.0922 8.3431 39.7572 8.01369C39.7129 7.97134 39.711 7.95016 39.7572 7.9064C40.3242 7.34734 40.888 6.78404 41.4536 6.2231C41.4687 6.20804 41.4819 6.19063 41.4974 6.17322L42.023 5.66216V10.2617C41.8386 10.0796 41.6668 9.91298 41.496 9.7464Z" fill="#F8E107"/>
<path d="M7.91814 11.1483C7.91814 10.2 7.91814 9.25226 7.91626 8.30449C7.91626 8.23155 7.9332 8.21038 8.00755 8.21038C9.1652 8.21273 10.3252 8.21273 11.4828 8.21038C11.544 8.21038 11.5784 8.22591 11.6104 8.28144C11.7953 8.60897 11.8753 8.9572 11.8734 9.33273C11.8697 10.2363 11.8753 11.1384 11.8772 12.0419C11.8772 12.2701 11.8504 12.4937 11.7803 12.7101C11.5534 13.4188 10.8565 14.0908 9.94026 14.0927C9.29697 14.0946 8.65085 14.0908 8.00755 14.0946C7.92944 14.0946 7.91626 14.072 7.91626 13.9991C7.92002 13.0513 7.92002 12.0998 7.91814 11.1478C7.92002 11.1478 7.91814 11.1478 7.91814 11.1478V11.1483ZM9.23767 10.6885H9.23579C9.23579 11.3487 9.23767 12.0094 9.23391 12.6701C9.23391 12.7388 9.24708 12.7643 9.32144 12.76C9.48708 12.7544 9.65085 12.7581 9.8165 12.7581C9.8965 12.7581 9.97461 12.7638 10.0527 12.7412C10.3539 12.6565 10.544 12.4 10.5459 12.073C10.5478 11.5807 10.5478 11.0904 10.5497 10.5981C10.5497 10.1732 10.5534 9.75014 10.5516 9.3252C10.5497 8.90167 10.2739 8.62402 9.85508 8.62402C9.67955 8.62402 9.50638 8.62779 9.33085 8.62214C9.25697 8.62026 9.23579 8.63955 9.23579 8.71626C9.23955 9.37508 9.23767 10.0316 9.23767 10.688V10.6885ZM7.91814 4.76002C7.91814 3.81226 7.92002 2.86449 7.91626 1.91673C7.91626 1.83626 7.93508 1.81885 8.0132 1.81885C8.59767 1.82261 9.18026 1.82073 9.7652 1.82073C10.2382 1.8207 10.6957 1.98976 11.055 2.2974C11.4144 2.60504 11.6519 3.03099 11.7247 3.49838C11.7459 3.62449 11.7459 3.75297 11.7459 3.87955C11.7459 4.78308 11.7478 5.6852 11.7497 6.58873C11.7497 6.96191 11.6659 7.31438 11.4716 7.63626C11.441 7.68614 11.4104 7.70497 11.3516 7.70497C10.2339 7.70308 9.11767 7.70308 8.00002 7.70685C7.91814 7.70685 7.91814 7.67438 7.91814 7.61273V4.76002ZM9.2245 5.2292C9.22638 5.2292 9.22638 5.2292 9.2245 5.2292C9.22638 5.88426 9.22826 6.53744 9.22261 7.19155C9.22261 7.28002 9.2452 7.29932 9.32708 7.29508C9.45273 7.28755 9.58073 7.2932 9.70826 7.2932C10.1346 7.2932 10.4127 7.01555 10.4127 6.58873C10.4127 6.28802 10.4108 5.9892 10.4108 5.68897C10.4108 5.08567 10.4071 4.48238 10.409 3.87908C10.4108 3.45085 10.1539 3.20332 9.84708 3.1652C9.67202 3.14214 9.49273 3.16144 9.31391 3.15344C9.23955 3.14967 9.21885 3.17085 9.21885 3.24755C9.22638 3.91014 9.2245 4.5685 9.2245 5.2292Z" fill="#FDFDFD"/>
<path d="M30.5091 10.2885C30.5091 10.9238 30.5171 11.5577 30.5072 12.1934C30.494 13.2099 29.5533 14.2231 28.3345 14.0852C27.3006 13.9685 26.5674 13.1262 26.5712 12.0805C26.5768 10.8226 26.5749 9.56662 26.5731 8.30827C26.5731 8.2165 26.5956 8.19345 26.6874 8.19345C27.0531 8.19909 27.4168 8.19909 27.7825 8.19345C27.8625 8.19156 27.8813 8.21462 27.8813 8.29321C27.8775 9.54733 27.8775 10.8014 27.8775 12.0556C27.8775 12.4038 28.062 12.657 28.3726 12.7412C28.7514 12.8429 29.1571 12.5633 29.1952 12.1704C29.1989 12.1266 29.1989 12.081 29.1989 12.0367C29.1989 10.792 29.2008 9.54733 29.1989 8.30262C29.1989 8.21462 29.222 8.19156 29.3095 8.19345C29.6771 8.19909 30.0465 8.19721 30.414 8.19345C30.4959 8.19156 30.5208 8.21086 30.5208 8.29698C30.5171 8.96145 30.5189 9.62403 30.5189 10.2885H30.5095H30.5091ZM26.5829 5.63345C26.5829 5.00145 26.5749 4.36992 26.5843 3.73792C26.598 2.84145 27.2832 2.03156 28.1575 1.85933C28.6467 1.75794 29.1562 1.84637 29.5826 2.10668C30.0091 2.367 30.3206 2.77974 30.454 3.26121C30.5114 3.46027 30.5283 3.66686 30.5265 3.8758C30.5227 4.64145 30.5227 5.40756 30.5227 6.17321C30.5227 6.64615 30.5189 7.11721 30.5227 7.59015C30.5227 7.67862 30.4959 7.69368 30.4159 7.69368C30.0446 7.68992 29.6733 7.68992 29.302 7.69368C29.222 7.69368 29.2032 7.6725 29.2032 7.59439C29.2069 6.35909 29.2069 5.1238 29.2088 3.88898C29.2088 3.65745 29.1495 3.45039 28.9627 3.30309C28.7495 3.13462 28.5114 3.10215 28.2662 3.22074C28.0126 3.34309 27.8832 3.55768 27.8832 3.84286C27.8813 4.50356 27.8813 5.16427 27.8813 5.82498C27.8813 6.41462 27.8794 7.00615 27.8832 7.59627C27.8832 7.67627 27.862 7.69556 27.7843 7.69556C27.416 7.69078 27.0477 7.69078 26.6794 7.69556C26.59 7.69745 26.5768 7.66733 26.5787 7.58639C26.5825 6.93556 26.5806 6.28427 26.5806 5.63345H26.5825H26.5829ZM23.0272 8.19533H23.1396C23.7966 8.19533 24.4535 8.19721 25.1105 8.19345C25.1754 8.19345 25.2149 8.21227 25.2531 8.26215C25.5331 8.63392 25.6968 9.05274 25.7674 9.51062C25.8549 10.0753 25.7956 10.6447 25.8074 11.2109C25.8131 11.5271 25.8187 11.8429 25.8018 12.1591C25.7561 12.9977 25.3448 13.6123 24.5848 13.9379C23.4229 14.4377 22.2159 13.7309 21.9246 12.624C21.8789 12.4511 21.8577 12.2725 21.8615 12.0937C21.8653 11.8104 21.8653 11.5252 21.8634 11.2419C21.8634 11.1746 21.8808 11.1558 21.9472 11.1572C22.3321 11.1614 22.7147 11.1614 23.0996 11.1572C23.1754 11.1572 23.1872 11.1822 23.1834 11.2494C23.1733 11.5141 23.167 11.7789 23.1646 12.0438C23.1622 12.3026 23.2498 12.5191 23.4785 12.6603C23.9029 12.9229 24.4742 12.6339 24.4855 12.1323C24.4992 11.4946 24.5218 10.8551 24.4667 10.2193C24.4173 9.62968 24.1641 9.13368 23.7011 8.75439C23.4822 8.57839 23.2672 8.39674 23.0272 8.19533ZM24.6229 7.67627C24.5848 7.70121 24.5523 7.6918 24.5241 7.6918C23.8728 7.6918 23.2234 7.6918 22.5721 7.69368C22.5427 7.69549 22.5132 7.68953 22.4868 7.6764C22.4604 7.66327 22.4379 7.64343 22.4215 7.61886C22.1453 7.2438 21.9933 6.82074 21.9227 6.36286C21.8596 5.96286 21.8883 5.5605 21.8865 5.1605C21.8846 4.67203 21.8789 4.18403 21.8978 3.69556C21.9321 2.81274 22.6121 2.02968 23.4709 1.85933C23.9536 1.75919 24.4563 1.84417 24.8793 2.0974C25.3022 2.35063 25.6145 2.75362 25.7542 3.22639C25.8131 3.42168 25.838 3.62497 25.8361 3.82968C25.8323 4.11109 25.83 4.39062 25.8323 4.67203C25.8323 4.73133 25.8206 4.75439 25.7542 4.75439C25.3636 4.75062 24.9731 4.7525 24.5825 4.75439C24.5241 4.75439 24.5086 4.73745 24.5086 4.67956C24.5105 4.37933 24.5161 4.0805 24.5067 3.7798C24.5037 3.61567 24.4371 3.45911 24.321 3.34307C24.2049 3.22704 24.0482 3.16058 23.8841 3.15768C23.5316 3.14968 23.2272 3.40662 23.2098 3.7605C23.1909 4.15533 23.1985 4.55109 23.1947 4.9478C23.1928 5.22168 23.1834 5.49556 23.2253 5.76945C23.3109 6.35533 23.5848 6.82827 24.0441 7.19768C24.2399 7.35109 24.4286 7.51345 24.6229 7.67627Z" fill="#F8E107"/>
<path d="M12.8254 11.1364C12.8254 10.1887 12.8273 9.24089 12.8235 8.29265C12.8235 8.21265 12.8447 8.19336 12.9224 8.19336C14.0024 8.19524 15.0805 8.19524 16.16 8.19336C16.2419 8.19336 16.2631 8.21642 16.2551 8.29454C16.2478 8.37749 16.2471 8.46089 16.2532 8.54395C16.2588 8.61265 16.2344 8.62771 16.1675 8.6263C15.5261 8.62207 14.8861 8.6263 14.2442 8.62207C14.1661 8.62207 14.1435 8.63948 14.1435 8.71995C14.1454 10.0315 14.1454 11.343 14.1416 12.6545C14.1416 12.735 14.1567 12.7599 14.2424 12.7599C14.8842 12.7581 15.5238 12.7637 16.1656 12.7618C16.2438 12.7618 16.2588 12.7854 16.2588 12.8578C16.2513 13.2465 16.2475 13.6371 16.2456 14.0258C16.2456 14.0776 16.2344 14.0964 16.1793 14.0964C15.0842 14.0945 13.9892 14.0927 12.8941 14.0964C12.8085 14.0964 12.8235 14.0489 12.8235 14.0009C12.8235 13.0456 12.8235 12.0903 12.8254 11.1364C12.8254 11.1364 12.8235 11.1364 12.8254 11.1364Z" fill="#FDFDFD"/>
<path d="M31.4067 4.74865C31.4067 3.80654 31.4081 2.8663 31.4043 1.92418C31.4043 1.84183 31.4199 1.81689 31.5074 1.81924C32.5944 1.82301 33.6839 1.82112 34.7714 1.81924C34.8495 1.81924 34.8721 1.83618 34.8702 1.91665C34.8648 2.29953 34.8642 2.68246 34.8683 3.06536C34.8683 3.14583 34.842 3.15759 34.7714 3.15759C34.1239 3.15571 33.4763 3.15948 32.8288 3.15571C32.7469 3.15571 32.7319 3.17877 32.7319 3.25689C32.7337 4.56889 32.7337 5.88042 32.73 7.19006C32.73 7.2743 32.7488 7.29548 32.8344 7.29548C33.4782 7.29171 34.122 7.29359 34.7676 7.28983C34.8457 7.28983 34.874 7.30865 34.8664 7.38912C34.8598 7.46238 34.8598 7.5361 34.8664 7.60936C34.8721 7.67806 34.8476 7.69407 34.7808 7.69407C34.3526 7.69171 33.9243 7.69171 33.4956 7.69171C32.8344 7.69171 32.1756 7.68983 31.5149 7.69359C31.4255 7.69359 31.3987 7.67618 31.3987 7.58065C31.4024 6.63665 31.4006 5.69265 31.4006 4.74677L31.4062 4.74865H31.4067Z" fill="#F8E107"/>
<path d="M12.8279 4.75438C12.8279 3.81038 12.8279 2.86449 12.8255 1.92049C12.8255 1.84567 12.8373 1.81885 12.9211 1.81885C14.0006 1.82261 15.0782 1.82261 16.1582 1.82073C16.2382 1.82073 16.2495 1.84755 16.2477 1.91673C16.2439 2.29979 16.2439 2.68238 16.2458 3.06544C16.2458 3.14026 16.2288 3.16144 16.1526 3.15955C15.5107 3.15532 14.8707 3.15767 14.2293 3.15532C14.1568 3.15532 14.1338 3.17085 14.1338 3.24755C14.1357 4.5652 14.1357 5.88238 14.1319 7.20144C14.1319 7.28191 14.1568 7.2932 14.2293 7.2932C14.8726 7.29132 15.5187 7.2932 16.162 7.28944C16.242 7.28944 16.2726 7.31061 16.259 7.3892C16.2552 7.41979 16.2571 7.45226 16.2571 7.48473C16.2552 7.68991 16.2552 7.68991 16.0477 7.68991C15.0062 7.68991 13.9662 7.68802 12.9248 7.69179C12.8354 7.69179 12.8218 7.66497 12.8218 7.58449C12.8237 6.64049 12.8237 5.69461 12.8237 4.75061C12.8255 4.75438 12.8274 4.75438 12.8274 4.75438H12.8279Z" fill="#FDFDFD"/>
<path d="M38.0047 5.43058C38.0047 6.15199 38.0028 6.87199 38.0065 7.59387C38.0065 7.67434 37.9858 7.69552 37.9058 7.69364C37.5289 7.68987 37.1496 7.68987 36.7727 7.69364C36.6927 7.69552 36.6738 7.67246 36.6738 7.59387C36.6757 6.15199 36.6757 4.71011 36.6795 3.2687C36.6795 3.17458 36.6545 3.1534 36.5651 3.15576C36.1901 3.1614 35.8169 3.15764 35.4414 3.15952C35.375 3.15952 35.3557 3.14211 35.3557 3.07481C35.3595 2.68281 35.3614 2.28987 35.3576 1.8974C35.3576 1.83246 35.3788 1.82117 35.4376 1.82117C36.6658 1.82305 37.8941 1.82305 39.1209 1.82117C39.1854 1.82117 39.199 1.83999 39.199 1.90117C39.1952 2.29411 39.1929 2.68658 39.1952 3.07905C39.1952 3.14211 39.1778 3.15905 39.1152 3.15905C38.7764 3.15764 38.4352 3.1614 38.0964 3.15764C38.0221 3.15764 38.0009 3.17458 38.0009 3.25128C38.0065 3.97693 38.0065 4.70446 38.0047 5.43011V5.43058Z" fill="#F8E107"/>
<path d="M19.809 5.42113C19.809 6.14442 19.8071 6.86819 19.8108 7.59195C19.8108 7.67054 19.792 7.6936 19.712 7.69172C19.3374 7.68694 18.9628 7.68694 18.5883 7.69172C18.5007 7.6936 18.4871 7.6649 18.4871 7.58442C18.4908 6.14254 18.489 4.70066 18.4927 3.25878C18.4927 3.17878 18.4796 3.15148 18.392 3.15384C18.0108 3.15948 17.6301 3.15572 17.2494 3.1576C17.1883 3.1576 17.1694 3.14207 17.1694 3.07901C17.1732 2.68654 17.1751 2.29407 17.1713 1.90113C17.1713 1.83242 17.1939 1.81925 17.257 1.81925C18.4758 1.82113 19.6927 1.81925 20.9116 1.81689C20.9779 1.81689 21.0047 1.82489 21.0028 1.90348C20.9972 2.28984 20.9953 2.67525 20.9972 3.0616C20.9972 3.13642 20.976 3.1576 20.8998 3.15572C20.5666 3.15195 20.2334 3.1576 19.9003 3.15384C19.8259 3.15384 19.8047 3.17078 19.8047 3.24748C19.8127 3.97313 19.8108 4.69689 19.809 5.42066C19.8108 5.42066 19.8108 5.42066 19.809 5.42066V5.42113Z" fill="#FDFDFD"/>
<path d="M31.4044 11.1364C31.4044 10.1887 31.4068 9.24089 31.4025 8.29501C31.4025 8.21642 31.4213 8.19524 31.5013 8.19524C32.5931 8.19712 33.6839 8.19712 34.7752 8.19524C34.8458 8.19524 34.8783 8.20842 34.8708 8.28701C34.8641 8.37001 34.8641 8.45341 34.8708 8.53642C34.8764 8.60889 34.8533 8.62583 34.7813 8.62583C34.1489 8.62395 33.5183 8.62583 32.8863 8.62583C32.7395 8.62583 32.7395 8.62583 32.7395 8.76983C32.7376 10.5082 32.7338 12.247 32.7357 13.9854C32.7357 14.0795 32.7108 14.1007 32.6213 14.0983C32.2438 14.0935 31.8662 14.0935 31.4886 14.0983C31.4162 14.0983 31.4006 14.0776 31.4006 14.0089C31.4044 13.0489 31.4044 12.0936 31.4044 11.1364ZM36.6773 11.1364C36.6773 10.1887 36.6797 9.24089 36.6759 8.29312C36.6759 8.21454 36.6948 8.19336 36.7748 8.19336C37.1498 8.19712 37.523 8.19712 37.8985 8.19336C37.9823 8.19148 38.0086 8.21077 38.0086 8.30065C38.0053 9.80748 38.0053 11.3124 38.0053 12.8197C38.0053 13.2159 38.003 13.6103 38.0072 14.0065C38.0072 14.0771 37.9898 14.0969 37.9178 14.0969C37.5366 14.0927 37.1555 14.0927 36.7748 14.0969C36.6966 14.0969 36.6759 14.0795 36.6759 13.999C36.6778 13.0456 36.6759 12.0898 36.6778 11.1364H36.6773Z" fill="#F8E107"/>
<path d="M19.8053 11.1558C19.8053 12.1036 19.8034 13.0513 19.8072 13.9991C19.8072 14.0815 19.7841 14.0965 19.7083 14.0965C19.3309 14.0928 18.9521 14.0928 18.5752 14.0965C18.5102 14.0965 18.4834 14.089 18.4834 14.0104C18.4872 12.0998 18.489 10.1888 18.4872 8.2777C18.4872 8.21088 18.5046 8.19299 18.5709 8.19299C18.9559 8.19723 19.3385 8.19723 19.7234 8.19299C19.7977 8.19299 19.8109 8.21652 19.8109 8.28335C19.809 9.24099 19.809 10.1986 19.809 11.1558H19.8053Z" fill="#FDFDFD"/>
<path d="M9.23819 10.6884C9.23819 10.0315 9.2396 9.37266 9.23583 8.71619C9.23583 8.63949 9.25701 8.62019 9.33136 8.62207C9.50642 8.62819 9.6796 8.62443 9.85513 8.62443C10.274 8.62443 10.5516 8.89972 10.5516 9.32513C10.554 9.75007 10.5502 10.1731 10.5502 10.5985C10.5483 11.0903 10.5483 11.5807 10.5464 12.0729C10.5441 12.4 10.3535 12.6564 10.0528 12.7411C9.97513 12.7618 9.89513 12.7562 9.81701 12.7581C9.65136 12.76 9.4876 12.7543 9.32148 12.76C9.2476 12.7642 9.23395 12.7393 9.23395 12.6705C9.23583 12.0094 9.23583 11.3491 9.23583 10.6884H9.23819ZM9.22454 5.22913C9.22454 4.56843 9.22642 3.90819 9.22266 3.24749C9.22266 3.17078 9.24336 3.1496 9.31772 3.15337C9.49513 3.16137 9.67583 3.14207 9.85089 3.16513C10.1577 3.20513 10.4147 3.45031 10.4128 3.87949C10.4109 4.48231 10.4128 5.0856 10.4147 5.6889C10.4147 5.9896 10.4165 6.28796 10.4165 6.58866C10.4147 7.01549 10.1365 7.29125 9.71207 7.29313C9.58454 7.29313 9.45889 7.28749 9.33089 7.29549C9.24901 7.30113 9.22454 7.27996 9.22642 7.19196C9.2283 6.5369 9.22642 5.88372 9.22454 5.2296C9.22642 5.2296 9.22642 5.2296 9.22454 5.2296V5.22913Z" fill="#010100"/>
</svg>
