<svg width="47" height="16" viewBox="0 0 47 16" fill="none" xmlns="http://www.w3.org/2000/svg">
<path fill-rule="evenodd" clip-rule="evenodd" d="M1.82041 3.51937C1.89751 3.49473 1.92701 3.45413 1.95342 3.41778L1.95343 3.41778C1.96081 3.40762 1.96795 3.39779 1.97583 3.38873C2.4119 2.85446 2.96689 2.56705 3.65163 2.53011C4.29447 2.49858 4.88596 2.64543 5.39951 3.05357C5.72071 3.3099 5.97478 3.62884 6.17705 3.99013C6.44689 4.47666 6.59735 5.00507 6.65907 5.56007C6.72664 6.16147 6.72169 6.76332 6.61267 7.35976C6.51942 7.88322 6.33787 8.37515 6.04731 8.81933C5.79991 9.21858 5.42832 9.52561 4.98957 9.69327C4.40349 9.92888 3.79128 10.0176 3.16376 9.98158C2.42226 9.93428 1.73752 9.70408 1.09963 9.32207C0.721227 9.09683 0.461747 8.76752 0.290563 8.36434C0.0833397 7.88367 0.00540582 7.37012 0.00540582 6.84756C0 5.9993 0 5.15689 0 4.30953C0 3.16349 0 2.01746 0.00540582 0.871424C0.00540582 0.798445 0.00540582 0.71961 0.0103612 0.646181C0.0103612 0.599331 0.0418951 0.573202 0.0882951 0.568247H0.160373C0.247268 0.568247 0.333458 0.568801 0.419398 0.569353C0.59053 0.570453 0.76067 0.571546 0.933405 0.568247C1.32262 0.557436 1.77897 0.892596 1.81545 1.42102C1.82041 1.49399 1.82041 1.57283 1.82041 1.64625V1.64626V3.51892V3.51937ZM1.83618 6.26643C1.83618 6.31342 1.83558 6.36045 1.83498 6.4075C1.83377 6.50165 1.83257 6.59587 1.83618 6.68989C1.8569 6.9827 1.90825 7.27101 2.02268 7.54311C2.19927 7.9562 2.48938 8.24947 2.93041 8.36975C3.10654 8.41705 3.2935 8.41705 3.47504 8.40624C3.92102 8.3747 4.26339 8.16568 4.50215 7.78907C4.66793 7.52193 4.76118 7.22912 4.80803 6.92054C4.85443 6.6115 4.87019 6.30292 4.85443 5.99434C4.83911 5.66458 4.78685 5.34564 4.65216 5.04201C4.42421 4.53432 4.06653 4.1888 3.49036 4.1469C3.00293 4.11086 2.57227 4.24646 2.25107 4.64919C2.14746 4.77983 2.06953 4.92669 2.00736 5.08346C1.8569 5.46592 1.81545 5.86325 1.83618 6.26643ZM20.2011 6.76332H18.1636C17.8772 6.76332 17.8772 6.76332 17.905 7.02027L17.9095 7.06154C17.9509 7.40706 18.0545 7.726 18.2879 7.99855C18.4537 8.18685 18.6564 8.31209 18.8947 8.36975C19.1776 8.43776 19.4726 8.43776 19.7556 8.36975C19.9889 8.31209 20.1966 8.21298 20.3471 8.01927C20.5804 7.71564 20.8813 7.62149 21.2444 7.64221C21.4559 7.6535 21.6699 7.6514 21.8848 7.64929H21.8848C21.9702 7.64846 22.0558 7.64762 22.1413 7.64762C22.2089 7.64762 22.2765 7.64762 22.3387 7.65303C22.3851 7.65798 22.4062 7.69492 22.3954 7.74177C22.3914 7.76709 22.384 7.7924 22.3758 7.82005L22.3697 7.84088C22.0634 8.80942 21.4413 9.47389 20.4867 9.79823C19.7556 10.0496 19.0037 10.0649 18.2568 9.87662C17.3234 9.63606 16.6905 9.03962 16.317 8.15532C16.1512 7.7679 16.0629 7.35976 16.0215 6.94126C15.9679 6.442 15.9714 5.93826 16.0319 5.43979C16.1044 4.87984 16.2598 4.34601 16.5661 3.86445C17.0171 3.15268 17.6707 2.74499 18.4852 2.59858C19.0426 2.49896 19.6145 2.51491 20.1655 2.64543C20.6998 2.77112 21.1818 3.01168 21.571 3.40405C21.8774 3.71263 22.0846 4.07888 22.2346 4.48206C22.4161 4.95822 22.4941 5.45015 22.5148 5.95244C22.5226 6.1224 22.5217 6.29209 22.5208 6.46405V6.4644C22.5205 6.52023 22.5202 6.57629 22.5202 6.63268C22.5202 6.73719 22.4887 6.76332 22.3851 6.77368C22.3476 6.77725 22.3099 6.7761 22.2707 6.77491L22.2707 6.77491C22.2506 6.7743 22.23 6.77368 22.2089 6.77368C21.5449 6.76332 20.871 6.76332 20.2016 6.76332H20.2016H20.2011ZM18.0661 5.54437C18.0032 5.54646 17.9391 5.54859 17.8775 5.50198C17.9037 5.08365 18.0074 4.7018 18.3343 4.41359C18.5046 4.26624 18.71 4.16538 18.9307 4.12077C19.2087 4.06465 19.4966 4.08267 19.7655 4.17303C20.0403 4.26222 20.243 4.44017 20.3826 4.69109C20.4623 4.83802 20.5167 4.99731 20.5435 5.16229C20.5523 5.22308 20.5611 5.27431 20.5685 5.31747C20.5879 5.43023 20.5978 5.48792 20.5735 5.51706C20.5481 5.54758 20.4851 5.5468 20.3561 5.54519C20.3228 5.54478 20.2851 5.54431 20.2425 5.54431H18.132C18.1103 5.5429 18.0883 5.54363 18.0661 5.54437ZM9.43942 5.14652V3.01167V2.83373C9.44437 2.71345 9.46014 2.69273 9.58988 2.69273H11.1562C11.2805 2.69273 11.2909 2.71345 11.2959 2.84454V2.99591C11.2987 3.71674 11.3 4.43746 11.3014 5.15818V5.15819C11.3026 5.81888 11.3039 6.47957 11.3062 7.14037C11.3062 7.26605 11.3116 7.39129 11.3274 7.51697C11.3634 7.93052 11.5864 8.21838 11.9599 8.37515C12.468 8.58958 12.9509 8.52696 13.3969 8.20261C13.6506 8.01926 13.7492 7.74176 13.7803 7.44399C13.7907 7.32867 13.7907 7.20839 13.7907 7.09307C13.7907 6.53582 13.792 5.97992 13.7934 5.42402C13.7947 4.86812 13.7961 4.31222 13.7961 3.75497C13.7961 3.73358 13.7957 3.71218 13.7954 3.69079C13.7943 3.62839 13.7933 3.566 13.801 3.5036C13.8371 3.07474 14.1641 2.72922 14.5894 2.70309C14.8043 2.68855 15.0191 2.69175 15.2338 2.69496C15.325 2.69632 15.4162 2.69768 15.5075 2.69768C15.5957 2.69768 15.6165 2.72381 15.6214 2.82382V2.94905C15.6214 4.27799 15.6214 5.61232 15.6268 6.94125C15.6268 7.29218 15.5953 7.64266 15.5282 7.98773C15.4606 8.31748 15.3466 8.63192 15.1547 8.90897C15.0196 9.10268 14.8592 9.26981 14.6515 9.39009C13.6663 9.96581 12.6239 10.1438 11.5139 9.84057C11.1449 9.73932 10.7909 9.58966 10.4611 9.3955C10.0408 9.15494 9.78674 8.78329 9.63132 8.33866C9.48582 7.92511 9.43401 7.49084 9.43401 7.05658C9.43401 6.42365 9.43401 5.78486 9.43942 5.14652ZM7.11586 0.866015V5.18301C7.11045 5.18301 7.10549 5.18301 7.10009 5.17761V9.54686C7.10009 9.62029 7.10009 9.69868 7.10549 9.7721C7.10749 9.78938 7.11524 9.80548 7.1275 9.81782C7.13975 9.83016 7.1558 9.83802 7.17307 9.84013C7.23478 9.85049 7.30236 9.85049 7.36993 9.85049H8.68715C8.84334 9.85049 8.91614 9.85433 8.94982 9.81989C8.98442 9.78451 8.97771 9.70873 8.97771 9.54686C8.97771 6.91513 8.97771 4.27754 8.97276 1.6404C8.97276 1.62005 8.97305 1.59967 8.97335 1.57927C8.97426 1.51614 8.97518 1.45281 8.96735 1.38948C8.93627 1.06513 8.77049 0.829526 8.47992 0.682668C8.34478 0.615095 8.19972 0.583561 8.04971 0.583561H7.40101C7.24034 0.583561 7.16906 0.582321 7.13794 0.617059C7.10685 0.651764 7.11586 0.722378 7.11586 0.866015Z" fill="#23AEE5"/>
<path fill-rule="evenodd" clip-rule="evenodd" d="M29.8427 6.33398V7.76788C29.8427 8.05033 29.8427 8.33819 29.8377 8.62064V9.72523C29.8377 9.84011 29.8531 9.85588 29.967 9.85588H31.5595C31.6631 9.85588 31.7149 9.85047 31.7046 9.71442V6.19794C31.7011 6.00486 31.7187 5.81197 31.7568 5.62267C31.8654 5.11002 32.1713 4.78026 32.6848 4.65998C32.8718 4.61809 33.0637 4.60232 33.2556 4.60232C33.3072 4.60232 33.3594 4.60287 33.4118 4.60341C33.5172 4.60452 33.6234 4.60563 33.7272 4.60232C33.8313 4.60232 33.8466 4.58655 33.8466 4.48699V2.82831C33.8466 2.70803 33.8363 2.69271 33.7223 2.69271C33.1101 2.6819 32.5141 2.75533 31.933 2.95399C31.5906 3.07427 31.264 3.24185 30.9788 3.47746C30.4396 3.92704 30.1229 4.50817 29.9621 5.1884C29.8742 5.56501 29.8427 5.94702 29.8427 6.33398ZM34.3967 2.92291V6.261V9.54684C34.3967 9.56751 34.3961 9.58871 34.3955 9.61027C34.3943 9.65449 34.393 9.70023 34.3967 9.74596C34.3967 9.82434 34.4223 9.85047 34.5052 9.85047H36.1495C36.2427 9.85047 36.2639 9.82975 36.2684 9.7356V3.75946C36.2684 3.73916 36.269 3.71818 36.2696 3.69678C36.2708 3.65266 36.2721 3.60675 36.2684 3.56125C36.2585 3.39907 36.222 3.24726 36.1288 3.11076C35.9418 2.83371 35.6828 2.69226 35.3508 2.68731H34.63C34.3949 2.68731 34.395 2.70076 34.3964 2.87602C34.3965 2.89052 34.3967 2.90612 34.3967 2.92291ZM35.3391 14.0664C35.3273 14.1022 35.3156 14.1376 35.2625 14.1684V14.1679C35.2539 14.147 35.2452 14.1272 35.2365 14.1073C35.2192 14.068 35.2019 14.0284 35.1846 13.9796C35.0141 13.4731 34.8412 12.9673 34.666 12.4624C34.6396 12.3857 34.6131 12.3088 34.5866 12.2317C34.4936 11.9616 34.4 11.6897 34.303 11.4209C34.2566 11.2902 34.2511 11.2848 34.1061 11.2848H33.4835C33.3438 11.2848 33.2765 11.2771 33.244 11.3071C33.2115 11.3371 33.2141 11.4051 33.2141 11.5569V15.0734V15.2257C33.2191 15.3094 33.2398 15.3356 33.3177 15.3356H33.8155C33.831 15.3356 33.8477 15.3342 33.8645 15.3329C33.8814 15.3315 33.8984 15.3302 33.9142 15.3302C33.9606 15.3252 33.9921 15.2986 33.9921 15.2518C33.9954 15.2168 33.9943 15.1845 33.9932 15.1514C33.9927 15.1346 33.9921 15.1176 33.9921 15.1C33.9894 14.7781 33.9855 14.4563 33.9815 14.1345C33.9776 13.8128 33.9736 13.491 33.9709 13.1692C33.9709 13.0967 33.9697 13.0228 33.9685 12.9482C33.9673 12.8723 33.966 12.7958 33.966 12.7192C33.9681 12.6953 33.9751 12.6721 33.9867 12.6511C33.9921 12.6408 34.0232 12.6408 34.0282 12.6462C34.0338 12.6575 34.0399 12.6689 34.0461 12.6804C34.0624 12.711 34.0792 12.7425 34.0903 12.7768L34.6818 14.4824C34.7647 14.7283 34.8476 14.9693 34.9359 15.2148C34.9773 15.3356 34.9877 15.3405 35.1174 15.3405H35.4391C35.5634 15.3405 35.5738 15.3356 35.6152 15.2099L36.0819 13.8598C36.1443 13.6818 36.2052 13.5039 36.2662 13.3259C36.3271 13.148 36.388 12.9701 36.4504 12.7921C36.4608 12.7561 36.4815 12.7088 36.5333 12.7246C36.5698 12.7399 36.5748 12.7768 36.5748 12.8084V13.007C36.5722 13.3349 36.5684 13.6627 36.5647 13.9906C36.5607 14.3482 36.5566 14.7058 36.554 15.0635C36.5486 15.1261 36.5486 15.1837 36.5486 15.2409V15.241C36.5486 15.304 36.5802 15.3356 36.6374 15.3356H37.187C37.3162 15.3356 37.3271 15.3198 37.3316 15.1941V11.4844L37.3316 11.484C37.3271 11.301 37.3269 11.2961 37.1559 11.2961H36.4608C36.4451 11.2961 36.4311 11.2959 36.4184 11.2957C36.3047 11.2939 36.2986 11.2938 36.2378 11.4632C36.2294 11.4855 36.2225 11.5064 36.2157 11.5273C36.2096 11.5458 36.2035 11.5643 36.1963 11.5839C35.9161 12.4052 35.631 13.2269 35.3454 14.0481C35.3431 14.0542 35.3411 14.0603 35.3391 14.0664ZM29.4747 13.1949H28.3282V13.1953C28.0173 13.1953 27.7006 13.1953 27.374 13.1899C27.3537 13.1899 27.3328 13.1893 27.3115 13.1887C27.2677 13.1875 27.2222 13.1863 27.1767 13.1899C27.0889 13.1899 27.0628 13.2106 27.0628 13.2895C27.0595 13.4009 27.0606 13.5125 27.0617 13.6241C27.0622 13.68 27.0628 13.7359 27.0628 13.7918C27.0628 13.8386 27.0992 13.8647 27.1456 13.8647H27.4673C27.82 13.8701 28.1673 13.8701 28.5151 13.8701C28.5931 13.8701 28.6187 13.9174 28.5827 13.985C28.5813 13.993 28.5776 14.0004 28.5719 14.0062C28.152 14.7071 27.3686 14.7071 26.9227 14.4459C26.456 14.1738 26.2176 13.6503 26.3055 13.1007C26.4402 12.2583 27.3065 11.793 28.0588 12.1538C28.1791 12.2124 28.2879 12.2922 28.38 12.3894C28.4045 12.4176 28.4348 12.4403 28.4688 12.4556C28.5029 12.471 28.5399 12.4789 28.5773 12.4786H29.2981C29.3656 12.4786 29.3918 12.4363 29.3656 12.384C29.1994 12.0335 28.9764 11.7249 28.6395 11.5155C28.0849 11.1753 27.4934 11.1546 26.8866 11.3218C26.6636 11.3848 26.456 11.4947 26.2744 11.6461C25.6262 12.1853 25.341 12.8705 25.4915 13.7129C25.6262 14.4562 26.0514 14.995 26.7461 15.2775C27.5867 15.6176 28.7534 15.4239 29.3499 14.3202C29.5211 14.0008 29.5886 13.6607 29.5783 13.3048C29.5729 13.2264 29.5521 13.2003 29.4747 13.1949ZM46.289 13.1949H45.143V13.1953C44.811 13.1953 44.479 13.1953 44.1524 13.2057C44.1313 13.2057 44.1107 13.2051 44.0906 13.2044C44.0514 13.2033 44.0136 13.2021 43.9758 13.2057C43.9294 13.2057 43.8978 13.2368 43.8978 13.2841V13.7864C43.8978 13.8701 43.9136 13.8805 44.0069 13.8805H44.7799C44.8731 13.8832 44.9677 13.8832 45.063 13.8832C45.1583 13.8832 45.2542 13.8832 45.3502 13.8859C45.4281 13.8859 45.4434 13.9278 45.4074 14.0008C45.4046 14.0036 45.4033 14.0077 45.4019 14.0118C45.4007 14.0156 45.3994 14.0193 45.397 14.022C44.9767 14.7126 44.1834 14.718 43.7424 14.4508C43.4555 14.2802 43.245 14.006 43.1543 13.6847C43.0636 13.3634 43.0996 13.0196 43.255 12.7241C43.4829 12.2844 43.8514 12.0389 44.3596 12.0439C44.6812 12.0439 44.9614 12.1538 45.1894 12.3844L45.1903 12.3852C45.2471 12.4367 45.2988 12.4836 45.3813 12.4836C45.6304 12.4781 45.8795 12.4781 46.1282 12.4781C46.1904 12.4781 46.2165 12.4363 46.1904 12.379C46.0295 12.0439 45.8169 11.7457 45.5007 11.5416C44.9358 11.1808 44.3339 11.1546 43.7059 11.3272C43.4728 11.3929 43.2569 11.509 43.0734 11.6673C42.4459 12.2011 42.1657 12.8759 42.3112 13.6976C42.4459 14.477 42.8865 15.0369 43.623 15.3036C44.624 15.6649 45.8016 15.2775 46.2787 14.09C46.3773 13.8386 46.4084 13.5719 46.398 13.2998C46.398 13.2214 46.3719 13.2003 46.289 13.1949ZM41.9635 11.301H41.331H41.3305C41.2855 11.3758 41.2892 11.4471 41.2927 11.5128C41.2936 11.5298 41.2945 11.5465 41.2945 11.5628V13.6715C41.2945 13.6786 41.2953 13.6864 41.2961 13.6943C41.2994 13.7268 41.3031 13.7623 41.253 13.771C41.2197 13.7747 41.2065 13.7485 41.1943 13.7245C41.1914 13.7187 41.1885 13.7131 41.1855 13.708C41.1494 13.6557 41.1129 13.5981 41.0764 13.5404C40.9237 13.3026 40.771 13.0642 40.6179 12.8254C40.3399 12.3914 40.0609 11.9561 39.78 11.5209C39.6894 11.381 39.6591 11.3282 39.6144 11.3092C39.5721 11.2912 39.5169 11.3034 39.3858 11.301H39.0385C38.8983 11.301 38.8929 11.3114 38.888 11.4632V11.5623V15.0995V15.2513C38.888 15.3194 38.924 15.3459 38.9812 15.3459H39.4534C39.666 15.3459 39.666 15.3459 39.666 15.1207V12.8606C39.666 12.8579 39.6659 12.8552 39.6658 12.8523C39.6652 12.833 39.6645 12.8113 39.6917 12.7975C39.7271 12.7822 39.743 12.8065 39.7534 12.8223L39.7543 12.8237C39.9017 13.0586 40.0491 13.2945 40.1967 13.5306C40.381 13.8255 40.5654 14.1206 40.7498 14.4139C40.8327 14.5475 40.917 14.6823 41.0012 14.8171C41.0855 14.9519 41.1697 15.0867 41.2526 15.2203L41.2532 15.2212C41.2949 15.2835 41.3364 15.3455 41.4238 15.3455H41.9689C42.0207 15.3455 42.0621 15.3198 42.0621 15.2567V11.3898C42.0567 11.3272 42.0207 11.301 41.9635 11.301ZM32.2803 15.3459H32.5812C32.6178 15.3459 32.6543 15.3465 32.6906 15.347C32.7625 15.3481 32.8335 15.3492 32.9024 15.3459C32.97 15.3459 32.9907 15.3198 32.97 15.2567C32.9601 15.2202 32.9443 15.1784 32.9285 15.1419C32.5654 14.1738 32.1974 13.2061 31.8289 12.2376C31.7871 12.1258 31.7444 12.0148 31.7019 11.9043C31.6391 11.741 31.5766 11.5787 31.5181 11.4164C31.487 11.3326 31.4401 11.3015 31.3518 11.3015C31.2068 11.306 31.0667 11.306 30.9266 11.3015C30.8284 11.2961 30.7815 11.3429 30.745 11.4321C30.6054 11.8038 30.4599 12.1804 30.3148 12.5516C30.0956 13.1115 29.8808 13.6717 29.6661 14.2317C29.6421 14.2944 29.6181 14.3571 29.594 14.4197C29.5443 14.5499 29.4934 14.68 29.4425 14.8101C29.3869 14.9521 29.3314 15.0941 29.2773 15.236C29.2467 15.3144 29.267 15.3459 29.3503 15.3459H29.8999C30.0504 15.3459 30.0553 15.3405 30.1121 15.1941L30.3148 14.6292C30.3459 14.5504 30.3873 14.5035 30.4756 14.5035H31.746C31.8293 14.5035 31.8708 14.54 31.8911 14.613L31.9226 14.7076C31.95 14.7797 31.9781 14.8518 32.0064 14.9243C32.0478 15.0306 32.0896 15.1378 32.1298 15.2468C32.1559 15.3198 32.2077 15.3459 32.2803 15.3459ZM31.5589 13.7232C31.5573 13.7315 31.5555 13.7403 31.5541 13.7499H30.7347C30.6779 13.7499 30.6572 13.7084 30.6779 13.6454L30.7869 13.3629C30.8335 13.2372 30.8802 13.1129 30.9268 12.9886C30.9734 12.8642 31.02 12.7399 31.0667 12.6142C31.0775 12.5782 31.0928 12.5358 31.1496 12.5151C31.2171 12.7061 31.2859 12.8984 31.3546 13.0907C31.4233 13.2829 31.4919 13.4751 31.5595 13.6661C31.5672 13.6814 31.5635 13.6999 31.5589 13.7232ZM38.4213 11.301H37.7208C37.7208 11.406 37.7208 11.4686 37.7262 11.5366V15.1261V15.2513C37.7208 15.3144 37.7573 15.3459 37.8145 15.3459H38.4109C38.4161 15.3459 38.4199 15.3446 38.4238 15.3432C38.4276 15.3419 38.4314 15.3405 38.4366 15.3405C38.483 15.3356 38.5145 15.3144 38.5145 15.2621V11.3956C38.5145 11.338 38.478 11.301 38.4213 11.301ZM34.5313 2.06969H35.3247H35.3251C35.4751 2.06969 35.6256 2.06969 35.7711 2.06429H36.1702C36.2274 2.06429 36.2738 2.04356 36.2738 1.9805C36.2738 1.931 36.2745 1.88117 36.2751 1.83117C36.2771 1.68048 36.279 1.52827 36.2635 1.3791C36.2117 0.944831 35.8693 0.615076 35.4337 0.588948C35.2147 0.577659 34.9957 0.579764 34.7765 0.58187C34.6896 0.582706 34.6026 0.583542 34.5156 0.583542C34.4223 0.588948 34.4016 0.61012 34.4016 0.709227V1.93905C34.4016 2.04852 34.4174 2.06969 34.5313 2.06969ZM43.4627 4.68565V0.81914C43.4627 0.794853 43.4624 0.773064 43.462 0.753517C43.4593 0.591783 43.4592 0.583536 43.6907 0.583536C43.7686 0.583536 43.8466 0.584139 43.9244 0.584741C44.0794 0.585941 44.2337 0.587136 44.3858 0.583536C44.8993 0.567769 45.3142 1.02816 45.3039 1.50433C45.3002 1.71764 45.3015 1.93076 45.3027 2.14233V2.14247C45.3033 2.24764 45.3039 2.35242 45.3039 2.45665V2.63459C45.3039 2.6819 45.3349 2.71298 45.3813 2.71298C45.4904 2.71838 45.5994 2.71838 45.703 2.71838H46.2994C46.3566 2.71838 46.3927 2.74451 46.3927 2.80758V3.13193C46.3877 3.62881 45.9881 3.97929 45.5629 4.00587C45.5314 4.0082 45.4997 4.00943 45.4686 4.01065C45.4335 4.01202 45.399 4.01336 45.366 4.01623C45.3295 4.02119 45.3039 4.04236 45.3039 4.07885C45.2985 4.13111 45.2985 4.17796 45.2985 4.23066V7.95077C45.3039 8.28593 45.4489 8.43729 45.7859 8.4481C45.8638 8.45058 45.943 8.45058 46.0221 8.45058H46.0221C46.1012 8.45058 46.1803 8.45058 46.258 8.45306C46.3774 8.45306 46.3927 8.46883 46.3927 8.57919V9.73514C46.3927 9.85046 46.3823 9.86082 46.2629 9.86578C45.6666 9.89186 45.0692 9.88133 44.4741 9.83425C44.4167 9.82992 44.3596 9.823 44.3029 9.81352C43.9245 9.73018 43.6645 9.51035 43.5456 9.13329C43.478 8.9085 43.4573 8.6729 43.4573 8.43774C43.4623 7.18227 43.4623 5.93761 43.4623 4.6871V4.68565H43.4627ZM22.8152 5.95197V8.78822C22.8152 9.93426 22.8152 11.0852 22.8201 12.2259V12.4038C22.8201 12.4664 22.8566 12.498 22.9138 12.498C22.9973 12.498 23.0807 12.4991 23.1643 12.5003L23.1644 12.5003H23.1645C23.3867 12.5035 23.6093 12.5066 23.8319 12.4876C24.2414 12.4565 24.568 12.1268 24.6252 11.7132C24.6356 11.6191 24.6356 11.5299 24.6356 11.4362V11.4362V9.04996C24.6356 9.02878 24.646 9.01842 24.6667 9.01842C24.682 9.01804 24.6969 9.0237 24.7081 9.03419C24.7205 9.05168 24.733 9.06951 24.7454 9.08744L24.7455 9.08746L24.7455 9.08747C24.7851 9.14435 24.8255 9.20231 24.8689 9.25403C25.0913 9.52589 25.3862 9.72911 25.7195 9.84011C25.9556 9.92066 26.2018 9.96811 26.4511 9.98111C27.3687 10.0388 28.126 9.70901 28.7017 8.98689C29.0391 8.56343 29.2517 8.07646 29.376 7.54804C29.5184 6.93617 29.5604 6.30522 29.5004 5.67988C29.449 5.12578 29.3188 4.59151 29.0751 4.08967C28.8368 3.59774 28.4994 3.19455 28.0066 2.94363C27.7119 2.79041 27.398 2.67767 27.0732 2.60847C25.9893 2.39404 24.9829 2.5927 24.0288 3.13689C23.8049 3.26552 23.6049 3.43196 23.4378 3.62882C23.1418 3.9847 22.9864 4.4032 22.8981 4.85324C22.8255 5.21453 22.8152 5.58573 22.8152 5.95197ZM27.5142 5.16227C27.6385 5.52311 27.68 5.89971 27.675 6.27677C27.68 6.64301 27.6385 6.9989 27.5246 7.33361C27.4777 7.48002 27.4101 7.61066 27.3326 7.7413C26.9281 8.40621 26.233 8.4846 25.7041 8.32242C25.2996 8.20214 25.0451 7.91969 24.864 7.55344C24.7807 7.38091 24.7239 7.19216 24.6928 7.00385C24.6002 6.44119 24.6143 5.86614 24.7343 5.30868C24.7861 5.07848 24.8744 4.86405 25.0145 4.67034C25.2528 4.34059 25.5744 4.15769 25.9789 4.12615C26.2483 4.10498 26.5078 4.13111 26.7569 4.24643C27.1511 4.42933 27.379 4.75909 27.5142 5.16227ZM38.629 9.57297V7.4647H38.6281C38.6281 7.28601 38.6285 7.10733 38.6288 6.92855V6.92828V6.92801V6.92794V6.92787C38.6299 6.40557 38.6309 5.8825 38.6232 5.35643C38.6232 5.19921 38.6335 5.04244 38.6696 4.88567C38.6945 4.76249 38.7435 4.64544 38.8138 4.54123C38.8841 4.43703 38.9742 4.34771 39.0791 4.27842C39.5516 3.95948 40.1634 3.96443 40.6513 4.28878C40.8625 4.42776 41.0112 4.64369 41.0657 4.89063C41.1076 5.0528 41.1126 5.22038 41.1126 5.38796V8.79859C41.1126 8.87202 41.1126 8.95085 41.118 9.02383C41.1382 9.21213 41.1851 9.38512 41.3094 9.53153C41.3867 9.62998 41.4851 9.70978 41.5974 9.76499C41.7097 9.82021 41.833 9.84942 41.9581 9.85047C42.1757 9.85858 42.3935 9.85756 42.6114 9.85655H42.6114H42.6114C42.6841 9.85621 42.7567 9.85588 42.8294 9.85588C42.8401 9.85588 42.8496 9.85435 42.8585 9.85292L42.8585 9.85291C42.8664 9.85166 42.8738 9.85047 42.8812 9.85047C42.9276 9.84011 42.9591 9.81398 42.9591 9.76713V7.13494C42.9591 6.60112 42.9591 6.06234 42.9537 5.52852C42.9487 5.08929 42.9019 4.66043 42.7667 4.24148C42.601 3.71802 42.3054 3.29952 41.8072 3.04859C41.6621 2.96976 41.5117 2.89183 41.3612 2.82876C40.8585 2.61928 40.3296 2.50936 39.7845 2.53054C39.043 2.55667 38.3533 2.78146 37.7258 3.1896C37.5422 3.30766 37.3835 3.46055 37.2587 3.63963C37.0361 3.94821 36.9118 4.29914 36.8442 4.67575C36.782 5.03163 36.7559 5.38751 36.7559 5.74835V9.58919V9.76713C36.7559 9.81443 36.782 9.84551 36.8284 9.85047C36.8699 9.85588 36.9113 9.85588 36.9532 9.85588H36.9532H38.4214H38.4214C38.4628 9.85588 38.5043 9.85588 38.5457 9.85047C38.5921 9.84551 38.6182 9.81939 38.6236 9.77208C38.629 9.70947 38.629 9.64144 38.629 9.57297Z" fill="#F2F4F8"/>
</svg>
