<svg width="47" height="16" viewBox="0 0 47 16" fill="none" xmlns="http://www.w3.org/2000/svg">
<path d="M10.7204 12.1099H13.1448V14.9964C12.8083 15.2465 12.4304 15.4354 12.0283 15.5546C11.627 15.6714 11.2109 15.7293 10.7929 15.7267C10.2332 15.7267 9.72187 15.6373 9.26174 15.4613C8.8016 15.2859 8.40624 15.0408 8.08047 14.7315C7.7528 14.4201 7.49426 14.0434 7.32164 13.6256C7.1404 13.1841 7.04935 12.7108 7.05387 12.2336C7.05387 11.7242 7.13942 11.2554 7.30762 10.8286C7.46794 10.4135 7.71361 10.0368 8.02875 9.7227C8.34147 9.4124 8.72234 9.1717 9.16555 8.99915C9.60829 8.82709 10.1061 8.74105 10.6557 8.74105C10.9408 8.74105 11.2052 8.76522 11.4556 8.80969C11.7064 8.85802 11.9365 8.91989 12.1458 9.00302C12.3556 9.08519 12.5474 9.18185 12.7229 9.29205C12.8979 9.40564 13.0525 9.52647 13.1898 9.65697L12.733 10.3564C12.6709 10.4581 12.571 10.5311 12.4551 10.5594C12.3415 10.5835 12.2183 10.5565 12.0878 10.4738C11.9727 10.4033 11.8546 10.3376 11.734 10.2771C11.6248 10.2223 11.5109 10.1773 11.3937 10.1427C11.2745 10.1083 11.1528 10.0831 11.0298 10.0673C10.8874 10.0498 10.744 10.0417 10.6006 10.0432C10.3057 10.0432 10.0375 10.0949 9.80065 10.2017C9.56382 10.3046 9.36082 10.453 9.19649 10.6459C9.02261 10.8468 8.89168 11.0812 8.81176 11.3346C8.7194 11.6229 8.67419 11.9242 8.67787 12.2269C8.67787 12.5884 8.72959 12.9122 8.82915 13.195C8.92872 13.4772 9.06937 13.715 9.2511 13.9079C9.43332 14.1012 9.65324 14.2491 9.90699 14.3526C10.1766 14.4558 10.4632 14.5071 10.7519 14.5038C10.9404 14.5038 11.1158 14.4864 11.2705 14.4487C11.4251 14.411 11.5759 14.3627 11.72 14.297V13.2602H11.0472C10.9476 13.2602 10.8683 13.2327 10.8137 13.181C10.7859 13.155 10.7639 13.1236 10.7491 13.0886C10.7343 13.0536 10.727 13.0159 10.7277 12.978V12.1099H10.7209H10.7204ZM20.2146 15.6508H18.9888C18.8516 15.6508 18.7418 15.6199 18.6558 15.5541C18.5708 15.49 18.5044 15.4044 18.4634 15.3062L18.0618 14.1148H15.4692L15.0709 15.31C15.0306 15.4038 14.9666 15.4856 14.8853 15.5474C14.7908 15.6191 14.6748 15.6568 14.5562 15.6542H13.3198L15.9569 8.81694H17.5775L20.2146 15.6513V15.6508ZM17.7046 13.0398L17.0729 11.1693C17.0246 11.0524 16.9767 10.9112 16.9216 10.7488C16.8704 10.5874 16.8153 10.4153 16.764 10.2254C16.7157 10.4148 16.6674 10.5942 16.6128 10.7561C16.561 10.918 16.5098 11.0591 16.4615 11.18L15.8404 13.0398H17.7046ZM28.4143 8.81694V15.6542H27.0204V11.7203C27.0204 11.6309 27.0238 11.5313 27.0271 11.4245C27.0305 11.3177 27.0412 11.2109 27.0513 11.1007L25.2417 14.614C25.1866 14.7242 25.1112 14.8074 25.015 14.862C24.9188 14.9171 24.812 14.948 24.6888 14.948H24.4727C24.3519 14.948 24.2427 14.9205 24.1465 14.862C24.0475 14.8041 23.9683 14.7177 23.9193 14.614L22.1102 11.0905C22.1203 11.2036 22.1271 11.3138 22.1344 11.4207C22.1411 11.5275 22.144 11.6275 22.144 11.7169V15.6474H20.7506V8.81694H21.9555C22.0242 8.81694 22.0826 8.81694 22.1344 8.82032C22.1856 8.8237 22.2301 8.83385 22.2716 8.84787C22.3128 8.8642 22.3502 8.88889 22.3813 8.92037C22.4157 8.9542 22.4466 8.99915 22.4775 9.05812L24.2393 12.5265C24.3007 12.6474 24.3625 12.7677 24.4176 12.8987C24.4756 13.0263 24.5307 13.1568 24.582 13.2912C24.6342 13.1534 24.6922 13.019 24.7473 12.8885C24.8053 12.7576 24.8676 12.6333 24.9329 12.513L26.6806 9.05812C26.7115 8.99915 26.742 8.9513 26.7768 8.91989C26.807 8.88728 26.8446 8.86241 26.8865 8.84739C26.9304 8.83082 26.9768 8.82167 27.0238 8.82032C27.0755 8.81694 27.1335 8.81694 27.2026 8.81694H28.4143ZM31.323 10.0364V11.6314H33.4656V12.8059H31.323V14.4347H34.1215V15.6542H29.7328V8.81694H34.1215V10.0364H31.323ZM38.8601 10.2051C38.8118 10.281 38.7634 10.3356 38.7122 10.3738C38.6536 10.4133 38.5837 10.4327 38.5131 10.4289C38.4406 10.4289 38.3652 10.4047 38.283 10.3597C38.2008 10.3153 38.108 10.2631 38.0012 10.2085C37.8867 10.148 37.7674 10.0973 37.6445 10.0567C37.4958 10.0093 37.3405 9.98608 37.1844 9.98805C36.8891 9.98805 36.6658 10.0499 36.5212 10.1775C36.3772 10.3046 36.3052 10.4738 36.3052 10.6908C36.3052 10.8286 36.3497 10.9422 36.4357 11.0316C36.5213 11.121 36.6382 11.2007 36.7789 11.266C36.92 11.3312 37.0848 11.3931 37.267 11.4448C37.4488 11.4999 37.6344 11.5623 37.8263 11.6275C38.0148 11.6966 38.2042 11.7725 38.386 11.8653C38.5682 11.9547 38.7291 12.0717 38.8736 12.2133C39.0143 12.3545 39.1313 12.5265 39.2168 12.7261C39.3028 12.9296 39.3473 13.1708 39.3473 13.4565C39.3473 13.7735 39.2927 14.0698 39.183 14.3419C39.0768 14.6124 38.9153 14.8577 38.7088 15.0621C38.5029 15.2651 38.2448 15.427 37.9432 15.544C37.6373 15.6609 37.2941 15.7199 36.906 15.7199C36.688 15.7199 36.4705 15.6978 36.2569 15.6542C36.0393 15.6099 35.8257 15.5477 35.6184 15.4681C35.4177 15.39 35.2237 15.2956 35.0384 15.1858C34.8661 15.0838 34.7069 14.9613 34.5642 14.8209L35.0311 14.08C35.0688 14.0282 35.1172 13.9833 35.179 13.9456C35.2395 13.9102 35.3081 13.8912 35.3782 13.8905C35.471 13.8905 35.5667 13.9219 35.6595 13.9804C35.7561 14.0384 35.8625 14.1041 35.9823 14.1766C36.1145 14.2548 36.2536 14.3205 36.398 14.3729C36.5527 14.4313 36.7378 14.4623 36.9509 14.4623C37.239 14.4623 37.4584 14.4004 37.6203 14.2728C37.7784 14.1457 37.8572 13.9456 37.8572 13.6701C37.8572 13.5116 37.8127 13.3811 37.7267 13.281C37.6312 13.1749 37.5142 13.0904 37.3835 13.0331C37.2275 12.9615 37.0654 12.9037 36.8992 12.8605C36.717 12.8088 36.5319 12.7542 36.3429 12.6952C36.1526 12.6337 35.9669 12.5589 35.7871 12.4714C35.6065 12.3831 35.4425 12.2642 35.3023 12.12C35.153 11.9631 35.0364 11.7781 34.9591 11.5758C34.8731 11.3588 34.8286 11.0901 34.8286 10.7696C34.8286 10.5149 34.8803 10.2636 34.9833 10.019C35.0862 9.77442 35.237 9.5574 35.4367 9.36794C35.6492 9.16855 35.8988 9.01287 36.1713 8.90974C36.4599 8.79615 36.7929 8.73767 37.167 8.73767C37.3763 8.73767 37.5793 8.75459 37.7784 8.786C37.9775 8.81694 38.1627 8.86817 38.3415 8.93052C38.5203 8.99577 38.6847 9.07165 38.8393 9.16107C38.994 9.25097 39.1313 9.35054 39.255 9.46412L38.8601 10.2051Z" fill="white"/>
<path d="M2.50657 0.33251C2.97685 0.33251 3.37898 0.376976 3.70862 0.46301C4.03825 0.549526 4.3094 0.67326 4.51868 0.835176C4.72845 0.997093 4.87925 1.18994 4.97543 1.41759C5.07162 1.64476 5.11947 1.89948 5.11947 2.18223C5.11947 2.33689 5.09917 2.48189 5.05422 2.62689C5.00975 2.76754 4.94112 2.90239 4.84832 3.02613C4.75552 3.14986 4.63565 3.26393 4.48775 3.36688C4.32383 3.47889 4.1461 3.56922 3.95898 3.63561C4.40848 3.74581 4.7386 3.92174 4.95465 4.16631C5.17118 4.41088 5.27752 4.72746 5.27752 5.11364C5.27752 5.40268 5.2229 5.67479 5.10932 5.92661C4.99622 6.17794 4.8314 6.39496 4.61487 6.58104C4.39882 6.76664 4.13057 6.91164 3.81157 7.01846C3.49208 7.12189 3.13152 7.17699 2.7231 7.17699H0V0.33251H2.50657ZM1.57953 1.52054V3.20883H2.40362C2.57858 3.20883 2.73712 3.19481 2.87728 3.17064C3.01842 3.14648 3.13828 3.10201 3.23495 3.04014C3.33328 2.97802 3.41086 2.88799 3.45777 2.78156C3.50948 2.67136 3.53317 2.53361 3.53317 2.36831C3.53317 2.20639 3.51287 2.07203 3.4713 1.96183C3.4342 1.85949 3.37026 1.76901 3.28618 1.69986C3.19153 1.62992 3.0826 1.58173 2.96718 1.55873C2.8155 1.52898 2.66113 1.51505 2.50657 1.51716H1.57953V1.52054ZM2.69217 5.97446C2.90145 5.97446 3.07303 5.94691 3.20353 5.89519C3.33742 5.84348 3.44037 5.77484 3.51625 5.68881C3.59165 5.60278 3.64337 5.50998 3.67092 5.40268C3.69798 5.29634 3.712 5.18904 3.712 5.07884C3.712 4.95511 3.6946 4.84153 3.66367 4.74148C3.63124 4.64313 3.57318 4.5552 3.49547 4.48676C3.41668 4.41764 3.31035 4.36593 3.17985 4.32823C3.04935 4.29004 2.88453 4.27313 2.6854 4.27313H1.57953V5.97446H2.69217ZM29.1595 0.33251V7.16974H27.7651V3.23976C27.7651 3.14986 27.7685 3.05029 27.7719 2.94348C27.7752 2.83666 27.7859 2.72984 27.796 2.61964L25.9864 6.13348C25.9313 6.24319 25.8559 6.32584 25.7597 6.38094C25.6636 6.43604 25.5572 6.46698 25.4335 6.46698H25.2174C25.0971 6.46698 24.9874 6.43991 24.8912 6.38094C24.7924 6.32302 24.7134 6.23659 24.6645 6.13299L22.8549 2.60949C22.8651 2.72308 22.8718 2.83328 22.8791 2.94009C22.8858 3.04643 22.8892 3.14648 22.8892 3.23638V7.16636H21.4953V0.33251H22.7002C22.7689 0.33251 22.8274 0.33251 22.8791 0.336376C22.9303 0.33976 22.9753 0.34991 23.0163 0.363927C23.0568 0.38154 23.094 0.406073 23.1261 0.436426C23.1604 0.47026 23.1913 0.51521 23.2227 0.574176L24.9772 4.04258C25.0386 4.16341 25.1005 4.28424 25.1556 4.41474C25.2136 4.54234 25.2687 4.67284 25.3199 4.80721C25.3716 4.66946 25.4301 4.53509 25.4852 4.40411C25.5432 4.27361 25.6051 4.14939 25.6703 4.02904L27.4185 0.574176C27.449 0.51521 27.4799 0.46736 27.5142 0.435943C27.5446 0.403297 27.5824 0.378433 27.6244 0.363443C27.6684 0.34688 27.7148 0.337733 27.7617 0.336376C27.8134 0.332993 27.8714 0.332993 27.9405 0.332993H29.1595V0.33251ZM32.0711 7.16974H30.4809V0.33251H32.0711V7.16974ZM39.3366 0.33251V7.16974H38.513C38.3921 7.16974 38.2897 7.14944 38.207 7.11174C38.1249 7.07308 38.0427 7.00444 37.96 6.90826L34.7459 2.82989C34.7594 2.95024 34.7667 3.07059 34.77 3.18466C34.7734 3.29824 34.7768 3.40506 34.7768 3.50463V7.16974H33.3829V0.33251H34.2137C34.2824 0.33251 34.3408 0.335893 34.3853 0.34266C34.4336 0.349426 34.4747 0.36006 34.5124 0.376976C34.5501 0.394376 34.5849 0.418543 34.6188 0.449477C34.6531 0.48041 34.6912 0.521977 34.7357 0.577076L37.977 4.68299C37.9481 4.44077 37.9333 4.19709 37.9325 3.95316V0.33541H39.3371V0.33251H39.3366ZM43.9311 3.62884H46.3555V6.51531C46.019 6.76544 45.6411 6.95441 45.239 7.07356C44.8376 7.19038 44.4213 7.24834 44.0032 7.24563C43.4435 7.24563 42.9321 7.15621 42.472 6.98028C42.0118 6.80483 41.6165 6.55978 41.2907 6.25044C40.963 5.93909 40.7045 5.56232 40.5319 5.14458C40.3506 4.70309 40.2596 4.22979 40.2641 3.75258C40.2641 3.24314 40.3496 2.77479 40.5178 2.34753C40.6782 1.93249 40.9238 1.55574 41.239 1.24166C41.5517 0.931843 41.9326 0.69066 42.3758 0.518593C42.8185 0.346043 43.3163 0.26001 43.8659 0.26001C44.1511 0.26001 44.4154 0.284176 44.6658 0.329126C44.9167 0.37746 45.1467 0.439326 45.356 0.521976C45.5658 0.604143 45.7576 0.70081 45.9331 0.81101C46.1081 0.924593 46.2627 1.04543 46.4 1.17641L45.9433 1.87918C45.8811 1.98092 45.7812 2.05391 45.6653 2.08218C45.5518 2.10634 45.4285 2.07879 45.298 1.99614C45.1829 1.92576 45.0649 1.86029 44.9442 1.79991C44.835 1.74509 44.7211 1.70012 44.6039 1.66554C44.4847 1.631 44.3631 1.60563 44.24 1.58966C44.0976 1.57214 43.9542 1.56406 43.8108 1.56549C43.5159 1.56549 43.2477 1.61721 43.0109 1.72403C42.774 1.82746 42.571 1.97536 42.4067 2.16869C42.2328 2.36963 42.1019 2.60402 42.022 2.85744C41.9296 3.14555 41.8844 3.44667 41.8881 3.74919C41.8881 4.11121 41.9398 4.43504 42.0394 4.71731C42.1389 5.00006 42.2796 5.23738 42.4613 5.43023C42.6435 5.62356 42.8635 5.77146 43.1172 5.87489C43.3868 5.9781 43.6734 6.02942 43.9621 6.02618C44.1506 6.02618 44.326 6.00926 44.4807 5.97108C44.6353 5.93338 44.7862 5.88504 44.9302 5.81979V4.78256H44.2574C44.1578 4.78256 44.0786 4.75549 44.0239 4.70378C43.9962 4.67787 43.9741 4.64641 43.9593 4.61143C43.9445 4.57646 43.9372 4.53876 43.9379 4.50078V3.62884H43.9311ZM19.1845 4.09043C19.0922 4.59511 18.8258 5.05143 18.4317 5.37997C18.0377 5.7085 17.5409 5.88843 17.0278 5.88843H16.9795C16.8248 5.88504 16.6605 5.88843 16.2482 5.71298C15.8398 5.53704 15.7504 5.43361 15.4517 5.19968C15.2801 5.06531 15.0326 4.80673 14.7895 4.58971C14.5488 4.85168 14.0027 5.45778 13.9548 5.50611C14.1641 5.73328 14.6759 6.18133 14.8818 6.33986L14.8509 6.31231C15.447 6.81295 16.1982 7.09168 16.9766 7.10111C17.1482 7.10111 17.2888 7.09434 17.4401 7.07694C18.1068 6.99514 18.7345 6.71796 19.2441 6.28029C19.7536 5.84262 20.1224 5.264 20.3039 4.61726L19.1845 4.09043Z" fill="#EB1B23"/>
<path d="M15.373 2.2441C15.7447 1.81328 16.2699 1.5445 16.8367 1.49495C17.4036 1.44539 17.9675 1.61897 18.4083 1.97875L17.8863 2.3543L20.2933 3.46355L20.0463 0.817782L19.4248 1.25858C19.1103 0.943733 18.7366 0.694286 18.3252 0.524638C17.9138 0.354991 17.4729 0.268502 17.0279 0.270165C16.5267 0.270126 16.0317 0.381357 15.5787 0.595832C15.1256 0.810308 14.7259 1.12268 14.4082 1.5104V1.51378C14.3841 1.54472 12.4991 3.85602 11.7228 4.62065C11.6818 4.66222 11.6368 4.69992 11.5923 4.73762C11.5856 4.74487 11.5754 4.75163 11.5682 4.7584C11.4553 4.85938 11.3386 4.95596 11.2182 5.04792C11.2042 5.05807 11.1907 5.0687 11.1805 5.07885C11.1457 5.1064 11.1114 5.13057 11.0805 5.15473C11.0673 5.16421 11.0547 5.17454 11.0428 5.18567C11.0293 5.19582 11.0157 5.20645 11.0017 5.21322C10.9572 5.24415 10.9123 5.27508 10.8712 5.30602C10.8595 5.31528 10.8468 5.32337 10.8335 5.33018L10.7098 5.41283C10.699 5.4205 10.6877 5.42745 10.6759 5.43362C10.6378 5.45778 10.6034 5.47857 10.5691 5.49887C10.5556 5.50612 10.5416 5.51627 10.528 5.52303C10.4961 5.54195 10.4639 5.56032 10.4314 5.57813C10.2052 5.70235 10.0162 5.78113 9.85814 5.82947C9.70057 5.8778 9.57684 5.90197 9.32647 5.90197C9.03325 5.88712 8.74595 5.81379 8.48149 5.68628C8.21702 5.55877 7.98072 5.37966 7.78649 5.15949C7.59226 4.93932 7.44402 4.68254 7.35049 4.40423C7.25695 4.12593 7.22002 3.83173 7.24185 3.53895C7.32064 2.45773 8.20369 1.58242 9.28152 1.5104C9.97172 1.46545 10.5793 1.76173 11.0326 2.2064C11.108 2.27842 11.7228 2.943 11.8533 3.1054C12.0868 2.85407 12.6465 2.1919 12.6673 2.16773C12.5571 2.0237 12.0936 1.53457 12.0631 1.49977C11.4034 0.759299 10.4526 0.276932 9.38447 0.290949C7.60919 0.315115 6.12584 1.73757 6.03014 3.51478C5.9267 5.40945 7.36897 6.9943 9.20225 7.11803C9.2675 7.12142 9.55992 7.13205 9.7141 7.11465C9.87215 7.09725 10.0128 7.06293 10.1332 7.03538C10.3255 6.99043 10.5208 6.88748 10.5247 6.88748C10.5348 6.88362 10.545 6.87685 10.5556 6.87347C10.5933 6.85607 10.6344 6.83915 10.6755 6.81837C10.6945 6.8106 10.7129 6.80139 10.7306 6.79081C10.7716 6.77003 10.8161 6.74973 10.8611 6.72557C10.878 6.71832 10.892 6.70817 10.9094 6.7014C11.0293 6.63567 11.1598 6.56365 11.2903 6.481L11.3454 6.4462C11.3932 6.41527 11.4415 6.38433 11.4928 6.34953C11.5136 6.336 11.5372 6.31908 11.5614 6.30507C11.6097 6.27075 11.661 6.23643 11.7127 6.19873C11.733 6.18133 11.7538 6.16732 11.7779 6.1504C11.8292 6.11222 11.8809 6.07065 11.9326 6.03295C11.9458 6.02349 11.9584 6.01316 11.9703 6.00202C11.98 5.99525 11.9872 5.988 11.9974 5.98123C12.0733 5.92323 12.1487 5.8575 12.2274 5.79177C12.2466 5.77664 12.265 5.76051 12.2825 5.74343C12.3405 5.6922 12.4029 5.64048 12.4648 5.58538C12.4918 5.56121 12.516 5.53705 12.5435 5.51627C12.5537 5.50612 12.5677 5.49548 12.5779 5.48533L12.7151 5.35773C12.7427 5.33357 13.4295 4.65835 13.893 4.09382C14.3565 3.5288 14.8577 2.85358 15.373 2.2441Z" fill="#EB1B23"/>
</svg>
