<svg width="47" height="16" viewBox="0 0 47 16" fill="none" xmlns="http://www.w3.org/2000/svg">
<g clip-path="url(#clip0_1748_12289)">
<path d="M3.97628 0.845936C3.8322 0.897113 3.37208 1.32979 1.9592 2.73948C0.955308 3.7444 0.100142 4.62371 0.062961 4.6935C-0.0160489 4.84238 -0.0206965 5.18201 0.0490181 5.3681C0.076904 5.43789 0.444068 5.8473 0.867003 6.27533L1.63386 7.04763L1.30388 7.71758C0.797289 8.75042 0.648564 9.30406 0.648564 10.188C0.648564 11.0162 0.867003 11.7419 1.31318 12.4072C1.39219 12.5235 1.63386 12.7934 1.8523 13.0121C2.55874 13.7192 3.36279 14.0449 4.38992 14.0495C5.27762 14.0542 6.07236 13.8076 6.75092 13.3191C7.02978 13.1191 7.52243 12.6399 7.68045 12.4119C7.81058 12.2211 7.81058 12.3281 7.68509 12.7608C7.48989 13.4447 7.17385 13.896 6.62078 14.2915C6.36981 14.4729 5.88181 14.7335 5.73773 14.7614C5.71449 14.7707 5.52394 14.8172 5.31944 14.873C4.94763 14.9707 4.78032 14.9986 4.54329 15.0079C4.44569 15.0126 4.41315 15.0359 4.41315 15.1057C4.41315 15.1987 4.44569 15.1987 8.08479 15.1987C11.6821 15.1987 11.7564 15.1987 11.7564 15.1103C11.7564 15.0359 11.71 15.0126 11.4915 14.9893C10.7525 14.9056 9.99962 14.6311 9.51162 14.2589C9.12121 13.9705 8.86559 13.6541 8.6611 13.2214C8.50773 12.9004 8.34041 12.2956 8.41013 12.3235C8.42872 12.3328 8.54491 12.4584 8.66575 12.6073C9.48373 13.6169 10.9384 14.2077 12.2072 14.0356C13.2065 13.9053 14.0291 13.454 14.6333 12.705C14.9912 12.2584 15.1632 11.956 15.3351 11.4395C15.7116 10.309 15.5954 9.21101 14.9447 7.87111C14.4009 6.74522 13.727 5.86126 12.4117 4.54462C11.1894 3.32568 9.96709 2.31611 8.5635 1.37166L8.08479 1.0553L7.65256 1.33909C7.42018 1.49728 6.98795 1.80434 6.69515 2.01835L6.16532 2.41381L5.39381 1.64616C4.77567 1.03203 4.58512 0.869198 4.43639 0.827326C4.20866 0.766844 4.19936 0.766845 3.97628 0.845936ZM6.23503 2.99536C7.25286 4.01425 8.09873 4.88425 8.11268 4.93077C8.12662 4.9773 8.12662 5.07035 8.10803 5.14013C8.0755 5.27971 4.61765 8.78299 4.39921 8.8993C4.3202 8.94117 4.21331 8.95978 4.13894 8.94117C4.05529 8.92256 3.42785 8.32705 2.16834 7.06624C0.36041 5.25179 0.323229 5.21457 0.323229 5.03313C0.323229 4.85168 0.36041 4.80981 2.17299 3.00001C3.98092 1.19022 4.0274 1.14834 4.20401 1.14834C4.38527 1.14834 4.4271 1.19022 6.23503 2.99536Z" fill="url(#paint0_linear_1748_12289)"/>
<path d="M45.5587 3.38151C45.4007 3.47922 45.2659 3.68858 45.2659 3.84676C45.2659 4.00959 45.3914 4.25152 45.5122 4.33526C45.6656 4.43296 45.9538 4.43762 46.135 4.33992C46.3442 4.23291 46.4557 3.9305 46.3721 3.68392C46.2559 3.33964 45.8655 3.19076 45.5587 3.38151ZM46.149 3.49783C46.4092 3.73045 46.3395 4.16312 46.0281 4.29339C45.7167 4.42366 45.4193 4.24687 45.3728 3.90724C45.3496 3.72579 45.3635 3.69323 45.5169 3.5397C45.6703 3.38617 45.7028 3.37221 45.8748 3.39547C45.977 3.40943 46.1025 3.45595 46.149 3.49783Z" fill="url(#paint1_linear_1748_12289)"/>
<path d="M45.5913 3.87002C45.5913 4.04216 45.6099 4.17243 45.6377 4.17243C45.6656 4.17243 45.6842 4.10729 45.6842 4.03286C45.6842 3.83745 45.8004 3.85606 45.912 4.06542C45.9398 4.1259 46.0003 4.17243 46.0374 4.17243C46.0932 4.17243 46.0886 4.14451 46.0095 4.03286C45.9212 3.91189 45.9212 3.88863 45.9817 3.86537C46.0793 3.82815 46.0793 3.63275 45.9817 3.59553C45.9398 3.58157 45.8376 3.56761 45.7493 3.56761H45.5913V3.87002ZM45.9445 3.71184C45.9817 3.77232 45.8841 3.84676 45.7679 3.84676C45.7167 3.84676 45.6842 3.80954 45.6842 3.75371C45.6842 3.68392 45.7167 3.66066 45.7958 3.66066C45.8608 3.66066 45.9259 3.68392 45.9445 3.71184Z" fill="url(#paint2_linear_1748_12289)"/>
<path d="M16.59 8.45267H18.0679C19.7039 8.45267 19.9084 8.42475 20.1594 8.17352C20.3917 7.9409 20.4708 7.72689 20.4708 7.31282C20.4708 6.98715 20.4522 6.91271 20.3406 6.71731C20.2663 6.59635 20.1361 6.44747 20.0525 6.39164C19.9642 6.33581 19.8898 6.27998 19.8898 6.26602C19.8898 6.25207 19.9595 6.20089 20.0432 6.14506C20.2337 6.01944 20.4429 5.63795 20.4801 5.34484C20.5405 4.80981 20.2012 4.25152 19.7411 4.13521C19.597 4.09799 19.0207 4.07938 18.0586 4.07938H16.59V8.45267ZM19.2159 4.89356C19.5831 5.07035 19.5505 5.6426 19.1601 5.82404C19.0393 5.87987 18.858 5.89383 18.2538 5.88452L17.4963 5.87057L17.4684 4.82377H18.2678C18.8906 4.82377 19.0951 4.83773 19.2159 4.89356ZM19.2717 6.72661C19.5691 6.92667 19.5226 7.46635 19.1927 7.63849C19.0858 7.69432 18.8813 7.70828 18.2631 7.70828H17.473V6.62891L18.3235 6.64752C18.9649 6.65683 19.1927 6.68009 19.2717 6.72661Z" fill="url(#paint3_linear_1748_12289)"/>
<path d="M22.2369 4.14451C21.8418 4.27013 21.563 4.49345 21.3166 4.89821C20.824 5.69377 20.8798 7.09881 21.4282 7.81994C21.8232 8.33636 22.209 8.45267 23.5754 8.45267H24.491V7.71758L23.6172 7.69897C22.7899 7.68502 22.7342 7.68036 22.5157 7.56405C22.2462 7.42913 22.0928 7.19186 22.0463 6.85223L22.0138 6.63822H24.491V5.89383H22.0277V5.77287C22.0277 5.5542 22.1253 5.25645 22.2415 5.13548C22.4878 4.87029 22.5808 4.84703 23.5754 4.83307L24.491 4.81446V4.07938L23.4592 4.08403C22.762 4.08403 22.3623 4.10264 22.2369 4.14451Z" fill="url(#paint4_linear_1748_12289)"/>
<path d="M25.2439 5.71704C25.2625 7.28025 25.2671 7.3733 25.3647 7.61523C25.4856 7.92694 25.7319 8.17817 26.0479 8.3224C26.2617 8.4201 26.3547 8.42941 27.2703 8.44336L28.2556 8.46197V7.71758L27.4562 7.69897C26.5778 7.68036 26.429 7.64314 26.271 7.39657C26.1967 7.28491 26.1874 7.10346 26.1734 5.67516L26.1595 4.07938H25.2253L25.2439 5.71704Z" fill="url(#paint5_linear_1748_12289)"/>
<path d="M30.3145 4.15847C30.2959 4.205 29.8915 5.19131 29.4128 6.34512L28.5484 8.45267H29.6266L29.8311 7.9409L30.0403 7.42913L30.8954 7.43844L31.7506 7.45239L32.1503 8.42941L32.6941 8.44336C33.0147 8.44802 33.2285 8.43871 33.2192 8.4108C33.2146 8.38753 32.8102 7.40587 32.3222 6.22415L31.4392 4.07938H30.8908C30.4121 4.07938 30.3423 4.08868 30.3145 4.15847ZM31.2208 5.88452C31.3788 6.28463 31.5089 6.63357 31.5089 6.65218C31.5089 6.67079 31.2254 6.68474 30.8768 6.68474C30.3795 6.68474 30.2494 6.67079 30.268 6.62426C30.4539 6.1311 30.8768 5.14944 30.9001 5.14944C30.914 5.14944 31.0581 5.47976 31.2208 5.88452Z" fill="url(#paint6_linear_1748_12289)"/>
<path d="M32.8102 4.82377H34.2045V8.45267H35.1341V4.82377H36.5748V4.07938H32.8102V4.82377Z" fill="url(#paint7_linear_1748_12289)"/>
<path d="M37.0861 8.45267H38.0156V6.77779H38.5268C39.1636 6.77779 39.4657 6.83827 39.6655 7.01507C39.8654 7.19186 39.9537 7.42448 40.0187 7.95021C40.0466 8.18748 40.0792 8.39684 40.0931 8.41545C40.1024 8.43871 40.3394 8.45267 40.6183 8.45267H41.1202L41.083 8.29914C41.0645 8.22005 41.0319 7.99208 41.0133 7.80133C40.9622 7.1779 40.7949 6.84758 40.4463 6.68009L40.2325 6.57774L40.4138 6.48469C40.7995 6.29394 40.9947 5.97757 41.0598 5.46581C41.1156 4.95869 40.8832 4.47018 40.4835 4.27013C40.1675 4.10729 39.8561 4.07938 38.4571 4.07938H37.0861V8.45267ZM39.7864 4.89821C39.9351 4.97265 40.0606 5.20527 40.0606 5.40067C40.0606 5.58212 39.9304 5.86591 39.8142 5.94035C39.7352 5.99618 39.5168 6.01479 38.8661 6.0241L38.0156 6.04271V4.82377H38.8289C39.4796 4.82377 39.6748 4.83773 39.7864 4.89821Z" fill="url(#paint8_linear_1748_12289)"/>
<path d="M43.207 4.15847C43.1931 4.205 42.7934 5.18201 42.3193 6.33116C41.8453 7.48031 41.4549 8.42941 41.4549 8.43871C41.4549 8.44336 41.6919 8.45267 41.9847 8.45267H42.5099L42.719 7.95021L42.9282 7.45239H44.6385L44.8476 7.95021L45.0568 8.45267H45.582C45.8655 8.45267 46.1025 8.43406 46.1025 8.4108C46.1025 8.38753 46.0607 8.26657 46.0049 8.14096C45.9538 8.01999 45.7958 7.64315 45.661 7.31282C45.5262 6.97785 45.1869 6.15437 44.9081 5.47511C44.6292 4.79585 44.3875 4.205 44.3689 4.15847C44.341 4.08868 44.2713 4.07938 43.7833 4.07938C43.3 4.07938 43.2303 4.08868 43.207 4.15847ZM44.104 5.85661C44.262 6.24741 44.4061 6.59635 44.4154 6.62426C44.434 6.67079 44.2899 6.68474 43.788 6.68474H43.1373L43.4441 5.91709C43.616 5.49837 43.7694 5.14944 43.7833 5.14944C43.8019 5.14944 43.9413 5.47046 44.104 5.85661Z" fill="url(#paint9_linear_1748_12289)"/>
<path d="M21.7489 9.56925C20.243 9.60182 20.1408 9.62043 19.7597 9.96471C19.36 10.3229 19.1694 10.8021 19.1183 11.5465C19.0439 12.598 19.3879 13.4308 20.0246 13.7518C20.3174 13.9053 20.7031 13.9425 21.9208 13.9425H23.0967V11.3372H20.9588V12.0769L22.1904 12.1048L22.2183 13.1982H21.6234C20.7217 13.1982 20.4754 13.0958 20.2709 12.6445C20.1733 12.4305 20.1454 12.2956 20.1315 11.8676C20.0989 11.0069 20.2291 10.644 20.652 10.43C20.8797 10.3136 20.903 10.3136 21.9905 10.3136H23.0967V9.91819C23.0967 9.69952 23.092 9.52738 23.0874 9.53203C23.0781 9.53669 22.4785 9.55529 21.7489 9.56925Z" fill="url(#paint10_linear_1748_12289)"/>
<path d="M25.8574 9.55995C25.374 9.56925 25.3368 9.57856 25.295 9.67626C25.2671 9.73209 24.9604 10.4811 24.6072 11.3372C24.2586 12.1932 23.9425 12.9562 23.91 13.0353C23.8728 13.1098 23.7752 13.347 23.6869 13.561L23.5243 13.9472L24.6025 13.9193L24.807 13.4168L25.0161 12.919L25.876 12.9283L26.7404 12.9423L26.9449 13.4401L27.1541 13.9425H28.2091L28.1208 13.7192C27.8791 13.1098 26.4709 9.71813 26.429 9.63904C26.3779 9.5553 26.3314 9.54599 25.8574 9.55995ZM26.2152 11.3744L26.522 12.1514L25.8946 12.1653C25.5506 12.17 25.2578 12.17 25.2485 12.156C25.2253 12.1327 25.8481 10.5928 25.8853 10.5928C25.8992 10.5974 26.0479 10.9464 26.2152 11.3744Z" fill="url(#paint11_linear_1748_12289)"/>
<path d="M28.7203 13.9425H29.608L29.6034 12.3095C29.5987 11.4116 29.6034 10.6719 29.6127 10.6626C29.6266 10.6486 30.2122 12.3886 30.5933 13.5703L30.7049 13.9193L31.1417 13.9332C31.3834 13.9379 31.6019 13.9286 31.6297 13.91C31.6576 13.8867 31.9272 13.1609 32.2293 12.2909C32.5314 11.4209 32.7963 10.6905 32.8195 10.6672C32.8381 10.6393 32.8567 11.3697 32.8567 12.2816V13.9425H33.6933V9.54599L33.0333 9.5553L32.3687 9.55995L31.8761 11.0208C31.6019 11.821 31.3881 12.491 31.3974 12.5096C31.4113 12.5282 31.3974 12.5515 31.3788 12.5654C31.3555 12.5794 31.3091 12.6864 31.2765 12.8027C31.244 12.919 31.2022 12.9981 31.1836 12.9795C31.151 12.9423 30.9419 12.3468 30.9233 12.2351C30.9187 12.2025 30.8582 12.0164 30.7978 11.8164C30.7327 11.6163 30.5422 11.0255 30.3749 10.4997L30.0728 9.54599H28.7203V13.9425Z" fill="url(#paint12_linear_1748_12289)"/>
<path d="M36.784 9.56925C35.6871 9.59251 35.6639 9.59251 35.4315 9.71813C34.9853 9.95541 34.6089 10.4858 34.4834 11.0627C34.3951 11.4674 34.4416 12.4119 34.5717 12.7422C34.7111 13.1051 34.9296 13.4215 35.1712 13.6029C35.5152 13.8635 35.7336 13.9053 36.8909 13.9286L37.9227 13.9518V13.2075L37.0489 13.1888C36.2216 13.1749 36.1658 13.1702 35.9474 13.0539C35.6778 12.919 35.5245 12.6817 35.478 12.3421L35.4455 12.1281H37.9227V11.3837H35.4455L35.4733 11.1232C35.5059 10.8161 35.6685 10.5416 35.887 10.4206C36.0171 10.3509 36.1844 10.3323 36.9838 10.3229L37.9227 10.309V9.91353C37.9227 9.69952 37.918 9.52738 37.9134 9.53203C37.9041 9.53669 37.3975 9.55064 36.784 9.56925Z" fill="url(#paint13_linear_1748_12289)"/>
<path d="M39.2565 9.64369C38.7964 9.78327 38.5036 10.2718 38.5083 10.8719C38.5175 11.2162 38.6012 11.4442 38.815 11.6908C39.0892 12.0025 39.2658 12.049 40.2929 12.0769C41.1342 12.1048 41.2132 12.1141 41.3712 12.2118C41.7384 12.4398 41.6733 12.9934 41.2643 13.1377C41.1574 13.1749 40.7112 13.1935 39.9118 13.1935L38.7127 13.1982V13.9425H40.0513C40.7856 13.9425 41.5106 13.9193 41.664 13.896C42.2217 13.8076 42.5656 13.3843 42.6075 12.7515C42.6447 12.1327 42.4262 11.6954 41.9754 11.4861C41.7337 11.3744 41.6501 11.3651 40.7809 11.3372C40.1907 11.3186 39.8142 11.2907 39.7492 11.2534C39.4843 11.1046 39.4145 10.6998 39.6144 10.4672L39.7259 10.3369L42.3844 10.309V9.56925L40.9343 9.57391C39.791 9.57391 39.4331 9.59251 39.2565 9.64369Z" fill="url(#paint14_linear_1748_12289)"/>
<path d="M3.97628 0.845936C3.8322 0.897113 3.37208 1.32979 1.9592 2.73948C0.955308 3.7444 0.100142 4.62371 0.062961 4.6935C-0.0160489 4.84238 -0.0206965 5.18201 0.0490181 5.3681C0.076904 5.43789 0.444068 5.8473 0.867003 6.27533L1.63386 7.04763L1.30388 7.71758C0.797289 8.75042 0.648564 9.30406 0.648564 10.188C0.648564 11.0162 0.867003 11.7419 1.31318 12.4072C1.39219 12.5235 1.63386 12.7934 1.8523 13.0121C2.55874 13.7192 3.36279 14.0449 4.38992 14.0495C5.27762 14.0542 6.07236 13.8076 6.75092 13.3191C7.02978 13.1191 7.52243 12.6399 7.68045 12.4119C7.81058 12.2211 7.81058 12.3281 7.68509 12.7608C7.48989 13.4447 7.17385 13.896 6.62078 14.2915C6.36981 14.4729 5.88181 14.7335 5.73773 14.7614C5.71449 14.7707 5.52394 14.8172 5.31944 14.873C4.94763 14.9707 4.78032 14.9986 4.54329 15.0079C4.44569 15.0126 4.41315 15.0359 4.41315 15.1057C4.41315 15.1987 4.44569 15.1987 8.08479 15.1987C11.6821 15.1987 11.7564 15.1987 11.7564 15.1103C11.7564 15.0359 11.71 15.0126 11.4915 14.9893C10.7525 14.9056 9.99962 14.6311 9.51162 14.2589C9.12121 13.9705 8.86559 13.6541 8.6611 13.2214C8.50773 12.9004 8.34041 12.2956 8.41013 12.3235C8.42872 12.3328 8.54491 12.4584 8.66575 12.6073C9.48373 13.6169 10.9384 14.2077 12.2072 14.0356C13.2065 13.9053 14.0291 13.454 14.6333 12.705C14.9912 12.2584 15.1632 11.956 15.3351 11.4395C15.7116 10.309 15.5954 9.21101 14.9447 7.87111C14.4009 6.74522 13.727 5.86126 12.4117 4.54462C11.1894 3.32568 9.96709 2.31611 8.5635 1.37166L8.08479 1.0553L7.65256 1.33909C7.42018 1.49728 6.98795 1.80434 6.69515 2.01835L6.16532 2.41381L5.39381 1.64616C4.77567 1.03203 4.58512 0.869198 4.43639 0.827326C4.20866 0.766844 4.19936 0.766845 3.97628 0.845936ZM6.23503 2.99536C7.25286 4.01425 8.09873 4.88425 8.11268 4.93077C8.12662 4.9773 8.12662 5.07035 8.10803 5.14013C8.0755 5.27971 4.61765 8.78299 4.39921 8.8993C4.3202 8.94117 4.21331 8.95978 4.13894 8.94117C4.05529 8.92256 3.42785 8.32705 2.16834 7.06624C0.36041 5.25179 0.323229 5.21457 0.323229 5.03313C0.323229 4.85168 0.36041 4.80981 2.17299 3.00001C3.98092 1.19022 4.0274 1.14834 4.20401 1.14834C4.38527 1.14834 4.4271 1.19022 6.23503 2.99536Z" fill="url(#paint15_linear_1748_12289)"/>
<path d="M6.23504 2.99643C7.25288 4.01532 8.09875 4.88532 8.11269 4.93184C8.12663 4.97837 8.12663 5.07142 8.10804 5.1412C8.07551 5.28078 4.61766 8.78406 4.39922 8.90037C4.32021 8.94224 4.21332 8.96085 4.13896 8.94224C4.0553 8.92363 3.42787 8.32812 2.16836 7.06731C0.360423 5.25286 0.323242 5.21564 0.323242 5.0342C0.323242 4.85275 0.360423 4.81088 2.173 3.00108C3.98094 1.19129 4.02741 1.14941 4.20402 1.14941C4.38528 1.14941 4.42711 1.19129 6.23504 2.99643Z" fill="url(#paint16_linear_1748_12289)"/>
<path d="M6.23504 2.99643C7.25288 4.01532 8.09875 4.88532 8.11269 4.93184C8.12663 4.97837 8.12663 5.07142 8.10804 5.1412C8.07551 5.28078 4.61766 8.78406 4.39922 8.90037C4.32021 8.94224 4.21332 8.96085 4.13896 8.94224C4.0553 8.92363 3.42787 8.32812 2.16836 7.06731C0.360423 5.25286 0.323242 5.21564 0.323242 5.0342C0.323242 4.85275 0.360423 4.81088 2.173 3.00108C3.98094 1.19129 4.02741 1.14941 4.20402 1.14941C4.38528 1.14941 4.42711 1.19129 6.23504 2.99643Z" fill="white"/>
</g>
<defs>
<linearGradient id="paint0_linear_1748_12289" x1="40.5599" y1="13.9425" x2="40.5599" y2="9.56925" gradientUnits="userSpaceOnUse">
<stop stop-color="#0292FF"/>
<stop offset="1" stop-color="#0259FF"/>
</linearGradient>
<linearGradient id="paint1_linear_1748_12289" x1="40.5599" y1="13.9425" x2="40.5599" y2="9.56925" gradientUnits="userSpaceOnUse">
<stop stop-color="#0292FF"/>
<stop offset="1" stop-color="#0259FF"/>
</linearGradient>
<linearGradient id="paint2_linear_1748_12289" x1="40.5599" y1="13.9425" x2="40.5599" y2="9.56925" gradientUnits="userSpaceOnUse">
<stop stop-color="#0292FF"/>
<stop offset="1" stop-color="#0259FF"/>
</linearGradient>
<linearGradient id="paint3_linear_1748_12289" x1="40.5599" y1="13.9425" x2="40.5599" y2="9.56925" gradientUnits="userSpaceOnUse">
<stop stop-color="#0292FF"/>
<stop offset="1" stop-color="#0259FF"/>
</linearGradient>
<linearGradient id="paint4_linear_1748_12289" x1="40.5599" y1="13.9425" x2="40.5599" y2="9.56925" gradientUnits="userSpaceOnUse">
<stop stop-color="#0292FF"/>
<stop offset="1" stop-color="#0259FF"/>
</linearGradient>
<linearGradient id="paint5_linear_1748_12289" x1="40.5599" y1="13.9425" x2="40.5599" y2="9.56925" gradientUnits="userSpaceOnUse">
<stop stop-color="#0292FF"/>
<stop offset="1" stop-color="#0259FF"/>
</linearGradient>
<linearGradient id="paint6_linear_1748_12289" x1="40.5599" y1="13.9425" x2="40.5599" y2="9.56925" gradientUnits="userSpaceOnUse">
<stop stop-color="#0292FF"/>
<stop offset="1" stop-color="#0259FF"/>
</linearGradient>
<linearGradient id="paint7_linear_1748_12289" x1="40.5599" y1="13.9425" x2="40.5599" y2="9.56925" gradientUnits="userSpaceOnUse">
<stop stop-color="#0292FF"/>
<stop offset="1" stop-color="#0259FF"/>
</linearGradient>
<linearGradient id="paint8_linear_1748_12289" x1="40.5599" y1="13.9425" x2="40.5599" y2="9.56925" gradientUnits="userSpaceOnUse">
<stop stop-color="#0292FF"/>
<stop offset="1" stop-color="#0259FF"/>
</linearGradient>
<linearGradient id="paint9_linear_1748_12289" x1="40.5599" y1="13.9425" x2="40.5599" y2="9.56925" gradientUnits="userSpaceOnUse">
<stop stop-color="#0292FF"/>
<stop offset="1" stop-color="#0259FF"/>
</linearGradient>
<linearGradient id="paint10_linear_1748_12289" x1="40.5599" y1="13.9425" x2="40.5599" y2="9.56925" gradientUnits="userSpaceOnUse">
<stop stop-color="#0292FF"/>
<stop offset="1" stop-color="#0259FF"/>
</linearGradient>
<linearGradient id="paint11_linear_1748_12289" x1="40.5599" y1="13.9425" x2="40.5599" y2="9.56925" gradientUnits="userSpaceOnUse">
<stop stop-color="#0292FF"/>
<stop offset="1" stop-color="#0259FF"/>
</linearGradient>
<linearGradient id="paint12_linear_1748_12289" x1="40.5599" y1="13.9425" x2="40.5599" y2="9.56925" gradientUnits="userSpaceOnUse">
<stop stop-color="#0292FF"/>
<stop offset="1" stop-color="#0259FF"/>
</linearGradient>
<linearGradient id="paint13_linear_1748_12289" x1="40.5599" y1="13.9425" x2="40.5599" y2="9.56925" gradientUnits="userSpaceOnUse">
<stop stop-color="#0292FF"/>
<stop offset="1" stop-color="#0259FF"/>
</linearGradient>
<linearGradient id="paint14_linear_1748_12289" x1="40.5599" y1="13.9425" x2="40.5599" y2="9.56925" gradientUnits="userSpaceOnUse">
<stop stop-color="#0292FF"/>
<stop offset="1" stop-color="#0259FF"/>
</linearGradient>
<linearGradient id="paint15_linear_1748_12289" x1="40.5599" y1="13.9425" x2="40.5599" y2="9.56925" gradientUnits="userSpaceOnUse">
<stop stop-color="#0292FF"/>
<stop offset="1" stop-color="#0259FF"/>
</linearGradient>
<linearGradient id="paint16_linear_1748_12289" x1="40.5599" y1="33.8192" x2="40.5599" y2="29.4459" gradientUnits="userSpaceOnUse">
<stop stop-color="#0292FF"/>
<stop offset="1" stop-color="#0259FF"/>
</linearGradient>
<clipPath id="clip0_1748_12289">
<rect width="46.4" height="16" fill="white"/>
</clipPath>
</defs>
</svg>
