<svg width="48" height="16" viewBox="0 0 48 16" fill="none" xmlns="http://www.w3.org/2000/svg">
<path d="M13.9239 3.21166C13.9239 3.21166 11.8924 0.199951 7.29532 0.199951C3.49988 0.199951 0.666748 2.2977 0.666748 3.58832C0.666748 5.04037 3.49988 5.7933 3.49988 7.99827H8.41828C8.41828 6.70765 4.14168 6.00853 4.14168 3.21166C4.14168 0.630418 10.7703 0.845262 13.9243 3.21166H13.9239Z" fill="#00ADEE"/>
<path d="M13.9239 12.7849C13.9239 12.7849 11.8924 15.7966 7.29532 15.7966C3.49988 15.7966 0.666748 13.6989 0.666748 12.4082C0.666748 10.9562 3.49988 10.1495 3.49988 7.99829H8.41828C8.41828 9.28891 4.14168 9.98842 4.14168 12.7849C4.14168 15.3661 10.7703 15.1513 13.9243 12.7849H13.9239Z" fill="#FAA41B"/>
<path d="M0.720167 3.15786C0.666748 3.31929 0.666748 3.48071 0.666748 3.58833C0.666748 5.04037 3.49988 5.7933 3.49988 7.99828C3.49988 10.2033 0.666748 11.01 0.666748 12.4082C0.666748 12.5158 0.666748 12.6773 0.720167 12.7849C0.345847 11.3866 5.31728 10.2036 7.61622 8.96644C8.09699 8.64359 8.41789 8.32113 8.41789 7.94447C8.41789 7.5682 8.09699 7.24535 7.61622 6.92289C5.31728 5.7391 0.345847 4.55571 0.720167 3.15747V3.15786Z" fill="#DA1A23"/>
<path d="M13.7341 8.70016H14.3693C14.2897 9.01209 14.131 9.24604 13.8136 9.40201C13.5758 9.55797 13.258 9.71394 12.7819 9.71394C12.3058 9.71394 11.9085 9.55797 11.6707 9.24604C11.3533 9.01209 11.1946 8.62218 11.1946 8.07629C11.1946 7.60839 11.3533 7.21848 11.6707 6.90654C11.9085 6.6726 12.3058 6.51663 12.7819 6.51663C13.3376 6.51663 13.7341 6.6726 14.0515 6.90654C14.2897 7.21848 14.4484 7.60839 14.4484 8.07629V8.31024H12.1471C12.1471 8.54419 12.2263 8.70016 12.385 8.85612C12.4645 8.93411 12.6228 9.01209 12.8611 9.01209C13.0198 9.01209 13.0993 9.01209 13.258 8.93411H13.3376C13.3376 8.85612 13.3376 8.85612 13.4167 8.85612C13.4167 8.77814 13.4167 8.77814 13.4963 8.77814C13.5754 8.70016 13.655 8.70016 13.7341 8.70016ZM12.1471 7.76436H13.4963C13.4963 7.60839 13.4167 7.45243 13.3376 7.37444C13.1789 7.21848 13.0198 7.21848 12.8611 7.21848C12.6232 7.21848 12.4645 7.21848 12.3854 7.37444C12.2263 7.45243 12.1471 7.60839 12.1471 7.76436ZM18.3375 9.63596H17.861C17.7818 9.63596 17.6231 9.55797 17.5436 9.47999C17.4644 9.47999 17.4644 9.32402 17.4644 9.24604V7.68638C17.4644 7.53041 17.3849 7.37444 17.2262 7.29646C17.147 7.21848 16.9883 7.14049 16.8293 7.14049C16.6706 7.14049 16.5119 7.21848 16.4327 7.29646C16.274 7.37444 16.274 7.53041 16.274 7.68638V9.63596H15.3215V7.84234C15.3215 7.29646 15.4801 6.98453 15.7975 6.82856C16.1153 6.59461 16.4327 6.51663 16.8293 6.51663C17.2262 6.51663 17.5436 6.59461 17.861 6.75058C18.1784 6.98453 18.3375 7.29646 18.3375 7.84234V9.63596ZM21.5118 5.65881H21.9878C22.1469 5.65881 22.2261 5.7368 22.3056 5.81478C22.3848 5.89276 22.4643 5.97075 22.4643 6.04873V8.31024C22.4643 8.85612 22.2261 9.24604 21.9087 9.40201C21.5118 9.55797 21.1944 9.71394 20.7183 9.71394C20.4804 9.71394 20.3213 9.63596 20.0835 9.55797C19.8453 9.55797 19.6866 9.40201 19.5279 9.24604C19.29 9.01209 19.2101 8.62217 19.2101 8.15428C19.2101 7.60839 19.2896 7.21848 19.5279 6.98453C19.8453 6.67259 20.1626 6.51663 20.5596 6.51663C20.7974 6.51663 20.9561 6.59461 21.1152 6.6726C21.2739 6.75058 21.4326 6.82856 21.5118 6.98453V5.65881ZM20.0835 8.07629C20.0835 8.38823 20.1626 8.62217 20.2422 8.77814C20.4009 8.93411 20.5596 9.01209 20.7974 9.01209C21.0353 9.01209 21.2739 8.93411 21.3531 8.77814C21.5118 8.62217 21.5118 8.38823 21.5118 8.07629C21.5118 7.84234 21.5118 7.60839 21.3531 7.45243C21.1944 7.29646 21.0357 7.21848 20.7974 7.21848C20.5596 7.21848 20.4009 7.29646 20.2418 7.45243C20.1626 7.60839 20.0831 7.84234 20.0831 8.07629H20.0835ZM23.8134 9.32402C23.5756 9.24604 23.496 9.01209 23.4165 8.77814C23.3373 8.54419 23.2578 8.31024 23.2578 8.07629C23.2578 7.84234 23.3373 7.68638 23.3373 7.45243C23.4165 7.21848 23.496 7.06251 23.6547 6.90654C23.8926 6.75058 24.21 6.59461 24.5278 6.51663C24.9243 6.51663 25.2417 6.51663 25.4799 6.59461C25.8769 6.75058 26.1151 6.90654 26.2738 7.21848C26.4325 7.45243 26.4325 7.76436 26.4325 8.07629C26.4325 8.31024 26.4325 8.54419 26.353 8.70016C26.353 8.85612 26.2738 9.01209 26.1151 9.16806C25.956 9.40201 25.6386 9.55797 25.3212 9.63596C25.0834 9.71394 24.7656 9.71394 24.4482 9.63596C24.2104 9.55797 23.9721 9.47999 23.8134 9.32402ZM24.3691 7.37444C24.2104 7.53041 24.1308 7.76436 24.1308 8.15428C24.21 8.46621 24.21 8.70016 24.3687 8.85612C24.4482 8.93411 24.5278 8.93411 24.6865 9.01209H25.0834C25.1625 9.01209 25.3212 8.93411 25.4008 8.77814C25.4799 8.62217 25.5595 8.38823 25.5595 8.07629C25.5595 7.84234 25.5595 7.60839 25.4008 7.45243C25.3212 7.37444 25.2421 7.21848 25.0834 7.21848C24.9243 7.14049 24.8451 7.14049 24.6865 7.21848C24.5278 7.21848 24.4486 7.29646 24.3691 7.37444ZM27.3847 9.63596V8.15428C27.3847 7.84234 27.3847 7.60839 27.5434 7.37444C27.6229 7.21848 27.7812 7.06251 27.9403 6.90654C28.099 6.82856 28.2577 6.75058 28.4959 6.6726C28.7338 6.59461 28.9716 6.59461 29.2103 6.59461H29.2894V7.37444H29.0516C28.7338 7.37444 28.5751 7.45243 28.4959 7.53041C28.3372 7.68638 28.2581 7.84234 28.2581 8.07629V9.63596H27.3847ZM31.0355 10.3378C31.0355 10.4938 31.0355 10.5718 30.9559 10.6497C30.7972 10.7277 30.7181 10.7277 30.6385 10.7277H30.1624V7.92033C30.1624 7.37444 30.3211 6.98453 30.7181 6.82856C31.0355 6.59461 31.4324 6.51663 31.8293 6.51663C32.0672 6.51663 32.305 6.59461 32.5433 6.59461C32.7811 6.67259 32.9402 6.82856 33.0193 6.90654C33.3371 7.21848 33.4163 7.60839 33.4163 8.07629C33.4163 8.54419 33.3371 8.93411 33.0193 9.24604C32.7815 9.55797 32.4641 9.71394 32.0672 9.71394C31.8293 9.71394 31.6702 9.63596 31.4324 9.55797C31.2737 9.47999 31.1942 9.40201 31.0355 9.24604V10.3378ZM32.5433 8.15428C32.5433 7.84234 32.4641 7.60839 32.3846 7.45243C32.2259 7.29646 32.0672 7.21848 31.7498 7.21848C31.5119 7.21848 31.3528 7.29646 31.2737 7.45243C31.115 7.60839 31.0355 7.84234 31.0355 8.15428C31.0355 8.38823 31.1146 8.62217 31.2733 8.77814C31.3528 8.93411 31.5911 9.01209 31.8289 9.01209C32.0672 9.01209 32.2259 8.93411 32.3846 8.77814C32.4641 8.62217 32.5433 8.38823 32.5433 8.15428ZM36.5114 7.45243C36.4323 7.29646 36.194 7.21848 36.0353 7.21848C35.718 7.21848 35.5593 7.29646 35.4006 7.45243C35.321 7.60839 35.2419 7.76436 35.2419 8.07629V9.63596H34.3685V5.7368H34.7654C34.9241 5.7368 35.0032 5.7368 35.0832 5.81478C35.1623 5.89276 35.2419 5.97075 35.2419 6.04873V6.98453C35.4006 6.75058 35.6384 6.59461 35.8767 6.59461C36.194 6.51663 36.4323 6.51663 36.7497 6.59461C36.9875 6.67259 37.1462 6.82856 37.3053 7.06251C37.5431 7.21848 37.6227 7.53041 37.6227 7.84234V9.63596H36.7493V8.07629C36.7493 7.92033 36.6701 7.84234 36.6701 7.76436C36.6701 7.60839 36.591 7.53041 36.5114 7.45243ZM38.5749 6.59461H39.051C39.1305 6.59461 39.2892 6.59461 39.3687 6.6726C39.4479 6.75058 39.5274 6.90654 39.5274 6.98453V9.63596H38.5745V6.59461H38.5749ZM38.5749 5.7368H39.051C39.1305 5.7368 39.2892 5.7368 39.3687 5.81478C39.4479 5.89276 39.5274 5.97075 39.5274 6.04873V6.36066H38.5745V5.7368H38.5749ZM43.3369 9.63596H42.8604C42.7017 9.63596 42.6226 9.55797 42.543 9.47999C42.4639 9.47999 42.3843 9.32402 42.3843 9.24604V7.68638C42.3843 7.53041 42.3843 7.37444 42.2257 7.29646C42.067 7.21848 41.9874 7.14049 41.8287 7.14049C41.67 7.14049 41.5113 7.21848 41.3526 7.29646C41.2735 7.37444 41.1939 7.53041 41.1939 7.68638V9.63596H40.3209V7.84234C40.3209 7.29646 40.4005 6.98453 40.7178 6.82856C41.0352 6.59461 41.4322 6.51663 41.7496 6.51663C42.1465 6.51663 42.543 6.59461 42.8604 6.75058C43.1782 6.98453 43.3369 7.29646 43.3369 7.84234V9.63596ZM46.1938 8.07629C46.1147 8.15428 45.9556 8.23226 45.7177 8.23226C45.4795 8.31024 45.4003 8.31024 45.4003 8.31024C45.2417 8.31024 45.1621 8.38823 45.0826 8.46621C45.0034 8.54419 45.0034 8.62217 45.0034 8.70016C45.0034 8.77814 45.0034 8.93411 45.0826 9.01209C45.1621 9.01209 45.3208 9.09007 45.4003 9.09007C45.7177 9.09007 45.8764 9.01209 46.0351 8.85612C46.1147 8.77814 46.1938 8.62217 46.1938 8.38823V8.07629ZM46.4321 9.47999C46.2734 9.55797 46.0351 9.63596 45.8764 9.63596C45.6382 9.63596 45.4795 9.71394 45.3208 9.71394C45.0034 9.71394 44.686 9.63596 44.4478 9.47999C44.2099 9.32402 44.1304 9.09007 44.1304 8.70016C44.1304 8.38823 44.2099 8.15428 44.4478 8.07629C44.686 7.92033 44.9239 7.84234 45.2417 7.76436H45.4003C45.4795 7.76436 45.559 7.76436 45.6382 7.68638C46.0351 7.68638 46.1938 7.60839 46.1938 7.45243C46.1938 7.29646 46.1147 7.21848 46.0351 7.21848C45.8764 7.14049 45.7177 7.14049 45.6382 7.14049C45.4795 7.14049 45.4003 7.14049 45.3208 7.21848C45.2417 7.21848 45.1621 7.29646 45.0826 7.37444H44.2099C44.2891 7.14049 44.3686 6.90654 44.6065 6.75058C44.8447 6.59461 45.1621 6.51663 45.559 6.51663C46.1147 6.51663 46.4321 6.59461 46.6699 6.75058C46.9082 6.90654 47.0668 7.14049 47.0668 7.37444V8.38823C47.0668 8.70016 46.9873 8.93411 46.9082 9.16806C46.7495 9.32402 46.5908 9.40201 46.4321 9.47999Z" fill="white"/>
</svg>
