<svg width="48" height="14" viewBox="0 0 48 14" fill="none" xmlns="http://www.w3.org/2000/svg">
<path d="M30.0611 7.67148V5.59895V5.54791C30.0596 5.52161 30.0661 5.50537 30.0971 5.50924C30.1087 5.51079 30.1214 5.50924 30.1342 5.50924H31.9666C32.0362 5.50924 32.0362 5.50924 32.0594 5.57111L33.2414 8.71973L33.2569 8.76072C33.2635 8.78005 33.2712 8.79784 33.2975 8.79359C33.3234 8.78856 33.3138 8.76729 33.3138 8.7526C33.313 8.62423 33.3118 8.49508 33.3099 8.36593C33.3064 8.07477 33.3022 7.78245 33.2975 7.49129C33.2898 6.98244 33.2813 6.47513 33.2743 5.96628C33.2716 5.83095 33.2724 5.69407 33.2689 5.55796C33.2681 5.51852 33.2813 5.51001 33.3192 5.51001C33.6737 5.51117 34.0287 5.51079 34.3825 5.51079C34.4328 5.51079 34.4328 5.51195 34.4339 5.56492V9.74672C34.4339 9.84377 34.4486 9.83372 34.3496 9.83372H32.5168C32.4233 9.83372 32.4453 9.843 32.4159 9.7618C32.0215 8.70195 31.6287 7.64209 31.2354 6.58185C31.2304 6.56793 31.2242 6.55479 31.2207 6.54087C31.2145 6.51844 31.2014 6.50761 31.1778 6.51109C31.1534 6.51535 31.1585 6.53584 31.1585 6.55208C31.16 6.67581 31.1631 6.80032 31.1647 6.92367C31.1681 7.1866 31.172 7.44915 31.1763 7.71208L31.2118 9.76915C31.2134 9.83372 31.2138 9.83449 31.15 9.83449H30.1369C30.0507 9.83449 30.0623 9.84377 30.0623 9.76103C30.0607 9.06271 30.0607 8.36748 30.0607 7.67109L30.0611 7.67148ZM21.44 7.67032V5.59779C21.44 5.57768 21.4408 5.55912 21.44 5.53901C21.4392 5.51852 21.4466 5.50692 21.4694 5.50808C21.4845 5.50924 21.4992 5.50808 21.5138 5.50808C22.2922 5.50808 23.0698 5.50692 23.8482 5.50924C24.097 5.50827 24.3442 5.55052 24.5786 5.63413C24.8632 5.73699 25.0321 5.93419 25.089 6.22419C25.1547 6.56097 25.1423 6.89583 25.041 7.22681C25.0004 7.35828 24.9173 7.45031 24.7963 7.51372C24.7066 7.55922 24.6109 7.59177 24.5121 7.61039C24.495 7.61387 24.478 7.61696 24.4618 7.62199C24.4556 7.62392 24.449 7.63049 24.4483 7.63668C24.4459 7.64828 24.456 7.65215 24.466 7.65408C24.5395 7.66491 24.6118 7.67535 24.6834 7.69661C24.7259 7.70899 24.7676 7.72368 24.8082 7.74108C24.954 7.80295 25.0522 7.90889 25.1114 8.05351C25.1559 8.16332 25.1814 8.27661 25.191 8.39339C25.2142 8.67179 25.2023 8.94709 25.1238 9.21737C25.1098 9.26648 25.089 9.31288 25.0685 9.35967C25.0004 9.51047 24.8883 9.61757 24.7375 9.68717C24.5724 9.76296 24.3964 9.79544 24.2178 9.81555C24.0728 9.83179 23.9278 9.83256 23.7824 9.83256H21.522C21.4415 9.83256 21.4415 9.83256 21.4415 9.75059C21.44 9.05652 21.44 8.36323 21.44 7.67032ZM23.151 8.04848V8.04577H22.6715C22.6151 8.04577 22.6143 8.04616 22.6143 8.10107V8.81563C22.6143 8.88213 22.6124 8.87904 22.6789 8.87904C22.9515 8.87904 23.2248 8.87981 23.4978 8.87827C23.6085 8.87765 23.7187 8.86376 23.8261 8.83689C23.8647 8.82909 23.9006 8.81115 23.93 8.78493C23.9594 8.7587 23.9814 8.72513 23.9935 8.68764C24.0474 8.5322 24.0465 8.363 23.9908 8.20817C23.981 8.17911 23.9641 8.15295 23.9416 8.13208C23.9191 8.11122 23.8918 8.0963 23.8621 8.08869C23.7824 8.06376 23.6996 8.05023 23.6162 8.04848C23.4615 8.04693 23.3064 8.04848 23.151 8.04848ZM23.1576 6.47088H22.6773C22.607 6.47088 22.6143 6.47088 22.6143 6.53468C22.6143 6.72917 22.6135 6.92405 22.6151 7.11855C22.6151 7.15644 22.5973 7.204 22.624 7.23068C22.651 7.25775 22.6994 7.24073 22.738 7.24073C22.9492 7.24189 23.1614 7.23841 23.3729 7.24421C23.5121 7.24808 23.6475 7.23455 23.7824 7.20168C23.8223 7.19416 23.859 7.17485 23.8879 7.14625C23.9167 7.11764 23.9362 7.08106 23.944 7.04121C23.9761 6.91062 23.9721 6.77376 23.9324 6.64527C23.9222 6.60979 23.9029 6.57759 23.8765 6.55183C23.8501 6.52607 23.8174 6.50763 23.7816 6.49833C23.7154 6.47875 23.6465 6.46961 23.5775 6.47127C23.4383 6.47049 23.2983 6.47049 23.1576 6.47049V6.47088ZM41.31 9.82869C41.2969 9.80163 41.3034 9.77456 41.3027 9.74865C41.2992 9.54372 41.3092 9.33995 41.2961 9.1354C41.2901 9.06007 41.2717 8.98624 41.2416 8.91693C41.1925 8.79784 41.1008 8.73288 40.9775 8.70736C40.927 8.6966 40.8756 8.69129 40.824 8.69151C40.5502 8.69228 40.2768 8.69151 40.0042 8.69228C39.9404 8.69228 39.9404 8.69305 39.9404 8.75492V9.76876C39.9404 9.83759 39.9462 9.83101 39.877 9.83101H38.828C38.7592 9.83101 38.7661 9.83759 38.7661 9.7676V5.57072V5.54172C38.7638 5.51736 38.7727 5.50499 38.7994 5.50731C38.8141 5.50885 38.8288 5.50731 38.8435 5.50731C39.565 5.50731 40.2865 5.50576 41.0084 5.50808C41.272 5.50704 41.5347 5.53992 41.7899 5.60591C42.1816 5.70915 42.4043 5.95971 42.4801 6.34753C42.5253 6.57837 42.54 6.81076 42.5327 7.04431C42.5292 7.24615 42.5023 7.4469 42.4522 7.64248C42.4109 7.79908 42.3177 7.90928 42.1789 7.98816C42.0559 8.05776 41.9229 8.10068 41.7868 8.13509C41.7752 8.13819 41.7624 8.13935 41.7516 8.14399C41.7354 8.15056 41.7064 8.14321 41.7102 8.17299C41.7137 8.20237 41.7404 8.19116 41.7574 8.19348C41.8239 8.20005 41.8889 8.21088 41.9534 8.22789C42.2543 8.30677 42.4225 8.50475 42.4801 8.80209C42.4971 8.88832 42.501 8.97609 42.5017 9.06348C42.5033 9.29935 42.5025 9.53521 42.5025 9.77147C42.5025 9.82947 42.5017 9.83063 42.4491 9.83063H41.3413C41.3294 9.8314 41.3197 9.82908 41.31 9.82831V9.82869ZM39.9397 7.10385V7.63668C39.9397 7.69855 39.9404 7.69932 40.0042 7.69932H40.9052C40.9516 7.69932 40.9984 7.69507 41.0448 7.68849C41.1867 7.66916 41.2679 7.59183 41.2976 7.45301C41.3189 7.35064 41.3293 7.2463 41.3286 7.14175C41.3286 6.99868 41.3236 6.85561 41.2791 6.71641C41.2681 6.67882 41.2479 6.64457 41.2203 6.61681C41.1926 6.58905 41.1585 6.56865 41.1209 6.55749C41.0342 6.52968 40.9436 6.51584 40.8526 6.51651C40.5672 6.51457 40.2819 6.51264 39.9965 6.51148C39.9404 6.51148 39.9397 6.51148 39.9397 6.56561V7.10385ZM42.9955 7.77897C42.9955 7.58177 42.9889 7.38457 42.997 7.18815C43.0075 6.93797 43.0272 6.68819 43.0968 6.44497C43.1243 6.34831 43.161 6.25667 43.2093 6.16812C43.3204 5.95818 43.5044 5.79606 43.7267 5.71224C44.0995 5.5689 44.495 5.49398 44.8944 5.49107C45.1434 5.48797 45.3917 5.49184 45.6395 5.52316C45.8397 5.54632 46.0368 5.59065 46.2276 5.6554C46.5826 5.77797 46.8154 6.015 46.9287 6.36957C46.9882 6.55904 47.0269 6.75121 47.0439 6.94764C47.0814 7.38303 47.069 7.81764 47.0269 8.25148C46.9993 8.55444 46.937 8.85323 46.8413 9.14197C46.7585 9.3848 46.5965 9.54759 46.3684 9.65431C46.1863 9.73899 45.9937 9.78577 45.7961 9.81555C45.3503 9.88283 44.9025 9.87509 44.4548 9.84145C44.2045 9.82032 43.9587 9.76261 43.7251 9.67016C43.6028 9.62573 43.4906 9.55727 43.3951 9.46882C43.2996 9.38037 43.2228 9.27371 43.1691 9.15512C43.0821 8.96719 43.0283 8.76558 43.0102 8.55927C42.9843 8.3002 42.992 8.0392 42.9955 7.77897ZM45.8619 7.61889V7.23996C45.8619 7.13943 45.8503 7.04121 45.8317 6.94223C45.7814 6.67001 45.6778 6.55827 45.4265 6.50645C45.4149 6.50413 45.4021 6.50259 45.3905 6.50065C45.2065 6.47359 45.0224 6.48132 44.8376 6.49447C44.7195 6.50132 44.6027 6.52302 44.49 6.55904C44.4393 6.57379 44.3934 6.60148 44.3567 6.63938C44.32 6.67728 44.2939 6.72409 44.2808 6.77519C44.2522 6.87572 44.2344 6.97896 44.2232 7.08259C44.1857 7.42479 44.1872 7.76815 44.1961 8.11073C44.2003 8.28087 44.2216 8.44945 44.28 8.61263C44.3054 8.68477 44.3565 8.74505 44.4235 8.78199C44.4664 8.80673 44.5124 8.82452 44.5596 8.83689C44.6667 8.86589 44.7776 8.87711 44.8886 8.87749C45.0881 8.87981 45.2869 8.87053 45.4806 8.81408C45.6411 8.76807 45.7416 8.66676 45.7888 8.50939C45.8228 8.39725 45.8433 8.28241 45.8479 8.16525C45.8545 8.00556 45.8561 7.84548 45.8619 7.61889ZM12.2675 7.66143V5.58889C12.2675 5.49764 12.2551 5.50924 12.351 5.50924C12.6889 5.50847 13.0261 5.50924 13.3641 5.50924C13.3807 5.50924 13.3989 5.51001 13.4155 5.50924C13.4379 5.50847 13.446 5.51929 13.4453 5.54056C13.4445 5.55719 13.4453 5.57497 13.4453 5.5916V7.05127C13.4453 7.06596 13.4464 7.08065 13.4453 7.09496C13.4399 7.1344 13.4584 7.14329 13.4959 7.14329C13.9661 7.14175 14.4371 7.14252 14.9073 7.14252C14.9649 7.14252 14.9653 7.14175 14.9653 7.08065V6.57721V5.57729C14.9653 5.50112 14.9591 5.51001 15.0314 5.51001H16.0661C16.1496 5.51001 16.1399 5.49841 16.1399 5.58348V9.77263C16.1399 9.83449 16.1469 9.83179 16.0808 9.83179H15.024C14.9583 9.83179 14.9649 9.83411 14.9649 9.77263V8.21823C14.9649 8.12543 14.9761 8.13625 14.8829 8.13625H13.5156C13.436 8.13625 13.4449 8.12581 13.4449 8.20585V9.74556C13.4449 9.76219 13.4441 9.77997 13.4449 9.7966C13.446 9.82096 13.4379 9.83411 13.4116 9.8314H12.2957C12.2737 9.83256 12.2655 9.82096 12.2667 9.80047C12.2675 9.78345 12.2667 9.76567 12.2667 9.74904C12.2675 9.05304 12.2675 8.35743 12.2675 7.66104V7.66143ZM29.7526 9.83179H28.6215C28.5516 9.83179 28.5616 9.84493 28.5388 9.76876C28.4746 9.55996 28.4112 9.35039 28.3455 9.14236C28.3238 9.07508 28.3377 9.08668 28.272 9.08668C27.7894 9.08591 27.3065 9.08668 26.8239 9.08668C26.764 9.08668 26.764 9.08668 26.747 9.14661L26.5734 9.76373C26.554 9.83179 26.554 9.83179 26.4875 9.83179H25.3395C25.333 9.80395 25.3461 9.78229 25.3527 9.76103C25.6674 8.72128 25.9829 7.68192 26.2988 6.64217L26.6225 5.57497C26.6426 5.50924 26.6426 5.50924 26.7114 5.50924H28.3586C28.4216 5.50924 28.4224 5.50924 28.4394 5.56531L29.7425 9.79467C29.7448 9.80317 29.7471 9.81284 29.7529 9.83179H29.7526ZM27.0126 8.24723H28.0968L27.5683 6.44807C27.5644 6.43415 27.5586 6.421 27.5544 6.40708C27.5536 6.40553 27.5497 6.40476 27.5478 6.40476C27.5381 6.40399 27.5478 6.41211 27.54 6.40399C27.3649 7.01569 27.1897 7.62624 27.0126 8.24723ZM21 9.83179H19.8717C19.8028 9.83179 19.8114 9.84648 19.7878 9.76992L19.5964 9.14932C19.577 9.08591 19.577 9.08591 19.5136 9.08591H18.0729C18.0122 9.08591 18.0122 9.08591 17.9956 9.14507C17.9349 9.35773 17.8741 9.5704 17.815 9.78345C17.8061 9.81477 17.7972 9.83256 17.7581 9.83256C17.3769 9.83101 16.9945 9.83179 16.6132 9.83179C16.6036 9.83179 16.5939 9.83256 16.5827 9.82096L16.7203 9.36431C17.1016 8.10609 17.4848 6.84827 17.8668 5.58967C17.8718 5.57343 17.8784 5.55719 17.8815 5.54056C17.8854 5.51736 17.8977 5.50692 17.9213 5.50847C17.9364 5.50924 17.9511 5.50847 17.9658 5.50847H19.5987C19.6702 5.50847 19.6702 5.50847 19.6915 5.57807C20.1257 6.98476 20.5588 8.39261 20.9926 9.79969C20.9949 9.80743 20.9957 9.81439 21.0004 9.83179H21ZM18.8049 6.40244L18.7894 6.40205L18.2616 8.24723H19.345C19.1648 7.62972 18.9843 7.01608 18.8049 6.40283V6.40244ZM35.0058 5.50885H38.0957C38.19 5.50885 38.1761 5.49725 38.1769 5.59083C38.1776 5.8584 38.1769 6.12636 38.1769 6.39393C38.1769 6.46353 38.1865 6.46121 38.1103 6.46121H36.2706C36.1685 6.46121 36.1824 6.44807 36.1824 6.55169C36.1817 6.75598 36.1817 6.96027 36.1824 7.16456C36.1824 7.24499 36.1724 7.24073 36.2567 7.24073H37.9936C38.0454 7.24073 38.0462 7.24112 38.0462 7.29255V7.97849C38.0462 8.05157 38.0489 8.04577 37.9781 8.04577H36.2861C36.1824 8.04577 36.1824 8.04577 36.1824 8.1494V8.80596C36.1824 8.88871 36.1766 8.87827 36.2598 8.87827H38.1363C38.2291 8.87827 38.2175 8.86899 38.2175 8.96101C38.2182 9.23129 38.2175 9.5008 38.2175 9.77108C38.2175 9.83024 38.2167 9.83101 38.1575 9.83101H35.0684C35.0081 9.83101 35.0074 9.83024 35.0074 9.76528V8.25457V5.5974C35.0058 5.57188 35.0058 5.54559 35.0058 5.50924V5.50885ZM46.9619 5.24205C46.9557 5.23393 46.9588 5.22504 46.9588 5.21692L46.9654 4.94625C46.9557 4.94896 46.9565 4.95785 46.9546 4.96404C46.9264 5.04949 46.897 5.13533 46.8703 5.22117C46.8649 5.23819 46.8575 5.24437 46.8397 5.24321C46.8243 5.24167 46.8088 5.24321 46.7933 5.24321C46.769 5.24321 46.769 5.24321 46.7609 5.22079L46.675 4.96713C46.673 4.95965 46.669 4.95284 46.6634 4.94741V4.97448L46.67 5.21615C46.6708 5.24631 46.675 5.24321 46.6418 5.24321H46.5776C46.5679 5.24321 46.5629 5.24051 46.5637 5.23007V5.21537V4.86737C46.5637 4.83567 46.5606 4.84069 46.5923 4.84031H46.7032C46.7357 4.84031 46.7357 4.84031 46.7454 4.87201L46.8046 5.06535C46.8065 5.07308 46.8096 5.08043 46.8127 5.08971C46.8235 5.07965 46.8227 5.06728 46.8266 5.05684C46.8459 4.99188 46.8656 4.92615 46.8834 4.86041C46.8881 4.84417 46.8946 4.83915 46.9117 4.83992C46.955 4.84147 46.9987 4.83992 47.0431 4.84069C47.0505 4.84069 47.0586 4.83915 47.0652 4.84456L47.0644 4.84649H47.0667V5.23896C47.0555 5.24283 47.0439 5.24167 47.0319 5.24167C47.0083 5.24051 46.9855 5.24089 46.9619 5.24167V5.24205ZM46.1797 4.93349C46.1797 4.90565 46.1805 4.87936 46.1797 4.85384C46.1789 4.84147 46.1855 4.83992 46.1959 4.83992H46.5006C46.5045 4.86776 46.5014 4.89483 46.503 4.92112C46.5037 4.93195 46.4975 4.93349 46.4886 4.93349H46.4156C46.3935 4.93349 46.3935 4.93427 46.3935 4.95631V5.18985C46.3935 5.20223 46.3928 5.2146 46.3935 5.22736C46.3943 5.23973 46.3881 5.24399 46.3765 5.24321C46.352 5.24211 46.3275 5.24211 46.303 5.24321C46.2868 5.24399 46.2841 5.23741 46.2841 5.22388C46.2849 5.14036 46.2841 5.05607 46.2841 4.97293C46.2841 4.96636 46.2833 4.95901 46.2841 4.95244C46.286 4.93659 46.2779 4.93311 46.2632 4.93349H46.1797Z" fill="white"/>
<path d="M9.68768 8.53339L9.68884 5.57191C9.68884 5.52164 9.69194 5.47138 9.6757 5.42304C9.62813 5.28152 9.50015 5.20226 9.34432 5.21927C9.20512 5.23435 9.09879 5.34764 9.08487 5.49844C9.07946 5.5518 9.08487 5.60594 9.08255 5.6593C9.07889 5.7339 9.04724 5.80439 8.99392 5.85671C8.94061 5.90902 8.86953 5.93932 8.79487 5.94156C8.71998 5.94267 8.64739 5.91576 8.59131 5.86612C8.53523 5.81648 8.49971 5.74768 8.49172 5.67322C8.48863 5.64035 8.48979 5.60594 8.48979 5.57268C8.48979 5.3488 8.49172 5.12454 8.48863 4.90066C8.48834 4.82224 8.45732 4.74707 8.40224 4.69126C8.34715 4.63546 8.27239 4.60347 8.19399 4.60215C8.1176 4.60112 8.04362 4.62887 7.98674 4.67987C7.92986 4.73088 7.89425 4.80141 7.88698 4.87746C7.88465 4.90066 7.88582 4.92463 7.88388 4.94783C7.86958 5.08742 7.76711 5.19104 7.62211 5.21308C7.50688 5.2301 7.36072 5.15199 7.31007 5.0414C7.28687 4.9892 7.2919 4.93082 7.2919 4.87552C7.2919 4.49775 7.2919 4.11882 7.29074 3.74104C7.29074 3.70508 7.29692 3.66758 7.283 3.63162C7.28377 3.62852 7.28687 3.62543 7.28571 3.6235C7.28377 3.61847 7.27991 3.6146 7.27681 3.61035C7.27295 3.59527 7.26367 3.58212 7.25748 3.5682C7.24003 3.52488 7.21269 3.48623 7.17764 3.45535C7.1426 3.42446 7.10082 3.4022 7.05564 3.39034C6.86734 3.34394 6.69411 3.47154 6.68869 3.6668C6.68483 3.8176 6.68676 3.96724 6.68792 4.11804C6.68792 4.17914 6.67787 4.23752 6.64616 4.29088C6.62302 4.33051 6.59121 4.36437 6.5531 4.38993C6.51499 4.41549 6.47158 4.43207 6.42614 4.43844C6.38069 4.4448 6.3344 4.44078 6.29074 4.42667C6.24707 4.41257 6.20717 4.38875 6.17404 4.357C6.11604 4.30287 6.10522 4.2383 6.08897 4.1714C6.08975 3.71282 6.09091 3.255 6.09091 2.79758C6.09091 2.78559 6.08279 2.77244 6.07854 2.76046C6.06844 2.74727 6.0612 2.73213 6.05727 2.71599C6.04512 2.67443 6.02365 2.63618 5.99451 2.60416C5.96536 2.57213 5.9293 2.54717 5.88907 2.53116C5.84498 2.51404 5.7974 2.50781 5.75039 2.51301C5.70337 2.51821 5.65831 2.53468 5.61902 2.56102C5.57973 2.58736 5.54739 2.6228 5.52473 2.66432C5.50207 2.70584 5.48977 2.75222 5.48887 2.79951C5.485 3.04079 5.48771 3.28091 5.48771 3.5218C5.48771 3.6726 5.4908 3.8234 5.48693 3.97304C5.48607 4.02114 5.4737 4.06834 5.45088 4.11068C5.42806 4.15303 5.39543 4.1893 5.35574 4.21648C5.31604 4.24365 5.27042 4.26093 5.22268 4.26688C5.17494 4.27283 5.12647 4.26727 5.08132 4.25067C5.0235 4.22728 4.97063 4.19317 4.92549 4.15014C4.9012 4.0744 4.88881 3.99535 4.88876 3.91582C4.88876 3.78512 4.89263 3.65482 4.88567 3.52528C4.87793 3.38222 4.76426 3.27395 4.61732 3.25655C4.54969 3.25082 4.48207 3.26777 4.42515 3.30474C4.36822 3.34171 4.32523 3.39659 4.30296 3.46071C4.28788 3.50595 4.28904 3.55351 4.28904 3.59952V4.39219C4.28904 4.4324 4.28788 4.47262 4.2786 4.51206C4.26553 4.57685 4.23066 4.63521 4.17979 4.67743C4.12893 4.71964 4.06514 4.74315 3.99904 4.74406C3.9329 4.7477 3.86752 4.72852 3.81382 4.68975C3.76012 4.65097 3.72136 4.59493 3.70401 4.531C3.69333 4.48895 3.68864 4.44561 3.69009 4.40224C3.69009 4.00398 3.69087 3.60648 3.68893 3.2086C3.69076 3.14237 3.66984 3.07751 3.62967 3.02482C3.5895 2.97213 3.5325 2.93478 3.46815 2.91899C3.33939 2.88419 3.22068 2.93098 3.13871 3.05162C3.08457 3.11194 3.08457 3.18656 3.08457 3.25964V5.10675C3.0838 5.23319 3.02503 5.32676 2.90942 5.37703C2.80733 5.42111 2.70371 5.41918 2.61052 5.34494C2.57161 5.3155 2.5404 5.2771 2.51953 5.23301C2.49866 5.18891 2.48875 5.14042 2.49065 5.09167C2.4922 4.92463 2.49413 4.75682 2.48988 4.59016C2.48723 4.52066 2.45969 4.45442 2.41228 4.40353C2.36486 4.35263 2.30073 4.32048 2.23159 4.31292C2.07228 4.29552 1.94159 4.38098 1.89905 4.52868C1.88707 4.57122 1.88591 4.61414 1.88591 4.6586V6.00304C1.88807 6.05699 1.87462 6.11041 1.84719 6.15691C1.81976 6.2034 1.7795 6.24101 1.73124 6.2652C1.68687 6.28977 1.6369 6.30243 1.58619 6.30196C1.53548 6.30149 1.48575 6.28791 1.44185 6.26253C1.39794 6.23715 1.36135 6.20084 1.33563 6.15713C1.30991 6.11342 1.29594 6.0638 1.29508 6.0131C1.29121 5.8623 1.29624 5.7115 1.29315 5.56186C1.29005 5.40023 1.20073 5.28732 1.0538 5.25523C0.908028 5.22314 0.781201 5.29042 0.709668 5.43696C0.700001 5.4563 0.703095 5.48723 0.666748 5.48027V11.1639C0.708121 11.1561 0.736348 11.1859 0.767281 11.2041C1.40528 11.573 2.04908 11.9306 2.6836 12.3053C2.83981 12.3981 3.00067 12.4793 3.15997 12.5667C3.17992 12.5844 3.2017 12.6 3.22493 12.6131C3.69705 12.8811 4.1684 13.1506 4.64052 13.4178C4.7136 13.4591 4.78243 13.5071 4.86053 13.5376C4.93168 13.5925 5.01443 13.6266 5.08944 13.6749C5.11689 13.6923 5.15247 13.6993 5.16677 13.7333H5.20699C5.21511 13.7031 5.24449 13.6973 5.26576 13.6842C5.48694 13.5535 5.71391 13.4328 5.9316 13.294C6.08279 13.1974 6.24403 13.1193 6.40101 13.033C6.59241 12.9286 6.77995 12.818 6.96941 12.7094C6.98875 12.6982 7.01427 12.6924 7.02432 12.668C7.14573 12.5988 7.2687 12.5327 7.39127 12.465C7.65331 12.3182 7.9128 12.1668 8.16963 12.0111C8.22337 11.979 8.28292 11.9596 8.33667 11.9268C8.52536 11.8119 8.71792 11.7025 8.90855 11.5919C9.13552 11.4593 9.36752 11.3336 9.59759 11.2072C9.66642 11.1701 9.68884 11.1279 9.68768 11.0502C9.68575 10.2123 9.68691 9.37323 9.68768 8.533V8.53339ZM7.27179 6.91326C7.26658 6.91098 7.26113 6.9093 7.25555 6.90823C7.26058 6.90939 7.26637 6.91055 7.2714 6.91326H7.27179ZM7.23622 6.90436C7.22887 6.9032 7.22075 6.9032 7.21379 6.9032L7.23622 6.90436ZM5.37635 9.2174C5.38253 9.2174 5.38872 9.21856 5.39568 9.21856C5.38872 9.21856 5.38253 9.2174 5.37635 9.2174ZM7.2424 10.2815H7.2482H7.2424ZM7.29383 10.2622L6.06152 10.2614H6.00081C5.88907 10.2606 5.89526 10.2715 5.89526 10.1609V9.31987C5.89526 9.29667 5.89448 9.2727 5.89526 9.2495C5.89719 9.2116 5.87979 9.19536 5.84151 9.19652L5.44827 9.20155C5.1544 9.20039 4.86169 9.19846 4.56783 9.19768C4.47735 9.19768 4.47657 9.19846 4.47657 9.2928V10.1462C4.47657 10.2746 4.48972 10.2614 4.35477 10.2614C3.92944 10.2626 3.50449 10.2633 3.07877 10.2633L3.07181 10.2606C3.06795 10.2525 3.06369 10.2436 3.05867 10.2355C3.0606 10.1953 3.06369 10.1551 3.06369 10.1156V7.054C3.06369 6.90939 3.05751 6.92834 3.18743 6.92834C3.61585 6.92834 4.04467 6.93066 4.47348 6.93143L4.47928 6.96855C4.47851 7.3092 4.47658 7.65102 4.47541 7.99167V8.00172C4.47232 8.04078 4.49281 8.05392 4.53032 8.05276C4.58059 8.05083 4.63163 8.05276 4.68228 8.05276H5.80593C5.89332 8.05276 5.89332 8.05199 5.89448 7.9646V7.04086C5.89448 7.01766 5.89526 6.99368 5.89448 6.97048C5.89448 6.94148 5.90763 6.92834 5.93702 6.92834H6.01822L7.29421 6.92756C7.29059 6.92487 7.2867 6.92254 7.28262 6.9206L7.29421 6.92756L7.29499 6.92834C7.3093 6.93955 7.31432 6.95347 7.31509 6.96855C7.31475 6.96081 7.31278 6.95324 7.30931 6.94631C7.30585 6.93938 7.30097 6.93326 7.29499 6.92834C7.29692 6.96468 7.30002 7.0018 7.30002 7.03815V10.15C7.30002 10.1872 7.29808 10.2235 7.29692 10.2606L7.29383 10.2626V10.2622ZM7.31703 6.98363V6.9728V6.98363Z" fill="url(#paint0_linear_1748_12312)"/>
<path d="M5.48876 1.26791C5.48876 1.40866 5.4876 1.54863 5.48876 1.68938C5.4907 1.86492 5.61134 1.99252 5.7807 1.99755C5.82039 1.99942 5.86005 1.99327 5.8973 1.97946C5.93456 1.96565 5.96865 1.94447 5.99753 1.91717C6.02641 1.88988 6.04949 1.85705 6.06538 1.82063C6.08127 1.78421 6.08966 1.74496 6.09003 1.70523C6.09583 1.41484 6.09467 1.1233 6.09003 0.832909C6.08694 0.660069 5.95083 0.539429 5.78186 0.539429C5.70233 0.541753 5.62689 0.575168 5.57173 0.632498C5.51657 0.689827 5.48609 0.766501 5.48683 0.846055C5.49379 0.986802 5.48876 1.12755 5.48876 1.26791Z" fill="#F3743F"/>
<path d="M4.289 2.45069C4.289 2.47389 4.28978 2.49786 4.2921 2.52106C4.31143 2.70589 4.49355 2.82769 4.67412 2.77317C4.73492 2.7577 4.78889 2.72252 4.82757 2.67313C4.86626 2.62374 4.88749 2.56292 4.88795 2.50018C4.89181 2.35325 4.88872 2.20554 4.88872 2.059H4.88795C4.88795 1.9051 4.89297 1.75121 4.88601 1.5977C4.8806 1.47204 4.80675 1.38774 4.68804 1.34444C4.6322 1.32424 4.5716 1.32118 4.51401 1.33564C4.45642 1.35011 4.40446 1.38145 4.36479 1.42564C4.30524 1.49214 4.28784 1.57141 4.28784 1.65764C4.28978 1.92328 4.289 2.18737 4.289 2.45069Z" fill="#F26545"/>
<path d="M6.99262 3.01262C7.03208 3.01247 7.07111 3.00455 7.10751 2.98931C7.1439 2.97407 7.17693 2.95181 7.20472 2.92381C7.23252 2.8958 7.25452 2.8626 7.26948 2.82609C7.28443 2.78958 7.29205 2.75048 7.2919 2.71102C7.28803 2.54746 7.14999 2.42102 6.97986 2.42489C6.90191 2.4255 6.82737 2.4569 6.77247 2.51223C6.71757 2.56757 6.68677 2.64236 6.68677 2.7203C6.68731 2.75972 6.69571 2.79863 6.71146 2.83476C6.72722 2.87089 6.75002 2.90352 6.77854 2.93074C6.80705 2.95795 6.8407 2.97921 6.87753 2.99327C6.91435 3.00733 6.95361 3.01391 6.99301 3.01262H6.99262Z" fill="#F4803A"/>
<path d="M4.58871 0.798902C4.62825 0.799105 4.66744 0.791513 4.70404 0.776559C4.74064 0.761604 4.77393 0.739582 4.80202 0.71175C4.8301 0.683918 4.85242 0.650823 4.8677 0.614358C4.88299 0.577893 4.89093 0.538773 4.89108 0.499235C4.89088 0.45973 4.8829 0.420651 4.86759 0.384231C4.85229 0.34781 4.82996 0.314761 4.80188 0.28697C4.7738 0.25918 4.74053 0.237191 4.70395 0.222261C4.66737 0.207331 4.62821 0.199752 4.58871 0.199955C4.50906 0.199749 4.43258 0.231141 4.37604 0.287244C4.3195 0.343348 4.28752 0.419585 4.28711 0.499235C4.28711 0.664728 4.42244 0.798902 4.58871 0.798902Z" fill="#F26545"/>
<defs>
<linearGradient id="paint0_linear_1748_12312" x1="0.667908" y1="8.12314" x2="9.68923" y2="8.12314" gradientUnits="userSpaceOnUse">
<stop stop-color="#EE304D"/>
<stop offset="0.927" stop-color="#F7962A"/>
</linearGradient>
</defs>
</svg>
