<svg width="48" height="14" viewBox="0 0 48 14" fill="none" xmlns="http://www.w3.org/2000/svg">
<path d="M3.73867 5.73983H5.06467V6.81976L7.16416 6.87385V0.80845C7.16416 0.737783 7.1277 0.691406 7.07136 0.691406H5.15527C5.10002 0.691406 5.06247 0.737783 5.06247 0.80845V3.6794H3.73646V0.80845C3.73646 0.737783 3.69889 0.691406 3.64364 0.691406H1.75408C1.69773 0.691406 1.66016 0.737783 1.66016 0.80845V6.73252L3.73867 6.7855V5.73983Z" fill="white"/>
<path d="M12.0262 0.785262C12.0086 0.714595 11.9743 0.691406 11.9301 0.691406H9.85491C9.8118 0.691406 9.77645 0.714595 9.75874 0.785262L8.00293 6.89593L13.7843 7.04944L12.0262 0.785262ZM10.3367 5.92644L10.8836 2.47359L11.4141 5.92644H10.3367Z" fill="white"/>
<path d="M21.9072 6.96223L22.8221 5.6239L23.515 7.29677L25.6741 7.35199L24.0785 3.80969L26.1183 0.828347C26.1714 0.746636 26.136 0.68811 26.0664 0.68811H23.9039C23.8816 0.688644 23.86 0.695453 23.8414 0.707761C23.8228 0.720072 23.8081 0.737376 23.7989 0.757676L21.9072 3.79423V0.808472C21.9072 0.737801 21.8718 0.691424 21.8199 0.691424H20.0519C19.9988 0.691424 19.9646 0.737801 19.9646 0.808472V7.20513L21.9094 7.25482L21.9072 6.96223Z" fill="white"/>
<path d="M32.1108 6.2166C32.1108 3.04092 28.5261 4.1694 28.5261 2.91283C28.5261 2.55286 28.8311 2.38944 29.2499 2.38944C29.7383 2.38944 30.2179 2.61028 30.6975 3.11159C30.705 3.12281 30.7154 3.13182 30.7276 3.13762C30.7398 3.14342 30.7534 3.14585 30.7668 3.14458C30.7803 3.14334 30.7932 3.13851 30.8041 3.13055C30.8151 3.12261 30.8236 3.11186 30.829 3.09944L31.8047 1.749C31.8225 1.72505 31.8314 1.69569 31.83 1.6659C31.8286 1.63612 31.8169 1.60774 31.797 1.58557C31.1074 0.785027 30.3052 0.42395 29.3284 0.42395C28.0024 0.42395 26.5813 1.07543 26.5813 3.15795C26.5813 6.49597 30.2091 5.16982 30.2091 6.54237C30.2091 6.96194 29.8698 7.17063 29.3814 7.17063C28.7704 7.17063 28.1659 6.85704 27.5582 6.03112C27.5239 5.98472 27.4708 5.97258 27.4366 6.03112L26.4907 7.3727L31.8688 7.51186C32.0348 7.10045 32.117 6.66015 32.1108 6.2166Z" fill="white"/>
<path d="M36.5297 0.785262C36.5121 0.714595 36.4767 0.691406 36.4336 0.691406H34.3584C34.3142 0.691406 34.2799 0.714595 34.2623 0.785262L32.3252 7.5209L38.4668 7.67993L36.5297 0.785262ZM34.8391 5.92644L35.3916 2.47359L35.9164 5.92644H34.8391Z" fill="white"/>
<path d="M42.3054 4.3418L42.8514 7.79578L45.0921 7.85428L47.0614 0.8194C47.0792 0.737689 47.0525 0.691313 46.9918 0.691313H45.1409C45.089 0.691313 45.0535 0.726646 45.045 0.801733L44.0667 4.88731L43.2667 0.801733C43.2582 0.743207 43.2226 0.691313 43.1708 0.691313H41.4412C41.3894 0.691313 41.3542 0.737689 41.3453 0.801733L40.5453 4.88731L39.5628 0.796211C39.5539 0.726646 39.5187 0.685791 39.4669 0.685791H37.6192C37.5584 0.685791 37.5319 0.732168 37.5496 0.813878L39.4777 7.71183L41.7641 7.77149L42.3054 4.3418Z" fill="white"/>
<path d="M19.0617 6.53241C19.0622 6.52572 19.0604 6.5191 19.0567 6.51354C19.0529 6.50801 19.0474 6.50387 19.041 6.50182C19.0346 6.49977 19.0278 6.49997 19.0215 6.50229C19.0152 6.50464 19.0099 6.50901 19.0065 6.51474C18.8782 6.70621 18.704 6.86258 18.4998 6.96965C18.2956 7.07668 18.0679 7.13097 17.8374 7.12756C16.8174 7.12756 16.3368 6.11612 16.3368 4.76677C16.3368 3.54552 16.7368 2.46341 17.8572 2.46341C18.0836 2.45482 18.3083 2.5043 18.5101 2.60714C18.7118 2.70997 18.8838 2.86273 19.0097 3.05085C19.0135 3.05619 19.0188 3.06023 19.0249 3.06239C19.031 3.06456 19.0377 3.06474 19.0439 3.0629C19.0502 3.06107 19.0557 3.05732 19.0597 3.05218C19.0636 3.04704 19.0659 3.04078 19.0661 3.03428V0.769561C19.0666 0.743921 19.0589 0.718792 19.0443 0.697765C19.0296 0.676742 19.0086 0.6609 18.9843 0.652513C18.5933 0.518015 18.1824 0.449718 17.7689 0.450445C15.518 0.450445 14.0671 2.42808 14.0671 4.91807C14.0575 5.65506 14.2024 6.3859 14.4925 7.06353L19.0628 7.1817L19.0617 6.53241Z" fill="white"/>
<path d="M4.06899 9.11295C4.06899 9.18255 4.10545 9.22339 4.16181 9.22339H6.07235C6.1276 9.22339 6.16518 9.17703 6.16518 9.11295V7.19938L4.06567 7.14417L4.06899 9.11295Z" fill="white"/>
<path d="M0.759568 9.22887H2.65575C2.71211 9.22887 2.74967 9.18251 2.74967 9.11844V7.1099L0.666748 7.05688V9.11295C0.666748 9.18251 0.704318 9.22887 0.759568 9.22887Z" fill="white"/>
<path d="M6.54098 9.22892H8.45153C8.47655 9.22675 8.50022 9.21658 8.51893 9.19984C8.53768 9.1831 8.55048 9.16075 8.55539 9.13615L8.79961 8.07723H10.9433L11.1875 9.13615C11.1925 9.16075 11.2053 9.1831 11.224 9.19984C11.2427 9.21658 11.2664 9.22675 11.2914 9.22892H13.2019C13.2627 9.22892 13.2892 9.1715 13.2716 9.08979L12.7887 7.37052L7.00838 7.22034L6.47138 9.08979C6.44593 9.1715 6.48019 9.22892 6.54098 9.22892Z" fill="white"/>
<path d="M23.1535 9.14714C23.16 9.17007 23.1737 9.19033 23.1926 9.20487C23.2115 9.2194 23.2347 9.22741 23.2585 9.22772H25.2553C25.3249 9.22772 25.3514 9.1703 25.316 9.0886L24.6806 7.67633L22.5215 7.62L23.1535 9.14714Z" fill="white"/>
<path d="M19.0551 9.2289H20.8231C20.8761 9.2289 20.9104 9.18254 20.9104 9.11847V7.58031L18.9656 7.52954V9.11294C18.9678 9.18254 19.0031 9.2289 19.0551 9.2289Z" fill="white"/>
<path d="M25.3437 8.07723C25.6811 8.51865 26.1159 8.87635 26.6141 9.12262C27.1124 9.36889 27.6608 9.49711 28.2167 9.49722C29.3537 9.49722 30.4167 8.94514 30.8786 7.84093L25.4962 7.69849L25.3437 7.91931C25.326 7.94185 25.3164 7.96966 25.3164 7.99827C25.3164 8.02688 25.326 8.05468 25.3437 8.07723Z" fill="white"/>
<path d="M31.0445 9.22888H32.9539C32.9791 9.22679 33.0029 9.21662 33.0218 9.19992C33.0407 9.18321 33.0537 9.16083 33.0589 9.13612L33.3031 8.07719H35.4479L35.6954 9.13612C35.7008 9.16075 35.7138 9.18302 35.7327 9.19972C35.7516 9.21639 35.7753 9.22664 35.8004 9.22888H37.7065C37.7684 9.22888 37.7938 9.17146 37.7773 9.08976L37.4734 8.00763L31.3318 7.84863L30.9749 9.08976C30.9439 9.17146 30.9837 9.22888 31.0445 9.22888Z" fill="white"/>
<path d="M42.016 9.12396C42.0245 9.18247 42.0589 9.22887 42.1107 9.22887H43.7386C43.7904 9.22887 43.8248 9.19461 43.8337 9.12396L44.0986 8.17876L41.8567 8.12134L42.016 9.12396Z" fill="white"/>
<path d="M38.8855 9.22894H40.512C40.5638 9.22894 40.5994 9.18258 40.6083 9.12404L40.7707 8.09272L38.4844 8.03418L38.7893 9.12404C38.7982 9.19472 38.8325 9.22894 38.8855 9.22894Z" fill="white"/>
<path d="M16.814 9.54691C17.2111 9.54853 17.6059 9.48817 17.9842 9.36799C18.0088 9.35949 18.0301 9.34356 18.0451 9.32237C18.0602 9.30118 18.0683 9.27585 18.0682 9.24987V7.50631L13.4968 7.38818C14.0814 8.70548 15.2405 9.54691 16.814 9.54691Z" fill="white"/>
<path d="M3.53983 11.8812H2.81716V11.5499C2.81716 11.4914 2.78291 11.4615 2.71329 11.4615H2.56412C2.4945 11.4615 2.46025 11.4914 2.46025 11.5499V13.0218C2.46025 13.0803 2.4945 13.1101 2.56412 13.1101H2.71329C2.78291 13.1101 2.81716 13.0803 2.81716 13.0218V12.5923H2.60942V12.1506H3.53983V13.0748C3.53983 13.406 3.33651 13.5706 2.92877 13.5706H2.34422C1.93648 13.5706 1.73315 13.406 1.73315 13.0748V11.4969C1.73315 11.1671 1.93684 11.0018 2.34422 11.0011H2.93319C3.34056 11.0011 3.54425 11.1664 3.54425 11.4969L3.53983 11.8812Z" fill="#8E909F"/>
<path d="M11.2581 13.564L11.1752 13.1808H10.5354L10.4481 13.564H9.73315L10.4193 10.9967H11.3034L11.9895 13.564H11.2581ZM10.6481 12.6806H11.0636L10.8591 11.7575L10.6481 12.6806Z" fill="#8E909F"/>
<path d="M18.8683 13.564H18.2207V11.0011H19.0097L19.4517 12.3725L19.8838 11.0011H20.6672V13.564H20.023V11.9364L19.6915 13.013H19.1931L18.8616 11.9452L18.8683 13.564Z" fill="#8E909F"/>
<path d="M27.0686 11.0011H27.7957V13.564H27.0686V11.0011Z" fill="#8E909F"/>
<path d="M35.4101 11.0011H36.0731V13.564H35.4521L34.8576 12.2168V13.564H34.1946V11.0011H34.8112L35.4057 12.3725L35.4101 11.0011Z" fill="#8E909F"/>
<path d="M44.2624 11.8812H43.5408V11.5499C43.5408 11.4914 43.5068 11.4615 43.4372 11.4615H43.288C43.2184 11.4615 43.1839 11.4914 43.1839 11.5499V13.0218C43.1839 13.0803 43.2184 13.1101 43.288 13.1101H43.4306C43.5002 13.1101 43.5343 13.0803 43.5343 13.0218V12.5923H43.3266V12.1506H44.2616V13.0748C44.2616 13.406 44.0582 13.5706 43.6514 13.5706H43.0614C42.6534 13.5706 42.4504 13.406 42.4504 13.0748V11.4969C42.4504 11.1671 42.6538 11.0018 43.0614 11.0011H43.6514C44.0582 11.0011 44.2616 11.1664 44.2616 11.4969L44.2624 11.8812Z" fill="#8E909F"/>
</svg>
