<svg width="48" height="16" viewBox="0 0 48 16" fill="none" xmlns="http://www.w3.org/2000/svg">
<g clip-path="url(#clip0_1748_12356)">
<path fill-rule="evenodd" clip-rule="evenodd" d="M15.8337 6.176C15.8337 6.176 15.8337 6.176 15.8337 6.176V6.17561C15.7182 6.15798 15.6017 6.15771 15.48 6.15743C15.3749 6.15718 15.2659 6.15693 15.1505 6.14545C16.5168 5.30774 17.8724 4.4774 19.2245 3.64918C20.0406 3.14933 20.8554 2.65026 21.6705 2.1508C21.6692 2.14718 21.6673 2.14279 21.6654 2.13832C21.6633 2.13324 21.6611 2.12805 21.6597 2.12373H17.242C17.1774 2.12373 17.1128 2.12343 17.0483 2.12313C16.9191 2.12253 16.79 2.12193 16.6608 2.12373C16.4339 2.12644 16.3264 2.2088 16.2599 2.42572C16.0302 3.18127 15.8009 3.93681 15.5739 4.69507C15.5311 4.83701 15.4871 4.97848 15.4431 5.11987C15.3339 5.47101 15.2249 5.82167 15.134 6.17804C15.133 6.17813 15.1321 6.17823 15.1311 6.17832C15.1281 6.18545 15.1244 6.19257 15.1205 6.19983C15.1139 6.21227 15.1071 6.22511 15.1037 6.23903C14.8516 7.07276 14.5991 7.90701 14.3465 8.74141L14.3463 8.74221C13.9807 9.95 13.6151 11.1581 13.2504 12.3654L13.1784 12.6024L13.1783 12.6027C13.064 12.9788 12.95 13.3536 12.8382 13.7303C12.7937 13.8815 12.8517 13.9666 12.9983 13.9832C13.0358 13.9873 13.0748 13.9867 13.113 13.9862C13.1257 13.9861 13.1382 13.9859 13.1506 13.9859H18.4066C18.893 13.9859 19.0701 13.8513 19.1946 13.3955L19.2544 13.178L19.2548 13.1764C19.4756 12.3729 19.6963 11.5697 19.9196 10.7665C20.2819 9.46151 20.6442 8.15922 21.0065 6.85731C21.0591 6.67016 20.993 6.4834 20.8267 6.36238C20.6941 6.26648 20.5418 6.24174 20.3817 6.23864C19.8836 6.23188 19.3857 6.22366 18.8878 6.21544C18.3899 6.20723 17.8919 6.19901 17.3939 6.19224C17.0224 6.18617 16.651 6.18305 16.2795 6.17993C16.1309 6.17869 15.9823 6.17744 15.8337 6.176ZM35.8033 3.50793C35.8591 3.4717 35.9119 3.43346 35.9638 3.3959C36.1125 3.28836 36.2533 3.18648 36.4338 3.15381C36.6801 3.11283 36.921 3.11515 37.1557 3.20021C37.3939 3.28567 37.5571 3.44768 37.6506 3.69515C37.6951 3.64836 37.7284 3.61279 37.7616 3.57683C38.03 3.29379 38.3532 3.13448 38.7492 3.13216C39.4239 3.12907 39.8419 3.59075 39.7421 4.25272C39.6739 4.70098 39.5738 5.14341 39.4737 5.58617C39.4236 5.80796 39.3734 6.02983 39.3272 6.25256C39.2994 6.39021 39.12 6.45865 38.9982 6.38712C38.9231 6.34536 38.9392 6.28213 38.9544 6.22228C38.9572 6.2112 38.96 6.20023 38.9622 6.18953C39.0163 5.929 39.0729 5.66963 39.1297 5.40979C39.1596 5.27242 39.1897 5.13492 39.2193 4.99705C39.2258 4.96658 39.2323 4.93609 39.2388 4.90558C39.2825 4.7 39.3265 4.49367 39.3578 4.28559C39.449 3.67852 39.0921 3.36261 38.4947 3.53004C38.0075 3.66769 37.7643 4.03 37.6595 4.49709C37.5768 4.86057 37.499 5.22615 37.4212 5.59111C37.3791 5.78911 37.337 5.98693 37.2941 6.18412C37.2528 6.379 37.211 6.40916 37.0285 6.40375C36.9125 6.39833 36.8765 6.34884 36.9013 6.23632C36.9609 5.96142 37.0197 5.68653 37.0785 5.41163C37.1372 5.13707 37.196 4.86252 37.2555 4.58796C37.2856 4.44489 37.308 4.29951 37.3162 4.15373C37.3382 3.68664 37.0339 3.42293 36.5722 3.50259C36.0881 3.58765 35.7312 3.93952 35.6121 4.46152C35.526 4.84957 35.4422 5.2378 35.3584 5.62596C35.3158 5.82299 35.2733 6.02001 35.2305 6.21699C35.1918 6.38712 35.1006 6.44203 34.9289 6.40104C34.8322 6.37629 34.8295 6.30747 34.8461 6.23091C34.9013 5.97503 34.956 5.71915 35.0106 5.46331C35.0763 5.15586 35.142 4.84846 35.2085 4.54117C35.2495 4.35132 35.2897 4.16147 35.33 3.97167C35.3713 3.77683 35.4126 3.58205 35.4548 3.38736C35.4934 3.21143 35.5294 3.18397 35.7092 3.18668C35.8472 3.18939 35.8724 3.21993 35.8445 3.35449C35.831 3.386 35.8231 3.42083 35.8116 3.47134C35.809 3.4827 35.8063 3.49485 35.8033 3.50793ZM32.7052 10.519C32.3231 10.4862 32.0076 10.6289 31.737 10.9011C31.7333 10.8963 31.7302 10.8915 31.727 10.8866C31.7227 10.88 31.7182 10.8731 31.7118 10.8651C31.7169 10.8451 31.7214 10.8251 31.7258 10.8054C31.7311 10.7818 31.7362 10.7585 31.7424 10.736C31.7729 10.6261 31.737 10.5716 31.6152 10.5716C31.4269 10.5716 31.3882 10.596 31.3464 10.7882C31.3096 10.961 31.2731 11.1338 31.2367 11.3063C31.1833 11.5592 31.13 11.8116 31.0758 12.063L30.7436 13.6178C30.7158 13.7446 30.7521 13.7856 30.882 13.791C31.0533 13.7964 31.0924 13.7717 31.1283 13.6015C31.193 13.3104 31.2556 13.0192 31.3182 12.7282C31.3814 12.4341 31.4447 12.1401 31.51 11.8461C31.626 11.3214 31.9856 10.9695 32.4697 10.8875C32.9345 10.8075 33.2361 11.0739 33.214 11.541C33.2055 11.7278 33.1669 11.9118 33.1282 12.0959C33.0736 12.3469 33.0197 12.5984 32.9657 12.8499C32.9104 13.108 32.8551 13.3659 32.7991 13.6232C32.7744 13.7361 32.8158 13.7856 32.9291 13.7883C33.1116 13.7937 33.1502 13.7609 33.192 13.5656C33.2334 13.3743 33.2742 13.1824 33.3151 12.9903C33.3939 12.6197 33.473 12.2482 33.557 11.8789C33.6622 11.4146 33.9081 11.0519 34.3949 10.915C34.9923 10.7472 35.3496 11.0658 35.2552 11.6729C35.2224 11.8929 35.1755 12.1128 35.1286 12.3328C35.1164 12.3903 35.1041 12.4478 35.0921 12.5053C35.066 12.6255 35.0397 12.7457 35.0134 12.8659C34.9615 13.1028 34.9096 13.3397 34.8601 13.5768C34.8581 13.5859 34.8558 13.5953 34.8534 13.6048C34.8385 13.664 34.8221 13.729 34.8987 13.7717C35.0259 13.8432 35.1972 13.7744 35.2278 13.6344C35.2737 13.4148 35.3233 13.1957 35.3728 12.9766C35.4726 12.5355 35.5724 12.0943 35.6427 11.6481C35.7479 10.978 35.3302 10.5109 34.6497 10.5163C34.2538 10.5194 33.9305 10.6811 33.6622 10.9641C33.6532 10.9738 33.645 10.9845 33.6366 10.9954C33.6142 11.0247 33.5908 11.0551 33.5485 11.0712C33.3992 10.6865 33.0895 10.5492 32.7052 10.519ZM26.1926 11.481C26.1219 11.4806 26.0512 11.4803 25.9803 11.4803C25.9493 11.4803 25.9184 11.4802 25.8874 11.4802C25.6971 11.4799 25.5065 11.4795 25.3137 11.4915C25.1895 11.4915 25.1145 11.6013 25.1199 11.7552C25.1224 11.8751 25.2059 11.8744 25.289 11.8736C25.2954 11.8736 25.3019 11.8735 25.3082 11.8735H26.0135C26.1649 11.8735 26.2403 11.8735 26.2698 11.9103C26.2991 11.9469 26.2831 12.0196 26.2513 12.1647C26.0607 13.0243 25.4022 13.5161 24.5171 13.4612C24.0496 13.431 23.7701 13.2303 23.6842 12.8568C23.6483 12.6948 23.6429 12.5301 23.6649 12.365C23.7287 11.9145 23.8227 11.4726 23.9387 11.0356C24.1656 10.1838 24.7743 9.73913 25.6427 9.78553C26.1767 9.81569 26.4504 10.0326 26.5057 10.5272C26.5142 10.6041 26.5444 10.6675 26.6361 10.6811C26.8599 10.7166 26.9346 10.6482 26.9098 10.4228C26.8545 9.90656 26.5475 9.59065 26.0688 9.46692C25.2112 9.24691 24.1297 9.46963 23.6761 10.618C23.5489 10.9421 23.4797 11.2827 23.4105 11.6234C23.3982 11.6826 23.3852 11.7419 23.3722 11.8013C23.3034 12.1159 23.2341 12.4324 23.2666 12.7609C23.303 13.1372 23.4658 13.4391 23.7979 13.6425C23.9777 13.7523 24.1769 13.8073 24.3841 13.8293C25.2417 13.9144 26.0301 13.6205 26.4423 12.7718C26.5951 12.4588 26.6593 12.1234 26.7237 11.7867C26.7339 11.7332 26.7441 11.6796 26.7548 11.6261C26.7768 11.5163 26.7215 11.4776 26.6167 11.4803C26.4747 11.4824 26.3338 11.4817 26.1926 11.481ZM25.6404 2.54404C25.1339 2.93689 24.625 3.33245 24.0937 3.74735C24.0978 3.72758 24.1016 3.70929 24.1052 3.69217C24.1187 3.62827 24.1287 3.58063 24.1351 3.53275C24.1809 3.31583 24.2259 3.09881 24.2708 2.88179C24.3158 2.66478 24.3607 2.44776 24.4065 2.23084C24.4201 2.1566 24.4286 2.09048 24.34 2.06303C24.1575 2.00812 24.0438 2.07424 24.0052 2.25829C23.9828 2.36423 23.9604 2.47021 23.9381 2.57623C23.7945 3.25655 23.6506 3.93835 23.5044 4.61812C23.4478 4.88446 23.3904 5.15013 23.333 5.4158C23.2756 5.68161 23.2181 5.94741 23.1615 6.21389C23.1448 6.28852 23.1313 6.36237 23.228 6.39563C23.3966 6.45324 23.5238 6.38441 23.5597 6.21428C23.6289 5.89567 23.6955 5.57976 23.762 5.26076C23.7951 5.09941 23.8302 4.93805 23.8661 4.77312C23.89 4.66296 23.9144 4.5512 23.9387 4.43677C23.9536 4.45263 23.9665 4.46559 23.9778 4.47693C23.9959 4.4952 24.0099 4.50928 24.0218 4.52455C24.405 4.97115 24.7898 5.41751 25.1735 5.86243C25.2692 5.97336 25.3647 6.08421 25.4602 6.19495C25.5006 6.24508 25.544 6.29273 25.5901 6.33763C25.6733 6.41457 25.9002 6.43391 25.9636 6.36237C26.0515 6.26223 25.9857 6.19802 25.9254 6.13913C25.9114 6.12548 25.8977 6.11212 25.8863 6.09867C25.3526 5.47346 24.8159 4.85079 24.2762 4.23068C24.207 4.15412 24.2101 4.12087 24.2929 4.05745C24.7688 3.69515 25.239 3.32704 25.7092 2.95893C25.9283 2.78744 26.1461 2.61778 26.3635 2.44837C26.4285 2.39776 26.4934 2.34718 26.5583 2.29657C26.6055 2.25829 26.6469 2.21963 26.6248 2.14848C26.6001 2.07153 26.5444 2.06303 26.4756 2.058C26.3399 2.04949 26.2239 2.08236 26.1187 2.17013C25.9968 2.2699 25.8733 2.36483 25.7496 2.4599C25.7132 2.48789 25.6768 2.51589 25.6404 2.54404ZM39.7642 13.6015C40.0159 13.7829 40.3036 13.8513 40.6245 13.8432C40.7463 13.8513 40.8789 13.832 41.0034 13.8103C41.5459 13.7307 41.8997 13.4117 41.9968 12.9202C42.0548 12.6341 41.955 12.4145 41.7199 12.2552C41.5734 12.1566 41.4075 12.0959 41.2385 12.0522C41.1984 12.0414 41.1581 12.031 41.1177 12.0206C40.9411 11.9751 40.7635 11.9294 40.597 11.8488C40.2514 11.6837 40.2015 11.3736 40.4892 11.1153C40.7517 10.8763 41.0753 10.8435 41.4102 10.8899C41.6147 10.92 41.7671 11.0244 41.8556 11.217C41.9109 11.3349 42.0049 11.3651 42.1294 11.3214C42.2566 11.2773 42.2593 11.1787 42.2292 11.0743C42.1793 10.8953 42.0575 10.7688 41.8997 10.6838C41.4794 10.4529 41.0452 10.4668 40.6052 10.6207C40.4248 10.6806 40.2674 10.7947 40.1543 10.9475C39.8473 11.3651 39.7448 11.9946 40.5499 12.2498C40.6055 12.267 40.6618 12.2817 40.718 12.2962C40.7599 12.3071 40.8017 12.3179 40.843 12.3298C40.8657 12.3362 40.8885 12.3424 40.9113 12.3487C41.0936 12.3988 41.2755 12.4487 41.438 12.5463C41.6233 12.6565 41.6704 12.7911 41.6012 12.9891C41.568 13.0819 41.5154 13.1619 41.438 13.2249C41.1558 13.4558 40.8236 13.4971 40.4752 13.4778C40.1903 13.4612 39.9857 13.3158 39.8473 13.0683C39.7835 12.9585 39.6729 12.9806 39.5762 13.0161C39.4765 13.0548 39.4599 13.1368 39.4877 13.2334C39.5349 13.39 39.6342 13.508 39.7642 13.6015ZM3.31031 6.41612C3.21307 6.41689 3.11571 6.41767 3.01806 6.41767C3.01806 6.41767 3.01806 6.41496 3.02077 6.41187C2.93477 6.41187 2.84877 6.41147 2.76277 6.41106C2.54446 6.41005 2.32616 6.40903 2.10785 6.41457C1.79233 6.42579 1.57966 6.64271 1.57966 6.93387C1.57696 7.22773 1.79813 7.45587 2.11636 7.45857C2.71477 7.46497 3.31322 7.46587 3.91165 7.46128C4.07482 7.46128 4.21828 7.40367 4.32654 7.27723C4.45917 7.12101 4.49513 6.93928 4.4205 6.74981C4.34588 6.55493 4.19894 6.42849 3.98628 6.42037C3.76029 6.41254 3.53563 6.41433 3.31031 6.41612ZM4.95419 2.07364C4.85744 2.07394 4.76073 2.07424 4.6641 2.07424H4.66372H3.80918C3.73146 2.07424 3.65142 2.07424 3.5768 2.10169C3.3417 2.18405 3.18665 2.42572 3.22261 2.65927C3.26398 2.93419 3.47433 3.11824 3.77052 3.12095C4.35967 3.12636 4.94843 3.12365 5.53758 3.12095L5.53797 3.12095C5.87012 3.11824 6.09941 2.89552 6.0967 2.58773C6.094 2.28575 5.86741 2.07695 5.53526 2.07424C5.34163 2.07244 5.14782 2.07304 4.95419 2.07364ZM42.6742 3.16464C43.1115 3.25821 43.3934 3.59345 43.4185 4.10424C43.4518 4.75539 43.2967 5.37367 42.8819 5.89296C42.4809 6.40104 41.9303 6.53831 41.3077 6.40916C41.0699 6.36005 40.9315 6.24985 40.7297 5.98885C40.7193 6.03027 40.7104 6.0702 40.7017 6.10909C40.6896 6.16315 40.6779 6.21521 40.6635 6.26648C40.6303 6.38441 40.4199 6.45324 40.3202 6.379C40.2705 6.34184 40.2811 6.29376 40.2919 6.24457C40.2931 6.23899 40.2943 6.2334 40.2954 6.22781C40.4146 5.67872 40.5312 5.12841 40.6478 4.57769C40.7045 4.31012 40.7612 4.04246 40.8182 3.7748C40.876 3.49867 40.9346 3.22324 40.9931 2.94818C41.0411 2.72253 41.089 2.49714 41.1364 2.27183C41.1381 2.26432 41.1398 2.25683 41.1414 2.24935C41.1613 2.15868 41.1806 2.07109 41.247 2H41.5235C41.5567 2.06612 41.5486 2.12915 41.5347 2.19797C41.4829 2.4394 41.4318 2.6816 41.3797 2.92797C41.3347 3.1413 41.289 3.35775 41.2416 3.57953C41.3077 3.52733 41.3549 3.48905 41.4021 3.45077C41.7752 3.13757 42.2098 3.06604 42.6742 3.16464ZM42.7353 5.44752C42.9426 5.08251 43.0369 4.68424 43.045 4.26664V4.26625C43.045 4.24208 43.0457 4.2178 43.0463 4.19316C43.047 4.16775 43.0477 4.14195 43.0477 4.11545C43.0257 3.73884 42.796 3.50529 42.4144 3.48905C41.897 3.46431 41.4987 3.69244 41.2277 4.11275C40.9733 4.50792 40.8986 4.96689 40.9261 5.42819C40.9512 5.84037 41.247 6.08784 41.6619 6.09325C42.1545 6.10137 42.5002 5.85971 42.7353 5.44752ZM29.3453 3.16953C29.3807 3.17108 29.4153 3.18078 29.4463 3.19789C29.5203 3.24284 29.5039 3.30814 29.489 3.36738C29.4866 3.37694 29.4842 3.38635 29.4823 3.39548C29.4023 3.78331 29.3191 4.17307 29.236 4.56051L29.1965 4.74314C29.0909 5.23172 28.9853 5.72029 28.8822 6.20887C28.8629 6.29664 28.8408 6.37629 28.7326 6.39524C28.5226 6.4312 28.4642 6.37088 28.5114 6.15937C28.5172 6.13224 28.5222 6.10438 28.5276 6.07421C28.5326 6.04633 28.538 6.01649 28.5446 5.98344C28.5211 6.00702 28.5001 6.02608 28.4813 6.0432C28.4671 6.05611 28.4541 6.06791 28.4422 6.07972C28.0659 6.45595 27.607 6.52207 27.1144 6.40375C26.7022 6.30205 26.4563 5.9672 26.4311 5.46453C26.3982 4.86613 26.5604 4.2732 26.8932 3.7748C27.2501 3.23617 27.8587 3.01655 28.4893 3.16193C28.7326 3.21993 28.9015 3.37344 29.0454 3.58224C29.0766 3.5258 29.0871 3.46955 29.0974 3.41405C29.1016 3.39123 29.1059 3.36852 29.1115 3.34599C29.1197 3.31151 29.1358 3.27941 29.1585 3.25217C29.1811 3.22493 29.2098 3.2033 29.2422 3.18897C29.2746 3.17463 29.3099 3.16798 29.3453 3.16953ZM27.4852 6.09635C27.9747 6.09055 28.3235 5.85159 28.5694 5.45061C28.7662 5.12924 28.8217 4.76782 28.8691 4.45865C28.8744 4.42411 28.8796 4.39023 28.8849 4.35712C28.8876 3.71409 28.5114 3.40399 27.9387 3.50529C27.682 3.54723 27.4503 3.68346 27.2887 3.88732C26.9071 4.36524 26.7741 4.92281 26.8186 5.51905C26.846 5.91461 27.0842 6.09867 27.4852 6.09635ZM34.0658 3.32704C34.1018 3.19519 34.2874 3.12636 34.4007 3.2006C34.4752 3.25004 34.4535 3.31954 34.4343 3.38088C34.4322 3.38766 34.4301 3.39435 34.4282 3.40089C34.3697 3.68545 34.3084 3.96984 34.2472 4.25429C34.2161 4.39848 34.1851 4.54269 34.1544 4.68695C34.1015 4.9359 34.048 5.1855 33.9945 5.43516C33.9388 5.69502 33.8831 5.95495 33.8281 6.21428C33.806 6.30747 33.7782 6.38712 33.6595 6.39833C33.4518 6.41728 33.4074 6.36817 33.4518 6.16749L33.4932 5.96952C33.2887 6.18953 33.0841 6.34884 32.8185 6.40916C32.5722 6.46407 32.3258 6.47257 32.0799 6.41187C31.6619 6.31017 31.4048 5.98073 31.3774 5.47227C31.3468 4.84045 31.51 4.24731 31.875 3.72531C32.2319 3.21993 32.8544 3.01384 33.4545 3.16773C33.6923 3.22805 33.8528 3.38195 34.0051 3.59616C34.0149 3.55409 34.0229 3.51585 34.0304 3.48008C34.0421 3.42478 34.0525 3.37541 34.0658 3.32704ZM32.351 6.09325C32.6994 6.118 33.0091 6.0136 33.2581 5.77193C33.7314 5.30484 33.8559 4.7086 33.8195 4.08491C33.7975 3.71409 33.5098 3.50259 33.1309 3.48905C32.752 3.47513 32.4477 3.62632 32.218 3.91477C31.8916 4.32657 31.7864 4.813 31.7617 5.32417C31.7617 5.34057 31.7614 5.35727 31.7611 5.37406C31.7605 5.40796 31.7599 5.44227 31.7617 5.47536C31.7895 5.85429 31.9968 6.06851 32.351 6.09325ZM46.6882 3.30771C46.7242 3.19519 46.9287 3.13448 47.0227 3.20601C47.0819 3.25072 47.0683 3.31159 47.0562 3.36604C47.0541 3.37517 47.0521 3.38411 47.0505 3.39277L46.8015 4.5578C46.6824 5.10725 46.5637 5.65671 46.4473 6.20577C46.428 6.29393 46.4059 6.37629 46.298 6.39524C46.085 6.4312 46.027 6.37088 46.0742 6.15937C46.0799 6.13194 46.0849 6.10375 46.0904 6.07319C46.0953 6.04561 46.1006 6.01609 46.107 5.98344C46.0842 6.00624 46.0639 6.02482 46.0456 6.04149C46.0308 6.05507 46.0173 6.0674 46.005 6.07972C45.6287 6.45595 45.1694 6.52207 44.6771 6.40375C44.265 6.30205 44.0187 5.9672 43.9939 5.46453C43.9596 4.86597 44.1218 4.27259 44.456 3.7748C44.8125 3.23617 45.4211 3.01655 46.0517 3.16193C46.254 3.20911 46.4086 3.32704 46.5359 3.48364C46.543 3.49211 46.5488 3.50198 46.5546 3.51202C46.5694 3.5373 46.5848 3.56367 46.6244 3.57141C46.632 3.54035 46.6386 3.50957 46.6451 3.47908C46.6576 3.42077 46.6699 3.36357 46.6882 3.30771ZM45.0395 6.09325C45.3743 6.09905 45.6674 5.98344 45.8971 5.74719C46.3452 5.28551 46.4666 4.70319 46.4365 4.09071C46.4171 3.71989 46.1295 3.49988 45.7532 3.48635C45.3743 3.47243 45.07 3.6182 44.8376 3.90665C44.5028 4.32155 44.4003 4.813 44.3755 5.32688C44.3755 5.34328 44.3752 5.35998 44.3749 5.37677C44.3743 5.41067 44.3737 5.44497 44.3755 5.47807C44.4088 5.88175 44.6358 6.08784 45.0395 6.09325ZM29.961 10.7746C29.9997 10.5546 30.0882 10.56 30.268 10.5794C30.3813 10.592 30.364 10.6796 30.3494 10.753C30.348 10.7602 30.3466 10.7674 30.3453 10.7742C30.2915 11.0454 30.233 11.3135 30.174 11.5839C30.1666 11.6182 30.1591 11.6524 30.1516 11.6868C30.0851 12.0001 30.0178 12.3141 29.9505 12.6281C29.8809 12.9527 29.8113 13.2774 29.7425 13.6015C29.7201 13.7001 29.6899 13.7829 29.5627 13.7883C29.3605 13.7991 29.3218 13.7581 29.3663 13.5602L29.405 13.3734C29.3688 13.4058 29.3409 13.4322 29.3159 13.4559C29.3026 13.4685 29.2902 13.4802 29.2778 13.4917C28.8741 13.8707 28.3954 13.931 27.8919 13.7663C27.4658 13.629 27.3081 13.269 27.2887 12.8541C27.2559 12.2546 27.4191 11.6607 27.7535 11.1621C28.1077 10.6261 28.7217 10.4038 29.3493 10.5519C29.5929 10.6099 29.7619 10.7665 29.9138 10.9888C29.9231 10.9438 29.9318 10.9065 29.9396 10.8731C29.9479 10.8372 29.9552 10.8059 29.961 10.7746ZM28.3428 13.4859C28.6773 13.4886 28.9677 13.3707 29.1973 13.1314V13.1317C29.6401 12.6701 29.7561 12.0905 29.7259 11.4861C29.7093 11.1149 29.4216 10.8953 29.0454 10.879C28.6637 10.8628 28.3536 11.0136 28.1212 11.3075C27.7953 11.7193 27.6924 12.2057 27.6677 12.7169C27.6677 12.7326 27.6674 12.748 27.6671 12.7633C27.6665 12.7935 27.6659 12.8233 27.6677 12.8541C27.6928 13.269 27.9221 13.4832 28.3428 13.4859ZM38.301 10.5411C38.799 10.618 39.0975 10.9448 39.142 11.4501V11.4505C39.1641 11.6949 39.1362 11.9369 39.084 12.1728C39.0589 12.2911 38.9785 12.3375 38.8624 12.3321H37.8254C37.7289 12.3321 37.6325 12.3326 37.5363 12.333C37.2961 12.3341 37.0565 12.3352 36.8154 12.3294C36.7076 12.3267 36.6743 12.3654 36.6662 12.464C36.6523 12.6233 36.6383 12.7826 36.6716 12.9419C36.7408 13.2744 36.9512 13.4612 37.2914 13.4805C37.7202 13.5026 38.1046 13.4036 38.3981 13.0629C38.4251 13.0328 38.4588 12.9999 38.4947 12.9887C38.586 12.9616 38.6966 12.9338 38.7685 13.008C38.8328 13.0766 38.7823 13.1493 38.7386 13.2121C38.7316 13.2222 38.7248 13.232 38.7186 13.2416C38.4947 13.5849 38.1491 13.7307 37.7643 13.8103C37.5652 13.8513 37.3606 13.8598 37.1588 13.8212C36.655 13.7276 36.2981 13.3653 36.2733 12.8568C36.2432 12.2331 36.3812 11.6427 36.7768 11.1427C37.1611 10.659 37.6731 10.4421 38.301 10.5411ZM38.7387 11.9613C38.7601 11.9413 38.7559 11.894 38.7739 11.7827C38.871 11.1702 38.4615 10.7827 37.8417 10.8926C37.3108 10.9861 36.8819 11.4146 36.7714 11.9694C36.7755 11.9702 36.7794 11.971 36.7829 11.9717C36.7933 11.9737 36.801 11.9752 36.8073 11.9752H38.5496C38.6702 11.9737 38.7172 11.9812 38.7387 11.9613ZM31.0951 2.00271C31.1449 2.0522 31.1558 2.10711 31.1418 2.17594L31.0488 2.60669L31.0488 2.60689C30.7897 3.80655 30.5306 5.00648 30.2761 6.20887C30.2486 6.34614 30.1848 6.40646 30.0441 6.39834C29.8945 6.39022 29.8639 6.35696 29.8945 6.21158C29.9491 5.95912 30.0028 5.70666 30.0565 5.45415L30.0566 5.45352L30.0567 5.45302C30.1093 5.20584 30.1619 4.95862 30.2154 4.71131L30.2744 4.43568C30.4318 3.70082 30.5893 2.96596 30.7467 2.23355C30.766 2.14848 30.788 2.06612 30.8487 2.00271H31.0951ZM11.7455 2.11523H15.2309C15.4381 2.12103 15.5047 2.2088 15.4467 2.40368L14.9653 4.04934C14.0191 7.26099 13.0706 10.475 12.1217 13.6866C12.0606 13.8954 11.95 13.9805 11.7316 13.9805H7.08421C6.86304 13.9805 6.79924 13.8981 6.85994 13.6893C6.94335 13.4058 7.02701 13.1221 7.11068 12.8385C7.30746 12.1713 7.50437 11.5037 7.69863 10.835C7.72337 10.7472 7.75933 10.7058 7.85871 10.7139C8.01647 10.7278 8.17152 10.7062 8.31265 10.6262C8.54194 10.497 8.66645 10.2608 8.61696 10.0465C8.56167 9.81028 8.34861 9.64015 8.07756 9.63706C7.79745 9.633 7.51734 9.6335 7.23724 9.63401H7.23715C7.14377 9.63418 7.05038 9.63435 6.957 9.63435C6.58077 9.63435 6.34607 9.44218 6.34026 9.13439C6.33485 8.81848 6.61132 8.54936 6.9597 8.54395C7.30619 8.53989 7.65114 8.5404 7.9967 8.54091C8.11198 8.54107 8.22732 8.54124 8.34281 8.54124H9.35279C9.62113 8.54124 9.85623 8.32935 9.88638 8.06564C9.91423 7.80774 9.72863 7.57419 9.44674 7.52199C9.36442 7.50863 9.28113 7.50216 9.19773 7.50266H6.12721L6.10102 7.50271C6.02125 7.50295 5.94196 7.50319 5.86737 7.48332C5.50777 7.38163 5.38017 6.9505 5.62377 6.65122C5.7564 6.48611 5.93078 6.41767 6.14384 6.41767C6.65691 6.41858 7.16999 6.41822 7.68305 6.41786H7.68307C8.69149 6.41715 9.69985 6.41643 10.7081 6.4254C10.993 6.4285 11.2861 6.14816 11.2861 5.89567C11.2861 5.62114 11.0483 5.393 10.7301 5.37908C10.6932 5.37728 10.6564 5.37788 10.6195 5.37848C10.6011 5.37878 10.5826 5.37908 10.5642 5.37908H4.06357L4.03181 5.37923C3.97819 5.37961 3.92314 5.38 3.87024 5.37096C3.61813 5.32418 3.44954 5.132 3.44684 4.88454C3.44142 4.61542 3.63746 4.37066 3.9089 4.30763C3.99436 4.2883 4.0829 4.28559 4.16874 4.28559H10.7247C10.8851 4.28559 11.0371 4.26626 11.1755 4.18119C11.3998 4.04392 11.5073 3.81038 11.4493 3.58804C11.394 3.38195 11.1755 3.21684 10.9265 3.20911C10.7611 3.20298 10.5944 3.20408 10.4283 3.20517H10.4283C10.3638 3.20559 10.2994 3.20602 10.2352 3.20602H8.25697C8.18737 3.20602 8.11855 3.2006 8.05204 3.18939C7.82545 3.1457 7.66228 3.01926 7.60969 2.79112C7.56252 2.57962 7.6704 2.3627 7.87804 2.23355C8.02188 2.14307 8.18505 2.11523 8.35364 2.11832C9.48502 2.11523 10.6164 2.11523 11.7447 2.11523H11.7455ZM0.666748 4.69507C0.760708 4.50831 0.877095 4.34591 1.10639 4.30454C1.38595 4.25272 1.66241 4.41474 1.74013 4.68386C1.81747 4.95066 1.67904 5.23331 1.42461 5.33771C1.16168 5.44482 0.860081 5.33771 0.730548 5.08792C0.720881 5.06859 0.710441 5.04868 0.700001 5.02876C0.689561 5.00885 0.679121 4.98894 0.669455 4.9696C0.666748 4.87912 0.666748 4.78555 0.666748 4.69507Z" fill="#C80EA4"/>
</g>
<defs>
<clipPath id="clip0_1748_12356">
<rect width="46.4" height="16" fill="white" transform="translate(0.666748)"/>
</clipPath>
</defs>
</svg>
