<svg width="48" height="12" viewBox="0 0 48 12" fill="none" xmlns="http://www.w3.org/2000/svg">
<path d="M6.40101 0.199951C3.23421 0.199951 0.666748 2.80067 0.666748 6.01928C0.666748 6.59541 0.751041 7.15994 0.919241 7.70359C1.02441 7.55434 1.12959 7.40509 1.22471 7.2454C1.62354 6.64892 2.01628 6.0484 2.40288 5.44392L2.68669 4.98572C2.78142 4.83647 2.87616 4.67638 2.96045 4.52752C3.14992 4.21819 3.32856 3.90885 3.49714 3.59991C3.58105 3.44021 3.66534 3.29057 3.76008 3.13088C3.85481 2.97119 3.92828 2.82193 4.01257 2.66224C4.09686 2.50216 4.18077 2.34247 4.25462 2.19322L4.48624 1.71375L4.50712 1.68166C4.56847 1.5587 4.6752 1.46441 4.80477 1.41867C4.93435 1.37293 5.07662 1.37932 5.20157 1.43651C5.39103 1.54284 5.50665 1.74546 5.49621 1.96934C5.49621 2.24619 5.44362 2.53387 5.42274 2.81149C5.40147 3.08835 5.39103 3.37603 5.36977 3.66409C5.34889 4.22863 5.33845 4.80476 5.33845 5.36929C5.33845 5.93421 5.36977 6.49913 5.42235 7.04278C5.45406 7.3092 5.49582 7.57561 5.54879 7.84202C5.59094 8.07673 5.66479 8.31105 5.76958 8.5241C5.80129 8.58829 5.84305 8.65209 5.89602 8.70545C5.92734 8.72671 5.90646 8.71627 5.92734 8.71627H5.94861L5.96949 8.70545H5.97993L6.01163 8.69462C6.02207 8.68418 6.04334 8.67335 6.05378 8.66291C6.13866 8.59652 6.2163 8.52134 6.28539 8.43865C6.45359 8.23642 6.61135 8.03381 6.74823 7.81031C6.89517 7.58605 7.03243 7.34129 7.16893 7.09614C7.4418 6.6039 7.69805 6.10263 7.93723 5.59317C8.05284 5.3372 8.17928 5.08161 8.2949 4.8152C8.4109 4.55923 8.52612 4.29281 8.6313 4.03723C8.65654 3.97403 8.694 3.91643 8.74154 3.86774C8.78907 3.81904 8.84575 3.7802 8.90832 3.75344C8.97088 3.72668 9.03812 3.71253 9.10617 3.7118C9.17421 3.71106 9.24174 3.72376 9.30487 3.74916C9.47346 3.81335 9.58907 3.96221 9.62078 4.14356C9.62078 4.20736 9.63122 4.29281 9.64166 4.37827L9.67336 4.62341C9.69424 4.78311 9.71512 4.9428 9.74683 5.10288C9.79941 5.42265 9.86283 5.74242 9.94674 6.05137C10.031 6.3607 10.1362 6.67004 10.2623 6.96777C10.3861 7.2652 10.5489 7.54488 10.7464 7.79949C10.7885 7.86329 10.7781 7.94874 10.7255 7.99127C10.6729 8.03381 10.599 8.03381 10.5569 7.99127C10.2952 7.75655 10.0621 7.49179 9.86244 7.20248C9.66253 6.9148 9.49434 6.60585 9.33658 6.29652C9.2314 6.08346 9.14711 5.87041 9.05238 5.65697C8.98935 5.78496 8.93638 5.91294 8.87335 6.0301C8.62086 6.5521 8.36836 7.07449 8.07411 7.59687C7.93227 7.86699 7.77768 8.13022 7.61088 8.38567C7.44312 8.65075 7.25679 8.90362 7.05331 9.14238C6.93731 9.28081 6.80082 9.39835 6.66394 9.51551C6.62238 9.54995 6.57633 9.57857 6.52706 9.60058L6.43271 9.65394L6.37974 9.67521H6.3693L6.33798 9.68603H6.31671L6.27457 9.69686C6.24325 9.7073 6.22198 9.71812 6.19066 9.71812L6.00119 9.74983C5.86229 9.7592 5.72291 9.7412 5.59094 9.69686C5.46415 9.65034 5.3466 9.58174 5.24371 9.49425C5.08255 9.35413 4.95029 9.18391 4.85434 8.99313C4.707 8.69259 4.60087 8.37355 4.53882 8.04463C4.4778 7.74518 4.43211 7.4428 4.40194 7.13868C4.33892 6.54166 4.31765 5.95548 4.30721 5.35846V4.51669C4.20204 4.71931 4.09686 4.92153 3.99169 5.11332C3.9074 5.2734 3.8231 5.43348 3.72876 5.59317L3.46582 6.07264C3.10809 6.71328 2.73615 7.3459 2.35029 7.97001C2.10748 8.37531 1.85844 8.77685 1.60325 9.17447C3.33938 11.8603 6.89555 12.6065 9.54692 10.848C12.1983 9.08902 12.9349 5.48645 11.1988 2.80067C10.1362 1.19136 8.33704 0.199951 6.40101 0.199951Z" fill="url(#paint0_linear_1748_12368)"/>
<path d="M17.1013 8.10847V4.25032H17.0066L15.7863 8.11891H15.4812L14.2605 4.24993H14.1661V8.10809H13.6611V3.84509H14.5551L15.6389 7.23461L16.7015 3.84509H17.6063V8.1193H17.1013V8.10847Z" fill="url(#paint1_linear_1748_12368)"/>
<path d="M18.343 4.39919V3.84509H18.8902V4.39957H18.343V4.39919ZM18.3535 8.10847V4.81524H18.8902V8.10847H18.3535Z" fill="url(#paint2_linear_1748_12368)"/>
<path d="M22.141 7.03241C22.141 7.67157 21.899 8.16186 20.8472 8.16186C19.521 8.16186 19.4475 7.39471 19.4475 6.45666C19.4475 5.51861 19.521 4.75146 20.8472 4.75146C21.899 4.75146 22.141 5.24137 22.141 5.88092H21.636C21.636 5.35892 21.4574 5.10294 20.8472 5.10294C20.0264 5.10294 19.9842 5.5507 19.9842 6.44584C19.9842 7.34135 20.0263 7.78911 20.8469 7.78911C21.4574 7.78911 21.636 7.53314 21.636 7.01076L22.141 7.03202V7.03241Z" fill="url(#paint3_linear_1748_12368)"/>
<path d="M23.1825 5.16662C23.435 5.00692 23.7614 4.79387 24.0665 4.78304C24.1295 4.77222 24.1925 4.77222 24.2559 4.77222C24.3402 4.77222 24.4137 4.77222 24.5084 4.78304L24.4663 5.17744C24.382 5.16662 24.3085 5.16662 24.2347 5.16662C24.1716 5.16662 24.1086 5.16662 24.0347 5.17744C23.7509 5.18788 23.4459 5.40132 23.2247 5.52931V8.1192H22.688V4.81514H23.1091L23.1825 5.167V5.16662Z" fill="url(#paint4_linear_1748_12368)"/>
<path d="M27.5176 6.46704C27.5176 7.40509 27.4441 8.17224 26.0974 8.17224C24.7506 8.17224 24.6768 7.40509 24.6768 6.46704C24.6768 5.52937 24.7502 4.76184 26.0974 4.76184C27.4441 4.76184 27.5176 5.52937 27.5176 6.46704ZM25.2135 6.46704C25.2135 7.36256 25.2556 7.81032 26.0974 7.81032C26.9391 7.81032 26.9809 7.37338 26.9809 6.46704C26.9809 5.56108 26.9391 5.12415 26.0974 5.12415C25.2556 5.12415 25.2135 5.56108 25.2135 6.46704Z" fill="url(#paint5_linear_1748_12368)"/>
<path d="M28.4963 8.87597C28.6962 8.89724 28.9591 8.90806 29.2537 8.90806C30.0742 8.90806 30.1794 8.6838 30.1902 7.80993C29.9482 7.94874 29.6114 8.10844 29.2642 8.11926C28.0752 8.14053 28.0017 7.49054 28.0017 6.46704C28.0017 5.44392 28.0647 4.76184 29.212 4.76184C29.601 4.76184 29.9586 4.94319 30.2428 5.12415L30.2954 4.82564H30.7161V7.74613C30.7161 8.92933 30.4532 9.29164 29.3798 9.29164C29.0643 9.29164 28.7487 9.25954 28.4437 9.21701L28.4963 8.87597ZM30.1899 5.42265C29.9586 5.2734 29.664 5.12415 29.3802 5.12415C28.591 5.12415 28.5384 5.57191 28.5384 6.46704C28.5384 7.3409 28.591 7.75696 29.3802 7.75696C29.664 7.75696 29.9691 7.59688 30.1902 7.47972V5.42265H30.1899Z" fill="url(#paint6_linear_1748_12368)"/>
<path d="M33.6309 8.10844L33.5784 7.81032C33.3154 7.98045 32.9678 8.17262 32.5893 8.17262C31.4003 8.19389 31.3264 7.51142 31.3264 6.46742C31.3264 5.42265 31.3898 4.76184 32.568 4.76184C32.9574 4.76184 33.3046 4.94319 33.5675 5.10288L33.6205 4.8152H34.0412V8.10844H33.6309ZM33.5258 5.40139C33.3046 5.2734 32.9995 5.12415 32.7153 5.12415C31.9265 5.12415 31.8735 5.57191 31.8735 6.46704C31.8735 7.36256 31.9265 7.81032 32.7153 7.81032C32.9995 7.81032 33.2942 7.65024 33.5258 7.51181V5.40139Z" fill="url(#paint7_linear_1748_12368)"/>
<path d="M35.1775 5.10294C35.4196 4.95369 35.7459 4.77273 36.0928 4.7619C36.6399 4.74064 36.9241 4.8895 37.061 5.12421C37.3131 4.96452 37.6499 4.77234 38.0184 4.7619C39.1335 4.72981 39.2074 5.30555 39.2074 6.10479V8.1085H38.6707V6.1365C38.6707 5.45481 38.6281 5.12421 37.9024 5.12421C37.6394 5.12421 37.3661 5.28429 37.1449 5.42271C37.1975 5.65703 37.2183 5.90218 37.2079 6.14733V8.11932H36.7451V6.13689C36.7451 5.45481 36.7029 5.12421 35.9771 5.12421C35.7247 5.12421 35.4513 5.28429 35.2406 5.40145V8.1085H34.7039V4.81526H35.1249L35.1775 5.10294Z" fill="url(#paint8_linear_1748_12368)"/>
<path d="M39.8699 4.39919V3.84509H40.417V4.39957H39.8699V4.39919ZM39.8803 8.10847V4.81524H40.417V8.10847H39.8803Z" fill="url(#paint9_linear_1748_12368)"/>
<path d="M41.5531 5.10294C41.8164 4.95368 42.1637 4.77272 42.5422 4.7619C43.7312 4.7298 43.8051 5.30555 43.8051 6.10479V8.10849H43.2684V6.1365C43.2684 5.4548 43.2158 5.1242 42.4266 5.1242C42.1424 5.1242 41.8373 5.28428 41.6165 5.41188V8.11932H41.0798V4.81526H41.5005L41.5531 5.10294Z" fill="url(#paint10_linear_1748_12368)"/>
<path d="M44.8468 8.87597C45.0467 8.89724 45.3097 8.90806 45.6043 8.90806C46.4248 8.90806 46.53 8.6838 46.5404 7.80993C46.2988 7.94874 45.962 8.10844 45.6148 8.11926C44.4258 8.14053 44.3523 7.49054 44.3523 6.46704C44.3523 5.44392 44.4153 4.76184 45.5622 4.76184C45.9515 4.76184 46.3092 4.94319 46.5934 5.12415L46.646 4.82564H47.0667V7.74613C47.0667 8.92933 46.8038 9.29164 45.7304 9.29164C45.4149 9.29164 45.0993 9.25954 44.7939 9.21701L44.8468 8.87597ZM46.53 5.42265C46.2988 5.2734 46.0041 5.12415 45.7199 5.12415C44.9307 5.12415 44.8782 5.57191 44.8782 6.46704C44.8782 7.3409 44.9307 7.75696 45.7199 7.75696C46.0041 7.75696 46.3092 7.59688 46.53 7.47972V5.42265Z" fill="url(#paint11_linear_1748_12368)"/>
<defs>
<linearGradient id="paint0_linear_1748_12368" x1="-0.224131" y1="7.62858" x2="46.1352" y2="-3.39643" gradientUnits="userSpaceOnUse">
<stop stop-color="#21E418"/>
<stop offset="0.3" stop-color="#31B6E9"/>
<stop offset="0.976" stop-color="#21E418"/>
</linearGradient>
<linearGradient id="paint1_linear_1748_12368" x1="0.274366" y1="9.72551" x2="46.6341" y2="-1.29949" gradientUnits="userSpaceOnUse">
<stop stop-color="#21E418"/>
<stop offset="0.3" stop-color="#31B6E9"/>
<stop offset="0.976" stop-color="#21E418"/>
</linearGradient>
<linearGradient id="paint2_linear_1748_12368" x1="0.438059" y1="10.4126" x2="46.7978" y2="-0.612009" gradientUnits="userSpaceOnUse">
<stop stop-color="#21E418"/>
<stop offset="0.3" stop-color="#31B6E9"/>
<stop offset="0.976" stop-color="#21E418"/>
</linearGradient>
<linearGradient id="paint3_linear_1748_12368" x1="0.669073" y1="11.3859" x2="47.0288" y2="0.360874" gradientUnits="userSpaceOnUse">
<stop stop-color="#21E418"/>
<stop offset="0.3" stop-color="#31B6E9"/>
<stop offset="0.976" stop-color="#21E418"/>
</linearGradient>
<linearGradient id="paint4_linear_1748_12368" x1="0.786072" y1="11.8784" x2="47.1458" y2="0.85337" gradientUnits="userSpaceOnUse">
<stop stop-color="#21E418"/>
<stop offset="0.3" stop-color="#31B6E9"/>
<stop offset="0.976" stop-color="#21E418"/>
</linearGradient>
<linearGradient id="paint5_linear_1748_12368" x1="0.958274" y1="12.6007" x2="47.318" y2="1.57572" gradientUnits="userSpaceOnUse">
<stop stop-color="#21E418"/>
<stop offset="0.3" stop-color="#31B6E9"/>
<stop offset="0.976" stop-color="#21E418"/>
</linearGradient>
<linearGradient id="paint6_linear_1748_12368" x1="1.26222" y1="13.8787" x2="47.6215" y2="2.85367" gradientUnits="userSpaceOnUse">
<stop stop-color="#21E418"/>
<stop offset="0.3" stop-color="#31B6E9"/>
<stop offset="0.976" stop-color="#21E418"/>
</linearGradient>
<linearGradient id="paint7_linear_1748_12368" x1="1.34084" y1="14.2089" x2="47.7006" y2="3.18386" gradientUnits="userSpaceOnUse">
<stop stop-color="#21E418"/>
<stop offset="0.3" stop-color="#31B6E9"/>
<stop offset="0.976" stop-color="#21E418"/>
</linearGradient>
<linearGradient id="paint8_linear_1748_12368" x1="1.55341" y1="15.1041" x2="47.9131" y2="4.07943" gradientUnits="userSpaceOnUse">
<stop stop-color="#21E418"/>
<stop offset="0.3" stop-color="#31B6E9"/>
<stop offset="0.976" stop-color="#21E418"/>
</linearGradient>
<linearGradient id="paint9_linear_1748_12368" x1="1.61907" y1="15.379" x2="47.9782" y2="4.3544" gradientUnits="userSpaceOnUse">
<stop stop-color="#21E418"/>
<stop offset="0.3" stop-color="#31B6E9"/>
<stop offset="0.976" stop-color="#21E418"/>
</linearGradient>
<linearGradient id="paint10_linear_1748_12368" x1="1.85409" y1="16.3685" x2="48.2138" y2="5.34383" gradientUnits="userSpaceOnUse">
<stop stop-color="#21E418"/>
<stop offset="0.3" stop-color="#31B6E9"/>
<stop offset="0.976" stop-color="#21E418"/>
</linearGradient>
<linearGradient id="paint11_linear_1748_12368" x1="2.15849" y1="17.6487" x2="48.5182" y2="6.62363" gradientUnits="userSpaceOnUse">
<stop stop-color="#21E418"/>
<stop offset="0.3" stop-color="#31B6E9"/>
<stop offset="0.976" stop-color="#21E418"/>
</linearGradient>
</defs>
</svg>
