<svg width="48" height="16" viewBox="0 0 48 16" fill="none" xmlns="http://www.w3.org/2000/svg">
<g clip-path="url(#clip0_1748_12387)">
<path d="M17.1858 10.5402C17.2605 10.615 17.3105 10.74 17.3105 10.865C17.3105 10.9649 17.2857 11.04 17.2605 11.1147C17.211 11.1895 17.1611 11.2398 17.1111 11.2897C17.0364 11.3397 16.9617 11.3397 16.8622 11.3397H16.3392V12.0396C16.3392 12.0644 16.3392 12.0644 16.3145 12.0644L16.2897 12.0891C16.2645 12.0891 16.2645 12.0891 16.2645 12.0644L16.2397 12.0392V10.4651C16.2397 10.4404 16.2397 10.4404 16.2645 10.4404L16.2897 10.4152H16.8622C16.9869 10.4152 17.0863 10.4651 17.1858 10.5402ZM17.1111 11.1399C17.1858 11.0652 17.211 10.9901 17.211 10.8647C17.211 10.74 17.1858 10.6649 17.1111 10.5902C17.0794 10.5565 17.0406 10.5301 16.9977 10.5128C16.9547 10.4956 16.9085 10.4879 16.8622 10.4903H16.3392V11.2398H16.8622C16.9617 11.2649 17.0364 11.2146 17.1111 11.1399ZM18.8543 12.0396C18.8543 12.0644 18.8543 12.0644 18.8295 12.0644L18.8047 12.0895H18.7796C18.73 12.0644 18.7048 12.0144 18.6801 11.9645C18.6553 11.9145 18.6301 11.8147 18.6301 11.6892C18.6301 11.5646 18.6054 11.4647 18.5306 11.4148C18.4559 11.3648 18.3812 11.3401 18.2817 11.3401H17.734V12.0396C17.734 12.0644 17.734 12.0644 17.7088 12.0644L17.684 12.0895C17.6593 12.0895 17.6593 12.0895 17.6593 12.0644L17.6341 12.0392V10.4651C17.6341 10.4404 17.6341 10.4404 17.6593 10.4404L17.684 10.4152H18.3065C18.406 10.4152 18.4807 10.4404 18.5554 10.4651C18.6301 10.5151 18.6801 10.5654 18.73 10.6153C18.7796 10.6653 18.7796 10.7648 18.7796 10.8399C18.7796 10.9401 18.7548 11.04 18.7048 11.1151C18.6521 11.1918 18.5718 11.2453 18.4807 11.2646C18.5554 11.2897 18.6301 11.3397 18.6801 11.4148C18.73 11.4895 18.7548 11.5646 18.7548 11.6896C18.7548 11.7895 18.7548 11.8646 18.7796 11.9145C18.8047 11.9645 18.8047 11.9893 18.8295 12.0144L18.8543 12.0396ZM18.3065 11.2398C18.406 11.2398 18.4807 11.1898 18.5554 11.1147C18.6301 11.04 18.6553 10.9401 18.6553 10.8399C18.6577 10.7935 18.65 10.7472 18.6327 10.7041C18.6155 10.661 18.5891 10.6221 18.5554 10.5902C18.4807 10.5155 18.3812 10.4903 18.2817 10.4903H17.7088V11.2398H18.3065ZM20.1743 12.0144L20.1991 12.0396C20.1991 12.0644 20.1991 12.0644 20.1743 12.0644L20.1491 12.0895H19.2526C19.2278 12.0895 19.2278 12.0895 19.2278 12.0644L19.2031 12.0392V10.4651C19.2031 10.4404 19.2031 10.4404 19.2278 10.4404L19.253 10.4152H20.1495C20.1743 10.4152 20.1743 10.4152 20.1743 10.4404L20.1991 10.4651C20.1991 10.4903 20.1991 10.4903 20.1743 10.4903L20.1491 10.5151H19.3025V11.1898H20.0497C20.0744 11.1898 20.0744 11.1898 20.0744 11.215L20.0996 11.2398C20.0996 11.2649 20.0996 11.2649 20.0744 11.2649L20.0497 11.2897H19.3025V12.0144H20.1491C20.1491 11.9893 20.1743 12.0144 20.1743 12.0144ZM22.0165 10.4404V12.0392C22.0165 12.0644 22.0165 12.0644 21.9918 12.0644L21.967 12.0895C21.9422 12.0895 21.9422 12.0895 21.9422 12.0644L21.9171 12.0392V10.6153L21.2946 11.5394C21.2946 11.5646 21.2698 11.5646 21.2698 11.5646C21.2447 11.5646 21.2447 11.5646 21.2199 11.5398L20.5974 10.5902V12.0396C20.5974 12.0644 20.5974 12.0644 20.5726 12.0644L20.5475 12.0895C20.5227 12.0895 20.5227 12.0895 20.5227 12.0644L20.4979 12.0392V10.4651C20.4979 10.4651 20.4979 10.4404 20.5227 10.4404L20.5475 10.4152C20.5726 10.4152 20.5726 10.4152 20.5974 10.4404L21.2698 11.4399L21.9422 10.4404C21.967 10.4152 21.967 10.4152 21.9918 10.4152C21.9918 10.4152 22.0165 10.4152 22.0165 10.4404ZM22.5647 12.0895L22.5395 12.1143C22.5148 12.1143 22.5148 12.1143 22.5148 12.0895L22.49 12.0644V10.4903C22.49 10.4655 22.49 10.4655 22.5148 10.4655L22.5395 10.4404C22.5647 10.4404 22.5647 10.4404 22.5647 10.4655L22.5895 10.4903V12.0644L22.5647 12.0895ZM24.2579 10.4404L24.2827 10.4651V11.515C24.2827 11.6145 24.2579 11.7396 24.208 11.8147C24.1603 11.9125 24.0815 11.9916 23.9838 12.0396C23.8843 12.0895 23.7845 12.1143 23.685 12.1143C23.5855 12.1143 23.4608 12.0895 23.3861 12.0396C23.2885 11.9916 23.2096 11.9125 23.162 11.8147C23.1139 11.7219 23.0883 11.6191 23.0873 11.5146V10.4651C23.0873 10.4404 23.0873 10.4404 23.1125 10.4404L23.1372 10.4152C23.162 10.4152 23.162 10.4152 23.162 10.4404L23.1872 10.4651V11.515C23.1872 11.6145 23.2119 11.6896 23.2619 11.7643C23.3114 11.8394 23.3614 11.9145 23.4608 11.9645C23.5356 12.0144 23.635 12.0392 23.7098 12.0392C23.7845 12.0392 23.8843 12.0144 23.9591 11.9645C24.0338 11.9145 24.1085 11.8646 24.158 11.7643C24.208 11.6645 24.2327 11.5897 24.2327 11.5146V10.4651C24.2327 10.4404 24.2327 10.4404 24.2579 10.4404L24.2827 10.4152C24.2827 10.4152 24.2579 10.4152 24.2579 10.4404ZM26.2248 10.4404V12.0392C26.2248 12.0644 26.2248 12.0644 26.2 12.0644L26.1752 12.0895C26.1501 12.0895 26.1501 12.0895 26.1501 12.0644L26.1253 12.0392V10.6153L25.5028 11.5394C25.5028 11.5646 25.4781 11.5646 25.4781 11.5646C25.4529 11.5646 25.4529 11.5646 25.4281 11.5398L24.8057 10.5902V12.0396C24.8057 12.0644 24.8057 12.0644 24.7809 12.0644L24.7557 12.0895C24.7309 12.0895 24.7309 12.0895 24.7309 12.0644L24.7062 12.0392V10.4651C24.7062 10.4651 24.7062 10.4404 24.7309 10.4404L24.7557 10.4152C24.7805 10.4152 24.7805 10.4152 24.8057 10.4404L25.4781 11.4399L26.1505 10.4404C26.1752 10.4152 26.1752 10.4152 26.2 10.4152C26.2 10.4152 26.2248 10.4152 26.2248 10.4404ZM28.8145 10.4404V12.0392C28.8145 12.0644 28.8145 12.0644 28.7898 12.0644L28.765 12.0895C28.7398 12.0895 28.7398 12.0895 28.7398 12.0644L28.7151 12.0392V10.6153L28.0926 11.5394C28.0926 11.5646 28.0674 11.5646 28.0674 11.5646C28.0426 11.5646 28.0426 11.5646 28.0179 11.5398L27.3954 10.5902V12.0396C27.3954 12.0644 27.3954 12.0644 27.3702 12.0644L27.3455 12.0895C27.3207 12.0895 27.3207 12.0895 27.3207 12.0644L27.2955 12.0392V10.4651C27.2955 10.4651 27.2955 10.4404 27.3207 10.4404L27.3455 10.4152C27.3702 10.4152 27.3702 10.4152 27.3954 10.4404L28.0678 11.4399L28.7402 10.4404C28.765 10.4152 28.765 10.4152 28.7898 10.4152L28.8145 10.4404ZM30.6576 11.7148C30.5828 11.8394 30.483 11.9393 30.3835 12.0144C30.2588 12.0891 30.1342 12.1143 29.96 12.1143C29.7858 12.1143 29.6611 12.0895 29.5369 12.0144C29.4122 11.9397 29.3127 11.8394 29.2628 11.7144C29.1881 11.5897 29.1633 11.4399 29.1633 11.2649C29.1633 11.09 29.1881 10.9401 29.2628 10.8151C29.3375 10.6901 29.437 10.5902 29.5369 10.5151C29.6611 10.4404 29.7858 10.4152 29.96 10.4152C30.1342 10.4152 30.2588 10.4404 30.3835 10.5151C30.5077 10.5902 30.6076 10.6901 30.6572 10.8151C30.7319 10.9401 30.7567 11.09 30.7567 11.2649C30.7567 11.4144 30.7319 11.5646 30.6572 11.7144L30.6576 11.7148ZM30.5577 10.865C30.5077 10.74 30.4083 10.6653 30.3088 10.5902C30.2089 10.5155 30.0846 10.4903 29.9352 10.4903C29.8106 10.4903 29.6859 10.5151 29.5617 10.5902C29.4622 10.6649 29.3623 10.74 29.3127 10.865C29.2628 10.9901 29.2129 11.1147 29.2129 11.2649C29.2129 11.4144 29.238 11.5398 29.3127 11.6645C29.3623 11.7895 29.4622 11.8646 29.5617 11.9397C29.6611 12.0144 29.7858 12.0392 29.9352 12.0392C30.0595 12.0392 30.1841 12.0144 30.3088 11.9393C30.4083 11.8646 30.5077 11.7899 30.5577 11.6645C30.6076 11.5398 30.6572 11.4148 30.6572 11.2649C30.6572 11.1147 30.6324 10.9649 30.5577 10.865ZM32.201 11.3648C32.2509 11.4395 32.3008 11.5398 32.3008 11.6397C32.3008 11.7895 32.2509 11.8894 32.1514 11.9645C32.0515 12.0392 31.952 12.0895 31.8026 12.0895H31.1302C31.1054 12.0895 31.1054 12.0895 31.1054 12.0644L31.0807 12.0392V10.4651C31.0807 10.4404 31.0807 10.4404 31.1054 10.4404L31.1302 10.4152H31.7778C31.9021 10.4152 32.002 10.4404 32.0767 10.5151C32.1514 10.5902 32.201 10.6901 32.201 10.8151C32.201 10.915 32.1762 10.9901 32.1262 11.0648C32.0767 11.1395 32.0268 11.1898 31.952 11.215C32.0515 11.2398 32.1262 11.2897 32.201 11.3644V11.3648ZM32.0268 10.5902C31.9768 10.5402 31.8773 10.5155 31.7778 10.5155H31.2049V11.1898H31.7778C31.8241 11.1922 31.8703 11.1846 31.9133 11.1673C31.9563 11.1501 31.995 11.1237 32.0268 11.09C32.0767 11.0153 32.1262 10.9401 32.1262 10.8147C32.1015 10.7152 32.0767 10.6401 32.0268 10.5902ZM32.0767 11.9145C32.1514 11.8646 32.1762 11.7643 32.1762 11.6393C32.1762 11.5146 32.151 11.4399 32.0767 11.3648C32.002 11.2901 31.9021 11.2649 31.7778 11.2649H31.1802V11.9893H31.7778C31.9021 11.9893 32.002 11.9645 32.0767 11.9145ZM32.6992 12.0895L32.674 12.1143C32.6492 12.1143 32.6492 12.1143 32.6492 12.0895L32.6245 12.0644V10.4903C32.6245 10.4655 32.6245 10.4655 32.6492 10.4655L32.6744 10.4404C32.6744 10.4404 32.6992 10.4404 32.6992 10.4655L32.7239 10.4903V12.0644L32.6992 12.0895ZM34.1435 12.0144L34.1682 12.0396C34.1682 12.0644 34.1682 12.0644 34.1435 12.0644L34.1183 12.0895H33.2469C33.2221 12.0895 33.2221 12.0895 33.2221 12.0644L33.197 12.0392V10.4651C33.197 10.4404 33.197 10.4404 33.2221 10.4404L33.2469 10.4152C33.2469 10.4152 33.2717 10.4152 33.2717 10.4404L33.2969 10.4651V12.0144H34.1187C34.1187 11.9893 34.1187 12.0144 34.1435 12.0144ZM35.388 12.0144L35.4132 12.0396C35.4132 12.0644 35.4132 12.0644 35.3884 12.0644L35.3636 12.0895H34.4671C34.4423 12.0895 34.4423 12.0895 34.4423 12.0644L34.4171 12.0392V10.4651C34.4171 10.4404 34.4171 10.4404 34.4423 10.4404L34.4671 10.4152H35.3636C35.3884 10.4152 35.3884 10.4152 35.3884 10.4404L35.4132 10.4651C35.4132 10.4903 35.4132 10.4903 35.3884 10.4903L35.3636 10.5151H34.4915V11.1898H35.2386C35.2634 11.1898 35.2634 11.1898 35.2634 11.215L35.2885 11.2398C35.2885 11.2649 35.2885 11.2649 35.2634 11.2649L35.2386 11.2897H34.4915V12.0144H35.3381C35.3632 11.9893 35.388 12.0144 35.388 12.0144ZM37.6046 11.2901L37.6294 11.3149V11.9145C37.6294 11.9397 37.6294 11.9397 37.6046 11.9645C37.5299 12.0144 37.4552 12.0644 37.3557 12.0895C37.281 12.1143 37.1811 12.1395 37.0816 12.1395C36.9074 12.1395 36.758 12.1143 36.6333 12.0396C36.5103 11.966 36.4075 11.8629 36.3345 11.7396C36.2598 11.6145 36.235 11.4647 36.235 11.2901C36.235 11.1151 36.2598 10.9649 36.3345 10.8403C36.4092 10.7152 36.5091 10.6153 36.6333 10.5402C36.758 10.4655 36.9074 10.4404 37.0816 10.4404C37.1811 10.4404 37.2558 10.4404 37.3305 10.4655C37.4052 10.4903 37.4799 10.5155 37.5546 10.5654C37.5794 10.5654 37.5794 10.5902 37.5794 10.6153C37.5794 10.6401 37.5794 10.6401 37.5546 10.6401L37.5299 10.6653H37.5047C37.3774 10.5865 37.2313 10.5434 37.0816 10.5402C36.9322 10.5402 36.8075 10.5654 36.6833 10.6401C36.5586 10.7152 36.4839 10.7903 36.4092 10.9154C36.3345 11.04 36.3097 11.1651 36.3097 11.3149C36.3097 11.4647 36.3345 11.5897 36.4092 11.7148C36.4839 11.8394 36.5586 11.9145 36.6833 11.9897C36.8075 12.0644 36.9322 12.0895 37.0816 12.0895C37.1563 12.0895 37.231 12.0895 37.3057 12.0644C37.3805 12.0396 37.4552 12.0144 37.5047 11.9645V11.4399H37.0816C37.0568 11.4399 37.0568 11.4399 37.0568 11.4148L37.0317 11.39C37.0317 11.3648 37.0317 11.3648 37.0568 11.3648L37.0816 11.3401H37.5546C37.5794 11.2649 37.6046 11.2649 37.6046 11.2901ZM39.2231 12.0396C39.2231 12.0644 39.2231 12.0644 39.1983 12.0644H39.1484L39.1232 12.0392L38.9242 11.5398H38.1276L37.9282 12.0392C37.9282 12.0644 37.9034 12.0644 37.8783 12.0644H37.8535L37.8287 12.0392V12.0144L38.476 10.4404C38.476 10.4152 38.476 10.4152 38.5007 10.4152H38.5259C38.5507 10.4152 38.5754 10.4152 38.5754 10.4404L39.2231 12.0396ZM38.1771 11.4899H38.8995L38.5259 10.5902L38.1771 11.4899ZM41.0158 10.4404V12.0392C41.0158 12.0644 41.0158 12.0644 40.991 12.0644L40.9662 12.0895C40.9411 12.0895 40.9411 12.0895 40.9411 12.0644L40.9163 12.0392V10.6153L40.2938 11.5394C40.2938 11.5646 40.269 11.5646 40.269 11.5646C40.2439 11.5646 40.2439 11.5646 40.2191 11.5398L39.5966 10.5902V12.0396C39.5966 12.0644 39.5966 12.0644 39.5715 12.0644L39.5467 12.0895C39.5219 12.0895 39.5219 12.0895 39.5219 12.0644L39.4968 12.0392V10.4651C39.4968 10.4651 39.4968 10.4404 39.5219 10.4404L39.5467 10.4152C39.5715 10.4152 39.5715 10.4152 39.5966 10.4404L40.269 11.4399L40.9411 10.4404C40.9662 10.4152 40.9662 10.4152 40.991 10.4152C40.991 10.4152 41.0158 10.4152 41.0158 10.4404ZM42.4601 12.0144L42.4848 12.0396C42.4848 12.0644 42.4848 12.0644 42.4601 12.0644L42.4353 12.0895H41.5388C41.514 12.0895 41.514 12.0895 41.514 12.0644L41.4888 12.0392V10.4651C41.4888 10.4404 41.4888 10.4404 41.514 10.4404L41.5388 10.4152H42.4353C42.4601 10.4152 42.4601 10.4152 42.4601 10.4404L42.4848 10.4651C42.4848 10.4903 42.4848 10.4903 42.4601 10.4903L42.4353 10.5151H41.5883V11.1898H42.3354C42.3606 11.1898 42.3606 11.1898 42.3606 11.215L42.3854 11.2398C42.3854 11.2649 42.3854 11.2649 42.3606 11.2649L42.3354 11.2897H41.5883V12.0144H42.4353C42.4601 11.9893 42.4601 12.0144 42.4601 12.0144ZM42.9331 12.0644C42.8336 12.0144 42.7589 11.9645 42.6842 11.8646L42.6594 11.8394C42.6594 11.8147 42.6594 11.8147 42.6842 11.8147L42.709 11.7895C42.7341 11.7895 42.7341 11.7895 42.7589 11.8147C42.8336 11.8894 42.8832 11.9393 42.9831 11.9893C43.0578 12.0396 43.1573 12.0396 43.2567 12.0396C43.3814 12.0396 43.4809 12.0144 43.5556 11.9393C43.5918 11.9135 43.6218 11.8799 43.6433 11.841C43.6649 11.802 43.6775 11.7588 43.6802 11.7144C43.6823 11.6406 43.6555 11.569 43.6055 11.5146C43.5556 11.4647 43.506 11.4148 43.4561 11.3896C43.4062 11.3648 43.3067 11.3149 43.2072 11.2897C43.1073 11.2398 43.0078 11.215 42.9579 11.1898C42.9083 11.1647 42.8336 11.1151 42.8089 11.0648C42.7589 11.0149 42.7341 10.9401 42.7341 10.8399C42.7341 10.7652 42.7589 10.6905 42.8089 10.6153C42.8584 10.5402 42.9083 10.4903 42.9831 10.4651C43.0578 10.4404 43.1573 10.4152 43.2567 10.4152C43.3566 10.4152 43.4313 10.4404 43.5308 10.4651C43.6303 10.4903 43.6802 10.5399 43.7302 10.6153C43.7443 10.6283 43.7532 10.6461 43.7549 10.6653C43.7549 10.6901 43.7549 10.6901 43.7302 10.6901C43.7302 10.6901 43.705 10.7152 43.6802 10.7152C43.6555 10.7152 43.6555 10.7152 43.6555 10.6901C43.6055 10.6401 43.5556 10.5902 43.4809 10.5654C43.4062 10.5402 43.3314 10.5151 43.2567 10.5151C43.1325 10.5151 43.0326 10.5402 42.9579 10.5902C42.9196 10.6139 42.8881 10.647 42.8663 10.6864C42.8446 10.7258 42.8333 10.7701 42.8336 10.8151C42.8336 10.8898 42.8584 10.9401 42.8832 10.9901C42.9331 11.04 42.9831 11.0648 43.0326 11.1147C43.0825 11.1399 43.1573 11.1651 43.2567 11.215C43.3566 11.2649 43.4561 11.2897 43.5308 11.3149C43.6055 11.3397 43.6555 11.3896 43.705 11.4647C43.7549 11.5394 43.7797 11.6145 43.7797 11.7144C43.7797 11.7895 43.7549 11.8646 43.705 11.9145C43.6555 11.9893 43.6055 12.0392 43.5308 12.0644C43.4561 12.1143 43.3566 12.1143 43.2567 12.1143C43.1325 12.1143 43.0326 12.0895 42.9331 12.0644ZM20.5974 7.79163C20.4062 8.15777 20.123 8.46783 19.7756 8.69132C19.4272 8.91624 19.0285 9.01612 18.5802 9.01612C18.1323 9.01612 17.734 8.91624 17.3852 8.69132C17.0378 8.46783 16.7546 8.15777 16.5634 7.79163C16.3644 7.41689 16.2645 6.99222 16.2645 6.54237C16.2645 6.09253 16.3644 5.66785 16.5634 5.29311C16.7546 4.92697 17.0378 4.61691 17.3852 4.39342C17.734 4.16889 18.1323 4.06862 18.5806 4.06862C19.0289 4.06862 19.4272 4.16889 19.776 4.39342C20.1234 4.61691 20.4066 4.92697 20.5978 5.29311C20.7968 5.66785 20.8963 6.09253 20.8963 6.54237C20.8963 6.99222 20.7968 7.41689 20.5974 7.79163ZM19.8007 5.71818C19.6825 5.47555 19.5021 5.26862 19.2778 5.11852C19.0572 4.96966 18.7967 4.89123 18.5306 4.8936C18.257 4.8936 18.0077 4.9687 17.7835 5.11852C17.5594 5.26834 17.3852 5.46849 17.2857 5.71818C17.1611 5.96827 17.1115 6.24313 17.1115 6.56754C17.1115 6.86757 17.1611 7.16759 17.2857 7.41729C17.4028 7.65325 17.5734 7.8586 17.7839 8.01695C18.0081 8.16677 18.257 8.24187 18.531 8.24187C18.8047 8.24187 19.0536 8.16716 19.2778 8.01695C19.5021 7.86687 19.6826 7.65993 19.8007 7.41729C19.925 7.16759 19.9749 6.89273 19.9749 6.5927C19.9997 6.29065 19.9394 5.98769 19.8007 5.71818ZM24.4321 5.61791C24.6063 5.89277 24.7062 6.29268 24.7062 6.76729V8.61622C24.7062 8.74126 24.6562 8.84114 24.5815 8.91624C24.5068 8.99095 24.4073 9.04089 24.2827 9.04089C24.1584 9.04089 24.0585 9.01612 23.9838 8.91624C23.944 8.87717 23.9124 8.83046 23.8911 8.77891C23.8697 8.72735 23.859 8.67202 23.8596 8.61622V6.76729C23.8596 6.51721 23.8096 6.31745 23.7101 6.16763C23.6103 6.01782 23.4361 5.94271 23.1624 5.94271C22.8883 5.94271 22.689 6.01742 22.5395 6.16763C22.3901 6.31745 22.3154 6.5176 22.3154 6.74213V8.59144C22.3154 8.71609 22.2658 8.81597 22.1911 8.89108C22.1164 8.96579 22.0169 9.01612 21.8923 9.01612C21.7676 9.01612 21.6682 8.99096 21.5934 8.89108C21.5536 8.85205 21.5221 8.80541 21.5008 8.75392C21.4794 8.70244 21.4687 8.64718 21.4692 8.59144V5.59235C21.4692 5.4677 21.5187 5.36782 21.5934 5.29272C21.6682 5.21801 21.7676 5.16767 21.8923 5.16767C22.0169 5.16767 22.1164 5.21761 22.1911 5.29272C22.2658 5.36743 22.3158 5.4677 22.3158 5.59235V5.76733C22.44 5.59235 22.5895 5.4677 22.7888 5.34266C22.9878 5.21761 23.2119 5.16767 23.4361 5.16767C23.9343 5.21761 24.2579 5.34266 24.4321 5.61752V5.61791ZM28.6651 7.29224C28.5904 7.36696 28.4909 7.39212 28.3663 7.39212H26.1005C26.1501 7.66738 26.2747 7.86674 26.4741 8.01695C26.6669 8.16474 26.9036 8.2439 27.1465 8.24187C27.3455 8.24187 27.4701 8.2167 27.5948 8.19154C27.6943 8.16677 27.7937 8.11683 27.8437 8.09166C27.8932 8.04172 27.9432 8.01695 27.9679 8.01695C28.0426 7.96701 28.1174 7.96701 28.1921 7.96701C28.2916 7.96701 28.3663 7.99178 28.441 8.06689C28.5157 8.1416 28.5409 8.2167 28.5409 8.31658C28.5409 8.44163 28.4661 8.5415 28.3415 8.66655C28.2168 8.76643 28.0426 8.8663 27.8185 8.94141C27.5944 9.01612 27.3954 9.04129 27.1713 9.04129C26.7977 9.04129 26.4489 8.96658 26.1752 8.7912C25.9012 8.64178 25.677 8.41646 25.5028 8.11683C25.3534 7.84157 25.2787 7.51717 25.2787 7.1672C25.2787 6.76729 25.3534 6.41772 25.5276 6.11769C25.7022 5.81806 25.9012 5.59314 26.1752 5.44332C26.4489 5.29311 26.723 5.19323 27.0466 5.19323C27.3455 5.19323 27.6443 5.26834 27.8932 5.44332C28.1673 5.6183 28.3663 5.84283 28.5409 6.11769C28.6903 6.39295 28.7898 6.69258 28.7898 7.01738C28.7898 7.14243 28.765 7.2423 28.6651 7.29224ZM26.1253 6.71736H27.9184V6.66742C27.8932 6.46766 27.7937 6.31745 27.6443 6.16803C27.4701 6.01782 27.2708 5.96788 27.0714 5.96788C26.5484 5.96788 26.2248 6.21797 26.1253 6.71736ZM32.525 4.14373C32.5997 4.21844 32.6492 4.31871 32.6492 4.44336C32.6492 4.56841 32.5997 4.66828 32.525 4.71862C32.4503 4.79333 32.3504 4.8181 32.2261 4.8181H31.1554V8.59105C31.1554 8.71609 31.1054 8.81597 31.0307 8.89108C30.956 8.96579 30.8318 9.01612 30.7071 9.01612C30.5825 9.01612 30.483 8.96618 30.3835 8.89108C30.3436 8.85204 30.312 8.80534 30.2905 8.75379C30.2691 8.70223 30.2583 8.64688 30.2588 8.59105V4.84327H29.1881C29.0634 4.84327 28.964 4.8181 28.8893 4.74339C28.8494 4.70432 28.8179 4.65761 28.7965 4.60605C28.7752 4.5545 28.7644 4.49916 28.765 4.44336C28.765 4.31871 28.8145 4.24361 28.8893 4.1685C28.964 4.09379 29.0638 4.06862 29.1881 4.06862H32.2261C32.3504 4.04385 32.4503 4.06862 32.525 4.14333V4.14373ZM35.6373 8.11683C35.4631 8.41646 35.239 8.64138 34.9649 8.7912C34.6755 8.95256 34.3502 9.03855 34.0188 9.04129C33.67 9.04129 33.3464 8.96658 33.0727 8.7912C32.7986 8.64178 32.5745 8.41646 32.4003 8.11683C32.2261 7.8168 32.1514 7.492 32.1514 7.11726C32.1514 6.74252 32.2261 6.41733 32.4003 6.11769C32.5745 5.81806 32.7986 5.59314 33.0727 5.44332C33.3464 5.26834 33.6704 5.19323 34.0188 5.19323C34.3672 5.19323 34.666 5.26834 34.9649 5.44332C35.239 5.6183 35.4879 5.84283 35.6373 6.11769C35.8115 6.41772 35.8862 6.74252 35.8862 7.11726C35.8862 7.492 35.8115 7.81719 35.6373 8.11683ZM34.9154 6.5176C34.8155 6.34262 34.6912 6.1928 34.5418 6.11769C34.3924 6.01782 34.2182 5.96827 34.0188 5.96827C33.8194 5.96827 33.6453 6.01782 33.4958 6.11769C33.3464 6.21797 33.2221 6.34262 33.1223 6.5176C33.0228 6.69258 32.9728 6.89234 32.9728 7.11726C32.9728 7.34218 33.0228 7.54194 33.1223 7.71692C33.2221 7.8919 33.3464 8.01695 33.4958 8.11683C33.6453 8.2167 33.8194 8.26664 34.0188 8.26664C34.2182 8.26664 34.3924 8.2167 34.5418 8.11683C34.6912 8.01695 34.8155 7.8919 34.9154 7.71692C35.0148 7.54194 35.0648 7.34218 35.0648 7.11726C35.0648 6.89234 35.0148 6.69258 34.9154 6.5176ZM39.5219 5.31828C39.5966 5.39299 39.6462 5.49326 39.6462 5.6183V7.44206C39.6462 7.94184 39.5219 8.31658 39.2479 8.61661C38.9738 8.91624 38.5754 9.04129 38.0776 9.04129C37.5794 9.04129 37.1811 8.89147 36.9074 8.61661C36.6333 8.34136 36.5087 7.94184 36.5087 7.44206V5.6183C36.5087 5.49326 36.5586 5.39338 36.6333 5.31828C36.708 5.24357 36.8075 5.19323 36.9322 5.19323C37.0564 5.19323 37.1563 5.24317 37.231 5.31828C37.3057 5.39299 37.3553 5.49326 37.3553 5.6183V7.44206C37.3553 7.71731 37.4052 7.94184 37.5299 8.06689C37.6541 8.19154 37.8287 8.26664 38.0776 8.26664C38.3265 8.26664 38.5259 8.19193 38.6502 8.06689C38.7748 7.94184 38.8247 7.71692 38.8247 7.44206V5.6183C38.8247 5.49326 38.8743 5.39338 38.949 5.31828C39.0237 5.24357 39.1236 5.19323 39.2479 5.19323C39.3473 5.2184 39.4472 5.24317 39.5219 5.31828ZM42.9831 5.39299C43.232 5.51803 43.3314 5.66824 43.3314 5.868C43.3314 5.96788 43.3067 6.06776 43.232 6.14286C43.2063 6.17907 43.1728 6.20907 43.134 6.23064C43.0953 6.25221 43.0521 6.26481 43.0078 6.26751C42.9331 6.26751 42.8836 6.26751 42.8336 6.24274C42.7837 6.21757 42.7341 6.1928 42.709 6.16803C42.6594 6.14286 42.6343 6.09292 42.5847 6.09292C42.5228 6.06176 42.4547 6.0447 42.3854 6.04298C42.2859 6.01782 42.2359 6.01782 42.1612 6.01782C41.8128 6.01782 41.5388 6.11769 41.3646 6.34262C41.1652 6.56754 41.0657 6.84201 41.0657 7.1672C41.0657 7.492 41.1652 7.76686 41.3646 7.99178C41.5635 8.2167 41.8128 8.31658 42.1117 8.31658C42.3354 8.31658 42.51 8.29142 42.6095 8.24187C42.6343 8.2167 42.6842 8.19154 42.7341 8.16677C42.7837 8.1416 42.8336 8.11683 42.8584 8.09166C42.9083 8.06649 42.9583 8.06649 43.0078 8.06649C43.1325 8.06649 43.2072 8.09166 43.2819 8.16677C43.3566 8.24148 43.3814 8.34136 43.3814 8.44163C43.3814 8.5415 43.3067 8.66616 43.182 8.74126C43.0578 8.84114 42.8836 8.91624 42.6842 8.96618C42.464 9.01847 42.2381 9.04356 42.0118 9.04089C41.6634 9.04089 41.3394 8.96618 41.0905 8.7912C40.8281 8.62414 40.6136 8.39176 40.468 8.11683C40.3179 7.81398 40.2411 7.48005 40.2439 7.14203C40.2439 6.76729 40.3186 6.44249 40.468 6.14286C40.6174 5.84283 40.8416 5.61791 41.1157 5.46809C41.3893 5.29311 41.713 5.2184 42.037 5.2184C42.4353 5.2184 42.7341 5.26834 42.9831 5.39299ZM46.8177 5.6183C46.9919 5.89277 47.0666 6.29268 47.0666 6.76729V8.59144C47.0666 8.71649 47.0167 8.81637 46.942 8.89147C46.8673 8.96618 46.7678 9.01612 46.6431 9.01612C46.5189 9.01612 46.4194 8.96618 46.3447 8.89147C46.3048 8.85243 46.2732 8.80574 46.2517 8.75418C46.2303 8.70262 46.2195 8.64727 46.22 8.59144V6.76729C46.22 6.5176 46.1701 6.31784 46.0706 6.16763C45.9711 6.01821 45.7965 5.9431 45.5476 5.9431C45.2987 5.9431 45.0994 6.01782 44.9499 6.16763C44.8005 6.31784 44.7258 6.5176 44.7258 6.74252V8.56667C44.7258 8.69132 44.6763 8.7912 44.6015 8.8663C44.5268 8.94102 44.4274 8.99135 44.3027 8.99135C44.1781 8.99135 44.0786 8.94141 44.0039 8.8663C43.964 8.82731 43.9324 8.78068 43.911 8.7292C43.8896 8.67771 43.8788 8.62243 43.8792 8.56667V4.46813C43.8792 4.34348 43.9291 4.24361 44.0039 4.1685C44.0786 4.09379 44.1781 4.04346 44.3027 4.04346C44.4274 4.04346 44.5268 4.0934 44.6015 4.1685C44.6763 4.24321 44.7258 4.34348 44.7258 4.46813V5.81767C44.8505 5.64268 44.9999 5.51764 45.1992 5.39299C45.385 5.27475 45.6015 5.21389 45.8217 5.21801C46.3195 5.21801 46.6432 5.34305 46.8177 5.61791V5.6183Z" fill="white"/>
<path d="M9.08328 9.96532C9.03562 10.0063 8.99651 10.0563 8.9682 10.1124C8.93988 10.1685 8.92292 10.2297 8.91828 10.2923C8.91364 10.355 8.92142 10.418 8.94116 10.4777C8.96091 10.5373 8.99223 10.5925 9.03334 10.6401C9.07399 10.6878 9.12371 10.7271 9.17964 10.7555C9.23556 10.7839 9.29656 10.8009 9.35911 10.8055C9.42166 10.8102 9.48451 10.8024 9.54401 10.7825C9.60352 10.7627 9.65849 10.7313 9.70575 10.69C10.5024 10.0404 10.9507 9.06602 10.9507 8.04168C10.9507 6.14243 9.4069 4.59314 7.51433 4.59314C5.62215 4.59314 4.07837 6.14243 4.07837 8.04168C4.07799 8.55371 4.1918 9.05937 4.41151 9.52186C4.63123 9.98435 4.95131 10.392 5.34847 10.7152C5.54744 10.8898 5.84629 10.8398 6.02049 10.6401C6.19468 10.4403 6.14514 10.1407 5.94577 9.96532C4.12792 8.49113 5.14911 5.51799 7.48956 5.51799C9.8304 5.56793 10.876 8.49113 9.08328 9.96532ZM10.5272 12.2892C11.8221 11.3396 12.6687 9.81589 12.6687 8.09162C12.6713 8.02788 12.661 7.96427 12.6384 7.90461C12.6157 7.84495 12.5813 7.79047 12.5371 7.74445C12.493 7.69843 12.4399 7.66181 12.3812 7.6368C12.3226 7.61179 12.2594 7.59889 12.1956 7.59889C12.1318 7.59889 12.0687 7.61179 12.01 7.6368C11.9513 7.66181 11.8983 7.69843 11.8541 7.74445C11.8099 7.79047 11.7755 7.84495 11.7529 7.90461C11.7303 7.96427 11.72 8.02788 11.7226 8.09162C11.7226 9.51586 11.0254 10.7651 9.95466 11.5398C9.75529 11.6896 9.70575 11.9896 9.85517 12.1894C10.0046 12.3891 10.3034 12.4391 10.5276 12.2892H10.5272Z" fill="#053CE6"/>
<path d="M5.54741 1.49494C5.29811 1.57005 5.14869 1.82014 5.2234 2.06983C5.29811 2.31992 5.54741 2.46974 5.79632 2.39463C9.58107 1.27002 13.3658 4.09374 13.3658 8.04167C13.3658 8.29137 13.5652 8.51629 13.8393 8.51629C14.0882 8.51629 14.3123 8.31653 14.3123 8.04167C14.2875 3.4693 9.90469 0.170972 5.54741 1.49534V1.49494Z" fill="#053CE6"/>
<path d="M10.7517 4.04378C7.41482 1.32033 2.33521 3.69381 2.33521 8.06642C2.33521 10.9401 4.65127 13.264 7.51431 13.264C7.76361 13.264 7.98775 13.0639 7.98775 12.789C7.98775 12.5141 7.78838 12.3144 7.51431 12.3144C5.17386 12.3144 3.28129 10.4151 3.28129 8.06681C3.28129 4.49362 7.4396 2.54482 10.1788 4.76848C10.3781 4.94346 10.677 4.89353 10.8512 4.69377C11.0006 4.51879 10.9758 4.21876 10.7517 4.04417V4.04378Z" fill="#053CE6"/>
<path d="M1.13979 7.64172C0.890884 7.64172 0.666748 7.84148 0.666748 8.11673C0.666748 11.8893 3.72954 14.9627 7.48912 14.9627C9.09207 14.9582 10.6428 14.3924 11.872 13.3635C12.0713 13.1889 12.0961 12.8889 11.9219 12.6891C11.8812 12.6413 11.8315 12.6021 11.7756 12.5737C11.7197 12.5453 11.6587 12.5283 11.5961 12.5236C11.5336 12.519 11.4707 12.5268 11.4112 12.5466C11.3517 12.5665 11.2967 12.5979 11.2495 12.6392C10.2035 13.5385 8.85871 14.0135 7.46474 14.0135C4.20259 14.0135 1.56329 11.3647 1.56329 8.09157C1.61284 7.84148 1.3887 7.64172 1.13979 7.64172Z" fill="#053CE6"/>
</g>
<defs>
<clipPath id="clip0_1748_12387">
<rect width="46.4" height="16" fill="white" transform="translate(0.666748)"/>
</clipPath>
</defs>
</svg>
