<svg width="48" height="16" viewBox="0 0 48 16" fill="none" xmlns="http://www.w3.org/2000/svg">
<g clip-path="url(#clip0_1748_12400)">
<path fill-rule="evenodd" clip-rule="evenodd" d="M13.7179 4.7715C13.7179 4.81046 13.7179 4.84942 13.7569 4.88838H13.8738H14.575H15.0815C15.1204 4.88838 15.1399 4.88838 15.1497 4.87864C15.1594 4.8689 15.1594 4.84942 15.1594 4.81046V4.65463C15.1204 4.45983 15.0815 4.304 15.0425 4.14816C14.8867 3.6417 14.6529 3.21315 14.3023 2.82356C13.8738 2.35605 13.3283 2.08334 12.744 1.92751C12.3154 1.81063 11.8479 1.77167 11.3804 1.81063C11.0298 1.81063 10.7181 1.84959 10.3675 1.96647C9.6662 2.20022 9.12078 2.55085 8.69223 3.13523C8.38056 3.52482 8.18577 3.99233 8.06889 4.49879C8.06889 4.55723 8.05915 4.60593 8.04941 4.65463C8.03967 4.70333 8.02993 4.75202 8.02993 4.81046V4.81047C8.02993 4.84942 8.02993 4.8689 8.03967 4.87864C8.04941 4.88838 8.06889 4.88838 8.10785 4.88838H9.35453C9.39349 4.88838 9.41297 4.88838 9.42271 4.87864C9.43245 4.8689 9.43245 4.84942 9.43245 4.81046C9.47141 4.57671 9.54933 4.34296 9.6662 4.14816C9.93892 3.75857 10.2895 3.48586 10.7571 3.36898C11.1077 3.25211 11.4583 3.25211 11.8089 3.25211C12.0817 3.25211 12.3544 3.33003 12.5881 3.40794C13.2115 3.68066 13.601 4.1092 13.7179 4.7715ZM36.1583 4.88839H36.7427H37.0154H37.3661C37.4245 4.88839 37.4537 4.88839 37.4683 4.87378C37.4829 4.85917 37.4829 4.82996 37.4829 4.77152C37.4829 4.73256 37.4732 4.68386 37.4635 4.63516L37.4634 4.63509C37.4537 4.58642 37.444 4.53775 37.444 4.49881C37.3271 3.99234 37.1713 3.52483 36.8985 3.09629C36.5479 2.55086 36.1194 2.16127 35.496 1.96648C35.1064 1.8496 34.7558 1.81064 34.3662 1.81064C33.7429 1.8496 33.1975 2.0444 32.7299 2.39503C32.4962 2.55086 32.3014 2.78462 32.1845 2.97941L32.0676 3.09629C32.0287 3.13525 32.0287 3.13525 31.9897 3.09629C31.9897 3.05733 31.9508 3.01837 31.9118 2.97941C31.8469 2.91448 31.7863 2.84522 31.7257 2.77596C31.6045 2.63744 31.4833 2.49892 31.3274 2.39503C30.821 2.00544 30.3145 1.81064 29.6912 1.81064C29.4184 1.81064 29.1847 1.8496 28.9509 1.88856C28.1718 2.0444 27.5484 2.43399 27.1199 3.09629C26.8082 3.56379 26.6134 4.0313 26.5355 4.57672C26.4965 4.65464 26.4965 4.73256 26.4965 4.81048C26.4965 4.88839 26.4965 4.88839 26.5745 4.88839H26.6913H27.7822C27.8675 4.88839 27.9061 4.88839 27.9236 4.86918C27.938 4.85332 27.938 4.82437 27.938 4.77152L27.938 4.77147L27.938 4.77145V4.77144L27.938 4.7714C27.977 4.57665 28.0159 4.3819 28.0938 4.22609C28.2886 3.71963 28.6782 3.40796 29.1847 3.29108C29.3795 3.25212 29.6132 3.25212 29.808 3.25212C30.2755 3.25212 30.6651 3.48588 30.9378 3.87546C31.0937 4.07026 31.1716 4.30401 31.2495 4.57672C31.2495 4.61568 31.2593 4.65464 31.269 4.6936L31.269 4.69362C31.2787 4.73257 31.2885 4.77152 31.2885 4.81048C31.2885 4.84944 31.3274 4.88839 31.3664 4.88839H31.4443H32.5741H32.652C32.691 4.88839 32.7299 4.84944 32.7299 4.81048V4.73256C32.7689 4.53776 32.8079 4.34297 32.8858 4.14818C33.0806 3.75859 33.3533 3.48588 33.7818 3.33004C34.0546 3.25212 34.3662 3.21316 34.6779 3.25212C35.2233 3.33004 35.6129 3.60275 35.8467 4.10922C35.9635 4.30401 36.0025 4.53776 36.0415 4.77152C36.0415 4.82996 36.0415 4.85917 36.0561 4.87378C36.0707 4.88839 36.0999 4.88839 36.1583 4.88839ZM11.731 12.0179C11.5362 12.0179 11.3804 12.0958 11.2635 12.2516C11.1466 12.4075 11.1077 12.6023 11.1077 12.875C11.1077 13.4204 11.3025 13.7321 11.731 13.7321C11.9258 13.7321 12.1206 13.6931 12.3933 13.6152V14.0827C12.1985 14.1606 11.9648 14.1996 11.6921 14.1996C11.3414 14.1996 11.0298 14.0827 10.835 13.8489C10.6402 13.6152 10.5623 13.3035 10.5623 12.875C10.5623 12.6023 10.6012 12.3685 10.7181 12.1737C10.796 11.9789 10.9518 11.8231 11.1466 11.7062C11.3414 11.5893 11.5362 11.5504 11.77 11.5504C12.0037 11.5504 12.2764 11.6283 12.5102 11.7452L12.3544 12.1737C12.3154 12.1542 12.2667 12.1347 12.218 12.1153C12.1693 12.0958 12.1206 12.0763 12.0817 12.0568C11.9981 12.0568 11.937 12.0456 11.8803 12.0353C11.8311 12.0263 11.7853 12.0179 11.731 12.0179ZM19.1332 14.1216V11.5893H19.6396V14.1216H19.1332ZM26.925 14.1216H27.4315V12.0568H28.1328V11.6283H26.2238V12.0568H26.925V14.1216ZM35.5348 12.6412L36.0803 11.5893H36.6646L35.8075 13.1477V14.1216H35.2621V13.1477L34.405 11.5893H34.9894L35.5348 12.6412ZM8.69226 5.27798H9.3156C9.39352 5.27798 9.39352 5.27798 9.39352 5.3559V5.70653C9.39352 5.97924 9.43248 6.21299 9.54935 6.44674C9.70519 6.87529 9.9779 7.22592 10.4064 7.42072C10.6402 7.57655 10.9129 7.65447 11.1856 7.65447C11.5363 7.69343 11.8479 7.69343 12.1986 7.61551C12.9777 7.42072 13.4452 6.95321 13.679 6.21299C13.6847 6.19025 13.6904 6.16834 13.6959 6.1469C13.7285 6.02139 13.7569 5.91186 13.7569 5.74549V5.3559C13.7569 5.31694 13.7569 5.27798 13.8348 5.27798H15.1205C15.1594 5.27798 15.1984 5.27798 15.1984 5.3559C15.1984 5.78444 15.1984 6.21299 15.0815 6.60258C14.9646 7.07009 14.7698 7.49863 14.4582 7.88822C14.0686 8.39469 13.5621 8.74532 12.9777 8.94011C12.5881 9.05699 12.1986 9.13491 11.77 9.13491C11.3415 9.13491 10.9129 9.09595 10.4844 9.01803C9.43248 8.74532 8.73122 8.12198 8.30267 7.148C8.14683 6.79737 8.02996 6.40779 7.991 6.0182C7.96527 5.86386 7.97352 5.72651 7.98209 5.58371L7.98209 5.5837C7.9865 5.51022 7.991 5.43531 7.991 5.3559C7.991 5.31694 8.02996 5.27798 8.06891 5.27798H8.38059H8.69226ZM2.2251 1.84961H3.39387C3.66658 1.84961 3.90033 1.88857 4.17305 1.96649C4.64055 2.08336 5.0691 2.27816 5.45869 2.58983C6.00411 3.01838 6.31578 3.5638 6.47162 4.26506C6.51058 4.42089 6.51058 4.57673 6.51058 4.73256V4.84944C6.51058 4.92736 6.51058 4.92736 6.43266 4.96632H6.3937H5.26389H5.18598C5.14702 4.96632 5.10806 4.92736 5.10806 4.8884C5.10806 4.77152 5.10806 4.65465 5.0691 4.57673C5.03014 4.34298 4.95222 4.10922 4.79639 3.91443C4.56263 3.60276 4.25096 3.44692 3.86137 3.369C3.7445 3.33005 3.58866 3.33005 3.47179 3.33005H2.26406H2.18614C2.14718 3.25213 2.10823 3.29109 2.10823 3.33005V3.44692V4.77152C2.10823 4.84944 2.10823 4.8884 2.08875 4.90788C2.06927 4.92736 2.03031 4.92736 1.95239 4.92736H0.822583H0.705707C0.666748 4.92736 0.666748 4.92736 0.666748 4.8884V4.77152V2.0444C0.666748 1.94782 0.666748 1.9087 0.685742 1.89381C0.698673 1.88367 0.720405 1.88476 0.756931 1.88658L0.756931 1.88658H0.756931H0.756931H0.756931H0.756932H0.756932H0.756932H0.756932H0.756932H0.756932H0.756933H0.756933C0.774969 1.88749 0.796612 1.88857 0.822583 1.88857C1.29009 1.84961 1.7576 1.84961 2.2251 1.84961H2.2251ZM16.9905 9.13491H18.9774C19.6397 9.13491 20.341 9.13491 21.0423 9.05699H21.1981C21.1981 9.05699 21.2371 9.05699 21.2371 9.01803V8.90115V7.84926C21.2371 7.75187 21.2371 7.70317 21.2127 7.67882C21.1884 7.65447 21.1397 7.65447 21.0423 7.65447H18.3931C18.2768 7.65447 18.228 7.65447 18.2083 7.63052C18.1941 7.61319 18.1951 7.58332 18.1968 7.53182V7.5318V7.53174V7.53167V7.53159C18.1975 7.51119 18.1983 7.48741 18.1983 7.45967V5.47277V5.31694C18.1983 5.27798 18.1983 5.27798 18.1593 5.27798H18.0424H16.9905C16.8931 5.27798 16.8444 5.27798 16.8201 5.30233C16.7958 5.32668 16.7958 5.37538 16.7958 5.47277V8.97907V9.09595C16.7958 9.11543 16.7958 9.12517 16.8006 9.13004C16.8055 9.13491 16.8152 9.13491 16.8347 9.13491H16.9905ZM44.6903 1.81064H46.872H47.0278C47.0473 1.81064 47.057 1.81064 47.0619 1.81551C47.0668 1.82038 47.0668 1.83012 47.0668 1.8496V1.96648V3.09629V3.21316C47.0668 3.25212 47.0278 3.25212 47.0278 3.25212H46.9109H45.5863C45.4305 3.25212 45.4305 3.25212 45.4305 3.40796V4.6936V4.81048C45.4305 4.84944 45.4305 4.86891 45.4207 4.87865C45.411 4.88839 45.3915 4.88839 45.3526 4.88839H44.5344H44.0669C44.028 4.88839 43.989 4.88839 43.989 4.84944V4.6936V3.48588V3.369C43.989 3.25212 43.989 3.25212 43.8721 3.25212H42.5086C42.4739 3.25212 42.4442 3.25275 42.4188 3.25329C42.3447 3.25487 42.3076 3.25566 42.2894 3.23751C42.2713 3.21936 42.2721 3.18228 42.2737 3.1081L42.2737 3.10774V3.10765V3.10756V3.10744V3.10731V3.10716V3.10699V3.1068V3.10658C42.2742 3.08157 42.2748 3.0524 42.2748 3.01837V2.00544V1.88856C42.2748 1.8496 42.3138 1.8496 42.3138 1.8496H42.4696C43.2098 1.81064 43.9501 1.81064 44.6903 1.81064ZM39.197 5.43381V7.22592V8.94011V9.05699C39.197 9.09595 39.197 9.11543 39.2068 9.12517C39.2165 9.13491 39.236 9.13491 39.2749 9.13491H39.3139H40.4827C40.5411 9.13491 40.5703 9.13491 40.5849 9.1203C40.5995 9.10569 40.5995 9.07647 40.5995 9.01803V5.47277V5.3559C40.5995 5.31694 40.5995 5.27798 40.5606 5.27798H40.4827H39.3529C39.197 5.27798 39.197 5.27798 39.197 5.43381ZM36.0415 7.18696V5.43381C36.0415 5.27798 36.0415 5.27798 36.1973 5.27798H37.3271H37.444C37.4829 5.27798 37.4829 5.27798 37.4829 5.31694V5.47277V8.27781V8.97907V9.05699C37.4829 9.09595 37.4829 9.13491 37.405 9.13491H37.3271H36.1973H36.0804C36.0609 9.13491 36.0512 9.13491 36.0463 9.13004C36.0415 9.12517 36.0415 9.11543 36.0415 9.09595V8.94011V7.18696ZM32.6909 8.97907V7.22592V5.47277V5.31694C32.6909 5.27798 32.6909 5.27798 32.652 5.27798H32.5351H31.4053C31.2495 5.27798 31.2495 5.27798 31.2495 5.43381V8.97907V9.09595C31.2495 9.11543 31.2495 9.12517 31.2543 9.13004C31.2592 9.13491 31.2689 9.13491 31.2884 9.13491H31.4053H32.5351C32.613 9.13491 32.652 9.13491 32.6715 9.11543C32.6909 9.09595 32.6909 9.05699 32.6909 8.97907ZM23.068 7.22593V5.51174V5.43382C23.068 5.37538 23.068 5.34616 23.0826 5.33155C23.0972 5.31694 23.1265 5.31694 23.1849 5.31694H24.3537H24.4316C24.4705 5.31694 24.4705 5.3559 24.4705 5.39486V5.47278V9.01803V9.05699C24.4705 9.09595 24.4705 9.11543 24.4608 9.12517C24.4511 9.13491 24.4316 9.13491 24.3926 9.13491H23.1459C23.107 9.13491 23.0875 9.13491 23.0778 9.12517C23.068 9.11543 23.068 9.09595 23.068 9.05699V8.94012V7.22593ZM1.99135 9.09595C2.03031 9.09595 2.06927 9.09595 2.10823 9.05699C2.10823 9.01803 2.10823 8.97907 2.06927 8.86219V5.43381V5.31694C2.06927 5.27798 2.06927 5.27798 2.03031 5.27798H1.91343H0.822583H0.744666C0.666748 5.27798 0.666748 5.27798 0.666748 5.3559V5.51173V8.90115V9.01803C0.666748 9.09595 0.705707 9.09595 0.744666 9.09595H0.822583H1.99135ZM6.51058 7.22592V8.90115V9.01803C6.51058 9.09595 6.51058 9.09595 6.43266 9.09595H5.18597H5.14702C5.10806 9.09595 5.10806 9.05699 5.10806 9.05699V8.94011V5.47277V5.43381C5.10806 5.27798 5.10806 5.27798 5.26389 5.27798H6.3937H6.47162C6.54953 5.27798 6.54953 5.27798 6.54953 5.3559V5.51173C6.51058 6.13507 6.51058 6.68048 6.51058 7.2259V7.22592ZM26.4965 5.51174V7.22593V8.97908V9.09595C26.4965 9.17387 26.4965 9.17387 26.5745 9.17387H26.6134H27.7822H27.8601C27.8991 9.17387 27.8991 9.17387 27.8991 9.13491V9.01803V5.51174V5.39486C27.8991 5.31694 27.8601 5.31694 27.8211 5.31694H27.7432H26.6134H26.5355C26.4965 5.31694 26.4965 5.31694 26.4965 5.3559V5.51174ZM45.4305 7.22592V8.97907V8.97912C45.4305 9.057 45.4305 9.09595 45.411 9.11543C45.3915 9.1349 45.3526 9.1349 45.2747 9.1349H44.1448H44.028C43.989 9.1349 43.989 9.09595 43.989 9.09595V8.97907V5.51173C43.989 5.4775 43.9882 5.44912 43.9875 5.4256C43.9858 5.36883 43.985 5.34045 43.9987 5.32668C44.0125 5.3129 44.0409 5.31374 44.0977 5.31541C44.1212 5.3161 44.1496 5.31694 44.1838 5.31694H45.2357H45.3526C45.3915 5.31694 45.3915 5.3559 45.3915 5.3559V5.51173C45.4305 6.05716 45.4305 6.64154 45.4305 7.22592ZM40.6385 4.6936V3.369C40.6385 2.90149 40.6385 2.47294 40.5995 2.00544V1.88856C40.5995 1.8496 40.5995 1.83012 40.5898 1.82038C40.5801 1.81064 40.5606 1.81064 40.5216 1.81064H39.2749C39.236 1.81064 39.2165 1.81064 39.2068 1.82038C39.197 1.83012 39.197 1.8496 39.197 1.88856V2.00544V4.6936V4.81048C39.197 4.84943 39.197 4.86891 39.2068 4.87865C39.2165 4.88839 39.236 4.88839 39.2749 4.88839H40.5216C40.5879 4.88839 40.6166 4.88839 40.629 4.87418C40.6385 4.86333 40.6385 4.8442 40.6385 4.81048V4.6936ZM23.068 3.369V1.96648C23.068 1.81064 23.068 1.81064 23.2239 1.81064H24.3537H24.4705C24.49 1.81064 24.4998 1.81064 24.5046 1.81551C24.5095 1.82038 24.5095 1.83012 24.5095 1.8496V1.96648V4.73256C24.5095 4.81048 24.5095 4.84944 24.49 4.86891C24.4705 4.88839 24.4316 4.88839 24.3537 4.88839H23.2239H23.107C23.068 4.88839 23.068 4.84944 23.068 4.84944V4.73256V3.369ZM18.1983 4.77151V3.36899C18.1983 2.90148 18.1983 2.47293 18.2372 2.08334V1.96647C18.2372 1.92751 18.2372 1.88855 18.1983 1.88855H18.0814H16.9905C16.8931 1.88855 16.8444 1.88855 16.8201 1.9129C16.7958 1.93725 16.7958 1.98595 16.7958 2.08334V4.77151V4.88838C16.7958 4.88838 16.7958 4.92734 16.8347 4.92734H16.9126H18.0424C18.1204 4.92734 18.1593 4.92734 18.1788 4.90786C18.1983 4.88838 18.1983 4.84942 18.1983 4.77151Z" fill="white"/>
</g>
<defs>
<clipPath id="clip0_1748_12400">
<rect width="46.4" height="16" fill="white" transform="translate(0.666748)"/>
</clipPath>
</defs>
</svg>
