<svg width="47" height="16" viewBox="0 0 47 16" fill="none" xmlns="http://www.w3.org/2000/svg">
<g clip-path="url(#clip0_1748_12458)">
<path d="M6.95282 14.4911C10.6087 14.4911 13.5724 11.5274 13.5724 7.87152C13.5724 4.21564 10.6087 1.25195 6.95282 1.25195C3.29694 1.25195 0.333252 4.21564 0.333252 7.87152C0.333252 11.5274 3.29694 14.4911 6.95282 14.4911Z" fill="white"/>
<path d="M11.8702 9.92682L9.75192 7.80856L11.8702 5.69029C12.135 5.42551 12.135 5.00942 11.8702 4.74464L9.99149 2.86595C9.72671 2.60116 9.31062 2.60116 9.04584 2.86595L6.92757 4.98421L4.80931 2.86595C4.54453 2.60116 4.12844 2.60116 3.86366 2.86595L1.98496 4.74464C1.72018 5.00942 1.72018 5.42551 1.98496 5.69029L4.10323 7.80856L1.98496 9.92682C1.72018 10.1916 1.72018 10.6077 1.98496 10.8725L3.86366 12.7512C4.12844 13.0159 4.54453 13.0159 4.80931 12.7512L6.92757 10.6329L9.04584 12.7512C9.31062 13.0159 9.72671 13.0159 9.99149 12.7512L11.8702 10.8725C12.135 10.6077 12.135 10.1916 11.8702 9.92682Z" fill="#FF003A"/>
<path d="M43.5811 1.25195C41.8411 1.25195 40.429 2.66413 40.429 4.40413C40.429 6.14413 41.8411 7.5563 43.5811 7.5563C45.3211 7.5563 46.7333 6.14413 46.7333 4.40413C46.7333 2.66413 45.3211 1.25195 43.5811 1.25195ZM45.0311 5.03456C45.1068 5.11021 45.1068 5.2363 45.0311 5.31195L44.4763 5.86674C44.4007 5.94239 44.2746 5.94239 44.199 5.86674L43.5811 5.24891L42.9633 5.86674C42.8877 5.94239 42.7616 5.94239 42.6859 5.86674L42.1311 5.31195C42.0555 5.2363 42.0555 5.11021 42.1311 5.03456L42.749 4.41674L42.1311 3.79891C42.0555 3.72326 42.0555 3.59717 42.1311 3.52152L42.6859 2.96674C42.7616 2.89108 42.8877 2.89108 42.9633 2.96674L43.5811 3.58456L44.199 2.96674C44.2746 2.89108 44.4007 2.89108 44.4763 2.96674L45.0311 3.52152C45.1068 3.59717 45.1068 3.72326 45.0311 3.79891L44.4133 4.41674L45.0311 5.03456Z" fill="white"/>
<path d="M23.8358 9.06934H25.601C25.6767 9.06934 25.7523 9.11977 25.7775 9.19542L27.7445 14.4532C27.7949 14.5793 27.694 14.7054 27.568 14.7054H25.9288C25.8532 14.7054 25.7775 14.655 25.7523 14.5793L25.5884 14.1254C25.5632 14.0498 25.4875 13.9993 25.4119 13.9993H24.0249C23.9493 13.9993 23.8736 14.0498 23.8484 14.1254L23.6845 14.5793C23.6593 14.655 23.5836 14.7054 23.508 14.7054H21.8814C21.7553 14.7054 21.6545 14.5793 21.7049 14.4532L23.6593 9.18281C23.6845 9.11977 23.7601 9.06934 23.8358 9.06934ZM25.0967 12.7132C25.2227 12.7132 25.311 12.5872 25.2732 12.4737L24.731 10.7967H24.6932L24.1636 12.4737C24.1258 12.5998 24.214 12.7132 24.3401 12.7132H25.0967Z" fill="white"/>
<path d="M28.5768 9.06934H29.8755C29.9386 9.06934 29.989 9.09455 30.0268 9.14499L31.5777 11.238C31.6533 11.3389 31.8047 11.3389 31.8803 11.238L33.4312 9.14499C33.469 9.09455 33.5194 9.06934 33.5825 9.06934H34.8686C34.9694 9.06934 35.0577 9.1576 35.0577 9.25847V14.5163C35.0577 14.6172 34.9694 14.7054 34.8686 14.7054H33.3429C33.242 14.7054 33.1538 14.6172 33.1538 14.5163V13.4067L33.1664 12.2467H33.1412L32.309 13.3815C32.2712 13.4319 32.2207 13.4572 32.1577 13.4572H31.2751C31.212 13.4572 31.1616 13.4319 31.1238 13.3815L30.2916 12.2341L30.2664 12.2467L30.279 13.4067V14.5163C30.279 14.6172 30.1907 14.7054 30.0899 14.7054H28.5768C28.476 14.7054 28.3877 14.6172 28.3877 14.5163V9.25847C28.3877 9.14499 28.4633 9.06934 28.5768 9.06934Z" fill="white"/>
<path d="M44.8798 11.3011H43.0768C43.0768 11.3011 42.6859 11.3263 42.6859 10.9859C42.6859 10.6455 43.0768 10.6455 43.0768 10.6455H46.5442C46.645 10.6455 46.7333 10.5572 46.7333 10.4563V9.24589C46.7333 9.14502 46.645 9.05676 46.5442 9.05676H42.9633C42.0429 9.05676 41.0972 9.05676 41.0972 10.9228C41.0972 12.6124 42.005 12.4611 42.9381 12.4611H44.7411C44.7411 12.4611 45.1446 12.4611 45.1446 12.7763C45.1446 13.0915 44.7537 13.1042 44.7537 13.1042H40.2272C40.2272 13.1042 40.2272 13.1042 40.2146 13.1042H37.2768V12.6502C37.2768 12.5494 37.365 12.4611 37.4659 12.4611H39.2816C39.3824 12.4611 39.4707 12.3728 39.4707 12.272V11.465C39.4707 11.3642 39.3824 11.2759 39.2816 11.2759H37.2768V10.8346C37.2768 10.7337 37.365 10.6455 37.4659 10.6455H40.2146C40.3155 10.6455 40.4037 10.5572 40.4037 10.4563V9.24589C40.4037 9.14502 40.3155 9.05676 40.2146 9.05676H35.8898C35.7889 9.05676 35.7007 9.14502 35.7007 9.24589V14.5037C35.7007 14.6046 35.7889 14.6929 35.8898 14.6929H39.8868H40.2272H44.8672C45.8255 14.6929 46.7207 14.6929 46.7207 12.8268C46.7333 11.1498 45.775 11.3011 44.8798 11.3011Z" fill="white"/>
<path d="M32.0567 7.41769L30.9975 5.65248C30.9471 5.57682 30.8715 5.52639 30.7832 5.52639H30.2158C30.0771 5.52639 29.9636 5.63987 29.9636 5.77856V7.279C29.9636 7.41769 29.8501 7.53117 29.7115 7.53117H28.2615C28.1228 7.53117 28.0093 7.41769 28.0093 7.279V1.51682C28.0093 1.37813 28.1228 1.26465 28.2615 1.26465H31.8675C33.3175 1.26465 34.0488 2.33639 34.0488 3.39552C34.0488 4.12682 33.7084 4.85813 33.0275 5.249C33.0149 5.26161 33.0023 5.28682 33.0149 5.29943L34.0867 7.16552C34.1875 7.32943 34.0615 7.54378 33.8597 7.54378H32.271C32.1828 7.54378 32.1071 7.50595 32.0567 7.41769ZM29.9636 4.05117C29.9636 4.06378 29.9762 4.07639 29.9888 4.07639H31.4136C31.8928 4.07639 32.1323 3.73595 32.1323 3.39552C32.1323 3.05508 31.8928 2.71465 31.4136 2.71465H30.2158C30.0771 2.71465 29.9636 2.82813 29.9636 2.96682V4.05117Z" fill="white"/>
<path d="M39.4706 4.31587C39.458 4.30326 39.458 4.30326 39.458 4.29065C39.458 4.27804 39.458 4.27804 39.4706 4.26543C39.7732 3.95021 39.9497 3.44587 39.9497 2.94152C39.9497 1.76891 39.1932 1.25195 38.4367 1.25195H34.9693C34.7927 1.25195 34.6541 1.39065 34.6541 1.56717V7.24108C34.6541 7.41761 34.7927 7.5563 34.9693 7.5563H38.4367C39.5841 7.5563 40.101 6.62326 40.101 5.76587C40.101 5.17326 39.8614 4.64369 39.4706 4.31587ZM37.7558 3.89978H36.3941V2.87847C36.3941 2.77761 36.4823 2.68934 36.5832 2.68934H37.7558C38.1971 2.68934 38.3988 2.99195 38.3988 3.29456C38.3988 3.59717 38.1971 3.89978 37.7558 3.89978ZM36.5832 5.00934H37.7558C38.1971 5.00934 38.3988 5.31195 38.3988 5.61456C38.3988 5.90456 38.1971 6.21978 37.7558 6.21978H36.3941V5.19848C36.3941 5.09761 36.4823 5.00934 36.5832 5.00934Z" fill="white"/>
<path d="M21.1628 11.3263H19.1202C18.9563 11.3263 18.8302 11.4524 18.8302 11.6163V12.3224C18.8302 12.4863 18.9563 12.6124 19.1202 12.6124H19.8011C19.8263 12.6124 19.8515 12.6376 19.8515 12.6629V13.0285C19.8515 13.0411 19.8389 13.0663 19.8263 13.079C19.6372 13.1798 19.4228 13.2303 19.1454 13.2303H19.1076C18.515 13.2303 18.2124 13.2176 17.935 13.205C17.355 13.1672 16.9263 12.625 16.9263 11.919V11.9063C16.9263 11.3011 17.3046 10.7968 17.8846 10.6329C18.0232 10.595 20.255 10.5824 21.0998 10.595C21.2385 10.595 21.3393 10.4816 21.3393 10.3555C21.3393 9.98982 21.3393 9.33417 21.3393 9.33417C21.3393 9.19547 21.2259 9.0946 21.0998 9.0946C20.2424 9.0946 17.9224 9.0946 17.8719 9.10721C16.3337 9.22069 15.2241 10.4059 15.2241 11.9063V11.919C15.2241 13.5707 16.0563 14.592 17.5063 14.7054C17.5693 14.7054 18.0485 14.7181 18.7798 14.7181C19.0698 14.7181 19.2967 14.7181 19.3346 14.7181C19.3598 14.7181 19.385 14.7181 19.4228 14.7181C20.1919 14.7181 21.3772 13.9489 21.4654 13.722C21.478 13.6968 21.4654 11.6416 21.4654 11.6416C21.4528 11.4524 21.3267 11.3263 21.1628 11.3263Z" fill="white"/>
<path d="M20.381 1.25195H15.5771C15.4384 1.25195 15.325 1.36543 15.325 1.50413V2.94152C15.325 3.08021 15.4384 3.19369 15.5771 3.19369H16.7497C16.8884 3.19369 17.0019 3.30717 17.0019 3.44587V7.30413C17.0019 7.44282 17.1154 7.5563 17.2541 7.5563H18.6915C18.8302 7.5563 18.9436 7.44282 18.9436 7.30413V3.45848C18.9436 3.31978 19.0571 3.2063 19.1958 3.2063H20.3684C20.5071 3.2063 20.6206 3.09282 20.6206 2.95413V1.50413C20.6332 1.36543 20.5197 1.25195 20.381 1.25195Z" fill="white"/>
<path d="M25.6389 1.26465C25.5002 1.26465 25.3867 1.37813 25.3867 1.51682V5.37508C25.3867 5.63987 25.2858 5.74074 25.0085 5.74074H23.6341C23.3567 5.74074 23.2558 5.63987 23.2558 5.37508V1.51682C23.2558 1.37813 23.1424 1.26465 23.0037 1.26465H21.5158C21.3772 1.26465 21.2637 1.37813 21.2637 1.51682V5.62726C21.2637 6.29552 21.4276 6.78726 21.7428 7.08987C22.058 7.40508 22.575 7.55639 23.2558 7.55639H25.3615C26.0424 7.55639 26.5593 7.39248 26.8745 7.08987C27.1898 6.77465 27.3537 6.28291 27.3537 5.62726V1.51682C27.3537 1.37813 27.2402 1.26465 27.1015 1.26465H25.6389Z" fill="white"/>
</g>
<defs>
<clipPath id="clip0_1748_12458">
<rect width="46.4" height="16" fill="white" transform="translate(0.333252)"/>
</clipPath>
</defs>
</svg>
