<svg width="47" height="16" viewBox="0 0 47 16" fill="none" xmlns="http://www.w3.org/2000/svg">
<g clip-path="url(#clip0_1748_12476)">
<path d="M46.5209 0V14.8167C46.5209 15.4598 46.0065 16 45.3377 16H1.91643C1.24762 16 0.733154 15.4598 0.733154 14.8167V3.80707C0.733154 3.16399 1.24762 2.64952 1.91643 2.64952H43.8457L46.2894 0H46.5209Z" fill="#FF403F"/>
<path d="M9.55649 7.81989C9.55649 9.18324 8.52755 10.1865 7.13849 10.1865H6.16099V11.9871H4.36035V5.47906H7.13849C8.52755 5.47906 9.55649 6.45655 9.55649 7.81989ZM7.7044 7.81989C7.7044 7.35687 7.39572 7.04819 6.9327 7.04819H6.16099V8.61732H6.9327C7.39572 8.61732 7.7044 8.28292 7.7044 7.81989Z" fill="white"/>
<path d="M10.2767 5.14465H12.0259V11.9871H10.2767V5.14465Z" fill="white"/>
<path d="M18.4568 6.9453V11.9871H17.1192L16.9649 11.627C16.5533 11.9614 16.0388 12.1414 15.4472 12.1414C13.9295 12.1414 12.8234 11.0353 12.8234 9.4662C12.8234 7.89706 13.9295 6.79095 15.4472 6.79095C16.0388 6.79095 16.579 6.99674 16.9906 7.33115L17.1706 6.9453H18.4568ZM16.8105 9.4662C16.8105 8.82311 16.3475 8.33436 15.7044 8.33436C15.0356 8.33436 14.5726 8.82311 14.5726 9.4662C14.5726 10.135 15.0613 10.6238 15.7044 10.6238C16.3475 10.6238 16.8105 10.135 16.8105 9.4662Z" fill="white"/>
<path d="M22.9327 10.4694V11.9871H21.7494C20.6433 11.9871 19.9745 11.3183 19.9745 10.1865V8.28292H19.0485V7.89706L21.3121 5.47906H21.6465V6.97102H22.907V8.28292H21.698V9.90349C21.698 10.2636 21.9038 10.4694 22.2896 10.4694H22.9327Z" fill="white"/>
<path d="M23.7558 6.97102H25.4793V11.9871H23.7558V6.97102ZM23.7558 4.86169H25.4793V6.32793H23.7558V4.86169Z" fill="white"/>
<path d="M32.1417 9.4662C32.1417 11.0353 31.0613 12.1672 29.5179 12.1672C29.0549 12.1672 28.6433 12.0385 28.2832 11.8328V13.8135H26.5597V6.97102H27.743L27.9745 7.35687C28.3861 6.99674 28.9005 6.79095 29.5179 6.79095C31.0613 6.79095 32.1417 7.89706 32.1417 9.4662ZM30.4182 9.4662C30.4182 8.82311 29.9295 8.33436 29.2864 8.33436C28.6433 8.33436 28.1546 8.82311 28.1546 9.4662C28.1546 10.135 28.6433 10.6238 29.2864 10.6238C29.9295 10.6238 30.4182 10.135 30.4182 9.4662Z" fill="white"/>
<path d="M32.8877 9.82632V6.97102H34.6112V9.74915C34.6112 10.2893 34.8941 10.598 35.3571 10.598C35.8202 10.598 36.1031 10.2893 36.1031 9.74915V6.97102H37.8523V9.82632C37.8523 11.2411 36.8491 12.1672 35.3571 12.1672C33.8652 12.1414 32.8877 11.2411 32.8877 9.82632Z" fill="white"/>
<path d="M40.8105 12.1414C39.4214 12.1414 38.5983 11.4212 38.5726 10.3408H40.2446C40.2446 10.7009 40.5018 10.881 40.8362 10.881C41.0935 10.881 41.325 10.7524 41.325 10.4951C41.325 10.1865 40.9391 10.1093 40.4504 10.0321C39.6787 9.90349 38.6497 9.67198 38.6497 8.46298C38.6497 7.43404 39.4986 6.79095 40.8105 6.79095C42.071 6.79095 42.9198 7.48549 42.9198 8.4887H41.2993C41.2993 8.18002 41.0935 8.02568 40.7591 8.02568C40.5018 8.02568 40.296 8.1543 40.296 8.38581C40.296 8.66877 40.6819 8.74594 41.1706 8.82311C41.9681 8.97745 43.0227 9.13179 43.0227 10.418C43.0227 11.4726 42.1224 12.1414 40.8105 12.1414Z" fill="white"/>
</g>
<defs>
<clipPath id="clip0_1748_12476">
<rect width="46.4" height="16" fill="white" transform="translate(0.333252)"/>
</clipPath>
</defs>
</svg>
