<svg width="47" height="14" viewBox="0 0 47 14" fill="none" xmlns="http://www.w3.org/2000/svg">
<path d="M23.395 10.5319C23.3337 10.5362 23.2728 10.5404 23.212 10.5404H2.11859C1.39492 10.5404 0.837269 10.2433 0.50821 9.58049C0.430735 9.42171 0.390294 9.24292 0.333252 9.07179V8.58395L0.540563 7.8275C0.744043 7.05871 0.947097 6.28565 1.15058 5.51728C1.48006 4.27256 2.49278 3.49951 3.7856 3.49951H25.2246C25.294 3.49951 25.3591 3.50377 25.4281 3.50803C25.3591 3.69916 25.2817 3.88604 25.2208 4.07717C24.7976 5.4032 24.3749 6.72496 23.9641 8.05524C23.716 8.86831 23.3784 9.65754 23.395 10.5319ZM13.0333 4.71996H12.5859C11.9431 4.71996 11.3373 5.11841 11.1343 5.72885C10.7924 6.74965 10.4791 7.7828 10.1539 8.8117C10.1173 8.92535 10.1539 8.95388 10.2637 8.95004C10.52 8.94579 10.7801 8.94153 11.0364 8.95004C11.1543 8.9543 11.2032 8.90918 11.2356 8.80361C11.3131 8.54309 11.4025 8.29108 11.4757 8.03055C11.508 7.9169 11.5608 7.88029 11.6749 7.88412C11.9107 7.89263 12.1508 7.89263 12.3867 7.88412C12.5208 7.87986 12.574 7.90072 12.5165 8.05099C12.4228 8.29491 12.3581 8.55117 12.2768 8.80361C12.2402 8.90918 12.2645 8.95004 12.3824 8.94579C12.6468 8.94153 12.9111 8.9377 13.1755 8.94579C13.2734 8.95004 13.3219 8.91344 13.35 8.82362C13.6718 7.79472 14.0051 6.76966 14.318 5.73694C14.4968 5.14693 14.1477 4.71571 13.5335 4.71571C13.3547 4.71996 13.1959 4.71996 13.0333 4.71996ZM5.32702 4.71996C4.98945 4.71996 4.64804 4.72422 4.31047 4.71571C4.19256 4.71188 4.1436 4.75657 4.11508 4.86257C4.01717 5.18354 3.91586 5.50536 3.81412 5.82633C3.50507 6.81053 3.19602 7.79472 2.88313 8.77509C2.83844 8.91344 2.85844 8.95388 3.00488 8.94962C3.2488 8.94196 3.49315 8.9377 3.73707 8.94962C3.87116 8.95813 3.92437 8.90109 3.95672 8.77934C4.02569 8.53117 4.11508 8.29108 4.18447 8.04716C4.21682 7.92498 4.26535 7.88412 4.39178 7.88837C4.66422 7.89689 4.9324 7.89263 5.20485 7.89263C5.84338 7.89263 6.44956 7.48567 6.66071 6.888C6.79905 6.50956 6.91697 6.11921 7.0268 5.73268C7.18558 5.15119 6.84801 4.72805 6.24183 4.7238C5.93703 4.71996 5.63181 4.71996 5.32702 4.71996ZM15.5546 6.83479C15.5718 6.77059 15.5907 6.70686 15.6113 6.64366C15.7943 6.04982 15.9774 5.46024 16.1685 4.87066C16.2051 4.75274 16.1928 4.71571 16.0629 4.71571C15.7986 4.72422 15.5342 4.72422 15.2699 4.71571C15.1643 4.71188 15.1277 4.76083 15.0992 4.84597C14.8876 5.52111 14.6679 6.19626 14.4687 6.8714C14.318 7.37584 14.5458 7.7662 15.0583 7.87603C15.1966 7.90455 15.1805 7.94925 15.1477 8.04716C15.0625 8.29491 14.9932 8.55117 14.908 8.79935C14.8752 8.90152 14.8833 8.95004 15.0055 8.94579C15.2779 8.94153 15.5461 8.9377 15.8186 8.94579C15.9284 8.95004 15.9569 8.88875 15.9816 8.80744C16.0587 8.55543 16.1442 8.30725 16.2174 8.05524C16.2498 7.94542 16.2864 7.89646 16.4124 7.87646C16.9939 7.77003 17.429 7.44906 17.6324 6.89183C17.8764 6.22095 18.0717 5.53346 18.2914 4.85406C18.328 4.73614 18.2871 4.71571 18.1816 4.71571C17.9296 4.71996 17.6814 4.72422 17.429 4.71571C17.2991 4.71188 17.2421 4.75232 17.2055 4.87875C17.0267 5.48067 16.8313 6.07451 16.6402 6.67218C16.6197 6.74157 16.624 6.83479 16.5018 6.83479C16.1928 6.83053 15.8799 6.83479 15.5546 6.83479ZM8.87259 4.71996C8.53502 4.71996 8.21788 4.72422 7.90074 4.71571C7.79517 4.71571 7.78282 4.77701 7.76239 4.85023C7.34777 6.16816 6.93272 7.48567 6.51384 8.79935C6.47766 8.91344 6.48958 8.94579 6.61984 8.94579C7.58757 8.9417 8.55531 8.9417 9.52304 8.94579C9.6167 8.94579 9.66565 8.92152 9.69417 8.81978C9.88531 8.20168 10.0803 7.58741 10.2795 6.96931C10.3123 6.8714 10.3042 6.81862 10.182 6.82287C9.90957 6.82713 9.64139 6.83096 9.36894 6.82287C9.25912 6.81862 9.23059 6.87566 9.2059 6.96122C9.12502 7.22515 9.03563 7.48567 8.96198 7.75428C8.93346 7.85602 8.88877 7.89646 8.77894 7.89263C8.52827 7.88446 8.27741 7.88446 8.02674 7.89263C7.90074 7.89689 7.87648 7.86411 7.92117 7.74194C8.03483 7.40437 8.13657 7.06254 8.24214 6.72113C8.44988 6.06216 8.65719 5.39937 8.87259 4.72039V4.71996ZM21.8327 7.03018C21.8208 7.08723 21.8165 7.12384 21.8042 7.16428C21.6497 7.7015 21.4913 8.23829 21.3325 8.77509C21.2959 8.90109 21.3002 8.95813 21.4585 8.95388C21.7148 8.94196 21.9711 8.94962 22.2312 8.95388C22.3167 8.95388 22.3657 8.93387 22.3899 8.84405C22.5772 8.17699 22.8046 7.52228 22.9553 6.84331C23.0532 6.39548 22.7313 6.00129 22.2678 5.98895C21.8951 5.97735 21.5222 5.97593 21.1495 5.98469C20.5395 5.99746 19.9618 6.38739 19.763 6.96505C19.5557 7.57507 19.3884 8.20168 19.2058 8.81978C19.1734 8.92961 19.2181 8.95813 19.3237 8.95813C19.5676 8.94962 19.8115 8.94196 20.0559 8.96239C20.2142 8.97431 20.2632 8.90535 20.2998 8.77083C20.4462 8.24638 20.6008 7.7215 20.7553 7.20089C20.7753 7.13575 20.7672 7.03444 20.8936 7.03827C21.2065 7.03401 21.5156 7.03018 21.8327 7.03018ZM20.3407 4.84214H19.0274C18.9499 4.84214 18.9253 4.87875 18.9052 4.94388C18.7954 5.27719 18.6818 5.60668 18.5677 5.93573C18.5353 6.02939 18.5558 6.07025 18.6613 6.07025C19.0474 6.066 19.434 6.066 19.8162 6.07025C19.8975 6.07025 19.9422 6.04173 19.9665 5.96851C20.0887 5.59816 20.2108 5.22824 20.3411 4.84214H20.3407Z" fill="#2285C7"/>
<path d="M23.3949 10.5319C23.3745 9.65754 23.7159 8.86832 23.9641 8.05525C24.3749 6.72497 24.7976 5.4032 25.2207 4.07718C25.2816 3.88604 25.3591 3.69916 25.428 3.50803C25.4565 3.46333 25.4889 3.41863 25.5132 3.37351C26.233 2.04366 27.3151 1.1612 28.7748 0.75041C28.9821 0.693367 29.1979 0.656758 29.4091 0.612061H29.5312C29.5921 0.681022 29.6696 0.652927 29.7428 0.652927H40.7099C40.7788 0.652927 40.8601 0.681022 40.9214 0.612061H41.0023C41.2058 0.656758 41.4174 0.693367 41.6166 0.754241C42.7106 1.07564 43.6582 1.93 43.7761 3.5042C43.7799 3.91073 43.7476 4.31727 43.6216 4.70379C42.9992 6.64366 42.4624 8.61248 41.763 10.5281C41.5272 10.8984 41.3075 11.2764 41.0108 11.6017C40.1769 12.5212 39.1646 13.1312 37.9284 13.3261C37.4525 13.4036 36.9685 13.3789 36.4887 13.3789C33.1824 13.3832 29.8765 13.3832 26.5744 13.3789C25.7975 13.3789 25.0777 13.1916 24.4638 12.6919C23.8253 12.1712 23.4958 11.4957 23.4268 10.6826C23.4226 10.6337 23.4354 10.5766 23.3945 10.5319H23.3949ZM35.9685 12.2402C36.6156 12.2402 37.0949 12.273 37.5627 12.2321C39.059 12.1061 40.4906 10.9346 40.9419 9.48642C41.4825 7.76663 42.0197 6.04173 42.5565 4.31727C42.6906 3.88604 42.7515 3.45099 42.6378 3.00359C42.4224 2.16157 41.7145 1.59626 40.832 1.59242C39.9296 1.58391 39.0309 1.59242 38.128 1.59242C38.0791 1.59242 38.0301 1.58817 37.9854 1.60051C36.3593 1.89339 35.2244 2.79244 34.6919 4.36622C34.2036 5.81399 33.7605 7.27794 33.3131 8.73805C33.1424 9.28719 32.9185 9.82825 32.9351 10.4263C32.9593 11.325 33.6183 12.0857 34.5127 12.2079C35.0618 12.2811 35.6024 12.2159 35.9685 12.2402ZM30.3443 8.29491C30.2183 8.7057 30.0923 9.09223 29.9782 9.48684C29.942 9.61285 29.8812 9.6452 29.7509 9.6452C29.0187 9.63711 28.2865 9.64094 27.5548 9.64094C27.3066 9.64094 27.3066 9.64094 27.3841 9.40128C27.8966 7.78281 28.413 6.16391 28.917 4.54501C28.9617 4.39474 29.023 4.34962 29.1775 4.34962C30.6942 4.35813 32.2152 4.34962 33.7324 4.35813C33.8703 4.35813 33.9273 4.32152 33.9678 4.187C34.1929 3.44566 34.4261 2.70676 34.6672 1.97044C34.72 1.80782 34.7323 1.74695 34.5169 1.74695C32.9227 1.75504 31.3328 1.75121 29.7386 1.75121C29.6577 1.75121 29.5759 1.74269 29.4946 1.75887C27.9575 2.03131 26.8511 2.88141 26.339 4.35387C25.729 6.10261 25.2084 7.88412 24.6554 9.64946C24.5332 10.0398 24.4885 10.4425 24.5864 10.8495C24.7856 11.6753 25.4846 12.2364 26.3347 12.2402C27.3108 12.2445 28.2869 12.2445 29.2626 12.2402C29.4091 12.2402 29.5598 12.2159 29.7019 12.1793C30.999 11.8418 31.8815 11.0159 32.325 9.77546C32.7886 8.4903 33.1628 7.17237 33.5774 5.87103C33.614 5.75695 33.6098 5.6965 33.4595 5.70033C32.3008 5.70459 31.1416 5.70459 29.9825 5.70033C29.8769 5.70033 29.8322 5.73694 29.7994 5.83868C29.5642 6.60554 29.3215 7.37012 29.0715 8.1323C29.023 8.27873 29.0672 8.29917 29.2018 8.29917C29.5802 8.29065 29.9539 8.29491 30.3443 8.29491Z" fill="white"/>
<path d="M40.9177 0.612061C40.8568 0.681448 40.7794 0.652927 40.7061 0.652927H29.7387C29.6697 0.652927 29.5884 0.681448 29.5271 0.612061H40.9177Z" fill="white"/>
<path d="M41.7634 10.5281C42.4628 8.61249 42.9958 6.64368 43.622 4.70381C43.748 4.31345 43.7765 3.91075 43.7765 3.50379C44.2563 3.51656 44.736 3.46335 45.2158 3.53657C46.2855 3.69918 46.9441 4.67529 46.6716 5.72887C46.4196 6.71732 46.1391 7.69726 45.8543 8.67337C45.5533 9.71886 44.4231 10.6013 43.3087 10.5443C42.7923 10.52 42.276 10.5319 41.7634 10.5281Z" fill="#2285C7"/>
<path d="M13.0333 4.71991H13.5212C14.1393 4.72417 14.4849 5.15497 14.3061 5.74072C13.9971 6.77387 13.6633 7.79893 13.3381 8.82782C13.3096 8.91722 13.2611 8.94999 13.1636 8.94999C12.8992 8.94148 12.6349 8.94148 12.3705 8.94999C12.2526 8.95425 12.2322 8.91338 12.2645 8.80739C12.3458 8.55921 12.411 8.30337 12.5046 8.05519C12.5617 7.9045 12.5089 7.88407 12.3743 7.88832C12.1385 7.89684 11.8989 7.89684 11.6626 7.88832C11.5489 7.88407 11.4961 7.92068 11.4634 8.03476C11.3902 8.29486 11.3008 8.54729 11.2237 8.80739C11.1909 8.91338 11.1424 8.95808 11.0245 8.95383C10.767 8.94365 10.5093 8.94365 10.2519 8.95383C10.142 8.95808 10.1054 8.92956 10.142 8.81548C10.4711 7.78658 10.7806 6.75769 11.122 5.73263C11.3254 5.12262 11.9312 4.72374 12.5736 4.72374C12.7324 4.71991 12.8826 4.71991 13.0333 4.71991ZM13.2245 5.77733H12.2726C12.2117 5.77733 12.179 5.7935 12.1589 5.86246C12.061 6.18429 11.9555 6.501 11.8499 6.839H12.7851C12.8541 6.839 12.895 6.82665 12.9192 6.75386C13.0129 6.42821 13.1185 6.11107 13.2245 5.77733ZM5.32663 4.71991H6.24186C6.84804 4.72417 7.18561 5.14688 7.02683 5.7288C6.92139 6.11883 6.79925 6.50415 6.66074 6.88369C6.44534 7.48136 5.84341 7.88832 5.20488 7.88832C4.93244 7.88832 4.66425 7.89641 4.39181 7.88407C4.26581 7.87981 4.21685 7.92068 4.1845 8.04285C4.11937 8.29103 4.02572 8.53069 3.95676 8.77504C3.92398 8.89678 3.87119 8.95382 3.7371 8.94574C3.49319 8.93356 3.24882 8.93356 3.00491 8.94574C2.85464 8.94999 2.83847 8.90913 2.88317 8.7712C3.19605 7.79084 3.5051 6.80622 3.81415 5.82202C3.91632 5.50063 4.02146 5.17923 4.11511 4.85826C4.14789 4.75227 4.19259 4.70757 4.3105 4.71182C4.64808 4.72374 4.98948 4.71991 5.32705 4.71991H5.32663ZM4.56677 6.83474C4.90008 6.83474 5.20105 6.83048 5.49775 6.83474C5.57906 6.83474 5.61567 6.81473 5.64036 6.733C5.73401 6.42012 5.83533 6.10298 5.9409 5.7735H4.98948C4.92861 5.7735 4.89583 5.78542 4.87582 5.85438C4.77791 6.17577 4.67234 6.49717 4.56677 6.83474ZM15.5547 6.83474C15.8799 6.83474 16.189 6.83048 16.5018 6.83474C16.624 6.83474 16.6159 6.74109 16.6402 6.67213C16.8317 6.07403 17.0225 5.48019 17.2055 4.8787C17.2421 4.75227 17.2992 4.70757 17.429 4.71566C17.6814 4.72417 17.9292 4.72417 18.1816 4.71566C18.2872 4.7114 18.3319 4.73609 18.2914 4.85401C18.0718 5.53341 17.8806 6.22473 17.6325 6.89178C17.429 7.44901 16.9939 7.77041 16.4124 7.87598C16.2864 7.90067 16.2456 7.9492 16.2175 8.05477C16.1443 8.3072 16.063 8.55538 15.9816 8.80739C15.957 8.8887 15.9284 8.94999 15.8186 8.94574C15.5462 8.93722 15.278 8.93722 15.0055 8.94574C14.8834 8.94999 14.8753 8.90104 14.9076 8.7993C14.9894 8.55112 15.0626 8.29486 15.1477 8.04668C15.1805 7.94537 15.1967 7.9045 15.0583 7.8764C14.5458 7.76232 14.318 7.37579 14.4687 6.87178C14.6718 6.19237 14.8876 5.52106 15.0988 4.84592C15.1277 4.76078 15.1639 4.71566 15.2699 4.71566C15.5338 4.72417 15.7986 4.72417 16.063 4.71566C16.1928 4.7114 16.2051 4.75227 16.1685 4.87018C15.9774 5.46019 15.7943 6.0536 15.6113 6.64361C15.5913 6.70448 15.5789 6.76152 15.5547 6.83517V6.83474ZM8.87305 4.71991C8.65765 5.39931 8.45034 6.06211 8.24303 6.72066C8.13703 7.06248 8.03529 7.40431 7.92163 7.74231C7.88076 7.86406 7.9012 7.89641 8.0272 7.89258C8.27921 7.88407 8.52739 7.88407 8.7794 7.89258C8.88922 7.89684 8.93009 7.85597 8.96244 7.75423C9.03992 7.48988 9.12506 7.22552 9.20636 6.96117C9.23105 6.87986 9.25957 6.82282 9.3694 6.82282C9.64184 6.83091 9.91003 6.83091 10.1825 6.82282C10.3085 6.81856 10.3127 6.87135 10.2804 6.96926C10.0808 7.58472 9.88559 8.20156 9.69463 8.81973C9.66185 8.92147 9.61715 8.94574 9.52393 8.94574C8.55606 8.94165 7.58817 8.94165 6.6203 8.94574C6.49004 8.94574 6.47769 8.91338 6.51473 8.7993C6.93318 7.48562 7.34823 6.16811 7.76285 4.85017C7.78754 4.77696 7.79946 4.71182 7.9012 4.71608C8.21834 4.72417 8.53548 4.72034 8.87305 4.72034V4.71991ZM21.8332 7.03013C21.516 7.03013 21.2032 7.03439 20.8941 7.02588C20.7677 7.02162 20.7762 7.11953 20.7558 7.18892C20.5996 7.71097 20.4478 8.23431 20.3003 8.75886C20.2637 8.89295 20.2151 8.96191 20.0563 8.94999C19.812 8.93339 19.5681 8.94148 19.3242 8.94574C19.2186 8.94999 19.1739 8.92147 19.2062 8.80739C19.3935 8.18929 19.5562 7.5631 19.7635 6.95266C19.9627 6.37116 20.5404 5.98081 21.1499 5.97272C21.5227 5.96399 21.8956 5.96541 22.2682 5.97698C22.7322 5.99315 23.0532 6.38351 22.9557 6.83091C22.8093 7.50988 22.5773 8.16502 22.3904 8.83165C22.3661 8.9253 22.3172 8.94148 22.232 8.94148C21.9758 8.93765 21.7153 8.93339 21.459 8.94148C21.3006 8.94999 21.2964 8.88869 21.333 8.76269C21.494 8.227 21.6512 7.69019 21.8047 7.15231C21.8174 7.12762 21.8213 7.08717 21.8332 7.03013ZM20.3407 4.84209C20.2109 5.22819 20.0887 5.59854 19.9665 5.96846C19.9423 6.04168 19.8976 6.07063 19.8163 6.07063C19.4302 6.06637 19.0436 6.06637 18.6614 6.07063C18.5515 6.07063 18.5354 6.02976 18.5677 5.93611C18.6818 5.60662 18.7955 5.27288 18.9053 4.94383C18.9257 4.87869 18.95 4.84166 19.0275 4.84166H20.3407V4.84209Z" fill="#FDFDFD"/>
<path d="M35.9687 12.2402C35.6026 12.2198 35.062 12.2811 34.5213 12.2078C34.0896 12.1466 33.6938 11.9337 33.4047 11.6073C33.1156 11.2809 32.952 10.8623 32.9433 10.4263C32.9271 9.82823 33.1549 9.29143 33.3213 8.73846C33.7687 7.27834 34.2119 5.81397 34.7001 4.3662C35.2327 2.792 36.3671 1.89294 37.9941 1.60049C38.0388 1.59198 38.0878 1.59198 38.1363 1.59198C39.0388 1.59198 39.9378 1.58772 40.8407 1.59198C41.7189 1.60049 42.4307 2.16155 42.6461 3.00357C42.7601 3.45054 42.6988 3.88602 42.5652 4.31725C42.0288 6.04102 41.4906 7.76421 40.9505 9.48682C40.4951 10.9346 39.0677 12.1061 37.571 12.2321C37.0951 12.2725 36.6196 12.2402 35.9687 12.2402ZM35.7942 9.64135H38.0873C38.2138 9.64135 38.2176 9.56004 38.2461 9.47448C38.6203 8.27063 38.9983 7.07061 39.3768 5.87101C39.5351 5.37083 39.6896 4.87064 39.8523 4.35386C39.0958 4.35386 38.3683 4.35811 37.6361 4.3496C37.4854 4.3496 37.4288 4.39855 37.3841 4.5369C37.0465 5.63093 36.7047 6.72495 36.3633 7.81471C36.176 8.4209 35.9853 9.02282 35.7942 9.64092V9.64135ZM30.3445 8.29489C29.9541 8.29489 29.5799 8.29064 29.21 8.29915C29.0759 8.30341 29.0312 8.27872 29.0802 8.13228C29.3277 7.36916 29.5704 6.60446 29.8081 5.83824C29.8405 5.73266 29.8852 5.70031 29.9912 5.70031C31.1499 5.70457 32.309 5.70457 33.4678 5.70031C33.6142 5.70031 33.6223 5.75693 33.5857 5.87059C33.1711 7.17235 32.7926 8.49028 32.3333 9.77544C31.8902 11.0159 31.0077 11.8417 29.7102 12.1793C29.5669 12.2178 29.4193 12.2382 29.2709 12.2402C28.2952 12.2444 27.3191 12.2487 26.343 12.2402C25.4933 12.2359 24.7935 11.6706 24.5947 10.849C24.4968 10.4425 24.5415 10.0402 24.6636 9.64944C25.217 7.88027 25.733 6.10259 26.3472 4.35386C26.8636 2.88139 27.9657 2.03129 29.5029 1.75885C29.5799 1.74693 29.6655 1.75076 29.7468 1.75076C31.341 1.75076 32.931 1.75502 34.5252 1.74651C34.7367 1.74651 34.7287 1.80355 34.6754 1.97042C34.4362 2.70733 34.203 3.44621 33.976 4.18699C33.9356 4.3215 33.8786 4.36194 33.7402 4.35811C32.2235 4.35386 30.7025 4.35811 29.1853 4.3496C29.0312 4.3496 28.9703 4.39472 28.9256 4.54542C28.4212 6.16389 27.9048 7.78236 27.3923 9.40126C27.3153 9.64135 27.3153 9.64135 27.563 9.64135C28.2952 9.64135 29.0274 9.63709 29.7592 9.64561C29.8894 9.64561 29.9503 9.61283 29.9869 9.48682C30.0925 9.09604 30.2185 8.70568 30.3445 8.29489Z" fill="#EB1F24"/>
<path d="M13.2246 5.77739C13.1209 6.10214 13.0191 6.42752 12.9194 6.7535C12.8951 6.82672 12.8542 6.83906 12.7853 6.83906C12.4805 6.8348 12.1752 6.83906 11.85 6.83906C11.9556 6.50149 12.0616 6.18435 12.1591 5.86295C12.1795 5.79782 12.2119 5.77782 12.2727 5.77782H13.2246V5.77739ZM4.56689 6.8348C4.67672 6.49723 4.77804 6.17584 4.87595 5.85487C4.89595 5.78974 4.92873 5.77356 4.9896 5.77356H5.94145C5.83545 6.10687 5.73371 6.42018 5.64048 6.73306C5.61579 6.81054 5.57535 6.83523 5.49788 6.83523H4.56689V6.8348Z" fill="#2285C7"/>
<path d="M35.7942 9.64093C35.9892 9.02325 36.176 8.4209 36.3633 7.81472C36.7047 6.72069 37.0466 5.63093 37.3841 4.5369C37.4246 4.39855 37.4855 4.34534 37.6361 4.3496C38.3683 4.35811 39.1001 4.35386 39.8523 4.35386C39.6897 4.87022 39.5313 5.37083 39.3768 5.87102C38.9984 7.07061 38.6242 8.27446 38.2462 9.47448C38.2176 9.55962 38.2134 9.64135 38.0874 9.64135H35.7942V9.64093Z" fill="white"/>
</svg>
