<svg width="47" height="16" viewBox="0 0 47 16" fill="none" xmlns="http://www.w3.org/2000/svg">
<path d="M36.1145 6.2335C34.3827 6.34113 35.1603 8.5966 37.0749 8.47754C38.9477 8.36112 37.9597 6.11884 36.1145 6.2335Z" fill="#F19021"/>
<path d="M35.3836 4.84042C34.2801 4.84042 33.2013 5.16764 32.2838 5.78071C31.3663 6.39377 30.6512 7.26515 30.2289 8.28464C29.8066 9.30414 29.6961 10.426 29.9114 11.5082C30.1267 12.5905 30.6581 13.5847 31.4384 14.365C32.2186 15.1453 33.2128 15.6766 34.2951 15.8919C35.3774 16.1072 36.4992 15.9967 37.5187 15.5744C38.5382 15.1521 39.4095 14.437 40.0226 13.5195C40.6357 12.602 40.9629 11.5233 40.9629 10.4198C40.9629 8.94003 40.3751 7.5209 39.3287 6.47457C38.2824 5.42824 36.8633 4.84042 35.3836 4.84042ZM35.3836 15.4144C34.3959 15.4146 33.4304 15.1219 32.6092 14.5733C31.7879 14.0247 31.1478 13.2449 30.7697 12.3325C30.3917 11.4202 30.2926 10.4161 30.4852 9.44748C30.6778 8.47882 31.1533 7.58901 31.8516 6.8906C32.5499 6.19219 33.4396 5.71653 34.4082 5.5238C35.3768 5.33106 36.3809 5.42989 37.2933 5.80779C38.2058 6.1857 38.9857 6.8257 39.5344 7.64687C40.0831 8.46803 40.376 9.43347 40.376 10.4211C40.376 11.7452 39.85 13.0152 38.9138 13.9516C37.9775 14.888 36.7077 15.4142 35.3836 15.4144ZM35.2153 0.945414C33.8907 1.94662 34.1209 3.48204 34.1209 3.48204C34.1209 3.48204 33.2884 1.32103 32.2073 0C32.0614 1.7006 32.5943 3.95387 32.5943 3.95387C32.5943 3.95387 31.9173 2.55684 30.2585 2.47864C31.6344 3.26941 32.1682 4.69412 32.2903 5.07633C33.1103 4.57019 34.048 4.28644 35.011 4.25305C34.9025 3.8972 34.5168 2.3978 35.2153 0.945414Z" fill="#F19021"/>
<path d="M6.59502 10.9668V12.1345H6.10913V9.12604H7.13187C7.47863 9.12604 7.7393 9.20848 7.91385 9.37337C8.08841 9.53826 8.17627 9.76407 8.17744 10.0508C8.17744 10.3352 8.08797 10.5589 7.90902 10.7221C7.73007 10.8852 7.47161 10.9668 7.13362 10.9668H6.59502ZM7.68145 10.0508C7.68145 9.88035 7.63386 9.75031 7.53868 9.66069C7.44349 9.57107 7.2909 9.5264 7.0809 9.52669H6.59502V10.5705H7.0809C7.48098 10.5705 7.68116 10.3973 7.68145 10.0508ZM10.1829 12.1345L9.43302 10.933H9.08771V12.1345H8.60183V9.12604H9.66322C10.0068 9.12604 10.2674 9.2098 10.4452 9.37733C10.623 9.54485 10.7117 9.76656 10.7114 10.0425C10.7114 10.2768 10.6454 10.4699 10.5133 10.6219C10.3812 10.7739 10.1908 10.8704 9.94219 10.9114L10.733 12.1345H10.1829ZM9.08771 10.5876H9.62368C10.0161 10.5876 10.2122 10.4144 10.2119 10.0679C10.2119 9.90334 10.1643 9.77476 10.0692 9.68221C9.97382 9.58996 9.82577 9.54383 9.62368 9.54383H9.08771V10.5876ZM12.9445 11.4825H11.6744L11.4442 12.1345H10.9245L12.0325 9.17304H12.5908L13.6944 12.1345H13.1743L12.9445 11.4825ZM12.8079 11.1078L12.3092 9.70198L11.8106 11.1078H12.8079ZM16.1489 9.36459C16.3874 9.54072 16.5552 9.79622 16.622 10.0851H16.1107C16.047 9.92502 15.9342 9.78924 15.7886 9.69715C15.63 9.59781 15.4455 9.54739 15.2584 9.55217C15.0811 9.54928 14.9064 9.59486 14.7532 9.68397C14.6032 9.77282 14.482 9.9029 14.4039 10.0587C14.3171 10.2369 14.2747 10.4335 14.2805 10.6316C14.2748 10.8365 14.3186 11.0398 14.4083 11.2242C14.4878 11.383 14.6132 11.5143 14.7681 11.6012C14.9334 11.691 15.1191 11.7364 15.3072 11.733C15.5432 11.7371 15.7723 11.6531 15.9499 11.4975C16.1285 11.3428 16.2365 11.1305 16.2737 10.8605H15.1688V10.5024H16.6813V10.9668C16.6494 11.1832 16.5686 11.3895 16.445 11.57C16.3196 11.7521 16.1514 11.9007 15.9551 12.0027C15.7398 12.1133 15.5004 12.1688 15.2584 12.1644C14.9869 12.1699 14.7189 12.1022 14.4826 11.9684C14.2609 11.8407 14.0806 11.6521 13.9628 11.425C13.8423 11.1774 13.7796 10.9056 13.7796 10.6303C13.7796 10.3549 13.8423 10.0831 13.9628 9.83554C14.0801 9.60936 14.2597 9.42153 14.4804 9.29429C14.7163 9.16185 14.9834 9.09496 15.254 9.10055C15.6122 9.10055 15.9105 9.18857 16.1489 9.36459ZM20.112 9.17304V12.1345H19.6217V9.91461L18.7655 12.1345H18.3393L17.4783 9.91461V12.1345H16.9928V9.17304H17.5806L18.5608 11.5379L19.5237 9.17304H20.112ZM22.4896 11.4825H21.2217L20.9915 12.1345H20.47L21.578 9.17304H22.1359L23.2399 12.1345H22.7198L22.4896 11.4825ZM22.3534 11.1078L21.8548 9.70198L21.3561 11.1078H22.3534ZM25.3192 9.12604V9.51791H24.4797V12.1345H23.9894V9.51791H23.1547V9.12604H25.3192ZM26.0648 9.12604V12.1345H25.5793V9.12604H26.0648ZM28.8136 9.37733C29.0601 9.5683 29.2344 9.83738 29.3078 10.1404H28.7921C28.7262 9.96486 28.6079 9.81379 28.4533 9.70769C28.2847 9.59715 28.086 9.54131 27.8844 9.54778C27.7154 9.54508 27.549 9.59082 27.4051 9.67958C27.2612 9.77168 27.146 9.90226 27.0726 10.0565C26.9926 10.2363 26.9513 10.4309 26.9513 10.6276C26.9513 10.8244 26.9926 11.019 27.0726 11.1987C27.1459 11.3532 27.2611 11.484 27.4051 11.5761C27.549 11.6649 27.7153 11.7106 27.8844 11.7079C28.0859 11.7145 28.2846 11.6588 28.4533 11.5484C28.6071 11.4434 28.7253 11.294 28.7921 11.1201H29.3078C29.2348 11.4226 29.0604 11.691 28.8136 11.8806C28.5693 12.0668 28.2625 12.16 27.8932 12.16C27.6288 12.165 27.368 12.0978 27.1389 11.9658C26.9213 11.8379 26.7453 11.65 26.6319 11.4246C26.5139 11.1762 26.4527 10.9048 26.4527 10.6298C26.4527 10.3549 26.5139 10.0834 26.6319 9.8351C26.7457 9.60937 26.9216 9.42083 27.1389 9.29166C27.3676 9.15845 27.6286 9.09067 27.8932 9.09572C28.2622 9.09602 28.569 9.18988 28.8136 9.37733ZM31.5997 10.9668V12.1345H31.1143V9.12604H32.137C32.4832 9.12604 32.7439 9.20848 32.919 9.37337C33.0942 9.53826 33.182 9.76407 33.1826 10.0508C33.1826 10.3352 33.0931 10.5589 32.9142 10.7221C32.7352 10.8852 32.4768 10.9668 32.1388 10.9668H31.5997ZM32.6879 10.0508C32.6879 9.88035 32.6403 9.75031 32.5452 9.66069C32.45 9.57107 32.2972 9.5264 32.0869 9.52669H31.5997V10.5705H32.0856C32.4872 10.5705 32.6879 10.3973 32.6879 10.0508ZM34.016 11.7554H35.0559V12.1345H33.5301V9.12604H34.016V11.7554ZM37.2801 11.4825H36.0105L35.7803 12.1345H35.2601L36.3685 9.17304H36.9265L38.0305 12.1345H37.5103L37.2801 11.4825ZM37.1439 11.1078L36.6453 9.70198L36.1467 11.1078H37.1439ZM39.9806 9.12604L38.9794 11.0393V12.1345H38.4905V11.0393L37.4849 9.12604H38.0476L38.7382 10.5196L39.4284 9.12604H39.9806Z" fill="white"/>
</svg>
