<svg width="47" height="16" viewBox="0 0 47 16" fill="none" xmlns="http://www.w3.org/2000/svg">
<path d="M9.54321 0.612824H11.3212C12.2804 0.612824 12.9772 0.703624 13.4012 0.876024C13.8212 1.05271 14.1746 1.35746 14.4112 1.74682C14.6536 2.14162 14.7852 2.62802 14.7852 3.18482C14.7852 3.80242 14.6236 4.31882 14.3004 4.72402C13.9772 5.12922 13.5428 5.41282 12.9876 5.57482C12.6644 5.66602 12.0784 5.71642 11.22 5.71642V9.46323H9.54361V0.612824H9.54321ZM11.2196 4.06602H11.7548C12.1788 4.06602 12.462 4.03562 12.6336 3.97482C12.7915 3.91838 12.9264 3.81155 13.0176 3.67082C13.1138 3.51974 13.163 3.34348 13.1588 3.16442C13.1588 2.82042 13.0276 2.57722 12.7648 2.41522C12.5728 2.30362 12.2196 2.24322 11.6944 2.24322H11.2196V4.06602ZM16.3704 0.612424H18.0568V6.33402C18.0568 6.83002 18.0968 7.17482 18.188 7.37722C18.2788 7.57962 18.42 7.74162 18.612 7.86322C18.814 7.98483 19.0464 8.04562 19.3292 8.04562C19.622 8.04562 19.8848 7.97482 20.0968 7.84282C20.2962 7.72274 20.4518 7.54189 20.5408 7.32682C20.622 7.11402 20.6624 6.71882 20.6624 6.12162V0.612024H22.3488V5.88802C22.3488 6.77922 22.2984 7.39722 22.1972 7.74122C22.0964 8.08562 21.9044 8.42002 21.6216 8.74403C21.3388 9.06802 21.0156 9.30082 20.652 9.45282C20.2884 9.60482 19.8544 9.68563 19.3696 9.68563C18.7336 9.68563 18.1776 9.53362 17.7032 9.24002C17.2284 8.94642 16.8952 8.57202 16.6832 8.13602C16.4812 7.69082 16.3804 6.94122 16.3804 5.88802L16.3704 0.612024V0.612424ZM28.9132 1.81762L27.6708 2.92162C27.2368 2.31362 26.7924 2.01002 26.338 2.01002C26.1156 2.01002 25.934 2.07082 25.7924 2.18202C25.6512 2.29402 25.5804 2.43562 25.5804 2.58722C25.5804 2.73922 25.6308 2.88122 25.732 3.01282C25.8732 3.18482 26.2772 3.56962 26.964 4.14682C27.6 4.68362 27.994 5.02802 28.1252 5.15962C28.4688 5.50362 28.7112 5.83802 28.8524 6.15162C28.994 6.46602 29.0644 6.81002 29.0644 7.18482C29.0644 7.91402 28.8124 8.51162 28.3172 8.98722C27.8124 9.46322 27.166 9.69642 26.358 9.69642C25.732 9.69642 25.1864 9.54443 24.712 9.23042C24.2472 8.92642 23.8432 8.44042 23.51 7.77202L24.924 6.92162C25.348 7.70162 25.8328 8.09642 26.388 8.09642C26.6812 8.09642 26.9236 8.01522 27.1156 7.84322C27.3076 7.67122 27.4084 7.47842 27.4084 7.25562C27.4084 7.05322 27.3376 6.85082 27.186 6.65842C27.0348 6.46602 26.7116 6.15202 26.2064 5.73682C25.2472 4.94682 24.6208 4.34922 24.3484 3.91402C24.0656 3.48882 23.9244 3.06322 23.9244 2.63802C23.9244 2.02042 24.1564 1.49402 24.6208 1.05802C25.0856 0.623224 25.6612 0.400024 26.348 0.400024C26.792 0.400024 27.2064 0.501224 27.6104 0.704024C28.0144 0.906424 28.4484 1.27082 28.9132 1.81762ZM30.6704 0.612424H32.3668V3.95442H35.316V0.612024H37.0124V9.45282H35.316V5.57442H32.3668V9.45282H30.66V0.612024H30.6704V0.612424Z" fill="white"/>
<path d="M14.0372 11.6001L13.4112 12.2177C13.0172 11.8025 12.5528 11.5897 12.0376 11.5897C11.5832 11.5897 11.1996 11.7417 10.8864 12.0457C10.5732 12.3497 10.422 12.7241 10.422 13.1497C10.422 13.5949 10.5836 13.9797 10.9068 14.2937C11.23 14.6077 11.6236 14.7597 12.0884 14.7597C12.3912 14.7597 12.6536 14.6989 12.866 14.5673C13.078 14.4353 13.2496 14.2329 13.3708 13.9593H12.0276V13.1293H14.3604L14.3708 13.3213C14.3723 13.7274 14.2641 14.1264 14.0576 14.4761C13.8456 14.8405 13.5728 15.1241 13.2396 15.3165C12.9064 15.5089 12.5124 15.6001 12.058 15.6001C11.5732 15.6001 11.1492 15.4989 10.7652 15.2861C10.3879 15.0748 10.0767 14.7628 9.86644 14.3849C9.64598 14.0031 9.53098 13.5697 9.53324 13.1289C9.53324 12.5113 9.73524 11.9749 10.1392 11.5189C10.624 10.9721 11.25 10.7089 12.0176 10.7089C12.4216 10.7089 12.7952 10.7797 13.1488 10.9317C13.4616 11.0733 13.7544 11.2961 14.0372 11.5997V11.6001ZM16.6024 10.8401H17.5012L19.2888 15.4985H18.3696L18.006 14.5365H16.1076L15.734 15.4985H14.8148L16.6028 10.8401H16.6024ZM17.0568 12.0761L16.4308 13.6761H17.6728L17.0568 12.0761ZM20.42 10.8401H21.2784L22.3588 14.0909L23.4496 10.8405H24.308L25.0856 15.4985H24.2272L23.7324 12.5517L22.7428 15.4985H21.9648L20.9856 12.5517L20.4704 15.4985H19.612L20.42 10.8401ZM25.732 10.8401H26.6104V15.4985H25.732V10.8401ZM27.6104 10.8401H28.4584L30.448 13.9085V10.8405H31.3368V15.4985H30.4888L28.4888 12.4401V15.4985H27.6L27.6104 10.8401ZM36.6792 11.6001L36.0528 12.2177C35.6592 11.8025 35.1944 11.5897 34.6796 11.5897C34.2252 11.5897 33.8412 11.7417 33.5284 12.0457C33.2152 12.3497 33.0636 12.7241 33.0636 13.1497C33.0636 13.5949 33.2252 13.9797 33.5484 14.2937C33.8716 14.6077 34.2656 14.7597 34.73 14.7597C35.0332 14.7597 35.2956 14.6989 35.5076 14.5673C35.7196 14.4353 35.8916 14.2329 36.0124 13.9593H34.6696V13.1293H37.0024L37.0124 13.3213C37.0139 13.7274 36.9057 14.1264 36.6992 14.4761C36.4872 14.8405 36.2144 15.1241 35.8812 15.3165C35.548 15.5089 35.154 15.6001 34.6996 15.6001C34.2152 15.6001 33.7908 15.4989 33.4072 15.2861C33.0299 15.0748 32.7187 14.7628 32.5084 14.3849C32.288 14.0031 32.173 13.5697 32.1752 13.1289C32.1752 12.5113 32.3772 11.9749 32.7808 11.5189C33.2656 10.9721 33.892 10.7089 34.6592 10.7089C35.0632 10.7089 35.4368 10.7797 35.7904 10.9317C36.1036 11.0733 36.3964 11.2961 36.6792 11.5997V11.6001Z" fill="#ED0D05"/>
<path d="M37.2549 10.8404H37.8401V11.0432H37.6485V11.9036H37.4465V11.0432H37.2549V10.84V10.8404ZM38.0829 10.8404H38.2749L38.5173 11.5796L38.7597 10.8404H38.9517L39.1333 11.904H38.9413L38.8305 11.2252L38.6081 11.8936H38.4265L38.2041 11.2256L38.0929 11.8936H37.9009L38.0829 10.8404Z" fill="white"/>
</svg>
