<svg width="30" height="16" viewBox="0 0 30 16" fill="none" xmlns="http://www.w3.org/2000/svg">
<path d="M0.209961 0.612824H1.98796C2.94716 0.612824 3.64396 0.703624 4.06796 0.876024C4.48792 1.05271 4.84138 1.35746 5.07796 1.74682C5.32036 2.14162 5.45196 2.62802 5.45196 3.18482C5.45196 3.80242 5.29036 4.31882 4.96716 4.72402C4.64396 5.12922 4.20956 5.41282 3.65436 5.57482C3.33116 5.66602 2.74516 5.71642 1.88676 5.71642V9.46323H0.210361V0.612824H0.209961ZM1.88636 4.06602H2.42156C2.84556 4.06602 3.12876 4.03562 3.30036 3.97482C3.45825 3.91838 3.59319 3.81155 3.68436 3.67082C3.78056 3.51974 3.8297 3.34348 3.82556 3.16442C3.82556 2.82042 3.69436 2.57722 3.43156 2.41522C3.23956 2.30362 2.88636 2.24322 2.36116 2.24322H1.88636V4.06602ZM7.03716 0.612424H8.72356V6.33402C8.72356 6.83002 8.76356 7.17482 8.85476 7.37722C8.94556 7.57962 9.08676 7.74162 9.27876 7.86322C9.48076 7.98483 9.71316 8.04562 9.99596 8.04562C10.2888 8.04562 10.5516 7.97482 10.7636 7.84282C10.9629 7.72274 11.1186 7.54189 11.2076 7.32682C11.2888 7.11402 11.3292 6.71882 11.3292 6.12162V0.612024H13.0156V5.88802C13.0156 6.77922 12.9652 7.39722 12.864 7.74122C12.7632 8.08562 12.5712 8.42002 12.2884 8.74403C12.0056 9.06802 11.6824 9.30082 11.3188 9.45282C10.9552 9.60482 10.5212 9.68563 10.0364 9.68563C9.40036 9.68563 8.84436 9.53362 8.36996 9.24002C7.89516 8.94642 7.56196 8.57202 7.34996 8.13602C7.14796 7.69082 7.04716 6.94122 7.04716 5.88802L7.03716 0.612024V0.612424ZM19.58 1.81762L18.3376 2.92162C17.9036 2.31362 17.4592 2.01002 17.0048 2.01002C16.7824 2.01002 16.6008 2.07082 16.4592 2.18202C16.318 2.29402 16.2472 2.43562 16.2472 2.58722C16.2472 2.73922 16.2976 2.88122 16.3988 3.01282C16.54 3.18482 16.944 3.56962 17.6308 4.14682C18.2668 4.68362 18.6608 5.02802 18.792 5.15962C19.1356 5.50362 19.378 5.83802 19.5192 6.15162C19.6608 6.46602 19.7312 6.81002 19.7312 7.18482C19.7312 7.91402 19.4792 8.51162 18.984 8.98722C18.4792 9.46322 17.8328 9.69642 17.0248 9.69642C16.3988 9.69642 15.8532 9.54443 15.3788 9.23042C14.914 8.92642 14.51 8.44042 14.1768 7.77202L15.5908 6.92162C16.0148 7.70162 16.4996 8.09642 17.0548 8.09642C17.348 8.09642 17.5904 8.01522 17.7824 7.84322C17.9744 7.67122 18.0752 7.47842 18.0752 7.25562C18.0752 7.05322 18.0044 6.85082 17.8528 6.65842C17.7016 6.46602 17.3784 6.15202 16.8732 5.73682C15.914 4.94682 15.2876 4.34922 15.0152 3.91402C14.7324 3.48882 14.5912 3.06322 14.5912 2.63802C14.5912 2.02042 14.8232 1.49402 15.2876 1.05802C15.7524 0.623224 16.328 0.400024 17.0148 0.400024C17.4588 0.400024 17.8732 0.501224 18.2772 0.704024C18.6812 0.906424 19.1152 1.27082 19.58 1.81762ZM21.3372 0.612424H23.0336V3.95442H25.9828V0.612024H27.6792V9.45282H25.9828V5.57442H23.0336V9.45282H21.3268V0.612024H21.3372V0.612424Z" fill="white"/>
<path d="M4.70398 11.6001L4.07798 12.2177C3.68398 11.8025 3.21958 11.5897 2.70438 11.5897C2.24998 11.5897 1.86638 11.7417 1.55318 12.0457C1.23998 12.3497 1.08878 12.7241 1.08878 13.1497C1.08878 13.5949 1.25038 13.9797 1.57358 14.2937C1.89678 14.6077 2.29038 14.7597 2.75518 14.7597C3.05798 14.7597 3.32038 14.6989 3.53278 14.5673C3.74478 14.4353 3.91638 14.2329 4.03758 13.9593H2.69438V13.1293H5.02718L5.03758 13.3213C5.03907 13.7274 4.93086 14.1264 4.72438 14.4761C4.51238 14.8405 4.23958 15.1241 3.90638 15.3165C3.57318 15.5089 3.17918 15.6001 2.72478 15.6001C2.23998 15.6001 1.81598 15.4989 1.43198 15.2861C1.05462 15.0748 0.743423 14.7628 0.533184 14.3849C0.312726 14.0031 0.197731 13.5697 0.199984 13.1289C0.199984 12.5113 0.401984 11.9749 0.805984 11.5189C1.29078 10.9721 1.91678 10.7089 2.68438 10.7089C3.08838 10.7089 3.46198 10.7797 3.81558 10.9317C4.12838 11.0733 4.42118 11.2961 4.70398 11.5997V11.6001ZM7.26918 10.8401H8.16798L9.95558 15.4985H9.03638L8.67278 14.5365H6.77438L6.40078 15.4985H5.48158L7.26958 10.8401H7.26918ZM7.72358 12.0761L7.09758 13.6761H8.33958L7.72358 12.0761ZM11.0868 10.8401H11.9452L13.0256 14.0909L14.1164 10.8405H14.9748L15.7524 15.4985H14.894L14.3992 12.5517L13.4096 15.4985H12.6316L11.6524 12.5517L11.1372 15.4985H10.2788L11.0868 10.8401ZM16.3988 10.8401H17.2772V15.4985H16.3988V10.8401ZM18.2772 10.8401H19.1252L21.1148 13.9085V10.8405H22.0036V15.4985H21.1556L19.1556 12.4401V15.4985H18.2668L18.2772 10.8401ZM27.346 11.6001L26.7196 12.2177C26.326 11.8025 25.8612 11.5897 25.3464 11.5897C24.892 11.5897 24.508 11.7417 24.1952 12.0457C23.882 12.3497 23.7304 12.7241 23.7304 13.1497C23.7304 13.5949 23.892 13.9797 24.2152 14.2937C24.5384 14.6077 24.9324 14.7597 25.3968 14.7597C25.7 14.7597 25.9624 14.6989 26.1744 14.5673C26.3864 14.4353 26.5584 14.2329 26.6792 13.9593H25.3364V13.1293H27.6692L27.6792 13.3213C27.6807 13.7274 27.5725 14.1264 27.366 14.4761C27.154 14.8405 26.8812 15.1241 26.548 15.3165C26.2148 15.5089 25.8208 15.6001 25.3664 15.6001C24.882 15.6001 24.4576 15.4989 24.074 15.2861C23.6966 15.0748 23.3855 14.7628 23.1752 14.3849C22.9547 14.0031 22.8397 13.5697 22.842 13.1289C22.842 12.5113 23.044 11.9749 23.4476 11.5189C23.9324 10.9721 24.5588 10.7089 25.326 10.7089C25.73 10.7089 26.1036 10.7797 26.4572 10.9317C26.7704 11.0733 27.0632 11.2961 27.346 11.5997V11.6001Z" fill="#ED0D05"/>
<path d="M27.9216 10.8404H28.5068V11.0432H28.3152V11.9036H28.1132V11.0432H27.9216V10.84V10.8404ZM28.7496 10.8404H28.9416L29.184 11.5796L29.4264 10.8404H29.6184L29.8 11.904H29.608L29.4972 11.2252L29.2748 11.8936H29.0932L28.8708 11.2256L28.7596 11.8936H28.5676L28.7496 10.8404Z" fill="white"/>
</svg>
