<svg width="41" height="16" viewBox="0 0 41 16" fill="none" xmlns="http://www.w3.org/2000/svg">
<path fill-rule="evenodd" clip-rule="evenodd" d="M28.9533 5.28003C28.6333 5.28003 28.3533 5.52003 28.3533 5.84003C28.3533 6.16003 28.6333 6.40003 28.9533 6.40003C29.2733 6.40003 29.5533 6.16003 29.5533 5.84003C29.5533 5.52003 29.3133 5.28003 28.9533 5.28003ZM20.4332 7.72003C19.9132 7.56003 19.3932 7.40003 19.3932 6.92003C19.3932 6.52003 19.7532 6.32003 20.1932 6.32003C20.5932 6.32003 20.9932 6.48003 21.2732 6.80003L21.8332 6.16003C21.4332 5.68003 20.8332 5.40003 20.2332 5.44003C19.3132 5.44003 18.4732 6.00003 18.4732 7.00003C18.4732 8.00003 19.2732 8.28003 19.9532 8.48003C20.5132 8.64003 21.0332 8.80003 21.0332 9.24003C21.0332 9.60003 20.7132 9.84003 20.2332 9.84003C19.7132 9.84003 19.2732 9.60003 18.9532 9.20003L18.3132 9.84003C18.7532 10.4 19.4332 10.72 20.1532 10.72C21.0732 10.72 21.9132 10.16 21.9132 9.16003C21.9932 8.16003 21.1532 7.92003 20.4332 7.72003ZM26.2732 9.44003L25.4332 6.96003H24.5932L23.7532 9.44003L22.9532 6.96003H21.9932L23.3532 10.64H24.1532L24.9932 8.16003L25.8732 10.64H26.6732L28.0332 6.96003H27.0332L26.2732 9.44003ZM28.5132 6.96003H29.3932V10.64H28.5132V6.96003ZM30.9532 7.48003C31.1532 7.12003 31.5932 6.88003 32.1132 6.88003C32.8732 6.88003 33.4332 7.32003 33.4332 8.28003V10.64H32.5932V8.44003C32.5932 7.96003 32.2732 7.68003 31.8732 7.68003C31.4332 7.68003 30.9932 8.00003 30.9932 8.68003V10.64H30.1132V6.96003H30.9532V7.48003ZM35.9132 9.88002C35.5932 9.88002 35.3132 9.68002 35.3132 9.28002V7.72002H36.5532L36.1132 6.92002H35.3132V5.40002H34.4332V6.92002H33.3932L33.8332 7.72002H34.3932V9.40002C34.3932 10.24 34.9932 10.64 35.6732 10.64C36.0332 10.64 36.3932 10.52 36.6732 10.32L36.4332 9.68002C36.3132 9.80002 36.1132 9.88002 35.9132 9.88002ZM38.4732 9.28002C38.4732 9.68002 38.7532 9.88002 39.0732 9.88002C39.2732 9.88002 39.4732 9.80002 39.6332 9.68002L39.8732 10.32C39.5932 10.52 39.2332 10.64 38.8732 10.64C38.1932 10.64 37.5932 10.24 37.5932 9.40002V7.72002H37.0332L36.5932 6.92002H37.5932V5.40002H38.4732V6.92002H39.2732L39.7132 7.72002H38.4732V9.28002ZM40.4333 6.96003C40.2333 6.96003 40.0333 7.12003 40.0333 7.36003C40.0333 7.60003 40.1933 7.76003 40.4333 7.76003C40.6733 7.76003 40.8333 7.60003 40.8333 7.36003C40.7933 7.12003 40.6333 6.96003 40.4333 6.96003ZM40.4333 7.68003C40.2333 7.68003 40.1133 7.56003 40.0733 7.36003C40.0733 7.16003 40.1933 7.04003 40.3933 7.00003C40.5933 6.96003 40.7133 7.12003 40.7533 7.32003C40.7533 7.52003 40.6333 7.68003 40.4333 7.68003ZM40.4333 7.12002C40.5133 7.12002 40.5933 7.16002 40.5933 7.24002C40.5933 7.32002 40.5533 7.36002 40.5133 7.36002L40.5933 7.52002H40.4733L40.3933 7.40002H40.3133V7.52002H40.2333V7.12002H40.4333ZM40.3533 7.20002V7.32002H40.4333C40.4733 7.32002 40.5133 7.28002 40.5133 7.24002C40.5133 7.20002 40.4733 7.20002 40.4333 7.20002H40.3533Z" fill="white"/>
<path d="M12.5132 0H6.35315L3.31315 5.32L4.83315 7.92L6.39315 10.6L6.15315 10.24L4.71315 8.16L4.55315 7.92H1.79315L0.233154 10.68L3.31315 16H9.43316L12.5132 10.68L12.5532 10.6L11.0332 7.92L9.47315 5.28L11.3132 7.92H14.0732H14.1132L15.5932 5.32L12.5132 0Z" fill="#E84E1C"/>
</svg>
