<svg width="24" height="24" viewBox="0 0 24 24" fill="none" xmlns="http://www.w3.org/2000/svg">
<path fill-rule="evenodd" clip-rule="evenodd" d="M4.77821 2H19.2227C19.5295 2 19.7782 2.24873 19.7782 2.55556C19.7782 2.86238 19.5295 3.11111 19.2227 3.11111H4.77821C4.47139 3.11111 4.22266 2.86238 4.22266 2.55556C4.22266 2.24873 4.47139 2 4.77821 2ZM19.8872 4.22229H4.10938C3.55709 4.22229 3.10938 4.67001 3.10938 5.22229V5.44451C3.10938 5.9968 3.55709 6.44451 4.10938 6.44451H19.8872C20.4394 6.44451 20.8872 5.9968 20.8872 5.44451V5.22229C20.8872 4.67001 20.4394 4.22229 19.8872 4.22229ZM4 7.55554C2.89543 7.55554 2 8.45097 2 9.55554V19.7124C2 21.4117 3.62091 22 4.28758 22H19.7124C20.3791 22 22 21.4117 22 19.7124V9.55554C22 8.45097 21.1046 7.55554 20 7.55554H4ZM15.3333 13.1111H8.66667C8 13.1111 7.55556 12.6667 7.55556 12C7.55556 11.3333 8 10.8889 8.66667 10.8889H15.3333C16 10.8889 16.4444 11.3333 16.4444 12C16.4444 12.6667 16 13.1111 15.3333 13.1111Z" fill="currentColor"/>
</svg>
