<svg width="80" height="24" viewBox="0 0 80 24" fill="none" xmlns="http://www.w3.org/2000/svg">
<g clip-path="url(#clip0_884_25953)">
<path d="M10.8626 3.21082C10.982 3.21764 11.1008 3.18881 11.204 3.12798C11.3071 3.06716 11.3899 2.97707 11.4418 2.86911C11.4938 2.76116 11.5127 2.64019 11.496 2.5215C11.4793 2.40281 11.4279 2.29174 11.3482 2.20234C11.2685 2.11294 11.1641 2.04922 11.0482 2.01925C10.9324 1.98928 10.8102 1.9944 10.6973 2.03396C10.5843 2.07353 10.4856 2.14576 10.4137 2.24152C10.3417 2.33728 10.2997 2.45226 10.293 2.57193C10.284 2.73229 10.3389 2.88966 10.4457 3.00946C10.5526 3.12926 10.7025 3.20169 10.8626 3.21082Z" fill="#003CCC"/>
<path d="M16.1245 3.51082C16.0304 3.51167 15.9382 3.48455 15.8595 3.43288C15.7541 3.36368 15.6804 3.25541 15.6547 3.13185C15.6289 3.00829 15.6532 2.87953 15.7221 2.77387C15.7736 2.69499 15.8473 2.63317 15.9339 2.59624C16.0204 2.55931 16.116 2.54892 16.2084 2.5664C16.3009 2.58388 16.3861 2.62843 16.4533 2.69442C16.5204 2.76042 16.5665 2.84488 16.5858 2.93713C16.605 3.02938 16.5965 3.12527 16.5613 3.21267C16.5261 3.30007 16.4658 3.37505 16.3881 3.42812C16.3103 3.4812 16.2186 3.50998 16.1245 3.51082Z" fill="#003CCC"/>
<path d="M5.89062 3.48275C5.9741 3.43982 6.04303 3.3731 6.08874 3.29102C6.13444 3.20893 6.15488 3.11513 6.14748 3.02143C6.14008 2.92774 6.10516 2.83832 6.04714 2.76446C5.98911 2.69059 5.91057 2.63557 5.82139 2.60631C5.73221 2.57706 5.63638 2.57489 5.54597 2.60006C5.45556 2.62524 5.37461 2.67664 5.3133 2.7478C5.252 2.81896 5.21308 2.9067 5.20145 2.99996C5.18981 3.09323 5.20599 3.18786 5.24794 3.27193C5.27613 3.32821 5.31517 3.37834 5.3628 3.41944C5.41043 3.46053 5.46571 3.49178 5.52545 3.51138C5.5852 3.53098 5.64822 3.53853 5.7109 3.53362C5.77357 3.52871 5.83465 3.51142 5.89062 3.48275Z" fill="#003CCC"/>
<path d="M6.35418 13.095C6.09449 12.8029 5.96119 12.4194 5.98357 12.029L5.97955 12.0298C5.99603 11.7427 6.09607 11.4667 6.26733 11.2359C6.43859 11.0051 6.67358 10.8296 6.94329 10.731C7.21299 10.6324 7.50562 10.6151 7.78505 10.6811C8.06447 10.7472 8.31847 10.8938 8.51569 11.1028C8.71291 11.3117 8.84472 11.574 8.89485 11.8571C8.94498 12.1403 8.91124 12.4319 8.79779 12.6961C8.68435 12.9603 8.49615 13.1854 8.25645 13.3437C8.01674 13.5019 7.73601 13.5864 7.4489 13.5868H7.36857C6.97873 13.5639 6.61388 13.3871 6.35418 13.095Z" fill="#003CCC"/>
<path d="M0.233804 11.7208C0.314658 11.6731 0.407836 11.6504 0.501563 11.6556C0.563912 11.659 0.624978 11.6747 0.681253 11.7018C0.737528 11.7289 0.787902 11.7669 0.829483 11.8135C0.871064 11.8602 0.90303 11.9146 0.923547 11.9737C0.944064 12.0328 0.952726 12.0953 0.949036 12.1577C0.943647 12.2516 0.910598 12.3418 0.854065 12.4168C0.797532 12.4919 0.720052 12.5485 0.631417 12.5795C0.542783 12.6104 0.446971 12.6144 0.356091 12.5908C0.265211 12.5673 0.183342 12.5173 0.12083 12.4471C0.0583176 12.377 0.0179683 12.2898 0.00488113 12.1967C-0.00820605 12.1036 0.00655626 12.0087 0.0473025 11.924C0.0880486 11.8393 0.15295 11.7686 0.233804 11.7208Z" fill="#003CCC"/>
<path d="M7.6907 5.7936C7.61923 5.9202 7.51189 6.02273 7.38225 6.08823C7.29611 6.13175 7.20226 6.15784 7.10606 6.16501C7.00985 6.17219 6.91318 6.1603 6.82156 6.13004C6.72995 6.09977 6.64518 6.05172 6.57211 5.98863C6.49904 5.92554 6.4391 5.84865 6.39572 5.76235C6.33042 5.63245 6.30503 5.48608 6.32277 5.34173C6.34052 5.19738 6.40059 5.06155 6.49539 4.95139C6.5902 4.84124 6.71549 4.76171 6.85542 4.72286C6.99534 4.68402 7.14363 4.6876 7.28153 4.73315C7.41942 4.7787 7.54074 4.86418 7.63014 4.97878C7.71954 5.09338 7.77301 5.23196 7.78379 5.37699C7.79457 5.52203 7.76218 5.66701 7.6907 5.7936Z" fill="#003CCC"/>
<path d="M2.36223 7.88018C2.46223 7.94604 2.57948 7.98072 2.69916 7.97982C2.81884 7.97892 2.93556 7.94248 3.03456 7.87512C3.13355 7.80775 3.21037 7.71249 3.2553 7.60139C3.30023 7.49028 3.31124 7.36833 3.28695 7.25095C3.26266 7.13357 3.20415 7.02605 3.11883 6.94199C3.03351 6.85793 2.92521 6.8011 2.80764 6.7787C2.69007 6.75631 2.5685 6.76934 2.45833 6.81616C2.34816 6.86298 2.25432 6.94149 2.18871 7.04174C2.10082 7.176 2.06974 7.33971 2.10227 7.49692C2.13481 7.65412 2.22831 7.79197 2.36223 7.88018Z" fill="#003CCC"/>
<path d="M2.84218 11.4884C2.96726 11.4145 3.1114 11.3795 3.25636 11.3877C3.45085 11.3989 3.63294 11.487 3.76264 11.6326C3.89233 11.7781 3.95902 11.9694 3.94805 12.1642C3.93972 12.3094 3.8886 12.4488 3.80116 12.5649C3.71371 12.681 3.59387 12.7685 3.45677 12.8164C3.31968 12.8643 3.17149 12.8704 3.03093 12.8339C2.89037 12.7975 2.76376 12.7201 2.6671 12.6116C2.57044 12.5031 2.50806 12.3683 2.48786 12.2243C2.46766 12.0803 2.49054 11.9335 2.5536 11.8025C2.61667 11.6715 2.71709 11.5622 2.84218 11.4884Z" fill="#003CCC"/>
<path d="M2.44259 16.3322C2.33583 16.3863 2.24746 16.4708 2.18865 16.5751C2.12985 16.6795 2.10325 16.7989 2.11222 16.9184C2.12119 17.0379 2.16532 17.152 2.23903 17.2464C2.31275 17.3407 2.41274 17.4111 2.52637 17.4485C2.64 17.486 2.76216 17.4889 2.87741 17.4568C2.99267 17.4247 3.09584 17.3591 3.17388 17.2683C3.25193 17.1775 3.30135 17.0656 3.31589 16.9467C3.33044 16.8277 3.30945 16.7072 3.25559 16.6002C3.2198 16.5291 3.17037 16.4658 3.11014 16.4138C3.0499 16.3619 2.98003 16.3223 2.90453 16.2974C2.82903 16.2726 2.74937 16.2628 2.6701 16.2688C2.59084 16.2748 2.51353 16.2963 2.44259 16.3322Z" fill="#003CCC"/>
<path d="M5.77844 10.0093C5.60749 10.0108 5.43993 9.96153 5.29694 9.86767C5.2019 9.80541 5.12005 9.72499 5.05607 9.631C4.9921 9.53702 4.94727 9.43132 4.92414 9.31995C4.901 9.20859 4.90003 9.09375 4.92126 8.982C4.9425 8.87026 4.98553 8.76381 5.0479 8.66875C5.14164 8.52556 5.27568 8.41343 5.43304 8.34653C5.59041 8.27964 5.76405 8.26098 5.93201 8.29292C6.09996 8.32486 6.25469 8.40597 6.37663 8.52598C6.49856 8.646 6.58223 8.79953 6.61705 8.96717C6.65187 9.13481 6.63629 9.30903 6.57226 9.46779C6.50823 9.62656 6.39864 9.76274 6.25734 9.85913C6.11604 9.95552 5.94938 10.0078 5.77844 10.0093Z" fill="#003CCC"/>
<path d="M14.3524 6.03029C14.4741 6.10983 14.6167 6.15143 14.762 6.14984C14.9073 6.14824 15.049 6.10353 15.1689 6.02134C15.2889 5.93915 15.3819 5.82317 15.4361 5.68808C15.4902 5.55299 15.5032 5.40483 15.4733 5.26235C15.4435 5.11987 15.3721 4.98946 15.2683 4.8876C15.1644 4.78573 15.0327 4.717 14.8899 4.69007C14.747 4.66315 14.5994 4.67925 14.4657 4.73634C14.332 4.79342 14.2182 4.88894 14.1387 5.0108C14.0857 5.09175 14.0492 5.18236 14.0313 5.27746C14.0134 5.37256 14.0144 5.47026 14.0342 5.56497C14.0541 5.65968 14.0924 5.74954 14.147 5.82939C14.2016 5.90923 14.2714 5.97751 14.3524 6.03029Z" fill="#003CCC"/>
<path d="M14.4681 10.6272C14.2753 10.6161 14.0822 10.6432 13.8998 10.7068C13.7175 10.7705 13.5494 10.8695 13.4053 10.9982C13.1141 11.2581 12.938 11.6232 12.9156 12.0132C12.8932 12.4032 13.0264 12.7862 13.286 13.0778C13.5455 13.3694 13.91 13.5458 14.2994 13.5682H14.3845C14.6682 13.5681 14.9457 13.4858 15.1837 13.3312C15.4217 13.1766 15.61 12.9564 15.7258 12.697C15.8416 12.4377 15.8801 12.1503 15.8365 11.8696C15.793 11.5889 15.6693 11.3267 15.4803 11.1149C15.3524 10.9703 15.197 10.8528 15.0232 10.7691C14.8494 10.6854 14.6607 10.6371 14.4681 10.6272Z" fill="#003CCC"/>
<path d="M8.40721 10.3581C8.17501 10.2149 7.98732 10.0097 7.86527 9.76546C7.75303 9.54103 7.69991 9.2916 7.71094 9.04083C7.72196 8.79006 7.79677 8.54627 7.92827 8.33259C8.05976 8.11891 8.24359 7.94242 8.4623 7.81987C8.68101 7.69732 8.92735 7.63277 9.17796 7.63234C9.45002 7.63104 9.71706 7.70562 9.94919 7.84773C10.1813 7.98985 10.3694 8.19388 10.4923 8.43699C10.6058 8.66163 10.66 8.91166 10.6496 9.16323C10.6392 9.41481 10.5647 9.65952 10.433 9.87401C10.3014 10.0885 10.117 10.2656 9.89758 10.3885C9.67815 10.5113 9.43095 10.5758 9.17957 10.5757C8.9069 10.5766 8.63941 10.5012 8.40721 10.3581Z" fill="#003CCC"/>
<path d="M19.3933 7.87862C19.5001 7.82465 19.5885 7.74018 19.6474 7.6359C19.7062 7.53161 19.7329 7.41219 19.724 7.29273C19.7152 7.17326 19.6711 7.05911 19.5975 6.9647C19.5239 6.87029 19.424 6.79987 19.3104 6.76232C19.1968 6.72477 19.0746 6.7218 18.9594 6.75376C18.8441 6.78572 18.7409 6.85119 18.6628 6.9419C18.5846 7.0326 18.5351 7.14447 18.5204 7.26336C18.5057 7.38226 18.5266 7.50284 18.5803 7.60987C18.6526 7.75342 18.7788 7.86236 18.9313 7.91275C19.0837 7.96314 19.2499 7.95087 19.3933 7.87862Z" fill="#003CCC"/>
<path d="M15.3017 8.69439C15.386 8.54538 15.5124 8.42473 15.6651 8.3477C15.7665 8.29645 15.877 8.26572 15.9902 8.25728C16.1034 8.24884 16.2172 8.26284 16.325 8.29849C16.4329 8.33414 16.5326 8.39074 16.6186 8.46504C16.7045 8.53935 16.775 8.6299 16.826 8.73152C16.9029 8.88446 16.9328 9.0568 16.9119 9.22676C16.891 9.39672 16.8203 9.55665 16.7086 9.68634C16.597 9.81603 16.4495 9.90965 16.2847 9.95536C16.1199 10.0011 15.9453 9.99681 15.783 9.94314C15.6207 9.88946 15.4778 9.78877 15.3726 9.65379C15.2674 9.51882 15.2045 9.35563 15.1919 9.18486C15.1793 9.01409 15.2175 8.8434 15.3017 8.69439Z" fill="#003CCC"/>
<path d="M11.3436 6.90538C11.1964 6.99234 11.0268 7.03364 10.8561 7.02406C10.6271 7.01099 10.4126 6.90735 10.2599 6.73594C10.1071 6.56453 10.0286 6.33938 10.0415 6.10998C10.0513 5.93907 10.1115 5.77491 10.2144 5.63824C10.3173 5.50157 10.4584 5.39853 10.6198 5.34214C10.7811 5.28575 10.9556 5.27854 11.121 5.32142C11.2865 5.3643 11.4356 5.45536 11.5494 5.58307C11.6632 5.71078 11.7367 5.86942 11.7605 6.03894C11.7843 6.20846 11.7574 6.38125 11.6832 6.53547C11.609 6.68968 11.4909 6.81841 11.3436 6.90538Z" fill="#003CCC"/>
<path d="M6.17247 15.8623C6.32514 15.7852 6.45156 15.6645 6.53573 15.5154C6.61991 15.3664 6.65805 15.1956 6.64535 15.0249C6.63264 14.8541 6.56965 14.6909 6.46435 14.556C6.35905 14.4211 6.21617 14.3204 6.05377 14.2669C5.89138 14.2133 5.71676 14.2091 5.55202 14.255C5.38727 14.3008 5.23979 14.3945 5.12824 14.5243C5.01668 14.6541 4.94606 14.8141 4.9253 14.9841C4.90454 15.1541 4.93458 15.3264 5.01161 15.4793C5.11488 15.6842 5.29518 15.8397 5.51287 15.9115C5.73056 15.9834 5.96781 15.9657 6.17247 15.8623Z" fill="#003CCC"/>
<path d="M11.1789 9.21403C11.1523 8.88748 11.2352 8.56138 11.4145 8.28735C11.5485 8.08277 11.7313 7.91482 11.9463 7.79864C12.1613 7.68247 12.4018 7.62173 12.6461 7.6219C12.9732 7.62232 13.2908 7.732 13.5487 7.93356C13.8065 8.13513 13.9899 8.41708 14.0698 8.73479C14.1497 9.0525 14.1215 9.38782 13.9897 9.68768C13.8579 9.98754 13.6301 10.2348 13.3422 10.3904C13.0543 10.5459 12.7228 10.6009 12.4003 10.5465C12.0777 10.4922 11.7824 10.3316 11.5612 10.0903C11.34 9.84892 11.2055 9.54057 11.1789 9.21403Z" fill="#003CCC"/>
<path d="M13.9707 14.4453C13.8529 14.2114 13.6749 14.0131 13.4551 13.8711C13.2353 13.729 12.9816 13.6483 12.7203 13.6372C12.4589 13.6261 12.1993 13.685 11.9683 13.8079C11.7373 13.9308 11.5432 14.1132 11.4061 14.3363C11.2689 14.5595 11.1937 14.8152 11.1881 15.0771C11.1826 15.3391 11.2469 15.5978 11.3745 15.8265C11.5021 16.0552 11.6883 16.2457 11.9139 16.3783C12.1395 16.5109 12.3964 16.5809 12.658 16.5809C12.8881 16.5793 13.1147 16.5242 13.3199 16.4199C13.6671 16.2439 13.9305 15.9373 14.0524 15.5672C14.1744 15.1971 14.145 14.7937 13.9707 14.4453Z" fill="#003CCC"/>
<path d="M16.0586 14.2004C16.2295 14.199 16.3971 14.2484 16.54 14.3424C16.7313 14.4687 16.8648 14.6657 16.9114 14.8905C16.9579 15.1152 16.9136 15.3492 16.7882 15.5413C16.6944 15.6844 16.5603 15.7965 16.4029 15.8633C16.2455 15.9301 16.0718 15.9487 15.9039 15.9167C15.7359 15.8846 15.5812 15.8034 15.4594 15.6833C15.3375 15.5632 15.2539 15.4096 15.2192 15.242C15.1845 15.0743 15.2002 14.9001 15.2643 14.7413C15.3285 14.5826 15.4382 14.4465 15.5795 14.3502C15.7209 14.2539 15.8876 14.2018 16.0586 14.2004Z" fill="#003CCC"/>
<path d="M19.355 12.1304C19.3632 11.9852 19.3282 11.8408 19.2545 11.7155C19.1807 11.5902 19.0716 11.4897 18.9408 11.4265C18.81 11.3633 18.6635 11.3404 18.5197 11.3606C18.3759 11.3809 18.2414 11.4434 18.133 11.5402C18.0247 11.637 17.9474 11.7638 17.911 11.9046C17.8747 12.0454 17.8807 12.1938 17.9286 12.3311C17.9764 12.4684 18.0637 12.5885 18.1797 12.676C18.2956 12.7636 18.4348 12.8148 18.5797 12.8232C18.7742 12.8342 18.9651 12.7674 19.1105 12.6375C19.2559 12.5076 19.3438 12.3252 19.355 12.1304Z" fill="#003CCC"/>
<path d="M21.1205 11.6714C21.2016 11.6237 21.295 11.6011 21.3889 11.6065C21.5148 11.614 21.6325 11.6711 21.7164 11.7654C21.8003 11.8596 21.8434 11.9833 21.8364 12.1094C21.831 12.2035 21.7979 12.2938 21.7412 12.369C21.6845 12.4442 21.6069 12.5009 21.5181 12.5319C21.4292 12.5629 21.3332 12.5668 21.2422 12.5432C21.1511 12.5195 21.0691 12.4693 21.0065 12.399C20.9439 12.3287 20.9036 12.2413 20.8906 12.148C20.8776 12.0547 20.8924 11.9596 20.9334 11.8748C20.9743 11.79 21.0394 11.7192 21.1205 11.6714Z" fill="#003CCC"/>
<path d="M19.4737 16.3298C19.3736 16.2642 19.2564 16.2297 19.1367 16.2308C19.0171 16.2319 18.9005 16.2685 18.8016 16.3359C18.7028 16.4034 18.6261 16.4987 18.5813 16.6098C18.5365 16.7209 18.5256 16.8428 18.55 16.9601C18.5743 17.0774 18.6329 17.1848 18.7182 17.2688C18.8035 17.3528 18.9118 17.4096 19.0293 17.4319C19.1468 17.4543 19.2683 17.4413 19.3785 17.3945C19.4886 17.3477 19.5824 17.2692 19.648 17.1691C19.6916 17.1025 19.7217 17.028 19.7365 16.9498C19.7514 16.8716 19.7507 16.7912 19.7345 16.7133C19.7183 16.6353 19.6869 16.5613 19.6422 16.4955C19.5974 16.4298 19.5402 16.3734 19.4737 16.3298Z" fill="#003CCC"/>
<path d="M5.71234 20.699C5.80639 20.6983 5.89856 20.7254 5.97719 20.7771C6.02943 20.8114 6.0744 20.8557 6.10953 20.9075C6.14467 20.9592 6.16928 21.0174 6.18196 21.0787C6.19464 21.1399 6.19515 21.2031 6.18345 21.2646C6.17174 21.3261 6.14807 21.3846 6.11376 21.4369C6.06212 21.5156 5.98833 21.5773 5.90173 21.614C5.81512 21.6507 5.71958 21.6609 5.6272 21.6433C5.53481 21.6256 5.44972 21.581 5.38268 21.5149C5.31565 21.4488 5.26968 21.3643 5.25058 21.2721C5.23149 21.1798 5.24013 21.084 5.27542 20.9967C5.3107 20.9093 5.37104 20.8345 5.44881 20.7815C5.52658 20.7285 5.61829 20.6998 5.71234 20.699Z" fill="#003CCC"/>
<path d="M15.9454 20.7272C15.8614 20.7696 15.7918 20.836 15.7455 20.918C15.6992 21 15.6782 21.094 15.6852 21.1879C15.6922 21.2819 15.7268 21.3717 15.7847 21.4459C15.8426 21.5201 15.9213 21.5755 16.0106 21.605C16.0999 21.6345 16.196 21.6368 16.2866 21.6116C16.3773 21.5864 16.4584 21.5348 16.5198 21.4634C16.5812 21.392 16.6201 21.304 16.6315 21.2105C16.643 21.117 16.6264 21.0222 16.5841 20.938C16.556 20.8821 16.5172 20.8323 16.4699 20.7914C16.4226 20.7506 16.3678 20.7194 16.3084 20.6999C16.2491 20.6803 16.1865 20.6726 16.1242 20.6773C16.0619 20.682 16.0011 20.699 15.9454 20.7272Z" fill="#003CCC"/>
<path d="M10.6572 14.9935C10.6838 15.32 10.6009 15.6462 10.4216 15.9202C10.2882 16.1253 10.1057 16.2936 9.89075 16.4098C9.67577 16.5261 9.43515 16.5865 9.19084 16.5857C8.8637 16.5854 8.54599 16.4759 8.28799 16.2745C8.02999 16.073 7.84646 15.7911 7.76643 15.4734C7.68641 15.1557 7.71447 14.8203 7.84617 14.5204C7.97787 14.2204 8.20569 13.9731 8.49356 13.8174C8.78144 13.6618 9.11292 13.6067 9.43554 13.661C9.75815 13.7153 10.0535 13.8758 10.2747 14.1172C10.496 14.3585 10.6306 14.6669 10.6572 14.9935Z" fill="#003CCC"/>
<path d="M7.48356 18.1805C7.36205 18.1009 7.21971 18.0591 7.07452 18.0605C6.92933 18.0619 6.78782 18.1064 6.66786 18.1883C6.54791 18.2703 6.4549 18.386 6.4006 18.5209C6.34629 18.6557 6.33313 18.8037 6.36277 18.9461C6.39241 19.0884 6.46352 19.2188 6.56712 19.3207C6.67072 19.4226 6.80215 19.4914 6.9448 19.5185C7.08746 19.5456 7.23493 19.5297 7.36857 19.4729C7.50222 19.416 7.61604 19.3208 7.69564 19.1992C7.80227 19.0359 7.83983 18.8369 7.80006 18.6459C7.76029 18.4549 7.64646 18.2875 7.48356 18.1805Z" fill="#003CCC"/>
<path d="M10.5701 21.082C10.6732 21.0212 10.792 20.9924 10.9114 20.9992C10.9907 21.0037 11.0684 21.0238 11.14 21.0584C11.2116 21.093 11.2756 21.1414 11.3285 21.2008C11.3814 21.2602 11.4221 21.3295 11.4483 21.4047C11.4744 21.4798 11.4855 21.5594 11.481 21.6389C11.4741 21.7585 11.432 21.8734 11.3599 21.969C11.2879 22.0647 11.1891 22.1368 11.0762 22.1762C10.9632 22.2157 10.8411 22.2207 10.7253 22.1906C10.6095 22.1606 10.5052 22.0968 10.4256 22.0074C10.346 21.918 10.2946 21.8069 10.278 21.6882C10.2614 21.5696 10.2803 21.4486 10.3323 21.3407C10.3842 21.2328 10.467 21.1428 10.5701 21.082Z" fill="#003CCC"/>
<path d="M10.9181 17.1868C10.7473 17.1764 10.5772 17.217 10.4295 17.3034C10.2818 17.3899 10.163 17.5184 10.0882 17.6725C10.0134 17.8267 9.98593 17.9996 10.0093 18.1693C10.0327 18.3391 10.1059 18.4981 10.2196 18.6262C10.3333 18.7543 10.4824 18.8457 10.648 18.8889C10.8136 18.932 10.9882 18.925 11.1498 18.8686C11.3114 18.8123 11.4527 18.7092 11.5557 18.5724C11.6588 18.4355 11.719 18.2711 11.7287 18.1C11.7418 17.8713 11.6639 17.6467 11.5119 17.4755C11.3599 17.3043 11.1464 17.2004 10.9181 17.1868Z" fill="#003CCC"/>
<path d="M14.1453 18.4177C14.2165 18.2907 14.3238 18.1877 14.4535 18.1218C14.5394 18.0779 14.6331 18.0514 14.7293 18.0438C14.8254 18.0362 14.9221 18.0477 15.0138 18.0776C15.1055 18.1075 15.1905 18.1552 15.2637 18.2181C15.337 18.2809 15.3972 18.3575 15.4409 18.4437C15.507 18.5734 15.5332 18.7199 15.5161 18.8646C15.4991 19.0093 15.4396 19.1457 15.3451 19.2565C15.2507 19.3673 15.1255 19.4475 14.9855 19.487C14.8455 19.5265 14.6969 19.5236 14.5586 19.4785C14.4203 19.4334 14.2985 19.3482 14.2085 19.2337C14.1185 19.1192 14.0645 18.9806 14.0533 18.8353C14.042 18.6901 14.074 18.5447 14.1453 18.4177Z" fill="#003CCC"/>
<path d="M27.5744 9.16011C28.6445 9.16011 29.3939 9.74923 29.3939 10.8428H30.7955C30.7955 8.92421 29.383 8 27.5533 8C25.3056 8 24 9.2224 24 11.8057C24 14.4532 25.3056 15.6108 27.5533 15.6108C29.4048 15.6108 30.7955 14.7108 30.7955 12.7916H29.447C29.447 13.8634 28.7085 14.4532 27.575 14.4532C26.087 14.4532 25.401 13.6275 25.401 11.9128V11.6987C25.4022 10.0172 26.0973 9.16011 27.5744 9.16011Z" fill="white"/>
<path d="M34.5015 8.13065L31.644 15.4844H33.0571L33.6452 13.887H37.0034L37.6073 15.4844H39.0844L36.225 8.13065H34.5015ZM34.0734 12.7275L34.8228 10.7115C34.9726 10.3154 35.2401 9.45769 35.2938 9.30769H35.347C35.4007 9.45769 35.6683 10.3257 35.818 10.7115L36.5668 12.7269L34.0734 12.7275Z" fill="white"/>
<path d="M46.726 10.3601C46.726 8.99922 45.9446 8.13065 44.3286 8.13065H40.454V15.4844H41.8242V12.6416H44.1033L45.4922 15.4844H46.9905L45.4204 12.4293C46.287 12.0864 46.726 11.3575 46.726 10.3601ZM44.2211 11.4858H41.8242V9.29922H44.2211C44.9596 9.29922 45.3449 9.696 45.3449 10.3601C45.3449 11.0575 44.9276 11.4858 44.2211 11.4858Z" fill="white"/>
<path d="M51.5317 8.13065H48.598V15.4844H51.5305C53.7455 15.4844 55.0934 14.3267 55.0934 11.8075C55.0934 9.28833 53.7467 8.13065 51.5317 8.13065ZM53.6936 11.9146C53.6827 13.5229 52.923 14.3159 51.5317 14.3159H49.9694V9.29922H51.5317C52.9206 9.29922 53.6936 10.0928 53.6936 11.7005V11.9146Z" fill="white"/>
<path d="M58.6829 8.13065L55.8241 15.4844H57.2366L57.8254 13.887H61.186L61.785 15.4844H63.2621L60.4046 8.13065H58.6829ZM58.2547 12.7275L59.0029 10.7115C59.1527 10.3154 59.4202 9.45769 59.474 9.30769H59.5283C59.5815 9.45769 59.8496 10.3257 59.9994 10.7115L60.7482 12.7269L58.2547 12.7275Z" fill="white"/>
<path d="M69.525 12.5043C69.525 12.6434 69.5462 13.0185 69.5462 13.0832L69.493 13.1043C69.461 13.062 69.2466 12.6864 69.1307 12.5152L65.9416 8.13065H64.6342V15.4844H65.9506V11.0787C65.9506 10.8972 65.9289 10.5428 65.9289 10.489L65.9826 10.4569C66.0146 10.4999 66.1753 10.8107 66.345 11.0575L69.5558 15.4844H70.8397V8.13065H69.5238V12.5043H69.525Z" fill="white"/>
<path d="M76.297 8.00242C73.9962 8.00242 72.6048 9.22422 72.6048 11.8075C72.6048 14.3909 73.9938 15.6127 76.297 15.6127C78.6002 15.6127 80 14.3909 80 11.8075C80 9.22422 78.5978 8.00242 76.297 8.00242ZM78.5978 11.9255C78.5978 13.6082 77.7952 14.455 76.297 14.455C74.8096 14.455 74.0071 13.6082 74.0071 11.9255V11.7005C74.0071 10.0172 74.8205 9.16011 76.297 9.16011C77.785 9.16011 78.5978 10.0172 78.5978 11.7005V11.9255Z" fill="white"/>
</g>
<defs>
<clipPath id="clip0_884_25953">
<rect width="80" height="24" fill="white"/>
</clipPath>
</defs>
</svg>
