<svg width="80" height="24" viewBox="0 0 80 24" fill="none" xmlns="http://www.w3.org/2000/svg">
<path d="M21.6425 9.30737H22.5122L24.9457 14.982H23.7968L23.2702 13.6836H20.8207L20.3101 14.982H19.1851L21.6425 9.30737ZM22.9191 12.818L22.0494 10.5096L21.1638 12.818H22.9191Z" fill="white"/>
<path d="M26.0239 9.30737H27.1808L28.7207 13.5954L30.3085 9.30737H31.3937L29.1117 14.982H28.2421L26.0239 9.30737Z" fill="white"/>
<path d="M34.9867 9.30737H35.8565L38.2898 14.982H37.1409L36.6145 13.6836H34.1649L33.6542 14.982H32.5293L34.9867 9.30737ZM36.2633 12.818L35.3937 10.5096L34.508 12.818H36.2633Z" fill="white"/>
<path d="M40.5137 9.30737H41.5191V14.0683H43.9206V14.982H40.5137V9.30737Z" fill="white"/>
<path d="M48.0736 9.30737H48.9434L51.3768 14.982H50.2279L49.7014 13.6836H47.2518L46.7413 14.982H45.6162L48.0736 9.30737ZM49.3502 12.818L48.4806 10.5096L47.5949 12.818H49.3502Z" fill="white"/>
<path d="M53.6006 9.30737H54.9331L57.6697 13.5233H57.6857V9.30737H58.6909V14.982H57.4145L54.6218 10.6299H54.606V14.982H53.6006V9.30737Z" fill="white"/>
<path d="M65.424 10.6379C65.2166 10.4134 65.0145 10.2638 64.8176 10.189C64.6263 10.1142 64.4319 10.0768 64.2353 10.0768C63.9427 10.0768 63.6767 10.1302 63.4373 10.2371C63.2033 10.3386 63.0012 10.4829 62.8309 10.6699C62.6608 10.8516 62.5278 11.0653 62.4319 11.3111C62.3415 11.5569 62.2964 11.8214 62.2964 12.1046C62.2964 12.4092 62.3415 12.6897 62.4319 12.9462C62.5278 13.2027 62.6608 13.4244 62.8309 13.6114C63.0012 13.7985 63.2033 13.9454 63.4373 14.0523C63.6767 14.1591 63.9427 14.2126 64.2353 14.2126C64.464 14.2126 64.6846 14.1591 64.8975 14.0523C65.1154 13.94 65.3176 13.7637 65.5039 13.5233L66.3337 14.1164C66.0782 14.4691 65.7672 14.7255 65.4 14.8858C65.033 15.0461 64.642 15.1263 64.2273 15.1263C63.7909 15.1263 63.3894 15.0568 63.0225 14.9179C62.6608 14.7736 62.347 14.5732 62.081 14.3168C61.8203 14.0549 61.6154 13.7424 61.4666 13.379C61.3176 13.0157 61.2432 12.6122 61.2432 12.1687C61.2432 11.7145 61.3176 11.3031 61.4666 10.9344C61.6154 10.5604 61.8203 10.2425 62.081 9.98064C62.347 9.71881 62.6608 9.51843 63.0225 9.37949C63.3894 9.23522 63.7909 9.16309 64.2273 9.16309C64.6102 9.16309 64.9639 9.23255 65.2885 9.37149C65.6181 9.50507 65.9239 9.73484 66.206 10.0608L65.424 10.6379Z" fill="white"/>
<path d="M68.6045 9.30737H69.6096V11.5676H72.2506V9.30737H73.256V14.982H72.2506V12.4813H69.6096V14.982H68.6045V9.30737Z" fill="white"/>
<path d="M76.1138 9.30737H79.8558V10.2211H77.1192V11.6157H79.7123V12.5294H77.1192V14.0683H79.9996V14.982H76.1138V9.30737Z" fill="white"/>
<path fill-rule="evenodd" clip-rule="evenodd" d="M8.10659 20.2791C12.5816 20.2791 16.2093 16.6349 16.2093 12.1395C16.2093 7.6442 12.5816 4 8.10659 4C3.6316 4 0.00390625 7.6442 0.00390625 12.1395C0.00390625 16.6349 3.6316 20.2791 8.10659 20.2791ZM5.65832 15.8271H3.75751C3.30684 15.8271 3.08149 15.8271 2.94654 15.7394C2.80069 15.6447 2.70867 15.4857 2.69893 15.3116C2.68988 15.1505 2.80149 14.9541 3.02471 14.5613L3.02481 14.5611L7.18654 7.23707C7.41304 6.83842 7.5263 6.6391 7.67042 6.5649C7.82609 6.48474 8.01071 6.4846 8.1665 6.56454C8.31072 6.63852 8.42426 6.83769 8.65134 7.23599L9.61119 8.91945L9.61121 8.9195C9.77635 9.2091 9.8589 9.35393 9.89522 9.5067C9.93474 9.67304 9.93482 9.84632 9.89544 10.0127C9.85928 10.1655 9.77682 10.3104 9.61191 10.6002L7.12325 14.9736C6.95596 15.2677 6.8723 15.4147 6.75769 15.5245C6.63293 15.6442 6.48164 15.7323 6.31628 15.7817C6.16435 15.8271 5.99568 15.8271 5.65832 15.8271ZM12.4399 15.8271H10.2361C9.78133 15.8271 9.55393 15.8271 9.41855 15.7387C9.27228 15.6431 9.18053 15.4829 9.17189 15.308C9.16387 15.1461 9.27831 14.9489 9.50719 14.5544L10.6073 12.6585C10.8333 12.2691 10.9463 12.0744 11.0893 12.0014C11.2439 11.9226 11.4267 11.9225 11.5815 12.001C11.7247 12.0738 11.8379 12.2683 12.0644 12.6574L12.0645 12.6575L13.1682 14.5534C13.3979 14.9481 13.5128 15.1454 13.505 15.3074C13.4965 15.4825 13.4048 15.6429 13.2584 15.7386C13.123 15.8271 12.8953 15.8271 12.4399 15.8271Z" fill="#E04140"/>
</svg>
