<svg width="80" height="24" viewBox="0 0 80 24" fill="none" xmlns="http://www.w3.org/2000/svg">
<g clip-path="url(#clip0_883_25594)">
<path fill-rule="evenodd" clip-rule="evenodd" d="M73.3186 15.4885L73.3187 15.4884C73.4351 14.9999 73.551 14.5135 73.6681 14.0271C73.8018 13.4709 73.9359 12.9147 74.07 12.3586L74.0704 12.3568L74.0709 12.355L74.0713 12.3531L74.0719 12.3507L74.0725 12.3483L74.0732 12.3453L74.0738 12.3429L74.0793 12.32L74.0798 12.3181C74.4864 10.6318 74.893 8.94562 75.2912 7.25712C75.3485 7.01471 75.4433 6.90679 75.6959 6.87691C76.1603 6.82191 76.6246 6.74893 77.1147 6.6719L77.1148 6.67189C77.2387 6.65241 77.3643 6.63268 77.4919 6.61292L77.267 7.5398L77.2654 7.54624L77.2558 7.58581C77.0618 8.38547 76.8692 9.17915 76.6733 9.98337C76.7475 9.97355 76.8209 9.96333 76.8937 9.9532C77.2763 9.89993 77.6415 9.84911 78.0172 9.87212C79.3403 9.95514 79.9553 10.8683 79.9977 12.0106C80.0212 12.6596 79.8675 13.2757 79.7139 13.8917C79.6724 14.0581 79.6309 14.2245 79.5929 14.3915C79.4929 14.8316 79.3859 15.2693 79.2789 15.7069L79.2787 15.7077C79.184 16.0952 79.0893 16.4826 78.9995 16.8712C78.9604 17.0372 78.8981 17.1036 78.7136 17.0978C78.1917 17.0829 77.6689 17.0804 77.147 17.0978C76.9251 17.1053 76.9143 17.0298 76.9583 16.8488C77.255 15.626 77.5501 14.4023 77.8351 13.177L77.8528 13.1008C77.9244 12.7941 77.9962 12.4866 77.9332 12.1692C77.8501 11.7333 77.6241 11.5391 77.1778 11.52C76.9553 11.5179 76.733 11.5329 76.5129 11.5648C76.3417 11.5839 76.2636 11.6578 76.2278 11.823C75.9801 12.8792 75.7275 13.9344 75.4748 14.9897L75.4745 14.9907L75.4743 14.9918L75.2945 15.743C75.2468 15.9412 75.1986 16.1392 75.1504 16.3373C75.1022 16.5356 75.0539 16.734 75.0061 16.9326L75.0015 16.9526C74.9843 17.0276 74.9694 17.0927 74.8549 17.0912C74.4609 17.0902 74.0672 17.0907 73.6684 17.0913H73.6682C73.4261 17.0917 73.1821 17.092 72.935 17.092C73.0649 16.5532 73.1921 16.0196 73.3186 15.4885ZM17.2351 6.63285C16.9608 7.77183 16.689 8.89918 16.409 10.0597C16.4631 10.0437 16.5163 10.0273 16.5689 10.0112C16.8551 9.92349 17.1212 9.84192 17.4063 9.8356C18.8366 9.80323 19.7691 10.5778 19.996 12.0546C20.3425 14.3093 19.0078 16.5059 16.8046 17.1103C15.4998 17.4681 14.214 17.2821 12.9541 16.8372C12.7692 16.7716 12.7964 16.6601 12.8287 16.5275L12.8311 16.5176L14.234 10.6699L14.3934 10.0072L14.3934 10.0071L14.3934 10.0071C14.6224 9.05516 14.8515 8.10328 15.0734 7.14921C15.11 6.99314 15.1681 6.92506 15.3319 6.90016C15.7306 6.84507 16.1279 6.78194 16.5253 6.71878C16.7269 6.68675 16.9285 6.65472 17.1304 6.62372C17.1655 6.62324 17.2006 6.6263 17.2351 6.63285ZM18.0205 12.8997C18.0308 12.6263 17.992 12.3533 17.9058 12.0936C17.8657 11.9487 17.7834 11.8189 17.6693 11.7207C17.5552 11.6226 17.4145 11.5605 17.265 11.5424C16.8817 11.4819 16.4892 11.5517 16.1505 11.7408C16.0946 11.7709 16.0463 11.8131 16.009 11.8645C15.9717 11.9158 15.9465 11.9748 15.9352 12.0372C15.6732 13.1441 15.4045 14.2493 15.1291 15.3528C15.0875 15.5189 15.1241 15.5795 15.2853 15.5961C15.8555 15.6559 16.3982 15.5894 16.8686 15.235C17.6465 14.6497 17.9889 13.8486 18.0205 12.8997ZM66.4607 10.2507C65.6687 9.94352 64.8426 9.84224 63.7962 9.82149C63.0449 9.7916 62.1748 10.0531 61.3952 10.5952C59.9042 11.6321 59.1895 13.5589 59.6109 15.3744C59.8394 16.359 60.4112 17.0173 61.4251 17.2282C61.798 17.3101 62.1838 17.3136 62.5581 17.2386C62.9324 17.1636 63.287 17.0116 63.5993 16.7923C63.8885 16.5972 63.891 16.6006 64.0389 16.9252C64.043 16.9327 64.0461 16.9408 64.0481 16.9492C64.1038 17.1999 64.2642 17.2199 64.4885 17.1792C64.9082 17.1028 65.3321 17.0422 65.7568 16.9974C65.9621 16.9766 65.982 16.9135 65.923 16.7276C65.619 15.8102 65.5841 14.825 65.8224 13.8884C65.9683 13.3143 66.1047 12.7386 66.2411 12.1634L66.2411 12.1631L66.2414 12.1621L66.2414 12.1619L66.2414 12.1618L66.2415 12.1617L66.2415 12.1615L66.2416 12.1614L66.2416 12.1613L66.2416 12.1611L66.2417 12.1609L66.2417 12.1607L66.2418 12.1605C66.3678 11.6287 66.4937 11.0973 66.6269 10.5678C66.6735 10.3785 66.6269 10.3129 66.4607 10.2507ZM61.5997 14.8821C61.5392 14.6514 61.5112 14.4133 61.5166 14.1748C61.549 13.2667 61.859 12.4888 62.5845 11.9002C63.074 11.5034 63.6358 11.4528 64.2317 11.525C64.3684 11.542 64.3484 11.6097 64.3257 11.6861C64.3219 11.6989 64.3181 11.712 64.3148 11.725C64.26 11.9506 64.2039 12.1761 64.1477 12.4015L64.1475 12.4022C64.0334 12.8602 63.9192 13.3184 63.8162 13.7789C63.7344 14.1402 63.6855 14.5096 63.6368 14.8776L63.6358 14.8846C63.6285 14.9941 63.5791 15.0964 63.4979 15.1702C63.2353 15.4035 62.9444 15.562 62.5837 15.5795C62.051 15.6044 61.7459 15.3935 61.5997 14.8821ZM41.8978 12.7461C41.8488 14.3359 41.3459 15.7165 39.9788 16.6637C39.0596 17.3004 38.0307 17.4307 36.9644 17.1618C35.938 16.9061 35.377 16.1896 35.156 15.1843C34.7753 13.4593 35.5665 11.4254 37.0076 10.4292C37.9293 9.79161 38.9466 9.64301 40.0187 9.90617C41.1033 10.1718 41.8097 11.09 41.897 12.2837C41.9043 12.3888 41.9021 12.4934 41.8999 12.5975L41.8999 12.5976C41.8988 12.6473 41.8978 12.6968 41.8978 12.7461ZM39.9032 12.9122C39.9049 12.7241 39.8874 12.5363 39.8508 12.3518C39.727 11.6827 39.2948 11.3897 38.6291 11.53C38.3942 11.5846 38.1775 11.699 38 11.862C37.2403 12.5262 36.8597 14.0877 37.2279 15.0274C37.2794 15.1778 37.3753 15.3091 37.5028 15.4042C37.6303 15.4993 37.7836 15.5538 37.9426 15.5604C38.1432 15.5835 38.3464 15.5601 38.5365 15.4922C38.7266 15.4242 38.8985 15.3135 39.0388 15.1686C39.6638 14.5468 39.8591 13.7598 39.8998 12.9155L39.9032 12.9122ZM45.6955 16.7154L45.6045 17.0929C45.7995 17.0929 45.9929 17.0921 46.1851 17.0914C46.6089 17.0898 47.0274 17.0882 47.447 17.0945C47.6132 17.0978 47.6639 17.0339 47.6963 16.892C47.7806 16.5164 47.8705 16.1419 47.9604 15.7672L48.018 15.5272C48.3147 14.2952 48.6081 13.0641 48.8965 11.8313C48.9388 11.6487 49.012 11.5681 49.2164 11.5549C49.2754 11.551 49.3343 11.5462 49.3933 11.5413L49.3933 11.5413C49.5386 11.5293 49.6837 11.5173 49.8298 11.5208C50.3442 11.5341 50.6135 11.8072 50.6293 12.3194C50.6316 12.524 50.6073 12.728 50.557 12.9263C50.255 14.2352 49.9481 15.5424 49.6361 16.848C49.5946 17.0223 49.5846 17.1045 49.8148 17.097C50.345 17.0804 50.8761 17.0846 51.4072 17.097C51.5817 17.1012 51.6332 17.0364 51.6706 16.877C51.8185 16.2461 51.9715 15.6164 52.1246 14.9866L52.1246 14.9864L52.1247 14.986L52.1248 14.9855L52.1249 14.9851L52.1251 14.9846L52.1252 14.9842L52.1253 14.9837L52.1253 14.9836C52.2249 14.5736 52.3246 14.1636 52.4228 13.7531C52.4364 13.6959 52.4503 13.6388 52.4641 13.5816L52.4642 13.5816C52.5945 13.0436 52.7251 12.5046 52.6921 11.9425C52.6422 11.1041 52.3297 10.425 51.5127 10.0631C51.197 9.92735 50.8589 9.85081 50.5154 9.83726C49.4793 9.7765 48.4411 9.91314 47.4562 10.2399C47.3879 10.2553 47.3259 10.291 47.2783 10.3423C47.2307 10.3935 47.1997 10.458 47.1894 10.5271C47.0341 11.1896 46.873 11.851 46.7118 12.5122L46.7117 12.5128C46.6375 12.8175 46.5632 13.1221 46.4896 13.4269C46.2263 14.513 45.9644 15.5998 45.6984 16.7033L45.6955 16.7154ZM69.0273 17.2888C68.2004 17.263 67.3959 17.1427 66.6462 16.7633C66.4966 16.6877 66.4468 16.6321 66.5299 16.4653C66.7086 16.1083 66.8723 15.743 67.0219 15.3728C67.105 15.1694 67.1765 15.1063 67.4 15.2283C68.0457 15.5928 68.7956 15.7291 69.5285 15.6152C69.6473 15.6003 69.7633 15.5679 69.8725 15.5189C70.3346 15.2989 70.3845 14.8273 69.9731 14.5268C69.7696 14.378 69.5403 14.2758 69.3112 14.1738L69.3111 14.1737L69.311 14.1737C69.2361 14.1403 69.1611 14.1069 69.0872 14.0719C68.6924 13.8843 68.3134 13.6784 68.0192 13.3397C67.3543 12.576 67.4507 10.8658 68.7813 10.1984C69.5251 9.82564 70.3205 9.76587 71.1308 9.80156C71.7122 9.83491 72.2829 9.97154 72.8163 10.205C72.9734 10.2714 73.0224 10.3354 72.9368 10.5047C72.7523 10.8683 72.5827 11.2394 72.4223 11.6146C72.3542 11.7749 72.2902 11.8072 72.1215 11.7317C71.5688 11.4826 70.9912 11.3515 70.3762 11.4162C70.2224 11.4266 70.0724 11.4687 69.9357 11.5399C69.565 11.7475 69.5401 12.2165 69.9049 12.4307C70.1543 12.5801 70.4138 12.714 70.6735 12.848L70.6735 12.848C70.8465 12.9373 71.0196 13.0266 71.1898 13.1205C71.6985 13.402 72.104 13.7656 72.2436 14.3658C72.4747 15.396 72.0492 16.3324 71.1084 16.8347C70.4585 17.185 69.7495 17.2755 69.0273 17.2888ZM29.3995 10.4977L29.3998 10.4965L29.4013 10.4905L29.4025 10.4856C29.4428 10.3222 29.4835 10.1572 29.5244 9.99002C29.3593 9.99002 29.1957 9.98944 29.0331 9.98886H29.0331C28.5229 9.98705 28.0235 9.98527 27.5256 10.0016C27.2962 10.0066 27.2804 9.93855 27.3336 9.7418C27.4164 9.43602 27.4907 9.12923 27.565 8.82283C27.625 8.57521 27.6849 8.32785 27.7492 8.08148C27.7916 7.92043 27.755 7.89303 27.5963 7.92043L27.4431 7.94639L27.4431 7.9464C26.9297 8.03351 26.4155 8.12077 25.8992 8.18193C25.6972 8.206 25.6515 8.29566 25.6141 8.46169C25.5173 8.87366 25.4177 9.28517 25.3181 9.69674L25.3181 9.69681C25.1458 10.409 24.9734 11.1213 24.8154 11.8363C24.7471 12.1431 24.6687 12.4482 24.5902 12.7533C24.3892 13.5354 24.188 14.3178 24.1564 15.1312C24.1173 16.1191 24.4838 16.8612 25.4637 17.1236C26.4577 17.3901 27.4483 17.2664 28.4157 16.9385C28.4364 16.935 28.4562 16.9274 28.4738 16.916C28.4914 16.9047 28.5065 16.8898 28.5181 16.8724C28.5297 16.8549 28.5376 16.8353 28.5413 16.8147C28.545 16.794 28.5444 16.7729 28.5396 16.7525C28.4955 16.3374 28.4531 15.9223 28.4182 15.5073C28.4066 15.3628 28.3559 15.3445 28.2221 15.3894C27.8575 15.5153 27.4733 15.5752 27.0876 15.5662C26.3654 15.543 26.0662 15.1968 26.2142 14.4928C26.3179 14.0001 26.4351 13.51 26.5524 13.0197C26.6428 12.6419 26.7332 12.2639 26.8175 11.8844C26.8599 11.6927 26.9297 11.6229 27.1358 11.6279C27.5697 11.6388 28.0044 11.6369 28.439 11.6351C28.6039 11.6344 28.7687 11.6337 28.9335 11.6337L28.9562 11.6339C29.042 11.6348 29.123 11.6357 29.1512 11.5159C29.2317 11.1782 29.3148 10.8413 29.3995 10.4978L29.3995 10.4977ZM53.6054 14.1989C53.6644 12.4938 54.2877 11.0908 55.8635 10.2681C57.091 9.62723 58.3767 9.64467 59.6641 10.1286C59.8253 10.1893 59.8477 10.2557 59.7763 10.4068C59.5868 10.8063 59.4073 11.2103 59.2377 11.6188C59.1787 11.7624 59.1189 11.7906 58.9751 11.7292C58.4699 11.5072 57.9077 11.4491 57.3677 11.5632C56.4776 11.7508 55.9989 12.351 55.797 13.1928C55.6601 13.6967 55.6621 14.2282 55.8028 14.7311C55.969 15.2731 56.3014 15.523 56.8724 15.5612C57.3604 15.5941 57.8497 15.5236 58.3085 15.3545C58.4523 15.3022 58.5221 15.3005 58.5338 15.4823C58.5537 15.7744 58.5814 16.0665 58.6091 16.3586C58.6207 16.4816 58.6324 16.6046 58.6435 16.7276L58.6446 16.7394C58.6536 16.8283 58.6614 16.9064 58.5396 16.9509C57.4525 17.3436 56.348 17.4606 55.2576 17.0231C54.0941 16.5557 53.6461 15.5969 53.6054 14.4056C53.6043 14.3586 53.6046 14.3127 53.605 14.2672V14.2671V14.267V14.267V14.2669V14.2668V14.2665L53.6052 14.2443L53.6054 14.1989ZM34.1885 15.7491L34.1437 15.2898C33.6093 15.4824 33.089 15.5953 32.5364 15.5612C31.9106 15.5214 31.5499 15.2466 31.4119 14.6364C31.2433 13.9516 31.3262 13.2291 31.6454 12.6C32.0053 11.8919 32.6054 11.5449 33.4007 11.5134C33.8032 11.49 34.2056 11.5608 34.5759 11.7201C34.7546 11.7998 34.8219 11.7475 34.89 11.5814C35.0529 11.1796 35.2308 10.7837 35.4153 10.3918C35.4784 10.2507 35.4585 10.1926 35.3122 10.1336C34.8621 9.94822 34.3851 9.83611 33.8994 9.80158C32.4774 9.71856 31.2374 10.1129 30.2957 11.2128C29.4081 12.2505 29.1256 13.4842 29.2752 14.8124C29.394 15.8642 29.9242 16.6579 30.9465 17.0389C32.0286 17.4415 33.1115 17.3344 34.1786 16.9434C34.1971 16.9401 34.2148 16.933 34.2305 16.9227C34.2462 16.9124 34.2597 16.899 34.2701 16.8833C34.2805 16.8676 34.2876 16.85 34.291 16.8316C34.2944 16.8131 34.2941 16.7941 34.29 16.7757C34.2553 16.4351 34.2222 16.0953 34.1885 15.7491ZM42.5021 15.4209L42.5022 15.4203L42.5026 15.4189C42.7028 14.5753 42.9015 13.7379 43.1021 12.9006C43.1593 12.6612 43.2169 12.4218 43.2745 12.1825L43.2749 12.1812C43.4339 11.5204 43.5931 10.8594 43.7437 10.1967C43.7819 10.0307 43.8492 9.98254 44.0155 9.98586C44.554 9.99582 45.0959 9.99748 45.6328 9.98586C45.8148 9.98586 45.8264 10.0465 45.7907 10.1934C45.2466 12.4398 44.7044 14.6868 44.1642 16.9343C44.1385 17.0422 44.1094 17.1003 43.9864 17.0953C43.5386 17.0911 43.0894 17.0917 42.6257 17.0924H42.6256H42.6255H42.6254H42.6252H42.625C42.4538 17.0926 42.2806 17.0929 42.1048 17.0929C42.2385 16.5317 42.3706 15.9749 42.5021 15.4209ZM23.5674 11.6452L23.9644 9.99001L23.401 9.99029C22.9384 9.99062 22.4824 9.99096 22.0263 9.98918C21.927 9.98847 21.9155 10.0461 21.9032 10.1081C21.9012 10.1182 21.8991 10.1285 21.8967 10.1386C21.8487 10.3386 21.8002 10.5384 21.7517 10.7382C21.6919 10.9845 21.6321 11.2307 21.5734 11.4768C21.1473 13.2716 20.7174 15.0653 20.2835 16.8579C20.237 17.0489 20.2686 17.1045 20.4763 17.0987C20.99 17.0821 21.5044 17.0812 22.0172 17.0987C22.215 17.1061 22.2781 17.0306 22.318 16.8571C22.4979 16.092 22.682 15.3282 22.8662 14.5645C22.939 14.2625 23.0118 13.9605 23.0843 13.6585C23.2452 12.9888 23.4058 12.3191 23.5674 11.6452ZM23.2305 9.12914C22.387 9.12914 21.9149 8.47248 22.1933 7.67885C22.2989 7.38862 22.4969 7.14101 22.7569 6.97396C23.0169 6.80692 23.3246 6.72966 23.6328 6.75405C24.4639 6.83707 24.8512 7.49538 24.5329 8.26162C24.4263 8.51886 24.2456 8.73866 24.0137 8.89312C23.7818 9.04758 23.5092 9.12973 23.2305 9.12914ZM44.1436 7.51748C44.0502 7.70442 44.0002 7.90994 43.9971 8.11883C43.9971 8.61194 44.2174 8.91495 44.6886 9.06853C45.5571 9.35244 46.4937 8.68334 46.5004 7.77514C46.5037 7.26293 46.2245 6.91012 45.7175 6.78476C45.5141 6.73594 45.3024 6.73342 45.0979 6.7774C44.8935 6.82139 44.7016 6.91074 44.5364 7.03884C44.3712 7.16695 44.2369 7.33053 44.1436 7.51748Z" fill="white"/>
<path d="M7.2769 13.3978C6.98377 13.5559 6.67377 13.6807 6.35275 13.7697C6.24353 13.8049 6.18013 13.8031 6.14359 13.6785C6.06979 13.4388 5.99255 13.2005 5.91529 12.962C5.86423 12.8044 5.81315 12.6468 5.76306 12.4888C5.73934 12.4162 5.71905 12.3512 5.83289 12.3124L5.88493 12.2945C6.27966 12.1584 6.67342 12.0226 7.09862 12.0234C7.48334 12.0249 7.73978 12.178 7.83249 12.4629C7.93537 12.787 7.81731 13.0593 7.48009 13.2844C7.44291 13.3064 7.40562 13.3267 7.36852 13.3469C7.33782 13.3636 7.30719 13.3803 7.2769 13.3978Z" fill="url(#paint0_linear_883_25594)"/>
<path d="M6.29318 11.3628C6.31341 11.351 6.33339 11.3394 6.35307 11.328C6.4287 11.2884 6.50214 11.2448 6.57309 11.1973C6.82474 11.0167 6.92813 10.7606 6.85673 10.5142C6.77069 10.2225 6.5562 10.0673 6.2268 10.0569C6.01335 10.0563 5.80106 10.0882 5.59726 10.1515L5.59247 10.1529C5.0662 10.2987 5.06585 10.2988 5.22391 10.804C5.23223 10.8456 5.24453 10.8863 5.26063 10.9256C5.30387 11.0082 5.32389 11.1121 5.3435 11.2139C5.37864 11.3964 5.41249 11.5722 5.57632 11.6063C5.79623 11.6523 6.06111 11.498 6.29318 11.3628Z" fill="url(#paint1_linear_883_25594)"/>
<path fill-rule="evenodd" clip-rule="evenodd" d="M8.27503 17.479C8.09585 17.4928 7.93099 17.5548 7.7659 17.617C7.67113 17.6526 7.57628 17.6883 7.47861 17.7149C6.14738 18.076 4.73174 17.9619 3.47572 17.3922C2.2197 16.8225 1.20201 15.833 0.598088 14.5941C-0.00583791 13.3553 -0.158159 11.9449 0.167383 10.6059C0.492925 9.26691 1.27593 8.08334 2.38142 7.2592C5.01495 5.26882 8.83372 5.83876 10.7503 8.50549C12.6291 11.1183 12.139 14.6007 9.60402 16.6502C9.59518 16.6575 9.58465 16.6636 9.57404 16.6697C9.54161 16.6885 9.50848 16.7077 9.52091 16.7605L8.27503 17.479ZM7.88008 11.0676C8.16608 10.5911 8.2127 10.3878 8.11925 10.0286C7.92847 9.29505 7.42794 8.98363 6.58038 9.05639C6.51625 9.06135 6.44741 9.08059 6.37922 9.09964C6.24325 9.13762 6.10982 9.1749 6.02132 9.09698C5.92908 9.01576 5.90075 8.8755 5.87236 8.73491C5.85985 8.67298 5.84733 8.61098 5.82933 8.55395C5.74624 8.29012 5.70486 8.1587 5.61923 8.11579C5.53456 8.07337 5.40657 8.11721 5.15203 8.20441L5.14021 8.20846C5.0063 8.25405 4.96315 8.31057 5.01685 8.44831C5.07426 8.59602 5.12209 8.74674 5.17006 8.89792C5.18134 8.93348 5.19264 8.96907 5.20406 9.00464C5.31771 9.3659 5.31702 9.3661 4.95323 9.47493L4.94392 9.47771C4.83418 9.51033 4.77631 9.50152 4.74193 9.37564C4.67266 9.1213 4.58835 8.87085 4.49942 8.62401C4.49528 8.61179 4.49163 8.5984 4.4879 8.58473C4.46714 8.5087 4.44402 8.424 4.32231 8.48363C4.25995 8.51434 4.18986 8.52876 4.1199 8.54315C3.98537 8.57082 3.85133 8.59839 3.77371 8.74153C3.7644 8.75828 3.77887 8.788 3.79313 8.81729C3.8005 8.83242 3.80781 8.84744 3.81176 8.8605C3.83593 8.93581 3.85948 9.01148 3.88303 9.08716C3.93535 9.25531 3.98767 9.42346 4.04684 9.58766C4.09914 9.73292 4.05995 9.79961 3.91283 9.84228C3.75801 9.88739 3.60453 9.93763 3.45102 9.98788C3.27144 10.0467 3.09182 10.1055 2.90997 10.1561C2.7613 10.1977 2.7531 10.2532 2.79442 10.3895L2.79957 10.4064C2.95673 10.9228 2.95696 10.9235 3.4773 10.7923C3.50128 10.7832 3.52584 10.7758 3.55081 10.77C3.75431 10.7485 3.90373 10.8061 3.9698 11.0134C4.27964 11.9767 4.59044 12.9395 4.9022 13.9017C4.96262 14.0892 4.91603 14.2062 4.72961 14.2888C4.67973 14.3101 4.62099 14.3218 4.56263 14.3335C4.4409 14.3578 4.32084 14.3817 4.28642 14.4917C4.2511 14.6044 4.27876 14.7279 4.30654 14.852C4.31882 14.9068 4.33113 14.9618 4.33803 15.016C4.34492 15.0494 4.34944 15.0833 4.35158 15.1174C4.34939 15.2979 4.43547 15.2991 4.57833 15.2474C4.80447 15.166 5.03387 15.0939 5.26503 15.0212L5.38534 14.9833C5.74569 14.8711 5.74574 14.8713 5.86487 15.2407L5.86564 15.2431C5.88021 15.2874 5.89524 15.3316 5.91026 15.3759C5.92529 15.4201 5.9404 15.4646 5.95496 15.5089C6.03645 15.7583 6.07733 15.8834 6.15981 15.924C6.24269 15.9648 6.36762 15.9203 6.61809 15.8312L6.63015 15.8269C6.76179 15.7807 6.80505 15.7261 6.75464 15.5874C6.66354 15.3313 6.57827 15.0731 6.49883 14.8128C6.44321 14.6248 6.5527 14.6082 6.66042 14.5919C6.70471 14.5852 6.74869 14.5786 6.78078 14.5601C6.8909 14.4965 6.9785 14.4671 7.02238 14.646C7.05604 14.7863 7.10304 14.9251 7.15017 15.0642C7.18791 15.1757 7.22574 15.2874 7.25686 15.4003C7.30326 15.5653 7.38334 15.5843 7.53426 15.5366L7.54568 15.5329C8.01973 15.3803 8.02058 15.38 7.8686 14.898C7.8495 14.837 7.82245 14.7735 7.79537 14.71C7.73233 14.562 7.66914 14.4137 7.70583 14.2959C7.74586 14.1672 7.90344 14.1172 8.06047 14.0674C8.12987 14.0454 8.19917 14.0234 8.25816 13.9947C9.18821 13.535 9.48634 12.8205 9.14498 11.8613C8.97931 11.397 8.64913 11.1446 8.16015 11.0872C8.0698 11.077 7.97741 11.0699 7.88008 11.0676Z" fill="url(#paint2_linear_883_25594)"/>
</g>
<defs>
<linearGradient id="paint0_linear_883_25594" x1="-4.57724" y1="10.4806" x2="4.23611" y2="22.3588" gradientUnits="userSpaceOnUse">
<stop stop-color="#8CD22F"/>
<stop offset="1" stop-color="#669919"/>
</linearGradient>
<linearGradient id="paint1_linear_883_25594" x1="-4.57724" y1="10.4806" x2="4.23611" y2="22.3588" gradientUnits="userSpaceOnUse">
<stop stop-color="#8CD22F"/>
<stop offset="1" stop-color="#669919"/>
</linearGradient>
<linearGradient id="paint2_linear_883_25594" x1="-4.57724" y1="10.4806" x2="4.23611" y2="22.3588" gradientUnits="userSpaceOnUse">
<stop stop-color="#8CD22F"/>
<stop offset="1" stop-color="#669919"/>
</linearGradient>
<clipPath id="clip0_883_25594">
<rect width="80" height="24" fill="white"/>
</clipPath>
</defs>
</svg>
