<svg width="80" height="24" viewBox="0 0 80 24" fill="none" xmlns="http://www.w3.org/2000/svg">
<g clip-path="url(#clip0_1559_63834)">
<path fill-rule="evenodd" clip-rule="evenodd" d="M17.5555 11.9979C17.5555 16.8458 13.6255 20.7757 8.77773 20.7757C3.92992 20.7757 0 16.8458 0 11.9979C0 7.15014 3.92992 3.22021 8.77773 3.22021C13.6255 3.22021 17.5555 7.15014 17.5555 11.9979ZM8.77781 6.13206L5.6646 7.92903L6.80917 8.59288L8.77781 7.45976L10.7465 8.59288L11.891 7.92903L8.77781 6.13206ZM10.7465 9.53142L11.891 10.1953L11.891 11.523L9.92239 12.6561V14.9223L8.77781 15.5862L7.63325 14.9223V12.6561L5.6646 11.523V10.1953L6.80917 9.53142L8.77781 10.6645L10.7465 9.53142ZM11.891 12.4615V13.7892L10.7465 14.453V13.1253L11.891 12.4615ZM10.735 15.3916L12.7037 14.2585L12.7037 11.9922L13.8482 11.3284V14.9223L10.735 16.7193V15.3916ZM12.7037 9.72599L11.5591 9.06215L12.7037 8.3983L13.8482 9.06215V10.3898L12.7037 11.0537V9.72599ZM7.63325 17.2V15.8723L8.77781 16.5361L9.92239 15.8723V17.2L8.77781 17.8638L7.63325 17.2ZM6.80917 14.453L5.6646 13.7892V12.4615L6.80917 13.1253V14.453ZM8.77781 9.72599L7.63325 9.06215L8.77781 8.3983L9.92239 9.06215L8.77781 9.72599ZM5.99652 9.06215L4.85195 9.72599L4.85195 11.0537L3.70739 10.3898V9.06215L4.85195 8.3983L5.99652 9.06215ZM3.70739 11.3284L4.85195 11.9922V14.2585L6.8206 15.3916V16.7193L3.70739 14.9223V11.3284Z" fill="#F0B90B"/>
<path d="M29.8023 13.9388V13.9091C29.8023 12.7759 29.2044 12.2016 28.2335 11.8239C28.8308 11.4919 29.3389 10.9472 29.3389 9.99582V9.96616C29.3389 8.63637 28.2782 7.77519 26.5749 7.77519H22.6758V16.251H26.6648C28.5618 16.2658 29.8023 15.48 29.8023 13.9394V13.9388ZM27.5011 10.3136C27.5011 10.9479 26.9931 11.2044 26.1715 11.2044H24.4689V9.40666H26.2913C27.0683 9.40666 27.5011 9.7238 27.5011 10.2833V10.3136ZM27.9645 13.6977C27.9645 14.332 27.4718 14.6195 26.6642 14.6195H24.4689V12.7605H26.6049C27.5464 12.7605 27.9645 13.1086 27.9645 13.6822V13.6977ZM33.6715 16.2658V7.77519H31.8191V16.251H33.6715V16.2658ZM43.5918 16.2658V7.77519H41.7688V13.0028L37.8396 7.77519H36.1364V16.251H37.9595V10.8725L42.0231 16.2658H43.5912H43.5918ZM53.8098 16.2658L50.2103 7.73007H48.5077L44.9068 16.2658H46.8045L47.5662 14.3623H51.1071L51.8689 16.2658H53.8111H53.8098ZM50.4487 12.7154H48.2227L49.3434 9.96616L50.4487 12.7154ZM62.6102 16.2658V7.77519H60.7872V13.0028L56.858 7.77519H55.1548V16.251H56.9779V10.8725L61.0415 16.2658H62.6096H62.6102ZM72.1264 14.8909L70.9465 13.6977C70.2887 14.3017 69.7061 14.6943 68.7353 14.6943C67.3011 14.6943 66.3003 13.4856 66.3003 12.0353V11.9902C66.3003 10.5399 67.3157 9.34671 68.7353 9.34671C69.5716 9.34671 70.2294 9.70897 70.8866 10.2981L72.0665 8.92321C71.2901 8.15292 70.3486 7.60889 68.7652 7.60889C66.1958 7.60889 64.388 9.58779 64.388 11.9902V12.0205C64.388 14.4525 66.2251 16.3863 68.6907 16.3863C70.304 16.4018 71.2602 15.8275 72.1264 14.8909ZM80 16.2658V14.604H75.443V12.8211H79.4021V11.1593H75.443V9.43695H79.9401V7.77519H73.6206V16.251H80V16.2658Z" fill="white"/>
</g>
<defs>
<clipPath id="clip0_1559_63834">
<rect width="80" height="24" fill="white"/>
</clipPath>
</defs>
</svg>
