<svg width="80" height="24" viewBox="0 0 80 24" fill="none" xmlns="http://www.w3.org/2000/svg">
<path fill-rule="evenodd" clip-rule="evenodd" d="M31.8 12C31.8 18.6274 26.4275 24 19.8 24C13.1726 24 7.80005 18.6274 7.80005 12C7.80005 5.37258 13.1726 0 19.8 0C26.4275 0 31.8 5.37258 31.8 12ZM10.5131 10.5391L12.2622 8.81739L14.0112 7.09565H16.8733H19.7355L21.1983 8.53565L22.6771 9.9913L24.0763 8.61391C24.8396 7.86261 25.5392 7.25217 25.6187 7.25217C25.8254 7.25217 28.8783 10.2574 28.8783 10.4609C28.8783 10.5391 28.1469 11.3374 27.2564 12.2139L25.6187 13.8261H23.1541H20.6895L21.9297 15.047L23.1541 16.2522L21.4368 17.9426L19.7355 19.6174L18.0977 18.0052C17.2073 17.1287 16.4758 16.3304 16.4758 16.2522C16.4758 16.1739 17.0959 15.4852 17.8592 14.7339L19.2584 13.3565L18.0182 12.1513L16.7938 10.9304L15.3151 12.3861L13.8522 13.8261L12.1827 12.1826L10.5131 10.5391ZM24.9827 13.2L22.2796 10.5391L19.5764 7.87826H17.1118H14.6473L17.3504 10.5391L20.0535 13.2H22.5181H24.9827ZM16.3963 10.5391L15.2038 9.36522C14.5518 8.72348 13.9794 8.1913 13.9317 8.1913C13.884 8.1913 13.3116 8.72348 12.6597 9.36522L11.4671 10.5391L12.7074 11.76L13.9317 12.9652L15.1561 11.76L16.3963 10.5391ZM27.9879 10.5391L26.8112 9.36522C26.1593 8.72348 25.5869 8.1913 25.5392 8.1913C25.4915 8.1913 24.935 8.70783 24.2989 9.33391L23.1541 10.4609L24.3943 11.6817L25.6187 12.887L26.8112 11.713L27.9879 10.5391ZM19.7355 18.6783L20.9757 17.4574L22.2 16.2522L20.9598 15.0313L19.7355 13.8261L18.4952 15.047L17.2709 16.2522L18.5111 17.473L19.7355 18.6783Z" fill="url(#paint0_linear_1559_63840)"/>
<path d="M46.2223 6.36948C46.8256 6.57089 47.3617 6.935 47.7712 7.42168C48.1361 7.87748 48.3298 8.44663 48.3189 9.03036C48.3297 9.62595 48.1331 10.2068 47.7627 10.6733C47.3771 11.1508 46.8447 11.4877 46.2481 11.6318C46.9571 11.7481 47.5992 12.1193 48.0537 12.6758C48.4986 13.2402 48.7318 13.9426 48.7127 14.661C48.724 15.2977 48.525 15.9203 48.1465 16.4323C47.7335 16.967 47.1749 17.3712 46.5378 17.5962C45.7537 17.8794 44.9241 18.0158 44.0905 17.9985H38.1692V6.00143H43.8681C44.6684 5.98504 45.4652 6.10964 46.2223 6.36948ZM44.7247 10.4588C44.8506 10.3505 44.9501 10.2148 45.0155 10.0622C45.0809 9.9095 45.1106 9.74388 45.1022 9.57801C45.1106 9.41703 45.0808 9.25636 45.0152 9.10912C44.9496 8.96188 44.85 8.83226 44.7247 8.73089C44.4269 8.51752 44.063 8.41717 43.698 8.4478H41.3029V10.7755H43.6989C44.0676 10.7962 44.4315 10.6833 44.7247 10.4588ZM44.9983 15.225C45.1526 15.1187 45.2774 14.975 45.3612 14.8074C45.4451 14.6399 45.4851 14.4538 45.4777 14.2666C45.4814 14.0883 45.4392 13.9121 45.3553 13.7548C45.2714 13.5975 45.1484 13.4644 44.9983 13.3682C44.6093 13.1275 44.1538 13.0166 43.6976 13.0514H41.3029V15.5679H43.6989C44.1572 15.5925 44.6114 15.472 44.9983 15.225Z" fill="white"/>
<path d="M57.2864 17.9985L55.5409 14.6783H53.2132V17.9985H50.0814V6.00142H55.4723C57.0581 6.00142 58.2875 6.36936 59.1603 7.10523C60.0331 7.8411 60.4695 8.87653 60.4695 10.2115C60.4907 11.0243 60.3021 11.8288 59.9218 12.5475C59.5553 13.2049 59.0012 13.7381 58.3302 14.0791L60.8287 17.9982L57.2864 17.9985ZM53.2135 12.1791H55.4896C56.0261 12.2138 56.5556 12.0424 56.97 11.7C57.1511 11.5197 57.2913 11.3027 57.3814 11.0635C57.4715 10.8244 57.5092 10.5687 57.4921 10.3138C57.5077 10.0654 57.4691 9.81653 57.3789 9.58454C57.2888 9.35255 57.1492 9.14296 56.97 8.97028C56.5533 8.63276 56.0248 8.46433 55.4896 8.49843H53.2135V12.1791Z" fill="white"/>
<path d="M61.6503 6.00142H71.9529V8.05489L65.6208 15.4823H72.0555V17.9988H61.428V15.9621L67.7601 8.51761H61.6503V6.00142Z" fill="white"/>
<defs>
<linearGradient id="paint0_linear_1559_63840" x1="28.1479" y1="3.33913" x2="11.1392" y2="21.1826" gradientUnits="userSpaceOnUse">
<stop stop-color="#14B23D"/>
<stop offset="1" stop-color="#FFC100"/>
</linearGradient>
</defs>
</svg>
