<svg width="80" height="24" viewBox="0 0 80 24" fill="none" xmlns="http://www.w3.org/2000/svg">
<g clip-path="url(#clip0_731_27692)">
<path d="M8.30979 9.30166L7.8538 11.1314C7.89773 11.1423 7.94943 11.1561 8.00743 11.1715C8.63223 11.3377 9.98781 11.6984 10.224 10.7511C10.4647 9.78742 9.16375 9.49524 8.51291 9.34906C8.43448 9.33145 8.3655 9.31595 8.30979 9.30166Z" fill="#F7931A"/>
<path d="M7.62387 12.0541L7.12035 14.072C7.17148 14.0847 7.23139 14.1006 7.29844 14.1183C8.04579 14.3157 9.6807 14.7476 9.94065 13.7034C10.2068 12.6362 8.62231 12.28 7.84911 12.1063C7.76271 12.0868 7.68629 12.0697 7.62387 12.0541Z" fill="#F7931A"/>
<path fill-rule="evenodd" clip-rule="evenodd" d="M5.52911 4.09739C7.08365 3.53922 8.7688 3.45455 10.3715 3.8541C11.4356 4.1194 12.4371 4.59171 13.3188 5.24407C14.2004 5.89642 14.9449 6.71604 15.5098 7.65613C16.0746 8.59622 16.4488 9.63837 16.6109 10.7231C16.773 11.8078 16.7198 12.9138 16.4545 13.9779C16.0549 15.5806 15.189 17.0287 13.9663 18.1393C12.7437 19.2498 11.2192 19.9728 9.58562 20.217C7.95204 20.4611 6.28276 20.2153 4.78886 19.5107C3.29497 18.8062 2.04355 17.6744 1.19285 16.2586C0.342149 14.8428 -0.069617 13.2066 0.00961723 11.5568C0.0888524 9.90695 0.655528 8.31768 1.63799 6.98992C2.62045 5.66217 3.97457 4.65556 5.52911 4.09739ZM10.8653 12.1132C11.4639 11.9745 11.915 11.5806 12.0353 10.7676C12.2012 9.65577 11.3552 9.05814 10.1978 8.65843L10.5684 7.1498L9.65256 6.92181L9.28681 8.38775C9.04297 8.32824 8.79816 8.27068 8.55238 8.21506L8.92105 6.73941L8.00423 6.51142L7.62974 8.01617C7.47097 7.98283 7.3122 7.94364 7.15344 7.90445C7.11817 7.89575 7.0829 7.88704 7.04764 7.8784L5.7864 7.5631L5.54192 8.54201C5.54192 8.54201 6.22201 8.69821 6.20746 8.70694C6.57904 8.80008 6.64598 9.0465 6.63531 9.24054L6.20552 10.9519C6.23856 10.9595 6.27099 10.9696 6.30254 10.982L6.20552 10.9578L5.60692 13.3609C5.59369 13.4029 5.57228 13.4419 5.54391 13.4756C5.51555 13.5093 5.48079 13.537 5.44165 13.5572C5.40251 13.5774 5.35975 13.5897 5.31585 13.5933C5.27195 13.5969 5.22777 13.5918 5.18586 13.5782C5.19944 13.5918 4.52032 13.4123 4.52032 13.4123L4.0653 14.4601L5.25765 14.757C5.4043 14.7935 5.54883 14.8312 5.69181 14.8686C5.76544 14.8879 5.83867 14.907 5.91155 14.9258L5.53221 16.448L6.44709 16.677L6.82255 15.1703C7.07286 15.243 7.3154 15.3051 7.5531 15.3643L7.17861 16.8642L8.09543 17.0922L8.47477 15.5729C10.0377 15.8678 11.2126 15.7485 11.7074 14.3359C12.1052 13.1979 11.687 12.5411 10.8653 12.1132Z" fill="#F7931A"/>
<path d="M24.4798 8.65849C25.0841 8.64394 25.6839 8.76667 26.2339 9.01746C26.7111 9.24473 27.1312 9.57628 27.4631 9.98764C27.7952 10.4147 28.0392 10.9034 28.181 11.4254C28.3389 12.0039 28.4166 12.6013 28.4119 13.2009C28.4172 15.0713 27.6978 16.8711 26.4046 18.2225C25.7773 18.8675 25.0303 19.3839 24.2052 19.7428C23.3394 20.121 22.4034 20.312 21.4586 20.3036C21.3316 20.3036 21.1074 20.3036 20.7912 20.2929C20.4274 20.2809 20.0647 20.2485 19.7046 20.1959C19.2668 20.1329 18.8325 20.0474 18.4036 19.9397C17.9547 19.8317 17.5185 19.6762 17.1025 19.476L20.7601 4.10738L24.0364 3.59998L22.7267 9.05335C22.9993 8.93181 23.2821 8.83441 23.5717 8.7623C23.869 8.6909 24.174 8.65604 24.4798 8.65849ZM21.7322 17.7074C22.2202 17.7078 22.7002 17.5842 23.1274 17.3484C23.5664 17.108 23.9516 16.7805 24.2596 16.386C24.5815 15.9747 24.8348 15.5141 25.0095 15.0219C25.1927 14.5132 25.286 13.9764 25.285 13.4357C25.285 12.7565 25.1715 12.2317 24.9464 11.8504C24.7214 11.4691 24.3022 11.278 23.6969 11.278C23.4375 11.2877 23.1797 11.3235 22.9275 11.3847C22.6084 11.4578 22.3132 11.6111 22.0699 11.83L20.6747 17.621C20.7591 17.6365 20.8339 17.6501 20.8969 17.6637C20.9625 17.6783 21.0289 17.6886 21.0958 17.6947C21.1805 17.704 21.2657 17.7082 21.351 17.7074H21.7322ZM31.8076 20.0096H28.6787L31.3205 8.89133H34.4726L31.8076 20.0096ZM33.3298 7.53599C32.9033 7.54023 32.4873 7.40384 32.1461 7.14792C31.792 6.88888 31.6164 6.49014 31.6164 5.95266C31.6147 5.6652 31.6756 5.38081 31.7949 5.11928C31.9102 4.86504 32.0721 4.63468 32.2723 4.44015C32.4722 4.24909 32.7044 4.09504 32.9582 3.98514C33.2224 3.87343 33.5067 3.81697 33.7935 3.81924C34.22 3.815 34.636 3.95139 34.9771 4.20731C35.3283 4.46602 35.5043 4.86412 35.5049 5.4016C35.5065 5.69019 35.4449 5.97563 35.3245 6.23789C35.2108 6.4923 35.0498 6.72277 34.85 6.91702C34.6502 7.10833 34.4175 7.26213 34.1632 7.37106C33.8998 7.48471 33.6156 7.54188 33.3288 7.5389L33.3298 7.53599ZM37.2105 6.1205L40.4878 5.61601L39.6825 8.89327H43.1926L42.561 11.472H39.0732L38.1438 15.3605C38.063 15.6575 38.0136 15.9622 37.9963 16.2695C37.9753 16.5185 38.0112 16.769 38.1011 17.002C38.1885 17.211 38.3503 17.38 38.5552 17.4765C38.7734 17.59 39.0858 17.6472 39.4953 17.6472C39.8259 17.6476 40.1558 17.6151 40.48 17.5502C40.8061 17.4856 41.1271 17.3974 41.4405 17.2863L41.6743 19.6972C41.2251 19.8592 40.7663 19.993 40.3005 20.0979C39.7241 20.218 39.1361 20.2736 38.5474 20.2638C37.5772 20.2638 36.8231 20.1202 36.2849 19.833C35.7815 19.5788 35.3783 19.1625 35.1401 18.6513C34.9097 18.108 34.81 17.5182 34.8491 16.9293C34.8818 16.238 34.9793 15.5514 35.1401 14.8783L37.2134 6.12729L37.2105 6.1205ZM43.0548 15.5701C43.0488 14.6474 43.2061 13.731 43.5196 12.8632C43.8151 12.0439 44.2683 11.2905 44.8536 10.6454C45.4431 10.0036 46.1601 9.49209 46.9589 9.14358C47.8288 8.76778 48.7685 8.58031 49.7161 8.59349C50.2885 8.58658 50.8596 8.64715 51.4178 8.77394C51.8882 8.88401 52.3458 9.04335 52.7828 9.24933L51.704 11.7049C51.4155 11.5897 51.1229 11.4875 50.826 11.3983C50.4652 11.2978 50.0915 11.251 49.7171 11.2595C48.6722 11.2595 47.8466 11.6204 47.2324 12.3374C46.6183 13.0544 46.3088 14.0226 46.3088 15.2344C46.3088 15.9529 46.4644 16.5351 46.7755 16.9807C47.085 17.425 47.6574 17.6462 48.4869 17.6462C48.8852 17.6472 49.2823 17.6049 49.6715 17.5201C50.0187 17.4457 50.3584 17.3395 50.6863 17.2029L50.923 19.7185C50.4951 19.8824 50.0577 20.0204 49.6133 20.1318C49.0512 20.2589 48.4761 20.3188 47.8999 20.3103C47.0261 20.3103 46.2862 20.1836 45.6802 19.93C45.1115 19.7015 44.5996 19.3515 44.1803 18.9046C43.7828 18.4718 43.4898 17.9537 43.3236 17.3901C43.1455 16.8009 43.0559 16.1885 43.0578 15.573L43.0548 15.5701ZM56.9536 20.3045C56.291 20.318 55.632 20.2027 55.0133 19.965C54.4909 19.7588 54.0241 19.4332 53.6502 19.0142C53.2834 18.592 53.0064 18.0994 52.8362 17.5667C52.6476 16.9707 52.5555 16.3484 52.5636 15.7233C52.5655 14.861 52.704 14.0044 52.974 13.1853C53.2386 12.3573 53.6507 11.5839 54.1906 10.9025C54.7276 10.2234 55.3949 9.65833 56.1532 9.2406C56.9294 8.81178 57.8161 8.5964 58.8154 8.5964C59.478 8.58339 60.1368 8.69836 60.7558 8.93499C61.2791 9.14135 61.7472 9.46689 62.1228 9.88577C62.4888 10.3086 62.7651 10.8014 62.9348 11.3342C63.1249 11.9319 63.2176 12.5563 63.2094 13.1834C63.2064 14.0448 63.0716 14.9008 62.8097 15.7214C62.5523 16.5459 62.1513 17.3184 61.6251 18.0033C61.0962 18.6865 60.4303 19.2516 59.6701 19.6623C58.8895 20.0924 57.984 20.3074 56.9536 20.3074V20.3045ZM58.5176 11.2576C58.076 11.2504 57.6446 11.3911 57.2922 11.6573C56.9331 11.9347 56.6319 12.2798 56.4055 12.6731C56.1617 13.0923 55.9797 13.5446 55.8651 14.0158C55.7498 14.468 55.6898 14.9326 55.6866 15.3993C55.6866 16.1056 55.7991 16.6554 56.0242 17.0486C56.2503 17.4415 56.6577 17.6394 57.2505 17.6394C57.6929 17.6469 58.1249 17.505 58.4768 17.2368C58.8368 16.9614 59.139 16.6179 59.3665 16.2259C59.6107 15.8067 59.793 15.3545 59.9078 14.8832C60.0214 14.431 60.081 13.9669 60.0854 13.5007C60.0854 12.7973 59.9719 12.2462 59.7458 11.8514C59.5198 11.4565 59.1113 11.2595 58.5195 11.2595L58.5176 11.2576ZM66.6225 20.0096H63.4907L66.1335 8.89133H69.2846L66.6225 20.0096ZM68.1427 7.53599C67.7165 7.54067 67.3007 7.40423 66.9601 7.14792C66.6069 6.88921 66.43 6.49079 66.4294 5.95266C66.4283 5.66506 66.4899 5.38067 66.6098 5.11928C66.724 4.86469 66.8857 4.6342 67.0862 4.44015C67.2863 4.24885 67.5189 4.09477 67.7731 3.98514C68.0364 3.87229 68.32 3.81483 68.6065 3.81633C69.0333 3.81187 69.4496 3.94827 69.7911 4.2044C70.1432 4.46635 70.3208 4.86412 70.3208 5.39869C70.3212 5.68726 70.2593 5.97251 70.1394 6.23498C70.0261 6.48934 69.8654 6.71982 69.6659 6.91411C69.4657 7.10506 69.2331 7.25881 68.979 7.36815C68.715 7.4819 68.4301 7.53907 68.1427 7.53599ZM71.5383 9.3968C71.776 9.32694 72.0419 9.24351 72.33 9.15231C72.6502 9.05335 72.9736 8.9696 73.3002 8.90104C73.6978 8.81499 74.0997 8.75022 74.5042 8.707C75.0056 8.65361 75.5096 8.62834 76.0138 8.63133C77.6637 8.63133 78.8024 9.11092 79.4298 10.0701C80.0572 11.0293 80.1668 12.34 79.7587 14.0022L78.3248 20.0096H75.1746L76.5697 14.1322C76.6551 13.7655 76.7211 13.4104 76.7715 13.065C76.8222 12.7638 76.8183 12.4559 76.7599 12.156C76.7093 11.9054 76.5719 11.6806 76.3718 11.5215C76.1661 11.3595 75.8537 11.2789 75.4307 11.2789C75.0119 11.2803 74.5943 11.3232 74.184 11.407L72.1311 20.0096H68.981L71.5393 9.39874L71.5383 9.3968Z" fill="white"/>
</g>
<defs>
<clipPath id="clip0_731_27692">
<rect width="80" height="24" fill="white"/>
</clipPath>
</defs>
</svg>
