<svg width="80" height="24" viewBox="0 0 80 24" fill="none" xmlns="http://www.w3.org/2000/svg">
<path fill-rule="evenodd" clip-rule="evenodd" d="M20.9302 4.49468L18.5613 2L12.5962 8.19268L14.9651 10.6287L20.9302 4.49468ZM24.5263 8.19268L22.1574 5.698L12.5962 15.5887L14.9651 18.0247L24.5263 8.19268ZM11.3689 9.396L13.7378 11.8907L11.3689 14.3267L9 11.8907L11.3689 9.396ZM28.1225 11.8907L25.7536 9.396L16.1923 19.2867L18.5613 21.7227L28.1225 11.8907Z" fill="#F0B90B"/>
<path d="M38.1713 11.7125C38.7849 11.8465 39.2562 12.1146 39.5852 12.5167C39.9231 12.9099 40.092 13.4193 40.092 14.0448C40.092 14.8491 39.7941 15.4701 39.1984 15.908C38.6115 16.337 37.74 16.5514 36.584 16.5514H32.2891V7.16842H36.3173C37.3577 7.16842 38.1624 7.37842 38.7315 7.79842C39.3095 8.21842 39.5985 8.81268 39.5985 9.58119C39.5985 10.0995 39.4696 10.5418 39.2117 10.9082C38.9627 11.2657 38.6159 11.5337 38.1713 11.7125ZM33.2761 7.98608V11.3908H36.2506C37.0064 11.3908 37.5889 11.2478 37.9979 10.9618C38.407 10.6669 38.6115 10.2425 38.6115 9.68843C38.6115 9.13438 38.407 8.71438 37.9979 8.42842C37.5889 8.13353 37.0064 7.98608 36.2506 7.98608H33.2761ZM36.5707 15.7338C37.4066 15.7338 38.0379 15.5908 38.4648 15.3048C38.8916 15.0189 39.105 14.5721 39.105 13.9644C39.105 12.7938 38.2602 12.2084 36.5707 12.2084H33.2761V15.7338H36.5707Z" fill="white"/>
<path d="M46.0797 16.7123C44.7459 16.7123 43.7055 16.3414 42.9585 15.5997C42.2205 14.858 41.8515 13.7991 41.8515 12.4229V7.16842H44.0123V12.3425C44.0123 14.0225 44.7059 14.8625 46.0931 14.8625C46.7689 14.8625 47.2846 14.6614 47.6403 14.2593C47.996 13.8482 48.1739 13.2093 48.1739 12.3425V7.16842H50.308V12.4229C50.308 13.7991 49.9345 14.858 49.1876 15.5997C48.4495 16.3414 47.4136 16.7123 46.0797 16.7123Z" fill="white"/>
<path d="M55.5111 16.7123C54.7731 16.7123 54.0573 16.614 53.3637 16.4174C52.679 16.2118 52.1276 15.9482 51.7097 15.6265L52.4433 13.9912C52.8435 14.2861 53.3192 14.5229 53.8705 14.7016C54.4218 14.8804 54.9732 14.9697 55.5245 14.9697C56.1381 14.9697 56.5916 14.8804 56.885 14.7016C57.1784 14.514 57.3252 14.2682 57.3252 13.9644C57.3252 13.741 57.2362 13.5578 57.0584 13.4148C56.8895 13.2629 56.6671 13.1423 56.3915 13.0529C56.1247 12.9635 55.7601 12.8652 55.2977 12.758C54.5863 12.5882 54.0039 12.4184 53.5504 12.2486C53.0969 12.0789 52.7056 11.8063 52.3766 11.431C52.0565 11.0557 51.8964 10.5552 51.8964 9.9297C51.8964 9.3846 52.0432 8.8931 52.3366 8.45523C52.63 8.00842 53.0702 7.65544 53.6571 7.39629C54.2529 7.13714 54.9776 7.00757 55.8313 7.00757C56.4271 7.00757 57.0095 7.07906 57.5786 7.22204C58.1477 7.36502 58.6457 7.57055 59.0725 7.83863L58.4056 9.48736C57.543 8.99587 56.6805 8.75013 55.8179 8.75013C55.2133 8.75013 54.7642 8.84842 54.4708 9.04502C54.1862 9.24162 54.0439 9.50077 54.0439 9.82247C54.0439 10.1442 54.2084 10.3854 54.5374 10.5463C54.8753 10.6982 55.3867 10.8501 56.0714 11.002C56.7827 11.1718 57.3652 11.3416 57.8187 11.5114C58.2722 11.6812 58.659 11.9493 58.9791 12.3157C59.3081 12.6821 59.4727 13.178 59.4727 13.8035C59.4727 14.3397 59.3215 14.8312 59.0192 15.278C58.7257 15.7159 58.2811 16.0644 57.6853 16.3235C57.0895 16.5827 56.3648 16.7123 55.5111 16.7123Z" fill="white"/>
<path d="M60.9492 7.16842H65.1908C66.2045 7.16842 67.0982 7.36502 67.8718 7.75821C68.6543 8.14246 69.259 8.68757 69.6858 9.39353C70.1215 10.0995 70.3394 10.9216 70.3394 11.8599C70.3394 12.7982 70.1215 13.6204 69.6858 14.3263C69.259 15.0323 68.6543 15.5818 67.8718 15.975C67.0982 16.3593 66.2045 16.5514 65.1908 16.5514H60.9492V7.16842ZM65.0841 14.7687C66.0178 14.7687 66.7603 14.5095 67.3116 13.9912C67.8718 13.464 68.1519 12.7535 68.1519 11.8599C68.1519 10.9663 67.8718 10.2603 67.3116 9.74204C66.7603 9.21481 66.0178 8.95119 65.0841 8.95119H63.11V14.7687H65.0841Z" fill="white"/>
</svg>
