<svg width="80" height="24" viewBox="0 0 80 24" fill="none" xmlns="http://www.w3.org/2000/svg">
<g clip-path="url(#clip0_731_27696)">
<path d="M76.9034 9.53642C76.9034 14.8032 72.6338 19.0728 67.367 19.0728C62.1002 19.0728 57.8306 14.8032 57.8306 9.53642C57.8306 4.2696 62.1002 0 67.367 0C72.6338 0 76.9034 4.2696 76.9034 9.53642Z" fill="#F79F1A"/>
<path d="M65.089 9.53642C65.089 14.8032 60.8194 19.0728 55.5525 19.0728C50.2857 19.0728 46.0161 14.8032 46.0161 9.53642C46.0161 4.2696 50.2857 0 55.5525 0C58.0818 0 60.5074 1.00473 62.2958 2.79315C64.0842 4.58158 65.089 7.00721 65.089 9.53642Z" fill="#EA001B"/>
<path d="M61.4231 1.98145C59.106 3.80142 57.7529 6.58467 57.7529 9.53111C57.7529 12.4776 59.106 15.2608 61.4231 17.0808C63.7403 15.2608 65.0933 12.4776 65.0933 9.53111C65.0933 6.58467 63.7403 3.80142 61.4231 1.98145Z" fill="#FF5F01"/>
<path d="M48.0824 23.8623H47.542V21.3298H48.0718V21.6371C48.2855 21.4554 48.54 21.3282 48.8135 21.2662C49.1537 21.2899 49.4668 21.46 49.6718 21.7325C49.8628 21.4496 50.1783 21.2761 50.5195 21.2662C51.0026 21.2475 51.4265 21.5857 51.5155 22.0609V23.8517H50.9963V22.2835C50.9915 22.1433 50.9278 22.0117 50.8209 21.9209C50.714 21.8301 50.5738 21.7887 50.4347 21.8066C50.1305 21.774 49.8528 21.9823 49.7989 22.2835V23.8623H49.2586V22.2729C49.2316 21.9934 48.9989 21.779 48.7182 21.7749C48.0824 21.7749 48.0718 22.2835 48.0718 22.2835L48.0824 23.8623Z" fill="white"/>
<path d="M64.5908 21.2662C64.3172 21.3282 64.0627 21.4554 63.849 21.6371V21.3298H63.2769V23.8623H63.8173V22.2835C63.8173 22.2835 63.8173 21.7748 64.4636 21.7748C64.5641 21.7719 64.6633 21.7977 64.7497 21.849L64.9298 21.351C64.8228 21.3026 64.708 21.2738 64.5908 21.2662Z" fill="white"/>
<path d="M72.2412 21.2662C71.9677 21.3282 71.7132 21.4554 71.4995 21.6371V21.3298H70.9697V23.8623H71.5101V22.2835C71.5101 22.2835 71.5101 21.7748 72.1565 21.7748C72.2569 21.7719 72.3562 21.7977 72.4426 21.849L72.6227 21.351C72.5084 21.3036 72.3861 21.2785 72.2624 21.2768L72.2412 21.2662Z" fill="white"/>
<path d="M53.2848 21.2556C52.9419 21.2694 52.6185 21.419 52.3859 21.6714C52.1534 21.9238 52.0307 22.2584 52.0451 22.6013C52.0209 23.3269 52.5811 23.9389 53.306 23.9788C53.6112 23.9592 53.9015 23.8401 54.1325 23.6397V23.894H54.6623V21.3298H54.1219V21.6477C53.8999 21.4133 53.5965 21.273 53.2742 21.2556H53.2848ZM53.3908 21.7748C53.7382 21.7487 54.0663 21.9378 54.2178 22.2516C54.3692 22.5654 54.3132 22.9399 54.0766 23.1957C53.84 23.4515 53.471 23.5365 53.1464 23.4099C52.8217 23.2833 52.6076 22.9709 52.6067 22.6225C52.5981 22.4061 52.6759 22.1951 52.823 22.0361C52.9701 21.8771 53.1743 21.7831 53.3908 21.7748Z" fill="white"/>
<path d="M68.8717 21.2556C68.5288 21.2694 68.2054 21.419 67.9728 21.6714C67.7403 21.9238 67.6176 22.2584 67.632 22.6013C67.608 23.3309 68.1744 23.9444 68.9035 23.9788C69.2087 23.9592 69.499 23.8401 69.73 23.6397V23.894H70.2598V21.3298H69.7194V21.6477C69.4974 21.4133 69.1941 21.273 68.8717 21.2556ZM68.9777 21.7748C69.3251 21.7487 69.6532 21.9378 69.8047 22.2516C69.9561 22.5654 69.9001 22.9399 69.6635 23.1957C69.4269 23.4515 69.0579 23.5365 68.7333 23.4099C68.4087 23.2833 68.1946 22.9709 68.1936 22.6225C68.185 22.4061 68.2628 22.1951 68.4099 22.0361C68.557 21.8771 68.7612 21.7831 68.9777 21.7748Z" fill="white"/>
<path d="M74.0111 21.2556C73.3137 21.3065 72.7832 21.9027 72.8138 22.6013C72.7885 23.3116 73.3242 23.9172 74.0323 23.9788C74.3375 23.9591 74.6278 23.84 74.8588 23.6397V23.894H75.3886V20.3337H74.8482V21.6476C74.6262 21.4133 74.3228 21.273 74.0005 21.2556H74.0111ZM74.1171 21.7748C74.4645 21.7487 74.7926 21.9378 74.944 22.2516C75.0955 22.5654 75.0395 22.9399 74.8029 23.1957C74.5663 23.4515 74.1973 23.5364 73.8727 23.4099C73.548 23.2833 73.3339 22.9709 73.333 22.6225C73.3244 22.406 73.4022 22.1951 73.5493 22.0361C73.6963 21.8771 73.9006 21.7831 74.1171 21.7748Z" fill="white"/>
<path d="M56.3052 23.9788C55.9288 23.9582 55.564 23.8415 55.2456 23.6397L55.4787 23.2794C55.7395 23.4002 56.019 23.4754 56.3052 23.5019C56.5277 23.5019 56.9092 23.4278 56.9092 23.2053C56.9092 22.9827 56.2734 22.898 56.2734 22.898C56.2734 22.898 55.3198 22.898 55.3198 22.1033C55.3198 21.6053 55.7966 21.298 56.3794 21.298C56.7468 21.3426 57.1047 21.4464 57.439 21.6053L57.1741 22.0185C56.9258 21.9168 56.666 21.8457 56.4006 21.8066C56.1781 21.8066 55.9026 21.9019 55.9026 22.1033C55.9026 22.6437 57.492 22.1033 57.492 23.1629C57.492 23.8728 56.8456 24 56.3264 24L56.3052 23.9788Z" fill="white"/>
<path d="M58.3393 20.5986V21.3403H57.873V21.8595H58.3499V23.1311C58.3365 23.3682 58.4272 23.5994 58.5981 23.7643C58.7691 23.9291 59.0034 24.0113 59.2399 23.9893C59.5013 23.9584 59.7577 23.8943 60.0028 23.7986L59.7909 23.2476C59.6718 23.3486 59.523 23.4081 59.3671 23.4172C58.9432 23.4172 58.9538 23.1311 58.9538 23.1311V21.8595H59.8333V21.3297H58.9326V20.588L58.3393 20.5986Z" fill="white"/>
<path d="M61.5603 21.2874C60.8604 21.3494 60.3237 21.9357 60.3237 22.6383C60.3237 23.341 60.8604 23.9273 61.5603 23.9893C61.9109 23.9419 62.2471 23.819 62.5457 23.6291L62.302 23.1946C62.0824 23.3484 61.827 23.4432 61.5603 23.4701C61.1702 23.4823 60.8413 23.1816 60.8185 22.792H62.6728C62.6728 22.792 62.8636 21.2874 61.5603 21.2874ZM61.4861 21.7854H61.5497C61.7181 21.7766 61.8827 21.8375 62.0049 21.9537C62.1272 22.0699 62.1962 22.2313 62.196 22.3999H60.8715C60.8655 22.2352 60.9283 22.0753 61.0449 21.9588C61.1615 21.8422 61.3213 21.7794 61.4861 21.7854Z" fill="white"/>
<path d="M67.0705 23.1947L67.3142 23.6927C67.0584 23.8622 66.7623 23.9609 66.4559 23.9788C66.089 23.996 65.7307 23.8637 65.4631 23.6121C65.1955 23.3604 65.0414 23.011 65.0361 22.6437C65.0046 22.2629 65.1461 21.8881 65.4214 21.6231C65.6967 21.3581 66.0766 21.2309 66.4559 21.2768C66.7828 21.2906 67.1005 21.3892 67.3778 21.5629L67.1023 22.0609C66.9378 21.8668 66.6875 21.7675 66.4347 21.796C66.0115 21.8438 65.6917 22.2019 65.6917 22.6278C65.6917 23.0537 66.0115 23.4117 66.4347 23.4596C66.6813 23.443 66.9157 23.3462 67.1023 23.1841L67.0705 23.1947Z" fill="white"/>
<path d="M21.8339 6.29623L19.2908 18.1129H16.2476L18.7907 6.29623H21.8339ZM34.7017 13.9254L36.3123 9.48351L37.2363 13.9254H34.7017ZM38.0924 18.1129H40.9406L38.4823 6.29623H35.863C35.2956 6.28588 34.7789 6.6214 34.5576 7.14391L30.0055 18.1214H33.2182L33.854 16.3582H37.7788L38.0924 18.1129ZM30.1072 14.256C30.1072 11.1365 25.7925 10.967 25.8265 9.56828C25.8265 9.14444 26.2418 8.7206 27.1234 8.57649C28.1583 8.47673 29.2009 8.65831 30.1412 9.10206L30.6752 6.55901C29.7616 6.21621 28.7943 6.03826 27.8185 6.03345C24.7923 6.03345 22.6731 7.63557 22.6561 9.94126C22.6561 11.6366 24.1735 12.5945 25.3348 13.1625C26.4961 13.7304 26.9284 14.1119 26.92 14.6289C26.92 15.4258 25.9706 15.7733 25.089 15.7903C23.9969 15.8137 22.9171 15.5569 21.9525 15.0443L21.4016 17.6382C22.483 18.0563 23.6329 18.269 24.7923 18.2655C28.005 18.2655 30.1072 16.6803 30.1157 14.2221L30.1072 14.256ZM17.4683 6.29623L12.5094 18.1214H9.2797L6.83838 8.68669C6.79033 8.24372 6.51827 7.85643 6.11785 7.661C5.1582 7.19763 4.14444 6.85591 3.1001 6.64378L3.17639 6.30471H8.37268C9.07418 6.3046 9.67127 6.81537 9.77983 7.50841L11.0683 14.3492L14.2471 6.30471L17.4683 6.29623Z" fill="#2188FF"/>
</g>
<defs>
<clipPath id="clip0_731_27696">
<rect width="80" height="24" fill="white"/>
</clipPath>
</defs>
</svg>
