<svg width="80" height="24" viewBox="0 0 80 24" fill="none" xmlns="http://www.w3.org/2000/svg">
<path d="M9.192 5.86389H11.3366V2.80005C11.3366 2.80005 9.08267 2.80005 9.028 2.80247C4.03093 2.8939 0 6.97274 0 11.992C0 17.0655 4.11898 21.1792 9.192 21.184H11.3366V18.1197H9.192C8.26133 18.1162 7.34363 17.9008 6.50848 17.4901C5.67328 17.0794 4.94251 16.484 4.37147 15.7491C3.80044 15.0142 3.40412 14.159 3.21252 13.2482C3.02092 12.3374 3.03906 11.395 3.26558 10.4923C3.61125 11.8004 4.38 12.9574 5.452 13.7829C6.524 14.6083 7.83899 15.0559 9.192 15.0559H11.3366V11.992H9.192C7.51179 11.992 6.14411 10.6084 6.14411 8.92821C6.14411 7.248 7.51179 5.86389 9.192 5.86389Z" fill="#144BFE"/>
<path d="M16 13.5169V10.2148C16 7.87707 17.3893 6.53345 19.9557 6.53345C21.0444 6.53345 21.9475 6.8399 22.6497 7.43931C23.3519 8.03867 23.71 8.92907 23.71 10.1433V10.2894H21.4745V10.1433C21.4745 9.09131 20.7438 8.60907 19.8124 8.60907C18.7519 8.60907 18.2216 9.09131 18.2216 10.0557V13.6791C18.2216 14.6435 18.7519 15.1258 19.8124 15.1258C20.7723 15.1258 21.4745 14.6873 21.4745 13.5915V13.4454H23.71V13.5915C23.71 14.8038 23.3519 15.7097 22.6497 16.3091C21.9475 16.9085 21.0444 17.2001 19.9557 17.2001C17.3893 17.1988 16 15.8578 16 13.5169Z" fill="white"/>
<path d="M24.9995 11.9537C24.9995 10.2733 26.1892 9.12088 28.3098 9.12088C30.4304 9.12088 31.6062 10.2752 31.6062 11.9537V14.3062C31.6062 15.9858 30.431 17.155 28.3098 17.155C26.1886 17.155 24.9995 15.9865 24.9995 14.3062V11.9537ZM29.5709 14.2328V12.0592C29.5709 11.4309 29.1124 10.9925 28.3079 10.9925C27.4623 10.9925 27.0323 11.4599 27.0323 12.0592V14.236C27.0323 14.8354 27.4623 15.288 28.3079 15.288C29.1124 15.2847 29.5709 14.8321 29.5709 14.2328Z" fill="white"/>
<path d="M33.1964 16.9799V9.29471H35.2317V16.9799H33.1964Z" fill="white"/>
<path d="M37.1552 16.9799V9.29474H38.3159L38.8748 10.0107C39.1642 9.72157 39.507 9.49384 39.8834 9.34077C40.2597 9.1877 40.6622 9.11234 41.0673 9.11901C42.7155 9.11901 43.69 10.2444 43.69 12.1146V16.9799H41.6521V12.2312C41.6521 11.4129 41.222 10.9893 40.6057 10.9893C40.0753 10.9893 39.6022 11.2378 39.1867 11.72V16.9799H37.1552Z" fill="white"/>
<path d="M46.0083 16.3663C45.4064 15.8397 45.0913 15.1682 45.0768 14.3351H47.0547C47.181 14.9925 47.6994 15.3143 48.617 15.3143C49.2334 15.3143 49.6059 15.1096 49.6059 14.7735C49.6059 14.4961 49.3906 14.3062 48.9466 14.189L47.0976 13.7068C45.8794 13.3848 45.2631 12.6985 45.2631 11.6324C45.2631 10.0692 46.3809 9.12153 48.3158 9.12153C50.1648 9.12153 51.4102 10.1593 51.4689 11.7953H49.5055C49.3477 11.2403 48.9037 10.9628 48.187 10.9628C47.5554 10.9628 47.2397 11.1528 47.2397 11.5178C47.2397 11.7225 47.4405 11.8835 47.8415 11.9852L49.8194 12.4971C50.9946 12.8035 51.5819 13.5194 51.5819 14.6152C51.5819 16.208 50.3638 17.1576 48.4295 17.1576C47.4273 17.155 46.6278 16.8917 46.0083 16.3663Z" fill="white"/>
<path d="M53.2585 16.9799V6.75233H57.7584C59.5498 6.75233 60.625 7.99425 60.625 9.96689C60.625 11.9395 59.5514 13.1666 57.7584 13.1666H55.4816V16.9799H53.2585ZM55.48 11.194H57.3429C57.9018 11.194 58.3749 10.7852 58.3749 9.96689C58.3749 9.14859 57.9018 8.72497 57.3429 8.72497H55.4816L55.48 11.194Z" fill="white"/>
<path d="M66.6309 16.9799L66.0725 16.264C65.456 16.8627 64.696 17.155 63.793 17.155C63.0768 17.155 62.4752 16.9503 61.9877 16.5563C61.5002 16.1468 61.2565 15.5768 61.257 14.8463C61.257 13.2542 62.2746 12.3483 64.2954 12.3483H65.7712V11.9247C65.7712 11.2963 65.4128 10.9892 64.6816 10.9892C63.9504 10.9892 63.593 11.2378 63.593 11.7489H61.6005C61.6005 10.1568 62.6613 9.11899 64.6816 9.11899C66.7018 9.11899 67.8064 10.1568 67.8064 11.7786V16.9799H66.6309ZM65.7712 14.6564V13.8091H64.2954C63.6213 13.8091 63.2917 14.0577 63.2917 14.5688C63.2917 15.0195 63.6074 15.3285 64.2234 15.3285C64.8538 15.3285 65.3701 15.1096 65.7712 14.6564Z" fill="white"/>
<path d="M69.6549 16.9799V9.29471H71.6902V16.9799H69.6549Z" fill="white"/>
<path d="M78.8411 16.9799L78.2822 16.264C77.9894 16.5536 77.6438 16.7814 77.2646 16.9343C76.8849 17.0872 76.4801 17.1622 76.0721 17.155C74.5243 17.155 73.3921 16.1893 73.3921 14.3352V11.9247C73.3921 11.0041 73.6502 10.303 74.1499 9.83491C74.6513 9.35337 75.2961 9.11902 76.0705 9.11902C76.8443 9.11902 77.4747 9.32371 77.9649 9.74734V6.67961H80.0001V16.9806L78.8411 16.9799ZM77.9665 14.5541V11.7213C77.4934 11.2391 76.9921 10.9905 76.4907 10.9905C76.3499 10.9893 76.2107 11.0169 76.0806 11.0716C75.9505 11.1264 75.8326 11.2071 75.7334 11.3092C75.6347 11.4113 75.5569 11.5325 75.5051 11.6658C75.4529 11.7991 75.4278 11.9416 75.4305 12.085V14.189C75.4273 14.3325 75.4529 14.4751 75.5046 14.6084C75.5569 14.7417 75.6347 14.863 75.7334 14.965C75.8326 15.0671 75.9505 15.1479 76.0806 15.2026C76.2107 15.2573 76.3499 15.2848 76.4907 15.2835C76.9921 15.2848 77.4934 15.0362 77.9665 14.5541Z" fill="white"/>
</svg>
