<svg width="93" height="37" viewBox="0 0 93 37" fill="none" xmlns="http://www.w3.org/2000/svg">
    <circle cx="74" cy="18.5" r="18.5" fill="#009381"/>
    <path d="M85.0999 18.9209V20.213C85.0607 21.4659 81.3412 22.523 76.3687 22.7579V28.5918H71.6703V22.7579C66.6586 22.523 62.9391 21.4659 62.8999 20.213V18.9209H63.1348C64.2311 20.0955 68.6555 20.996 73.9803 20.996C79.3052 20.996 83.7295 20.0955 84.8258 18.9209H85.0999Z" fill="white"/>
    <path d="M85.0999 17.5897V18.8817H84.8258C83.8861 17.9029 80.5581 17.0807 76.3295 16.8849V19.3907C75.5856 19.4299 74.7634 19.4299 73.9803 19.4299C73.1581 19.4299 72.375 19.4299 71.6311 19.3907V16.8849C67.4025 17.1198 64.0745 17.9029 63.1348 18.9209H62.8999V17.6288C62.9391 16.3759 66.6586 15.3188 71.6311 15.0839V12.6955H64.5443V9.25H83.4163V12.6955H76.3687V15.0839C81.3412 15.3188 85.0607 16.3368 85.0999 17.5897Z" fill="white"/>
    <circle cx="44.3999" cy="18.5" r="18.5" fill="#F7931A"/>
    <path fill-rule="evenodd" clip-rule="evenodd" d="M52.0428 15.8802C52.3771 13.6424 50.673 12.4394 48.343 11.6368L49.0988 8.60539L47.2529 8.14553L46.517 11.0971C46.0324 10.9762 45.5341 10.8621 45.039 10.7492L45.7801 7.77816L43.9357 7.3183L43.1794 10.3487C42.7778 10.2572 42.3836 10.1668 42.0009 10.0717L42.003 10.0622L39.458 9.42684L38.9671 11.3977C38.9671 11.3977 40.3363 11.7115 40.3074 11.7309C41.0548 11.9175 41.1904 12.412 41.1673 12.8041L40.3064 16.2575C40.3579 16.2707 40.4246 16.2896 40.4982 16.319L40.3037 16.2707L39.0964 21.1085C39.0049 21.3355 38.7731 21.6761 38.2507 21.5468C38.2691 21.5736 36.9093 21.212 36.9093 21.212L35.9932 23.3247L38.3952 23.9234C38.6662 23.9913 38.9339 24.0611 39.1986 24.1302C39.37 24.1749 39.5413 24.2195 39.7103 24.2629L38.9466 27.3295L40.7899 27.7894L41.5468 24.7558C42.0498 24.8925 42.5386 25.0186 43.0169 25.1374L42.2632 28.1567L44.1086 28.6166L44.8724 25.5563C48.0192 26.1517 50.3861 25.9116 51.381 23.0662C52.1837 20.7747 51.3416 19.453 49.6859 18.5905C50.8917 18.3114 51.8005 17.5184 52.0428 15.8802ZM47.8254 21.7921C47.3015 23.8952 44.0086 23.025 42.5032 22.6272C42.3685 22.5916 42.2479 22.5598 42.1451 22.5342L43.1585 18.4721C43.2842 18.5035 43.4378 18.538 43.6118 18.577C45.1691 18.9265 48.3601 19.6426 47.8254 21.7921ZM43.9252 16.6923C45.1812 17.0274 47.9191 17.7577 48.396 15.8472C48.8836 13.8927 46.2213 13.3036 44.9211 13.0159C44.7749 12.9835 44.646 12.955 44.5407 12.9288L43.6219 16.6129C43.7088 16.6346 43.8109 16.6618 43.9252 16.6923Z" fill="white"/>
    <circle cx="18.5" cy="18.5" r="18.5" fill="#E2E2EA"/>
    <path d="M18.4974 5.04517L18.3169 5.65839V23.4511L18.4974 23.6312L26.7564 18.7492L18.4974 5.04517Z" fill="#343434"/>
    <path d="M18.4975 5.04504L10.2383 18.7491L18.4975 23.6311V14.995V5.04504Z" fill="#8C8C8C"/>
    <path d="M18.4975 25.1952L18.3958 25.3193V31.6573L18.4975 31.9544L26.7616 20.3158L18.4975 25.1952Z" fill="#3C3C3B"/>
    <path d="M18.4975 31.9544V25.1952L10.2383 20.3158L18.4975 31.9544Z" fill="#8C8C8C"/>
    <path d="M18.4973 23.6305L26.7563 18.7485L18.4973 14.9944V23.6305Z" fill="#161616"/>
    <path d="M10.2383 18.7485L18.4975 23.6305V14.9944L10.2383 18.7485Z" fill="#383838"/>
</svg>
