<svg width="74" height="33" viewBox="0 0 74 33" fill="none" xmlns="http://www.w3.org/2000/svg">
<path d="M5.694 15.065C3.978 15.065 2.665 14.6707 1.755 13.882C0.845 13.0847 0.39 11.906 0.39 10.346C0.39 8.79467 0.845 7.62033 1.755 6.823C2.665 6.02567 3.978 5.63133 5.694 5.64L10.374 5.666V7.33H5.837C4.71033 7.33 3.874 7.56833 3.328 8.045C2.782 8.52167 2.509 9.28867 2.509 10.346C2.509 11.4033 2.782 12.1747 3.328 12.66C3.874 13.1367 4.71033 13.375 5.837 13.375H10.504V15.065H5.694ZM11.8026 15V5.705H19.5896C20.5516 5.705 21.2969 5.94767 21.8256 6.433C22.3629 6.91833 22.6316 7.655 22.6316 8.643C22.6316 9.48367 22.4366 10.1423 22.0466 10.619C21.6566 11.0957 21.1019 11.3947 20.3826 11.516L22.5276 15H20.1616L18.1726 11.581H13.8826V15H11.8026ZM19.3426 7.395H13.8826V9.878L19.3426 9.891C19.7239 9.891 20.0142 9.79567 20.2136 9.605C20.4216 9.41433 20.5256 9.09367 20.5256 8.643C20.5256 8.18367 20.4216 7.863 20.2136 7.681C20.0142 7.49033 19.7239 7.395 19.3426 7.395ZM27.5627 15V11.685L22.6357 5.705H25.2097L28.6027 9.917L31.9827 5.705H34.5567L29.6557 11.672V15H27.5627ZM35.4666 15V5.705H43.2536C44.2156 5.705 44.961 5.94767 45.4896 6.433C46.027 6.91833 46.2956 7.655 46.2956 8.643C46.2956 9.631 46.027 10.3677 45.4896 10.853C44.961 11.3383 44.2156 11.581 43.2536 11.581H37.5466V15H35.4666ZM43.0066 7.395H37.5466V9.878L43.0066 9.891C43.388 9.891 43.6783 9.79567 43.8776 9.605C44.0856 9.41433 44.1896 9.09367 44.1896 8.643C44.1896 8.18367 44.0856 7.863 43.8776 7.681C43.6783 7.49033 43.388 7.395 43.0066 7.395ZM47.2657 10.411V5.705H58.7057V10.411H56.5997V7.395H53.7657V15H51.6857V7.395H49.3717V10.411H47.2657ZM64.8901 15.065C63.2348 15.065 61.9521 14.6707 61.0421 13.882C60.1321 13.0847 59.6771 11.906 59.6771 10.346C59.6771 8.79467 60.1321 7.62467 61.0421 6.836C61.9521 6.03867 63.2651 5.64 64.9811 5.64H67.3211C69.0371 5.64 70.3501 6.03867 71.2601 6.836C72.1701 7.62467 72.6251 8.79467 72.6251 10.346C72.6251 11.906 72.1701 13.0847 71.2601 13.882C70.3501 14.6707 69.0588 15.065 67.3861 15.065H64.8901ZM65.1241 7.33C64.1621 7.33 63.4124 7.50333 62.8751 7.85C62.3378 8.19667 61.9998 8.747 61.8611 9.501H70.4411C70.3024 8.747 69.9644 8.19667 69.4271 7.85C68.8898 7.50333 68.1401 7.33 67.1781 7.33H65.1241ZM65.1631 13.375H67.1781C68.1488 13.375 68.8984 13.2017 69.4271 12.855C69.9644 12.5083 70.3024 11.9537 70.4411 11.191H61.8611C61.9998 11.9537 62.3378 12.5083 62.8751 12.855C63.4124 13.2017 64.1751 13.375 65.1631 13.375Z" fill="white"/>
<path d="M46.595 24.025C46.1483 24.025 45.8 23.915 45.55 23.695C45.3 23.4717 45.175 23.145 45.175 22.715C45.175 22.2817 45.3 21.955 45.55 21.735C45.8 21.5117 46.1483 21.4 46.595 21.4H48.27V21.975H46.595C46.3783 21.975 46.2117 22.035 46.095 22.155C45.9817 22.275 45.925 22.4617 45.925 22.715C45.925 22.965 45.9817 23.15 46.095 23.27C46.2117 23.39 46.3783 23.45 46.595 23.45H48.32V24.025H46.595ZM49.513 24C49.2196 24 49.0046 23.9267 48.868 23.78C48.7346 23.6333 48.668 23.4433 48.668 23.21V21.425H49.393V23.125C49.393 23.325 49.493 23.425 49.693 23.425H50.733C50.933 23.425 51.033 23.325 51.033 23.125V21.425H51.758V23.21C51.758 23.4433 51.6896 23.6333 51.553 23.78C51.4196 23.9267 51.2063 24 50.913 24H49.513ZM52.2818 24V21.425H54.2518C54.5418 21.425 54.7552 21.4983 54.8918 21.645C55.0285 21.7883 55.0968 21.9783 55.0968 22.215V22.75H54.3618V22.305C54.3618 22.105 54.2618 22.005 54.0618 22.005H53.0168V24H52.2818ZM55.4947 24V21.425H57.4647C57.7547 21.425 57.9681 21.4983 58.1047 21.645C58.2414 21.7883 58.3097 21.9783 58.3097 22.215V22.75H57.5747V22.305C57.5747 22.105 57.4747 22.005 57.2747 22.005H56.2297V24H55.4947ZM60.1253 24.025C59.6786 24.025 59.3303 23.915 59.0803 23.695C58.8303 23.4717 58.7053 23.145 58.7053 22.715C58.7053 22.2817 58.8303 21.955 59.0803 21.735C59.3303 21.5117 59.6786 21.4 60.1253 21.4H61.3753C61.6686 21.4 61.8919 21.47 62.0453 21.61C62.2019 21.7467 62.2803 21.9433 62.2803 22.2C62.2803 22.7233 61.9786 22.985 61.3753 22.985H59.4853C59.5553 23.295 59.7686 23.45 60.1253 23.45H62.1503V24.025H60.1253ZM60.1253 21.975C59.7819 21.975 59.5703 22.12 59.4903 22.41H61.3403C61.4069 22.41 61.4586 22.39 61.4953 22.35C61.5353 22.31 61.5553 22.255 61.5553 22.185C61.5553 22.045 61.4836 21.975 61.3403 21.975H60.1253ZM62.7311 24V21.425H64.9761C65.2694 21.425 65.4827 21.4983 65.6161 21.645C65.7527 21.7883 65.8211 21.9783 65.8211 22.215V24H65.0961V22.3C65.0961 22.1 64.9961 22 64.7961 22H63.4561V24H62.7311ZM67.6643 24.025C67.2177 24.025 66.8693 23.915 66.6193 23.695C66.3693 23.4717 66.2443 23.145 66.2443 22.715C66.2443 22.2817 66.3693 21.955 66.6193 21.735C66.8693 21.5117 67.2177 21.4 67.6643 21.4H69.3393V21.975H67.6643C67.4477 21.975 67.281 22.035 67.1643 22.155C67.051 22.275 66.9943 22.4617 66.9943 22.715C66.9943 22.965 67.051 23.15 67.1643 23.27C67.281 23.39 67.4477 23.45 67.6643 23.45H69.3893V24.025H67.6643ZM70.3423 25.125V24.55H71.8523C72.0523 24.55 72.1523 24.4483 72.1523 24.245V24H70.6073C70.314 24 70.099 23.9267 69.9623 23.78C69.829 23.6333 69.7623 23.4433 69.7623 23.21V21.425H70.4873V23.125C70.4873 23.325 70.5873 23.425 70.7873 23.425H72.1273V21.425H72.8773V24.335C72.8773 24.5717 72.809 24.7617 72.6723 24.905C72.5356 25.0517 72.3223 25.125 72.0323 25.125H70.3423Z" fill="white"/>
</svg>
