<svg width="80" height="24" viewBox="0 0 80 24" fill="none" xmlns="http://www.w3.org/2000/svg">
<g clip-path="url(#clip0_1559_63833)">
<path d="M23.2388 10.6761C23.0484 9.59214 22.1853 8.96977 21.0829 8.96977C19.6006 8.96977 18.5566 10.1057 18.5566 12.1496C18.5566 14.2295 19.6094 15.3318 21.0789 15.3318C22.1629 15.3318 23.03 14.7343 23.2388 13.6719L24.8931 13.6807C24.6411 15.411 23.2132 16.8054 21.0533 16.8054C18.6638 16.8054 16.9031 15.0751 16.9031 12.1496C16.9031 9.22415 18.6862 7.49464 21.0533 7.49464C23.0628 7.49464 24.6115 8.66258 24.8931 10.6761H23.2388ZM25.4203 14.7743C25.4203 13.2432 26.6818 12.8488 28.0002 12.7072C29.2001 12.5792 29.6801 12.5568 29.6801 12.0968V12.0704C29.6801 11.4016 29.2729 11.0217 28.5297 11.0217C27.7466 11.0217 27.2946 11.4216 27.1354 11.884L25.6395 11.672C25.9939 10.4329 27.0914 9.79613 28.5193 9.79613C29.8161 9.79613 31.28 10.3353 31.28 12.132V16.6814H29.7465V15.7478H29.6937C29.4017 16.3182 28.7641 16.819 27.6978 16.819C26.4011 16.819 25.4203 16.1102 25.4203 14.7743ZM29.6857 14.2431V13.4431C29.4785 13.6111 28.6377 13.7175 28.217 13.7751C27.497 13.8767 26.965 14.1327 26.965 14.7479C26.965 15.3366 27.445 15.6422 28.1106 15.6422C29.0785 15.6414 29.6889 14.9999 29.6889 14.2431H29.6857ZM36.2238 11.84C36.0998 11.3928 35.7102 10.9905 34.9718 10.9905C34.3031 10.9905 33.7943 11.3104 33.7991 11.7696C33.7943 12.1632 34.0687 12.4024 34.759 12.5568L35.919 12.8048C37.1989 13.084 37.8261 13.6767 37.8301 14.6447C37.8261 15.9326 36.6301 16.8134 34.927 16.8134C33.2591 16.8134 32.2072 16.0742 32.0112 14.8263L33.5735 14.6759C33.7103 15.2894 34.1887 15.6094 34.923 15.6094C35.6838 15.6094 36.1886 15.2599 36.1886 14.7951C36.1886 14.4095 35.8966 14.1551 35.2726 14.0207L34.1127 13.7807C32.8079 13.5111 32.1928 12.856 32.2016 11.8608C32.1968 10.6041 33.3119 9.79853 34.9494 9.79853C36.5429 9.79853 37.4629 10.5329 37.6845 11.684L36.2238 11.84ZM38.498 8.05221C38.498 7.57224 38.914 7.18026 39.4276 7.18026C39.9412 7.18026 40.3524 7.56984 40.3524 8.05221C40.3524 8.53459 39.9364 8.91937 39.4276 8.91937C38.9188 8.91937 38.498 8.52979 38.498 8.05221ZM38.6196 9.88412H40.2196V16.6838H38.6196V9.88412ZM41.3979 16.6814V9.88172H42.929V11.0393H43.009C43.3186 10.2825 44.0178 9.79613 45.0361 9.79613C46.4384 9.79613 47.368 10.7249 47.3632 12.356V16.6838H45.7633V12.604C45.7633 11.6968 45.2673 11.1521 44.4401 11.1521C43.5946 11.1521 43.0002 11.7184 43.0002 12.7008V16.6814H41.3979ZM48.1432 13.3095C48.1432 11.2025 49.4087 9.79613 51.3998 9.79613C53.3909 9.79613 54.6572 11.2025 54.6572 13.3095C54.6572 15.4166 53.3917 16.8142 51.3998 16.8142C49.4079 16.8142 48.1432 15.411 48.1432 13.3095ZM53.0325 13.3047C53.0325 12.0616 52.4933 11.0649 51.4086 11.0649C50.307 11.0649 49.7671 12.0608 49.7671 13.3047C49.7671 14.5487 50.307 15.5294 51.4086 15.5294C52.4925 15.5294 53.0325 14.5487 53.0325 13.3047ZM61.6633 10.6761C61.4729 9.59214 60.6097 8.96977 59.5082 8.96977C58.0259 8.96977 56.9811 10.1073 56.9811 12.1512C56.9811 14.2311 58.0347 15.3334 59.5034 15.3334C60.5881 15.3334 61.4553 14.7359 61.6633 13.6735L63.3184 13.6823C63.0656 15.4126 61.6385 16.807 59.4786 16.807C57.0891 16.807 55.3284 15.0767 55.3284 12.1512C55.3284 9.22575 57.1115 7.49624 59.4786 7.49624C61.4881 7.49624 63.0368 8.66418 63.3184 10.6777L61.6633 10.6761ZM63.9216 13.3095C63.9216 11.2025 65.1879 9.79613 67.179 9.79613C69.1701 9.79613 70.4356 11.2025 70.4356 13.3095C70.4356 15.4166 69.1701 16.8142 67.1782 16.8142C65.1863 16.8142 63.9216 15.411 63.9216 13.3095ZM68.8117 13.3047C68.8117 12.0616 68.2717 11.0649 67.1878 11.0649C66.0863 11.0649 65.5463 12.0608 65.5463 13.3047C65.5463 14.5487 66.0863 15.5294 67.1878 15.5294C68.2717 15.5294 68.8117 14.5487 68.8117 13.3047ZM71.1148 8.05221C71.1148 7.57224 71.5308 7.18026 72.0444 7.18026C72.5579 7.18026 72.9691 7.56984 72.9691 8.05221C72.9691 8.53459 72.5531 8.91937 72.0444 8.91937C71.5356 8.91937 71.1148 8.52979 71.1148 8.05221ZM71.2388 9.88412H72.8387V16.6838H71.2388V9.88412ZM75.6146 16.6814H74.0147V9.88172H75.5458V11.0393H75.6258C75.9354 10.2825 76.6345 9.79613 77.6529 9.79613C79.0552 9.79613 79.9848 10.7249 79.98 12.356V16.6838H78.3776V12.604C78.3776 11.6968 77.8817 11.1521 77.0545 11.1521C76.2089 11.1521 75.6146 11.7184 75.6146 12.7008V16.6814ZM7.25082 4.72998C5.81287 4.72982 4.40718 5.15609 3.2115 5.95487C2.01583 6.75365 1.08389 7.88907 0.533535 9.21752C-0.0168156 10.546 -0.160854 12.0078 0.119636 13.4181C0.400127 14.8285 1.09255 16.1239 2.10933 17.1407C3.12611 18.1575 4.42158 18.8499 5.8319 19.1304C7.24222 19.4109 8.70405 19.2668 10.0325 18.7165C11.361 18.1661 12.4964 17.2342 13.2952 16.0385C14.0939 14.8429 14.5202 13.4372 14.5201 11.9992C14.5173 10.0721 13.7506 8.22478 12.3879 6.86213C11.0253 5.49948 9.17789 4.73273 7.25082 4.72998ZM11.8042 7.49784L12.2362 7.04346C13.0983 7.90905 13.72 8.98431 14.0401 10.1633L13.4265 10.3113C13.2961 10.3368 13.161 10.3224 13.0389 10.2701C12.9167 10.2177 12.8132 10.1298 12.7417 10.0177L11.7162 8.2418C11.6541 8.12341 11.6292 7.98897 11.6449 7.85619C11.6606 7.7234 11.7161 7.59847 11.8042 7.49784ZM7.25082 4.96997C7.85865 4.96935 8.46397 5.04788 9.05153 5.20356L8.87314 5.80913C8.82902 5.93377 8.74861 6.04235 8.64225 6.12091C8.5359 6.19946 8.40847 6.24439 8.27637 6.2499H6.22607C6.09336 6.24413 5.96547 6.19854 5.85903 6.11907C5.75259 6.0396 5.67254 5.92992 5.6293 5.80433L5.45011 5.20036C6.03782 5.0458 6.64313 4.96835 7.25082 4.96997ZM2.26627 7.04986L2.70145 7.49704C2.78872 7.59744 2.84378 7.72177 2.85947 7.85388C2.87517 7.98598 2.85077 8.11975 2.78944 8.2378L1.76069 10.0137C1.68925 10.1258 1.58571 10.2137 1.46357 10.2661C1.34143 10.3184 1.20635 10.3328 1.07593 10.3073L0.461559 10.1593C0.782294 8.98158 1.40428 7.9077 2.26627 7.04346V7.04986ZM2.70145 16.5014L2.26867 16.9558C1.40628 16.0914 0.783527 15.0177 0.461559 13.8399L1.07593 13.6895C1.20635 13.664 1.34143 13.6784 1.46357 13.7308C1.58571 13.7831 1.68925 13.8711 1.76069 13.9831L2.78624 15.759C2.84845 15.8769 2.87364 16.0109 2.85851 16.1433C2.84338 16.2758 2.78864 16.4006 2.70145 16.5014ZM7.25402 19.0325C6.64619 19.033 6.04087 18.9545 5.45331 18.7989L5.6317 18.1933C5.67518 18.0677 5.7554 17.9581 5.86196 17.8786C5.96851 17.7992 6.09648 17.7536 6.22927 17.7477H8.27957C8.41224 17.7536 8.54009 17.7992 8.64651 17.8787C8.75292 17.9582 8.833 18.0678 8.87634 18.1933L9.05473 18.7989C8.46606 18.9544 7.85969 19.0329 7.25082 19.0325H7.25402ZM7.25402 17.2725C6.21149 17.2727 5.19233 16.9637 4.32543 16.3846C3.45852 15.8055 2.78281 14.9824 2.38374 14.0193C1.98467 13.0561 1.88018 11.9963 2.08347 10.9738C2.28675 9.95128 2.7887 9.01202 3.52582 8.27478C4.26294 7.53755 5.20213 7.03546 6.22462 6.83202C7.2471 6.62857 8.30695 6.73291 9.27013 7.13183C10.2333 7.53075 11.0566 8.20634 11.6358 9.07316C12.215 9.93998 12.5242 10.9591 12.5242 12.0016C12.5238 12.6938 12.3872 13.3792 12.122 14.0185C11.8568 14.6579 11.4683 15.2388 10.9786 15.728C10.489 16.2173 9.90772 16.6052 9.2681 16.8698C8.62848 17.1344 7.94301 17.2705 7.25082 17.2701L7.25402 17.2725ZM12.2394 16.9582L11.8074 16.5038C11.7202 16.4035 11.6652 16.2793 11.6495 16.1474C11.6338 16.0154 11.6581 15.8818 11.7194 15.7638L12.7449 13.9879C12.8164 13.8759 12.92 13.7879 13.0421 13.7354C13.1642 13.6829 13.2992 13.6683 13.4297 13.6935L14.0433 13.8423C13.7213 15.0194 13.0985 16.0923 12.2362 16.9558L12.2394 16.9582Z" fill="white"/>
<path d="M7.25081 7.16186C6.29384 7.1617 5.35833 7.44534 4.56257 7.9769C3.76682 8.50847 3.14658 9.26407 2.78029 10.1482C2.414 11.0323 2.31812 12.0051 2.50478 12.9437C2.69143 13.8823 3.15224 14.7444 3.82892 15.4211C4.50559 16.0978 5.36774 16.5586 6.30633 16.7452C7.24491 16.9319 8.21777 16.836 9.10186 16.4697C9.98595 16.1034 10.7416 15.4832 11.2731 14.6875C11.8047 13.8917 12.0883 12.9562 12.0882 11.9992C12.0882 11.364 11.963 10.7349 11.7199 10.148C11.4768 9.56115 11.1205 9.02788 10.6713 8.57869C10.2221 8.1295 9.68888 7.77318 9.10198 7.53008C8.51509 7.28698 7.88606 7.16186 7.25081 7.16186ZM9.98987 14.2767C9.97166 14.3055 9.94549 14.3284 9.91453 14.3426C9.88358 14.3568 9.84917 14.3617 9.81548 14.3567L7.62279 13.9319C7.55799 13.9183 7.53639 13.9527 7.57319 14.0119L8.72993 15.6918C8.76833 15.747 8.74433 15.7902 8.67874 15.7902H5.83248C5.76688 15.7902 5.74368 15.7462 5.78048 15.6918L6.94122 14.0095C6.97802 13.9543 6.95482 13.9199 6.89163 13.9295L4.73734 14.3463C4.70321 14.351 4.66844 14.346 4.63703 14.3319C4.60561 14.3177 4.57883 14.295 4.55974 14.2663L3.68859 12.7752C3.67269 12.7442 3.66563 12.7095 3.66817 12.6748C3.67071 12.64 3.68276 12.6067 3.70299 12.5784L7.18121 8.24501C7.18992 8.23326 7.20125 8.22372 7.21431 8.21714C7.22737 8.21056 7.24179 8.20714 7.25641 8.20714C7.27103 8.20714 7.28545 8.21056 7.2985 8.21714C7.31156 8.22372 7.3229 8.23326 7.3316 8.24501L10.7994 12.5648C10.8197 12.5935 10.8321 12.627 10.8352 12.662C10.8383 12.697 10.832 12.7322 10.817 12.764L9.98987 14.2767Z" fill="white"/>
</g>
<defs>
<clipPath id="clip0_1559_63833">
<rect width="80" height="24" fill="white"/>
</clipPath>
</defs>
</svg>
