<svg width="80" height="24" viewBox="0 0 80 24" fill="none" xmlns="http://www.w3.org/2000/svg">
<path fill-rule="evenodd" clip-rule="evenodd" d="M35 12C35 18.6274 29.6274 24 23 24C16.3726 24 11 18.6274 11 12C11 5.37258 16.3726 0 23 0C29.6274 0 35 5.37258 35 12ZM23.0202 6.34888H18.449V10.0181H16.8606V11.3325H18.449V12.7121H16.8606V14.0266H18.449V17.6513H23.0202C25.7693 17.6513 27.8606 16.171 28.6653 14.0266H30.1164V12.7121H28.9836C29.0113 12.4791 29.0256 12.2411 29.0256 11.9991V11.9668C29.0256 11.7518 29.0143 11.5402 28.9924 11.3325H30.1164V10.0181H28.6924C27.9083 7.84337 25.8006 6.34888 23.0202 6.34888ZM19.727 16.4721V14.0266H27.2652C26.5623 15.4926 25.0524 16.4721 23.0202 16.4721H19.727ZM19.727 12.7121H27.6566C27.6874 12.4908 27.7031 12.2635 27.7031 12.0314V11.9991C27.7031 11.7721 27.6881 11.5496 27.6587 11.3325H19.727V12.7121ZM27.2748 10.0181C26.5762 8.53137 25.0618 7.52606 23.0202 7.52606H19.727V10.0181H27.2748Z" fill="#FDC134"/>
<path d="M41 17.2144V6.78562C41 6.6059 41.0385 6.47497 41.1155 6.39281C41.1977 6.31065 41.3132 6.25931 41.4621 6.23877C41.6213 6.20796 41.8241 6.17972 42.0706 6.15404C42.3171 6.12323 42.5892 6.09756 42.887 6.07702C43.1849 6.05648 43.4981 6.03851 43.8267 6.02311C44.1605 6.0077 44.4917 6 44.8203 6C45.611 6 46.3145 6.1027 46.9307 6.30809C47.552 6.51348 48.0783 6.82413 48.5096 7.24005C48.9409 7.65597 49.2721 8.17715 49.5032 8.80359C49.7343 9.4249 49.8498 10.1515 49.8498 10.9833V13.0167C49.8498 13.8485 49.7343 14.5777 49.5032 15.2041C49.2721 15.8306 48.9409 16.3517 48.5096 16.7677C48.0783 17.1836 47.552 17.4942 46.9307 17.6996C46.3145 17.8999 45.611 18 44.8203 18C44.4968 18 44.1682 17.9923 43.8344 17.9769C43.5006 17.9615 43.1849 17.9435 42.887 17.923C42.5892 17.9024 42.3145 17.8793 42.0629 17.8537C41.8164 17.828 41.6162 17.7997 41.4621 17.7689C41.3132 17.7484 41.1977 17.697 41.1155 17.6149C41.0385 17.5276 41 17.3941 41 17.2144ZM43.7035 15.6816C43.8216 15.6919 43.9859 15.6996 44.1964 15.7048C44.4121 15.7099 44.62 15.7125 44.8203 15.7125C45.1797 15.7125 45.5006 15.6739 45.7831 15.5969C46.0655 15.5199 46.3094 15.3787 46.5148 15.1733C46.7202 14.9679 46.8768 14.6932 46.9846 14.3492C47.0976 14 47.154 13.5558 47.154 13.0167V10.9833C47.154 10.4493 47.0976 10.0077 46.9846 9.65854C46.8768 9.30937 46.7202 9.03466 46.5148 8.8344C46.3094 8.62901 46.0655 8.4878 45.7831 8.41078C45.5006 8.32863 45.1797 8.28755 44.8203 8.28755C44.62 8.28755 44.4121 8.29012 44.1964 8.29525C43.9807 8.30038 43.8164 8.30809 43.7035 8.31836V15.6816Z" fill="white"/>
<path d="M51.7399 17.6072C51.7399 17.5969 51.7425 17.5866 51.7476 17.5764C51.7528 17.5661 51.7553 17.5507 51.7553 17.5302L54.1045 7.7484C54.1969 7.36842 54.333 7.0629 54.5127 6.83184C54.6924 6.60077 54.9004 6.42619 55.1366 6.30809C55.3728 6.18485 55.627 6.1027 55.8991 6.06162C56.1764 6.02054 56.4511 6 56.7232 6C56.9954 6 57.265 6.02054 57.532 6.06162C57.8041 6.1027 58.0583 6.18485 58.2945 6.30809C58.5307 6.42619 58.7386 6.60334 58.9184 6.83954C59.0981 7.0706 59.2341 7.37356 59.3266 7.7484L61.6757 17.5302C61.6757 17.5507 61.6783 17.5661 61.6834 17.5764C61.6886 17.5866 61.6911 17.5969 61.6911 17.6072C61.6911 17.7766 61.6013 17.8614 61.4216 17.8614H59.2187C59.1366 17.8614 59.0673 17.8357 59.0108 17.7843C58.9594 17.733 58.9235 17.6637 58.903 17.5764L58.333 14.9884H55.0981L54.5281 17.5764C54.5076 17.6585 54.4716 17.7279 54.4203 17.7843C54.3689 17.8357 54.2996 17.8614 54.2123 17.8614H52.0095C51.8298 17.8614 51.7399 17.7766 51.7399 17.6072ZM55.5371 12.8318H57.894L56.9312 8.4724C56.9107 8.39024 56.8875 8.33119 56.8619 8.29525C56.8413 8.25931 56.7951 8.24134 56.7232 8.24134C56.6051 8.24134 56.5307 8.31836 56.4999 8.4724L55.5371 12.8318Z" fill="white"/>
<path d="M64.9858 17.5456V6.43902C64.9858 6.23877 65.0808 6.13864 65.2708 6.13864H67.3889C67.5892 6.13864 67.6893 6.23877 67.6893 6.43902V17.5456C67.6893 17.6277 67.6585 17.7022 67.5969 17.7689C67.5404 17.8306 67.4711 17.8614 67.3889 17.8614H65.2708C65.1887 17.8614 65.1193 17.8306 65.0628 17.7689C65.0115 17.7022 64.9858 17.6277 64.9858 17.5456Z" fill="white"/>
</svg>
