<svg width="80" height="24" viewBox="0 0 80 24" fill="none" xmlns="http://www.w3.org/2000/svg">
<path fill-rule="evenodd" clip-rule="evenodd" d="M26.641 9.04035C24.3864 9.49642 22.8411 11.4355 22.8461 13.7979C22.8461 13.8269 22.8454 13.8561 22.8447 13.8852C22.8432 13.9476 22.8417 14.01 22.8471 14.07C22.9203 14.9455 23.1092 15.7825 23.8284 16.376C24.7406 17.1338 26.1672 17.1517 27.2752 16.4117C27.5255 16.2425 27.6739 16.1802 27.756 16.5393C27.8242 16.8301 28.0162 16.8875 28.2981 16.8301C28.7033 16.747 29.1129 16.6869 29.5248 16.6501C29.7969 16.6273 29.8454 16.5531 29.7633 16.289C29.4656 15.3789 29.4208 14.405 29.6337 13.4714C29.885 12.4074 30.1422 11.3449 30.3993 10.2824L30.3994 10.2823L30.3994 10.2821L30.3994 10.282L30.3995 10.2819L30.3995 10.2818L30.3995 10.2817C30.4925 9.89731 30.5856 9.51289 30.6784 9.1284C30.9567 7.98345 31.2324 6.83948 31.5054 5.6965C31.5093 5.68032 31.514 5.66365 31.5188 5.64696C31.5513 5.53202 31.584 5.41637 31.3481 5.4561C30.7611 5.55635 30.1709 5.64704 29.5773 5.72816C29.3636 5.75784 29.2785 5.85479 29.231 6.06947C29.1297 6.52844 29.0192 6.98553 28.9087 7.44284L28.9087 7.44288C28.8067 7.86483 28.7047 8.28696 28.6097 8.71091C28.5524 8.96418 28.4693 9.073 28.1824 9.0077C27.6721 8.90868 27.1466 8.91981 26.641 9.04035ZM25.2333 14.6824C24.5675 13.4121 25.3718 10.6866 27.5205 10.741C27.536 10.7413 27.5514 10.7412 27.5668 10.7411C27.5975 10.7409 27.628 10.7406 27.659 10.7439C28.0913 10.7677 28.1012 10.7805 28.0023 11.197C27.9481 11.4247 27.8915 11.6518 27.835 11.8789C27.6263 12.7169 27.4177 13.5548 27.3266 14.4172C27.3254 14.4275 27.3253 14.4388 27.3252 14.4502V14.4502C27.3251 14.4749 27.3249 14.4999 27.3128 14.5161C27.1906 14.6903 27.031 14.8349 26.8455 14.9392C26.6601 15.0434 26.4536 15.1048 26.2414 15.1186C25.8357 15.1523 25.446 15.088 25.2333 14.6824ZM42.9112 15.9486C42.3875 16.1962 41.804 16.2889 41.2294 16.2158C39.9255 16.0525 39.1301 15.1552 39.0529 13.7821C38.9124 11.1624 40.5091 9.2659 43.1288 8.9236C44.2393 8.77849 45.3685 8.92193 46.4074 9.34009C46.5894 9.41132 46.6874 9.48651 46.632 9.71504C46.2999 11.0736 45.9726 12.4334 45.6453 13.793L45.6452 13.7937C45.4527 14.5932 45.2603 15.3928 45.0669 16.192C45.0117 16.4024 44.9456 16.6097 44.869 16.8133C44.3091 18.3833 43.1981 19.2776 41.5351 19.4448C40.4389 19.5546 39.3586 19.4894 38.3168 19.0491C38.0517 18.9373 38.0013 18.8384 38.1348 18.5792C38.3095 18.231 38.4612 17.8718 38.5889 17.5038C38.6799 17.2525 38.7699 17.1793 39.0509 17.306C39.8294 17.6654 40.7011 17.7713 41.543 17.6087C41.9267 17.5307 42.2721 17.3232 42.5211 17.021C42.7702 16.7188 42.9079 16.3402 42.9112 15.9486ZM41.2056 13.2914L41.2088 13.3491C41.2277 13.7043 41.2511 14.1437 41.7003 14.3697C42.2187 14.6279 42.7291 14.4963 43.2159 14.2421C43.2769 14.2098 43.3301 14.1645 43.3715 14.1092C43.4129 14.0539 43.4415 13.9902 43.4553 13.9225L43.5741 13.4268L43.5741 13.4265C43.7667 12.6224 43.9591 11.8187 44.1577 11.017C44.2151 10.7855 44.1359 10.7261 43.9104 10.7063C42.3493 10.5658 41.2165 11.6016 41.2056 13.2914ZM79.6199 13.4749L79.6199 13.4749L79.6198 13.4752C79.5648 13.7205 79.5097 13.9655 79.4479 14.2085C79.257 14.9623 79.072 15.7181 78.9048 16.4779C78.8583 16.6906 78.7703 16.7579 78.5586 16.7529C78.0194 16.7411 77.4782 16.7421 76.9381 16.7529C76.7194 16.7529 76.663 16.7045 76.7184 16.4769C77.0489 15.1206 77.3655 13.7603 77.68 12.401C77.7557 12.1242 77.7914 11.8381 77.7859 11.5512C77.7582 11.0308 77.4802 10.7499 76.9648 10.7212C76.0447 10.6697 75.9972 10.7083 75.7855 11.5977C75.6458 12.1848 75.505 12.7714 75.3641 13.3581L75.3638 13.3595L75.3634 13.3609L75.3632 13.362C75.1143 14.3983 74.8655 15.4346 74.6231 16.473C74.5756 16.6778 74.5014 16.7599 74.2838 16.7549C73.7436 16.7411 73.2035 16.744 72.6633 16.7549C72.4536 16.7549 72.3754 16.7163 72.4328 16.4829C72.7931 15.0137 73.1488 13.5408 73.5045 12.0679L73.5045 12.0678L73.5055 12.0639C73.7004 11.257 73.8952 10.4501 74.0909 9.64382L74.098 9.61348C74.12 9.51727 74.1419 9.42174 74.2699 9.37967C75.5194 8.96812 76.7926 8.75839 78.1025 8.97307C79.0918 9.1363 79.7378 9.70614 79.9376 10.7192C79.9417 10.7384 79.9596 10.7542 79.9774 10.7701C79.9854 10.7771 79.9933 10.7841 80 10.7914V12.032C79.8377 12.5042 79.7287 12.9899 79.6199 13.4747L79.6199 13.4747L79.6199 13.4747L79.6199 13.4748L79.6199 13.4748L79.6199 13.4749L79.6199 13.4749ZM63.9725 16.9439C62.0196 16.9439 60.9116 15.9101 60.8364 14.0066C60.7721 12.3723 61.3033 10.9339 62.5677 9.83079C63.5738 8.95229 64.754 8.69012 66.0451 8.96416C67.2322 9.21544 67.9732 10.0425 68.1345 11.3978C68.3521 13.2261 67.8377 14.8287 66.4022 16.0614C65.7335 16.653 64.865 16.9684 63.9725 16.9439ZM62.996 13.4734L62.9992 13.5809C63.0077 13.8795 63.0144 14.1138 63.0782 14.345C63.2404 14.9267 63.6371 15.1928 64.2366 15.1097C64.7798 15.0335 65.1577 14.714 65.4396 14.2747C65.9295 13.5175 66.1248 12.607 65.9887 11.7154C65.8897 10.9299 65.4218 10.5866 64.6472 10.737C64.3756 10.7949 64.1275 10.9327 63.9349 11.1327C63.2483 11.7995 63.0297 12.6404 62.996 13.4704V13.4734ZM31.0246 14.2282C31.173 16.0436 32.2553 16.9439 34.036 16.9439C34.9709 16.9379 35.6525 16.7262 36.3629 16.2148C37.927 15.0969 38.7501 12.676 38.1921 10.8369C37.92 9.94258 37.367 9.29755 36.4578 9.02945C35.3498 8.70595 34.2616 8.79696 33.2772 9.44001C31.5469 10.5678 30.8633 12.2496 31.0246 14.2282ZM36.1887 12.258C36.1857 12.2057 36.1834 12.1528 36.181 12.0995L36.181 12.0994C36.1764 11.9952 36.1718 11.8897 36.162 11.7847C36.071 10.824 35.2717 10.4066 34.4258 10.8814C34.2354 10.9885 34.0675 11.1312 33.9312 11.3019C33.2297 12.1833 33.0309 13.1915 33.2317 14.2698C33.3584 14.9564 33.8115 15.2126 34.5 15.083C34.7952 15.0285 35.066 14.8833 35.2746 14.6675C35.9349 14.0023 36.1577 13.1692 36.1887 12.258ZM50.2053 16.937C49.6038 16.9518 49.0557 16.9063 48.5363 16.6906C47.4708 16.2474 46.9692 15.4045 46.8307 14.3005C46.5567 12.1131 47.8705 9.55873 50.4091 8.97207C50.9905 8.82042 51.6007 8.81702 52.1839 8.96218C52.9832 9.18082 53.5689 9.65469 53.7499 10.4877C53.9547 11.4532 53.7193 12.312 52.9526 12.9758C52.3036 13.5367 51.5092 13.7603 50.6821 13.8899C50.1946 13.9713 49.7013 14.0133 49.207 14.0155C48.9884 14.0155 48.9587 14.0986 49.0092 14.2836C49.1368 14.7872 49.5395 15.087 50.1736 15.1275C50.8176 15.1744 51.4647 15.0978 52.08 14.902C52.3085 14.8268 52.3629 14.8931 52.3768 15.0998L52.3841 15.2152L52.3841 15.2153L52.3841 15.2153L52.3842 15.2154C52.4071 15.5775 52.4301 15.9393 52.4757 16.2979C52.5044 16.4957 52.4243 16.559 52.26 16.6095C51.5972 16.8284 50.9033 16.939 50.2053 16.937ZM49.6881 12.4915L49.6881 12.4915C49.8424 12.4768 50.0461 12.4575 50.2448 12.4188C50.6841 12.3327 51.1273 12.2407 51.4973 11.9637C51.6403 11.8563 51.746 11.7066 51.7992 11.5358C51.8525 11.365 51.8507 11.1817 51.7941 11.012C51.6645 10.6608 51.3707 10.5896 51.0422 10.5876C50.1904 10.5876 49.4465 11.1713 49.121 12.1052C48.9756 12.5276 48.9755 12.5276 49.5454 12.5059C49.5852 12.5012 49.6336 12.4966 49.6881 12.4915ZM56.2083 16.746C56.6574 16.8928 57.128 16.9627 57.6003 16.9528C57.8893 16.9456 58.1776 16.9221 58.464 16.8826C58.7025 16.8421 58.9363 16.7731 59.1699 16.7041L59.1699 16.7041C59.2561 16.6787 59.3422 16.6533 59.4285 16.6293C59.567 16.5907 59.6768 16.5403 59.6561 16.3503C59.6189 16.0188 59.5934 15.6856 59.5679 15.3528L59.5678 15.3525C59.5601 15.2514 59.5523 15.1503 59.5443 15.0494C59.5294 14.8713 59.4651 14.8149 59.2782 14.8861C58.8668 15.0391 58.4309 15.1149 57.9921 15.1097C57.0631 15.1127 56.6268 14.7061 56.5081 13.789C56.475 13.4595 56.4833 13.1271 56.5328 12.7997C56.6664 11.7006 57.3619 10.9091 58.3621 10.7439C58.9089 10.6422 59.4737 10.7066 59.9835 10.9289C60.1636 11.0091 60.2437 10.9635 60.3149 10.7894C60.4841 10.3769 60.6662 9.96831 60.8551 9.56368C60.9382 9.38758 60.9442 9.28569 60.7265 9.20951C59.1238 8.64165 57.5647 8.6832 56.1608 9.69427C54.571 10.8389 54.0754 12.4841 54.294 14.3638C54.4276 15.5371 55.0855 16.3404 56.2083 16.746ZM69.4856 16.753C69.394 16.753 69.3023 16.752 69.2105 16.751C69.0267 16.749 68.8426 16.747 68.6585 16.753C68.4439 16.7619 68.3835 16.7144 68.4409 16.4809C68.7311 15.297 69.0105 14.1101 69.2899 12.9235C69.3695 12.5851 69.4492 12.2466 69.5291 11.9083C69.6076 11.5726 69.688 11.2372 69.7685 10.9017L69.7685 10.9014C69.8907 10.3918 70.0129 9.882 70.1286 9.37077C70.1781 9.15114 70.2523 9.04727 70.5085 9.06013C71.0252 9.08684 71.543 9.08684 72.0597 9.06013C72.3644 9.0443 72.3674 9.16401 72.311 9.39649C71.7999 11.507 71.2917 13.6198 70.7865 15.735C70.7683 15.8113 70.748 15.8875 70.7277 15.9637L70.7277 15.9638C70.6831 16.1314 70.6385 16.299 70.6154 16.469C70.5817 16.7164 70.46 16.7658 70.2424 16.753C70.0756 16.7483 69.9076 16.7499 69.7391 16.7514C69.6546 16.7522 69.5701 16.753 69.4856 16.753ZM70.4108 7.01622C70.3959 7.68301 70.8589 8.11929 71.5831 8.12522C71.7787 8.13008 71.9734 8.0962 72.1559 8.02554C72.3383 7.95487 72.505 7.84881 72.6464 7.71346C72.7877 7.57811 72.9009 7.41615 72.9793 7.23689C73.0578 7.05763 73.1001 6.86462 73.1037 6.66897C73.1037 6.01109 72.6239 5.5659 71.9165 5.5659C71.1221 5.56689 70.4266 6.23764 70.4108 7.01622Z" fill="white"/>
<path d="M7.58111 8.65253H8.96613C9.48947 8.65253 12.126 8.86028 12.1309 12.1141C12.1358 15.3342 9.48198 15.3317 9.06168 15.3313C9.05729 15.3313 9.05313 15.3313 9.04923 15.3313V15.3452H7.58111V12.5751H9.79714V11.4226H7.58111V8.65253Z" fill="#C1A632"/>
<path fill-rule="evenodd" clip-rule="evenodd" d="M3.93202 4.64107C5.38696 3.66891 7.0975 3.15002 8.84734 3.15002C11.1938 3.15002 13.4442 4.08215 15.1034 5.74135C16.7625 7.40055 17.6947 9.6509 17.6947 11.9974C17.6947 13.7472 17.1758 15.4577 16.2036 16.9127C15.2315 18.3676 13.8497 19.5016 12.2331 20.1712C10.6164 20.8409 8.83753 21.0161 7.12131 20.6747C5.4051 20.3333 3.82865 19.4907 2.59133 18.2534C1.35401 17.016 0.511379 15.4396 0.170003 13.7234C-0.171373 12.0072 0.00383339 10.2283 0.673467 8.61163C1.3431 6.99499 2.47709 5.61323 3.93202 4.64107ZM5.57967 17.2901H9.12435C9.12435 17.2901 14.1114 17.7086 14.1114 12.0834C14.1114 6.68641 9.58203 6.70885 8.68864 6.71328C8.66594 6.71339 8.64559 6.71349 8.62772 6.71349H5.57967V11.4236H4.33018V12.5791H5.57967V17.2901Z" fill="#C1A632"/>
</svg>
