<svg width="80" height="24" viewBox="0 0 80 24" fill="none" xmlns="http://www.w3.org/2000/svg">
<path d="M26.9169 10.1579H26.0385V8.68375C26.0392 8.57936 26.0173 8.47606 25.9742 8.38096C25.9312 8.28585 25.8681 8.2012 25.7892 8.13281C25.7073 8.06316 25.6112 8.01221 25.5076 7.9835C25.404 7.9548 25.2953 7.94904 25.1893 7.96661C25.0204 7.99622 24.8677 8.08499 24.7583 8.21701C24.649 8.34903 24.5902 8.51567 24.5926 8.68707V10.1546H23.7675C23.5762 10.1572 23.3934 10.2344 23.2582 10.3697C23.123 10.5051 23.0461 10.6879 23.0437 10.8792C23.0427 10.9745 23.0607 11.0691 23.0967 11.1573C23.1328 11.2456 23.186 11.3258 23.2534 11.3932C23.3209 11.4606 23.401 11.5139 23.4893 11.5499C23.5776 11.5859 23.6721 11.604 23.7675 11.603H24.5926V16.4301C24.5928 16.6221 24.6691 16.8062 24.8048 16.942C24.9405 17.0778 25.1244 17.1543 25.3164 17.1547C25.5077 17.1522 25.6904 17.075 25.8256 16.9396C25.9608 16.8042 26.0378 16.6214 26.0402 16.4301V11.6063H26.9185C27.0139 11.6074 27.1086 11.5895 27.1969 11.5535C27.2853 11.5175 27.3656 11.4643 27.4331 11.3968C27.5006 11.3294 27.5539 11.2492 27.59 11.1609C27.6261 11.0725 27.6441 10.9779 27.6431 10.8825C27.643 10.7872 27.6242 10.6929 27.5876 10.605C27.551 10.517 27.4975 10.4371 27.4301 10.3698C27.3626 10.3025 27.2826 10.2492 27.1945 10.2128C27.1065 10.1764 27.0121 10.1578 26.9169 10.1579Z" fill="white"/>
<path d="M17.8866 10.0357H17.8808C16.0194 10.0357 14.5054 11.6553 14.5054 13.6463C14.5054 15.6374 16.0194 17.257 17.8808 17.257C19.1273 17.257 20.2466 16.6611 20.7967 15.7022L20.8092 15.6781C20.8852 15.5359 20.9121 15.3726 20.8856 15.2136C20.866 15.0956 20.817 14.9845 20.7433 14.8905C20.6695 14.7964 20.5733 14.7223 20.4635 14.6751C20.307 14.6074 20.1316 14.5969 19.9681 14.6455C19.8046 14.6941 19.6634 14.7988 19.5694 14.941C19.1539 15.5368 18.632 15.8019 17.8841 15.8019C16.975 15.8019 16.3402 15.1296 16.0859 14.3668H20.5458C20.7399 14.367 20.9261 14.2902 21.0637 14.1533C21.2012 14.0164 21.2789 13.8305 21.2795 13.6364C21.2712 11.6487 19.7513 10.0357 17.8866 10.0357ZM16.0859 12.9192C16.3393 12.1564 16.9725 11.4833 17.8866 11.4833C18.7791 11.4833 19.4356 12.1481 19.689 12.9192H16.0859Z" fill="white"/>
<path d="M32.8293 10.0524C32.2412 10.0523 31.6682 10.2391 31.1931 10.5858V5.85342C31.1929 5.66153 31.1166 5.47756 30.9809 5.34187C30.8452 5.20618 30.6613 5.12986 30.4694 5.12964C30.2781 5.132 30.0952 5.20899 29.9599 5.3442C29.8245 5.4794 29.7473 5.66212 29.7447 5.85342V16.4027C29.744 16.5072 29.7659 16.6107 29.8089 16.7059C29.852 16.8012 29.9151 16.886 29.994 16.9545C30.076 17.024 30.1722 17.0748 30.2758 17.1035C30.3793 17.1322 30.4879 17.1381 30.594 17.1207C30.763 17.091 30.9159 17.0021 31.0252 16.87C31.1346 16.7378 31.1932 16.5709 31.1906 16.3994V13.9895C31.1906 13.9796 31.1906 13.9314 31.1832 13.8749C31.1832 13.8358 31.1749 13.7918 31.174 13.7743V13.7444C31.1267 13.014 31.3161 12.3633 31.6942 11.9611C31.9767 11.6595 32.359 11.5057 32.831 11.5057C33.7575 11.5057 34.1797 12.3833 34.1797 13.1984V16.4027C34.1786 16.4981 34.1965 16.5928 34.2325 16.6811C34.2684 16.7695 34.3217 16.8498 34.3891 16.9173C34.4566 16.9848 34.5368 17.0381 34.6251 17.0742C34.7134 17.1103 34.8081 17.1283 34.9034 17.1273C35.0954 17.1269 35.2794 17.0504 35.415 16.9145C35.5507 16.7787 35.627 16.5947 35.6272 16.4027V13.1926C35.6289 11.6703 34.6483 10.0524 32.8293 10.0524Z" fill="white"/>
<path d="M66.7482 10.2252L66.7324 10.2202C66.6252 10.1879 66.5118 10.1813 66.4015 10.2009C66.2912 10.2206 66.1871 10.2659 66.0975 10.3332C66.0065 10.4006 65.9324 10.4882 65.8811 10.5892C65.8297 10.6902 65.8026 10.8017 65.8017 10.9149V12.9708C65.8017 14.3045 65.6172 15.8351 64.1822 15.8351C63.2556 15.8351 62.8335 14.9585 62.8335 14.1433V10.9182C62.8333 10.7263 62.7569 10.5424 62.6213 10.4067C62.4856 10.271 62.3016 10.1947 62.1097 10.1945C61.9186 10.197 61.736 10.2741 61.6008 10.4093C61.4656 10.5445 61.3885 10.7271 61.3859 10.9182V14.1466C61.3859 14.9568 61.6352 15.7171 62.0906 16.2889C62.3102 16.563 62.582 16.7909 62.8902 16.9594C63.1984 17.1279 63.5369 17.2337 63.8862 17.2706C64.2355 17.3075 64.5887 17.2749 64.9253 17.1745C65.2619 17.0742 65.5753 16.9082 65.8474 16.6861C65.8974 16.8264 65.9899 16.9476 66.1121 17.0328C66.2342 17.118 66.3799 17.1629 66.5288 17.1614C66.7209 17.1612 66.905 17.0847 67.0407 16.9489C67.1764 16.813 67.2526 16.6288 67.2526 16.4368V10.9282C67.2529 10.7729 67.2043 10.6215 67.1138 10.4954C67.0233 10.3692 66.8954 10.2747 66.7482 10.2252Z" fill="white"/>
<path d="M41.2703 10.0357H41.2645C39.4031 10.0357 37.8883 11.6553 37.8883 13.6463C37.8883 15.6374 39.4031 17.257 41.2645 17.257C42.511 17.257 43.6303 16.6611 44.1804 15.7022L44.1929 15.6781C44.2689 15.5359 44.2958 15.3726 44.2693 15.2136C44.2497 15.0956 44.2008 14.9845 44.127 14.8905C44.0532 14.7964 43.957 14.7223 43.8472 14.6751C43.6907 14.6074 43.5153 14.5969 43.3518 14.6455C43.1883 14.6941 43.0472 14.7988 42.9531 14.941C42.5376 15.5368 42.0157 15.8019 41.2678 15.8019C40.3588 15.8019 39.7239 15.1296 39.4696 14.3668H43.9286C44.1228 14.367 44.3092 14.2903 44.4468 14.1534C44.5845 14.0165 44.6623 13.8305 44.6632 13.6364C44.6591 11.6487 43.1376 10.0357 41.2703 10.0357ZM39.4696 12.9192C39.7239 12.1556 40.3588 11.4833 41.2678 11.4833C42.1603 11.4833 42.8168 12.1481 43.0702 12.9192H39.4696Z" fill="white"/>
<path d="M77.2019 10.0524C76.768 10.0534 76.3401 10.1546 75.9517 10.348C75.5633 10.5415 75.2247 10.8219 74.9624 11.1675C74.716 10.8205 74.3893 10.5382 74.0102 10.3447C73.6311 10.1512 73.2108 10.0524 72.7852 10.0565C72.1767 10.0557 71.5845 10.2532 71.0983 10.6191C71.0555 10.5106 70.9867 10.4141 70.8981 10.3382C70.8162 10.2686 70.72 10.2176 70.6164 10.1889C70.5128 10.1602 70.4042 10.1544 70.2981 10.172C70.1293 10.2016 69.9765 10.2904 69.8672 10.4224C69.7578 10.5544 69.6991 10.7211 69.7015 10.8925V16.4027C69.7007 16.5072 69.7225 16.6107 69.7656 16.7059C69.8086 16.8012 69.8718 16.886 69.9508 16.9545C70.0838 17.067 70.2527 17.1283 70.4269 17.1273C70.4676 17.1273 70.5081 17.1239 70.5482 17.1174C70.7183 17.089 70.8725 17.0006 70.983 16.8683C71.0936 16.736 71.153 16.5684 71.1507 16.3961V14.0261C71.1596 13.9619 71.1596 13.8967 71.1507 13.8325V13.8267C71.1208 12.9649 71.3028 12.3035 71.6775 11.9154C71.9459 11.6379 72.3091 11.4999 72.7869 11.4999C73.8514 11.4999 74.1356 12.5519 74.1356 13.1727V16.4027C74.1345 16.4981 74.1524 16.5928 74.1884 16.6811C74.2243 16.7695 74.2776 16.8498 74.345 16.9173C74.4125 16.9848 74.4927 17.0381 74.581 17.0742C74.6693 17.1103 74.764 17.1283 74.8593 17.1273C75.0514 17.1271 75.2355 17.0507 75.3712 16.9148C75.5069 16.7789 75.5831 16.5947 75.5831 16.4027V13.9098C75.5831 13.0788 75.9222 11.4999 77.2035 11.4999C78.2672 11.4999 78.5514 12.5519 78.5514 13.1727V16.4027C78.5503 16.4981 78.5682 16.5928 78.6042 16.6811C78.6402 16.7695 78.6934 16.8498 78.7608 16.9173C78.8283 16.9848 78.9085 17.0381 78.9968 17.0742C79.0851 17.1103 79.1798 17.1283 79.2752 17.1273C79.4673 17.1271 79.6515 17.0507 79.7873 16.9148C79.9232 16.779 79.9996 16.5948 79.9998 16.4027V13.1727C80.0014 11.6603 79.0201 10.0524 77.2019 10.0524Z" fill="white"/>
<path d="M55.7335 10.0357H55.7269C53.8655 10.0357 52.3514 11.6553 52.3514 13.6463C52.3514 15.6374 53.8655 17.257 55.7269 17.257C56.9733 17.257 58.0935 16.6611 58.6428 15.7022L58.6561 15.6781C58.7321 15.5359 58.759 15.3726 58.7325 15.2136C58.7129 15.0956 58.6639 14.9845 58.5902 14.8905C58.5164 14.7964 58.4202 14.7223 58.3104 14.6751C58.1538 14.6074 57.9785 14.5969 57.815 14.6455C57.6515 14.6941 57.5103 14.7988 57.4162 14.941C57.0008 15.5368 56.4789 15.8019 55.7302 15.8019C54.8219 15.8019 54.1871 15.1296 53.9328 14.3668H58.3885C58.5827 14.367 58.769 14.2903 58.9067 14.1534C59.0444 14.0165 59.1222 13.8305 59.1231 13.6364C59.1189 11.6487 57.5982 10.0357 55.7335 10.0357ZM53.9328 12.9192C54.1871 12.1556 54.8219 11.4833 55.7302 11.4833C56.6235 11.4833 57.28 12.1481 57.5334 12.9192H53.9328Z" fill="white"/>
<path d="M50.0979 10.1612C49.4912 10.1612 48.9237 10.4155 48.4592 10.7786C48.434 10.6071 48.3482 10.4502 48.2174 10.3366C48.1354 10.267 48.0393 10.2161 47.9357 10.1874C47.8321 10.1587 47.7235 10.1529 47.6174 10.1704C47.4485 10.1999 47.2956 10.2887 47.1861 10.4207C47.0767 10.5527 47.0177 10.7193 47.0199 10.8908V16.3828C47.0191 16.4784 47.0374 16.5733 47.0738 16.6617C47.1101 16.7502 47.1638 16.8306 47.2316 16.8981C47.2994 16.9655 47.38 17.0188 47.4686 17.0548C47.5573 17.0907 47.6522 17.1086 47.7478 17.1074C47.7893 17.1073 47.8307 17.104 47.8717 17.0974C48.0406 17.0678 48.1935 16.9789 48.3029 16.8467C48.4122 16.7145 48.4709 16.5476 48.4683 16.3761V13.9663C48.4683 13.3322 48.6345 11.8323 50.2051 11.6046C50.3856 11.5848 50.5521 11.4977 50.6713 11.3607C50.7905 11.2236 50.8537 11.0466 50.8482 10.8651C50.8482 10.7734 50.8297 10.6828 50.7937 10.5985C50.7577 10.5142 50.705 10.4381 50.6388 10.3748C50.4935 10.2353 50.2992 10.1586 50.0979 10.1612Z" fill="white"/>
<path fill-rule="evenodd" clip-rule="evenodd" d="M5.75089 2.65002L5.60889 3.07603V15.4303L5.75089 15.5723L11.4783 12.1879L5.75089 2.65002Z" fill="#343434"/>
<path fill-rule="evenodd" clip-rule="evenodd" d="M5.75092 16.661L5.65625 16.732V21.1341L5.75092 21.3471L11.4784 13.2529L5.75092 16.661Z" fill="#3C3C3B"/>
<path fill-rule="evenodd" clip-rule="evenodd" d="M5.75111 2.65002L0 12.1879L5.75111 15.5723V2.65002Z" fill="#8C8C8C"/>
<path fill-rule="evenodd" clip-rule="evenodd" d="M5.75111 21.3471V16.661L0 13.2529L5.75111 21.3471Z" fill="#8C8C8C"/>
<path fill-rule="evenodd" clip-rule="evenodd" d="M5.75098 15.5722L11.4784 12.1878L5.75098 9.56079V15.5722Z" fill="#141414"/>
<path fill-rule="evenodd" clip-rule="evenodd" d="M0 12.1878L5.75111 15.5722V9.56079L0 12.1878Z" fill="#393939"/>
</svg>
