<svg width="80" height="24" viewBox="0 0 80 24" fill="none" xmlns="http://www.w3.org/2000/svg">
<path d="M26.9171 10.1579H26.0388V8.68375C26.0395 8.57936 26.0175 8.47606 25.9745 8.38096C25.9315 8.28585 25.8683 8.2012 25.7895 8.13281C25.7076 8.06316 25.6115 8.01221 25.5078 7.9835C25.4042 7.9548 25.2956 7.94904 25.1895 7.96661C25.0207 7.99622 24.8679 8.08499 24.7586 8.21701C24.6492 8.34903 24.5905 8.51567 24.5929 8.68707V10.1546H23.7677C23.5764 10.1572 23.3937 10.2344 23.2585 10.3697C23.1233 10.5051 23.0463 10.6879 23.0439 10.8792C23.0429 10.9745 23.061 11.0691 23.097 11.1573C23.133 11.2456 23.1863 11.3258 23.2537 11.3932C23.3211 11.4606 23.4013 11.5139 23.4896 11.5499C23.5778 11.5859 23.6724 11.604 23.7677 11.603H24.5929V16.4301C24.5931 16.6221 24.6694 16.8062 24.8051 16.942C24.9407 17.0778 25.1247 17.1543 25.3167 17.1547C25.5079 17.1522 25.6907 17.075 25.8259 16.9396C25.9611 16.8042 26.0381 16.6214 26.0404 16.4301V11.6063H26.9188C27.0142 11.6074 27.1088 11.5895 27.1972 11.5535C27.2855 11.5175 27.3658 11.4643 27.4333 11.3968C27.5008 11.3294 27.5542 11.2492 27.5902 11.1609C27.6263 11.0725 27.6444 10.9779 27.6434 10.8825C27.6433 10.7872 27.6244 10.6929 27.5878 10.605C27.5513 10.517 27.4978 10.4371 27.4303 10.3698C27.3629 10.3025 27.2828 10.2492 27.1948 10.2128C27.1067 10.1764 27.0124 10.1578 26.9171 10.1579Z" fill="white"/>
<path d="M17.8869 10.0357H17.8811C16.0197 10.0357 14.5056 11.6553 14.5056 13.6463C14.5056 15.6374 16.0197 17.257 17.8811 17.257C19.1275 17.257 20.2468 16.6611 20.797 15.7022L20.8094 15.6781C20.8855 15.5359 20.9124 15.3726 20.8859 15.2136C20.8662 15.0956 20.8173 14.9845 20.7435 14.8905C20.6698 14.7964 20.5736 14.7223 20.4637 14.6751C20.3072 14.6074 20.1318 14.5969 19.9683 14.6455C19.8049 14.6941 19.6637 14.7988 19.5696 14.941C19.1541 15.5368 18.6323 15.8019 17.8844 15.8019C16.9753 15.8019 16.3404 15.1296 16.0861 14.3668H20.546C20.7401 14.367 20.9264 14.2902 21.0639 14.1533C21.2015 14.0164 21.2791 13.8305 21.2798 13.6364C21.2714 11.6487 19.7516 10.0357 17.8869 10.0357ZM16.0861 12.9192C16.3396 12.1564 16.9728 11.4833 17.8869 11.4833C18.7793 11.4833 19.4358 12.1481 19.6893 12.9192H16.0861Z" fill="white"/>
<path d="M32.8296 10.0524C32.2414 10.0523 31.6685 10.2391 31.1934 10.5858V5.85342C31.1932 5.66153 31.1168 5.47756 30.9812 5.34187C30.8455 5.20618 30.6615 5.12986 30.4696 5.12964C30.2783 5.132 30.0955 5.20899 29.9601 5.3442C29.8248 5.4794 29.7476 5.66212 29.745 5.85342V16.4027C29.7442 16.5072 29.7661 16.6107 29.8092 16.7059C29.8522 16.8012 29.9154 16.886 29.9943 16.9545C30.0763 17.024 30.1724 17.0748 30.276 17.1035C30.3796 17.1322 30.4882 17.1381 30.5943 17.1207C30.7632 17.091 30.9161 17.0021 31.0255 16.87C31.1348 16.7378 31.1935 16.5709 31.1909 16.3994V13.9895C31.1909 13.9796 31.1909 13.9314 31.1834 13.8749C31.1834 13.8358 31.1751 13.7918 31.1743 13.7743V13.7444C31.1269 13.014 31.3164 12.3633 31.6945 11.9611C31.977 11.6595 32.3592 11.5057 32.8312 11.5057C33.7578 11.5057 34.1799 12.3833 34.1799 13.1984V16.4027C34.1788 16.4981 34.1968 16.5928 34.2327 16.6811C34.2687 16.7695 34.322 16.8498 34.3894 16.9173C34.4568 16.9848 34.537 17.0381 34.6253 17.0742C34.7137 17.1103 34.8083 17.1283 34.9037 17.1273C35.0957 17.1269 35.2796 17.0504 35.4153 16.9145C35.551 16.7787 35.6273 16.5947 35.6275 16.4027V13.1926C35.6291 11.6703 34.6486 10.0524 32.8296 10.0524Z" fill="white"/>
<path d="M66.7484 10.2252L66.7327 10.2202C66.6254 10.1879 66.512 10.1813 66.4017 10.2009C66.2915 10.2206 66.1873 10.2659 66.0978 10.3332C66.0068 10.4006 65.9327 10.4882 65.8813 10.5892C65.83 10.6902 65.8028 10.8017 65.802 10.9149V12.9708C65.802 14.3045 65.6175 15.8351 64.1824 15.8351C63.2559 15.8351 62.8337 14.9585 62.8337 14.1433V10.9182C62.8335 10.7263 62.7572 10.5424 62.6215 10.4067C62.4858 10.271 62.3018 10.1947 62.11 10.1945C61.9188 10.197 61.7362 10.2741 61.601 10.4093C61.4658 10.5445 61.3887 10.7271 61.3862 10.9182V14.1466C61.3862 14.9568 61.6355 15.7171 62.0908 16.2889C62.3105 16.563 62.5822 16.7909 62.8904 16.9594C63.1986 17.1279 63.5371 17.2337 63.8865 17.2706C64.2358 17.3075 64.5889 17.2749 64.9255 17.1745C65.2622 17.0742 65.5756 16.9082 65.8477 16.6861C65.8977 16.8264 65.9902 16.9476 66.1123 17.0328C66.2345 17.118 66.3801 17.1629 66.5291 17.1614C66.7211 17.1612 66.9052 17.0847 67.0409 16.9489C67.1766 16.813 67.2529 16.6288 67.2529 16.4368V10.9282C67.2531 10.7729 67.2045 10.6215 67.114 10.4954C67.0235 10.3692 66.8956 10.2747 66.7484 10.2252Z" fill="white"/>
<path d="M41.2706 10.0357H41.2648C39.4034 10.0357 37.8885 11.6553 37.8885 13.6463C37.8885 15.6374 39.4034 17.257 41.2648 17.257C42.5112 17.257 43.6306 16.6611 44.1807 15.7022L44.1931 15.6781C44.2692 15.5359 44.2961 15.3726 44.2696 15.2136C44.2499 15.0956 44.201 14.9845 44.1272 14.8905C44.0535 14.7964 43.9573 14.7223 43.8475 14.6751C43.6909 14.6074 43.5155 14.5969 43.3521 14.6455C43.1886 14.6941 43.0474 14.7988 42.9533 14.941C42.5378 15.5368 42.016 15.8019 41.2681 15.8019C40.359 15.8019 39.7241 15.1296 39.4699 14.3668H43.9289C44.1231 14.367 44.3094 14.2903 44.4471 14.1534C44.5848 14.0165 44.6626 13.8305 44.6635 13.6364C44.6593 11.6487 43.1378 10.0357 41.2706 10.0357ZM39.4699 12.9192C39.7241 12.1556 40.359 11.4833 41.2681 11.4833C42.1606 11.4833 42.817 12.1481 43.0705 12.9192H39.4699Z" fill="white"/>
<path d="M77.2021 10.0524C76.7682 10.0534 76.3404 10.1546 75.952 10.348C75.5635 10.5415 75.225 10.8219 74.9626 11.1675C74.7163 10.8205 74.3896 10.5382 74.0105 10.3447C73.6314 10.1512 73.2111 10.0524 72.7855 10.0565C72.177 10.0557 71.5848 10.2532 71.0986 10.6191C71.0557 10.5106 70.987 10.4141 70.8983 10.3382C70.8164 10.2686 70.7203 10.2176 70.6167 10.1889C70.5131 10.1602 70.4044 10.1544 70.2983 10.172C70.1295 10.2016 69.9767 10.2904 69.8674 10.4224C69.7581 10.5544 69.6993 10.7211 69.7017 10.8925V16.4027C69.7009 16.5072 69.7228 16.6107 69.7658 16.7059C69.8088 16.8012 69.872 16.886 69.951 16.9545C70.0841 17.067 70.2529 17.1283 70.4272 17.1273C70.4678 17.1273 70.5084 17.1239 70.5485 17.1174C70.7185 17.089 70.8728 17.0006 70.9833 16.8683C71.0938 16.736 71.1533 16.5684 71.1509 16.3961V14.0261C71.1598 13.9619 71.1598 13.8967 71.1509 13.8325V13.8267C71.121 12.9649 71.303 12.3035 71.6778 11.9154C71.9462 11.6379 72.3093 11.4999 72.7871 11.4999C73.8516 11.4999 74.1358 12.5519 74.1358 13.1727V16.4027C74.1347 16.4981 74.1527 16.5928 74.1886 16.6811C74.2246 16.7695 74.2779 16.8498 74.3453 16.9173C74.4127 16.9848 74.4929 17.0381 74.5812 17.0742C74.6696 17.1103 74.7642 17.1283 74.8596 17.1273C75.0516 17.1271 75.2357 17.0507 75.3714 16.9148C75.5072 16.7789 75.5834 16.5947 75.5834 16.4027V13.9098C75.5834 13.0788 75.9224 11.4999 77.2038 11.4999C78.2674 11.4999 78.5516 12.5519 78.5516 13.1727V16.4027C78.5505 16.4981 78.5685 16.5928 78.6044 16.6811C78.6404 16.7695 78.6937 16.8498 78.7611 16.9173C78.8285 16.9848 78.9087 17.0381 78.9971 17.0742C79.0854 17.1103 79.18 17.1283 79.2754 17.1273C79.4675 17.1271 79.6517 17.0507 79.7876 16.9148C79.9234 16.779 79.9998 16.5948 80 16.4027V13.1727C80.0017 11.6603 79.0203 10.0524 77.2021 10.0524Z" fill="white"/>
<path d="M55.7338 10.0357H55.7271C53.8657 10.0357 52.3517 11.6553 52.3517 13.6463C52.3517 15.6374 53.8657 17.257 55.7271 17.257C56.9736 17.257 58.0937 16.6611 58.643 15.7022L58.6563 15.6781C58.7324 15.5359 58.7592 15.3726 58.7328 15.2136C58.7131 15.0956 58.6642 14.9845 58.5904 14.8905C58.5167 14.7964 58.4204 14.7223 58.3106 14.6751C58.1541 14.6074 57.9787 14.5969 57.8152 14.6455C57.6517 14.6941 57.5106 14.7988 57.4165 14.941C57.001 15.5368 56.4791 15.8019 55.7304 15.8019C54.8222 15.8019 54.1873 15.1296 53.933 14.3668H58.3887C58.5829 14.367 58.7692 14.2903 58.9069 14.1534C59.0446 14.0165 59.1224 13.8305 59.1233 13.6364C59.1192 11.6487 57.5985 10.0357 55.7338 10.0357ZM53.933 12.9192C54.1873 12.1556 54.8222 11.4833 55.7304 11.4833C56.6237 11.4833 57.2802 12.1481 57.5337 12.9192H53.933Z" fill="white"/>
<path d="M50.0981 10.1612C49.4915 10.1612 48.9239 10.4155 48.4594 10.7786C48.4343 10.6071 48.3485 10.4502 48.2176 10.3366C48.1356 10.267 48.0395 10.2161 47.9359 10.1874C47.8323 10.1587 47.7237 10.1529 47.6176 10.1704C47.4487 10.1999 47.2958 10.2887 47.1864 10.4207C47.0769 10.5527 47.018 10.7193 47.0202 10.8908V16.3828C47.0194 16.4784 47.0377 16.5733 47.074 16.6617C47.1104 16.7502 47.164 16.8306 47.2318 16.8981C47.2996 16.9655 47.3802 17.0188 47.4689 17.0548C47.5575 17.0907 47.6524 17.1086 47.7481 17.1074C47.7896 17.1073 47.831 17.104 47.8719 17.0974C48.0409 17.0678 48.1938 16.9789 48.3031 16.8467C48.4125 16.7145 48.4711 16.5476 48.4686 16.3761V13.9663C48.4686 13.3322 48.6347 11.8323 50.2053 11.6046C50.3859 11.5848 50.5524 11.4977 50.6716 11.3607C50.7908 11.2236 50.8539 11.0466 50.8485 10.8651C50.8485 10.7734 50.8299 10.6828 50.7939 10.5985C50.7579 10.5142 50.7053 10.4381 50.6391 10.3748C50.4938 10.2353 50.2995 10.1586 50.0981 10.1612Z" fill="white"/>
<path fill-rule="evenodd" clip-rule="evenodd" d="M5.75113 2.65002L5.60913 3.07603V15.4303L5.75113 15.5723L11.4786 12.1879L5.75113 2.65002Z" fill="#343434"/>
<path fill-rule="evenodd" clip-rule="evenodd" d="M5.75116 16.661L5.65649 16.732V21.1341L5.75116 21.3471L11.4786 13.2529L5.75116 16.661Z" fill="#3C3C3B"/>
<path fill-rule="evenodd" clip-rule="evenodd" d="M5.75111 2.65002L0 12.1879L5.75111 15.5723V2.65002Z" fill="#8C8C8C"/>
<path fill-rule="evenodd" clip-rule="evenodd" d="M5.75111 21.3471V16.661L0 13.2529L5.75111 21.3471Z" fill="#8C8C8C"/>
<path fill-rule="evenodd" clip-rule="evenodd" d="M5.75122 15.5722L11.4787 12.1878L5.75122 9.56079V15.5722Z" fill="#141414"/>
<path fill-rule="evenodd" clip-rule="evenodd" d="M0 12.1878L5.75111 15.5722V9.56079L0 12.1878Z" fill="#393939"/>
</svg>
