<svg width="80" height="24" viewBox="0 0 80 24" fill="none" xmlns="http://www.w3.org/2000/svg">
<path d="M28.8798 3.92436C25.8107 4.31829 22.7564 5.59195 21.6208 8.20949H30.8707L29.8428 10.5913H21.032C20.9864 11.0203 20.9655 11.4515 20.9695 11.8828C20.9641 12.3372 21.0057 12.7909 21.0936 13.2368H28.6292L27.6014 15.6345H22.0421C23.3037 17.7172 26.5211 19.0693 29.889 19.2261C30.9443 18.2149 31.7654 16.9849 32.2946 15.6225C32.8237 14.2601 33.0481 12.7983 32.9519 11.3399C32.8558 9.88154 32.4414 8.4619 31.7379 7.18078C31.0344 5.89966 30.0588 4.78815 28.8798 3.92436ZM12.9995 12.0006C12.9982 13.657 13.4087 15.2877 14.194 16.7461C14.9794 18.2044 16.115 19.4447 17.4987 20.3552C18.8823 21.2657 20.4706 21.8179 22.1207 21.9622C23.7708 22.1065 25.4309 21.8383 26.9516 21.1818C26.4692 21.1324 25.9898 21.0577 25.5153 20.9581C24.5016 20.746 23.5221 20.3949 22.6044 19.9148C20.8319 19.0105 19.4527 17.4873 18.7281 15.634H15.3968L16.4068 13.2363H18.1365C18.0761 12.7665 18.0451 12.2934 18.0436 11.8198C18.0436 11.3632 18.0597 10.9535 18.0917 10.5909H15.3982L16.4083 8.20901H18.5727C19.2229 6.23856 20.5822 4.58003 22.3865 3.55544C23.3572 2.98423 24.411 2.56798 25.51 2.32171C24.0319 1.93749 22.4853 1.89711 20.9891 2.20367C19.4929 2.51022 18.0868 3.15556 16.8788 4.09013C15.6708 5.02469 14.6931 6.22364 14.0206 7.59493C13.3481 8.96621 12.9988 10.4734 12.9995 12.0006Z" fill="url(#paint0_linear_899_31000)"/>
<path d="M40.0138 16.1891C39.5252 16.1998 39.0429 16.0769 38.619 15.8337C38.2197 15.597 38.0201 15.1122 38.0201 14.3792V9.79343C37.9943 9.52894 38.0299 9.26206 38.1242 9.0136C38.2185 8.76514 38.3689 8.54182 38.5637 8.36104C38.9413 8.06187 39.4119 7.9046 39.8936 7.91661C41.0242 7.91661 42.2067 7.96471 43.4409 8.06091V9.43798H40.3818C39.9008 9.43798 39.6603 9.66388 39.6603 10.1157V11.3033L42.9084 11.3922V12.6909L39.6603 12.7799V13.9126C39.6603 14.401 39.8896 14.6452 40.3481 14.6452H43.4404V16.0232C42.3026 16.1418 41.1592 16.1972 40.0153 16.1891H40.0138ZM48.8357 16.1887C48.0048 16.2397 47.1779 16.0385 46.4634 15.6115C45.9087 15.2187 45.6315 14.5118 45.6318 13.4908V7.91661H47.2729V13.4797C47.2566 13.6568 47.2834 13.8351 47.351 13.9995C47.4185 14.164 47.525 14.3096 47.6611 14.4239C48.0136 14.6391 48.4241 14.7399 48.8361 14.7125C49.2448 14.7413 49.6522 14.6403 50.0001 14.4239C50.1362 14.3095 50.2425 14.1639 50.3101 13.9995C50.3777 13.8351 50.4045 13.6567 50.3883 13.4797V7.91661H52.04V13.4913C52.04 14.5123 51.7593 15.2191 51.1978 15.612C50.4866 16.0381 49.6632 16.2391 48.8357 16.1887ZM57.555 11.7698C57.6887 11.7785 57.8227 11.7593 57.9486 11.7135C58.0745 11.6676 58.1894 11.596 58.2861 11.5033C58.4837 11.2262 58.5743 10.8869 58.541 10.5481C58.5773 10.2265 58.4858 9.90344 58.2861 9.64865C58.1877 9.55919 58.0722 9.4905 57.9465 9.4467C57.8209 9.4029 57.6878 9.38488 57.555 9.39373H56.0914V11.7698H57.555ZM54.4512 7.91661H57.8431C58.4675 7.88102 59.0809 8.09249 59.5506 8.50534C59.972 8.89013 60.1827 9.57105 60.1827 10.5481C60.2213 11.083 60.0976 11.6171 59.8277 12.0805C59.593 12.4178 59.2658 12.6799 58.8854 12.8352L60.4145 16.1333H58.7411L57.4199 13.0911C57.0652 13.0911 56.6217 13.0837 56.0894 13.069V16.1333H54.4493L54.4512 7.91661ZM64.982 16.2002C64.5301 16.1984 64.0786 16.1724 63.6294 16.1223C63.2189 16.0822 62.8114 16.0154 62.4096 15.9222V14.6235C63.0676 14.6899 63.8991 14.7231 64.904 14.7231C65.2531 14.7427 65.602 14.6818 65.9237 14.5451C66.0378 14.4804 66.1309 14.3842 66.1918 14.2681C66.2527 14.1519 66.2789 14.0207 66.2672 13.89V13.5904C66.2743 13.4872 66.2581 13.3837 66.2198 13.2876C66.1815 13.1915 66.1221 13.1053 66.0459 13.0353C65.8764 12.8919 65.6576 12.8201 65.436 12.8352H64.7376C64.084 12.884 63.4348 12.6947 62.9099 12.3023C62.6916 12.0712 62.5253 11.7961 62.4221 11.4955C62.3189 11.1948 62.2812 10.8756 62.3115 10.5592V10.1599C62.3115 8.62078 63.1946 7.8512 64.9608 7.8512C65.391 7.85203 65.8207 7.88175 66.247 7.94018C66.6908 7.99181 67.0898 8.05465 67.4442 8.12873V9.4274C66.4318 9.36102 65.6669 9.32783 65.1494 9.32783C64.8193 9.30687 64.4898 9.37603 64.196 9.52792C64.0826 9.60551 63.9926 9.71272 63.9359 9.8379C63.8791 9.96308 63.8578 10.1014 63.8743 10.2379V10.4606C63.8647 10.5749 63.8806 10.69 63.9207 10.7976C63.9609 10.9051 64.0244 11.0024 64.1066 11.0825C64.3235 11.2234 64.5806 11.2896 64.8386 11.271H65.6477C65.9436 11.2503 66.2405 11.292 66.5193 11.3934C66.798 11.4948 67.0523 11.6537 67.2657 11.8598C67.4571 12.0623 67.6057 12.3013 67.7028 12.5625C67.7999 12.8237 67.8435 13.1018 67.8309 13.3802V13.8472C67.8587 14.3549 67.7389 14.8597 67.486 15.3008C67.2567 15.6414 66.917 15.8925 66.524 16.0117C66.0218 16.1487 65.5024 16.2122 64.982 16.2002Z" fill="white"/>
<defs>
<linearGradient id="paint0_linear_899_31000" x1="29.5" y1="3.99994" x2="20.0175" y2="17.5122" gradientUnits="userSpaceOnUse">
<stop stop-color="#8656EF"/>
<stop offset="0.97" stop-color="#1AA3FF"/>
</linearGradient>
</defs>
</svg>
