<svg width="80" height="24" viewBox="0 0 80 24" fill="none" xmlns="http://www.w3.org/2000/svg">
<g clip-path="url(#clip0_731_27694)">
<path d="M8.87668 3.12C10.6326 3.1198 12.3491 3.6403 13.8091 4.61567C15.2692 5.59104 16.4072 6.97747 17.0793 8.59964C17.7514 10.2218 17.9273 12.0068 17.5849 13.729C17.2424 15.4512 16.397 17.0331 15.1555 18.2748C13.9139 19.5164 12.3321 20.362 10.61 20.7047C8.88785 21.0473 7.1028 20.8715 5.48056 20.1996C3.85832 19.5277 2.47176 18.3899 1.49623 16.9299C0.520691 15.47 1.09114e-08 13.7535 0 11.9977C-1.46303e-08 9.64333 0.935187 7.38541 2.59986 5.72055C4.26453 4.0557 6.52235 3.12026 8.87668 3.12ZM7.46931 6.53745L6.08867 11.7552L5.13757 12.1234L4.68032 13.8355L5.63143 13.4763L4.83967 16.4612H13.3313L13.9143 14.2463H8.80443L9.38737 12.0758L10.3197 11.7255L10.7769 10.0133L9.84362 10.3726L10.8571 6.53448H7.46931V6.53745Z" fill="url(#paint0_linear_731_27694)"/>
<path fill-rule="evenodd" clip-rule="evenodd" d="M34.8438 9.38385H32.6763L30.9938 17.4183H33.1613L34.8438 9.38385ZM35.4831 6.32764H33.3117L32.899 8.29418H35.0744L35.4831 6.32764ZM23.9273 6.32765L21.6045 17.4183L29.5301 17.4143L29.916 15.5606H24.2747L26.2037 6.32765H23.9273ZM35.8433 10.9951L36.1758 9.38385H37.2348L37.5001 8.09723L39.9892 6.5998L39.4062 9.38385H40.7305L40.396 10.9951H39.0648L38.3611 14.3601C38.2358 14.9711 38.1727 15.3191 38.1721 15.4042C38.1683 15.4769 38.1806 15.5496 38.2082 15.617C38.2357 15.6844 38.2778 15.7449 38.3314 15.7942C38.4373 15.8872 38.6283 15.9337 38.9064 15.9337C39.0054 15.9337 39.242 15.9169 39.625 15.8813L39.2845 17.4925C38.9059 17.5686 38.5206 17.6067 38.1345 17.6063C37.3678 17.6063 36.8106 17.4585 36.4629 17.1629C36.1151 16.8673 35.9416 16.4579 35.9423 15.9347C35.9423 15.6879 36.0356 15.1182 36.2224 14.2255L36.8954 10.9951H35.8433ZM42.8356 14.076H48.279C48.3846 13.6122 48.4351 13.1374 48.4295 12.6617C48.4301 11.5671 48.1401 10.716 47.5595 10.1083C46.9789 9.50062 46.1973 9.19678 45.2149 9.19678C43.6723 9.19678 42.4846 9.77674 41.6519 10.9367C41.0425 11.7929 40.7222 12.8213 40.7374 13.8722C40.7381 14.9965 41.0759 15.9004 41.7509 16.584C42.4259 17.2675 43.3034 17.6093 44.3835 17.6093C45.1347 17.619 45.8732 17.4155 46.5134 17.0224C47.1461 16.6318 47.6515 16.0456 48.0296 15.2637L46.0838 14.942C45.6833 15.6889 45.1225 16.0624 44.4013 16.0624C44.1908 16.0648 43.9822 16.0218 43.7897 15.9364C43.5973 15.8511 43.4254 15.7252 43.2859 15.5675C42.9805 15.2396 42.8277 14.8084 42.8277 14.274C42.8277 14.2543 42.8291 14.2312 42.8308 14.2046C42.833 14.1684 42.8356 14.1257 42.8356 14.076ZM46.456 12.5311C46.456 12.5816 46.454 12.6509 46.449 12.7498H43.0524C43.1777 12.0887 43.4182 11.5896 43.7739 11.2524C43.9318 11.0926 44.1198 10.9656 44.327 10.8786C44.5343 10.7916 44.7566 10.7465 44.9813 10.7457C45.1821 10.7369 45.3823 10.7723 45.5679 10.8494C45.7534 10.9266 45.9198 11.0435 46.0551 11.192C46.3224 11.4909 46.456 11.9373 46.456 12.5311ZM54.521 14.3918L56.6271 14.7322C56.2801 15.6705 55.7658 16.384 55.0842 16.873C54.3937 17.365 53.5635 17.6225 52.7158 17.6073C51.6924 17.6073 50.8806 17.3022 50.2801 16.6918C49.6797 16.0815 49.3808 15.2426 49.3835 14.175C49.3797 13.32 49.5659 12.4749 49.9288 11.7007C50.2793 10.938 50.8515 10.2986 51.5707 9.86583C52.2938 9.42182 53.1272 9.18999 53.9757 9.19679C54.9238 9.19679 55.6803 9.44388 56.2451 9.93808C56.8099 10.4323 57.1279 11.0828 57.1992 11.8898L55.1337 12.1095C55.0835 11.6602 54.9459 11.3303 54.721 11.1198C54.4807 10.9019 54.1641 10.7877 53.8401 10.8021C53.4056 10.8077 52.9884 10.9734 52.6683 11.2673C52.3054 11.58 52.0266 12.0478 51.832 12.6707C51.6472 13.2366 51.5491 13.8272 51.541 14.4224C51.541 14.8968 51.6571 15.2624 51.8894 15.519C51.9972 15.6432 52.1311 15.7422 52.2814 15.8089C52.4317 15.8756 52.5949 15.9084 52.7594 15.905C53.1278 15.8971 53.4825 15.7637 53.7649 15.527C54.0895 15.2749 54.3416 14.8965 54.521 14.3918ZM59.2717 10.519C58.4324 11.4058 58.0128 12.5935 58.0128 14.082C58.0084 14.7026 58.1548 15.3149 58.4394 15.8664C58.729 16.4228 59.1874 16.8732 59.7488 17.153C60.3728 17.465 61.0633 17.6209 61.7608 17.6073C63.155 17.6073 64.2711 17.1323 65.109 16.1821C65.9338 15.2536 66.3793 14.049 66.3571 12.8072C66.3551 11.7021 66.0222 10.8232 65.3584 10.1707C64.6947 9.51811 63.769 9.19184 62.5813 9.19184C61.2142 9.18986 60.111 9.63226 59.2717 10.519ZM63.7502 11.294C64.0504 11.6041 64.2005 12.0165 64.2005 12.5311H64.1965C64.1972 13.5644 63.9088 14.4419 63.3315 15.1637C62.9264 15.6731 62.4269 15.9278 61.8331 15.9278C61.6116 15.9332 61.3915 15.8907 61.1879 15.8032C60.9843 15.7158 60.802 15.5854 60.6534 15.421C60.3406 15.0832 60.1842 14.6266 60.1842 14.0513C60.1954 13.5295 60.2979 13.0136 60.4871 12.5271C60.6903 11.9762 60.975 11.5549 61.3412 11.2633C61.6937 10.9772 62.1353 10.8234 62.5892 10.8288C62.8045 10.8209 63.0191 10.8582 63.219 10.9383C63.419 11.0184 63.5999 11.1396 63.7502 11.294ZM68.8343 9.38385H71.0058L69.3233 17.4183H67.1548L68.8343 9.38385ZM69.4697 6.32764H71.6411L71.2324 8.29418H69.061L69.4697 6.32764ZM75.2267 9.38384H73.1691L71.4896 17.4183H73.661L74.3489 14.1196C74.5508 13.1563 74.7325 12.5182 74.8942 12.2055C75.1041 11.7803 75.4193 11.4157 75.8097 11.1465C76.1976 10.8793 76.5506 10.7457 76.8687 10.7457C76.9928 10.7383 77.1172 10.7555 77.2347 10.7962C77.3523 10.837 77.4606 10.9005 77.5535 10.9832C77.6374 11.0696 77.7025 11.1724 77.7448 11.2851C77.787 11.3979 77.8055 11.5182 77.799 11.6384C77.7996 11.769 77.7291 12.1748 77.5872 12.8557L76.6341 17.4183H78.8055L79.7507 12.8716C79.917 12.0838 80.0001 11.549 80.0001 11.2672C80.0008 10.6418 79.8104 10.14 79.429 9.7619C79.0477 9.38384 78.5271 9.1948 77.8673 9.1948C77.3825 9.19265 76.9024 9.28895 76.456 9.47786C75.93 9.71884 75.444 10.0389 75.0149 10.427L75.2267 9.38384Z" fill="white"/>
</g>
<defs>
<linearGradient id="paint0_linear_731_27694" x1="-6.83581" y1="9.72761" x2="6.37943" y2="27.483" gradientUnits="userSpaceOnUse">
<stop stop-color="#C7C7C7"/>
<stop offset="1" stop-color="#9C9C9C"/>
</linearGradient>
<clipPath id="clip0_731_27694">
<rect width="80" height="24" fill="white"/>
</clipPath>
</defs>
</svg>
