<svg width="80" height="24" viewBox="0 0 80 24" fill="none" xmlns="http://www.w3.org/2000/svg">
<g clip-path="url(#clip0_731_27694)">
<path d="M8.87668 3.12C10.6326 3.1198 12.3491 3.6403 13.8091 4.61567C15.2692 5.59104 16.4072 6.97747 17.0793 8.59964C17.7514 10.2218 17.9273 12.0068 17.5849 13.729C17.2424 15.4512 16.397 17.0331 15.1555 18.2748C13.9139 19.5164 12.3321 20.362 10.61 20.7047C8.88785 21.0473 7.1028 20.8715 5.48056 20.1996C3.85832 19.5277 2.47176 18.3899 1.49623 16.9299C0.520691 15.47 1.09114e-08 13.7535 0 11.9977C-1.46303e-08 9.64333 0.935187 7.38541 2.59986 5.72055C4.26453 4.0557 6.52235 3.12026 8.87668 3.12ZM7.46931 6.53745L6.08867 11.7552L5.13757 12.1234L4.68032 13.8355L5.63143 13.4763L4.83967 16.4612H13.3313L13.9143 14.2463H8.80443L9.38737 12.0758L10.3197 11.7255L10.7769 10.0133L9.84362 10.3726L10.8571 6.53448H7.46931V6.53745Z" fill="url(#paint0_linear_731_27694)"/>
<path fill-rule="evenodd" clip-rule="evenodd" d="M34.8435 9.38385H32.6761L30.9936 17.4183H33.161L34.8435 9.38385ZM35.4829 6.32764H33.3115L32.8988 8.29418H35.0742L35.4829 6.32764ZM23.9271 6.32765L21.6042 17.4183L29.5298 17.4143L29.9158 15.5606H24.2745L26.2034 6.32765H23.9271ZM35.8431 10.9951L36.1756 9.38385H37.2346L37.4998 8.09723L39.9889 6.5998L39.406 9.38385H40.7302L40.3957 10.9951H39.0645L38.3609 14.3601C38.2355 14.9711 38.1725 15.3191 38.1718 15.4042C38.1681 15.4769 38.1804 15.5496 38.2079 15.617C38.2355 15.6844 38.2776 15.7449 38.3312 15.7942C38.4371 15.8872 38.6281 15.9337 38.9062 15.9337C39.0052 15.9337 39.2417 15.9169 39.6247 15.8813L39.2843 17.4925C38.9057 17.5686 38.5204 17.6067 38.1342 17.6063C37.3675 17.6063 36.8103 17.4585 36.4626 17.1629C36.1149 16.8673 35.9414 16.4579 35.942 15.9347C35.942 15.6879 36.0354 15.1182 36.2221 14.2255L36.8951 10.9951H35.8431ZM42.8354 14.076H48.2788C48.3844 13.6122 48.4349 13.1374 48.4292 12.6617C48.4299 11.5671 48.1399 10.716 47.5593 10.1083C46.9786 9.50062 46.1971 9.19678 45.2146 9.19678C43.672 9.19678 42.4844 9.77674 41.6517 10.9367C41.0423 11.7929 40.7219 12.8213 40.7372 13.8722C40.7379 14.9965 41.0757 15.9004 41.7507 16.584C42.4256 17.2675 43.3032 17.6093 44.3833 17.6093C45.1344 17.619 45.873 17.4155 46.5131 17.0224C47.1459 16.6318 47.6513 16.0456 48.0294 15.2637L46.0836 14.942C45.6831 15.6889 45.1223 16.0624 44.4011 16.0624C44.1906 16.0648 43.982 16.0218 43.7895 15.9364C43.597 15.8511 43.4252 15.7252 43.2857 15.5675C42.9802 15.2396 42.8275 14.8084 42.8275 14.274C42.8275 14.2543 42.8289 14.2312 42.8305 14.2046C42.8328 14.1684 42.8354 14.1257 42.8354 14.076ZM46.4557 12.5311C46.4557 12.5816 46.4537 12.6509 46.4488 12.7498H43.0521C43.1775 12.0887 43.418 11.5896 43.7736 11.2524C43.9316 11.0926 44.1196 10.9656 44.3268 10.8786C44.534 10.7916 44.7564 10.7465 44.9811 10.7457C45.1818 10.7369 45.3821 10.7723 45.5676 10.8494C45.7532 10.9266 45.9195 11.0435 46.0549 11.192C46.3221 11.4909 46.4557 11.9373 46.4557 12.5311ZM54.5208 14.3918L56.6269 14.7322C56.2798 15.6705 55.7655 16.384 55.0839 16.873C54.3935 17.365 53.5633 17.6225 52.7156 17.6073C51.6922 17.6073 50.8803 17.3022 50.2799 16.6918C49.6795 16.0815 49.3806 15.2426 49.3832 14.175C49.3794 13.32 49.5657 12.4749 49.9285 11.7007C50.2791 10.938 50.8512 10.2986 51.5705 9.86583C52.2936 9.42182 53.1269 9.18999 53.9755 9.19679C54.9236 9.19679 55.6801 9.44388 56.2449 9.93808C56.8097 10.4323 57.1277 11.0828 57.1989 11.8898L55.1334 12.1095C55.0833 11.6602 54.9457 11.3303 54.7207 11.1198C54.4805 10.9019 54.1639 10.7877 53.8399 10.8021C53.4054 10.8077 52.9882 10.9734 52.6681 11.2673C52.3052 11.58 52.0264 12.0478 51.8318 12.6707C51.647 13.2366 51.5489 13.8272 51.5408 14.4224C51.5408 14.8968 51.6569 15.2624 51.8892 15.519C51.997 15.6432 52.1308 15.7422 52.2811 15.8089C52.4315 15.8756 52.5947 15.9084 52.7591 15.905C53.1275 15.8971 53.4823 15.7637 53.7647 15.527C54.0893 15.2749 54.3413 14.8965 54.5208 14.3918ZM59.2715 10.519C58.4322 11.4058 58.0126 12.5935 58.0126 14.082C58.0081 14.7026 58.1545 15.3149 58.4391 15.8664C58.7287 16.4228 59.1871 16.8732 59.7485 17.153C60.3726 17.465 61.063 17.6209 61.7606 17.6073C63.1548 17.6073 64.2708 17.1323 65.1088 16.1821C65.9336 15.2536 66.379 14.049 66.3568 12.8072C66.3548 11.7021 66.022 10.8232 65.3582 10.1707C64.6944 9.51811 63.7687 9.19184 62.5811 9.19184C61.214 9.18986 60.1108 9.63226 59.2715 10.519ZM63.7499 11.294C64.0501 11.6041 64.2002 12.0165 64.2002 12.5311H64.1963C64.1969 13.5644 63.9086 14.4419 63.3313 15.1637C62.9262 15.6731 62.4267 15.9278 61.8328 15.9278C61.6113 15.9332 61.3913 15.8907 61.1877 15.8032C60.9841 15.7158 60.8017 15.5854 60.6531 15.421C60.3404 15.0832 60.184 14.6266 60.184 14.0513C60.1952 13.5295 60.2977 13.0136 60.4868 12.5271C60.6901 11.9762 60.9748 11.5549 61.341 11.2633C61.6935 10.9772 62.135 10.8234 62.589 10.8288C62.8043 10.8209 63.0188 10.8582 63.2188 10.9383C63.4187 11.0184 63.5997 11.1396 63.7499 11.294ZM68.8341 9.38385H71.0055L69.323 17.4183H67.1546L68.8341 9.38385ZM69.4695 6.32764H71.6409L71.2322 8.29418H69.0607L69.4695 6.32764ZM75.2265 9.38384H73.1689L71.4894 17.4183H73.6608L74.3486 14.1196C74.5505 13.1563 74.7323 12.5182 74.894 12.2055C75.1039 11.7803 75.419 11.4157 75.8094 11.1465C76.1974 10.8793 76.5504 10.7457 76.8684 10.7457C76.9926 10.7383 77.117 10.7555 77.2345 10.7962C77.352 10.837 77.4604 10.9005 77.5533 10.9832C77.6372 11.0696 77.7023 11.1724 77.7445 11.2851C77.7868 11.3979 77.8052 11.5182 77.7987 11.6384C77.7994 11.769 77.7288 12.1748 77.5869 12.8557L76.6339 17.4183H78.8053L79.7504 12.8716C79.9167 12.0838 79.9999 11.549 79.9999 11.2672C80.0005 10.6418 79.8102 10.14 79.4288 9.7619C79.0474 9.38384 78.5268 9.1948 77.867 9.1948C77.3823 9.19265 76.9021 9.28895 76.4557 9.47786C75.9297 9.71884 75.4438 10.0389 75.0147 10.427L75.2265 9.38384Z" fill="white"/>
</g>
<defs>
<linearGradient id="paint0_linear_731_27694" x1="-6.83581" y1="9.72761" x2="6.37943" y2="27.483" gradientUnits="userSpaceOnUse">
<stop stop-color="#C7C7C7"/>
<stop offset="1" stop-color="#9C9C9C"/>
</linearGradient>
<clipPath id="clip0_731_27694">
<rect width="80" height="24" fill="white"/>
</clipPath>
</defs>
</svg>
