<svg width="80" height="24" viewBox="0 0 80 24" fill="none" xmlns="http://www.w3.org/2000/svg">
<g clip-path="url(#clip0_47_581)">
<path d="M24.909 19.5671V8.55587H26.5538L26.6978 9.44867H26.7842C27.245 8.84387 28.0514 8.41187 29.149 8.41187C31.1682 8.41187 32.8098 10.0567 32.8098 12.5047C32.8098 14.9527 31.1938 16.5975 29.1458 16.5975C28.0514 16.5975 27.2994 16.1367 26.8962 15.6183H26.8098V19.5383H24.9058V19.5671H24.909ZM30.9058 12.5047C30.9058 11.0647 29.9842 10.1687 28.8578 10.1687C27.7314 10.1687 26.8098 11.0615 26.8098 12.5047C26.8098 13.9479 27.7314 14.8407 28.8578 14.8407C29.9842 14.8407 30.9058 13.9479 30.9058 12.5047Z" fill="white"/>
<path d="M33.7598 12.5047C33.7598 10.1111 35.491 8.41187 37.7662 8.41187C40.0734 8.41187 41.7726 10.1431 41.7726 12.5047C41.7726 14.8983 40.0414 16.5975 37.7662 16.5975C35.459 16.5975 33.7598 14.8695 33.7598 12.5047ZM39.8686 12.5047C39.8686 11.0935 38.947 10.1687 37.763 10.1687C36.611 10.1687 35.6574 11.0903 35.6574 12.5047C35.6574 13.9191 36.6078 14.8407 37.763 14.8407C38.9182 14.8407 39.8686 13.9191 39.8686 12.5047Z" fill="white"/>
<path d="M43.1553 16.4536V5.52881H45.0593V16.4536H43.1553Z" fill="white"/>
<path d="M52.1505 8.55593H54.1697L50.7393 18.1559C50.3937 19.1063 49.9329 19.5671 48.6913 19.5671H46.8481V17.8071H48.4033C48.6913 17.8071 48.8353 17.6631 48.9217 17.4327L49.0945 16.9143L45.8657 8.55273H47.8849L49.9329 14.0311H50.2497L52.0961 8.55273H52.1505V8.55593Z" fill="white"/>
<path d="M54.5441 16.8599H56.4769C56.5633 17.3783 57.0817 18.0695 58.2945 18.0695C59.4465 18.0695 60.1985 17.3495 60.1985 16.2519V15.1575H60.1121C59.6801 15.6183 58.9025 16.0215 57.9201 16.0215C55.9009 16.0215 54.3169 14.4663 54.3169 12.2167C54.3169 9.96707 55.8721 8.41187 57.9201 8.41187C58.9569 8.41187 59.7377 8.84387 60.2273 9.41987H60.3137L60.4577 8.55587H62.1025V16.2519C62.1025 18.3575 60.6913 19.7399 58.2977 19.7399C55.6097 19.7399 54.6017 17.9831 54.5441 16.8599ZM60.1665 12.2167C60.1665 10.9783 59.3025 10.1111 58.1761 10.1111C57.0817 10.1111 56.2145 10.9751 56.2145 12.2167C56.2145 13.4583 57.0785 14.3223 58.1761 14.3223C59.2737 14.3223 60.1665 13.4551 60.1665 12.2167Z" fill="white"/>
<path d="M63.395 12.5047C63.395 10.1111 65.1262 8.41187 67.4014 8.41187C69.7086 8.41187 71.4078 10.1431 71.4078 12.5047C71.4078 14.8983 69.6766 16.5975 67.4014 16.5975C65.0942 16.5975 63.395 14.8695 63.395 12.5047ZM69.507 12.5047C69.507 11.0935 68.5566 10.1687 67.4014 10.1687C66.2494 10.1687 65.2958 11.0903 65.2958 12.5047C65.2958 13.9191 66.2462 14.8407 67.4014 14.8407C68.5534 14.8407 69.507 13.9191 69.507 12.5047Z" fill="white"/>
<path d="M72.7358 16.4535V8.55587H74.3806L74.5246 9.30467H74.611C74.9278 8.95907 75.7054 8.41187 76.8894 8.41187C78.707 8.41187 80.003 9.70787 80.003 11.7271V16.4823H78.099V11.9863C78.099 10.9783 77.379 10.2263 76.3966 10.2263C75.4142 10.2263 74.6366 11.0039 74.6366 11.9863V16.4823H72.7358V16.4535Z" fill="white"/>
<path d="M14.6464 15.532L19.3152 12.8216C19.5744 12.6776 19.7184 12.4184 19.7184 12.1304V6.70955C19.7184 6.42155 19.5744 6.16235 19.3152 6.01835L14.6464 3.30795C14.3872 3.16395 14.0992 3.16395 13.84 3.30795L9.168 6.01835C8.9088 6.16235 8.7648 6.42155 8.7648 6.70955V16.3672L5.4784 18.2712L2.192 16.3672V12.5912L5.4784 10.6872L7.6416 11.9256V9.38795L5.8816 8.37995C5.7664 8.32235 5.6224 8.26475 5.4784 8.26475C5.3344 8.26475 5.1904 8.29355 5.0752 8.37995L0.4032 11.0936C0.144 11.2376 0 11.4968 0 11.7848V17.2056C0 17.4936 0.144 17.7528 0.4032 17.8968L5.072 20.6072C5.3312 20.7512 5.6192 20.7512 5.8784 20.6072L10.5472 17.8968C10.8064 17.7528 10.9504 17.4936 10.9504 17.2056V7.54795L11.008 7.51915L14.24 5.64395L17.5264 7.54795V11.324L14.24 13.2248L12.0768 11.9864V14.524L13.8368 15.532C14.096 15.676 14.384 15.676 14.6464 15.532Z" fill="url(#paint0_linear_47_581)"/>
</g>
<defs>
<linearGradient id="paint0_linear_47_581" x1="-0.0323094" y1="17.7379" x2="18.7641" y2="6.75409" gradientUnits="userSpaceOnUse">
<stop stop-color="#A726C1"/>
<stop offset="0.8784" stop-color="#803BDF"/>
<stop offset="1" stop-color="#7B3FE4"/>
</linearGradient>
<clipPath id="clip0_47_581">
<rect width="80" height="24" fill="white"/>
</clipPath>
</defs>
</svg>
