<svg width="80" height="24" viewBox="0 0 80 24" fill="none" xmlns="http://www.w3.org/2000/svg">
<path fill-rule="evenodd" clip-rule="evenodd" d="M15.0121 22C20.526 22 25 17.526 25 12.0121C25 6.474 20.526 2 15.0121 2C9.474 2 5 6.474 5 12.0121C5 17.526 9.474 22 15.0121 22ZM15.0121 3.81378C17.1161 3.81378 19.0508 4.63603 20.5018 5.96614L14.9637 9.40024L9.474 5.96614C10.925 4.63603 12.8597 3.81378 15.0121 3.81378ZM20.7195 6.13543C22.243 7.63482 23.1862 9.71463 23.1862 12.0121C23.1862 12.8343 23.0653 13.6324 22.8235 14.4063L19.5103 8.96493L20.7195 8.21524V6.13543ZM22.1463 15.9782C20.7678 18.4692 18.0834 20.1862 15.0121 20.1862C11.9166 20.1862 9.23216 18.4692 7.85369 15.9782H8.53083L12.1342 10.029L13.9722 11.1657L14.0689 16.3168H16.0762L16.0036 11.1415L17.7932 10.029L21.4208 15.9782H22.1463ZM7.17654 14.3579C6.9347 13.6082 6.81378 12.8343 6.81378 12.0121C6.81378 9.73881 7.73277 7.68319 9.23216 6.1838V8.21524L10.4172 8.96493L7.17654 14.3579Z" fill="#D4CCD3"/>
<path fill-rule="evenodd" clip-rule="evenodd" d="M15.0121 22C20.526 22 25 17.526 25 12.0121C25 6.474 20.526 2 15.0121 2C9.474 2 5 6.474 5 12.0121C5 17.526 9.474 22 15.0121 22ZM15.0121 3.81378C17.1161 3.81378 19.0508 4.63603 20.5018 5.96614L14.9637 9.40024L9.474 5.96614C10.925 4.63603 12.8597 3.81378 15.0121 3.81378ZM20.7195 6.13543C22.243 7.63482 23.1862 9.71463 23.1862 12.0121C23.1862 12.8343 23.0653 13.6324 22.8235 14.4063L19.5103 8.96493L20.7195 8.21524V6.13543ZM22.1463 15.9782C20.7678 18.4692 18.0834 20.1862 15.0121 20.1862C11.9166 20.1862 9.23216 18.4692 7.85369 15.9782H8.53083L12.1342 10.029L13.9722 11.1657L14.0689 16.3168H16.0762L16.0036 11.1415L17.7932 10.029L21.4208 15.9782H22.1463ZM7.17654 14.3579C6.9347 13.6082 6.81378 12.8343 6.81378 12.0121C6.81378 9.73881 7.73277 7.68319 9.23216 6.1838V8.21524L10.4172 8.96493L7.17654 14.3579Z" fill="url(#paint0_linear_899_26014)"/>
<path d="M29 16.549V7.70581C29 7.56909 29.0414 7.46345 29.1243 7.38887C29.2113 7.31015 29.3232 7.2708 29.4599 7.2708H30.6593C30.912 7.2708 31.0984 7.3868 31.2186 7.61881L33.1637 11.2419C33.2134 11.3537 33.2611 11.4096 33.3066 11.4096C33.3398 11.4096 33.3854 11.3537 33.4434 11.2419L35.3885 7.61881C35.5086 7.39094 35.6971 7.27494 35.954 7.2708H37.1472C37.2839 7.2708 37.3937 7.31223 37.4766 7.39509C37.5636 7.4738 37.6071 7.58152 37.6071 7.71824V16.549C37.6071 16.6153 37.5822 16.663 37.5325 16.692C37.4869 16.7168 37.4393 16.7292 37.3896 16.7292H35.7116C35.6536 16.7292 35.6039 16.7044 35.5625 16.6547C35.5252 16.6008 35.5066 16.5407 35.5066 16.4745V11.1673C35.5066 11.101 35.4859 11.0678 35.4444 11.0678C35.4113 11.0678 35.3761 11.0968 35.3388 11.1549L34.1953 13.2553C34.1125 13.4004 33.9861 13.4729 33.8162 13.4729H32.7971C32.6272 13.4729 32.4988 13.4004 32.4118 13.2553L31.2683 11.1549C31.2351 11.0968 31.202 11.0678 31.1689 11.0678C31.1274 11.0678 31.1046 11.101 31.1005 11.1673V16.4745C31.1005 16.5407 31.0819 16.6008 31.0446 16.6547C31.0073 16.7044 30.9596 16.7292 30.9016 16.7292H29.2175C29.1678 16.7292 29.1181 16.7168 29.0684 16.692C29.0228 16.6671 29 16.6195 29 16.549Z" fill="white"/>
<path d="M39.3533 14.1067V9.88088C39.3533 9.30501 39.4383 8.83892 39.6081 8.48262C39.778 8.12632 40.0038 7.85082 40.2855 7.65609C40.5714 7.46137 40.9028 7.33087 41.2798 7.26458C41.661 7.19415 42.0546 7.15894 42.4606 7.15894C42.8003 7.15894 43.0986 7.16515 43.3555 7.17758C43.6165 7.19001 43.8443 7.20451 44.0391 7.22108C44.2338 7.23765 44.4016 7.25422 44.5424 7.2708C44.6833 7.28737 44.8076 7.30601 44.9153 7.32673C45.0852 7.35158 45.1701 7.43444 45.1701 7.57531V8.76227C45.1701 8.82856 45.1452 8.88863 45.0955 8.94249C45.0458 8.99221 44.9857 9.01707 44.9153 9.01707H42.3301C42.0318 9.01707 41.8205 9.07921 41.6962 9.2035C41.5761 9.32365 41.516 9.54944 41.516 9.88088V11.043H44.8159C44.8822 11.043 44.9402 11.0678 44.9899 11.1176C45.0437 11.1673 45.0707 11.2274 45.0707 11.2978V12.5034C45.0707 12.5697 45.0437 12.6298 44.9899 12.6836C44.9402 12.7333 44.8822 12.7582 44.8159 12.7582H41.516V14.1067C41.516 14.4382 41.5781 14.666 41.7024 14.7903C41.8267 14.9105 42.0359 14.9705 42.3301 14.9705H44.9153C44.9816 14.9705 45.0396 14.9975 45.0893 15.0513C45.1432 15.1011 45.1701 15.1591 45.1701 15.2253V16.4123C45.1701 16.5656 45.0852 16.6547 44.9153 16.6795C44.6957 16.7127 44.4016 16.7479 44.0328 16.7852C43.6641 16.8225 43.1359 16.8411 42.4482 16.8411C42.0421 16.8411 41.6506 16.808 41.2736 16.7417C40.9007 16.6754 40.5714 16.5449 40.2855 16.3502C40.0038 16.1513 39.778 15.8716 39.6081 15.5112C39.4383 15.1508 39.3533 14.6826 39.3533 14.1067Z" fill="white"/>
<path d="M46.2017 8.82442V7.51316C46.2017 7.44687 46.2266 7.39094 46.2763 7.34537C46.3301 7.29565 46.3902 7.2708 46.4565 7.2708H52.7704C52.8367 7.2708 52.8968 7.29565 52.9506 7.34537C53.0086 7.39094 53.0376 7.44687 53.0376 7.51316V8.82442C53.0376 8.89071 53.0086 8.94871 52.9506 8.99842C52.8968 9.044 52.8367 9.06678 52.7704 9.06678H50.7072V16.4745C50.7072 16.5407 50.6824 16.6008 50.6326 16.6547C50.5829 16.7044 50.5228 16.7292 50.4524 16.7292H48.7869C48.7206 16.7292 48.6606 16.7044 48.6067 16.6547C48.557 16.6008 48.5321 16.5407 48.5321 16.4745V9.06678H46.4565C46.3902 9.06678 46.3301 9.044 46.2763 8.99842C46.2266 8.95285 46.2017 8.89485 46.2017 8.82442Z" fill="white"/>
<path d="M54.2433 16.4745V7.93575C54.2433 7.71617 54.2888 7.56909 54.38 7.49452C54.4753 7.4158 54.6223 7.35987 54.8212 7.32673C54.9662 7.30187 55.1402 7.28115 55.3432 7.26458C55.5462 7.24387 55.7617 7.22522 55.9895 7.20865C56.2174 7.19208 56.4515 7.17965 56.6918 7.17136C56.9362 7.16308 57.1723 7.15894 57.4002 7.15894C57.9429 7.15894 58.4484 7.20865 58.9165 7.30808C59.3847 7.40337 59.7907 7.56909 60.1346 7.80524C60.4785 8.03725 60.7477 8.34383 60.9425 8.72499C61.1372 9.10614 61.2346 9.57637 61.2346 10.1357V10.3035C61.2346 10.9829 61.0771 11.5298 60.7623 11.9441C60.4474 12.3584 60.0579 12.6588 59.5939 12.8452L61.5142 16.4372C61.5391 16.4869 61.5515 16.5325 61.5515 16.5739C61.5515 16.6775 61.4873 16.7292 61.3588 16.7292H59.4137C59.3474 16.7292 59.2956 16.7044 59.2583 16.6547C59.2252 16.6008 59.1921 16.5407 59.1589 16.4745L57.4499 13.2553L57.3132 13.2678C57.1765 13.2678 57.0211 13.2636 56.8471 13.2553C56.6731 13.2471 56.5281 13.2429 56.4121 13.2429V16.4745C56.4121 16.5407 56.3852 16.6008 56.3313 16.6547C56.2816 16.7044 56.2236 16.7292 56.1573 16.7292H54.498C54.4318 16.7292 54.3717 16.7044 54.3178 16.6547C54.2681 16.6008 54.2433 16.5407 54.2433 16.4745ZM56.4121 11.4842C56.4453 11.4842 56.5033 11.4863 56.5861 11.4904C56.6731 11.4946 56.7643 11.4987 56.8596 11.5029C56.959 11.507 57.0501 11.5091 57.133 11.5091C57.22 11.5091 57.2801 11.5091 57.3132 11.5091C57.6446 11.5091 57.9222 11.4863 58.146 11.4407C58.3697 11.3951 58.5499 11.3268 58.6866 11.2356C58.8233 11.1404 58.9207 11.0161 58.9787 10.8628C59.0408 10.7095 59.0719 10.523 59.0719 10.3035V10.1357C59.0719 9.74623 58.9269 9.46037 58.6369 9.27808C58.3469 9.09578 57.9347 9.00464 57.4002 9.00464C57.3588 9.00464 57.2884 9.00671 57.1889 9.01085C57.0936 9.015 56.9942 9.01914 56.8906 9.02328C56.7912 9.02743 56.6938 9.03157 56.5985 9.03571C56.5074 9.03985 56.4453 9.04193 56.4121 9.04193V11.4842Z" fill="white"/>
<path d="M62.8938 16.4745V7.51316C62.8938 7.35158 62.9705 7.2708 63.1238 7.2708H64.8327C64.9943 7.2708 65.0751 7.35158 65.0751 7.51316V16.4745C65.0751 16.5407 65.0502 16.6008 65.0005 16.6547C64.955 16.7044 64.899 16.7292 64.8327 16.7292H63.1238C63.0575 16.7292 63.0015 16.7044 62.956 16.6547C62.9145 16.6008 62.8938 16.5407 62.8938 16.4745Z" fill="white"/>
<path d="M66.4174 7.43859C66.4174 7.39716 66.4361 7.35987 66.4734 7.32673C66.5107 7.28944 66.5542 7.2708 66.6039 7.2708H68.6547C68.7209 7.2708 68.7789 7.29773 68.8287 7.35158C68.8825 7.4013 68.9302 7.45516 68.9716 7.51316L70.5501 10.086L71.9794 7.51316C72.0125 7.45516 72.056 7.4013 72.1099 7.35158C72.1679 7.29773 72.2301 7.2708 72.2963 7.2708H74.1793C74.229 7.2708 74.2725 7.28944 74.3098 7.32673C74.3513 7.35987 74.372 7.39716 74.372 7.43859C74.372 7.45516 74.3637 7.48002 74.3471 7.51316L71.7246 12.0062L74.459 16.4745C74.4838 16.5283 74.4963 16.5718 74.4963 16.605C74.4963 16.6878 74.4424 16.7292 74.3347 16.7292H72.3088C72.2259 16.7292 72.1596 16.7147 72.1099 16.6857C72.0643 16.6567 72.0208 16.607 71.9794 16.5366L70.3201 13.8519L68.8349 16.4745C68.7934 16.549 68.7458 16.6112 68.6919 16.6609C68.6422 16.7065 68.5842 16.7292 68.5179 16.7292H66.6349C66.5065 16.7292 66.4423 16.6733 66.4423 16.5615C66.4423 16.5366 66.4506 16.5076 66.4672 16.4745L69.127 11.8819L66.4423 7.51316C66.4257 7.48002 66.4174 7.45516 66.4174 7.43859Z" fill="white"/>
<defs>
<linearGradient id="paint0_linear_899_26014" x1="-2.7" y1="9.44297" x2="12.1859" y2="29.443" gradientUnits="userSpaceOnUse">
<stop stop-color="#C7C7C7"/>
<stop offset="1" stop-color="#9C9C9C"/>
</linearGradient>
</defs>
</svg>
