<svg width="80" height="24" viewBox="0 0 80 24" fill="none" xmlns="http://www.w3.org/2000/svg">
<path fill-rule="evenodd" clip-rule="evenodd" d="M30.5 12C30.5 16.9706 26.4706 21 21.5 21C16.5294 21 12.5 16.9706 12.5 12C12.5 7.02944 16.5294 3 21.5 3C26.4706 3 30.5 7.02944 30.5 12ZM20.5803 10.38L17 8.68758V15.6513L20.5803 17.3438V10.38ZM20.6773 10.1866L17.1448 8.54203L22.3227 6.65625L25.903 8.34867L20.6773 10.1866ZM22.2741 9.84774L26 8.49422V15.5058L22.2741 13.7648V9.84774Z" fill="#08C435"/>
<path d="M43.0456 7.74048C43.4314 8.10691 43.7324 8.55331 43.9274 9.04838C44.1224 9.54345 44.2068 10.0752 44.1745 10.6063V17.0328H42.5245V11.1274C42.6042 10.3258 42.388 9.52267 41.9166 8.86945C41.6741 8.63814 41.3879 8.45754 41.0748 8.33825C40.7616 8.21895 40.4278 8.16335 40.0929 8.1747C39.5785 8.15581 39.0685 8.2758 38.6165 8.52208C38.1144 8.77837 37.6935 9.16925 37.4007 9.65104C37.1052 10.2749 36.9567 10.9582 36.9665 11.6484V17.0328H35.4033V7.30626L36.8797 7.91417V8.52208C37.1808 7.94214 37.671 7.48253 38.2692 7.21942C38.8967 6.93482 39.5775 6.78681 40.2666 6.7852C41.2781 6.75574 42.2659 7.09528 43.0456 7.74048Z" fill="white"/>
<path d="M55.5511 12.6037H47.9957C48.004 13.0444 48.1005 13.4788 48.2795 13.8816C48.4585 14.2843 48.7163 14.6471 49.0378 14.9485C49.3315 15.2445 49.6845 15.4749 50.0737 15.6246C50.4629 15.7743 50.8794 15.8398 51.2957 15.8169C51.9186 15.8026 52.5349 15.6852 53.1194 15.4696C53.5706 15.2293 53.9125 14.8253 54.0747 14.3406L55.4642 15.0354C55.0509 15.7069 54.4858 16.2721 53.8142 16.6854C53.0314 17.0668 52.1656 17.2459 51.2957 17.2064C50.6373 17.2434 49.9787 17.1385 49.3644 16.8988C48.7501 16.659 48.1944 16.2901 47.7351 15.8169C47.2747 15.2987 46.9224 14.6938 46.6987 14.0377C46.475 13.3815 46.3845 12.6874 46.4325 11.9958C46.3644 10.6173 46.7962 9.26048 47.6483 8.1747C48.1004 7.69194 48.6548 7.31655 49.271 7.07611C49.8871 6.83566 50.5493 6.73626 51.2089 6.78521C52.034 6.74591 52.8516 6.95788 53.5537 7.39311C54.2433 7.79463 54.7899 8.402 55.1168 9.12999C55.4708 9.86033 55.6492 10.6633 55.6379 11.4748C55.6522 11.8532 55.6231 12.232 55.5511 12.6037ZM49.0378 8.9563C48.4733 9.58838 48.1105 10.3746 47.9957 11.2142H54.0747C54.0576 10.3833 53.7504 9.58452 53.2063 8.9563C52.9417 8.70019 52.6289 8.49921 52.286 8.36503C51.9431 8.23086 51.577 8.16616 51.2089 8.1747C50.8126 8.1474 50.4149 8.20278 50.0412 8.33734C49.6674 8.47189 49.3257 8.68267 49.0378 8.9563Z" fill="white"/>
<path d="M66.3196 8.1747C67.1717 9.26048 67.6034 10.6173 67.5354 11.9958C67.6197 13.3764 67.1862 14.7389 66.3196 15.8169C65.8603 16.2901 65.3047 16.659 64.6904 16.8988C64.0761 17.1385 63.4174 17.2434 62.759 17.2064C62.0989 17.2618 61.4348 17.1654 60.8176 16.9245C60.2005 16.6837 59.6466 16.3048 59.1984 15.8169C58.738 15.2987 58.3857 14.6938 58.162 14.0377C57.9383 13.3815 57.8478 12.6874 57.8958 11.9958C57.818 10.6014 58.2851 9.23126 59.1984 8.1747C59.6466 7.68683 60.2005 7.30796 60.8176 7.06712C61.4348 6.82628 62.0989 6.72985 62.759 6.78521C63.4174 6.74823 64.0761 6.85316 64.6904 7.09289C65.3047 7.33262 65.8603 7.70155 66.3196 8.1747ZM60.3274 9.21683C59.6986 10.0009 59.3885 10.9932 59.459 11.9958C59.3704 13.0005 59.6825 13.9994 60.3274 14.7748C60.628 15.1205 61.0028 15.3939 61.4239 15.5743C61.845 15.7548 62.3014 15.8377 62.759 15.8169C63.2031 15.8308 63.6445 15.7443 64.0505 15.5639C64.4565 15.3835 64.8165 15.1137 65.1038 14.7748C65.7487 13.9994 66.0608 13.0005 65.9722 11.9958C66.0427 10.9932 65.7326 10.0009 65.1038 9.21683C64.8165 8.87791 64.4565 8.60819 64.0505 8.42775C63.6445 8.24731 63.2031 8.16082 62.759 8.1747C62.3014 8.15393 61.845 8.23688 61.4239 8.41734C61.0028 8.5978 60.628 8.87111 60.3274 9.21683Z" fill="white"/>
</svg>
