<svg width="80" height="24" viewBox="0 0 80 24" fill="none" xmlns="http://www.w3.org/2000/svg">
<path d="M62.1926 17.195V9.50313H59.2241V7.41211H67.7236V9.50313H64.7551V17.195H62.1926Z" fill="white"/>
<path d="M48.5 12.3385C48.5 11.3257 48.703 10.4505 49.1068 9.70837C49.5105 8.96625 50.0519 8.35947 50.794 7.9557C51.6038 7.48426 52.4813 7.28125 53.4918 7.28125C54.5024 7.28125 55.3799 7.48426 56.122 7.88803C56.8641 8.2918 57.4032 8.90084 57.8092 9.64296C58.213 10.3851 58.416 11.2625 58.416 12.2731C58.416 13.2836 58.213 14.1611 57.8092 14.9032C57.4055 15.6453 56.8641 16.2521 56.122 16.6582C55.3799 17.0619 54.5024 17.2649 53.4918 17.2649C52.479 17.2649 51.6038 17.0619 50.8617 16.6582C50.1196 16.2544 49.5805 15.6453 49.1745 14.9032C48.7008 14.2265 48.5 13.2814 48.5 12.3385ZM51.1978 12.3385C51.1978 12.9453 51.2655 13.4844 51.4685 13.8904C51.6038 14.2942 51.8723 14.6325 52.2106 14.9032C52.5467 15.1062 52.9527 15.2416 53.4918 15.2416C54.234 15.2416 54.8407 14.9709 55.1791 14.4995C55.5829 13.9603 55.7182 13.2859 55.7182 12.3408C55.7182 11.734 55.6505 11.1949 55.4475 10.7888C55.3122 10.3851 55.0415 10.0467 54.7054 9.77604C54.3693 9.57303 53.9633 9.43995 53.4242 9.43995C52.682 9.43995 52.0753 9.71063 51.7369 10.1821C51.4008 10.6513 51.1978 11.3934 51.1978 12.3385Z" fill="white"/>
<path d="M38.4541 17.195V7.41211H40.3444L45.2685 13.5521H44.8625V7.41211H47.2242V17.195H45.3362L40.412 11.055H40.8158V17.195H38.4541Z" fill="white"/>
<path d="M21.7935 23C27.844 23 32.7935 18.0506 32.7935 12C32.7912 5.94942 27.8417 1 21.7935 1C15.7429 1 10.7935 5.94942 10.7935 12C10.7935 18.0506 15.7429 23 21.7935 23Z" fill="white"/>
<path d="M21.7935 22.4248C27.5276 22.4248 32.2183 17.7342 32.2183 12C32.2161 6.26581 27.5255 1.5752 21.7935 1.5752C16.0593 1.5752 11.3687 6.26581 11.3687 12C11.3687 17.7342 16.0593 22.4248 21.7935 22.4248Z" fill="black"/>
<path fill-rule="evenodd" clip-rule="evenodd" d="M18.7574 16H24.8275C25.0305 16 25.2312 16 25.5019 15.8647C25.7726 15.7293 25.9057 15.5263 26.041 15.3932C26.041 15.3932 26.041 15.3932 26.041 15.3255C26.1764 15.1225 26.244 14.9218 26.244 14.6511C26.244 14.4481 26.1764 14.1797 26.041 13.9766L22.1973 7.43289C22.1296 7.29755 21.9266 7.22988 21.7936 7.22988C21.6582 7.22988 21.4575 7.29755 21.3898 7.43289L17.6115 13.9766C17.5438 14.112 17.4085 14.3127 17.3408 14.6511C17.3408 14.9218 17.4085 15.1902 17.4762 15.3932C17.6115 15.5962 17.8123 15.797 18.0153 15.9323C18.3536 16 18.6221 16 18.7574 16ZM21.3199 15.0549H18.7574C18.6221 15.0549 18.5544 15.0549 18.4867 15.0549C18.419 15.0549 18.3514 14.9872 18.3514 14.9195C18.2837 14.8519 18.2837 14.7842 18.2837 14.7165C18.2837 14.6488 18.2837 14.6488 18.419 14.4458L21.3199 9.38632V15.0549ZM22.265 15.0549V9.38857L25.2335 14.4481C25.2335 14.5158 25.3011 14.5834 25.3011 14.7188C25.3011 14.7864 25.3011 14.8541 25.2335 14.9218C25.1658 14.9895 25.1658 14.9895 25.1658 14.9895C25.1658 14.9895 25.1658 14.9895 25.0981 14.9895C25.0305 14.9895 24.9628 15.0571 24.8275 15.0571H22.265V15.0549Z" fill="white"/>
</svg>
