<svg width="80" height="24" viewBox="0 0 80 24" fill="none" xmlns="http://www.w3.org/2000/svg">
<path fill-rule="evenodd" clip-rule="evenodd" d="M53.3984 12.4192L52.864 14.0841H53.9328L53.3984 12.4192ZM28.1999 15.2503C28.4315 14.9877 28.8056 15.01 29.0505 15.2325C29.2777 15.4418 29.5805 15.562 29.87 15.6466C30.3154 15.7756 30.7741 15.838 31.2373 15.838C31.5846 15.838 32.2304 15.7979 32.4486 15.4685C32.5199 15.3617 32.5422 15.237 32.5422 15.1124C32.5422 14.9566 32.5199 14.7607 32.4086 14.6449C32.2883 14.5159 32.0255 14.458 31.8608 14.4313L30.4445 14.2221C29.487 14.0796 28.5428 13.7413 27.8748 13.0201C27.1889 12.2812 26.9707 11.2841 26.9707 10.3003C26.9707 9.52126 27.1488 8.78231 27.5452 8.11012C27.9371 7.44241 28.4938 6.94384 29.1841 6.59215C29.9413 6.20489 30.7785 6.05351 31.6247 6.05351C32.4709 6.05351 33.2503 6.15146 34.0119 6.42744C34.5953 6.63667 35.1119 6.9572 35.5751 7.36673C35.8601 7.62047 35.9135 8.06561 35.6508 8.35942H35.6463L35.6419 8.36831C35.1876 8.84463 34.7289 9.3254 34.2746 9.80169C33.9851 10.14 33.5442 10.0866 33.2325 9.81061C33.0811 9.6815 32.8985 9.60138 32.7069 9.55686C32.3329 9.46783 31.9276 9.44114 31.5401 9.44114C31.2684 9.44114 30.9522 9.48563 30.7474 9.6815C30.5959 9.82396 30.5024 9.98867 30.5024 10.2023C30.5024 10.327 30.5425 10.4249 30.6316 10.5184C30.7785 10.6697 31.0101 10.7365 31.215 10.7677L32.6312 10.968C33.5487 11.1104 34.4884 11.4221 35.152 12.0942C35.5038 12.4548 35.7532 12.8866 35.9046 13.3674C36.0739 13.906 36.1273 14.4892 36.1273 15.05C36.1273 15.878 35.9269 16.657 35.4548 17.3426C35.0006 18.0014 34.3904 18.4777 33.6556 18.7982C32.8851 19.1321 32.0656 19.279 31.2283 19.279C30.3376 19.279 29.4246 19.1811 28.5785 18.8962C27.8436 18.6513 27.1889 18.2685 26.6634 17.6942C26.4452 17.4583 26.4541 17.0799 26.6768 16.8574C27.1889 16.3187 27.7011 15.7845 28.2133 15.2459M68.1308 14.5248C68.5451 14.5248 68.7857 14.9031 68.7011 15.286C68.5853 15.8157 68.4203 16.3454 68.171 16.8262C67.9038 17.3426 67.5521 17.8144 67.1066 18.1928C66.6835 18.5534 66.2027 18.8249 65.6771 19.003C65.1204 19.1899 64.5368 19.2745 63.949 19.2745C63.2808 19.2745 62.6129 19.1677 61.994 18.9006C61.3971 18.6424 60.8761 18.2551 60.4261 17.7833C59.8785 17.2135 59.5043 16.5369 59.3484 15.7623C59.1746 14.8942 59.1347 13.9594 59.1347 13.0736V12.2456C59.1347 11.3642 59.1746 10.4249 59.3484 9.55686C59.5089 8.77784 59.8785 8.10568 60.4261 7.53588C60.8761 7.06403 61.3926 6.67674 61.994 6.41856C62.6129 6.15146 63.2808 6.04463 63.949 6.04463C64.5368 6.04463 65.1204 6.12474 65.6771 6.31617C66.2069 6.49423 66.6835 6.76578 67.1066 7.12635C67.5521 7.50472 67.9038 7.97657 68.171 8.49297C68.4249 8.97818 68.5853 9.50346 68.7011 10.0332C68.7857 10.4205 68.5497 10.7944 68.1308 10.7944C67.3426 10.7944 66.5499 10.7944 65.7617 10.7944C65.4142 10.7944 65.1425 10.603 65.0267 10.278C64.9512 10.0733 64.8487 9.88184 64.6928 9.72157C64.5057 9.5257 64.2162 9.48119 63.9578 9.48119C63.7843 9.48119 63.6151 9.51235 63.4591 9.58802C63.3301 9.65034 63.2098 9.73493 63.1252 9.84621C63.0406 9.95751 62.9825 10.0866 62.9381 10.2157C62.8623 10.4472 62.8311 10.7499 62.8088 10.9902C62.7598 11.5378 62.742 12.0987 62.742 12.6507C62.742 13.2027 62.7598 13.7591 62.8088 14.3111C62.8311 14.5515 62.8623 14.8586 62.9381 15.0857C62.9825 15.2147 63.0406 15.3483 63.1252 15.4551C63.214 15.5709 63.3301 15.651 63.4591 15.7133C63.6151 15.789 63.7843 15.8201 63.9578 15.8201C64.2162 15.8201 64.5057 15.7756 64.6928 15.5798C64.8442 15.4195 64.9512 15.2281 65.0267 15.0233C65.147 14.6984 65.4142 14.507 65.7617 14.507C66.5499 14.507 67.3426 14.507 68.1308 14.507M49.1319 14.0885C48.593 14.6494 47.9071 14.9744 47.1589 15.0812V18.4733C47.1589 18.8783 46.9095 19.1543 46.4953 19.1543H44.5268C44.1171 19.1543 43.9879 19.043 43.7786 18.7003L40.8927 13.955V18.4332C40.8927 18.865 40.6566 19.1543 40.2068 19.1543H38.0112C37.5168 19.1543 37.2585 18.8338 37.2585 18.362V6.85481C37.2585 6.43192 37.5347 6.1559 37.9577 6.1559H39.8995C39.9485 6.1559 39.9975 6.1559 40.042 6.16482C40.1534 6.00011 40.2781 5.83985 40.4206 5.69297C40.5008 5.60838 40.5898 5.52826 40.6789 5.45259C40.6834 5.44367 40.6923 5.43923 40.7012 5.43475C41.5563 4.73144 42.6429 4.53557 43.7207 4.72252C45.1993 4.97626 46.5487 5.87992 47.6087 6.90377C48.6687 7.92762 49.6351 9.28532 49.9513 10.741C50.0092 11.106 50.0226 11.4488 50.0003 11.7648L51.7817 6.63223C51.8976 6.29837 52.1469 6.15146 52.4943 6.15146H54.3203C54.6632 6.15146 54.9171 6.29837 55.0329 6.63223C56.3868 10.5407 57.7451 14.4491 59.0991 18.3575V18.3709L59.1078 18.3842C59.2236 18.8116 59.019 19.1721 58.5469 19.1721H56.0928C55.7588 19.1721 55.505 18.9896 55.407 18.6691C55.2689 18.2284 55.1309 17.7877 54.9928 17.3426H51.8218C51.6838 17.7833 51.5457 18.224 51.4076 18.6691C51.3097 18.9852 51.0558 19.1721 50.7218 19.1721H48.2723C47.8002 19.1721 47.5954 18.8071 47.7112 18.3842V18.3709L47.72 18.3575L49.2655 13.9016C49.2165 13.9728 49.1719 14.0395 49.1274 14.1063M73.6577 14.4402L73.1146 15.0946V18.4599C73.1146 18.8917 72.8828 19.1811 72.4332 19.1811H70.2508C69.761 19.1811 69.5026 18.8605 69.5026 18.3887V6.94828C69.5026 6.47643 69.761 6.1559 70.2508 6.1559H72.4332C72.8828 6.1559 73.1146 6.4408 73.1146 6.87261V9.77945C73.9563 8.69772 74.8025 7.62047 75.6442 6.53875C75.84 6.28945 76.183 6.1559 76.4992 6.1559H79.2472C79.7371 6.1559 80.0221 6.66783 79.6924 7.07736L76.103 11.5378C77.3677 13.7814 78.6325 16.0205 79.9018 18.264C80.1246 18.6558 79.9641 19.1811 79.4654 19.1811H76.8065C76.4145 19.1811 76.1163 19.052 75.9425 18.7003L73.6577 14.4446V14.4402Z" fill="black"/>
<path d="M35.7353 15.0456C35.7353 15.8468 35.5349 16.5413 35.1296 17.1244C34.7243 17.7076 34.181 18.1483 33.4907 18.4465C32.8048 18.7492 32.0433 18.8961 31.2149 18.8961C30.244 18.8961 29.4023 18.7759 28.6853 18.5356C28.0306 18.3174 27.4204 17.9747 26.9261 17.436C26.8326 17.3336 26.8593 17.1867 26.9305 17.1111C27.4427 16.5724 27.9593 16.0338 28.4715 15.4907C28.565 15.3794 28.7031 15.4195 28.7877 15.4996C29.0415 15.7311 29.3756 15.8869 29.7586 15.9982C30.2307 16.1362 30.7205 16.203 31.2283 16.203C32.3461 16.203 32.9028 15.8335 32.9028 15.099C32.9028 14.7874 32.8271 14.547 32.6712 14.3778C32.5153 14.2131 32.2615 14.1018 31.9008 14.0484L30.4845 13.8392C29.4468 13.6879 28.663 13.3273 28.133 12.753C27.5941 12.1743 27.3269 11.3508 27.3269 10.2869C27.3269 9.53904 27.5006 8.87576 27.848 8.28817C28.1954 7.70057 28.6853 7.24204 29.331 6.91266C29.9768 6.58324 30.7295 6.41406 31.5979 6.41406C32.4664 6.41406 33.2101 6.52981 33.8604 6.76575C34.3948 6.95715 34.8713 7.2554 35.2989 7.63378C35.4191 7.74064 35.4726 7.94983 35.3434 8.09674C34.8847 8.57751 34.426 9.05827 33.9672 9.53904C33.8203 9.7171 33.6154 9.65923 33.4506 9.5168C33.2457 9.33873 33.0052 9.23634 32.7648 9.17846C32.4174 9.09387 31.9987 9.05383 31.5133 9.05383C31.0546 9.05383 30.7027 9.16955 30.4622 9.39661C30.2217 9.62807 30.1015 9.8907 30.1015 10.1845C30.1015 10.4071 30.1772 10.594 30.3331 10.7588C30.5157 10.9502 30.7829 11.0704 31.1347 11.1193L32.5465 11.3196C33.5753 11.4799 34.3458 11.8182 34.8535 12.339C35.1564 12.6462 35.379 13.0246 35.5126 13.4608C35.6507 13.9015 35.7175 14.4268 35.7175 15.0322M46.4596 18.7848H44.4911C44.2417 18.7848 44.2194 18.767 44.0636 18.5133L40.4784 12.6195V18.4421C40.4784 18.6736 40.4027 18.7848 40.1711 18.7848H37.9799C37.6904 18.7848 37.6014 18.6246 37.6014 18.3709V6.85478C37.6014 6.62776 37.7216 6.52981 37.9265 6.52981H39.797C39.4185 7.29548 39.3516 8.17689 39.5342 9.04492C39.8416 10.5228 40.7813 11.8494 41.8501 12.8821C42.919 13.9149 44.2729 14.8096 45.7648 15.0678C46.0231 15.1123 46.2859 15.1346 46.5442 15.1346C46.611 15.1346 46.6778 15.1346 46.7446 15.1301V18.4866C46.7446 18.6691 46.6734 18.7893 46.4551 18.7893M53.3761 11.1772L52.325 14.4491H54.4316L53.3805 11.1772H53.3761ZM51.5144 16.9642C51.3497 17.4939 51.1849 18.0236 51.0201 18.5534C50.9711 18.7047 50.8687 18.7893 50.6905 18.7893H48.2411C48.0184 18.7893 47.9961 18.6513 48.0406 18.4732C49.399 14.5648 50.7529 10.6564 52.1068 6.74795C52.1647 6.57877 52.2671 6.52093 52.4631 6.52093H54.289C54.485 6.52093 54.5874 6.57877 54.6453 6.74795C55.9992 10.6564 57.3576 14.5648 58.7115 18.4732C58.7605 18.6513 58.7381 18.7893 58.5154 18.7893H56.0616C55.8834 18.7893 55.781 18.7047 55.7365 18.5534C55.5717 18.0236 55.4069 17.4939 55.2421 16.9642H51.5144ZM59.4731 12.2411C59.4731 11.1861 59.5399 10.3181 59.6823 9.62807C59.8204 8.94252 60.1456 8.32824 60.662 7.7896C61.0988 7.33108 61.5796 6.98386 62.1051 6.75684C62.6262 6.52981 63.2318 6.41406 63.9088 6.41406C64.4923 6.41406 65.0267 6.49865 65.5166 6.66336C66.0064 6.82807 66.4386 7.07289 66.8261 7.40231C67.2135 7.73173 67.5384 8.15017 67.8013 8.65763C68.024 9.08499 68.18 9.5702 68.3 10.1044C68.3356 10.2602 68.2688 10.4115 68.0996 10.4115H65.7302C65.5256 10.4115 65.4053 10.3091 65.3473 10.1444C65.2449 9.86846 65.1067 9.64143 64.9333 9.45892C64.706 9.22298 64.3721 9.10279 63.9266 9.10279C63.6818 9.10279 63.4591 9.15175 63.2629 9.24522C63.0671 9.33873 62.9111 9.46336 62.7909 9.61471C62.6884 9.74826 62.6083 9.91297 62.5461 10.0955C62.4838 10.2869 62.4345 10.5718 62.3992 10.9546C62.3055 11.974 62.3055 13.3228 62.3992 14.3422C62.4345 14.7295 62.4793 15.0099 62.5461 15.2014C62.6083 15.3883 62.6884 15.5486 62.7909 15.6821C62.9069 15.8335 63.0626 15.9581 63.2629 16.0516C63.4591 16.1451 63.6773 16.1941 63.9266 16.1941C64.3721 16.1941 64.706 16.0783 64.9333 15.838C65.1067 15.6554 65.2449 15.4284 65.3473 15.1524C65.4096 14.9877 65.5256 14.8853 65.7302 14.8809H68.0996C68.2688 14.8809 68.3356 15.0322 68.3 15.188C68.1842 15.7222 68.0286 16.2074 67.8013 16.6347C67.5384 17.1422 67.2135 17.5607 66.8261 17.8901C66.4428 18.2195 66.0064 18.4688 65.5166 18.629C65.0312 18.7937 64.4966 18.8783 63.9088 18.8783C63.2276 18.8783 62.6262 18.7626 62.1051 18.5356C61.5796 18.3085 61.0988 17.9658 60.662 17.5028C60.1456 16.9686 59.8204 16.3543 59.6823 15.6643C59.5399 14.9743 59.4731 14.1063 59.4731 13.0513V12.2233V12.2411ZM79.4297 18.7893H76.7708C76.5036 18.7893 76.3477 18.7225 76.2365 18.5044L73.6891 13.7591L72.7002 14.9432V18.4465C72.7002 18.678 72.6247 18.7893 72.3929 18.7893H70.2106C69.9256 18.7893 69.8367 18.629 69.8367 18.3753V6.94382C69.8367 6.69008 69.9256 6.52981 70.2106 6.52981H72.3929C72.6247 6.52981 72.7002 6.64109 72.7002 6.87258V10.87C73.7692 9.50344 74.8336 8.13682 75.9025 6.77019C76.0137 6.62776 76.241 6.52981 76.4592 6.52981H79.207C79.3451 6.52981 79.5098 6.65445 79.3584 6.83695L75.6085 11.4933C76.918 13.8081 78.2272 16.1228 79.5367 18.4421C79.6391 18.6157 79.5989 18.7982 79.4252 18.7982" fill="#FFA35F"/>
<path d="M49.5594 12.7398C49.4214 13.1627 49.1942 13.5411 48.8825 13.8616C48.1432 14.6273 47.0699 14.9344 45.8674 14.7252C44.6382 14.5115 43.3155 13.7681 42.1397 12.633C40.964 11.4934 40.1757 10.198 39.9218 8.97829C39.6813 7.80757 39.9352 6.74809 40.6433 5.98242C39.7259 9.14747 44.7139 12.6419 47.4751 13.1672C47.8982 13.2473 48.2991 13.2696 48.6509 13.2117C49.0161 13.1538 49.3278 13.0025 49.5594 12.7443V12.7398Z" fill="#DF8F22"/>
<path d="M43.7651 9.99752C43.8097 9.99752 43.8497 9.96191 43.8497 9.9174L43.872 9.40103C43.872 9.35204 43.8364 9.312 43.7874 9.312C43.7384 9.312 43.6983 9.3476 43.6983 9.39656L43.6761 9.90848C43.6761 9.95744 43.7117 9.99752 43.7562 9.99752M44.1392 5.9778C44.166 5.9778 44.1971 5.96444 44.2149 5.93772C44.2417 5.89768 44.2283 5.84425 44.1882 5.81753L43.7518 5.54599C43.7117 5.5193 43.6583 5.53266 43.6315 5.57271C43.6048 5.61278 43.6182 5.66618 43.6583 5.6929L44.0947 5.96444C44.0947 5.96444 44.1259 5.9778 44.1392 5.9778ZM41.9035 5.97335L42.3444 5.95108C42.3934 5.95108 42.4291 5.90656 42.4246 5.86205C42.4246 5.81309 42.3801 5.77749 42.3355 5.78193L41.8946 5.8042C41.8456 5.8042 41.81 5.84872 41.81 5.89321C41.81 5.93772 41.8501 5.97335 41.8991 5.97335M45.1324 11.008C45.1324 11.008 45.1324 11.008 45.1369 11.008L45.649 10.9813C45.698 10.9813 45.7336 10.9368 45.7292 10.8923C45.7292 10.8433 45.6846 10.8077 45.6401 10.8121L45.1279 10.8389C45.0789 10.8389 45.0433 10.8834 45.0478 10.9279C45.0478 10.9768 45.0879 11.0125 45.1324 11.0125M42.2509 8.21247C42.2999 8.21247 42.3355 8.17684 42.34 8.12788L42.3578 7.61596C42.3578 7.567 42.3222 7.52693 42.2732 7.52693C42.2242 7.52693 42.1841 7.56253 42.1841 7.61152L42.1663 8.12344C42.1663 8.1724 42.2019 8.21247 42.2509 8.21247ZM42.4825 6.58767H42.5226L42.9412 6.64107C42.9412 6.64107 42.9457 6.64107 42.9501 6.64107C42.9947 6.64107 43.0303 6.60991 43.0348 6.5654C43.0392 6.51644 43.0036 6.47636 42.959 6.46748L42.7853 6.44965C42.7007 6.44076 42.5671 6.41849 42.4914 6.41849C42.3845 6.41849 42.3756 6.57875 42.4825 6.59211M47.809 12.0096C47.8446 12.0096 47.8758 11.9873 47.8892 11.9517C47.907 11.9072 47.8847 11.8583 47.8402 11.8405L47.3592 11.6579C47.3147 11.6401 47.2657 11.6624 47.2479 11.7069C47.23 11.7514 47.2523 11.8004 47.2969 11.8182L47.7778 12.0007C47.7778 12.0007 47.8001 12.0052 47.809 12.0052M48.6819 11.9384C48.6819 11.9384 48.7131 11.9384 48.7265 11.925L49.105 11.698C49.1451 11.6713 49.1584 11.6179 49.1362 11.5778C49.1095 11.5377 49.056 11.5244 49.0159 11.5466L48.6374 11.7737C48.5973 11.7959 48.5839 11.8493 48.6062 11.8939C48.624 11.9206 48.6507 11.9339 48.6819 11.9339M48.477 10.9101C48.5216 10.9101 48.5572 10.8789 48.5617 10.8344C48.5661 10.7854 48.5305 10.7454 48.486 10.7409L47.9738 10.6831C47.9248 10.6786 47.8847 10.7097 47.8758 10.7587C47.8714 10.8077 47.907 10.8478 47.9515 10.8522L48.4637 10.9101H48.4726M48.5305 9.96636C48.5305 9.96636 48.5617 9.96636 48.575 9.953C48.6151 9.92628 48.6285 9.87732 48.6062 9.83281L48.3435 9.38767C48.3212 9.3476 48.2677 9.33424 48.2232 9.35651C48.1831 9.37876 48.1697 9.43219 48.192 9.47671L48.4548 9.92184C48.4726 9.94856 48.4993 9.96636 48.5305 9.96636ZM47.1276 8.59529V6.85474V6.84585V6.83694V6.83249V6.82358V6.81469C47.2256 6.90373 47.3236 6.99276 47.4215 7.09068C48.7265 8.35491 49.9156 10.0287 49.6706 11.9161C49.6172 12.201 49.5103 12.4236 49.3678 12.5839C49.1763 12.802 48.9135 12.9222 48.5973 12.9756C48.2722 13.029 47.8981 13.0067 47.5017 12.9311C44.6202 12.3835 39.6856 8.51517 40.995 5.66618C41.0974 5.48815 41.3824 5.27001 41.5784 5.18989C42.389 4.86491 43.3287 4.8204 44.3352 5.13646C44.981 5.3368 45.6445 5.6751 46.3037 6.15142H44.2283C43.3999 6.15142 43.2886 7.40229 43.538 7.98098C43.7384 8.45286 44.1348 8.95587 44.6826 9.43663C45.4308 10.091 46.1835 10.4471 46.7491 10.4471C47.0341 10.4471 47.2701 10.3581 47.4349 10.1711C47.8803 9.67257 47.573 8.96922 47.1321 8.59085" fill="#D942A9"/>
<path d="M46.7669 10.0998C46.5576 10.0865 46.1434 10.0464 45.5422 9.65024C44.9365 9.25407 44.2863 8.63531 43.8899 7.99872V6.88584C43.8899 6.60094 44.0191 6.53418 44.2417 6.53418H46.3884C46.6422 6.53418 46.7625 6.62321 46.7625 6.85915V10.1043L46.7669 10.0998Z" fill="#D47D1D"/>
<g clip-path="url(#clip0_1559_63835)">
<path d="M10.9971 1.01184L11.004 1.00888L11.002 1C11.002 1 10.999 1.00691 10.9971 1.01184Z" fill="black"/>
<path d="M0 11.9989C0 18.0734 4.92452 22.9979 11.001 22.9979C15.4148 22.9979 19.222 20.3961 20.9708 16.6453C20.7273 16.1198 20.2641 15.7012 19.7258 15.4874C19.0667 15.2252 18.4184 15.3321 17.7742 15.5854C17.0804 15.8586 16.4134 16.2287 15.6504 16.2514C14.8686 16.2762 14.1075 15.9516 13.4712 15.5201C13.3712 15.4528 13.2752 15.3825 13.1802 15.3073C12.5557 15.721 11.8056 15.9615 11.001 15.9615C8.91975 15.9615 7.22051 14.3612 7.05326 12.3245C7.05128 12.3245 7.04831 12.3245 7.04534 12.3275C7.02555 12.3275 6.98596 12.3324 6.92955 12.3344C6.89887 12.3374 6.86424 12.3393 6.82366 12.3393H6.81376C6.75142 12.3413 6.67917 12.3443 6.59802 12.3443C6.02897 12.3443 5.04031 12.2641 4.28322 11.7832C4.1031 11.6684 3.93684 11.5308 3.79037 11.3675C3.74584 11.318 3.70526 11.2675 3.66568 11.2141C3.5103 11.0013 3.33513 10.8034 3.1471 10.6302C2.32767 9.8662 1.26577 9.48122 0.564102 9.56633C0.562123 9.57128 0.561134 9.57623 0.562123 9.58118L0.537382 9.57128C0.527485 9.57425 0.517589 9.57425 0.511651 9.57623C0.48592 9.57821 0.462168 9.58316 0.439406 9.59108C0.418623 9.59305 0.394872 9.598 0.374089 9.60394L0.344399 9.4931L0.34242 9.48815L0.31471 9.38721C0.109852 10.2245 0 11.0973 0 11.9989Z" fill="#FFA35F"/>
<path d="M0.536377 9.57134L0.561047 9.58121C0.561047 9.58121 0.561047 9.57134 0.563021 9.56641C0.555126 9.56937 0.545258 9.56937 0.537364 9.57134H0.536377Z" fill="#FF0068"/>
<path d="M0.313978 9.38138V9.38632L0.341688 9.48727L0.343668 9.49222L0.373357 9.60306C0.39414 9.59613 0.417892 9.59118 0.438674 9.59019C0.461436 9.58228 0.484198 9.57733 0.510919 9.57535C0.510919 9.5704 0.510919 9.56545 0.515867 9.56248L0.53764 9.5704C0.545557 9.56842 0.555453 9.56842 0.563371 9.56545C1.26504 9.48034 2.32693 9.86532 3.14637 10.6293C3.3344 10.8025 3.50957 11.0004 3.66494 11.2132C3.70453 11.2677 3.74511 11.3181 3.78964 11.3666C3.93512 11.5299 4.10237 11.6675 4.28249 11.7823C5.03957 12.2632 6.02824 12.3434 6.59729 12.3434C6.67943 12.3434 6.75068 12.3404 6.81303 12.3385H6.82293C6.86351 12.3385 6.89814 12.3365 6.92882 12.3335C6.98622 12.3315 7.02581 12.3266 7.04461 12.3266C7.04758 12.3236 7.05154 12.3236 7.05253 12.3236V12.3157C7.0456 12.2484 7.04461 12.1831 7.04065 12.1158C7.03867 12.0762 7.03867 12.0376 7.03867 11.998C7.03867 11.8555 7.04659 11.715 7.05946 11.5754C7.07925 11.4032 7.10696 11.235 7.14754 11.0717C7.56319 9.32892 9.12882 8.03545 10.9993 8.03545C13.1735 8.03545 14.9391 9.78614 14.9618 11.9555V11.998C14.9618 12.3404 14.9173 12.674 14.8342 12.9906C14.8243 13.0302 14.8134 13.0688 14.8015 13.1084C14.5838 13.8546 14.1553 14.5088 13.5813 14.9996C13.4536 15.1125 13.319 15.2144 13.1785 15.3054C13.2735 15.3807 13.3695 15.4509 13.4694 15.5182C14.1058 15.9497 14.8668 16.2743 15.6487 16.2496C16.4107 16.2268 17.0787 15.8567 17.7725 15.5835C18.4167 15.3302 19.0649 15.2233 19.7241 15.4856C20.2624 15.7003 20.7256 16.1189 20.969 16.6435C21.0541 16.4623 21.1323 16.2783 21.2075 16.0922C21.2075 16.0902 21.2095 16.0892 21.2095 16.0873C21.2273 16.0447 21.2452 16.0022 21.262 15.9596V15.9576C21.3718 15.6696 21.4718 15.3747 21.5579 15.0778C21.5599 15.0729 21.5628 15.0699 21.5628 15.0659C21.8479 14.0911 21.9983 13.0619 21.9983 11.997C22.0003 5.92452 17.0757 1 11.0012 1C9.15752 1 7.4187 1.45326 5.89167 2.25686C6.26477 2.58543 6.30732 3.15547 6.16283 3.6493C6.02329 4.12533 5.72145 4.65083 5.23652 4.78444C5.40871 5.36041 5.27412 6.01457 4.84362 6.45299C4.42599 6.87656 3.80152 7.02204 3.23741 6.88448C3.18991 7.26055 2.93359 7.60594 2.58919 7.78408C2.04785 8.06217 1.41249 7.90382 0.90876 7.61386C0.693015 8.10769 0.512898 8.6233 0.370388 9.15376C0.358512 9.19334 0.348616 9.2359 0.33773 9.27647C0.329812 9.3121 0.320906 9.34674 0.312988 9.38138H0.313978Z" fill="#FF0068"/>
<path d="M0.510752 9.57631C0.51766 9.57433 0.527528 9.57433 0.53641 9.57137L0.5147 9.56348C0.5147 9.56348 0.509766 9.57137 0.509766 9.57631H0.510752Z" fill="#FF0068"/>
<path d="M0.310791 9.38135L0.31403 9.38675V9.38135H0.310791Z" fill="#FF0068"/>
</g>
<defs>
<clipPath id="clip0_1559_63835">
<rect width="22" height="21.998" fill="white" transform="translate(0 1)"/>
</clipPath>
</defs>
</svg>
