<svg width="80" height="24" viewBox="0 0 80 24" fill="none" xmlns="http://www.w3.org/2000/svg">
<g clip-path="url(#clip0_47_602)">
<path d="M13.2608 15.4081L11.0592 17.7665C11.0112 17.8177 10.9536 17.8593 10.8896 17.8881C10.8256 17.9169 10.7552 17.9297 10.688 17.9297H0.255959C0.204759 17.9297 0.156759 17.9137 0.115159 17.8881C0.0735586 17.8593 0.0415586 17.8209 0.0191586 17.7761C-4.14065e-05 17.7313 -0.00644141 17.6801 -4.1406e-05 17.6321C0.00635859 17.5841 0.0319586 17.5361 0.0639586 17.5009L2.26236 15.1425C2.31036 15.0913 2.36796 15.0497 2.43196 15.0241C2.49596 14.9953 2.56636 14.9825 2.63676 14.9825H13.0688C13.12 14.9825 13.168 14.9953 13.2096 15.0209C13.2512 15.0465 13.2864 15.0881 13.3056 15.1329C13.3248 15.1777 13.3312 15.2289 13.3248 15.2801C13.3184 15.3249 13.2928 15.3697 13.2608 15.4081ZM11.0592 10.6529C11.0112 10.6017 10.9536 10.5601 10.8896 10.5345C10.8256 10.5057 10.7552 10.4929 10.688 10.4929H0.255959C0.204759 10.4929 0.156759 10.5089 0.115159 10.5345C0.0735586 10.5633 0.0415586 10.6017 0.0191586 10.6465C-4.14065e-05 10.6913 -0.00644141 10.7425 -4.1406e-05 10.7905C0.00955859 10.8385 0.0319586 10.8865 0.0639586 10.9217L2.26236 13.2833C2.31036 13.3345 2.36796 13.3761 2.43196 13.4017C2.49596 13.4305 2.56636 13.4433 2.63356 13.4433H13.0656C13.1168 13.4433 13.1648 13.4273 13.2064 13.4017C13.248 13.3729 13.28 13.3345 13.2992 13.2897C13.3184 13.2449 13.3248 13.1937 13.3152 13.1457C13.3056 13.0977 13.2832 13.0497 13.2512 13.0145L11.0592 10.6529ZM0.255959 8.96008H10.688C10.7584 8.96008 10.8256 8.94408 10.8896 8.91848C10.9536 8.88968 11.0112 8.84808 11.0592 8.79688L13.2608 6.43848C13.296 6.40328 13.3184 6.35528 13.328 6.30728C13.3376 6.25928 13.3312 6.20808 13.3088 6.16008C13.2896 6.11528 13.2544 6.07688 13.2128 6.04808C13.1712 6.02248 13.12 6.00648 13.072 6.00968H2.63996C2.56956 6.00968 2.50236 6.02568 2.43516 6.05128C2.37116 6.08008 2.31356 6.12168 2.26556 6.17288L0.0671586 8.53128C0.0319586 8.56648 0.00955859 8.61448 0.00315859 8.66248C-0.00324141 8.71048 -4.14065e-05 8.76168 0.0223586 8.80648C0.0415586 8.85128 0.0735586 8.88968 0.118359 8.91848C0.156759 8.94408 0.204759 8.96008 0.255959 8.96008Z" fill="url(#paint0_linear_47_602)"/>
<path d="M25.9774 11.0496H20.3966V9.2128H27.427V7.3728H20.3774C20.1374 7.3728 19.8974 7.4176 19.6766 7.5072C19.4526 7.5968 19.251 7.7312 19.0782 7.9008C18.9054 8.0704 18.771 8.272 18.6782 8.4928C18.5854 8.7136 18.5374 8.9536 18.5342 9.1936V11.056C18.5342 11.296 18.5822 11.536 18.6782 11.7568C18.771 11.9776 18.9086 12.1824 19.0782 12.3488C19.251 12.5184 19.4526 12.6528 19.6766 12.7424C19.9006 12.8352 20.1374 12.88 20.3806 12.88H25.9678V14.7168H18.6654V16.5536H25.9742C26.2142 16.5536 26.4542 16.5088 26.6782 16.4192C26.9022 16.3296 27.1038 16.1952 27.2766 16.0256C27.4462 15.856 27.5838 15.6544 27.6766 15.4336C27.7694 15.2128 27.8174 14.9728 27.8206 14.7328V12.8704C27.8206 12.6304 27.7726 12.3904 27.6766 12.1696C27.5838 11.9488 27.4462 11.744 27.2766 11.5744C27.1038 11.4048 26.9022 11.2704 26.6782 11.1808C26.4574 11.0944 26.2174 11.0464 25.9774 11.0496Z" fill="white"/>
<path d="M36.787 7.37271H31.187C30.947 7.36951 30.707 7.41751 30.483 7.50711C30.259 7.59671 30.0574 7.73111 29.8846 7.90071C29.7118 8.07031 29.5774 8.27191 29.4814 8.49271C29.3886 8.71671 29.3374 8.95351 29.3374 9.19351V14.7327C29.3374 14.9727 29.3886 15.2127 29.4814 15.4335C29.5742 15.6575 29.7118 15.8591 29.8846 16.0255C30.0574 16.1951 30.259 16.3295 30.483 16.4191C30.707 16.5087 30.947 16.5567 31.187 16.5535H36.787C37.027 16.5535 37.267 16.5087 37.491 16.4191C37.715 16.3295 37.9166 16.1951 38.0894 16.0255C38.2622 15.8559 38.3966 15.6543 38.4894 15.4335C38.5822 15.2127 38.6302 14.9727 38.6334 14.7327V9.19671C38.6334 8.95671 38.5822 8.71671 38.4894 8.49591C38.3966 8.27511 38.259 8.07351 38.0894 7.90391C37.9198 7.73431 37.715 7.59991 37.491 7.51031C37.267 7.41751 37.027 7.37271 36.787 7.37271ZM36.7742 14.7231H31.1998V9.21271H36.771L36.7742 14.7231Z" fill="white"/>
<path d="M56.4065 7.37272H50.9441C50.7041 7.37272 50.4641 7.41752 50.2401 7.50712C50.0161 7.59672 49.8145 7.73112 49.6417 7.90072C49.4721 8.07032 49.3345 8.27192 49.2417 8.49272C49.1489 8.71352 49.1009 8.95352 49.0977 9.19352V16.5599H50.9601V13.5423H56.4001V16.5599H58.2625V9.19672C58.2625 8.95352 58.2113 8.71672 58.1185 8.49272C58.0257 8.26872 57.8881 8.06712 57.7153 7.89752C57.5425 7.72792 57.3377 7.59352 57.1137 7.50392C56.8897 7.41432 56.6497 7.36952 56.4065 7.37272ZM56.3937 11.7055H50.9537V9.20952H56.3937V11.7055Z" fill="white"/>
<path d="M78.1569 7.3728H72.6945C72.4545 7.3728 72.2145 7.4176 71.9905 7.5072C71.7665 7.5968 71.5649 7.7312 71.3921 7.9008C71.2193 8.0704 71.0849 8.272 70.9921 8.4928C70.8993 8.7136 70.8513 8.9536 70.8481 9.1936V16.56H72.7105V13.5424H78.1377V16.56H80.0001V9.1968C80.0001 8.9568 79.9489 8.7168 79.8561 8.496C79.7633 8.2752 79.6257 8.0736 79.4561 7.904C79.2833 7.7344 79.0817 7.6 78.8577 7.5104C78.6369 7.4176 78.3969 7.3728 78.1569 7.3728ZM78.1377 11.7056H72.6977V9.2096H78.1377V11.7056Z" fill="white"/>
<path d="M67.3342 14.7232H66.5886L63.9262 8.144C63.8366 7.9168 63.6766 7.7216 63.475 7.584C63.2734 7.4464 63.0334 7.3728 62.7902 7.3728H61.1358C60.9758 7.3728 60.8158 7.4016 60.6686 7.4624C60.5214 7.5232 60.3838 7.6128 60.2718 7.7248C60.1566 7.8368 60.067 7.9712 60.0062 8.1216C59.9454 8.2688 59.9102 8.4288 59.9102 8.5888V16.56H61.7726V9.2128H62.5182L65.1806 15.7952C65.2734 16.0224 65.4302 16.2144 65.635 16.352C65.8398 16.4896 66.0766 16.56 66.323 16.56H67.9774C68.1374 16.56 68.2974 16.5312 68.4446 16.4704C68.595 16.4096 68.7294 16.32 68.8414 16.208C68.9566 16.096 69.0462 15.9616 69.107 15.8112C69.1678 15.664 69.203 15.504 69.203 15.344V7.376H67.3374V14.7232H67.3342Z" fill="white"/>
<path d="M42.1378 7.3728H40.2754V14.736C40.2754 14.976 40.3266 15.216 40.4194 15.44C40.5122 15.664 40.6498 15.8656 40.8226 16.032C40.9954 16.2016 41.197 16.336 41.421 16.4256C41.645 16.5152 41.885 16.5632 42.125 16.56H47.7122V14.7232H42.1378V7.3728Z" fill="white"/>
</g>
<defs>
<linearGradient id="paint0_linear_47_602" x1="1.09617" y1="18.236" x2="12.0151" y2="5.9444" gradientUnits="userSpaceOnUse">
<stop stop-color="#9945FF"/>
<stop offset="0.0784314" stop-color="#9945FF"/>
<stop offset="0.302" stop-color="#8752F3"/>
<stop offset="0.502" stop-color="#5497D5"/>
<stop offset="0.6" stop-color="#43B4CA"/>
<stop offset="0.7216" stop-color="#28E0B9"/>
<stop offset="0.9686" stop-color="#19FB9B"/>
<stop offset="1" stop-color="#19FB9B"/>
</linearGradient>
<clipPath id="clip0_47_602">
<rect width="80" height="24" fill="white"/>
</clipPath>
</defs>
</svg>
