<svg width="80" height="24" viewBox="0 0 80 24" fill="none" xmlns="http://www.w3.org/2000/svg">
<path d="M41.4226 17.195V9.50313H38.4541V7.41211H46.9535V9.50313H43.9851V17.195H41.4226Z" fill="white"/>
<path d="M47.1567 12.3385C47.1567 11.3257 47.3598 10.4505 47.7635 9.70837C48.1673 8.96625 48.7087 8.35947 49.4508 7.9557C50.2606 7.48426 51.138 7.28125 52.1486 7.28125C53.1591 7.28125 54.0366 7.48426 54.7787 7.88803C55.5208 8.2918 56.0599 8.90084 56.466 9.64296C56.8697 10.3851 57.0727 11.2625 57.0727 12.2731C57.0727 13.2836 56.8697 14.1611 56.466 14.9032C56.0622 15.6453 55.5208 16.2521 54.7787 16.6582C54.0366 17.0619 53.1591 17.2649 52.1486 17.2649C51.1358 17.2649 50.2606 17.0619 49.5184 16.6582C48.7763 16.2544 48.2372 15.6453 47.8312 14.9032C47.3575 14.2265 47.1567 13.2814 47.1567 12.3385ZM49.8545 12.3385C49.8545 12.9453 49.9222 13.4844 50.1252 13.8904C50.2606 14.2942 50.529 14.6325 50.8673 14.9032C51.2034 15.1062 51.6095 15.2416 52.1486 15.2416C52.8907 15.2416 53.4975 14.9709 53.8358 14.4995C54.2396 13.9603 54.3749 13.2859 54.3749 12.3408C54.3749 11.734 54.3073 11.1949 54.1043 10.7888C53.9689 10.3851 53.6982 10.0467 53.3621 9.77604C53.026 9.57303 52.62 9.43995 52.0809 9.43995C51.3388 9.43995 50.732 9.71063 50.3937 10.1821C50.0576 10.6513 49.8545 11.3934 49.8545 12.3385Z" fill="white"/>
<path d="M58.6226 17.195V7.41211H60.5128L65.437 13.5521H65.031V7.41211H67.3927V17.195H65.5047L60.5805 11.055H60.9843V17.195H58.6226Z" fill="white"/>
<path d="M21.7935 22.7935C27.7305 22.7935 32.587 17.937 32.587 12C32.5847 6.06304 27.7282 1.20654 21.7935 1.20654C15.8565 1.20654 11 6.06304 11 12C11 17.937 15.8565 22.7935 21.7935 22.7935Z" fill="#0088CC"/>
<path fill-rule="evenodd" clip-rule="evenodd" d="M18.7574 8.35718H24.8275C25.0305 8.35718 25.2312 8.35718 25.5019 8.49252C25.7726 8.62786 25.9057 8.83087 26.041 8.96396C26.041 8.96396 26.041 8.96396 26.041 9.03163C26.1764 9.23464 26.244 9.4354 26.244 9.70608C26.244 9.90909 26.1764 10.1775 26.041 10.3805L22.1973 16.9243C22.1296 17.0596 21.9266 17.1273 21.7936 17.1273C21.6582 17.1273 21.4575 17.0596 21.3898 16.9243L17.6115 10.3805C17.5438 10.2452 17.4085 10.0444 17.3408 9.70608C17.3408 9.4354 17.4085 9.16697 17.4762 8.96396C17.6115 8.76095 17.8123 8.56019 18.0153 8.42485C18.3536 8.35718 18.6221 8.35718 18.7574 8.35718ZM21.3199 9.30231H18.7574C18.6221 9.30231 18.5544 9.30231 18.4867 9.30231C18.419 9.30231 18.3514 9.36998 18.3514 9.43765C18.2837 9.50532 18.2837 9.57299 18.2837 9.64067C18.2837 9.70834 18.2837 9.70834 18.419 9.91135L21.3199 14.9709V9.30231ZM22.265 9.30231V14.9686L25.2335 9.90909C25.2335 9.84142 25.3011 9.77375 25.3011 9.63841C25.3011 9.57074 25.3011 9.50307 25.2335 9.4354C25.1658 9.36773 25.1658 9.36773 25.1658 9.36773C25.1658 9.36773 25.1658 9.36773 25.0981 9.36773C25.0305 9.36773 24.9628 9.30006 24.8275 9.30006H22.265V9.30231Z" fill="white"/>
</svg>
