<svg width="80" height="24" viewBox="0 0 80 24" fill="none" xmlns="http://www.w3.org/2000/svg">
<g clip-path="url(#clip0_919_25695)">
<path d="M0.027811 0C0.239174 0.0990632 0.472786 0.101289 0.695274 0.146925C1.28153 0.266024 1.87001 0.369539 2.45738 0.480846C3.0136 0.583248 3.57649 0.680085 4.13493 0.783601C4.83021 0.911604 5.52437 1.04406 6.21964 1.17206C6.77586 1.27558 7.33208 1.37241 7.89609 1.47593C8.59136 1.60393 9.28441 1.73639 9.97968 1.86328C10.7729 2.00798 11.5671 2.14488 12.3592 2.28958C13.1512 2.43428 13.9422 2.59011 14.7331 2.73481C15.5741 2.88953 16.4163 3.03757 17.2573 3.19006C17.4953 3.23235 17.7323 3.28801 17.9726 3.31806C18.1639 3.34143 18.2573 3.49281 18.3753 3.603C18.9548 4.14173 19.52 4.69381 20.0929 5.24033C20.9324 6.04174 21.7734 6.84204 22.6159 7.64122C22.8005 7.81597 22.8094 7.81597 22.6504 8.01076C22.1587 8.61293 21.6614 9.21065 21.1686 9.8117C20.7359 10.3382 20.3053 10.8691 19.8726 11.3967C19.4399 11.9243 18.9904 12.4641 18.551 12.9995C18.1116 13.5349 17.6878 14.057 17.255 14.5845C16.9068 15.0086 16.5564 15.4305 16.2082 15.8534L15.0713 17.2403C14.633 17.7761 14.1936 18.3118 13.7531 18.8476L12.4537 20.4282C12.0088 20.9684 11.5664 21.5078 11.1266 22.0466L9.82172 23.6472C9.72716 23.7585 9.63038 23.8698 9.52247 24C9.35004 23.5659 9.18874 23.1452 9.0152 22.7244C7.92279 19.9714 6.82963 17.2199 5.73573 14.4699C3.84385 9.71264 1.9527 4.95576 0.0622963 0.199239C0.0367102 0.134681 0.0200239 0.0667842 0 0H0.027811ZM13.0878 8.78434C13.1308 8.79885 13.1773 8.79885 13.2202 8.78434C13.624 8.71199 14.0278 8.63742 14.4317 8.56173L19.3353 7.67127L20.5701 7.44866C20.5423 7.41749 20.5312 7.40191 20.5178 7.38967C19.6612 6.57601 18.8013 5.76459 17.9503 4.94091C17.8391 4.83629 17.7879 4.84074 17.6766 4.93312C16.203 6.16789 14.7265 7.40005 13.2469 8.62963C13.1913 8.67637 13.1179 8.70643 13.0912 8.78323L13.0678 8.79325C13.0678 8.79325 13.0767 8.80104 13.0812 8.80104C13.0856 8.80104 13.0978 8.79547 13.0878 8.78434ZM2.5397 2.88508L2.51189 2.90511L9.47019 20.4193C9.51 20.2735 9.5368 20.1245 9.55028 19.974C9.69861 18.766 9.84693 17.5579 9.99526 16.3499C10.1295 15.2368 10.2634 14.1237 10.3968 13.0107C10.5222 11.9666 10.6497 10.9229 10.7795 9.8796C10.7887 9.83187 10.7837 9.78248 10.7652 9.73756C10.7466 9.69264 10.7152 9.65418 10.675 9.62693C8.0496 7.45051 5.42462 5.27335 2.80001 3.09545C2.71435 3.02421 2.62647 2.95409 2.5397 2.88396V2.88508ZM20.3654 8.79325C20.3384 8.79147 20.3112 8.79147 20.2842 8.79325L18.2596 9.16056C16.2349 9.52787 14.2099 9.8937 12.1845 10.258C12.0421 10.2836 11.9899 10.3304 11.9743 10.4807C11.8786 11.3522 11.7707 12.2215 11.665 13.0919C11.5493 14.061 11.4322 15.0309 11.3135 16.0015C11.1993 16.9535 11.0829 17.9067 10.9642 18.861C10.9008 19.3852 10.8385 19.9095 10.7706 20.4771C13.9845 16.5669 17.1683 12.6868 20.3654 8.79213V8.79325ZM3.46524 1.94231L3.45412 1.97792L4.11046 2.52333C6.49034 4.49717 8.86947 6.47139 11.2479 8.44597C11.3535 8.5339 11.4058 8.5083 11.4926 8.43595C12.7341 7.39709 13.977 6.36045 15.2215 5.32604L16.4196 4.32427L3.46524 1.94231Z" fill="#FF050B"/>
<path d="M79.9999 19.0769C79.9332 19.0769 79.8998 19.0223 79.8664 18.9845C79.6306 18.7107 79.3803 18.4502 79.1444 18.1775C79.0332 18.0428 78.9042 17.9137 78.7851 17.7824C78.5426 17.5141 78.2945 17.2514 78.0643 16.9743C77.9641 16.853 77.8529 16.7383 77.745 16.6214C77.4869 16.3421 77.2299 16.0649 76.9841 15.7711C76.8884 15.6597 76.7816 15.5484 76.6837 15.4371C76.36 15.0687 76.0163 14.7147 75.6903 14.3519C75.4244 14.0603 75.1552 13.7698 74.8983 13.4681C74.6012 13.1186 74.2864 12.7847 73.9827 12.4396C73.7702 12.1992 73.5489 11.9644 73.3342 11.725C73.0104 11.3644 72.6856 11.0049 72.3652 10.6431C72.1594 10.4105 71.947 10.1801 71.7378 9.9497C71.4953 9.68256 71.2484 9.41988 71.017 9.14272C70.9057 9.01472 70.7878 8.89562 70.6743 8.77096C70.5932 8.69916 70.5235 8.61547 70.4674 8.52274C70.4422 8.57216 70.4344 8.62861 70.4452 8.68302C70.4452 11.7996 70.4452 14.9188 70.4452 18.0406C70.4452 18.2354 70.4452 18.2354 70.2438 18.2354C69.9034 18.2354 69.5619 18.2354 69.2204 18.2354C69.1191 18.2354 69.0991 18.2042 69.0991 18.1085C69.0991 13.766 69.0991 9.42507 69.0991 5.08558C69.0991 5.0533 69.0991 5.01991 69.0991 4.95758C69.3216 5.20357 69.5274 5.42618 69.7299 5.64991C70.0402 5.99496 70.3473 6.34224 70.6576 6.6884C71.2643 7.36515 71.8717 8.04153 72.4798 8.71753C72.8636 9.14495 73.2507 9.56903 73.6356 9.99645C74.1451 10.5641 74.6524 11.1351 75.163 11.7028C75.46 12.0367 75.7615 12.3595 76.0585 12.6901C76.5725 13.2611 77.0831 13.8354 77.597 14.4064C77.9308 14.7715 78.2645 15.1333 78.6238 15.5317V15.3158C78.6238 12.1992 78.6238 9.08521 78.6238 5.97381C78.6238 5.84025 78.6527 5.79795 78.794 5.80129C79.1945 5.81131 79.5961 5.80129 79.9966 5.80129L79.9999 19.0769Z" fill="white"/>
<path d="M51.8419 18.2399C51.3591 18.2399 50.8774 18.2399 50.3957 18.2399C50.3067 18.2399 50.2744 18.1943 50.2399 18.1286C50.0486 17.7613 49.8558 17.3943 49.6615 17.0278C49.3778 16.489 49.0952 15.9492 48.8093 15.4105C48.4856 14.7983 48.1574 14.1861 47.8393 13.5739C47.8207 13.5267 47.7871 13.4869 47.7437 13.4607C47.7002 13.4346 47.6494 13.4235 47.599 13.4292C46.6712 13.4351 45.7442 13.4351 44.8179 13.4292C44.7 13.4292 44.6677 13.4593 44.6677 13.5795C44.6677 15.0788 44.6677 16.5781 44.6677 18.0774C44.6677 18.211 44.6355 18.2432 44.5042 18.2399C44.1538 18.2299 43.8022 18.2332 43.4507 18.2399C43.3617 18.2399 43.3328 18.221 43.3328 18.1286C43.3328 16.1533 43.3328 14.1776 43.3328 12.2015C43.3328 12.0779 43.3873 12.0802 43.4763 12.0802C44.9803 12.0802 46.4854 12.0802 47.9906 12.0802C48.7482 12.0802 49.3589 11.7663 49.8517 11.2231C50.1513 10.8916 50.3451 10.478 50.4079 10.0355C50.4606 9.71293 50.4489 9.38315 50.3733 9.0652C50.2978 8.74726 50.16 8.44746 49.9678 8.18317C49.7757 7.91889 49.5331 7.69536 49.254 7.52553C48.975 7.3557 48.665 7.24294 48.3421 7.19379C48.1807 7.17147 48.0178 7.16143 47.8549 7.16374C46.0394 7.16374 44.2227 7.16374 42.4039 7.16374C42.2804 7.16374 42.2493 7.19045 42.2493 7.31734C42.2493 10.8873 42.2493 14.4577 42.2493 18.0284C42.2493 18.2455 42.2493 18.2455 42.0268 18.2455C41.7008 18.2455 41.3749 18.2455 41.0489 18.2455C40.9455 18.2455 40.9132 18.2221 40.9143 18.1141C40.9143 17.5876 40.9143 17.0612 40.9143 16.5347C40.9143 13.0196 40.9143 9.50415 40.9143 5.98833C40.9143 5.85143 40.9366 5.80579 41.0879 5.8069C43.3951 5.8069 45.7023 5.8069 48.0106 5.81358C48.5429 5.80553 49.0707 5.913 49.5575 6.1286C50.0443 6.34419 50.4787 6.66278 50.8306 7.06245C51.3467 7.62069 51.6747 8.3269 51.7684 9.08155C51.8866 9.94384 51.7089 10.8207 51.2644 11.5689C50.8198 12.317 50.1347 12.892 49.3211 13.1999C49.2321 13.2333 49.2098 13.2478 49.261 13.3402C49.8684 14.4755 50.4728 15.6119 51.0743 16.7495C51.3168 17.2081 51.5589 17.6663 51.8007 18.1241C51.825 18.1581 51.8393 18.1982 51.8419 18.2399Z" fill="white"/>
<path d="M60.2852 18.2343C56.8622 18.2099 54.4694 15.5095 54.1802 12.7614C53.9833 10.8781 54.4972 9.19956 55.7821 7.80599C57.0669 6.41243 58.6977 5.75349 60.5967 5.81026C62.2328 5.86666 63.7805 6.56715 64.9032 7.75938C66.0259 8.95161 66.6327 10.5391 66.5916 12.1767C66.5506 13.8142 65.865 15.3693 64.684 16.5037C63.503 17.6381 61.9221 18.2601 60.2852 18.2343ZM65.2366 12.0245C65.2195 10.7446 64.6998 9.52286 63.7899 8.62312C62.8799 7.72338 61.6528 7.2179 60.3735 7.21585C59.0942 7.21381 57.8655 7.71536 56.9527 8.61218C56.0399 9.50901 55.5163 10.7291 55.495 12.0089C55.4884 14.6803 57.6754 16.8853 60.3208 16.8853C60.9632 16.8913 61.6004 16.7701 62.1957 16.5287C62.7911 16.2873 63.3328 15.9304 63.7898 15.4786C64.2467 15.0268 64.6098 14.489 64.8581 13.8962C65.1064 13.3034 65.2351 12.6673 65.2366 12.0245Z" fill="white"/>
<path d="M32.7481 5.80691C34.5136 5.80691 36.2779 5.80691 38.0433 5.80691C38.1713 5.80691 38.1991 5.8403 38.1957 5.96274C38.1868 6.31336 38.1902 6.66509 38.1957 7.01571C38.1957 7.11477 38.1791 7.15262 38.0678 7.15262C34.5169 7.15262 30.9668 7.15262 27.4173 7.15262C27.3139 7.15262 27.2939 7.11923 27.295 7.02462C27.3005 6.674 27.3028 6.32226 27.295 5.97164C27.295 5.84586 27.3161 5.80579 27.454 5.80691C29.2184 5.80913 30.9883 5.80691 32.7481 5.80691Z" fill="white"/>
<path d="M32.2039 13.8521C32.2039 15.262 32.2039 16.6719 32.2039 18.0818C32.2039 18.2076 32.1749 18.2398 32.0491 18.2365C31.6985 18.2276 31.3468 18.2298 30.9951 18.2365C30.8982 18.2365 30.8582 18.2232 30.8582 18.1096C30.8582 15.2809 30.8582 12.453 30.8582 9.6258C30.8582 9.52562 30.886 9.50002 30.9828 9.50113C31.3446 9.50113 31.7063 9.50892 32.067 9.50113C32.1883 9.50113 32.2027 9.54009 32.2016 9.64472C32.2016 11.0487 32.2024 12.4511 32.2039 13.8521Z" fill="white"/>
<path d="M34.6166 13.8722C34.6166 15.2747 34.6166 16.6779 34.6166 18.0818C34.6166 18.2054 34.5899 18.241 34.463 18.2377C34.1124 18.2277 33.7607 18.231 33.4101 18.2377C33.3066 18.2377 33.2754 18.2176 33.2754 18.1086C33.2754 15.2814 33.2754 12.4545 33.2754 9.62808C33.2754 9.53236 33.2965 9.50008 33.3978 9.5023C33.754 9.5023 34.1102 9.50898 34.4664 9.5023C34.5777 9.5023 34.6155 9.5279 34.6155 9.64812C34.614 11.0558 34.6144 12.4638 34.6166 13.8722Z" fill="white"/>
<path d="M71.5544 11.5013C71.9907 11.9855 72.417 12.4608 72.8455 12.9328C72.8632 12.9531 72.8766 12.9768 72.8848 13.0024C72.893 13.028 72.896 13.0551 72.8934 13.0819C72.8934 14.7604 72.8934 16.4393 72.8934 18.1185C72.8934 18.2198 72.8622 18.2432 72.7654 18.2421C72.3947 18.2365 72.0241 18.2421 71.6523 18.2421C71.5811 18.2421 71.5332 18.2421 71.5332 18.1453C71.5332 15.9443 71.5332 13.7445 71.5332 11.5459C71.5378 11.53 71.545 11.515 71.5544 11.5013Z" fill="white"/>
<path d="M13.0879 8.7843C13.0979 8.79544 13.0946 8.80323 13.0812 8.80546C13.0679 8.80769 13.0723 8.80546 13.0679 8.79766L13.0912 8.78764L13.0879 8.7843Z" fill="white"/>
<path d="M60.3681 12.9139C60.1355 12.9057 59.9151 12.8075 59.7535 12.6401C59.5918 12.4726 59.5015 12.2489 59.5015 12.0162C59.5015 11.7834 59.5918 11.5597 59.7535 11.3923C59.9151 11.2248 60.1355 11.1267 60.3681 11.1185C60.6007 11.1267 60.8211 11.2248 60.9827 11.3923C61.1444 11.5597 61.2347 11.7834 61.2347 12.0162C61.2347 12.2489 61.1444 12.4726 60.9827 12.6401C60.8211 12.8075 60.6007 12.9057 60.3681 12.9139Z" fill="white"/>
</g>
<defs>
<clipPath id="clip0_919_25695">
<rect width="80" height="24" fill="white"/>
</clipPath>
</defs>
</svg>
