<svg width="80" height="24" viewBox="0 0 80 24" fill="none" xmlns="http://www.w3.org/2000/svg">
<path d="M23.7585 7.05777H24.3963C24.5585 7.05777 24.6906 7.18985 24.6906 7.35211V13.0615C24.6906 14.8653 25.668 16.0049 27.4868 16.0049C29.3057 16.0049 30.2831 14.8653 30.2831 13.0615V7.35211C30.2831 7.18985 30.4151 7.05777 30.5774 7.05777H31.2151C31.3774 7.05777 31.5095 7.18985 31.5095 7.35211V13.0766C31.5095 15.5332 30.1623 17.0993 27.4868 17.0993C24.8114 17.0993 23.4642 15.5181 23.4642 13.0917V7.35211C23.4604 7.18985 23.5925 7.05777 23.7585 7.05777ZM33.3887 14.8351C33.4831 14.7144 33.6642 14.7031 33.7736 14.8087C34.434 15.4502 35.4227 16.0049 36.6755 16.0049C38.434 16.0049 38.9963 15.0578 38.9963 14.3031C38.9963 13.1181 37.8 12.7936 36.4982 12.4389C34.917 12.0238 33.1548 11.5823 33.1548 9.64268C33.1548 8.01626 34.6038 6.90683 36.5434 6.90683C37.9359 6.90683 39.0378 7.33324 39.8491 8.08419C39.9661 8.18985 39.9774 8.37098 39.8755 8.49173L39.4906 8.96343C39.3963 9.08041 39.2227 9.08796 39.1132 8.98607C38.3925 8.3106 37.4416 8.00117 36.4529 8.00117C35.268 8.00117 34.4265 8.6389 34.4265 9.56721C34.4265 10.5597 35.5661 10.854 36.8227 11.1936C38.434 11.6238 40.268 12.1257 40.268 14.1974C40.268 15.6314 39.2906 17.0955 36.6302 17.0955C35.0378 17.0955 33.8378 16.5332 33.0227 15.7181C32.917 15.6125 32.9057 15.4427 33 15.3257L33.3887 14.8351ZM41.7283 7.35211C41.7283 7.18985 41.8604 7.05777 42.0227 7.05777H45.0982C48.1585 7.05777 50.1585 9.20117 50.1585 11.9974C50.1585 14.8087 48.1623 16.9219 45.0982 16.9219H42.0227C41.8604 16.9219 41.7283 16.7898 41.7283 16.6276V7.35211ZM45.1019 15.8276C47.4982 15.8276 48.8868 14.1106 48.8868 11.9974C48.8868 9.86532 47.5397 8.15211 45.1019 8.15211H42.9585V15.8276H45.1019ZM62.434 13.3446C62.434 11.2729 63.7963 9.60117 65.9699 9.60117C68.1434 9.60117 69.5057 11.2729 69.5057 13.3446C69.5057 15.4163 68.1434 17.1031 65.9699 17.1031C63.7963 17.1031 62.434 15.4125 62.434 13.3446ZM68.3359 13.3446C68.3359 11.8955 67.4944 10.5936 65.9699 10.5936C64.4453 10.5936 63.5887 11.8955 63.5887 13.3446C63.5887 14.8087 64.4453 16.1106 65.9699 16.1106C67.4944 16.1106 68.3359 14.8087 68.3359 13.3446ZM70.5699 7.82758C70.5699 7.41249 70.9095 7.08796 71.3095 7.08796C71.7246 7.08796 72.0642 7.41249 72.0642 7.82758C72.0642 8.24268 71.7246 8.5823 71.3095 8.5823C70.9095 8.5823 70.5699 8.2389 70.5699 7.82758ZM71.0566 9.77853H71.5736C71.7359 9.77853 71.868 9.9106 71.868 10.0729V16.6276C71.868 16.7898 71.7359 16.9219 71.5736 16.9219H71.0566C70.8944 16.9219 70.7623 16.7898 70.7623 16.6276V10.0729C70.7623 9.9106 70.8944 9.77853 71.0566 9.77853ZM78.2604 12.2502C78.2604 10.9936 77.6227 10.5936 76.6642 10.5936C75.7925 10.5936 74.9623 11.1257 74.5472 11.7031V16.6276C74.5472 16.7898 74.4151 16.9219 74.2529 16.9219H73.7359C73.5736 16.9219 73.4416 16.7898 73.4416 16.6276V10.0729C73.4416 9.9106 73.5736 9.77853 73.7359 9.77853H74.2529C74.4151 9.77853 74.5472 9.9106 74.5472 10.0729V10.8125C75.0491 10.22 76.0265 9.60117 77.0906 9.60117C78.5849 9.60117 79.3699 10.3559 79.3699 11.9068V16.6238C79.3699 16.7861 79.2378 16.9181 79.0755 16.9181H78.5585C78.3963 16.9181 78.2642 16.7861 78.2642 16.6238V12.2502H78.2604ZM52.9623 11.9974C52.9623 8.96343 55.1963 6.89551 57.9925 6.89551C59.6491 6.89551 60.8114 7.61626 61.5963 8.60494C61.6944 8.72947 61.6604 8.91438 61.5208 8.99362L60.9698 9.29928C60.8453 9.37098 60.6868 9.33702 60.5963 9.22758C60.0114 8.50306 59.0642 7.99362 57.9925 7.99362C55.8755 7.99362 54.234 9.65022 54.234 12.0012C54.234 14.337 55.8755 16.0087 57.9925 16.0087C59.068 16.0087 60.0151 15.5106 60.5963 14.7748C60.6868 14.6615 60.8415 14.6314 60.9698 14.6993L61.5283 15.0049C61.6717 15.0842 61.7057 15.2729 61.6038 15.3974C60.7887 16.3936 59.6491 17.1031 57.9925 17.1031C55.1963 17.0993 52.9623 15.0314 52.9623 11.9974Z" fill="white"/>
<path fill-rule="evenodd" clip-rule="evenodd" d="M19.9999 11.9976C19.9999 17.3121 15.6917 21.6203 10.3773 21.6203C5.06284 21.6203 0.754639 17.3121 0.754639 11.9976C0.754639 6.6832 5.06284 2.375 10.3773 2.375C15.6917 2.375 19.9999 6.6832 19.9999 11.9976ZM8.5735 18.6882C8.5735 18.9146 8.39614 19.0429 8.17728 18.975C5.26784 18.0467 3.15841 15.3184 3.15841 12.0995C3.15841 8.88065 5.26784 6.15235 8.17728 5.22405C8.39614 5.15612 8.5735 5.28443 8.5735 5.51084V6.06933C8.5735 6.22027 8.45652 6.39763 8.31313 6.44669C6.01124 7.29197 4.36218 9.50329 4.36218 12.0957C4.36218 14.6882 6.01124 16.8995 8.31313 17.7448C8.45652 17.7976 8.5735 17.9712 8.5735 18.1222V18.6882ZM10.9773 16.609C10.9773 16.775 10.8414 16.9108 10.6754 16.9108H10.0754C9.90935 16.9108 9.7735 16.775 9.7735 16.609V15.658C8.4603 15.4807 7.81879 14.7448 7.6452 13.7448C7.61501 13.575 7.75086 13.4203 7.92445 13.4203H8.61124C8.75464 13.4203 8.87539 13.5222 8.90558 13.6656C9.03388 14.2618 9.37728 14.7184 10.4301 14.7184C11.2075 14.7184 11.7584 14.2844 11.7584 13.6354C11.7584 12.9863 11.4339 12.741 10.2943 12.5524C8.61124 12.3259 7.81501 11.8165 7.81501 10.4957C7.81501 9.47688 8.58482 8.68443 9.77728 8.51461V7.58254C9.77728 7.4165 9.91313 7.28065 10.0792 7.28065H10.6792C10.8452 7.28065 10.9811 7.4165 10.9811 7.58254V8.54103C11.9509 8.71461 12.566 9.26556 12.766 10.1788C12.8037 10.3524 12.6678 10.5146 12.4905 10.5146H11.8565C11.7207 10.5146 11.6075 10.424 11.566 10.292C11.3961 9.71084 10.9811 9.46178 10.2603 9.46178C9.46407 9.46178 9.05275 9.84669 9.05275 10.3863C9.05275 10.9561 9.28671 11.2429 10.5094 11.4203C12.1622 11.6467 13.015 12.1184 13.015 13.5259C13.015 14.5939 12.2226 15.458 10.9811 15.658V16.609H10.9773ZM12.1811 18.6882C12.1811 18.9146 12.3584 19.0429 12.5773 18.975C15.4867 18.0429 17.5924 15.3184 17.5961 12.1071C17.5961 8.8882 15.4867 6.1599 12.5773 5.2316C12.3584 5.1599 12.1811 5.29197 12.1811 5.51839V6.07688C12.1811 6.22782 12.298 6.40141 12.4414 6.45424C14.7433 7.29952 16.3924 9.51084 16.3924 12.1033C16.3924 14.6957 14.7433 16.9071 12.4414 17.7523C12.2829 17.809 12.1811 17.9637 12.1811 18.1297V18.6882Z" fill="#2775CA"/>
</svg>
