<svg width="80" height="24" viewBox="0 0 80 24" fill="none" xmlns="http://www.w3.org/2000/svg">
<path fill-rule="evenodd" clip-rule="evenodd" d="M4.58683 3.30005H16.7177C17.0072 3.30005 17.2746 3.45489 17.4189 3.7061L20.9531 9.85648C21.1364 10.1754 21.082 10.578 20.8205 10.8367L11.0925 20.4613C10.7773 20.7731 10.2704 20.7731 9.9553 20.4613L0.240401 10.8497C-0.0270994 10.585 -0.0771904 10.1707 0.119517 9.84974L3.89732 3.68637C4.04445 3.44634 4.30553 3.30005 4.58683 3.30005ZM15.1514 6.04598V7.7717H11.6958V8.96818C14.1228 9.09605 15.9437 9.62118 15.9572 10.2506L15.9571 11.5628C15.9436 12.1923 14.1228 12.7174 11.6958 12.8453V15.7816H9.40122V12.8453C6.97422 12.7174 5.15335 12.1923 5.13987 11.5628L5.13991 10.2506C5.15343 9.62118 6.97422 9.09605 9.40122 8.96818V7.7717H5.94561V6.04598H15.1514ZM10.5485 11.9438C13.1385 11.9438 15.3033 11.4997 15.8331 10.9067C15.3839 10.4039 13.7588 10.0081 11.6958 9.8994V11.1521C11.326 11.1716 10.9422 11.1819 10.5485 11.1819C10.1548 11.1819 9.771 11.1716 9.40122 11.1521V9.8994C7.33817 10.0081 5.71313 10.4039 5.26387 10.9067C5.79365 11.4997 7.95848 11.9438 10.5485 11.9438Z" fill="#009393"/>
<path d="M25.6887 6.63738L28.493 6.32157V9.04545H30.9272V11.414H28.4735V15.0853C28.4735 15.9538 28.837 16.388 29.564 16.388C30.0314 16.388 30.4208 16.3091 30.7324 16.1512L31.3751 18.5198C30.7389 18.7698 30.0638 18.9145 29.3498 18.954C28.2203 19.0066 27.3245 18.7369 26.6624 18.1447C26.0133 17.5394 25.6887 16.5196 25.6887 15.0853V11.414H23.9751V9.04545H25.6887V6.63738Z" fill="white"/>
<path d="M41.4224 14.7892H34.3534C34.4314 15.2893 34.6975 15.7038 35.1519 16.0328C35.6063 16.3485 36.2099 16.5065 36.9629 16.5065C38.0404 16.5065 38.8713 16.2498 39.4555 15.7367L41.0329 17.5131C40.0722 18.4737 38.6961 18.954 36.9045 18.954C35.1908 18.954 33.8601 18.4868 32.9124 17.5526C31.9777 16.6183 31.5103 15.3551 31.5103 13.7628C31.5103 12.2628 31.9712 11.0521 32.8929 10.131C33.8147 9.19676 35.0545 8.72963 36.6124 8.72963C38.3131 8.72963 39.6113 9.25597 40.5071 10.3087C41.4159 11.3614 41.721 12.8549 41.4224 14.7892ZM34.3534 12.7167H38.9103C38.8843 12.2167 38.6506 11.8351 38.2092 11.5719C37.7678 11.2956 37.2355 11.1574 36.6124 11.1574C36.0541 11.1574 35.5738 11.2956 35.1714 11.5719C34.7689 11.8482 34.4963 12.2298 34.3534 12.7167Z" fill="white"/>
<path d="M43.7603 6.63738L46.5646 6.32157V9.04545H48.9985V11.414H46.5451V15.0853C46.5451 15.9538 46.9085 16.388 47.6355 16.388C48.1029 16.388 48.4924 16.3091 48.8038 16.1512L49.4464 18.5198C48.8103 18.7698 48.1355 18.9145 47.4211 18.954C46.292 19.0066 45.3959 18.7369 44.7338 18.1447C44.0846 17.5394 43.7603 16.5196 43.7603 15.0853V11.414H42.0466V9.04545H43.7603V6.63738Z" fill="white"/>
<path d="M50.4981 4.92017H53.3216V10.1902C54.0098 9.28228 54.9833 8.82832 56.2429 8.82832C58.8003 8.82832 60.079 10.3876 60.079 13.5063V18.7369H57.2751V13.526C57.2751 12.8549 57.1059 12.3351 56.7685 11.9667C56.4442 11.5982 56.0024 11.414 55.4442 11.414C54.8342 11.414 54.3211 11.6245 53.9059 12.0456C53.5033 12.4667 53.302 13.0523 53.302 13.8023V18.7369H50.4981V4.92017Z" fill="white"/>
<path d="M71.0768 14.7892H64.0081C64.0859 15.2893 64.352 15.7038 64.8064 16.0328C65.2607 16.3485 65.8646 16.5065 66.6177 16.5065C67.6951 16.5065 68.5259 16.2498 69.1103 15.7367L70.6877 17.5131C69.7268 18.4737 68.3507 18.954 66.559 18.954C64.8455 18.954 63.5146 18.4868 62.5668 17.5526C61.632 16.6183 61.1651 15.3551 61.1651 13.7628C61.1651 12.2628 61.6259 11.0521 62.5477 10.131C63.4694 9.19676 64.709 8.72963 66.2668 8.72963C67.9677 8.72963 69.2659 9.25597 70.1616 10.3087C71.0703 11.3614 71.3755 12.8549 71.0768 14.7892ZM64.0081 12.7167H68.5646C68.539 12.2167 68.3051 11.8351 67.8638 11.5719C67.4225 11.2956 66.8903 11.1574 66.2668 11.1574C65.7085 11.1574 65.2285 11.2956 64.8259 11.5719C64.4233 11.8482 64.1507 12.2298 64.0081 12.7167Z" fill="white"/>
<path d="M72.2398 9.00598H74.8494L75.0638 10.0718C75.6738 9.20332 76.5307 8.76911 77.6342 8.76911C78.5429 8.76911 79.3281 9.06519 79.9903 9.65732L78.822 11.9075C78.3677 11.5785 77.8546 11.414 77.2838 11.414C76.6472 11.414 76.1151 11.618 75.6868 12.0259C75.2585 12.4207 75.0442 12.9668 75.0442 13.6641V18.7369H72.2398V9.00598Z" fill="white"/>
</svg>
