<svg width="80" height="24" viewBox="0 0 80 24" fill="none" xmlns="http://www.w3.org/2000/svg">
<path d="M41.1883 17.174H38.7575L36.7439 10.2855H36.7008L34.6872 17.174H32.242L29.3511 6.98992H31.9975L33.6084 13.7643H33.6516L35.4638 6.98992H38.024L39.8506 13.7643H39.8938L41.5334 6.98992H44.0936L41.1883 17.174Z" fill="white"/>
<path d="M53.7446 14.2102C53.7446 14.7676 53.6343 15.2352 53.4138 15.613C53.2002 15.9843 52.899 16.2977 52.5364 16.5258C52.1537 16.764 51.7316 16.9322 51.2899 17.0225C50.8204 17.1237 50.3415 17.1745 49.8612 17.174H45.8052V6.98992H49.8612C50.2669 6.99136 50.6716 7.03246 51.0694 7.11266C51.4641 7.1876 51.8434 7.32862 52.1912 7.52977C52.5253 7.72511 52.8067 7.99894 53.0111 8.32754C53.222 8.6641 53.3275 9.09463 53.3275 9.60762C53.3275 10.174 53.1741 10.6416 52.8672 11.0104C52.5497 11.3871 52.1302 11.6641 51.6591 11.8082V11.837C51.942 11.8841 52.2162 11.974 52.4722 12.1035C52.8624 12.2984 53.1891 12.6002 53.4144 12.9737C53.6397 13.3472 53.7542 13.777 53.7446 14.2131V14.2102ZM50.9514 9.93843C50.9514 9.59324 50.8197 9.3417 50.5564 9.18381C50.293 9.02591 49.9021 8.94665 49.3837 8.94601H48.1755V11.0459H49.4987C49.959 11.0459 50.3163 10.9526 50.5707 10.7659C50.8252 10.5793 50.9521 10.3034 50.9514 9.93843ZM51.2822 13.98C51.2822 13.5594 51.1224 13.267 50.8028 13.1027C50.4864 12.9406 50.0645 12.8582 49.5371 12.8582H48.1784V15.1882H49.5591C49.7593 15.1877 49.9591 15.171 50.1565 15.1384C50.3516 15.1078 50.5408 15.0473 50.7174 14.959C50.883 14.8736 51.024 14.7471 51.1269 14.5918C51.2393 14.4082 51.2944 14.1952 51.2851 13.98H51.2822Z" fill="white"/>
<path d="M60.3895 9.08984V17.174H57.93V9.08984H55.0534V6.98992H63.2661V9.08984H60.3895Z" fill="white"/>
<path d="M71.9103 16.9938C71.1895 17.3077 70.4094 17.4621 69.6234 17.4463C68.879 17.4539 68.1398 17.3222 67.4439 17.058C66.7961 16.8141 66.2057 16.4391 65.7096 15.9565C65.2134 15.4739 64.8223 14.8941 64.5606 14.2533C64.2762 13.56 64.1343 12.8165 64.1435 12.0671C64.1325 11.3079 64.2767 10.5545 64.5673 9.85309C64.8345 9.21258 65.2341 8.63582 65.74 8.1607C66.2478 7.69029 66.8444 7.32585 67.4947 7.08869C68.1906 6.83556 68.9261 6.70892 69.6665 6.71473C70.3906 6.71644 71.1087 6.8463 71.7875 7.09828C72.436 7.32111 73.0176 7.7044 73.478 8.21248L71.8096 9.8809C71.5797 9.56559 71.2657 9.32135 70.9035 9.17614C70.5386 9.02502 70.1477 8.94683 69.7528 8.94601C69.3449 8.94138 68.9405 9.02239 68.5658 9.18381C68.2152 9.33608 67.8996 9.55865 67.6385 9.83775C67.375 10.124 67.1698 10.4588 67.0345 10.8235C66.887 11.2223 66.8138 11.6448 66.8187 12.07C66.8136 12.5015 66.8867 12.9303 67.0345 13.3357C67.168 13.6998 67.3724 14.0338 67.6357 14.3185C67.8922 14.5935 68.2034 14.8117 68.5495 14.959C68.9179 15.1149 69.3145 15.1929 69.7145 15.1882C70.1583 15.1991 70.598 15.1003 70.9946 14.9006C71.3421 14.7242 71.6427 14.4678 71.8719 14.1526L73.5806 15.7635C73.1191 16.2893 72.5493 16.709 71.9103 16.9938Z" fill="white"/>
<path fill-rule="evenodd" clip-rule="evenodd" d="M18.0418 10.6154C18.0418 11.722 16.3159 11.5877 15.7683 11.5877V9.63834C16.3168 9.63834 18.0418 9.46479 18.0418 10.6154ZM18.4925 13.6416C18.4925 14.8507 16.4252 14.7127 15.7664 14.7127V12.5715C16.4252 12.5715 18.4925 12.3797 18.4925 13.6464M19.8541 10.1839C19.7438 9.02371 18.7504 8.64016 17.4933 8.51934V6.92859H16.5278V8.4877C16.2718 8.4877 16.0109 8.4877 15.7511 8.49729V6.92859H14.7807V8.52893H12.8122V9.57026C12.8122 9.57026 13.5294 9.55779 13.5189 9.57026C13.6483 9.55601 13.7782 9.59266 13.8811 9.67248C13.984 9.75229 14.0518 9.869 14.0702 9.99791V14.3809C14.0675 14.426 14.0559 14.4701 14.0362 14.5108C14.0164 14.5514 13.9888 14.5877 13.9549 14.6176C13.9211 14.6476 13.8816 14.6705 13.8389 14.6852C13.7961 14.6998 13.7509 14.7059 13.7058 14.7031C13.7183 14.7146 12.9991 14.7031 12.9991 14.7031L12.8074 15.8662H14.7683V17.4962H15.7396V15.8901H16.5153V17.4857H17.4866V15.8777C19.1272 15.7818 20.2673 15.3723 20.415 13.8334C20.531 12.5936 19.95 12.0413 19.0208 11.8198C19.5856 11.5321 19.9404 11.0249 19.856 10.1811" fill="#F09242"/>
<path d="M11.0699 6.1519C12.0545 5.26126 13.2497 4.63613 14.5428 4.3355C15.836 4.03486 17.1844 4.06863 18.4609 4.43361L18.5721 4.46525C18.6277 4.48155 18.6823 4.49881 18.737 4.51703C18.8156 4.54196 18.8943 4.56881 18.971 4.59662L19.0477 4.62442C19.1522 4.66278 19.2567 4.70401 19.3593 4.74716L19.3718 4.75291C20.1897 5.10455 20.9497 5.57782 21.6261 6.15669L22.0537 5.69452C21.9962 5.63698 21.9367 5.58425 21.8782 5.52959C20.3976 4.24695 18.5186 3.51648 16.5604 3.46228C16.4559 3.46228 16.3513 3.46228 16.2468 3.46228H16.2248C15.5896 3.47108 14.9573 3.54823 14.3387 3.69241L14.2121 3.72309L14.1066 3.7509C13.4902 3.91617 12.8945 4.15067 12.3308 4.44991C11.7136 4.78128 11.1517 5.20667 10.6653 5.71082L11.0699 6.1519Z" fill="#8E909F"/>
<path d="M10.5283 6.6898L10.0584 6.27844C6.87118 9.61913 7.33527 15.0549 10.0584 17.6458L10.5379 17.2709C9.21237 15.8283 8.47609 13.9411 8.4745 11.982C8.4729 10.0229 9.20514 8.13452 10.5283 6.6898Z" fill="#8E909F"/>
<path d="M22.8232 6.48651C22.7494 6.4098 22.6746 6.33405 22.5969 6.26214L22.1856 6.7128C24.6019 9.45803 25.112 13.8161 22.2613 17.1711L22.6621 17.6554C24.0317 16.1265 24.8026 14.1542 24.8329 12.1018C24.8632 10.0494 24.1509 8.05519 22.8271 6.48651H22.8232Z" fill="#8E909F"/>
<path d="M21.6567 17.8126C21.3786 18.0207 21.1024 18.2115 20.8253 18.3879C19.8197 19.0987 18.6602 19.5613 17.4415 19.738C16.818 19.8374 16.1839 19.8523 15.5564 19.7821C13.9759 19.6288 12.4797 18.9973 11.2674 17.9718C11.2041 17.9258 11.1417 17.8807 11.0756 17.8328L10.6335 18.2288C12.1802 19.7562 14.3002 20.4907 16.3867 20.4898C16.4328 20.4898 16.4826 20.4898 16.5248 20.4898H16.5469C18.4877 20.4392 20.3524 19.724 21.8292 18.4637C21.8964 18.4004 21.9644 18.3381 22.0287 18.2719L21.6567 17.8126Z" fill="#8E909F"/>
<path d="M16.3363 2.67121C18.1816 2.67045 19.9858 3.21702 21.5205 4.24179C23.0552 5.26656 24.2515 6.72348 24.958 8.42825C25.6646 10.133 25.8496 12.009 25.4898 13.819C25.13 15.629 24.2414 17.2916 22.9365 18.5965C21.6317 19.9013 19.9691 20.7899 18.1591 21.1497C16.3491 21.5096 14.4731 21.3245 12.7683 20.6179C11.0636 19.9114 9.60665 18.7151 8.58188 17.1804C7.55711 15.6457 7.01054 13.8415 7.0113 11.9962C7.0151 9.5242 7.99877 7.15457 9.74671 5.40662C11.4947 3.65868 13.8643 2.67501 16.3363 2.67121ZM16.3363 2C14.3584 2.00076 12.4253 2.58799 10.7812 3.68744C9.13713 4.78688 7.856 6.34916 7.09983 8.17671C6.34365 10.0043 6.14639 12.015 6.53299 13.9547C6.91958 15.8943 7.87268 17.6758 9.27174 19.0738C10.6708 20.4718 12.453 21.4235 14.3929 21.8086C16.3329 22.1937 18.3435 21.9949 20.1705 21.2373C21.9974 20.4797 23.5587 19.1974 24.6569 17.5525C25.7551 15.9076 26.3408 13.974 26.3401 11.9962C26.3396 10.6829 26.0804 9.38268 25.5774 8.16962C25.0744 6.95656 24.3374 5.85445 23.4084 4.92622C22.4795 3.99799 21.3768 3.26182 20.1634 2.75974C18.9499 2.25766 17.6495 1.9995 16.3363 2Z" fill="white"/>
</svg>
