<svg width="80" height="24" viewBox="0 0 80 24" fill="none" xmlns="http://www.w3.org/2000/svg">
<path fill-rule="evenodd" clip-rule="evenodd" d="M10.9091 22.9083C16.934 22.9083 21.8182 18.0241 21.8182 11.9992C21.8182 5.97425 16.934 1.09009 10.9091 1.09009C4.88417 1.09009 0 5.97425 0 11.9992C0 18.0241 4.88417 22.9083 10.9091 22.9083ZM12.0206 14.2053L17.0886 19.2719L18.1818 18.178L13.6627 13.6606L16.8828 10.4384C17.6421 9.67868 17.6421 8.44291 16.8828 7.68314C16.1235 6.92337 14.8885 6.92337 14.1292 7.68314L6.60034 15.2213L6.59577 15.2259C6.43568 15.3815 6.18411 15.3769 6.02859 15.2213C5.87307 15.0611 5.87764 14.8094 6.03316 14.6538L9.80675 10.9007C10.1086 10.5986 10.1086 10.1089 9.80675 9.80683L4.72956 4.72645L3.63636 5.82034L8.16009 10.3469L4.93997 13.5508L4.92624 13.5645C4.16695 14.3288 4.17153 15.5646 4.93539 16.3244C5.69926 17.0841 6.93425 17.0796 7.69354 16.3152L15.2224 8.7816C15.3779 8.62599 15.6295 8.62599 15.785 8.7816C15.9405 8.93722 15.9405 9.18895 15.785 9.34457L12.0206 13.1114C11.7187 13.4134 11.7187 13.9032 12.0206 14.2053Z" fill="#00FF00"/>
<path d="M25.4546 14.1975V9.96968C25.4546 9.39353 25.5396 8.92723 25.7095 8.57076C25.8794 8.2143 26.1053 7.93866 26.3872 7.74384C26.6732 7.54903 27.0048 7.41847 27.382 7.35215C27.7633 7.28168 28.1571 7.24645 28.5633 7.24645C28.9032 7.24645 29.2016 7.25267 29.4586 7.2651C29.7197 7.27754 29.9477 7.29205 30.1425 7.30863C30.3373 7.32521 30.5052 7.34178 30.6461 7.35836C30.7871 7.37494 30.9114 7.3936 31.0192 7.41432C31.1891 7.43919 31.2741 7.52209 31.2741 7.66302V8.85055C31.2741 8.91687 31.2492 8.97697 31.1995 9.03085C31.1497 9.08059 31.0896 9.10546 31.0192 9.10546H28.4327C28.1343 9.10546 27.9229 9.16763 27.7986 9.29198C27.6784 9.41219 27.6183 9.63809 27.6183 9.96968V11.1323H30.9197C30.986 11.1323 31.0441 11.1572 31.0938 11.207C31.1477 11.2567 31.1746 11.3168 31.1746 11.3873V12.5934C31.1746 12.6598 31.1477 12.7199 31.0938 12.7737C31.0441 12.8235 30.986 12.8484 30.9197 12.8484H27.6183V14.1975C27.6183 14.5291 27.6804 14.7571 27.8048 14.8814C27.9291 15.0017 28.1384 15.0618 28.4327 15.0618H31.0192C31.0855 15.0618 31.1435 15.0887 31.1933 15.1426C31.2472 15.1923 31.2741 15.2503 31.2741 15.3167V16.5042C31.2741 16.6576 31.1891 16.7467 31.0192 16.7715C30.7995 16.8047 30.5052 16.8399 30.1363 16.8772C29.7674 16.9145 29.2389 16.9332 28.5509 16.9332C28.1447 16.9332 27.753 16.9 27.3758 16.8337C27.0027 16.7674 26.6732 16.6368 26.3872 16.442C26.1053 16.2431 25.8794 15.9633 25.7095 15.6027C25.5396 15.2421 25.4546 14.7737 25.4546 14.1975Z" fill="white"/>
<path d="M32.3808 16.6658C32.3808 16.6244 32.3912 16.5912 32.4119 16.5664L34.6377 13.0287L32.4741 9.79559C32.4575 9.76244 32.4492 9.73549 32.4492 9.71477C32.4492 9.66503 32.4678 9.62151 32.5051 9.5842C32.5425 9.54275 32.586 9.52203 32.6357 9.52203H34.5382C34.6046 9.52203 34.6605 9.5469 34.7061 9.59664C34.7559 9.64223 34.8097 9.70855 34.8678 9.79559L35.9993 11.5489L37.0439 9.79559C37.1019 9.70026 37.1537 9.63187 37.1993 9.59042C37.249 9.54483 37.3071 9.52203 37.3734 9.52203H39.0832C39.1868 9.52203 39.2365 9.57799 39.2324 9.6899C39.2324 9.73135 39.2241 9.76658 39.2075 9.79559L37.106 13.1281L39.4127 16.5539C39.4293 16.5871 39.4376 16.6161 39.4376 16.641C39.4376 16.6824 39.421 16.7239 39.3878 16.7653C39.3547 16.8026 39.3112 16.8213 39.2573 16.8213H37.3361C37.2698 16.8213 37.2117 16.8006 37.162 16.7591C37.1164 16.7177 37.0646 16.6493 37.0066 16.5539L35.7444 14.583L34.5631 16.5664C34.5051 16.6617 34.4512 16.728 34.4015 16.7653C34.3559 16.8026 34.2978 16.8213 34.2274 16.8213H32.5238C32.4285 16.8213 32.3808 16.7695 32.3808 16.6658Z" fill="white"/>
<path d="M39.8728 13.6628V12.7737C39.8728 12.2639 39.9453 11.8018 40.0904 11.3873C40.2355 10.9686 40.4448 10.6163 40.7184 10.3303C40.9961 10.0401 41.3339 9.81632 41.7318 9.65881C42.1297 9.5013 42.5836 9.42255 43.0934 9.42255C43.6115 9.42255 44.0675 9.50752 44.4613 9.67746C44.8592 9.84741 45.1887 10.0816 45.4498 10.38C45.7151 10.6743 45.912 11.0266 46.0405 11.437C46.1731 11.8432 46.2394 12.2888 46.2394 12.7737V13.5136C46.2394 13.7167 46.1503 13.8183 45.9721 13.8183H41.9121V13.8431C41.9121 14.0214 41.9328 14.1955 41.9743 14.3654C42.0157 14.5353 42.0862 14.6846 42.1857 14.8131C42.2893 14.9374 42.424 15.039 42.5898 15.1177C42.7556 15.1923 42.967 15.2296 43.224 15.2296C43.4271 15.2296 43.6426 15.2255 43.8706 15.2172C44.1027 15.2089 44.3307 15.2006 44.5545 15.1923C44.7783 15.184 44.9877 15.1737 45.1825 15.1612C45.3773 15.1488 45.5389 15.1343 45.6674 15.1177H45.7047C45.8664 15.1177 45.9472 15.184 45.9472 15.3167V16.2866C45.9472 16.3902 45.9306 16.4669 45.8975 16.5166C45.8643 16.5664 45.7918 16.6037 45.6799 16.6285C45.2737 16.7322 44.8737 16.8088 44.4799 16.8586C44.0903 16.9083 43.6198 16.9332 43.0686 16.9332C42.6872 16.9332 42.3059 16.8793 41.9245 16.7715C41.5432 16.6596 41.1992 16.4773 40.8925 16.2244C40.5857 15.9674 40.3391 15.6296 40.1526 15.211C39.9661 14.7923 39.8728 14.2763 39.8728 13.6628ZM41.9121 12.5437H44.2312V12.494C44.2312 12.0173 44.1276 11.6629 43.9203 11.4308C43.7172 11.1945 43.4375 11.0764 43.081 11.0764C42.7245 11.0764 42.4406 11.1966 42.2292 11.437C42.0178 11.6733 41.9121 12.0256 41.9121 12.494V12.5437Z" fill="white"/>
<path d="M47.3834 13.6628V12.7737C47.3834 12.2639 47.456 11.8018 47.6011 11.3873C47.7461 10.9686 47.9554 10.6163 48.229 10.3303C48.5067 10.0401 48.8445 9.81632 49.2425 9.65881C49.6404 9.5013 50.0942 9.42255 50.6041 9.42255C51.1222 9.42255 51.5781 9.50752 51.9719 9.67746C52.3698 9.84741 52.6993 10.0816 52.9605 10.38C53.2257 10.6743 53.4226 11.0266 53.5511 11.437C53.6838 11.8432 53.7501 12.2888 53.7501 12.7737V13.5136C53.7501 13.7167 53.661 13.8183 53.4827 13.8183H49.4228V13.8431C49.4228 14.0214 49.4435 14.1955 49.4849 14.3654C49.5264 14.5353 49.5968 14.6846 49.6963 14.8131C49.7999 14.9374 49.9347 15.039 50.1005 15.1177C50.2663 15.1923 50.4776 15.2296 50.7346 15.2296C50.9377 15.2296 51.1533 15.2255 51.3812 15.2172C51.6134 15.2089 51.8413 15.2006 52.0652 15.1923C52.289 15.184 52.4983 15.1737 52.6931 15.1612C52.8879 15.1488 53.0496 15.1343 53.1781 15.1177H53.2154C53.377 15.1177 53.4579 15.184 53.4579 15.3167V16.2866C53.4579 16.3902 53.4413 16.4669 53.4081 16.5166C53.375 16.5664 53.3024 16.6037 53.1905 16.6285C52.7843 16.7322 52.3843 16.8088 51.9906 16.8586C51.6009 16.9083 51.1305 16.9332 50.5792 16.9332C50.1979 16.9332 49.8165 16.8793 49.4352 16.7715C49.0539 16.6596 48.7098 16.4773 48.4031 16.2244C48.0964 15.9674 47.8497 15.6296 47.6632 15.211C47.4767 14.7923 47.3834 14.2763 47.3834 13.6628ZM49.4228 12.5437H51.7419V12.494C51.7419 12.0173 51.6382 11.6629 51.431 11.4308C51.2279 11.1945 50.9481 11.0764 50.5916 11.0764C50.2352 11.0764 49.9512 11.1966 49.7398 11.437C49.5285 11.6733 49.4228 12.0256 49.4228 12.494V12.5437Z" fill="white"/>
<path d="M54.8568 13.6753V12.6805C54.8568 11.6774 55.12 10.8836 55.6464 10.2992C56.1728 9.71477 56.9749 9.42255 58.0525 9.42255C58.181 9.42255 58.3406 9.43084 58.5313 9.44742C58.722 9.464 58.9105 9.48472 59.0971 9.50959V7.30863C59.0971 7.24231 59.1219 7.18428 59.1717 7.13454C59.2256 7.08065 59.2857 7.05371 59.352 7.05371H60.8939C60.9602 7.05371 61.0203 7.08065 61.0742 7.13454C61.1322 7.18428 61.1613 7.24231 61.1613 7.30863V16.2368C61.1613 16.3405 61.1364 16.4172 61.0866 16.4669C61.041 16.5166 60.9333 16.5622 60.7633 16.6037C60.3986 16.699 59.9779 16.7778 59.5012 16.8399C59.0287 16.9021 58.5458 16.9332 58.0525 16.9332C57.0163 16.9332 56.2246 16.6493 55.6775 16.0814C55.1304 15.5136 54.8568 14.7115 54.8568 13.6753ZM56.921 13.6753C56.921 13.9032 56.9375 14.1146 56.9707 14.3094C57.0039 14.5001 57.0619 14.6659 57.1448 14.8068C57.2318 14.9436 57.3479 15.0514 57.493 15.1301C57.638 15.2048 57.8246 15.2421 58.0525 15.2421C58.2639 15.2421 58.4608 15.2338 58.6432 15.2172C58.8256 15.2006 58.9769 15.184 59.0971 15.1674V11.1945C58.9437 11.1779 58.7696 11.1634 58.5748 11.151C58.38 11.1386 58.2059 11.1323 58.0525 11.1323C57.8246 11.1323 57.638 11.1696 57.493 11.2443C57.3479 11.3189 57.2318 11.4266 57.1448 11.5676C57.0619 11.7085 57.0039 11.8743 56.9707 12.065C56.9375 12.2556 56.921 12.4608 56.921 12.6805V13.6753Z" fill="white"/>
<path d="M62.6845 16.5539V9.77694C62.6845 9.71062 62.7094 9.65259 62.7591 9.60285C62.8089 9.54897 62.869 9.52203 62.9394 9.52203H64.3881C64.4544 9.52203 64.5124 9.54897 64.5622 9.60285C64.6161 9.65259 64.643 9.71062 64.643 9.77694V10.0629C64.9166 9.88471 65.2047 9.73342 65.5072 9.60907C65.814 9.48472 66.1538 9.42255 66.5269 9.42255C66.8668 9.42255 67.1569 9.47229 67.3973 9.57177C67.6419 9.6671 67.8533 9.82461 68.0315 10.0443C68.218 9.94067 68.3921 9.84948 68.5538 9.77073C68.7154 9.69197 68.8771 9.62772 69.0387 9.57799C69.2004 9.5241 69.3683 9.48472 69.5423 9.45985C69.7164 9.43498 69.905 9.42255 70.1081 9.42255C70.5226 9.42255 70.8708 9.49094 71.1527 9.62772C71.4387 9.76451 71.6646 9.9531 71.8303 10.1935C71.9961 10.4339 72.1143 10.7261 72.1847 11.0702C72.2594 11.4142 72.2967 11.7955 72.2967 12.2142V16.5539C72.2967 16.6203 72.2676 16.6824 72.2096 16.7405C72.1557 16.7943 72.0956 16.8213 72.0293 16.8213H70.4874C70.4211 16.8213 70.361 16.7943 70.3071 16.7405C70.2573 16.6824 70.2325 16.6203 70.2325 16.5539V12.2142C70.2325 11.808 70.1765 11.5303 70.0646 11.381C69.9568 11.2318 69.7537 11.1572 69.4553 11.1572C69.3434 11.1572 69.2004 11.1717 69.0263 11.2007C68.8563 11.2297 68.674 11.2919 68.4792 11.3873C68.504 11.6401 68.5165 11.9157 68.5165 12.2142V16.5539C68.5165 16.6203 68.4895 16.6824 68.4356 16.7405C68.3859 16.7943 68.3279 16.8213 68.2616 16.8213H66.7196C66.6533 16.8213 66.5911 16.7943 66.5331 16.7405C66.4792 16.6824 66.4523 16.6203 66.4523 16.5539V12.2142C66.4523 11.808 66.4025 11.5303 66.3031 11.381C66.2077 11.2318 66.0108 11.1572 65.7124 11.1572C65.5922 11.1572 65.4492 11.1862 65.2834 11.2443C65.1217 11.3023 64.9435 11.3831 64.7487 11.4867V16.5539C64.7487 16.6203 64.7218 16.6824 64.6679 16.7405C64.6181 16.7943 64.5601 16.8213 64.4938 16.8213H62.9519C62.8856 16.8213 62.8234 16.7943 62.7653 16.7405C62.7115 16.6824 62.6845 16.6203 62.6845 16.5539Z" fill="white"/>
<path d="M73.6334 13.6628V12.7737C73.6334 12.2639 73.7059 11.8018 73.851 11.3873C73.9961 10.9686 74.2054 10.6163 74.479 10.3303C74.7567 10.0401 75.0945 9.81632 75.4924 9.65881C75.8903 9.5013 76.3442 9.42255 76.854 9.42255C77.3721 9.42255 77.8281 9.50752 78.2219 9.67746C78.6198 9.84741 78.9493 10.0816 79.2104 10.38C79.4757 10.6743 79.6726 11.0266 79.8011 11.437C79.9337 11.8432 80 12.2888 80 12.7737V13.5136C80 13.7167 79.9109 13.8183 79.7327 13.8183H75.6727V13.8431C75.6727 14.0214 75.6934 14.1955 75.7349 14.3654C75.7763 14.5353 75.8468 14.6846 75.9463 14.8131C76.0499 14.9374 76.1846 15.039 76.3504 15.1177C76.5162 15.1923 76.7276 15.2296 76.9846 15.2296C77.1877 15.2296 77.4032 15.2255 77.6312 15.2172C77.8633 15.2089 78.0913 15.2006 78.3151 15.1923C78.539 15.184 78.7483 15.1737 78.9431 15.1612C79.1379 15.1488 79.2995 15.1343 79.428 15.1177H79.4653C79.627 15.1177 79.7078 15.184 79.7078 15.3167V16.2866C79.7078 16.3902 79.6912 16.4669 79.6581 16.5166C79.6249 16.5664 79.5524 16.6037 79.4405 16.6285C79.0343 16.7322 78.6343 16.8088 78.2405 16.8586C77.8509 16.9083 77.3804 16.9332 76.8292 16.9332C76.4478 16.9332 76.0665 16.8793 75.6852 16.7715C75.3038 16.6596 74.9598 16.4773 74.6531 16.2244C74.3463 15.9674 74.0997 15.6296 73.9132 15.211C73.7267 14.7923 73.6334 14.2763 73.6334 13.6628ZM75.6727 12.5437H77.9918V12.494C77.9918 12.0173 77.8882 11.6629 77.6809 11.4308C77.4778 11.1945 77.1981 11.0764 76.8416 11.0764C76.4851 11.0764 76.2012 11.1966 75.9898 11.437C75.7784 11.6733 75.6727 12.0256 75.6727 12.494V12.5437Z" fill="white"/>
</svg>
