<svg width="80" height="24" viewBox="0 0 80 24" fill="none" xmlns="http://www.w3.org/2000/svg">
<path fill-rule="evenodd" clip-rule="evenodd" d="M34 12C34 17.5228 29.5228 22 24 22C18.4772 22 14 17.5228 14 12C14 6.47715 18.4772 2 24 2C29.5228 2 34 6.47715 34 12ZM30.4292 6.39878H28.5632L25.6104 9.45815C24.7215 10.3805 23.2785 10.3805 22.3866 9.45815L19.4368 6.39878H17.5708L21.4551 10.4262C22.8585 11.8843 25.1385 11.8843 26.5449 10.4262L30.4292 6.39878ZM17.5464 17.6012H19.4125L22.3927 14.5145C23.2816 13.5921 24.7245 13.5921 25.6164 14.5145L28.5906 17.6012H30.4566L26.548 13.5464C25.1416 12.0883 22.8615 12.0883 21.4551 13.5464L17.5464 17.6012Z" fill="#8E909F"/>
<path d="M38.5059 6.78027C38.5059 6.7347 38.5264 6.69368 38.5674 6.65723C38.6084 6.61621 38.6562 6.5957 38.7109 6.5957H40.9668C41.0397 6.5957 41.1035 6.62533 41.1582 6.68457C41.2174 6.73926 41.2699 6.7985 41.3154 6.8623L43.0518 9.69238L44.624 6.8623C44.6605 6.7985 44.7083 6.73926 44.7676 6.68457C44.8314 6.62533 44.8997 6.5957 44.9727 6.5957H47.0439C47.0986 6.5957 47.1465 6.61621 47.1875 6.65723C47.2331 6.69368 47.2559 6.7347 47.2559 6.78027C47.2559 6.7985 47.2467 6.82585 47.2285 6.8623L44.3438 11.8047L47.3516 16.7197C47.3789 16.779 47.3926 16.8268 47.3926 16.8633C47.3926 16.9544 47.3333 17 47.2148 17H44.9863C44.8952 17 44.8223 16.984 44.7676 16.9521C44.7174 16.9202 44.6696 16.8656 44.624 16.7881L42.7988 13.835L41.165 16.7197C41.1195 16.8018 41.0671 16.8701 41.0078 16.9248C40.9531 16.9749 40.8893 17 40.8164 17H38.7451C38.6038 17 38.5332 16.9385 38.5332 16.8154C38.5332 16.7881 38.5423 16.7562 38.5605 16.7197L41.4863 11.668L38.5332 6.8623C38.515 6.82585 38.5059 6.7985 38.5059 6.78027Z" fill="white"/>
<path d="M48.8213 16.7197V7.32715C48.8213 7.08561 48.8714 6.92383 48.9717 6.8418C49.0765 6.75521 49.2383 6.69368 49.457 6.65723C49.6165 6.62988 49.8079 6.6071 50.0312 6.58887C50.2546 6.56608 50.4915 6.54557 50.7422 6.52734C50.9928 6.50911 51.2503 6.49544 51.5146 6.48633C51.7835 6.47721 52.0433 6.47266 52.2939 6.47266C52.891 6.47266 53.4469 6.52734 53.9619 6.63672C54.4769 6.74154 54.9235 6.92383 55.3018 7.18359C55.68 7.4388 55.9762 7.77604 56.1904 8.19531C56.4046 8.61458 56.5117 9.13184 56.5117 9.74707V9.93164C56.5117 10.679 56.3385 11.2806 55.9922 11.7363C55.6458 12.1921 55.2174 12.5225 54.707 12.7275L56.8193 16.6787C56.8467 16.7334 56.8604 16.7835 56.8604 16.8291C56.8604 16.943 56.7897 17 56.6484 17H54.5088C54.4359 17 54.3789 16.9727 54.3379 16.918C54.3014 16.8587 54.265 16.7926 54.2285 16.7197L52.3486 13.1787L52.1982 13.1924C52.0479 13.1924 51.877 13.1878 51.6855 13.1787C51.4941 13.1696 51.3346 13.165 51.207 13.165V16.7197C51.207 16.7926 51.1774 16.8587 51.1182 16.918C51.0635 16.9727 50.9997 17 50.9268 17H49.1016C49.0286 17 48.9626 16.9727 48.9033 16.918C48.8486 16.8587 48.8213 16.7926 48.8213 16.7197ZM51.207 11.2305C51.2435 11.2305 51.3073 11.2327 51.3984 11.2373C51.4941 11.2419 51.5944 11.2464 51.6992 11.251C51.8086 11.2555 51.9089 11.2578 52 11.2578C52.0957 11.2578 52.1618 11.2578 52.1982 11.2578C52.5628 11.2578 52.8682 11.2327 53.1143 11.1826C53.3604 11.1325 53.5586 11.0573 53.709 10.957C53.8594 10.8522 53.9665 10.7155 54.0303 10.5469C54.0986 10.3783 54.1328 10.1732 54.1328 9.93164V9.74707C54.1328 9.31868 53.9733 9.00423 53.6543 8.80371C53.3353 8.60319 52.8818 8.50293 52.2939 8.50293C52.2484 8.50293 52.1709 8.50521 52.0615 8.50977C51.9567 8.51432 51.8473 8.51888 51.7334 8.52344C51.624 8.52799 51.5169 8.53255 51.4121 8.53711C51.3118 8.54167 51.2435 8.54395 51.207 8.54395V11.2305Z" fill="white"/>
<path d="M58.3369 16.7334V7.32715C58.3369 7.08561 58.387 6.92383 58.4873 6.8418C58.5921 6.75521 58.7539 6.69368 58.9727 6.65723C59.3281 6.60254 59.7633 6.55924 60.2783 6.52734C60.7979 6.49089 61.3083 6.47266 61.8096 6.47266C62.3428 6.47266 62.86 6.52507 63.3613 6.62988C63.8672 6.73014 64.3161 6.91243 64.708 7.17676C65.0999 7.43652 65.4144 7.78288 65.6514 8.21582C65.8929 8.64876 66.0137 9.19108 66.0137 9.84277V9.97266C66.0137 10.6243 65.8929 11.1689 65.6514 11.6064C65.4144 12.0394 65.0999 12.3857 64.708 12.6455C64.3161 12.9053 63.8695 13.0898 63.3682 13.1992C62.8714 13.3086 62.361 13.3633 61.8369 13.3633C61.6683 13.3633 61.4814 13.3587 61.2764 13.3496C61.0713 13.3359 60.8799 13.3245 60.7021 13.3154V16.7197C60.7021 16.7926 60.6748 16.8587 60.6201 16.918C60.5654 16.9727 60.5016 17 60.4287 17H58.6172C58.5443 17 58.4782 16.9749 58.4189 16.9248C58.3643 16.8701 58.3369 16.8063 58.3369 16.7334ZM60.7021 11.3604C60.7386 11.3604 60.8115 11.3626 60.9209 11.3672C61.0303 11.3717 61.1465 11.3763 61.2695 11.3809C61.3971 11.3854 61.5133 11.3877 61.6182 11.3877C61.7275 11.3877 61.8005 11.3877 61.8369 11.3877C62.4613 11.3877 62.917 11.2715 63.2041 11.0391C63.4912 10.8021 63.6348 10.4466 63.6348 9.97266V9.84277C63.6348 9.33691 63.4821 8.98145 63.1768 8.77637C62.8714 8.56673 62.4248 8.46191 61.8369 8.46191C61.7913 8.46191 61.7116 8.46419 61.5977 8.46875C61.4883 8.47331 61.3743 8.47786 61.2559 8.48242C61.1419 8.48698 61.0303 8.49154 60.9209 8.49609C60.8161 8.50065 60.7432 8.50293 60.7021 8.50293V11.3604Z" fill="white"/>
</svg>
