<svg xmlns="http://www.w3.org/2000/svg" fill="none" viewBox="0 0 310 94"><mask id="a" width="407" height="422" x="-59" y="-53" maskUnits="userSpaceOnUse" style="mask-type:alpha"><g stroke="#fff" stroke-miterlimit="10" opacity=".24"><path d="M170.811 112.205c-38.535-4.078-68.386 69.721-57.948 105.85 12.401 42.935 99.376 40.514 120.474 41.21 11.841.384-24.342-50.403-10.964-89.306 13.891-40.503 47.412-50.226 35.769-49.549-7.456.429-40.344-3.236-87.331-8.205Z"/><path d="M164.733 107.4c-41.854-6.547-73.378 76.055-61.137 115.312 14.695 47.154 109.151 32.705 132.11 42.757 11.901 5.197-19.436-53.584-6.181-97.394 13.685-45.18 44.826-61.067 29.64-56.833-9.441 2.603-42.976 4.215-94.432-3.842Z"/><path d="M158.647 102.599C113.48 93.587 80.3 184.954 94.318 227.375c17.007 51.363 117.993 30.826 143.759 44.236 12.605 6.563-14.528-56.751-1.402-105.469 13.444-49.894 42.015-71.892 23.522-64.129-11.6 4.872-45.621 11.741-101.55.586Z"/><path d="M152.56 97.791c-48.484-11.458-83.306 88.705-67.514 134.247 19.298 55.568 126.929 28.868 155.398 45.749 13.351 7.912-9.598-59.94 3.386-113.55 13.216-54.575 39.115-82.655 17.395-71.42-13.816 7.14-48.283 19.248-108.665 4.975Z"/><path d="M146.476 92.984c-51.804-13.898-88.296 95.026-70.7 143.718 21.603 59.776 135.938 26.888 167.035 47.268 14.133 9.265-4.665-63.114 8.168-121.632 12.999-59.268 36.192-93.369 11.276-78.715-16.071 9.44-50.926 26.766-115.779 9.361Z"/><path d="M140.389 88.183c-55.165-16.32-93.261 101.34-73.882 153.176 23.895 63.974 145.019 24.856 178.676 48.774 14.944 10.618.267-66.288 12.947-129.707 12.789-63.96 33.277-104.053 5.151-86.013-18.334 11.772-53.583 34.31-122.892 13.77Z"/><path d="M134.304 83.376c-58.46-18.769-98.242 107.656-77.067 162.647 26.229 68.182 154.172 22.83 190.315 50.286 15.777 11.97 5.215-69.465 17.734-137.787 12.581-68.657 30.321-114.72-.976-93.303-20.611 14.1-56.252 41.842-130.006 18.157Z"/><path d="M128.219 78.569C66.429 57.37 25.037 192.552 47.966 250.686c28.551 72.381 163.303 20.777 201.959 51.779 16.614 13.337 10.15-72.618 22.516-145.869 12.377-73.346 27.382-125.367-7.097-100.592-22.888 16.456-58.926 49.395-137.125 22.565Z"/><path d="M122.133 73.768C57.005 50.14 13.986 194.093 38.698 255.344c30.871 76.586 172.489 18.738 213.6 53.312 17.474 14.697 15.105-75.82 27.297-153.95 12.191-78.13 24.433-136.01-13.219-107.903-25.17 18.804-61.6 56.948-144.243 26.965Z"/><path d="M116.048 68.96C47.582 42.91 2.95 195.576 29.421 260.007c33.193 80.812 181.706 16.722 225.238 54.825 18.348 16.067 20.063-79.003 32.085-162.031C298.718 70.062 308.24 6.163 267.395 37.62c-27.442 21.14-64.26 64.476-151.347 31.34Z"/><path d="M109.962 64.153C38.157 35.678-7.965 197.04 20.17 264.675c35.685 84.924 190.954 14.644 236.879 56.331 19.218 17.443 25.017-82.178 36.864-170.106 11.78-87.433 18.56-157.27-25.467-122.476-29.747 23.49-66.971 72.026-158.484 35.73Z"/><path d="M103.876 59.353c-75.144-30.9-122.893 139.2-92.993 209.967 37.985 89.151 200.202 12.567 248.518 57.843 20.105 18.817 29.975-85.359 41.649-178.2 11.594-92.132 15.62-167.89-31.586-129.772-32.018 25.877-69.638 79.609-165.588 40.162Z"/><path d="M97.79 54.545C19.272 21.22-30.077 200.071 1.61 273.99c40.306 93.301 209.449 10.552 260.158 59.356 21.015 20.211 35.099-88.509 46.427-186.27 11.568-96.8 12.679-178.51-37.709-137.054-34.294 28.206-72.319 87.132-172.695 44.523Z"/><path d="M91.706 49.738C9.808 14.14-41.137 201.59-7.66 278.654c42.602 97.542 218.717 8.508 271.803 60.87 21.874 21.577 40.016-91.702 51.208-194.351 11.34-101.504 9.732-189.125-43.84-144.354-36.574 30.569-75.08 94.866-179.805 48.92Z"/><path d="M85.618 44.937C.39 6.881-52.184 203.103-16.932 283.318c44.901 101.74 227.995 6.458 283.442 62.382 22.766 22.959 44.949-94.904 55.99-202.433 11.117-106.206 6.798-199.743-49.961-151.643-38.887 32.95-77.75 102.377-186.921 53.313Z"/><path d="M79.533 40.13C-9.026-.376-63.25 204.619-26.2 287.975c47.21 105.929 237.282 4.426 295.081 63.895 23.662 24.349 49.905-98.058 60.763-210.489 10.861-110.916 3.767-210.459-56.079-158.938C232.357 17.639 193.15 92.31 79.533 40.13Z"/><path d="M73.449 35.323C-18.436-7.653-74.333 206.138-35.47 292.639c49.512 110.15 246.571 2.387 306.727 65.381 24.566 25.742 54.801-101.257 65.557-218.589 10.661-115.59.863-220.991-62.212-166.21-43.467 37.622-83.086 117.437-201.153 62.102Z"/><path d="M275.624-35.975C229.914 4.041 189.863 88.936 67.361 30.522-27.864-14.893-85.368 207.648-44.747 297.3c51.824 114.36 255.867.35 318.368 66.914 50.54 53.837 135.68-517.22 2.004-400.19Z"/></g></mask><g mask="url(#a)"><path fill="url(#b)" d="M-72.233-56h423v429h-423z"/></g><defs><linearGradient id="b" x1="350.767" x2="-72.233" y1="158.5" y2="158.5" gradientUnits="userSpaceOnUse"><stop stop-color="#fff"/><stop offset="1" stop-color="#fff" stop-opacity="0"/></linearGradient></defs></svg>