<svg width="32" height="32" viewBox="0 0 32 32" fill="none" xmlns="http://www.w3.org/2000/svg">
<path fill-rule="evenodd" clip-rule="evenodd" d="M30.1621 13.8947C30.2633 14.5818 30.3158 15.2848 30.3158 16C30.3158 23.9064 23.9064 30.3158 16 30.3158C8.09361 30.3158 1.68421 23.9064 1.68421 16C1.68421 8.09364 8.09361 1.68421 16 1.68421C17.4653 1.68421 18.8793 1.90438 20.2105 2.31343V0.559798C18.869 0.194804 17.4572 0 16 0C7.16344 0 0 7.16345 0 16C0 24.8365 7.16344 32 16 32C24.8365 32 32 24.8365 32 16C32 15.2864 31.9533 14.5837 31.8627 13.8947H30.1621Z" fill="#656777"/>
<path d="M23.146 6.7402H26.2534V10.1053H28.3148V6.7402H31.4222V4.76968H28.3148V1.38947H26.2534V4.76968H23.146V6.7402Z" fill="#656777"/>
<path d="M9.1621 20.2105H15.5756V18.1895H13.5141V10.5768H11.4796L8.87915 13.0156L10.24 14.4707L10.8194 13.9453C11.0754 13.7027 11.1966 13.4333 11.1966 13.4333H11.2236C11.2236 13.4333 11.2101 13.8105 11.2101 14.1743V18.1895H9.1621V20.2105ZM16.4346 17.3811C16.4346 18.9171 17.6607 20.3722 20.0051 20.3722C22.39 20.3722 23.5757 18.9036 23.5757 17.435C23.5757 16.4648 23.0906 15.8585 22.4439 15.4139C22.6999 15.104 23.387 14.1743 23.387 13.2042C23.387 11.4122 21.9184 10.4152 20.1264 10.4152C17.8763 10.4152 16.8927 11.7895 16.8927 13.1907C16.8927 13.9992 17.2565 14.5785 17.7685 15.0366C17.3778 15.3331 16.4346 16.1954 16.4346 17.3811ZM20.7327 14.5651C19.8973 14.2147 19.1967 13.8779 19.1967 13.2446C19.1967 12.827 19.4662 12.4901 20.0725 12.4901C20.7058 12.4901 21.083 12.8404 21.083 13.3794C21.083 13.9318 20.8674 14.3495 20.7327 14.5651ZM18.8464 17.1789C18.8464 16.6535 19.1428 16.2358 19.3719 15.9933C20.315 16.4379 21.1639 16.7613 21.1639 17.3137C21.1639 17.9469 20.7192 18.2973 20.0051 18.2973C19.3584 18.2973 18.8464 17.7987 18.8464 17.1789Z" fill="#656777"/>
</svg>
