<svg width="102" height="32" viewBox="0 0 102 32" fill="none" xmlns="http://www.w3.org/2000/svg">
<g clip-path="url(#clip0_499_33350)">
<path fill-rule="evenodd" clip-rule="evenodd" d="M5.44681 0H96.6809C98.2128 0 99.5745 0.680851 100.596 1.53191C101.447 2.55319 102.128 3.91489 102.128 5.44681V26.5532C102.128 28.0851 101.447 29.4468 100.596 30.4681C99.5745 31.4894 98.2128 32 96.6809 32H5.44681C3.91489 32 2.55319 31.4894 1.53191 30.4681C0.680851 29.4468 0 28.0851 0 26.5532V5.44681C0 3.91489 0.680851 2.55319 1.53191 1.53191C2.55319 0.680851 3.91489 0 5.44681 0ZM96.6809 1.3617H5.44681C4.25532 1.3617 3.23404 1.87234 2.55319 2.55319C1.87234 3.23404 1.3617 4.25532 1.3617 5.44681V26.5532C1.3617 27.7447 1.87234 28.766 2.55319 29.4468C3.23404 30.2979 4.25532 30.6383 5.44681 30.6383H96.6809C97.8723 30.6383 98.8936 30.2979 99.5745 29.4468C100.255 28.766 100.766 27.7447 100.766 26.5532V5.44681C100.766 4.25532 100.255 3.23404 99.5745 2.55319C98.8936 1.87234 97.8723 1.3617 96.6809 1.3617ZM37.1064 12.2553H38.1277V9.19149H38.9787C39.8298 9.19149 40.1702 9.70213 40.3404 10.5532C40.5106 11.5745 40.6809 12.0851 40.8511 12.2553H41.8723C41.7021 12.0851 41.5319 11.4043 41.1915 10.383C41.0213 9.70213 40.8511 9.19149 40.1702 8.85106C41.0213 8.68085 41.5319 8 41.5319 6.97872C41.5319 6.46808 41.3617 5.95745 41.0213 5.61702C40.5106 5.2766 40 5.10638 38.9787 5.10638C38.2979 5.10638 37.617 5.10638 37.1064 5.2766V12.2553ZM38.1277 5.95745C38.2979 5.78723 38.4681 5.78723 38.9787 5.78723C40 5.78723 40.6809 6.29787 40.6809 7.14894C40.6809 8 40 8.51064 38.9787 8.51064H38.1277V5.95745ZM46.6383 8.17021H43.7447V5.95745H46.8085V5.10638H42.8936V12.2553H46.9787V11.5745H43.7447V9.02128H46.6383V8.17021ZM47.6596 11.9149C48.1702 12.2553 48.8511 12.4255 49.5319 12.4255C51.234 12.4255 52.0851 11.4043 52.0851 10.383C52.0851 9.3617 51.4043 8.68085 50.2128 8.34043C49.1915 7.82979 48.8511 7.48936 48.8511 6.80851C48.8511 6.46808 49.1915 5.78723 50.2128 5.78723C50.8936 5.78723 51.234 5.95745 51.5745 6.12766L51.7447 5.44681C51.4043 5.2766 50.8936 5.10638 50.2128 5.10638C48.8511 5.10638 47.8298 5.95745 47.8298 6.97872C47.8298 8 48.6809 8.68085 49.7021 9.02128C50.7234 9.3617 51.0638 9.70213 51.0638 10.383C51.0638 11.234 50.5532 11.7447 49.7021 11.7447C49.0213 11.7447 48.3404 11.4043 48 11.234L47.6596 11.9149ZM53.2766 12.2553H54.2979V9.53191H54.9787C55.8298 9.53191 56.6809 9.19149 57.1915 8.68085C57.5319 8.34043 57.7021 7.82979 57.7021 7.14894C57.7021 6.6383 57.5319 6.12766 57.1915 5.78723C56.6809 5.2766 56 5.10638 55.1489 5.10638C54.2979 5.10638 53.7872 5.10638 53.2766 5.2766V12.2553ZM54.2979 5.95745C54.4681 5.95745 54.8085 5.78723 55.1489 5.78723C56.1702 5.78723 56.8511 6.29787 56.8511 7.31915C56.8511 8.17021 56.1702 8.85106 54.9787 8.85106C54.6383 8.85106 54.4681 8.68085 54.2979 8.68085V5.95745ZM61.9575 5.10638C59.9149 5.10638 58.5532 6.46808 58.5532 8.85106C58.5532 11.0638 59.9149 12.4255 61.7872 12.4255C63.6596 12.4255 65.1915 11.0638 65.1915 8.68085C65.1915 6.46808 63.8298 5.10638 61.9575 5.10638ZM61.7872 5.78723C63.3192 5.78723 64.1702 7.31915 64.1702 8.68085C64.1702 10.383 63.3192 11.7447 61.7872 11.7447C60.4255 11.7447 59.5745 10.383 59.5745 8.85106C59.5745 7.14894 60.2553 5.78723 61.7872 5.78723ZM67.234 12.2553V9.19149C67.234 8 67.234 7.14894 67.0638 6.29787C67.5745 7.14894 67.9149 7.82979 68.4255 8.68085L70.8085 12.2553H71.6596V5.10638H70.8085V8.17021C70.8085 9.3617 70.8085 10.2128 70.9787 11.0638C70.6383 10.383 70.1277 9.70213 69.617 8.85106L67.4043 5.10638H66.383V12.2553H67.234ZM73.0213 11.9149C73.3617 12.2553 74.0426 12.4255 74.7234 12.4255C76.4255 12.4255 77.2766 11.4043 77.2766 10.383C77.2766 9.3617 76.5957 8.68085 75.4043 8.34043C74.383 7.82979 74.0426 7.48936 74.0426 6.80851C74.0426 6.46808 74.383 5.78723 75.4043 5.78723C76.0851 5.78723 76.4255 5.95745 76.766 6.12766L76.9362 5.44681C76.5957 5.2766 76.0851 5.10638 75.4043 5.10638C74.0426 5.10638 73.0213 5.95745 73.0213 6.97872C73.0213 8 73.8723 8.68085 75.0638 9.02128C75.9149 9.3617 76.2553 9.70213 76.2553 10.383C76.2553 11.234 75.7447 11.7447 74.8936 11.7447C74.2128 11.7447 73.5319 11.4043 73.1915 11.234L73.0213 11.9149ZM78.4681 5.10638V12.2553H79.4894V5.10638H78.4681ZM81.0213 12.2553C81.3617 12.4255 81.8723 12.4255 82.5532 12.4255C83.7447 12.4255 84.4255 12.2553 84.9362 11.7447C85.2766 11.4043 85.617 10.8936 85.617 10.2128C85.617 9.19149 84.766 8.68085 84.0851 8.51064C84.9362 8.17021 85.2766 7.65957 85.2766 6.97872C85.2766 6.29787 85.1064 5.95745 84.766 5.61702C84.2553 5.2766 83.7447 5.10638 82.7234 5.10638C82.0426 5.10638 81.5319 5.10638 81.0213 5.2766V12.2553ZM82.0426 5.95745C82.2128 5.78723 82.383 5.78723 82.8936 5.78723C83.7447 5.78723 84.4255 6.12766 84.4255 6.97872C84.4255 7.65957 83.7447 8.17021 82.8936 8.17021H82.0426V5.95745ZM82.0426 8.85106H82.7234C83.7447 8.85106 84.5957 9.3617 84.5957 10.2128C84.5957 11.234 83.7447 11.7447 82.7234 11.7447C82.383 11.7447 82.2128 11.5745 82.0426 11.5745V8.85106ZM86.8085 12.2553H90.8936V11.5745H87.8298V5.10638H86.8085V12.2553ZM95.4894 8.17021H92.766V5.95745H95.6596V5.10638H91.9149V12.2553H95.8298V11.5745H92.766V9.02128H95.4894V8.17021ZM45.4468 19.7447H41.3617V21.9574H43.0638V24.5106C42.8936 24.6809 42.383 24.6809 41.8723 24.6809C39.8298 24.6809 38.4681 23.1489 38.4681 20.766C38.4681 18.0426 40 16.6809 42.0426 16.6809C43.234 16.6809 43.9149 17.0213 44.5957 17.3617L45.1064 15.1489C44.5957 14.8085 43.4043 14.4681 42.0426 14.4681C38.4681 14.4681 35.9149 16.8511 35.9149 20.766C35.9149 22.6383 36.4255 24.1702 37.4468 25.3617C38.4681 26.383 39.8298 26.8936 41.8723 26.8936C43.234 26.8936 44.766 26.5532 45.4468 26.2128V19.7447ZM52.9362 23.6596L53.7872 26.7234H56.3404L53.1064 14.6383H49.8723L46.6383 26.7234H49.0213L49.8723 23.6596H52.9362ZM50.2128 21.617L50.8936 19.0638C51.0638 18.383 51.234 17.3617 51.4043 16.6809C51.5745 17.3617 51.7447 18.2128 51.9149 19.0638L52.5957 21.617H50.2128ZM67.0638 26.7234H69.4468L68.9362 14.6383H65.7021L64.5106 18.7234C64.1702 20.0851 63.8298 21.617 63.4894 22.9787C63.3192 21.617 62.9787 20.0851 62.6383 18.7234L61.617 14.6383H58.2128L57.5319 26.7234H59.9149L60.0851 22.1277C60.0851 20.5957 60.2553 18.7234 60.2553 17.1915C60.5957 18.7234 60.9362 20.4255 61.2766 21.9574L62.4681 26.5532H64.3404L65.7021 21.7872C66.0426 20.4255 66.5532 18.7234 66.8936 17.1915V22.1277L67.0638 26.7234ZM71.3192 14.6383V26.7234H73.8723V14.6383H71.3192ZM78.1277 26.7234V23.1489V17.8723C78.6383 19.234 79.3192 20.766 80 22.1277L82.383 26.7234H84.9362V14.6383H82.7234V18.2128C82.7234 19.9149 82.7234 21.617 82.8936 23.3191C82.383 21.9574 81.7021 20.4255 81.0213 19.0638L78.8085 14.6383H75.9149V26.7234H78.1277ZM96 19.7447H92.0851V21.9574H93.617V24.5106C93.4468 24.6809 93.1064 24.6809 92.4255 24.6809C90.5532 24.6809 89.0213 23.1489 89.0213 20.766C89.0213 18.0426 90.5532 16.6809 92.5957 16.6809C93.7872 16.6809 94.6383 17.0213 95.1489 17.3617L95.6596 15.1489C95.1489 14.8085 94.1277 14.4681 92.766 14.4681C89.1915 14.4681 86.4681 16.8511 86.4681 20.766C86.4681 22.6383 86.9787 24.1702 88 25.3617C89.0213 26.383 90.383 26.8936 92.4255 26.8936C93.7872 26.8936 95.3192 26.5532 96 26.2128V19.7447ZM18.383 26.5532H14.1277V18.2128H12.9362C11.234 18.383 10.383 19.0638 9.87234 21.617C9.3617 24.1702 8.85106 26.0426 8.51064 26.5532H4.25532C4.59575 25.7021 5.2766 22.9787 5.78723 20.5957C6.29787 18.7234 6.97872 17.1915 8.34043 16.6809V16.5106C6.6383 16 4.93617 14.1277 4.93617 11.4043C4.93617 9.3617 5.61702 8 6.6383 6.97872C8 5.78723 10.0426 5.2766 12.766 5.2766C14.9787 5.2766 17.0213 5.44681 18.383 5.78723V7.65957C20.2553 6.12766 22.6383 5.2766 25.5319 5.2766C27.9149 5.2766 29.7872 5.78723 30.6383 6.29787L29.7872 10.0426C28.766 9.53191 27.5745 9.19149 25.3617 9.19149C21.9574 9.19149 19.234 11.4043 19.234 16C19.234 20.4255 21.617 22.9787 25.1915 22.9787C26.0426 22.9787 26.8936 22.8085 27.234 22.6383V18.2128H24.3404V14.4681H31.3192V25.5319C29.9574 26.0426 27.5745 26.7234 25.0213 26.7234C22.1277 26.7234 20.0851 26.0426 18.383 24.8511V26.5532ZM14.1277 9.02128C13.9574 9.02128 13.2766 8.85106 12.2553 8.85106C10.383 8.85106 9.19149 9.87234 9.19149 11.7447C9.19149 13.617 10.383 14.8085 12.5957 14.8085H14.1277V9.02128Z" fill="#656777"/>
</g>
<defs>
<clipPath id="clip0_499_33350">
<rect width="102" height="32" fill="white"/>
</clipPath>
</defs>
</svg>
