<svg width="30" height="32" viewBox="0 0 30 32" fill="none" xmlns="http://www.w3.org/2000/svg">
<g clip-path="url(#clip0_499_33355)">
<path fill-rule="evenodd" clip-rule="evenodd" d="M13.5689 21.4999V18.9615C14.0766 19.0461 14.4997 19.0461 15.0074 19.0461C17.8842 19.0461 20.4227 18.2846 22.2842 17.0154L18.6458 17.1846C18.2227 17.2692 17.9689 17.1 17.715 16.8462C17.4612 16.5923 17.292 16.3385 17.3766 15.9154C17.3766 15.2385 17.8842 14.8154 18.5612 14.8154H27.2764C27.6995 14.8154 28.0379 14.9847 28.3764 15.4077C28.6302 15.7462 28.7148 16.1693 28.5456 16.5923L27.1918 21.6692C26.9379 22.4307 26.1764 22.9384 25.3303 22.7691L24.9072 22.6845C24.4841 22.5999 24.1457 22.3461 23.8918 21.923C23.638 21.5845 23.5534 21.0769 23.7226 20.6538L24.3149 19.1307C21.9457 20.5692 18.6458 21.4999 15.092 21.4999H13.5689ZM13.5689 5.84636V4.06946H15.092C18.2227 4.06946 21.1842 4.74637 23.4688 6.01558C23.8072 6.18481 23.9764 6.43865 23.9764 6.77711C24.0611 7.11556 23.9764 7.36941 23.7226 7.62325L23.5534 7.70786C23.2149 8.04632 22.7072 8.13093 22.2842 7.87709C20.4227 6.60788 17.8842 5.76174 15.0074 5.76174C14.4997 5.76174 14.0766 5.84636 13.5689 5.84636ZM2.23068 0.00799561H13.5689V25.2229H2.23068C1.1307 25.2229 0.199951 24.3768 0.199951 23.2768V2.03873C0.199951 0.938749 1.1307 0.00799561 2.23068 0.00799561ZM13.5689 4.06946V5.84636C8.66134 6.26942 4.85371 9.06168 4.85371 12.4462C4.85371 15.7462 8.66134 18.5384 13.5689 18.9615V21.4999C6.88445 20.9922 1.723 17.2692 1.723 12.7847C1.723 8.30016 6.88445 4.57715 13.5689 4.06946ZM4.85371 29.6229H2.14607V30.2998H4.09219C4.00757 30.5536 3.75373 30.8921 3.49989 31.0613C3.24605 31.2305 2.90759 31.3998 2.48453 31.3151C0.876862 31.1459 0.538407 28.946 1.89223 28.1844C2.3153 27.9306 2.99221 27.9306 3.49989 28.269C4.09219 28.6075 3.33066 28.6075 4.59987 28.6075C4.51526 28.1844 4.00757 27.6767 3.58451 27.5075C2.99221 27.3383 2.3153 27.3383 1.723 27.5075C0.876862 27.9306 0.115337 28.946 0.453793 30.2998C0.707634 31.3151 1.723 32.1613 2.99221 31.9921C3.83835 31.8228 4.43064 31.2305 4.68449 30.5536C4.7691 30.3844 4.93833 29.8767 4.85371 29.6229ZM23.9764 29.5382V28.4383C24.4841 28.4383 24.9918 28.4383 24.9918 28.946C24.9918 29.5382 24.4841 29.5382 23.9764 29.5382ZM22.8765 31.9074H23.9764V30.469C24.0611 30.5536 24.738 31.7382 24.8226 31.9074H26.1764C26.0918 31.8228 25.2457 30.6382 25.0764 30.3844C25.2457 30.2998 25.4149 30.2998 25.6687 30.0459C25.7533 29.9613 25.9226 29.7921 26.0072 29.5382C26.261 28.6921 25.9226 27.5075 24.6534 27.5075C24.1457 27.4229 23.4688 27.4229 22.8765 27.4229V31.9074ZM18.6458 30.2152C17.1227 30.2152 17.6304 30.1305 17.292 30.5536C16.9535 30.8075 16.615 30.9767 16.1074 30.8075C15.0074 30.469 15.0074 28.7767 16.192 28.5229C16.615 28.4383 16.9535 28.5229 17.292 28.8613C17.6304 29.1998 17.1227 29.1152 18.6458 29.1152C18.6458 28.8613 18.4765 28.5229 18.3073 28.3537C17.8842 27.6767 17.1227 27.3383 16.192 27.4229C15.092 27.5075 14.1612 28.4383 14.1612 29.6229C14.1612 30.8921 15.0074 31.8228 16.1074 31.9921C17.0381 32.0767 17.7996 31.7382 18.3073 30.9767C18.3919 30.8075 18.6458 30.469 18.6458 30.2152ZM9.16902 31.9074H9.76132V28.0998C9.84593 28.1844 10.6921 30.5536 10.7767 30.9767C10.8613 31.1459 11.1151 31.8228 11.1998 31.9074H11.6228C11.7921 31.4844 12.1305 30.469 12.2997 29.9613C12.469 29.7075 12.5536 29.369 12.7228 29.0306L13.0613 28.0998L12.9766 31.9074H13.6536V27.4229H12.6382C12.5536 27.846 11.8767 29.5382 11.7074 30.0459C11.7074 30.1305 11.4536 30.8075 11.369 30.8921L10.0998 27.5075L9.16902 27.4229V31.9074ZM20.5919 28.946C20.5919 29.0306 21.015 30.2998 21.015 30.2998H20.1688L20.5919 28.946ZM18.4765 31.9074H19.5765L19.8304 31.2305H21.2688L21.5226 31.9074H22.7072C22.7072 31.8228 21.9457 29.8767 21.8611 29.7075C21.6919 29.2844 21.6073 28.946 21.438 28.6075C21.3534 28.3537 21.0996 27.5921 21.015 27.4229H20.1688L19.3227 29.7075C19.1535 29.9613 18.4765 31.7382 18.4765 31.9074ZM28.9687 29.1152L27.6995 29.1998V28.4383H28.9687V27.5075H26.5995V31.9074H28.9687V30.8921H27.6995V30.1305H28.9687V29.1152ZM6.79983 28.3537C6.79983 28.4383 7.39213 29.8767 7.39213 29.9613H6.12292C6.12292 29.8767 6.71522 28.4383 6.79983 28.3537ZM4.68449 31.9074H5.3614L5.86908 30.6382H7.64597C7.73058 30.8075 7.8152 31.0613 7.89981 31.2305C7.89981 31.3998 8.06904 31.8228 8.15365 31.9074H8.83056C8.83056 31.7382 8.06904 29.9613 7.98443 29.7075C7.8152 29.4536 7.13829 27.5921 7.05367 27.4229H6.46138L4.68449 31.9074ZM28.9687 29.1152V30.1305H27.6995V30.8921H28.9687V31.9074H26.5995V27.5075H28.9687V28.4383C29.0533 28.4383 29.0533 28.4383 29.0533 28.1844C29.0533 28.0152 29.0533 27.5921 28.9687 27.4229H26.5995C26.5995 27.5075 26.5149 31.7382 26.5995 31.9074H28.9687L29.0533 30.8921H27.6995V30.1305H28.9687C29.0533 30.0459 29.0533 29.7921 29.0533 29.6229C29.0533 29.5382 29.0533 29.1998 28.9687 29.1152Z" fill="#656777"/>
</g>
<defs>
<clipPath id="clip0_499_33355">
<rect width="28.8533" height="32" fill="white" transform="translate(0.199951)"/>
</clipPath>
</defs>
</svg>
