<svg width="48" height="48" viewBox="0 0 48 48" fill="none" xmlns="http://www.w3.org/2000/svg">
<path fill-rule="evenodd" clip-rule="evenodd" d="M10.2051 15.1596C12.4707 10.394 17.0723 7.08928 22.3067 6.47991C23.7285 6.31584 25.627 6.40959 27.1192 6.71428C31.5879 7.62834 35.6426 10.8002 37.627 14.9252L38.0254 15.7612L39.4082 15.769C40.1661 15.769 40.9786 15.808 41.2051 15.8549C42.5176 16.1362 43.6348 17.2533 43.9161 18.5658C44.0333 19.1205 44.0333 24.1283 43.9161 24.6908C43.6426 25.9955 42.5567 27.1049 41.2598 27.4018C41.0723 27.4487 40.2676 27.4877 39.4707 27.4877H38.0254L37.6192 28.3315C37.4004 28.8002 36.9395 29.5971 36.5957 30.1127C34.4786 33.2612 31.4551 35.4018 27.6192 36.4408C27.541 36.4565 27.5176 36.7221 27.5176 37.4018C27.5176 38.9643 27.2676 39.6987 26.4707 40.5033C25.0645 41.9018 22.9395 41.9018 21.5332 40.5033C20.9785 39.9487 20.6817 39.3705 20.5488 38.5893C20.3301 37.2924 20.9317 35.8705 22.0176 35.1518C22.6895 34.7065 23.1504 34.5893 24.4395 34.5112C25.0801 34.4799 25.9629 34.3783 26.3926 34.2924C31.916 33.2143 36.0411 28.8158 36.7754 23.2143C37.4864 17.7924 34.6348 12.519 29.666 10.0658C28.0254 9.25334 26.4395 8.84709 24.5801 8.76116C21.0176 8.59709 17.502 9.94866 14.9863 12.4487C11.8067 15.5971 10.5098 19.894 11.3926 24.3237C11.4629 24.6674 11.6895 25.4955 11.9004 26.1674C12.1113 26.8393 12.2832 27.4096 12.2832 27.4408C12.2832 27.4643 11.1113 27.4877 9.68946 27.4877C6.92383 27.4877 6.66602 27.4565 5.90039 27.0893C5.68946 26.9877 5.31445 26.6987 5.04883 26.4408C4.54102 25.9252 4.22852 25.3705 4.08789 24.6908C3.9707 24.1362 3.9707 19.1283 4.08789 18.5658C4.36133 17.2533 5.47852 16.1362 6.79883 15.8549C7.02539 15.808 7.82227 15.769 8.56446 15.769H9.92384L10.2051 15.1596ZM16.3613 14.394C18.0723 12.6049 20.3145 11.4643 22.6973 11.1596C23.5488 11.0502 25.3301 11.1362 26.1504 11.3159C28.3066 11.8002 29.8613 12.644 31.3926 14.1674C32.9941 15.7612 33.8848 17.4174 34.3691 19.683C34.5566 20.5893 34.5645 22.6596 34.3691 23.5815C33.8145 26.2455 32.3926 28.5033 30.2598 30.1127C29.1426 30.9487 27.6816 31.6127 26.1504 31.9643C25.4785 32.1205 25.1895 32.1283 19.4551 32.1518L13.4551 32.183V31.019V29.8549L13.8066 29.808C14.5098 29.7065 15.1973 29.2143 15.5176 28.5737L15.7129 28.183L15.2832 27.558C12.5098 23.4721 12.9629 17.9409 16.3613 14.394ZM20.4863 22.8002V21.6283V20.4565H19.3145H18.1426V21.6283V22.8002H19.3145H20.4863ZM25.1738 22.8002V21.6283V20.4565H24.002H22.8301V21.6283V22.8002H24.002H25.1738ZM29.8613 22.8002V21.6283V20.4565H28.6895H27.5176V21.6283V22.8002H28.6895H29.8613Z" fill="url(#paint0_linear_135_11850)"/>
<defs>
<linearGradient id="paint0_linear_135_11850" x1="56.0261" y1="-1.28951" x2="6.72468" y2="55.5735" gradientUnits="userSpaceOnUse">
<stop offset="0.104422" stop-color="#FFC53A"/>
<stop offset="0.9375" stop-color="#FF124C"/>
</linearGradient>
</defs>
</svg>
