<svg width="116" height="40" viewBox="0 0 116 40" fill="none" xmlns="http://www.w3.org/2000/svg">
<path d="M23.0249 1.532H27.4699C29.8679 1.532 31.6099 1.759 32.6699 2.19C33.7198 2.63171 34.6034 3.39358 35.1949 4.367C35.8009 5.354 36.1299 6.57 36.1299 7.962C36.1299 9.506 35.7259 10.797 34.9179 11.81C34.1099 12.823 33.0239 13.532 31.6359 13.937C30.8279 14.165 29.3629 14.291 27.2169 14.291V23.658H23.0259V1.532H23.0249ZM27.2159 10.165H28.5539C29.6139 10.165 30.3219 10.089 30.7509 9.937C31.1456 9.79588 31.483 9.52882 31.7109 9.177C31.9514 8.79929 32.0743 8.35865 32.0639 7.911C32.0639 7.051 31.7359 6.443 31.0789 6.038C30.5989 5.759 29.7159 5.608 28.4029 5.608H27.2159V10.165ZM40.0929 1.531H44.3089V15.835C44.3089 17.075 44.4089 17.937 44.6369 18.443C44.8639 18.949 45.2169 19.354 45.6969 19.658C46.2019 19.962 46.7829 20.114 47.4899 20.114C48.2219 20.114 48.8789 19.937 49.4089 19.607C49.9074 19.3068 50.2964 18.8547 50.5189 18.317C50.7219 17.785 50.8229 16.797 50.8229 15.304V1.53H55.0389V14.72C55.0389 16.948 54.9129 18.493 54.6599 19.353C54.4079 20.214 53.9279 21.05 53.2209 21.86C52.5139 22.67 51.7059 23.252 50.7969 23.632C49.8879 24.012 48.8029 24.214 47.5909 24.214C46.0009 24.214 44.6109 23.834 43.4249 23.1C42.2379 22.366 41.4049 21.43 40.8749 20.34C40.3699 19.227 40.1179 17.353 40.1179 14.72L40.0929 1.53V1.531ZM71.4499 4.544L68.3439 7.304C67.2589 5.784 66.1479 5.025 65.0119 5.025C64.4559 5.025 64.0019 5.177 63.6479 5.455C63.2949 5.735 63.1179 6.089 63.1179 6.468C63.1179 6.848 63.2439 7.203 63.4969 7.532C63.8499 7.962 64.8599 8.924 66.5769 10.367C68.1669 11.709 69.1519 12.57 69.4799 12.899C70.3389 13.759 70.9449 14.595 71.2979 15.379C71.6519 16.165 71.8279 17.025 71.8279 17.962C71.8279 19.785 71.1979 21.279 69.9599 22.468C68.6979 23.658 67.0819 24.241 65.0619 24.241C63.4969 24.241 62.1329 23.861 60.9469 23.076C59.7849 22.316 58.7749 21.101 57.9419 19.43L61.4769 17.304C62.5369 19.254 63.7489 20.241 65.1369 20.241C65.8699 20.241 66.4759 20.038 66.9559 19.608C67.4359 19.178 67.6879 18.696 67.6879 18.139C67.6879 17.633 67.5109 17.127 67.1319 16.646C66.7539 16.165 65.9459 15.38 64.6829 14.342C62.2849 12.367 60.7189 10.873 60.0379 9.785C59.3309 8.722 58.9779 7.658 58.9779 6.595C58.9779 5.051 59.5579 3.735 60.7189 2.645C61.8809 1.558 63.3199 1 65.0369 1C66.1469 1 67.1829 1.253 68.1929 1.76C69.2029 2.266 70.2879 3.177 71.4499 4.544ZM75.8429 1.531H80.0839V9.886H87.4569V1.53H91.6979V23.632H87.4569V13.936H80.0839V23.632H75.8169V1.53H75.8429V1.531Z" fill="white"/>
<path d="M34.2601 29L32.6951 30.544C31.7101 29.506 30.5491 28.974 29.2611 28.974C28.1251 28.974 27.1661 29.354 26.3831 30.114C25.6001 30.874 25.2221 31.81 25.2221 32.874C25.2221 33.987 25.6261 34.949 26.4341 35.734C27.2421 36.519 28.2261 36.899 29.3881 36.899C30.1451 36.899 30.8011 36.747 31.3321 36.418C31.8621 36.088 32.2911 35.582 32.5941 34.898H29.2361V32.823H35.0681L35.0941 33.303C35.0978 34.3183 34.8273 35.3157 34.3111 36.19C33.7811 37.101 33.0991 37.81 32.2661 38.291C31.4331 38.772 30.4481 39 29.3121 39C28.1001 39 27.0401 38.747 26.0801 38.215C25.1367 37.6869 24.3587 36.9068 23.8331 35.962C23.2819 35.0077 22.9945 33.924 23.0001 32.822C23.0001 31.278 23.5051 29.937 24.5151 28.797C25.7271 27.43 27.2921 26.772 29.2111 26.772C30.2211 26.772 31.1551 26.949 32.0391 27.329C32.8211 27.683 33.5531 28.24 34.2601 28.999V29ZM40.6731 27.1H42.9201L47.3891 38.746H45.0911L44.1821 36.341H39.4361L38.5021 38.746H36.2041L40.6741 27.1H40.6731ZM41.8091 30.19L40.2441 34.19H43.3491L41.8091 30.19ZM50.2171 27.1H52.3631L55.0641 35.227L57.7911 27.101H59.9371L61.8811 38.746H59.7351L58.4981 31.379L56.0241 38.746H54.0791L51.6311 31.379L50.3431 38.746H48.1971L50.2171 27.1ZM63.4971 27.1H65.6931V38.746H63.4971V27.1ZM68.1931 27.1H70.3131L75.2871 34.771V27.101H77.5091V38.746H75.3891L70.3891 31.1V38.746H68.1671L68.1931 27.1ZM90.8651 29L89.2991 30.544C88.3151 29.506 87.1531 28.974 85.8661 28.974C84.7301 28.974 83.7701 29.354 82.9881 30.114C82.2051 30.874 81.8261 31.81 81.8261 32.874C81.8261 33.987 82.2301 34.949 83.0381 35.734C83.8461 36.519 84.8311 36.899 85.9921 36.899C86.7501 36.899 87.4061 36.747 87.9361 36.418C88.4661 36.088 88.8961 35.582 89.1981 34.898H85.8411V32.823H91.6731L91.6981 33.303C91.7018 34.3183 91.4313 35.3157 90.9151 36.19C90.3851 37.101 89.7031 37.81 88.8701 38.291C88.0371 38.772 87.0521 39 85.9161 39C84.7051 39 83.6441 38.747 82.6851 38.215C81.7417 37.6868 80.9638 36.9067 80.4381 35.962C79.8869 35.0077 79.5994 33.924 79.6051 32.822C79.6051 31.278 80.1101 29.937 81.1191 28.797C82.3311 27.43 83.8971 26.772 85.8151 26.772C86.8251 26.772 87.7591 26.949 88.6431 27.329C89.4261 27.683 90.1581 28.24 90.8651 28.999V29Z" fill="#ED0D05"/>
<path d="M92.3042 27.101H93.7672V27.608H93.2882V29.759H92.7832V27.608H92.3042V27.1V27.101ZM94.3742 27.101H94.8542L95.4602 28.949L96.0662 27.101H96.5462L97.0002 29.76H96.5202L96.2432 28.063L95.6872 29.734H95.2332L94.6772 28.064L94.3992 29.734H93.9192L94.3742 27.101Z" fill="white"/>
</svg>
