<svg width="116" height="40" viewBox="0 0 116 40" fill="none" xmlns="http://www.w3.org/2000/svg">
<g clip-path="url(#clip0_192_7061)">
<path d="M57.6544 28.8297C57.5011 28.8403 57.3489 28.8509 57.1968 28.8509H4.46336C2.65418 28.8509 1.26004 28.1081 0.437396 26.4511C0.243707 26.0542 0.142606 25.6072 0 25.1794V23.9598L0.518277 22.0686C1.02698 20.1466 1.53461 18.214 2.04331 16.2931C2.86702 13.1813 5.39881 11.2487 8.63086 11.2487H62.2284C62.4019 11.2487 62.5647 11.2593 62.7371 11.2699C62.5647 11.7478 62.371 12.215 62.2188 12.6928C61.161 16.0079 60.1042 19.3123 59.0772 22.638C58.4568 24.6707 57.6129 26.6437 57.6544 28.8297ZM31.7501 14.2998H30.6316C29.0246 14.2998 27.5102 15.2959 27.0026 16.822C26.148 19.374 25.3647 21.9569 24.5517 24.5291C24.4601 24.8133 24.5517 24.8846 24.8262 24.875C25.4669 24.8643 26.1171 24.8537 26.7578 24.875C27.0526 24.8856 27.175 24.7728 27.2559 24.5089C27.4495 23.8576 27.673 23.2276 27.8561 22.5763C27.937 22.2921 28.0689 22.2006 28.3541 22.2102C28.9437 22.2315 29.5439 22.2315 30.1335 22.2102C30.4688 22.1995 30.6018 22.2517 30.4581 22.6273C30.224 23.2371 30.0622 23.8778 29.8589 24.5089C29.7674 24.7728 29.8281 24.875 30.1229 24.8643C30.7838 24.8537 31.4446 24.8441 32.1055 24.8643C32.3503 24.875 32.4716 24.7835 32.5419 24.5589C33.3464 21.9867 34.1797 19.424 34.9619 16.8422C35.4089 15.3672 34.5362 14.2891 33.0005 14.2891C32.5536 14.2998 32.1566 14.2998 31.7501 14.2998ZM12.4844 14.2998C11.6405 14.2998 10.787 14.3104 9.94305 14.2891C9.64826 14.2796 9.52587 14.3913 9.45457 14.6563C9.2098 15.4587 8.95651 16.2633 8.70216 17.0657C7.92954 19.5262 7.15691 21.9867 6.37471 24.4376C6.26296 24.7835 6.31298 24.8846 6.67907 24.8739C7.28887 24.8548 7.89974 24.8441 8.50954 24.8739C8.84477 24.8952 8.9778 24.7526 9.05868 24.4482C9.23108 23.8278 9.45457 23.2276 9.62804 22.6178C9.70892 22.3123 9.83024 22.2102 10.1463 22.2208C10.8274 22.2421 11.4979 22.2315 12.179 22.2315C13.7753 22.2315 15.2908 21.2141 15.8186 19.7199C16.1645 18.7738 16.4593 17.7979 16.7339 16.8316C17.1308 15.3778 16.2869 14.32 14.7714 14.3094C14.0095 14.2998 13.2464 14.2998 12.4844 14.2998ZM38.0535 19.5869C38.0964 19.4264 38.1436 19.267 38.195 19.109C38.6526 17.6244 39.1103 16.1505 39.5881 14.6765C39.6796 14.3817 39.6488 14.2891 39.3242 14.2891C38.6633 14.3104 38.0024 14.3104 37.3415 14.2891C37.0776 14.2796 36.9861 14.402 36.9148 14.6148C36.3858 16.3027 35.8367 17.9905 35.3386 19.6784C34.9619 20.9395 35.5313 21.9154 36.8126 22.19C37.1585 22.2613 37.118 22.373 37.0361 22.6178C36.8232 23.2371 36.6498 23.8778 36.4369 24.4983C36.355 24.7537 36.3752 24.875 36.6806 24.8643C37.3617 24.8537 38.0322 24.8441 38.7133 24.8643C38.9879 24.875 39.0592 24.7217 39.1209 24.5185C39.3135 23.8885 39.5274 23.268 39.7105 22.638C39.7914 22.3634 39.8829 22.241 40.1979 22.191C41.6516 21.925 42.7393 21.1225 43.248 19.7295C43.8578 18.0522 44.3462 16.3335 44.8954 14.635C44.9869 14.3402 44.8847 14.2891 44.6208 14.2891C43.9908 14.2998 43.3703 14.3104 42.7393 14.2891C42.4147 14.2796 42.2721 14.3807 42.1805 14.6967C41.7336 16.2016 41.2451 17.6862 40.7673 19.1803C40.7162 19.3538 40.7268 19.5869 40.4214 19.5869C39.6488 19.5762 38.8665 19.5869 38.0535 19.5869ZM21.3483 14.2998C20.5044 14.2998 19.7116 14.3104 18.9187 14.2891C18.6548 14.2891 18.6239 14.4424 18.5728 14.6254C17.5363 17.9203 16.4987 21.2141 15.4515 24.4983C15.361 24.7835 15.3908 24.8643 15.7165 24.8643C18.1358 24.8541 20.5552 24.8541 22.9745 24.8643C23.2086 24.8643 23.331 24.8037 23.4023 24.5493C23.8801 23.0041 24.3675 21.4684 24.8656 19.9232C24.9476 19.6784 24.9273 19.5464 24.6219 19.5571C23.9408 19.5677 23.2703 19.5773 22.5892 19.5571C22.3147 19.5464 22.2434 19.689 22.1816 19.9029C21.9794 20.5628 21.7559 21.2141 21.5718 21.8856C21.5005 22.1399 21.3888 22.241 21.1142 22.2315C20.4876 22.211 19.8604 22.211 19.2337 22.2315C18.9187 22.2421 18.8581 22.1602 18.9698 21.8547C19.254 21.0108 19.5083 20.1562 19.7722 19.3027C20.2916 17.6553 20.8098 15.9983 21.3483 14.3009V14.2998ZM53.7487 20.0753C53.7189 20.2179 53.7082 20.3095 53.6774 20.4106C53.291 21.7536 52.8952 23.0956 52.4982 24.4376C52.4067 24.7526 52.4173 24.8952 52.8132 24.8846C53.4539 24.8548 54.0945 24.8739 54.7448 24.8846C54.9587 24.8846 55.0811 24.8345 55.1417 24.61C55.61 22.9424 56.1783 21.3056 56.555 19.6081C56.7998 18.4886 55.9952 17.5031 54.8363 17.4722C53.9047 17.4432 52.9724 17.4397 52.0406 17.4616C50.5156 17.4935 49.0714 18.4684 48.5744 19.9125C48.0561 21.4375 47.6379 23.0041 47.1813 24.5493C47.1005 24.8239 47.2122 24.8952 47.4761 24.8952C48.0859 24.8739 48.6957 24.8548 49.3066 24.9059C49.7025 24.9357 49.8249 24.7632 49.9164 24.427C50.2825 23.1158 50.6688 21.8036 51.0551 20.5021C51.1051 20.3393 51.0849 20.086 51.401 20.0956C52.1832 20.0849 52.9558 20.0753 53.7487 20.0753ZM50.0186 14.6052H46.7354C46.5417 14.6052 46.48 14.6967 46.43 14.8596C46.1554 15.6929 45.8713 16.5166 45.5861 17.3392C45.5052 17.5733 45.5563 17.6755 45.8202 17.6755C46.7854 17.6649 47.7518 17.6649 48.7074 17.6755C48.9107 17.6755 49.0224 17.6042 49.0831 17.4212C49.3885 16.4953 49.694 15.5705 50.0196 14.6052H50.0186Z" fill="#2285C7"/>
<path d="M57.6545 28.8297C57.6035 26.6437 58.457 24.6707 59.0774 22.638C60.1044 19.3123 61.1612 16.0079 62.219 12.6928C62.3712 12.215 62.5649 11.7478 62.7373 11.2699C62.8086 11.1582 62.8895 11.0465 62.9501 10.9337C64.7497 7.60902 67.455 5.40288 71.1042 4.3759C71.6225 4.2333 72.162 4.14177 72.6899 4.03003H72.9953C73.1475 4.20243 73.3412 4.1322 73.5243 4.1322H100.942C101.114 4.1322 101.318 4.20243 101.471 4.03003H101.673C102.182 4.14177 102.711 4.2333 103.209 4.38548C105.944 5.18897 108.313 7.32487 108.607 11.2604C108.617 12.2767 108.536 13.293 108.221 14.2594C106.665 19.109 105.323 24.0311 103.575 28.8201C102.985 29.746 102.436 30.691 101.694 31.5041C99.6095 33.8028 97.0787 35.3278 93.9882 35.8152C92.7984 36.0089 91.5884 35.9472 90.389 35.9472C82.1232 35.9578 73.8584 35.9578 65.6032 35.9472C63.661 35.9472 61.8614 35.4789 60.3268 34.2295C58.7305 32.928 57.9068 31.2391 57.7344 29.2064C57.7237 29.084 57.7556 28.9414 57.6535 28.8297H57.6545ZM89.0885 33.1004C90.7062 33.1004 91.9045 33.1823 93.0741 33.0802C96.8148 32.7652 100.394 29.8364 101.522 26.2159C102.873 21.9165 104.216 17.6042 105.558 13.293C105.894 12.215 106.046 11.1273 105.762 10.0088C105.223 7.90381 103.453 6.49052 101.247 6.48094C98.9911 6.45965 96.7446 6.48094 94.4874 6.48094C94.365 6.48094 94.2426 6.4703 94.1308 6.50116C90.0655 7.23335 87.2283 9.48099 85.8969 13.4154C84.6763 17.0349 83.5684 20.6947 82.4499 24.345C82.0232 25.7179 81.4634 27.0705 81.5049 28.5657C81.5655 30.8123 83.213 32.7141 85.4489 33.0195C86.8217 33.2026 88.1733 33.0397 89.0885 33.1004ZM75.028 23.2372C74.713 24.2641 74.398 25.2304 74.1128 26.217C74.0223 26.532 73.8701 26.6129 73.5445 26.6129C71.714 26.5927 69.8835 26.6022 68.0541 26.6022C67.4337 26.6022 67.4337 26.6022 67.6274 26.0031C68.9087 21.9569 70.1996 17.9096 71.4597 13.8624C71.5714 13.4867 71.7247 13.3739 72.111 13.3739C75.9028 13.3952 79.7053 13.3739 83.4982 13.3952C83.843 13.3952 83.9856 13.3037 84.0867 12.9674C84.6496 11.114 85.2325 9.26677 85.8352 7.42597C85.9672 7.01944 85.998 6.86725 85.4595 6.86725C81.474 6.88747 77.4991 6.87789 73.5136 6.87789C73.3114 6.87789 73.1071 6.85661 72.9038 6.89705C69.0609 7.57815 66.295 9.70341 65.0147 13.3846C63.4897 17.7564 62.1881 22.2102 60.8057 26.6235C60.5003 27.5994 60.3885 28.6062 60.6333 29.6236C61.1314 31.6882 62.8788 33.0908 65.0041 33.1004C67.4443 33.111 69.8846 33.111 72.3238 33.1004C72.6899 33.1004 73.0666 33.0397 73.4221 32.9482C76.6648 32.1043 78.8709 30.0397 79.9798 26.9385C81.1388 23.7256 82.0742 20.4308 83.1108 17.1775C83.2023 16.8922 83.1917 16.7411 82.816 16.7507C79.9192 16.7613 77.0213 16.7613 74.1234 16.7507C73.8595 16.7507 73.7477 16.8422 73.6658 17.0966C73.0777 19.0137 72.471 20.9252 71.846 22.8306C71.7247 23.1967 71.8353 23.2478 72.1716 23.2478C73.1177 23.2265 74.0521 23.2372 75.028 23.2372Z" fill="white"/>
<path d="M101.461 4.03003C101.309 4.2035 101.115 4.13219 100.932 4.13219H73.5133C73.3409 4.13219 73.1376 4.2035 72.9844 4.03003H101.461Z" fill="white"/>
<path d="M103.576 28.8201C105.324 24.0311 106.657 19.1091 108.222 14.2594C108.537 13.2835 108.608 12.2768 108.608 11.2594C109.808 11.2913 111.007 11.1583 112.207 11.3413C114.881 11.7478 116.527 14.1881 115.846 16.8221C115.216 19.2932 114.515 21.743 113.803 24.1833C113.05 26.797 110.225 29.0032 107.439 28.8606C106.148 28.7999 104.857 28.8297 103.576 28.8201Z" fill="#2285C7"/>
<path d="M31.7503 14.2998H32.9699C34.5151 14.3104 35.3793 15.3874 34.9323 16.8518C34.1597 19.4347 33.3253 21.9973 32.5123 24.5696C32.441 24.793 32.3196 24.875 32.0759 24.875C31.415 24.8537 30.7542 24.8537 30.0933 24.875C29.7985 24.8856 29.7474 24.7835 29.8283 24.5185C30.0316 23.898 30.1944 23.2584 30.4285 22.638C30.5711 22.2612 30.4392 22.2102 30.1029 22.2208C29.5133 22.2421 28.9141 22.2421 28.3235 22.2208C28.0393 22.2102 27.9074 22.3017 27.8254 22.5869C27.6424 23.2371 27.4189 23.8682 27.2263 24.5185C27.1443 24.7835 27.023 24.8952 26.7282 24.8846C26.0846 24.8591 25.4402 24.8591 24.7966 24.8846C24.5221 24.8952 24.4305 24.8239 24.5221 24.5387C25.3447 21.9665 26.1184 19.3942 26.9719 16.8316C27.4806 15.3065 28.995 14.3094 30.6009 14.3094C30.9979 14.2998 31.3735 14.2998 31.7503 14.2998ZM32.2281 16.9433H29.8485C29.6963 16.9433 29.6144 16.9838 29.5644 17.1562C29.3196 17.9607 29.0557 18.7525 28.7917 19.5975H31.1298C31.3022 19.5975 31.4044 19.5666 31.4651 19.3846C31.6992 18.5705 31.9631 17.7777 32.2281 16.9433ZM12.4836 14.2998H14.7716C16.2871 14.3104 17.131 15.3672 16.7341 16.822C16.4705 17.7971 16.1651 18.7604 15.8188 19.7092C15.2803 21.2034 13.7755 22.2208 12.1792 22.2208C11.4981 22.2208 10.8276 22.241 10.1465 22.2102C9.83151 22.1995 9.70912 22.3017 9.62824 22.6071C9.46541 23.2276 9.23129 23.8267 9.05888 24.4376C8.97694 24.742 8.84497 24.8846 8.50974 24.8643C7.89997 24.8339 7.28905 24.8339 6.67927 24.8643C6.3036 24.875 6.26316 24.7728 6.37491 24.428C7.15711 21.9771 7.92974 19.5155 8.70237 17.0551C8.95778 16.2516 9.22064 15.4481 9.45477 14.6457C9.53672 14.3807 9.64846 14.2689 9.94325 14.2796C10.7872 14.3094 11.6407 14.2998 12.4846 14.2998H12.4836ZM10.5839 19.5869C11.4172 19.5869 12.1696 19.5762 12.9114 19.5869C13.1146 19.5869 13.2062 19.5368 13.2679 19.3325C13.502 18.5503 13.7553 17.7574 14.0192 16.9337H11.6407C11.4885 16.9337 11.4066 16.9635 11.3565 17.1359C11.1118 17.9394 10.8478 18.7429 10.5839 19.5869ZM38.0537 19.5869C38.8667 19.5869 39.6394 19.5762 40.4216 19.5869C40.727 19.5869 40.7068 19.3527 40.7675 19.1803C41.2464 17.6851 41.7231 16.2005 42.1807 14.6967C42.2723 14.3807 42.4149 14.2689 42.7395 14.2891C43.3705 14.3104 43.9899 14.3104 44.621 14.2891C44.8849 14.2785 44.9967 14.3402 44.8956 14.635C44.3464 16.3335 43.8686 18.0618 43.2482 19.7295C42.7395 21.1225 41.6518 21.926 40.1981 22.1899C39.8831 22.2517 39.7809 22.373 39.7107 22.6369C39.5276 23.268 39.3244 23.8884 39.1211 24.5185C39.0594 24.7217 38.9881 24.875 38.7135 24.8643C38.0324 24.8431 37.3619 24.8431 36.6808 24.8643C36.3754 24.875 36.3552 24.7526 36.4361 24.4982C36.6404 23.8778 36.8234 23.2371 37.0363 22.6167C37.1182 22.3634 37.1587 22.2612 36.8128 22.191C35.5315 21.9058 34.9621 20.9395 35.3388 19.6794C35.8465 17.9809 36.386 16.3027 36.9139 14.6148C36.9863 14.4019 37.0767 14.2891 37.3417 14.2891C38.0015 14.3104 38.6635 14.3104 39.3244 14.2891C39.649 14.2785 39.6798 14.3807 39.5883 14.6755C39.1105 16.1505 38.6528 17.634 38.1952 19.109C38.1452 19.2612 38.1143 19.4038 38.0537 19.5879V19.5869ZM21.3496 14.2998C20.8111 15.9983 20.2928 17.6553 19.7746 19.3016C19.5096 20.1562 19.2552 21.0108 18.9711 21.8558C18.8689 22.1601 18.92 22.241 19.235 22.2315C19.865 22.2102 20.4855 22.2102 21.1155 22.2315C21.3901 22.2421 21.4922 22.1399 21.5731 21.8856C21.7668 21.2247 21.9796 20.5638 22.1829 19.9029C22.2446 19.6997 22.3159 19.5571 22.5905 19.5571C23.2716 19.5773 23.9421 19.5773 24.6232 19.5571C24.9382 19.5464 24.9488 19.6784 24.8679 19.9231C24.3691 21.4618 23.881 23.0039 23.4036 24.5493C23.3216 24.8037 23.2099 24.8643 22.9768 24.8643C20.5571 24.8541 18.1374 24.8541 15.7177 24.8643C15.3921 24.8643 15.3612 24.7835 15.4538 24.4982C16.4999 21.2141 17.5376 17.9203 18.5741 14.6254C18.6358 14.4424 18.6656 14.2796 18.92 14.2902C19.7128 14.3104 20.5057 14.3008 21.3496 14.3008V14.2998ZM53.7499 20.0753C52.9571 20.0753 52.1749 20.086 51.4022 20.0647C51.0862 20.054 51.1075 20.2988 51.0564 20.4723C50.6661 21.7774 50.2865 23.0858 49.9177 24.3971C49.8261 24.7324 49.7048 24.9048 49.3079 24.875C48.697 24.8335 48.0872 24.8537 47.4774 24.8643C47.2135 24.875 47.1017 24.8037 47.1826 24.5185C47.6509 22.9732 48.0574 21.4077 48.5757 19.8816C49.0737 18.4279 50.5179 17.452 52.0418 17.4318C52.9737 17.41 53.9059 17.4135 54.8376 17.4424C55.9976 17.4829 56.8 18.4588 56.5563 19.5773C56.1902 21.2747 55.6102 22.9126 55.143 24.5791C55.0823 24.8133 54.96 24.8537 54.7471 24.8537C54.1064 24.8441 53.4551 24.8335 52.8145 24.8537C52.4186 24.875 52.4079 24.7217 52.4995 24.4067C52.9019 23.0675 53.2949 21.7255 53.6786 20.3808C53.7106 20.319 53.7201 20.2179 53.7499 20.0753ZM50.0188 14.6052C49.6942 15.5705 49.3887 16.4963 49.0833 17.4212C49.0226 17.6042 48.9109 17.6766 48.7076 17.6766C47.7424 17.6659 46.7761 17.6659 45.8204 17.6766C45.5458 17.6766 45.5054 17.5744 45.5863 17.3403C45.8715 16.5166 46.1556 15.6822 46.4302 14.8596C46.4813 14.6967 46.5419 14.6042 46.7356 14.6042H50.0188V14.6052Z" fill="#FDFDFD"/>
<path d="M89.0886 33.1003C88.1734 33.0493 86.8218 33.2025 85.4702 33.0195C84.3909 32.8663 83.4014 32.3341 82.6786 31.5181C81.9558 30.7021 81.5469 29.6555 81.5251 28.5657C81.4847 27.0704 82.0541 25.7285 82.4702 24.346C83.5887 20.6957 84.6965 17.0348 85.9172 13.4154C87.2485 9.47988 90.0847 7.23223 94.1522 6.50111C94.2639 6.47983 94.3863 6.47983 94.5076 6.47983C96.7638 6.47983 99.0114 6.46919 101.269 6.47983C103.464 6.50111 105.244 7.90376 105.782 10.0088C106.067 11.1262 105.914 12.2149 105.58 13.293C104.239 17.6024 102.893 21.9104 101.543 26.2169C100.404 29.8364 96.8361 32.7651 93.0943 33.0801C91.9045 33.1812 90.7158 33.1003 89.0886 33.1003ZM88.6523 26.6032H94.3852C94.7013 26.6032 94.7109 26.4 94.7822 26.1861C95.7176 23.1764 96.6627 20.1764 97.6088 17.1774C98.0047 15.9269 98.391 14.6765 98.7975 13.3845C96.9064 13.3845 95.0876 13.3952 93.2572 13.3739C92.8804 13.3739 92.7389 13.4963 92.6271 13.8421C91.7832 16.5772 90.9286 19.3122 90.0751 22.0367C89.6069 23.5521 89.1301 25.0569 88.6523 26.6022V26.6032ZM75.0281 23.2371C74.0522 23.2371 73.1167 23.2265 72.1919 23.2477C71.8567 23.2584 71.7449 23.1967 71.8673 22.8306C72.4861 20.9228 73.0928 19.011 73.6871 17.0955C73.768 16.8315 73.8798 16.7507 74.1447 16.7507C77.0416 16.7613 79.9394 16.7613 82.8363 16.7507C83.2024 16.7507 83.2226 16.8922 83.1311 17.1763C82.0945 20.4307 81.1484 23.7256 80.0001 26.9385C78.8923 30.0396 76.6861 32.1042 73.4424 32.9482C73.084 33.0443 72.7151 33.0954 72.3441 33.1003C69.9049 33.111 67.4646 33.1216 65.0243 33.1003C62.9001 33.0897 61.1506 31.6764 60.6536 29.6225C60.4088 28.6061 60.5205 27.6004 60.826 26.6235C62.2095 22.2006 63.4993 17.7563 65.035 13.3845C66.3259 9.70336 69.0812 7.57811 72.9241 6.897C73.1167 6.8672 73.3306 6.87678 73.5339 6.87678C77.5194 6.87678 81.4943 6.88743 85.4798 6.86614C86.0087 6.86614 85.9885 7.00875 85.8555 7.42592C85.2574 9.2682 84.6745 11.1154 84.107 12.9673C84.0058 13.3036 83.8632 13.4047 83.5174 13.3952C79.7255 13.3845 75.9231 13.3952 72.1302 13.3739C71.7449 13.3739 71.5927 13.4867 71.481 13.8634C70.2199 17.9096 68.929 21.9558 67.6477 26.003C67.455 26.6032 67.455 26.6032 68.0744 26.6032C69.9049 26.6032 71.7353 26.5926 73.5647 26.6139C73.8904 26.6139 74.0426 26.5319 74.1341 26.2169C74.398 25.24 74.713 24.2641 75.0281 23.2371Z" fill="#EB1F24"/>
<path d="M32.2282 16.9434C31.9689 17.7552 31.7146 18.5687 31.4651 19.3836C31.4045 19.5667 31.3023 19.5975 31.1299 19.5975C30.3679 19.5869 29.6049 19.5975 28.7918 19.5975C29.0557 18.7536 29.3207 17.9608 29.5644 17.1573C29.6155 16.9944 29.6964 16.9444 29.8486 16.9444H32.2282V16.9434ZM10.584 19.5869C10.8586 18.743 11.1118 17.9395 11.3566 17.137C11.4066 16.9742 11.4886 16.9338 11.6408 16.9338H14.0204C13.7554 17.7671 13.501 18.5503 13.268 19.3325C13.2062 19.5262 13.1051 19.588 12.9114 19.588H10.584V19.5869Z" fill="#2285C7"/>
<path d="M88.6523 26.6022C89.1398 25.058 89.607 23.5521 90.0752 22.0367C90.9287 19.3016 91.7833 16.5772 92.6272 13.8421C92.7283 13.4963 92.8805 13.3632 93.2572 13.3739C95.0877 13.3952 96.9171 13.3845 98.7976 13.3845C98.3911 14.6754 97.9952 15.927 97.6089 17.1774C96.6628 20.1764 95.7273 23.186 94.7823 26.1861C94.711 26.3989 94.7003 26.6033 94.3853 26.6033H88.6523V26.6022Z" fill="white"/>
</g>
<defs>
<clipPath id="clip0_192_7061">
<rect width="116" height="40" fill="white"/>
</clipPath>
</defs>
</svg>
