<svg width="116" height="40" viewBox="0 0 116 40" fill="none" xmlns="http://www.w3.org/2000/svg">
<g clip-path="url(#clip0_192_7059)">
<path d="M26.8011 30.2747H32.8621V37.4909C32.0207 38.1162 31.0759 38.5886 30.0708 38.8865C29.0676 39.1785 28.0272 39.3233 26.9823 39.3167C25.5831 39.3167 24.3047 39.0931 23.1543 38.6533C22.004 38.2147 21.0156 37.6021 20.2012 36.8287C19.382 36.0503 18.7357 35.1084 18.3041 34.0641C17.851 32.9603 17.6234 31.7771 17.6347 30.5841C17.6347 29.3105 17.8486 28.1384 18.2691 27.0714C18.6698 26.0338 19.284 25.092 20.0719 24.3068C20.8537 23.531 21.8058 22.9293 22.9139 22.4979C24.0207 22.0677 25.2653 21.8526 26.6392 21.8526C27.3521 21.8526 28.0131 21.9131 28.639 22.0242C29.2661 22.1451 29.8413 22.2997 30.3645 22.5076C30.8889 22.713 31.3686 22.9546 31.8072 23.2301C32.2446 23.5141 32.6313 23.8162 32.9745 24.1424L31.8326 25.8909C31.6772 26.1453 31.4274 26.3277 31.1378 26.3984C30.8538 26.4588 30.5457 26.3911 30.2195 26.1845C29.9317 26.0082 29.6366 25.8441 29.335 25.6927C29.062 25.5557 28.7773 25.4433 28.4843 25.3568C28.1863 25.2708 27.8821 25.2078 27.5744 25.1683C27.2185 25.1245 26.86 25.1043 26.5014 25.1079C25.7643 25.1079 25.0937 25.2372 24.5016 25.5042C23.9096 25.7616 23.4021 26.1326 22.9912 26.6147C22.5565 27.117 22.2292 27.703 22.0294 28.3366C21.7985 29.0572 21.6855 29.8104 21.6947 30.5671C21.6947 31.471 21.824 32.2806 22.0729 32.9874C22.3218 33.6931 22.6734 34.2876 23.1278 34.7697C23.5833 35.2531 24.1331 35.6228 24.7675 35.8814C25.4414 36.1394 26.158 36.2677 26.8796 36.2596C27.3509 36.2596 27.7895 36.2161 28.1762 36.1218C28.5628 36.0276 28.9398 35.9068 29.2999 35.7424V33.1506H27.6179C27.369 33.1506 27.1708 33.0817 27.0343 32.9524C26.9648 32.8876 26.9098 32.809 26.8727 32.7215C26.8357 32.6341 26.8175 32.5398 26.8192 32.4449V30.2747H26.8023H26.8011ZM50.5364 39.127H47.472C47.1289 39.127 46.8546 39.0496 46.6395 38.8853C46.427 38.7251 46.261 38.5111 46.1586 38.2654L45.1545 35.2869H38.673L37.6773 38.2751C37.5764 38.5096 37.4165 38.7139 37.2133 38.8684C36.977 39.0478 36.687 39.1419 36.3904 39.1354H33.2995L39.8922 22.0423H43.9437L50.5364 39.1282V39.127ZM44.2615 32.5996L42.6822 27.9233C42.5614 27.6309 42.4418 27.2781 42.304 26.8721C42.1759 26.4685 42.0382 26.0383 41.9101 25.5634C41.7893 26.0371 41.6684 26.4854 41.5319 26.8902C41.4026 27.295 41.2745 27.6478 41.1537 27.9499L39.601 32.5996H44.2615ZM71.0358 22.0423V39.1354H67.5509V29.3008C67.5509 29.0773 67.5594 28.8283 67.5678 28.5613C67.5763 28.2943 67.6029 28.0272 67.6283 27.7517L63.1043 36.5351C62.9665 36.8106 62.778 37.0184 62.5375 37.155C62.2971 37.2927 62.0301 37.3701 61.7219 37.3701H61.1818C60.8797 37.3701 60.6066 37.3012 60.3662 37.155C60.1187 37.0103 59.9208 36.7942 59.7983 36.5351L55.2755 27.7263C55.3008 28.0091 55.3178 28.2846 55.3359 28.5516C55.3528 28.8187 55.3601 29.0688 55.3601 29.2923V39.1185H51.8764V22.0423H54.8888C55.0604 22.0423 55.2066 22.0423 55.3359 22.0508C55.464 22.0593 55.5751 22.0846 55.6791 22.1197C55.782 22.1605 55.8754 22.2222 55.9533 22.3009C56.0391 22.3855 56.1165 22.4979 56.1938 22.6453L60.5982 31.3163C60.7516 31.6184 60.9063 31.9193 61.044 32.2467C61.189 32.5657 61.3268 32.892 61.4549 33.2279C61.5854 32.8835 61.7304 32.5476 61.8681 32.2213C62.0131 31.8939 62.169 31.5833 62.3321 31.2825L66.7015 22.6453C66.7788 22.4979 66.8549 22.3783 66.9419 22.2997C67.0175 22.2182 67.1116 22.156 67.2162 22.1185C67.3261 22.077 67.442 22.0542 67.5594 22.0508C67.6887 22.0423 67.8337 22.0423 68.0065 22.0423H71.0358ZM78.3075 25.091V29.0785H83.664V32.0147H78.3075V36.0868H85.3038V39.1354H74.3321V22.0423H85.3038V25.091H78.3075ZM97.1503 25.5127C97.0294 25.7024 96.9086 25.8389 96.7805 25.9344C96.634 26.0333 96.4592 26.0816 96.2827 26.0721C96.1014 26.0721 95.9129 26.0117 95.7075 25.8993C95.5021 25.7882 95.2701 25.6577 95.0031 25.5211C94.7169 25.3701 94.4186 25.2432 94.1113 25.1417C93.7396 25.0231 93.3511 24.9652 92.961 24.9701C92.2227 24.9701 91.6644 25.1248 91.3031 25.4438C90.943 25.7616 90.763 26.1845 90.763 26.7271C90.763 27.0714 90.8742 27.3554 91.0893 27.5789C91.3031 27.8025 91.5956 28.0018 91.9472 28.165C92.3 28.3281 92.712 28.4828 93.1676 28.6121C93.6219 28.7498 94.0859 28.9057 94.5656 29.0688C95.0369 29.2416 95.5106 29.4313 95.9649 29.6633C96.4204 29.8868 96.8228 30.1793 97.1841 30.5333C97.5357 30.8861 97.8281 31.3163 98.042 31.8153C98.2571 32.3241 98.3683 32.927 98.3683 33.6411C98.3683 34.4338 98.2317 35.1745 97.9574 35.8548C97.692 36.531 97.2883 37.1442 96.772 37.6552C96.2573 38.1627 95.612 38.5675 94.858 38.8599C94.0932 39.1523 93.2353 39.2998 92.265 39.2998C91.7199 39.2997 91.1762 39.2446 90.6422 39.1354C90.0981 39.0248 89.5642 38.8692 89.046 38.6702C88.5441 38.4751 88.0592 38.239 87.596 37.9646C87.1653 37.7096 86.7673 37.4033 86.4106 37.0523L87.5778 35.1999C87.6721 35.0706 87.7929 34.9582 87.9476 34.864C88.0987 34.7755 88.2703 34.728 88.4454 34.7262C88.6774 34.7262 88.9167 34.8048 89.1487 34.951C89.3903 35.096 89.6562 35.2603 89.9558 35.4416C90.2862 35.6371 90.6341 35.8013 90.995 35.9321C91.3817 36.0783 91.8445 36.1557 92.3773 36.1557C93.0975 36.1557 93.6461 36.001 94.0509 35.682C94.446 35.3642 94.643 34.864 94.643 34.1752C94.643 33.7789 94.5318 33.4526 94.3167 33.2025C94.078 32.9373 93.7856 32.726 93.4588 32.5826C93.0686 32.4036 92.6635 32.2593 92.248 32.1513C91.7925 32.022 91.3297 31.8854 90.8573 31.738C90.3815 31.5843 89.9172 31.3974 89.4677 31.1786C89.0161 30.9577 88.6061 30.6605 88.2557 30.3001C87.8826 29.9078 87.591 29.4453 87.3978 28.9395C87.1827 28.397 87.0715 27.7251 87.0715 26.924C87.0715 26.2872 87.2008 25.6589 87.4582 25.0475C87.7156 24.4361 88.0926 23.8935 88.5916 23.4198C89.1229 22.9214 89.7469 22.5322 90.4283 22.2743C91.1497 21.9904 91.9822 21.8442 92.9175 21.8442C93.4407 21.8442 93.9482 21.8865 94.446 21.965C94.9438 22.0423 95.4066 22.1704 95.8537 22.3263C96.3008 22.4894 96.7116 22.6791 97.0983 22.9027C97.485 23.1274 97.8281 23.3763 98.1375 23.6603L97.1503 25.5127Z" fill="white"/>
<path d="M6.26642 0.831275C7.44212 0.831275 8.44746 0.942441 9.27154 1.15752C10.0956 1.37382 10.7735 1.68315 11.2967 2.08794C11.8211 2.49273 12.1981 2.97486 12.4386 3.54398C12.679 4.1119 12.7987 4.74869 12.7987 5.45557C12.7987 5.84223 12.7479 6.20473 12.6355 6.56723C12.5244 6.91886 12.3528 7.25598 12.1208 7.56532C11.8888 7.87465 11.5891 8.15982 11.2194 8.41719C10.8096 8.69724 10.3652 8.92306 9.89746 9.08902C11.0212 9.36452 11.8465 9.80436 12.3866 10.4158C12.928 11.0272 13.1938 11.8186 13.1938 12.7841C13.1938 13.5067 13.0573 14.187 12.7733 14.8165C12.4905 15.4449 12.0785 15.9874 11.5372 16.4526C10.997 16.9166 10.3264 17.2791 9.52892 17.5461C8.73021 17.8047 7.82879 17.9425 6.80775 17.9425H0V0.831275H6.26642ZM3.94883 3.80136V8.02207H6.00904C6.44646 8.02207 6.84279 7.98702 7.19321 7.92661C7.54604 7.86619 7.84571 7.75502 8.08737 7.60036C8.33321 7.44506 8.52715 7.21998 8.64442 6.9539C8.77371 6.6784 8.83292 6.33402 8.83292 5.92077C8.83292 5.51598 8.78217 5.18007 8.67825 4.90457C8.5855 4.64872 8.42565 4.42251 8.21546 4.24965C7.97882 4.0748 7.70651 3.95433 7.41796 3.89682C7.03874 3.82244 6.65282 3.78761 6.26642 3.7929H3.94883V3.80136ZM6.73042 14.9361C7.25363 14.9361 7.68258 14.8673 8.00883 14.738C8.34354 14.6087 8.60092 14.4371 8.79063 14.222C8.97913 14.0069 9.10842 13.7749 9.17729 13.5067C9.24496 13.2409 9.28 12.9726 9.28 12.6971C9.28 12.3878 9.2365 12.1038 9.15917 11.8537C9.0781 11.6078 8.93295 11.388 8.73867 11.2169C8.54171 11.0441 8.27588 10.9148 7.94963 10.8206C7.62338 10.7251 7.21133 10.6828 6.7135 10.6828H3.94883V14.9361H6.73042ZM72.8988 0.831275V17.9244H69.4127V8.0994C69.4127 7.87465 69.4212 7.62573 69.4296 7.35869C69.4381 7.09165 69.4647 6.82461 69.49 6.54911L64.966 15.3337C64.8283 15.608 64.6398 15.8146 64.3993 15.9524C64.1589 16.0901 63.893 16.1674 63.5837 16.1674H63.0436C62.7427 16.1674 62.4684 16.0998 62.228 15.9524C61.9809 15.8076 61.7834 15.5915 61.6613 15.3325L57.1373 6.52373C57.1626 6.80769 57.1795 7.08319 57.1977 7.35023C57.2146 7.61607 57.223 7.86619 57.223 8.09094V17.9159H53.7382V0.831275H56.7506C56.9222 0.831275 57.0684 0.831274 57.1977 0.840941C57.3257 0.849399 57.4381 0.874775 57.5408 0.909816C57.6421 0.95385 57.7349 1.01518 57.8151 1.09107C57.9009 1.17565 57.9783 1.28802 58.0568 1.43544L62.443 10.1064C62.5965 10.4085 62.7512 10.7106 62.8889 11.0369C63.0339 11.3559 63.1717 11.6821 63.2998 12.018C63.429 11.6736 63.5753 11.3377 63.713 11.0103C63.858 10.684 64.0127 10.3735 64.1758 10.0726L68.5463 1.43544C68.6225 1.28802 68.6998 1.1684 68.7856 1.08986C68.8616 1.00824 68.9561 0.946082 69.0611 0.908608C69.1709 0.8672 69.2869 0.844333 69.4043 0.840941C69.5335 0.832483 69.6785 0.832483 69.8513 0.832483H72.8988V0.831275ZM80.1777 17.9244H76.2023V0.831275H80.1777V17.9244ZM98.3414 0.831275V17.9244H96.2824C95.9803 17.9244 95.7242 17.8736 95.5175 17.7794C95.3121 17.6827 95.1067 17.5111 94.9001 17.2706L86.8647 7.07473C86.8985 7.37561 86.9166 7.67648 86.9251 7.96165C86.9335 8.24561 86.942 8.51265 86.942 8.76157V17.9244H83.4572V0.831275H85.5343C85.7059 0.831275 85.8521 0.839733 85.9632 0.856649C86.0841 0.873566 86.1868 0.90015 86.281 0.942441C86.3753 0.985941 86.4623 1.04636 86.5469 1.12369C86.6327 1.20102 86.7281 1.30494 86.8393 1.44269L94.9424 11.7075C94.8703 11.1019 94.8332 10.4927 94.8312 9.8829V0.838525H98.3426V0.831275H98.3414ZM109.828 9.07211H115.889V16.2883C115.047 16.9136 114.103 17.386 113.098 17.6839C112.094 17.976 111.053 18.1209 110.008 18.1141C108.609 18.1141 107.33 17.8905 106.18 17.4507C105.03 17.0121 104.041 16.3994 103.227 15.6261C102.408 14.8477 101.761 13.9058 101.33 12.8614C100.877 11.7577 100.649 10.5745 100.66 9.38144C100.66 8.10786 100.874 6.93698 101.295 5.86882C101.695 4.83122 102.31 3.88934 103.097 3.10415C103.879 2.32961 104.831 1.72665 105.939 1.29648C107.046 0.865108 108.291 0.650024 109.665 0.650024C110.378 0.650024 111.039 0.710441 111.665 0.822816C112.292 0.94365 112.867 1.09832 113.39 1.30494C113.914 1.51036 114.394 1.75202 114.833 2.02752C115.27 2.31148 115.657 2.61357 116 2.94102L114.858 4.69794C114.703 4.95231 114.453 5.13478 114.163 5.20544C113.879 5.26586 113.571 5.19698 113.245 4.99036C112.957 4.81441 112.662 4.65073 112.361 4.49977C112.088 4.36272 111.803 4.25031 111.51 4.16386C111.212 4.07751 110.908 4.01409 110.6 3.97415C110.244 3.93034 109.886 3.91016 109.527 3.91373C108.79 3.91373 108.119 4.04302 107.527 4.31007C106.935 4.56865 106.428 4.9384 106.017 5.42173C105.582 5.92407 105.255 6.51005 105.055 7.14361C104.824 7.86387 104.711 8.61669 104.72 9.37298C104.72 10.278 104.85 11.0876 105.098 11.7933C105.347 12.5001 105.699 13.0934 106.153 13.5756C106.609 14.0589 107.159 14.4286 107.793 14.6872C108.467 14.9452 109.184 15.0736 109.905 15.0654C110.376 15.0654 110.815 15.0231 111.202 14.9277C111.588 14.8334 111.965 14.7126 112.325 14.5495V11.9564H110.643C110.395 11.9564 110.196 11.8887 110.06 11.7594C109.99 11.6947 109.935 11.616 109.898 11.5286C109.861 11.4411 109.843 11.3469 109.845 11.2519V9.07211H109.828ZM47.9612 10.2261C47.7304 11.4878 47.0645 12.6286 46.0794 13.4499C45.0942 14.2712 43.8522 14.7211 42.5696 14.7211H42.4488C42.0621 14.7126 41.6513 14.7211 40.6205 14.2824C39.5995 13.8426 39.376 13.584 38.6292 12.9992C38.2003 12.6633 37.5816 12.0168 36.9738 11.4743C36.372 12.1292 35.0066 13.6444 34.887 13.7653C35.4102 14.3332 36.6898 15.4533 37.2046 15.8496L37.1273 15.7808C38.6176 17.0324 40.4954 17.7292 42.4415 17.7528C42.8705 17.7528 43.2221 17.7359 43.6003 17.6924C45.2671 17.4878 46.8362 16.7949 48.1101 15.7007C49.3841 14.6065 50.3059 13.16 50.7597 11.5431L47.9612 10.2261Z" fill="#EB1B23"/>
<path d="M38.4322 5.61025C39.3615 4.5332 40.6744 3.86126 42.0916 3.73737C43.5088 3.61348 44.9184 4.04742 46.0205 4.94687L44.7155 5.88575L50.733 8.65887L50.1156 2.04445L48.5616 3.14645C47.7755 2.35933 46.8412 1.73572 45.8127 1.3116C44.7843 0.887477 43.682 0.671255 42.5695 0.675413C41.3164 0.675314 40.079 0.953393 38.9464 1.48958C37.8139 2.02577 36.8145 2.80669 36.0203 3.776V3.78445C35.9599 3.86179 31.2474 9.64004 29.3068 11.5516C29.2041 11.6555 29.0918 11.7498 28.9806 11.844C28.9637 11.8622 28.9383 11.8791 28.9202 11.896C28.638 12.1485 28.3462 12.3899 28.0453 12.6198C28.0103 12.6452 27.9765 12.6717 27.9511 12.6971C27.8641 12.766 27.7783 12.8264 27.701 12.8868C27.6679 12.9105 27.6364 12.9363 27.6067 12.9642C27.5729 12.9895 27.5391 13.0161 27.504 13.033C27.3928 13.1104 27.2805 13.1877 27.1778 13.265C27.1484 13.2882 27.1168 13.3084 27.0835 13.3255L26.7742 13.5321C26.7472 13.5513 26.7189 13.5686 26.6896 13.584C26.5941 13.6445 26.5084 13.6964 26.4226 13.7472C26.3887 13.7653 26.3537 13.7907 26.3198 13.8076C26.2401 13.8549 26.1595 13.9008 26.0782 13.9453C25.5127 14.2559 25.0402 14.4528 24.6451 14.5737C24.2512 14.6945 23.9418 14.7549 23.3159 14.7549C22.5829 14.7178 21.8646 14.5345 21.2035 14.2157C20.5423 13.8969 19.9516 13.4492 19.466 12.8987C18.9804 12.3483 18.6098 11.7063 18.376 11.0106C18.1421 10.3148 18.0498 9.57934 18.1044 8.84737C18.3013 6.14433 20.509 3.95604 23.2036 3.776C24.9291 3.66362 26.4479 4.40433 27.5814 5.516C27.7698 5.69604 29.3068 7.3575 29.6331 7.7635C30.2167 7.13516 31.616 5.47975 31.6679 5.41933C31.3924 5.05925 30.2336 3.83641 30.1575 3.74941C28.5081 1.89825 26.1314 0.69233 23.4609 0.727371C19.0227 0.787788 15.3143 4.34391 15.0751 8.78695C14.8165 13.5236 18.4222 17.4857 23.0054 17.7951C23.1685 17.8035 23.8996 17.8301 24.285 17.7866C24.6801 17.7431 25.0318 17.6573 25.3326 17.5885C25.8136 17.4761 26.3017 17.2187 26.3114 17.2187C26.3368 17.209 26.3621 17.1921 26.3887 17.1837C26.483 17.1402 26.5857 17.0979 26.6884 17.0459C26.736 17.0265 26.7821 17.0035 26.8261 16.977C26.9289 16.9251 27.04 16.8743 27.1524 16.8139C27.1947 16.7958 27.2297 16.7704 27.2732 16.7535C27.5729 16.5892 27.8991 16.4091 28.2254 16.2025L28.3631 16.1155C28.4828 16.0382 28.6036 15.9608 28.7317 15.8738C28.7836 15.84 28.8428 15.7977 28.9033 15.7627C29.0241 15.6769 29.1522 15.5911 29.2815 15.4968C29.3322 15.4533 29.3842 15.4183 29.4446 15.376C29.5727 15.2805 29.702 15.1766 29.8313 15.0824C29.8644 15.0587 29.8959 15.0329 29.9255 15.005C29.9497 14.9881 29.9678 14.97 29.9932 14.9531C30.1829 14.8081 30.3714 14.6437 30.5683 14.4794C30.6164 14.4416 30.6624 14.4013 30.7061 14.3586C30.8511 14.2305 31.007 14.1012 31.1616 13.9635C31.2293 13.903 31.2897 13.8426 31.3586 13.7907C31.384 13.7653 31.419 13.7387 31.4444 13.7133L31.7876 13.3943C31.8564 13.3339 33.5735 11.6459 34.7323 10.2345C35.8911 8.822 37.1441 7.13395 38.4322 5.61025Z" fill="#EB1B23"/>
</g>
<defs>
<clipPath id="clip0_192_7059">
<rect width="116" height="40" fill="white"/>
</clipPath>
</defs>
</svg>
