<svg width="116" height="40" viewBox="0 0 116 40" fill="none" xmlns="http://www.w3.org/2000/svg">
<g clip-path="url(#clip0_1188_64429)">
<path d="M0 27.3736L61.2506 27.3663L62.1126 26.1062L62.9746 24.8389H67.7446C72.1932 24.8389 72.5219 24.8461 72.6242 24.962C72.6826 25.0344 73.0917 25.6065 73.5227 26.2293L74.3043 27.3736H76.3496C77.964 27.3736 78.3803 27.3518 78.3365 27.2794C78.3073 27.236 76.0136 23.9119 73.2378 19.8926L68.1975 12.6H0V27.3736ZM28.6421 19.8057C30.6874 22.7532 32.3529 25.1865 32.3602 25.2155C32.3602 25.2517 31.805 25.2734 31.1257 25.2734H29.8839L28.5398 23.3181H20.8406L19.5403 25.2734H17.0859L19.9494 21.0513C21.5199 18.7339 23.1708 16.2934 23.6237 15.6199C24.4272 14.4249 24.4345 14.4105 24.6829 14.4249C24.9239 14.4467 25.0262 14.577 28.6421 19.8057ZM11.8338 14.6639C12.7176 14.7943 13.6892 15.0695 14.2662 15.3592C14.7484 15.5981 15.6322 16.192 15.6322 16.2789C15.6322 16.3223 14.6315 17.5969 14.4635 17.7707C14.4196 17.8069 14.237 17.7128 14.0106 17.539C13.2582 16.9669 12.3743 16.6482 11.1398 16.5106C9.21864 16.3006 7.40705 16.5686 6.38438 17.2203C5.85113 17.568 5.59547 17.8576 5.30327 18.466C5.08413 18.9222 5.07683 18.9657 5.07683 19.9868C5.07683 20.9137 5.09874 21.0875 5.24484 21.4496C5.44207 21.9421 5.99723 22.5721 6.47204 22.8473C7.99144 23.7309 11.505 23.7743 13.2363 22.927L13.6965 22.7025L13.7403 21.1455H8.76574V19.1177L12.3305 19.1322L15.8879 19.1539V23.6367L15.5227 23.9191C15.0332 24.2885 13.8207 24.8678 13.1413 25.0489C11.7169 25.44 9.40856 25.5558 7.92569 25.3168C5.59547 24.933 3.95189 23.9047 3.17758 22.3404C2.79043 21.5583 2.67355 21.0224 2.67355 20.023C2.67355 18.466 3.0534 17.5173 4.1199 16.4744C4.69698 15.9023 4.8869 15.7647 5.55164 15.4388C6.34786 15.055 7.09295 14.8233 8.03526 14.6639C8.80227 14.5336 10.9791 14.5336 11.8338 14.6639ZM38.2552 17.5317C40.0521 19.1684 41.5642 20.5227 41.6154 20.5444C41.6665 20.5661 43.1421 19.2264 44.8879 17.568C47.9778 14.6422 48.0801 14.5553 48.365 14.5553H48.6499V25.2734H46.3854V18.9584L44.9464 20.3271C42.1851 22.956 41.7907 23.3181 41.6446 23.3181C41.5642 23.3181 40.5196 22.4273 39.1098 21.1455L36.7065 18.9657L36.6846 22.1231L36.67 25.2734H34.4055V14.5553H34.6904C34.9753 14.5553 35.0995 14.6639 38.2552 17.5317ZM64.6035 14.8957C64.5305 15.0115 64.231 15.4678 63.9315 15.9095L63.3909 16.7279H54.5667V18.8281H58.2557C60.2864 18.8281 61.9446 18.8498 61.9446 18.8715C61.9446 18.9005 61.6597 19.3567 61.3164 19.8854L60.6809 20.8558H54.5667V23.2456L56.8166 23.2601L59.0738 23.2819L58.4164 24.2812L57.7662 25.2734H52.3023V14.7001H64.735L64.6035 14.8957ZM69.0302 19.7405C69.7315 20.7617 70.3232 21.6235 70.3305 21.6597C70.3451 21.6959 69.2494 21.7248 67.7592 21.7248C65.9476 21.7248 65.1587 21.7031 65.1587 21.6452C65.1587 21.551 67.6496 17.8866 67.7081 17.8866C67.73 17.8938 68.329 18.7267 69.0302 19.7405Z" fill="white"/>
<path d="M23.4191 19.5305L22.2066 21.3265L23.4484 21.3483C24.1277 21.3555 25.2453 21.3555 25.9247 21.3483L27.1592 21.3265L25.9393 19.574C25.2673 18.6036 24.6975 17.7997 24.6756 17.7707C24.6463 17.749 24.0839 18.5384 23.4191 19.5305Z" fill="white"/>
<path d="M80.0605 27.3736H83.6398L83.6544 24.8172L83.6763 22.268L86.2695 22.2463L88.8627 22.2318L91.2222 24.8027L93.5743 27.3736H95.8534C98.0156 27.3736 98.1179 27.3663 98.0083 27.2432C97.9499 27.178 96.8249 25.9469 95.5174 24.513L93.1433 21.9059L93.6108 21.7466C95.2763 21.1889 96.4159 20.0737 96.7519 18.6687C96.9856 17.6766 96.8396 16.3658 96.4086 15.5475C95.7 14.2149 94.071 13.3604 91.7627 13.1142C91.2806 13.0635 89.038 13.0345 85.539 13.0345H80.0605V27.3736ZM91.2003 16.2934C92.7854 16.4744 93.3186 16.9089 93.1872 17.9011C93.1068 18.5167 92.6539 18.8208 91.5728 19.0091C91.0469 19.096 90.2214 19.1177 87.2849 19.1177H83.6398V16.221H87.095C88.9869 16.221 90.8423 16.2572 91.2003 16.2934Z" fill="white"/>
<path d="M98.7607 16.2934H105.554V27.3736H109.134V16.2934H116V13.0345H98.7607V16.2934Z" fill="white"/>
</g>
<defs>
<clipPath id="clip0_1188_64429">
<rect width="116" height="40" fill="white"/>
</clipPath>
</defs>
</svg>
