<svg width="116" height="40" viewBox="0 0 116 40" fill="none" xmlns="http://www.w3.org/2000/svg">
<path d="M9.94069 2.11466C9.5805 2.2426 8.43021 3.32429 4.898 6.84851C2.38827 9.36082 0.250355 11.5591 0.157403 11.7336C-0.0401222 12.1058 -0.0517413 12.9548 0.122545 13.4201C0.19226 13.5945 1.11017 14.6181 2.16751 15.6881L4.08466 17.6189L3.2597 19.2938C1.99322 21.8759 1.62141 23.26 1.62141 25.4699C1.62141 27.5402 2.16751 29.3547 3.28294 31.0179C3.48047 31.3087 4.08466 31.9833 4.63076 32.53C6.39686 34.2979 8.40697 35.1121 10.9748 35.1237C13.194 35.1353 15.1809 34.5189 16.8773 33.2976C17.5744 32.7975 18.8061 31.5995 19.2011 31.0295C19.5265 30.5527 19.5265 30.8202 19.2127 31.9019C18.7247 33.6116 17.9346 34.7399 16.552 35.7285C15.9245 36.1821 14.7045 36.8335 14.3443 36.9032C14.2862 36.9265 13.8099 37.0428 13.2986 37.1824C12.3691 37.4266 11.9508 37.4964 11.3582 37.5197C11.1142 37.5313 11.0329 37.5895 11.0329 37.7639C11.0329 37.9966 11.1142 37.9966 20.212 37.9966C29.2052 37.9966 29.3911 37.9966 29.3911 37.7756C29.3911 37.5895 29.2749 37.5313 28.7288 37.4732C26.8813 37.2638 24.999 36.5776 23.779 35.6471C22.803 34.926 22.164 34.135 21.6527 33.0534C21.2693 32.2508 20.851 30.7388 21.0253 30.8086C21.0718 30.8318 21.3623 31.1459 21.6644 31.518C23.7093 34.042 27.3461 35.5191 30.5181 35.0888C33.0162 34.7631 35.0728 33.6349 36.5833 31.7623C37.478 30.6457 37.9079 29.8897 38.3378 28.5986C39.2789 25.7723 38.9885 23.0274 37.3618 19.6776C36.0023 16.8629 34.3176 14.653 31.0294 11.3614C27.9735 8.31403 24.9177 5.79008 21.4087 3.42897L20.212 2.63805L19.1314 3.34755C18.5504 3.74301 17.4699 4.51066 16.7379 5.04569L15.4133 6.03433L13.4845 4.1152C11.9392 2.5799 11.4628 2.17281 11.091 2.06813C10.5216 1.91693 10.4984 1.91693 9.94069 2.11466ZM15.5876 7.48822C18.1322 10.0354 20.2468 12.2104 20.2817 12.3268C20.3165 12.4431 20.3165 12.6757 20.2701 12.8502C20.1887 13.1991 11.5441 21.9573 10.998 22.2481C10.8005 22.3528 10.5333 22.3993 10.3474 22.3528C10.1382 22.3062 8.56963 20.8174 5.42086 17.6654C0.901025 13.1293 0.808072 13.0363 0.808072 12.5826C0.808072 12.129 0.901025 12.0243 5.43248 7.49985C9.95231 2.97536 10.0685 2.87068 10.51 2.87068C10.9632 2.87068 11.0677 2.97536 15.5876 7.48822Z" fill="url(#paint0_linear_1188_64457)"/>
<path d="M113.897 8.4536C113.502 8.69786 113.165 9.22125 113.165 9.61671C113.165 10.0238 113.479 10.6286 113.781 10.838C114.164 11.0822 114.884 11.0939 115.338 10.8496C115.86 10.5821 116.139 9.82607 115.93 9.20962C115.64 8.34892 114.664 7.97673 113.897 8.4536ZM115.372 8.74438C116.023 9.32593 115.849 10.4076 115.07 10.7333C114.292 11.059 113.548 10.617 113.432 9.76792C113.374 9.3143 113.409 9.23289 113.792 8.84906C114.176 8.46523 114.257 8.43034 114.687 8.4885C114.943 8.52339 115.256 8.6397 115.372 8.74438Z" fill="url(#paint1_linear_1188_64457)"/>
<path d="M113.978 9.67487C113.978 10.1052 114.025 10.4309 114.094 10.4309C114.164 10.4309 114.211 10.2681 114.211 10.082C114.211 9.59345 114.501 9.63997 114.78 10.1634C114.85 10.3146 115.001 10.4309 115.094 10.4309C115.233 10.4309 115.221 10.3611 115.024 10.082C114.803 9.77955 114.803 9.72139 114.954 9.66324C115.198 9.57019 115.198 9.08168 114.954 8.98863C114.85 8.95374 114.594 8.91885 114.373 8.91885H113.978V9.67487ZM114.861 9.27941C114.954 9.43061 114.71 9.61671 114.42 9.61671C114.292 9.61671 114.211 9.52366 114.211 9.38409C114.211 9.20962 114.292 9.15147 114.489 9.15147C114.652 9.15147 114.815 9.20962 114.861 9.27941Z" fill="url(#paint2_linear_1188_64457)"/>
<path d="M41.4749 21.1315H45.1698C49.2597 21.1315 49.771 21.0617 50.3984 20.4336C50.9794 19.8521 51.1769 19.317 51.1769 18.2819C51.1769 17.4677 51.1304 17.2816 50.8516 16.7931C50.6656 16.4907 50.3403 16.1185 50.1312 15.9789C49.9104 15.8393 49.7245 15.6998 49.7245 15.6649C49.7245 15.63 49.8988 15.502 50.1079 15.3625C50.5843 15.0484 51.1072 14.0947 51.2001 13.3619C51.3512 12.0243 50.503 10.6286 49.3527 10.3378C48.9925 10.2448 47.5517 10.1983 45.1466 10.1983H41.4749V21.1315ZM48.0397 12.2337C48.9576 12.6757 48.8763 14.1063 47.9003 14.5599C47.5982 14.6995 47.1451 14.7344 45.6346 14.7111L43.7407 14.6762L43.6709 12.0592H45.6694C47.2264 12.0592 47.7376 12.0941 48.0397 12.2337ZM48.1792 16.8164C48.9228 17.3165 48.8066 18.6657 47.9816 19.096C47.7144 19.2356 47.2032 19.2705 45.6578 19.2705H43.6826V16.5721L45.8089 16.6186C47.4123 16.6419 47.9816 16.7 48.1792 16.8164Z" fill="url(#paint3_linear_1188_64457)"/>
<path d="M55.5922 10.3611C54.6045 10.6751 53.9074 11.2334 53.2916 12.2453C52.0599 14.2343 52.1994 17.7468 53.5704 19.5497C54.5581 20.8407 55.5224 21.1315 58.9385 21.1315H61.2274V19.2938L59.043 19.2473C56.9748 19.2124 56.8354 19.2007 56.2893 18.91C55.6154 18.5726 55.232 17.9795 55.1158 17.1304L55.0344 16.5954H61.2274V14.7344H55.0693V14.432C55.0693 13.8853 55.3133 13.1409 55.6038 12.8385C56.2196 12.1756 56.452 12.1174 58.9385 12.0825L61.2274 12.036V10.1983L58.648 10.2099C56.9051 10.2099 55.9059 10.2564 55.5922 10.3611Z" fill="url(#paint4_linear_1188_64457)"/>
<path d="M63.1097 14.2924C63.1562 18.2005 63.1678 18.4331 63.4118 19.0379C63.7139 19.8172 64.3297 20.4453 65.1198 20.8058C65.6543 21.0501 65.8867 21.0733 68.1756 21.1082L70.6389 21.1547V19.2938L68.6404 19.2473C66.4444 19.2007 66.0726 19.1077 65.6775 18.4912C65.4916 18.2121 65.4684 17.7585 65.4335 14.1877L65.3987 10.1983H63.0632L63.1097 14.2924Z" fill="url(#paint5_linear_1188_64457)"/>
<path d="M75.7862 10.396C75.7397 10.5123 74.7288 12.9781 73.532 15.8626L71.3709 21.1315H74.0665L74.5778 19.8521L75.1006 18.5726L77.2385 18.5959L79.3765 18.6308L80.3757 21.0733L81.7351 21.1082C82.5369 21.1199 83.0713 21.0966 83.0481 21.0268C83.0365 20.9687 82.0256 18.5145 80.8056 15.5602L78.598 10.1983H77.2269C76.0302 10.1983 75.8559 10.2215 75.7862 10.396ZM78.0519 14.7111C78.4469 15.7114 78.7723 16.5837 78.7723 16.6303C78.7723 16.6768 78.0635 16.7117 77.1921 16.7117C75.9488 16.7117 75.6235 16.6768 75.67 16.5605C76.1347 15.3276 77.1921 12.8734 77.2502 12.8734C77.285 12.8734 77.6452 13.6992 78.0519 14.7111Z" fill="url(#paint6_linear_1188_64457)"/>
<path d="M82.0256 12.0592H85.5113V21.1315H87.8352V12.0592H91.4371V10.1983H82.0256V12.0592Z" fill="url(#paint7_linear_1188_64457)"/>
<path d="M92.7152 21.1315H95.039V16.9443H96.3171C97.9089 16.9443 98.6642 17.0955 99.1638 17.5375C99.6634 17.9795 99.8842 18.561 100.047 19.8753C100.117 20.4685 100.198 20.9919 100.233 21.0384C100.256 21.0966 100.849 21.1315 101.546 21.1315H102.801L102.708 20.7477C102.661 20.5499 102.58 19.98 102.533 19.5031C102.406 17.9446 101.987 17.1188 101.116 16.7L100.581 16.4442L101.034 16.2115C101.999 15.7347 102.487 14.9438 102.65 13.6643C102.789 12.3965 102.208 11.1753 101.209 10.6751C100.419 10.2681 99.6402 10.1983 96.1428 10.1983H92.7152V21.1315ZM99.4659 12.2453C99.8377 12.4314 100.151 13.013 100.151 13.5015C100.151 13.9551 99.8261 14.6646 99.5356 14.8507C99.3381 14.9903 98.792 15.0368 97.1653 15.0601L95.039 15.1066V12.0592H97.0724C98.699 12.0592 99.187 12.0941 99.4659 12.2453Z" fill="url(#paint8_linear_1188_64457)"/>
<path d="M108.018 10.396C107.983 10.5123 106.983 12.9548 105.798 15.8277C104.613 18.7006 103.637 21.0733 103.637 21.0966C103.637 21.1082 104.23 21.1315 104.962 21.1315H106.275L106.798 19.8753L107.32 18.6308H111.596L112.119 19.8753L112.642 21.1315H113.955C114.664 21.1315 115.256 21.085 115.256 21.0268C115.256 20.9687 115.152 20.6662 115.012 20.3522C114.884 20.0498 114.489 19.1077 114.152 18.2819C113.815 17.4444 112.967 15.3857 112.27 13.6876C111.573 11.9895 110.969 10.5123 110.922 10.396C110.853 10.2215 110.678 10.1983 109.458 10.1983C108.25 10.1983 108.076 10.2215 108.018 10.396ZM110.26 14.6413C110.655 15.6184 111.015 16.4907 111.039 16.5605C111.085 16.6768 110.725 16.7117 109.47 16.7117H107.843L108.61 14.7925C109.04 13.7457 109.423 12.8734 109.458 12.8734C109.505 12.8734 109.853 13.676 110.26 14.6413Z" fill="url(#paint9_linear_1188_64457)"/>
<path d="M54.3721 23.9229C50.6076 24.0044 50.3519 24.0509 49.3992 24.9116C48.3999 25.8072 47.9235 27.0052 47.7957 28.8662C47.6098 31.4948 48.4696 33.5768 50.0615 34.3793C50.7935 34.7631 51.7578 34.8562 54.802 34.8562H57.7417V28.3428H52.3969V30.1921L55.476 30.2619L55.5457 32.9952H54.0584C51.8043 32.9952 51.1885 32.7393 50.6773 31.6111C50.4333 31.0761 50.3635 30.7388 50.3287 29.6687C50.2474 27.517 50.5727 26.6097 51.63 26.0747C52.1994 25.7839 52.2575 25.7839 54.9763 25.7839H57.7417V24.7953C57.7417 24.2486 57.7301 23.8183 57.7184 23.8299C57.6952 23.8415 56.1963 23.8881 54.3721 23.9229Z" fill="url(#paint10_linear_1188_64457)"/>
<path d="M64.6434 23.8997C63.4351 23.9229 63.3421 23.9462 63.2375 24.1905C63.1678 24.33 62.4009 26.2026 61.5179 28.3428C60.6465 30.4829 59.8564 32.3904 59.775 32.5881C59.6821 32.7742 59.4381 33.3674 59.2173 33.9024L58.8106 34.8678L61.5063 34.798L62.0175 33.5419L62.5404 32.2973L64.6899 32.3206L66.8511 32.3555L67.3623 33.6L67.8852 34.8562H70.5227L70.3019 34.2979C69.6977 32.7742 66.1772 24.2951 66.0726 24.0974C65.9448 23.8881 65.8286 23.8648 64.6434 23.8997ZM65.5381 28.4358L66.305 30.3782L64.7364 30.4131C63.8766 30.4247 63.1446 30.4247 63.1213 30.3898C63.0632 30.3317 64.6202 26.4818 64.7132 26.4818C64.748 26.4934 65.1198 27.3657 65.5381 28.4358Z" fill="url(#paint11_linear_1188_64457)"/>
<path d="M71.8008 34.8562H74.0201L74.0084 30.7737C73.9968 28.5289 74.0084 26.6795 74.0317 26.6563C74.0665 26.6214 75.5305 30.9714 76.4833 33.9257L76.7622 34.798L77.8544 34.8329C78.4585 34.8445 79.0046 34.8213 79.0744 34.7748C79.1441 34.7166 79.818 32.9021 80.5732 30.7271C81.3285 28.5521 81.9908 26.726 82.0489 26.6679C82.0953 26.5981 82.1418 28.4242 82.1418 30.7039V34.8562H84.2332V23.8648L82.5833 23.8881L80.9218 23.8997L79.6902 27.5518C79.0047 29.5524 78.4702 31.2273 78.4934 31.2738C78.5283 31.3203 78.4934 31.3785 78.4469 31.4134C78.3888 31.4483 78.2726 31.7158 78.1913 32.0066C78.11 32.2973 78.0054 32.4951 77.9589 32.4485C77.8776 32.3555 77.3547 30.8667 77.3083 30.5876C77.2966 30.5061 77.1456 30.0409 76.9945 29.5408C76.8319 29.0406 76.3555 27.5635 75.9372 26.2492L75.182 23.8648H71.8008V34.8562Z" fill="url(#paint12_linear_1188_64457)"/>
<path d="M91.9599 23.923C89.2178 23.9811 89.1597 23.9811 88.5788 24.2951C87.4634 24.8883 86.5222 26.2143 86.2085 27.6565C85.9877 28.6684 86.1039 31.0295 86.4293 31.8554C86.7778 32.7626 87.3239 33.5535 87.9281 34.0071C88.7879 34.6584 89.334 34.7631 92.2272 34.8213L94.8066 34.8794V33.0185L92.6222 32.9719C90.554 32.937 90.4146 32.9254 89.8685 32.6346C89.1946 32.2973 88.8112 31.7041 88.695 30.8551L88.6136 30.32H94.8066V28.4591H88.6136L88.6834 27.8077C88.7647 27.0401 89.1714 26.3538 89.7175 26.0514C90.0428 25.877 90.4611 25.8304 92.4596 25.8072L94.8066 25.7723V24.7836C94.8066 24.2486 94.795 23.8183 94.7834 23.8299C94.7602 23.8415 93.4937 23.8764 91.9599 23.923Z" fill="url(#paint13_linear_1188_64457)"/>
<path d="M98.1413 24.109C96.991 24.458 96.259 25.6792 96.2706 27.1797C96.2939 28.0404 96.503 28.6103 97.0375 29.2267C97.723 30.006 98.1646 30.1223 100.732 30.1921C102.835 30.2619 103.033 30.2852 103.428 30.5294C104.346 31.0993 104.183 32.4834 103.161 32.844C102.894 32.937 101.778 32.9836 99.7796 32.9836L96.7819 32.9952V34.8562H100.128C101.964 34.8562 103.777 34.798 104.16 34.7399C105.554 34.5189 106.414 33.4604 106.519 31.8786C106.612 30.3317 106.066 29.2384 104.938 28.715C104.334 28.4358 104.125 28.4126 101.952 28.3428C100.477 28.2962 99.5356 28.2265 99.3729 28.1334C98.7106 27.7612 98.5364 26.7493 99.036 26.1677L99.3148 25.8421L105.961 25.7723V23.923L102.336 23.9346C99.4775 23.9346 98.5828 23.9811 98.1413 24.109Z" fill="url(#paint14_linear_1188_64457)"/>
<path d="M9.94069 2.11466C9.5805 2.2426 8.43021 3.32429 4.898 6.84851C2.38827 9.36082 0.250355 11.5591 0.157403 11.7336C-0.0401222 12.1058 -0.0517413 12.9548 0.122545 13.4201C0.19226 13.5945 1.11017 14.6181 2.16751 15.6881L4.08466 17.6189L3.2597 19.2938C1.99322 21.8759 1.62141 23.26 1.62141 25.4699C1.62141 27.5402 2.16751 29.3547 3.28294 31.0179C3.48047 31.3087 4.08466 31.9833 4.63076 32.53C6.39686 34.2979 8.40697 35.1121 10.9748 35.1237C13.194 35.1353 15.1809 34.5189 16.8773 33.2976C17.5744 32.7975 18.8061 31.5995 19.2011 31.0295C19.5265 30.5527 19.5265 30.8202 19.2127 31.9019C18.7247 33.6116 17.9346 34.7399 16.552 35.7285C15.9245 36.1821 14.7045 36.8335 14.3443 36.9032C14.2862 36.9265 13.8099 37.0428 13.2986 37.1824C12.3691 37.4266 11.9508 37.4964 11.3582 37.5197C11.1142 37.5313 11.0329 37.5895 11.0329 37.7639C11.0329 37.9966 11.1142 37.9966 20.212 37.9966C29.2052 37.9966 29.3911 37.9966 29.3911 37.7756C29.3911 37.5895 29.2749 37.5313 28.7288 37.4732C26.8813 37.2638 24.999 36.5776 23.779 35.6471C22.803 34.926 22.164 34.135 21.6527 33.0534C21.2693 32.2508 20.851 30.7388 21.0253 30.8086C21.0718 30.8318 21.3623 31.1459 21.6644 31.518C23.7093 34.042 27.3461 35.5191 30.5181 35.0888C33.0162 34.7631 35.0728 33.6349 36.5833 31.7623C37.478 30.6457 37.9079 29.8897 38.3378 28.5986C39.2789 25.7723 38.9885 23.0274 37.3618 19.6776C36.0023 16.8629 34.3176 14.653 31.0294 11.3614C27.9735 8.31403 24.9177 5.79008 21.4087 3.42897L20.212 2.63805L19.1314 3.34755C18.5504 3.74301 17.4699 4.51066 16.7379 5.04569L15.4133 6.03433L13.4845 4.1152C11.9392 2.5799 11.4628 2.17281 11.091 2.06813C10.5216 1.91693 10.4984 1.91693 9.94069 2.11466ZM15.5876 7.48822C18.1322 10.0354 20.2468 12.2104 20.2817 12.3268C20.3165 12.4431 20.3165 12.6757 20.2701 12.8502C20.1887 13.1991 11.5441 21.9573 10.998 22.2481C10.8005 22.3528 10.5333 22.3993 10.3474 22.3528C10.1382 22.3062 8.56963 20.8174 5.42086 17.6654C0.901025 13.1293 0.808072 13.0363 0.808072 12.5826C0.808072 12.129 0.901025 12.0243 5.43248 7.49985C9.95231 2.97536 10.0685 2.87068 10.51 2.87068C10.9632 2.87068 11.0677 2.97536 15.5876 7.48822Z" fill="url(#paint15_linear_1188_64457)"/>
<path d="M15.5876 7.49096C18.1322 10.0382 20.2469 12.2132 20.2817 12.3295C20.3166 12.4458 20.3166 12.6784 20.2701 12.8529C20.1888 13.2018 11.5442 21.96 10.9981 22.2508C10.8005 22.3555 10.5333 22.402 10.3474 22.3555C10.1382 22.309 8.56967 20.8202 5.42089 17.6682C0.901058 13.132 0.808105 13.039 0.808105 12.5854C0.808105 12.1318 0.901058 12.0271 5.43251 7.50259C9.95234 2.97809 10.0685 2.87341 10.5101 2.87341C10.9632 2.87341 11.0678 2.97809 15.5876 7.49096Z" fill="url(#paint16_linear_1188_64457)"/>
<path d="M15.5876 7.49096C18.1322 10.0382 20.2469 12.2132 20.2817 12.3295C20.3166 12.4458 20.3166 12.6784 20.2701 12.8529C20.1888 13.2018 11.5442 21.96 10.9981 22.2508C10.8005 22.3555 10.5333 22.402 10.3474 22.3555C10.1382 22.309 8.56967 20.8202 5.42089 17.6682C0.901058 13.132 0.808105 13.039 0.808105 12.5854C0.808105 12.1318 0.901058 12.0271 5.43251 7.50259C9.95234 2.97809 10.0685 2.87341 10.5101 2.87341C10.9632 2.87341 11.0678 2.97809 15.5876 7.49096Z" fill="white"/>
<defs>
<linearGradient id="paint0_linear_1188_64457" x1="101.4" y1="34.8562" x2="101.4" y2="23.9229" gradientUnits="userSpaceOnUse">
<stop stop-color="#0292FF"/>
<stop offset="1" stop-color="#0259FF"/>
</linearGradient>
<linearGradient id="paint1_linear_1188_64457" x1="101.4" y1="34.8562" x2="101.4" y2="23.9229" gradientUnits="userSpaceOnUse">
<stop stop-color="#0292FF"/>
<stop offset="1" stop-color="#0259FF"/>
</linearGradient>
<linearGradient id="paint2_linear_1188_64457" x1="101.4" y1="34.8562" x2="101.4" y2="23.9229" gradientUnits="userSpaceOnUse">
<stop stop-color="#0292FF"/>
<stop offset="1" stop-color="#0259FF"/>
</linearGradient>
<linearGradient id="paint3_linear_1188_64457" x1="101.4" y1="34.8562" x2="101.4" y2="23.9229" gradientUnits="userSpaceOnUse">
<stop stop-color="#0292FF"/>
<stop offset="1" stop-color="#0259FF"/>
</linearGradient>
<linearGradient id="paint4_linear_1188_64457" x1="101.4" y1="34.8562" x2="101.4" y2="23.9229" gradientUnits="userSpaceOnUse">
<stop stop-color="#0292FF"/>
<stop offset="1" stop-color="#0259FF"/>
</linearGradient>
<linearGradient id="paint5_linear_1188_64457" x1="101.4" y1="34.8562" x2="101.4" y2="23.9229" gradientUnits="userSpaceOnUse">
<stop stop-color="#0292FF"/>
<stop offset="1" stop-color="#0259FF"/>
</linearGradient>
<linearGradient id="paint6_linear_1188_64457" x1="101.4" y1="34.8562" x2="101.4" y2="23.9229" gradientUnits="userSpaceOnUse">
<stop stop-color="#0292FF"/>
<stop offset="1" stop-color="#0259FF"/>
</linearGradient>
<linearGradient id="paint7_linear_1188_64457" x1="101.4" y1="34.8562" x2="101.4" y2="23.9229" gradientUnits="userSpaceOnUse">
<stop stop-color="#0292FF"/>
<stop offset="1" stop-color="#0259FF"/>
</linearGradient>
<linearGradient id="paint8_linear_1188_64457" x1="101.4" y1="34.8562" x2="101.4" y2="23.9229" gradientUnits="userSpaceOnUse">
<stop stop-color="#0292FF"/>
<stop offset="1" stop-color="#0259FF"/>
</linearGradient>
<linearGradient id="paint9_linear_1188_64457" x1="101.4" y1="34.8562" x2="101.4" y2="23.9229" gradientUnits="userSpaceOnUse">
<stop stop-color="#0292FF"/>
<stop offset="1" stop-color="#0259FF"/>
</linearGradient>
<linearGradient id="paint10_linear_1188_64457" x1="101.4" y1="34.8562" x2="101.4" y2="23.9229" gradientUnits="userSpaceOnUse">
<stop stop-color="#0292FF"/>
<stop offset="1" stop-color="#0259FF"/>
</linearGradient>
<linearGradient id="paint11_linear_1188_64457" x1="101.4" y1="34.8562" x2="101.4" y2="23.9229" gradientUnits="userSpaceOnUse">
<stop stop-color="#0292FF"/>
<stop offset="1" stop-color="#0259FF"/>
</linearGradient>
<linearGradient id="paint12_linear_1188_64457" x1="101.4" y1="34.8562" x2="101.4" y2="23.9229" gradientUnits="userSpaceOnUse">
<stop stop-color="#0292FF"/>
<stop offset="1" stop-color="#0259FF"/>
</linearGradient>
<linearGradient id="paint13_linear_1188_64457" x1="101.4" y1="34.8562" x2="101.4" y2="23.9229" gradientUnits="userSpaceOnUse">
<stop stop-color="#0292FF"/>
<stop offset="1" stop-color="#0259FF"/>
</linearGradient>
<linearGradient id="paint14_linear_1188_64457" x1="101.4" y1="34.8562" x2="101.4" y2="23.9229" gradientUnits="userSpaceOnUse">
<stop stop-color="#0292FF"/>
<stop offset="1" stop-color="#0259FF"/>
</linearGradient>
<linearGradient id="paint15_linear_1188_64457" x1="101.4" y1="34.8562" x2="101.4" y2="23.9229" gradientUnits="userSpaceOnUse">
<stop stop-color="#0292FF"/>
<stop offset="1" stop-color="#0259FF"/>
</linearGradient>
<linearGradient id="paint16_linear_1188_64457" x1="101.4" y1="84.5479" x2="101.4" y2="73.6147" gradientUnits="userSpaceOnUse">
<stop stop-color="#0292FF"/>
<stop offset="1" stop-color="#0259FF"/>
</linearGradient>
</defs>
</svg>
