<svg width="116" height="40" viewBox="0 0 116 40" fill="none" xmlns="http://www.w3.org/2000/svg">
<path d="M115.469 0V37.0418C115.469 38.6495 114.183 40 112.511 40H3.9582C2.28617 40 1 38.6495 1 37.0418V9.51768C1 7.90997 2.28617 6.62379 3.9582 6.62379H108.781L114.891 0H115.469Z" fill="#FF403F"/>
<path d="M23.0582 19.5498C23.0582 22.9582 20.4859 25.4662 17.0132 25.4662H14.5695V29.9678H10.0679V13.6977H17.0132C20.4859 13.6977 23.0582 16.1414 23.0582 19.5498ZM18.428 19.5498C18.428 18.3922 17.6563 17.6205 16.4987 17.6205H14.5695V21.5434H16.4987C17.6563 21.5434 18.428 20.7074 18.428 19.5498Z" fill="white"/>
<path d="M24.8589 12.8617H29.2319V29.9678H24.8589V12.8617Z" fill="white"/>
<path d="M45.309 17.3633V29.9678H41.965L41.5791 29.0675C40.5502 29.9035 39.264 30.3537 37.7849 30.3537C33.9907 30.3537 31.2254 27.5884 31.2254 23.6656C31.2254 19.7427 33.9907 16.9774 37.7849 16.9774C39.264 16.9774 40.6145 17.4919 41.6434 18.3279L42.0936 17.3633H45.309ZM41.1933 23.6656C41.1933 22.0578 40.0357 20.836 38.428 20.836C36.756 20.836 35.5984 22.0578 35.5984 23.6656C35.5984 25.3376 36.8203 26.5594 38.428 26.5594C40.0357 26.5594 41.1933 25.3376 41.1933 23.6656Z" fill="white"/>
<path d="M56.4987 26.1736V29.9678H53.5405C50.7753 29.9678 49.1032 28.2958 49.1032 25.4662V20.7074H46.7881V19.7427L52.4473 13.6977H53.2833V17.4276H56.4344V20.7074H53.4119V24.7588C53.4119 25.6591 53.9264 26.1736 54.891 26.1736H56.4987Z" fill="white"/>
<path d="M58.5566 17.4276H62.8653V29.9678H58.5566V17.4276ZM58.5566 12.1543H62.8653V15.8199H58.5566V12.1543Z" fill="white"/>
<path d="M79.5212 23.6656C79.5212 27.5884 76.8203 30.418 72.9618 30.418C71.8042 30.418 70.7753 30.0964 69.8749 29.5819V34.5337H65.5663V17.4276H68.5245L69.1032 18.3922C70.1322 17.4919 71.4184 16.9774 72.9618 16.9774C76.8203 16.9774 79.5212 19.7427 79.5212 23.6656ZM75.2126 23.6656C75.2126 22.0578 73.9907 20.836 72.383 20.836C70.7753 20.836 69.5534 22.0578 69.5534 23.6656C69.5534 25.3376 70.7753 26.5594 72.383 26.5594C73.9907 26.5594 75.2126 25.3376 75.2126 23.6656Z" fill="white"/>
<path d="M81.3862 24.5659V17.4276H85.6949V24.3729C85.6949 25.7234 86.4023 26.4951 87.5598 26.4951C88.7174 26.4951 89.4248 25.7234 89.4248 24.3729V17.4276H93.7978V24.5659C93.7978 28.1028 91.2897 30.418 87.5598 30.418C83.8299 30.3537 81.3862 28.1028 81.3862 24.5659Z" fill="white"/>
<path d="M101.193 30.3537C97.7206 30.3537 95.6627 28.553 95.5984 25.852H99.7785C99.7785 26.7524 100.422 27.2025 101.258 27.2025C101.901 27.2025 102.479 26.881 102.479 26.2379C102.479 25.4662 101.515 25.2733 100.293 25.0803C98.3637 24.7588 95.7913 24.18 95.7913 21.1575C95.7913 18.5852 97.9135 16.9774 101.193 16.9774C104.344 16.9774 106.467 18.7138 106.467 21.2218H102.415C102.415 20.4501 101.901 20.0643 101.065 20.0643C100.422 20.0643 99.9071 20.3858 99.9071 20.9646C99.9071 21.672 100.872 21.8649 102.094 22.0578C104.087 22.4437 106.724 22.8295 106.724 26.045C106.724 28.6816 104.473 30.3537 101.193 30.3537Z" fill="white"/>
</svg>
