<svg width="116" height="40" viewBox="0 0 116 40" fill="none" xmlns="http://www.w3.org/2000/svg">
<path d="M41.2978 26.3504C41.4846 26.5372 41.6095 26.8498 41.6095 27.1624C41.6095 27.4121 41.5475 27.5999 41.4846 27.7866C41.3608 27.9734 41.2359 28.0993 41.1111 28.2241C40.9243 28.349 40.7375 28.349 40.4888 28.349H39.1813V30.0988C39.1813 30.1607 39.1813 30.1607 39.1194 30.1607L39.0575 30.2226C38.9945 30.2226 38.9945 30.2226 38.9945 30.1607L38.9326 30.0978V26.1626C38.9326 26.1007 38.9326 26.1007 38.9945 26.1007L39.0575 26.0378H40.4888C40.8004 26.0378 41.0491 26.1626 41.2978 26.3504ZM41.1111 27.8496C41.2978 27.6628 41.3608 27.475 41.3608 27.1614C41.3608 26.8498 41.2978 26.662 41.1111 26.4753C41.0316 26.391 40.9349 26.325 40.8274 26.2819C40.72 26.2388 40.6044 26.2196 40.4888 26.2256H39.1813V28.0993H40.4888C40.7375 28.1622 40.9243 28.0363 41.1111 27.8496ZM45.4689 30.0988C45.4689 30.1607 45.4689 30.1607 45.407 30.1607L45.3451 30.2236H45.2821C45.1583 30.1607 45.0954 30.0359 45.0334 29.911C44.9715 29.7862 44.9086 29.5365 44.9086 29.2229C44.9086 28.9113 44.8467 28.6616 44.6599 28.5367C44.4731 28.4119 44.2863 28.3499 44.0376 28.3499H42.6682V30.0988C42.6682 30.1607 42.6682 30.1607 42.6053 30.1607L42.5434 30.2236C42.4814 30.2236 42.4814 30.2236 42.4814 30.1607L42.4185 30.0978V26.1626C42.4185 26.1007 42.4185 26.1007 42.4814 26.1007L42.5434 26.0378H44.0995C44.3482 26.0378 44.535 26.1007 44.7218 26.1626C44.9086 26.2875 45.0334 26.4133 45.1583 26.5382C45.2821 26.663 45.2821 26.9117 45.2821 27.0995C45.2821 27.3502 45.2202 27.5999 45.0954 27.7876C44.9634 27.9794 44.7628 28.1132 44.535 28.1612C44.7218 28.2241 44.9086 28.349 45.0334 28.5367C45.1583 28.7235 45.2202 28.9113 45.2202 29.2239C45.2202 29.4736 45.2202 29.6613 45.2821 29.7862C45.3451 29.911 45.3451 29.973 45.407 30.0359L45.4689 30.0988ZM44.0995 28.0993C44.3482 28.0993 44.535 27.9744 44.7218 27.7866C44.9086 27.5999 44.9715 27.3502 44.9715 27.0995C44.9775 26.9836 44.9582 26.8678 44.9151 26.76C44.872 26.6522 44.8061 26.5551 44.7218 26.4753C44.535 26.2885 44.2863 26.2256 44.0376 26.2256H42.6053V28.0993H44.0995ZM48.769 30.0359L48.831 30.0988C48.831 30.1607 48.831 30.1607 48.769 30.1607L48.7061 30.2236H46.4648C46.4028 30.2236 46.4028 30.2236 46.4028 30.1607L46.3409 30.0978V26.1626C46.3409 26.1007 46.3409 26.1007 46.4028 26.1007L46.4657 26.0378H48.7071C48.769 26.0378 48.769 26.0378 48.769 26.1007L48.831 26.1626C48.831 26.2256 48.831 26.2256 48.769 26.2256L48.7061 26.2875H46.5896V27.9744H48.4574C48.5193 27.9744 48.5193 27.9744 48.5193 28.0373L48.5822 28.0993C48.5822 28.1622 48.5822 28.1622 48.5193 28.1622L48.4574 28.2241H46.5896V30.0359H48.7061C48.7061 29.973 48.769 30.0359 48.769 30.0359ZM53.3746 26.1007V30.0978C53.3746 30.1607 53.3746 30.1607 53.3127 30.1607L53.2508 30.2236C53.1888 30.2236 53.1888 30.2236 53.1888 30.1607L53.1259 30.0978V26.5382L51.5697 28.8483C51.5697 28.9113 51.5078 28.9113 51.5078 28.9113C51.4449 28.9113 51.4449 28.9113 51.383 28.8493L49.8268 26.4753V30.0988C49.8268 30.1607 49.8268 30.1607 49.7649 30.1607L49.7019 30.2236C49.64 30.2236 49.64 30.2236 49.64 30.1607L49.5781 30.0978V26.1626C49.5781 26.1626 49.5781 26.1007 49.64 26.1007L49.7019 26.0378C49.7649 26.0378 49.7649 26.0378 49.8268 26.1007L51.5078 28.5996L53.1888 26.1007C53.2508 26.0378 53.2508 26.0378 53.3127 26.0378C53.3127 26.0378 53.3746 26.0378 53.3746 26.1007ZM54.745 30.2236L54.6821 30.2856C54.6201 30.2856 54.6201 30.2856 54.6201 30.2236L54.5582 30.1607V26.2256C54.5582 26.1636 54.5582 26.1636 54.6201 26.1636L54.6821 26.1007C54.745 26.1007 54.745 26.1007 54.745 26.1636L54.8069 26.2256V30.1607L54.745 30.2236ZM58.978 26.1007L59.0399 26.1626V28.7874C59.0399 29.0361 58.978 29.3487 58.8532 29.5365C58.7341 29.781 58.5369 29.9789 58.2928 30.0988C58.0441 30.2236 57.7944 30.2856 57.5457 30.2856C57.297 30.2856 56.9854 30.2236 56.7986 30.0988C56.5545 29.9789 56.3573 29.781 56.2382 29.5365C56.1181 29.3045 56.0541 29.0476 56.0515 28.7864V26.1626C56.0515 26.1007 56.0515 26.1007 56.1144 26.1007L56.1763 26.0378C56.2382 26.0378 56.2382 26.0378 56.2382 26.1007L56.3012 26.1626V28.7874C56.3012 29.0361 56.3631 29.2239 56.4879 29.4106C56.6118 29.5984 56.7367 29.7862 56.9854 29.911C57.1721 30.0359 57.4209 30.0978 57.6076 30.0978C57.7944 30.0978 58.0441 30.0359 58.2309 29.911C58.4177 29.7862 58.6045 29.6613 58.7283 29.4106C58.8532 29.1609 58.9151 28.9742 58.9151 28.7864V26.1626C58.9151 26.1007 58.9151 26.1007 58.978 26.1007L59.0399 26.0378C59.0399 26.0378 58.978 26.0378 58.978 26.1007ZM63.8952 26.1007V30.0978C63.8952 30.1607 63.8952 30.1607 63.8333 30.1607L63.7714 30.2236C63.7085 30.2236 63.7084 30.2236 63.7084 30.1607L63.6465 30.0978V26.5382L62.0903 28.8483C62.0903 28.9113 62.0284 28.9113 62.0284 28.9113C61.9655 28.9113 61.9655 28.9113 61.9036 28.8493L60.3474 26.4753V30.0988C60.3474 30.1607 60.3474 30.1607 60.2855 30.1607L60.2226 30.2236C60.1606 30.2236 60.1606 30.2236 60.1606 30.1607L60.0987 30.0978V26.1626C60.0987 26.1626 60.0987 26.1007 60.1606 26.1007L60.2226 26.0378C60.2845 26.0378 60.2845 26.0378 60.3474 26.1007L62.0284 28.5996L63.7094 26.1007C63.7714 26.0378 63.7714 26.0378 63.8333 26.0378C63.8333 26.0378 63.8952 26.0378 63.8952 26.1007ZM70.3696 26.1007V30.0978C70.3696 30.1607 70.3696 30.1607 70.3077 30.1607L70.2457 30.2236C70.1828 30.2236 70.1828 30.2236 70.1828 30.1607L70.1209 30.0978V26.5382L68.5647 28.8483C68.5647 28.9113 68.5018 28.9113 68.5018 28.9113C68.4399 28.9113 68.4399 28.9113 68.3779 28.8493L66.8218 26.4753V30.0988C66.8218 30.1607 66.8218 30.1607 66.7589 30.1607L66.6969 30.2236C66.635 30.2236 66.635 30.2236 66.635 30.1607L66.5721 30.0978V26.1626C66.5721 26.1626 66.5721 26.1007 66.635 26.1007L66.6969 26.0378C66.7589 26.0378 66.7589 26.0378 66.8218 26.1007L68.5028 28.5996L70.1838 26.1007C70.2457 26.0378 70.2457 26.0378 70.3077 26.0378L70.3696 26.1007ZM74.9772 29.2868C74.7904 29.5984 74.5407 29.8481 74.292 30.0359C73.9803 30.2226 73.6687 30.2856 73.2332 30.2856C72.7977 30.2856 72.4861 30.2236 72.1755 30.0359C71.8638 29.8491 71.6151 29.5984 71.4903 29.2858C71.3035 28.9742 71.2416 28.5996 71.2416 28.1622C71.2416 27.7247 71.3035 27.3502 71.4903 27.0376C71.6771 26.725 71.9258 26.4753 72.1755 26.2875C72.4861 26.1007 72.7977 26.0378 73.2332 26.0378C73.6687 26.0378 73.9803 26.1007 74.292 26.2875C74.6026 26.4753 74.8523 26.725 74.9762 27.0376C75.163 27.3502 75.2249 27.7247 75.2249 28.1622C75.2249 28.5357 75.163 28.9113 74.9762 29.2858L74.9772 29.2868ZM74.7275 27.1624C74.6026 26.8498 74.3539 26.663 74.1052 26.4753C73.8555 26.2885 73.5449 26.2256 73.1713 26.2256C72.8597 26.2256 72.548 26.2875 72.2374 26.4753C71.9887 26.662 71.739 26.8498 71.6151 27.1624C71.4903 27.475 71.3654 27.7866 71.3654 28.1622C71.3654 28.5357 71.4283 28.8493 71.6151 29.161C71.739 29.4736 71.9887 29.6613 72.2374 29.8491C72.4861 30.0359 72.7977 30.0978 73.1713 30.0978C73.4819 30.0978 73.7936 30.0359 74.1052 29.8481C74.3539 29.6613 74.6026 29.4745 74.7275 29.161C74.8523 28.8493 74.9762 28.5367 74.9762 28.1622C74.9762 27.7866 74.9142 27.4121 74.7275 27.1624ZM78.8356 28.4119C78.9605 28.5986 79.0853 28.8493 79.0853 29.099C79.0853 29.4736 78.9605 29.7233 78.7118 29.911C78.4621 30.0978 78.2134 30.2236 77.8398 30.2236H76.1588C76.0969 30.2236 76.0969 30.2236 76.0969 30.1607L76.0349 30.0978V26.1626C76.0349 26.1007 76.0349 26.1007 76.0969 26.1007L76.1588 26.0378H77.7779C78.0885 26.0378 78.3382 26.1007 78.525 26.2875C78.7118 26.4753 78.8356 26.725 78.8356 27.0376C78.8356 27.2873 78.7737 27.475 78.6489 27.6618C78.525 27.8486 78.4001 27.9744 78.2134 28.0373C78.4621 28.0993 78.6489 28.2241 78.8356 28.4109V28.4119ZM78.4001 26.4753C78.2753 26.3504 78.0266 26.2885 77.7779 26.2885H76.3456V27.9744H77.7779C77.8935 27.9804 78.009 27.9612 78.1165 27.9181C78.2239 27.8749 78.3207 27.809 78.4001 27.7247C78.525 27.5379 78.6489 27.3502 78.6489 27.0366C78.5869 26.7879 78.525 26.6001 78.4001 26.4753ZM78.525 29.7862C78.7118 29.6613 78.7737 29.4106 78.7737 29.098C78.7737 28.7864 78.7108 28.5996 78.525 28.4119C78.3382 28.2251 78.0885 28.1622 77.7779 28.1622H76.2836V29.973H77.7779C78.0885 29.973 78.3382 29.911 78.525 29.7862ZM80.0812 30.2236L80.0182 30.2856C79.9563 30.2856 79.9563 30.2856 79.9563 30.2236L79.8944 30.1607V26.2256C79.8944 26.1636 79.8944 26.1636 79.9563 26.1636L80.0192 26.1007C80.0192 26.1007 80.0812 26.1007 80.0812 26.1636L80.1431 26.2256V30.1607L80.0812 30.2236ZM83.6919 30.0359L83.7538 30.0988C83.7538 30.1607 83.7538 30.1607 83.6919 30.1607L83.629 30.2236H81.4506C81.3886 30.2236 81.3886 30.2236 81.3886 30.1607L81.3257 30.0978V26.1626C81.3257 26.1007 81.3257 26.1007 81.3886 26.1007L81.4506 26.0378C81.4506 26.0378 81.5125 26.0378 81.5125 26.1007L81.5754 26.1626V30.0359H83.63C83.63 29.973 83.63 30.0359 83.6919 30.0359ZM86.8033 30.0359L86.8662 30.0988C86.8662 30.1607 86.8662 30.1607 86.8042 30.1607L86.7423 30.2236H84.501C84.439 30.2236 84.439 30.2236 84.439 30.1607L84.3761 30.0978V26.1626C84.3761 26.1007 84.3761 26.1007 84.439 26.1007L84.501 26.0378H86.7423C86.8042 26.0378 86.8042 26.0378 86.8042 26.1007L86.8662 26.1626C86.8662 26.2256 86.8662 26.2256 86.8042 26.2256L86.7423 26.2875H84.5619V27.9744H86.4297C86.4916 27.9744 86.4916 27.9744 86.4916 28.0373L86.5545 28.0993C86.5545 28.1622 86.5546 28.1622 86.4916 28.1622L86.4297 28.2241H84.5619V30.0359H86.6784C86.7413 29.973 86.8033 30.0359 86.8033 30.0359ZM92.3447 28.2251L92.4067 28.287V29.7862C92.4067 29.8491 92.4067 29.8491 92.3447 29.911C92.1579 30.0359 91.9712 30.1607 91.7225 30.2236C91.5357 30.2856 91.286 30.3485 91.0373 30.3485C90.6018 30.3485 90.2282 30.2856 89.9166 30.0988C89.6089 29.9149 89.3521 29.6571 89.1695 29.3487C88.9827 29.0361 88.9208 28.6616 88.9208 28.2251C88.9208 27.7876 88.9827 27.4121 89.1695 27.1005C89.3562 26.7879 89.6059 26.5382 89.9166 26.3504C90.2282 26.1636 90.6018 26.1007 91.0373 26.1007C91.286 26.1007 91.4728 26.1007 91.6595 26.1636C91.8463 26.2256 92.0331 26.2885 92.2199 26.4133C92.2818 26.4133 92.2818 26.4753 92.2818 26.5382C92.2818 26.6001 92.2818 26.6001 92.2199 26.6001L92.1579 26.663H92.095C91.7767 26.4662 91.4115 26.3582 91.0373 26.3504C90.6637 26.3504 90.3521 26.4133 90.0414 26.6001C89.7298 26.7879 89.543 26.9756 89.3563 27.2882C89.1695 27.5999 89.1075 27.9125 89.1075 28.287C89.1075 28.6616 89.1695 28.9742 89.3563 29.2868C89.543 29.5984 89.7298 29.7862 90.0414 29.9739C90.3521 30.1607 90.6637 30.2236 91.0373 30.2236C91.224 30.2236 91.4108 30.2236 91.5976 30.1607C91.7844 30.0988 91.9712 30.0359 92.095 29.911V28.5996H91.0373C90.9753 28.5996 90.9753 28.5996 90.9753 28.5367L90.9124 28.4748C90.9124 28.4119 90.9124 28.4119 90.9753 28.4119L91.0373 28.3499H92.2199C92.2818 28.1622 92.3447 28.1622 92.3447 28.2251ZM96.391 30.0988C96.391 30.1607 96.391 30.1607 96.329 30.1607H96.2042L96.1413 30.0978L95.6438 28.8493H93.6522L93.1538 30.0978C93.1538 30.1607 93.0918 30.1607 93.0289 30.1607H92.967L92.9051 30.0978V30.0359L94.5232 26.1007C94.5232 26.0378 94.5232 26.0378 94.5851 26.0378H94.648C94.7099 26.0378 94.7719 26.0378 94.7719 26.1007L96.391 30.0988ZM93.776 28.7245H95.5819L94.648 26.4753L93.776 28.7245ZM100.873 26.1007V30.0978C100.873 30.1607 100.873 30.1607 100.811 30.1607L100.749 30.2236C100.686 30.2236 100.686 30.2236 100.686 30.1607L100.624 30.0978V26.5382L99.0678 28.8483C99.0678 28.9113 99.0059 28.9113 99.0059 28.9113C98.943 28.9113 98.943 28.9113 98.881 28.8493L97.3249 26.4753V30.0988C97.3249 30.1607 97.3249 30.1607 97.2619 30.1607L97.2 30.2236C97.1381 30.2236 97.1381 30.2236 97.1381 30.1607L97.0752 30.0978V26.1626C97.0752 26.1626 97.0752 26.1007 97.1381 26.1007L97.2 26.0378C97.2619 26.0378 97.2619 26.0378 97.3249 26.1007L99.0059 28.5996L100.686 26.1007C100.749 26.0378 100.749 26.0378 100.811 26.0378C100.811 26.0378 100.873 26.0378 100.873 26.1007ZM104.483 30.0359L104.545 30.0988C104.545 30.1607 104.545 30.1607 104.483 30.1607L104.421 30.2236H102.18C102.118 30.2236 102.118 30.2236 102.118 30.1607L102.055 30.0978V26.1626C102.055 26.1007 102.055 26.1007 102.118 26.1007L102.18 26.0378H104.421C104.483 26.0378 104.483 26.0378 104.483 26.1007L104.545 26.1626C104.545 26.2256 104.545 26.2256 104.483 26.2256L104.421 26.2875H102.304V27.9744H104.172C104.235 27.9744 104.235 27.9744 104.235 28.0373L104.297 28.0993C104.297 28.1622 104.297 28.1622 104.235 28.1622L104.172 28.2241H102.304V30.0359H104.421C104.483 29.973 104.483 30.0359 104.483 30.0359ZM105.666 30.1607C105.417 30.0359 105.231 29.911 105.044 29.6613L104.982 29.5984C104.982 29.5365 104.982 29.5365 105.044 29.5365L105.106 29.4736C105.169 29.4736 105.169 29.4736 105.231 29.5365C105.417 29.7233 105.541 29.8481 105.791 29.973C105.978 30.0988 106.226 30.0988 106.475 30.0988C106.787 30.0988 107.035 30.0359 107.222 29.8481C107.313 29.7835 107.388 29.6995 107.442 29.6022C107.496 29.5049 107.527 29.3968 107.534 29.2858C107.539 29.1014 107.472 28.9222 107.347 28.7864C107.222 28.6616 107.098 28.5367 106.974 28.4738C106.849 28.4119 106.6 28.287 106.351 28.2241C106.102 28.0993 105.853 28.0373 105.728 27.9744C105.604 27.9115 105.417 27.7876 105.355 27.6618C105.231 27.537 105.169 27.3502 105.169 27.0995C105.169 26.9127 105.231 26.7259 105.355 26.5382C105.479 26.3504 105.604 26.2256 105.791 26.1626C105.978 26.1007 106.226 26.0378 106.475 26.0378C106.725 26.0378 106.912 26.1007 107.16 26.1626C107.409 26.2256 107.534 26.3494 107.659 26.5382C107.694 26.5707 107.716 26.6152 107.721 26.663C107.721 26.725 107.721 26.725 107.659 26.725C107.659 26.725 107.596 26.7879 107.534 26.7879C107.472 26.7879 107.472 26.7879 107.472 26.725C107.347 26.6001 107.222 26.4753 107.035 26.4133C106.849 26.3504 106.662 26.2875 106.475 26.2875C106.164 26.2875 105.915 26.3504 105.728 26.4753C105.632 26.5345 105.553 26.6173 105.499 26.7158C105.445 26.8142 105.417 26.9251 105.417 27.0376C105.417 27.2243 105.479 27.3502 105.541 27.475C105.666 27.5999 105.791 27.6618 105.915 27.7866C106.04 27.8496 106.226 27.9125 106.475 28.0373C106.725 28.1622 106.974 28.2241 107.16 28.287C107.347 28.349 107.472 28.4738 107.596 28.6616C107.721 28.8483 107.783 29.0361 107.783 29.2858C107.783 29.4736 107.721 29.6613 107.596 29.7862C107.472 29.9729 107.347 30.0978 107.16 30.1607C106.974 30.2856 106.725 30.2856 106.475 30.2856C106.164 30.2856 105.915 30.2236 105.666 30.1607ZM49.8268 19.4789C49.3487 20.3942 48.6407 21.1694 47.7722 21.7281C46.9012 22.2904 45.9044 22.5401 44.7837 22.5401C43.664 22.5401 42.6682 22.2904 41.7962 21.7281C40.9278 21.1694 40.2197 20.3942 39.7417 19.4789C39.2442 18.542 38.9945 17.4803 38.9945 16.3557C38.9945 15.2311 39.2442 14.1694 39.7417 13.2326C40.2197 12.3172 40.9278 11.5421 41.7962 10.9834C42.6682 10.422 43.664 10.1714 44.7847 10.1714C45.9054 10.1714 46.9012 10.422 47.7732 10.9834C48.6416 11.5421 49.3497 12.3172 49.8278 13.2326C50.3252 14.1694 50.5739 15.2311 50.5739 16.3557C50.5739 17.4803 50.3252 18.542 49.8268 19.4789ZM47.8351 14.2953C47.5396 13.6887 47.0884 13.1713 46.5277 12.7961C45.9763 12.424 45.325 12.2279 44.6599 12.2338C43.9757 12.2338 43.3524 12.4216 42.7921 12.7961C42.2317 13.1706 41.7962 13.671 41.5475 14.2953C41.2359 14.9205 41.112 15.6076 41.112 16.4186C41.112 17.1687 41.2359 17.9188 41.5475 18.543C41.8403 19.1329 42.2668 19.6463 42.7931 20.0422C43.3534 20.4167 43.9757 20.6045 44.6609 20.6045C45.3451 20.6045 45.9673 20.4177 46.5277 20.0422C47.0885 19.667 47.5397 19.1496 47.8351 18.543C48.1458 17.9188 48.2706 17.2316 48.2706 16.4816C48.3326 15.7264 48.1817 14.969 47.8351 14.2953ZM59.4135 14.0446C59.849 14.7317 60.0987 15.7315 60.0987 16.918V21.5403C60.0987 21.853 59.9738 22.1026 59.7871 22.2904C59.6003 22.4772 59.3516 22.602 59.0399 22.602C58.7293 22.602 58.4796 22.5401 58.2928 22.2904C58.1932 22.1927 58.1144 22.076 58.061 21.9471C58.0076 21.8182 57.9808 21.6798 57.9822 21.5403V16.918C57.9822 16.2928 57.8573 15.7934 57.6086 15.4189C57.3589 15.0443 56.9234 14.8566 56.2392 14.8566C55.554 14.8566 55.0556 15.0434 54.6821 15.4189C54.3085 15.7934 54.1217 16.2938 54.1217 16.8551V21.4784C54.1217 21.79 53.9979 22.0397 53.8111 22.2275C53.6243 22.4143 53.3756 22.5401 53.064 22.5401C52.7523 22.5401 52.5036 22.4772 52.3169 22.2275C52.2174 22.1299 52.1386 22.0133 52.0852 21.8846C52.0318 21.7559 52.005 21.6177 52.0062 21.4784V13.9807C52.0062 13.6691 52.1301 13.4194 52.3169 13.2316C52.5036 13.0448 52.7523 12.919 53.064 12.919C53.3756 12.919 53.6243 13.0438 53.8111 13.2316C53.9979 13.4184 54.1227 13.6691 54.1227 13.9807V14.4181C54.4334 13.9807 54.8069 13.6691 55.3053 13.3564C55.8028 13.0438 56.3631 12.919 56.9234 12.919C58.169 13.0438 58.978 13.3564 59.4135 14.0436V14.0446ZM69.996 18.2304C69.8093 18.4172 69.5606 18.4801 69.2489 18.4801H63.5846C63.7084 19.1682 64.0201 19.6666 64.5185 20.0422C65.0005 20.4116 65.5922 20.6095 66.1995 20.6045C66.6969 20.6045 67.0086 20.5416 67.3202 20.4786C67.5689 20.4167 67.8176 20.2919 67.9424 20.229C68.0663 20.1041 68.1912 20.0422 68.2531 20.0422C68.4399 19.9173 68.6267 19.9173 68.8134 19.9173C69.0621 19.9173 69.2489 19.9793 69.4357 20.167C69.6225 20.3538 69.6854 20.5416 69.6854 20.7913C69.6854 21.1039 69.4986 21.3536 69.187 21.6662C68.8754 21.9159 68.4399 22.1656 67.8795 22.3533C67.3192 22.5401 66.8218 22.603 66.2614 22.603C65.3275 22.603 64.4556 22.4162 63.7714 21.9778C63.0862 21.6042 62.5258 21.041 62.0903 20.2919C61.7168 19.6037 61.53 18.7927 61.53 17.9178C61.53 16.918 61.7168 16.0441 62.1523 15.294C62.5888 14.545 63.0862 13.9826 63.7714 13.6081C64.4556 13.2326 65.1408 12.9829 65.9498 12.9829C66.6969 12.9829 67.444 13.1706 68.0663 13.6081C68.7515 14.0456 69.2489 14.6069 69.6854 15.294C70.059 15.9822 70.3077 16.7313 70.3077 17.5433C70.3077 17.8559 70.2457 18.1056 69.996 18.2304ZM63.6465 16.7932H68.1292V16.6683C68.0663 16.169 67.8176 15.7934 67.444 15.4199C67.0086 15.0443 66.5101 14.9195 66.0117 14.9195C64.7043 14.9195 63.8952 15.5447 63.6465 16.7932ZM79.6457 10.3591C79.8324 10.5459 79.9563 10.7966 79.9563 11.1082C79.9563 11.4208 79.8324 11.6705 79.6457 11.7963C79.4589 11.9831 79.2092 12.0451 78.8986 12.0451H76.2217V21.4774C76.2217 21.79 76.0969 22.0397 75.9101 22.2275C75.7233 22.4143 75.4127 22.5401 75.101 22.5401C74.7894 22.5401 74.5407 22.4153 74.292 22.2275C74.1922 22.1299 74.1131 22.0132 74.0596 21.8843C74.006 21.7554 73.9791 21.617 73.9803 21.4774V12.108H71.3035C70.9919 12.108 70.7432 12.0451 70.5564 11.8583C70.4568 11.7606 70.3779 11.6438 70.3245 11.5149C70.2712 11.386 70.2444 11.2477 70.2457 11.1082C70.2457 10.7966 70.3696 10.6088 70.5564 10.4211C70.7432 10.2343 70.9929 10.1714 71.3035 10.1714H78.8986C79.2092 10.1094 79.4589 10.1714 79.6457 10.3581V10.3591ZM87.4265 20.2919C86.991 21.041 86.4307 21.6033 85.7455 21.9778C85.022 22.3812 84.2086 22.5962 83.3803 22.603C82.5083 22.603 81.6993 22.4162 81.0151 21.9778C80.3299 21.6042 79.7695 21.041 79.334 20.2919C78.8986 19.5418 78.7118 18.7298 78.7118 17.793C78.7118 16.8561 78.8986 16.0431 79.334 15.294C79.7695 14.545 80.3299 13.9826 81.0151 13.6081C81.6993 13.1706 82.5093 12.9829 83.3803 12.9829C84.2513 12.9829 84.9984 13.1706 85.7455 13.6081C86.4307 14.0456 87.053 14.6069 87.4265 15.294C87.862 16.0441 88.0488 16.8561 88.0488 17.793C88.0488 18.7298 87.862 19.5428 87.4265 20.2919ZM85.6216 16.2938C85.3719 15.8563 85.0613 15.4818 84.6877 15.294C84.3142 15.0443 83.8787 14.9205 83.3803 14.9205C82.8819 14.9205 82.4464 15.0443 82.0728 15.294C81.6993 15.5447 81.3886 15.8563 81.1389 16.2938C80.8902 16.7313 80.7654 17.2306 80.7654 17.793C80.7654 18.3553 80.8902 18.8546 81.1389 19.2921C81.3886 19.7296 81.6993 20.0422 82.0728 20.2919C82.4464 20.5416 82.8819 20.6664 83.3803 20.6664C83.8787 20.6664 84.3142 20.5416 84.6877 20.2919C85.0613 20.0422 85.3719 19.7296 85.6216 19.2921C85.8703 18.8546 85.9952 18.3553 85.9952 17.793C85.9952 17.2306 85.8703 16.7313 85.6216 16.2938ZM97.1381 13.2955C97.3249 13.4823 97.4487 13.733 97.4487 14.0456V18.605C97.4487 19.8544 97.1381 20.7913 96.4529 21.5413C95.7677 22.2904 94.7719 22.603 93.5273 22.603C92.2818 22.603 91.286 22.2285 90.6018 21.5413C89.9166 20.8532 89.605 19.8544 89.605 18.605V14.0456C89.605 13.733 89.7298 13.4833 89.9166 13.2955C90.1034 13.1087 90.3521 12.9829 90.6637 12.9829C90.9743 12.9829 91.224 13.1077 91.4108 13.2955C91.5976 13.4823 91.7215 13.733 91.7215 14.0456V18.605C91.7215 19.2931 91.8463 19.8544 92.1579 20.167C92.4686 20.4786 92.9051 20.6664 93.5273 20.6664C94.1496 20.6664 94.648 20.4796 94.9587 20.167C95.2703 19.8544 95.3951 19.2921 95.3951 18.605V14.0456C95.3951 13.733 95.519 13.4833 95.7058 13.2955C95.8926 13.1087 96.1422 12.9829 96.4529 12.9829C96.7016 13.0458 96.9513 13.1077 97.1381 13.2955ZM105.791 13.4823C106.413 13.7949 106.662 14.1704 106.662 14.6698C106.662 14.9195 106.6 15.1692 106.413 15.357C106.349 15.4475 106.265 15.5225 106.168 15.5764C106.071 15.6303 105.964 15.6618 105.853 15.6686C105.666 15.6686 105.542 15.6686 105.417 15.6066C105.292 15.5437 105.169 15.4818 105.106 15.4199C104.982 15.357 104.919 15.2321 104.795 15.2321C104.64 15.1542 104.47 15.1116 104.297 15.1073C104.048 15.0443 103.923 15.0443 103.736 15.0443C102.865 15.0443 102.18 15.294 101.745 15.8563C101.246 16.4186 100.998 17.1048 100.998 17.9178C100.998 18.7298 101.246 19.417 101.745 19.9793C102.242 20.5416 102.865 20.7913 103.612 20.7913C104.172 20.7913 104.608 20.7283 104.857 20.6045C104.919 20.5416 105.044 20.4786 105.169 20.4167C105.292 20.3538 105.417 20.2919 105.479 20.229C105.604 20.166 105.729 20.166 105.853 20.166C106.164 20.166 106.351 20.229 106.538 20.4167C106.725 20.6035 106.787 20.8532 106.787 21.1039C106.787 21.3536 106.6 21.6652 106.288 21.853C105.978 22.1026 105.542 22.2904 105.044 22.4153C104.493 22.546 103.929 22.6087 103.363 22.602C102.492 22.602 101.682 22.4153 101.059 21.9778C100.403 21.5602 99.8672 20.9792 99.5033 20.2919C99.1279 19.5347 98.936 18.6999 98.943 17.8549C98.943 16.918 99.1297 16.106 99.5033 15.357C99.8769 14.6069 100.437 14.0446 101.122 13.67C101.807 13.2326 102.616 13.0458 103.426 13.0458C104.421 13.0458 105.169 13.1706 105.791 13.4823ZM115.378 14.0456C115.813 14.7317 116 15.7315 116 16.918V21.4784C116 21.791 115.875 22.0407 115.688 22.2285C115.501 22.4153 115.253 22.5401 114.941 22.5401C114.63 22.5401 114.382 22.4153 114.195 22.2285C114.095 22.1309 114.016 22.0141 113.963 21.8853C113.909 21.7564 113.882 21.618 113.883 21.4784V16.918C113.883 16.2938 113.759 15.7944 113.51 15.4189C113.261 15.0453 112.825 14.8576 112.202 14.8576C111.58 14.8576 111.082 15.0443 110.708 15.4189C110.335 15.7944 110.148 16.2938 110.148 16.8561V21.4165C110.148 21.7281 110.024 21.9778 109.837 22.1656C109.65 22.3523 109.402 22.4782 109.09 22.4782C108.778 22.4782 108.53 22.3533 108.343 22.1656C108.243 22.0681 108.164 21.9515 108.111 21.8228C108.057 21.6941 108.03 21.5559 108.031 21.4165V11.1701C108.031 10.8585 108.156 10.6088 108.343 10.4211C108.53 10.2343 108.778 10.1084 109.09 10.1084C109.402 10.1084 109.65 10.2333 109.837 10.4211C110.024 10.6078 110.148 10.8585 110.148 11.1701V14.544C110.459 14.1065 110.833 13.7939 111.331 13.4823C111.796 13.1867 112.337 13.0345 112.888 13.0448C114.132 13.0448 114.941 13.3574 115.378 14.0446V14.0456Z" fill="white"/>
<path d="M21.0411 24.9132C20.9219 25.0156 20.8242 25.1406 20.7534 25.2809C20.6826 25.4211 20.6402 25.574 20.6286 25.7307C20.617 25.8874 20.6364 26.0449 20.6858 26.1941C20.7351 26.3433 20.8135 26.4812 20.9162 26.6001C21.0179 26.7195 21.1422 26.8176 21.282 26.8886C21.4218 26.9596 21.5743 27.0021 21.7307 27.0137C21.887 27.0254 22.0442 27.0058 22.1929 26.9562C22.3417 26.9067 22.4791 26.828 22.5973 26.7249C24.5889 25.1009 25.7096 22.6649 25.7096 20.1041C25.7096 15.356 21.8501 11.4827 17.1187 11.4827C12.3883 11.4827 8.52881 15.356 8.52881 20.1041C8.52785 21.3842 8.81238 22.6483 9.36166 23.8046C9.91095 24.9608 10.7112 25.9799 11.7041 26.7879C12.2015 27.2243 12.9486 27.0995 13.3841 26.6001C13.8196 26.1007 13.6957 25.3516 13.1973 24.9132C8.65268 21.2277 11.2057 13.7949 17.0568 13.7949C22.9089 13.9197 25.5228 21.2277 21.0411 24.9132ZM24.6508 30.723C27.888 28.3489 30.0045 24.5396 30.0045 20.2289C30.011 20.0696 29.9853 19.9106 29.9288 19.7614C29.8723 19.6123 29.7862 19.4761 29.6757 19.361C29.5653 19.246 29.4327 19.1544 29.286 19.0919C29.1393 19.0294 28.9814 18.9971 28.8219 18.9971C28.6624 18.9971 28.5046 19.0294 28.3579 19.0919C28.2111 19.1544 28.0786 19.246 27.9681 19.361C27.8577 19.4761 27.7716 19.6123 27.7151 19.7614C27.6586 19.9106 27.6328 20.0696 27.6393 20.2289C27.6393 23.7896 25.8964 26.9127 23.2195 28.8493C22.7211 29.2239 22.5973 29.9739 22.9708 30.4733C23.3444 30.9727 24.0915 31.0976 24.6518 30.723H24.6508Z" fill="#053CE6"/>
<path d="M12.2015 3.73729C11.5783 3.92505 11.2047 4.55027 11.3915 5.17451C11.5783 5.79973 12.2015 6.17427 12.8238 5.98651C22.2857 3.17498 31.7475 10.2343 31.7475 20.1041C31.7475 20.7283 32.2459 21.2906 32.9311 21.2906C33.5534 21.2906 34.1137 20.7913 34.1137 20.1041C34.0518 8.67318 23.0947 0.427353 12.2015 3.73827V3.73729Z" fill="#053CE6"/>
<path d="M25.2121 10.1094C16.8699 3.30081 4.1709 9.23451 4.1709 20.166C4.1709 27.3502 9.96107 33.16 17.1187 33.16C17.7419 33.16 18.3023 32.6596 18.3023 31.9725C18.3023 31.2853 17.8038 30.7859 17.1187 30.7859C11.2675 30.7859 6.53612 26.0378 6.53612 20.167C6.53612 11.234 16.9319 6.36203 23.7798 11.9212C24.2782 12.3586 25.0253 12.2338 25.4608 11.7344C25.8344 11.297 25.7725 10.5469 25.2121 10.1104V10.1094Z" fill="#053CE6"/>
<path d="M1.18261 19.1043C0.560339 19.1043 0 19.6037 0 20.2919C0 29.7233 7.65698 37.4068 17.0559 37.4068C21.0633 37.3956 24.9402 35.981 28.013 33.4087C28.5114 32.9722 28.5734 32.2222 28.1379 31.7228C28.0362 31.6034 27.9119 31.5053 27.7721 31.4343C27.6323 31.3633 27.4798 31.3207 27.3234 31.3091C27.1671 31.2975 27.0099 31.3171 26.8612 31.3666C26.7124 31.4162 26.575 31.4948 26.4568 31.5979C23.8419 33.8462 20.4799 35.0337 16.995 35.0337C8.83959 35.0337 2.24136 28.4119 2.24136 20.2289C2.36522 19.6037 1.80488 19.1043 1.18261 19.1043Z" fill="#053CE6"/>
</svg>
