<svg width="116" height="40" viewBox="0 0 116 40" fill="none" xmlns="http://www.w3.org/2000/svg">
<path d="M103.958 0H12.0542V40H103.958V0Z" fill="#1A212A"/>
<path d="M12.2929 15.4706C13.1635 16.3423 14.0341 17.2047 14.9011 18.08C15.5011 18.6882 16.0917 19.3106 16.6294 19.8612C15.6823 20.847 14.7152 21.8612 13.7352 22.867C13.2588 23.3553 12.7729 23.8341 12.2917 24.3176L10.9399 25.6353V14.1506C11.407 14.6047 11.8494 15.0412 12.2929 15.4717V15.4706ZM103.74 24.3659C103.125 23.747 102.509 23.1294 101.892 22.5129C101.059 21.6847 100.231 20.8576 99.3929 20.0341C99.2823 19.9282 99.2776 19.8753 99.3929 19.7659C100.811 18.3682 102.22 16.96 103.634 15.5576C103.672 15.52 103.705 15.4765 103.743 15.4329L105.058 14.1553V25.6541C104.596 25.1988 104.167 24.7823 103.74 24.3659Z" fill="#F8E107"/>
<path d="M19.7952 27.8706C19.7952 25.5 19.7952 23.1306 19.7905 20.7612C19.7905 20.5788 19.8329 20.5259 20.0188 20.5259C22.9129 20.5318 25.8129 20.5318 28.707 20.5259C28.8599 20.5259 28.9458 20.5647 29.0258 20.7035C29.4882 21.5224 29.6882 22.3929 29.6835 23.3318C29.6741 25.5906 29.6882 27.8459 29.6929 30.1047C29.6929 30.6753 29.6258 31.2341 29.4505 31.7753C28.8835 33.5471 27.1411 35.2271 24.8505 35.2318C23.2423 35.2365 21.627 35.2271 20.0188 35.2365C19.8235 35.2365 19.7905 35.18 19.7905 34.9976C19.7999 32.6282 19.7999 30.2494 19.7952 27.8694C19.7999 27.8694 19.7952 27.8694 19.7952 27.8694V27.8706ZM23.0941 26.7212H23.0894C23.0894 28.3718 23.0941 30.0235 23.0846 31.6753C23.0846 31.8471 23.1176 31.9106 23.3035 31.9C23.7176 31.8859 24.127 31.8953 24.5411 31.8953C24.7411 31.8953 24.9364 31.9094 25.1317 31.8529C25.8846 31.6412 26.3599 31 26.3646 30.1824C26.3694 28.9518 26.3694 27.7259 26.3741 26.4953C26.3741 25.4329 26.3835 24.3753 26.3788 23.3129C26.3741 22.2541 25.6846 21.56 24.6376 21.56C24.1988 21.56 23.7658 21.5694 23.327 21.5553C23.1423 21.5506 23.0894 21.5988 23.0894 21.7906C23.0988 23.4376 23.0941 25.0788 23.0941 26.72V26.7212ZM19.7952 11.9C19.7952 9.53059 19.7999 7.16118 19.7905 4.79176C19.7905 4.59059 19.8376 4.54706 20.0329 4.54706C21.4941 4.55647 22.9505 4.55176 24.4129 4.55176C25.5955 4.55169 26.7391 4.97434 27.6374 5.74343C28.5358 6.51253 29.1296 7.57741 29.3117 8.74588C29.3646 9.06118 29.3646 9.38235 29.3646 9.69882C29.3646 11.9576 29.3694 14.2129 29.3741 16.4718C29.3741 17.4047 29.1646 18.2859 28.6788 19.0906C28.6023 19.2153 28.5258 19.2624 28.3788 19.2624C25.5846 19.2576 22.7941 19.2576 19.9999 19.2671C19.7952 19.2671 19.7952 19.1859 19.7952 19.0318V11.9ZM23.0611 13.0729C23.0658 13.0729 23.0658 13.0729 23.0611 13.0729C23.0658 14.7106 23.0705 16.3435 23.0564 17.9788C23.0564 18.2 23.1129 18.2482 23.3176 18.2376C23.6317 18.2188 23.9517 18.2329 24.2705 18.2329C25.3364 18.2329 26.0317 17.5388 26.0317 16.4718C26.0317 15.72 26.027 14.9729 26.027 14.2224C26.027 12.7141 26.0176 11.2059 26.0223 9.69765C26.027 8.62706 25.3846 8.00823 24.6176 7.91294C24.1799 7.85529 23.7317 7.90353 23.2846 7.88353C23.0988 7.87412 23.047 7.92706 23.047 8.11882C23.0658 9.77529 23.0611 11.4212 23.0611 13.0729Z" fill="#FDFDFD"/>
<path d="M76.2728 25.7212C76.2728 27.3094 76.2927 28.8941 76.268 30.4835C76.2351 33.0247 73.8833 35.5576 70.8363 35.2129C68.2516 34.9212 66.4186 32.8153 66.428 30.2012C66.4422 27.0565 66.4375 23.9165 66.4327 20.7706C66.4327 20.5412 66.4892 20.4835 66.7186 20.4835C67.6327 20.4976 68.5422 20.4976 69.4563 20.4835C69.6563 20.4788 69.7033 20.5365 69.7033 20.7329C69.6939 23.8682 69.6939 27.0035 69.6939 30.1388C69.6939 31.0094 70.1551 31.6423 70.9316 31.8529C71.8786 32.1071 72.8928 31.4082 72.988 30.4259C72.9975 30.3165 72.9975 30.2023 72.9975 30.0918C72.9975 26.98 73.0022 23.8682 72.9975 20.7565C72.9975 20.5365 73.0551 20.4788 73.2739 20.4835C74.1928 20.4976 75.1163 20.4929 76.0351 20.4835C76.2398 20.4788 76.3022 20.5271 76.3022 20.7423C76.2927 22.4035 76.2975 24.06 76.2975 25.7212H76.2739H76.2728ZM66.4575 14.0835C66.4575 12.5035 66.4375 10.9247 66.461 9.3447C66.4951 7.10352 68.208 5.07882 70.3939 4.64823C71.617 4.39475 72.8906 4.61582 73.9567 5.26662C75.0228 5.91742 75.8016 6.94925 76.1351 8.15293C76.2786 8.65058 76.321 9.16705 76.3163 9.6894C76.3069 11.6035 76.3069 13.5188 76.3069 15.4329C76.3069 16.6153 76.2975 17.7929 76.3069 18.9753C76.3069 19.1965 76.2398 19.2341 76.0398 19.2341C75.1116 19.2247 74.1833 19.2247 73.2551 19.2341C73.0551 19.2341 73.008 19.1812 73.008 18.9859C73.0175 15.8976 73.0175 12.8094 73.0222 9.72235C73.0222 9.14352 72.8739 8.62587 72.4069 8.25764C71.8739 7.83646 71.2786 7.75529 70.6657 8.05176C70.0316 8.35764 69.708 8.89411 69.708 9.60705C69.7033 11.2588 69.7033 12.9106 69.7033 14.5623C69.7033 16.0365 69.6986 17.5153 69.708 18.9906C69.708 19.1906 69.6551 19.2388 69.461 19.2388C68.5402 19.2269 67.6194 19.2269 66.6986 19.2388C66.4751 19.2435 66.4422 19.1682 66.4469 18.9659C66.4563 17.3388 66.4516 15.7106 66.4516 14.0835H66.4563H66.4575ZM57.568 20.4882H57.8492C59.4916 20.4882 61.1339 20.4929 62.7763 20.4835C62.9386 20.4835 63.0375 20.5306 63.1327 20.6553C63.8327 21.5847 64.2422 22.6318 64.4186 23.7765C64.6375 25.1882 64.4892 26.6118 64.5186 28.0271C64.5328 28.8176 64.5469 29.607 64.5045 30.3976C64.3904 32.4941 63.3622 34.0306 61.4622 34.8447C58.5575 36.0941 55.5398 34.3271 54.8116 31.56C54.6974 31.1276 54.6444 30.6813 54.6539 30.2341C54.6633 29.5259 54.6633 28.8129 54.6586 28.1047C54.6586 27.9365 54.7022 27.8894 54.868 27.8929C55.8304 27.9035 56.7869 27.9035 57.7492 27.8929C57.9386 27.8929 57.968 27.9553 57.9586 28.1235C57.9334 28.7852 57.9177 29.4473 57.9116 30.1094C57.9057 30.7565 58.1245 31.2976 58.6963 31.6506C59.7575 32.3071 61.1857 31.5847 61.2139 30.3306C61.248 28.7365 61.3045 27.1376 61.1669 25.5482C61.0433 24.0741 60.4104 22.8341 59.2528 21.8859C58.7057 21.4459 58.168 20.9918 57.568 20.4882ZM61.5575 19.1906C61.4622 19.2529 61.381 19.2294 61.3104 19.2294C59.6822 19.2294 58.0586 19.2294 56.4304 19.2341C56.3568 19.2386 56.2832 19.2237 56.2172 19.1909C56.1511 19.1581 56.0948 19.1085 56.0539 19.0471C55.3633 18.1094 54.9833 17.0518 54.8069 15.9071C54.6492 14.9071 54.721 13.9012 54.7163 12.9012C54.7116 11.68 54.6975 10.46 54.7445 9.23882C54.8304 7.03176 56.5304 5.07411 58.6775 4.64823C59.8842 4.39788 61.1409 4.61032 62.1983 5.24341C63.2557 5.87649 64.0365 6.88395 64.3857 8.06588C64.5328 8.55411 64.5951 9.06235 64.5904 9.57411C64.581 10.2776 64.5751 10.9765 64.581 11.68C64.581 11.8282 64.5516 11.8859 64.3857 11.8859C63.4092 11.8765 62.4327 11.8812 61.4563 11.8859C61.3104 11.8859 61.2716 11.8435 61.2716 11.6988C61.2763 10.9482 61.2904 10.2012 61.2669 9.4494C61.2593 9.03907 61.0929 8.64768 60.8026 8.35759C60.5123 8.0675 60.1207 7.90135 59.7104 7.89411C58.8292 7.87411 58.068 8.51646 58.0245 9.40117C57.9775 10.3882 57.9963 11.3776 57.9869 12.3694C57.9822 13.0541 57.9586 13.7388 58.0633 14.4235C58.2775 15.8882 58.9622 17.0706 60.1104 17.9941C60.5998 18.3776 61.0716 18.7835 61.5575 19.1906Z" fill="#F8E107"/>
<path d="M32.0634 27.8412C32.0634 25.4718 32.0681 23.1024 32.0587 20.7318C32.0587 20.5318 32.1116 20.4836 32.3058 20.4836C35.0058 20.4883 37.7011 20.4883 40.3999 20.4836C40.6046 20.4836 40.6575 20.5412 40.6375 20.7365C40.6193 20.9439 40.6177 21.1524 40.6328 21.36C40.6469 21.5318 40.5858 21.5694 40.4187 21.5659C38.8152 21.5553 37.2152 21.5659 35.6105 21.5553C35.4152 21.5553 35.3587 21.5988 35.3587 21.8C35.3634 25.0788 35.3634 28.3577 35.354 31.6365C35.354 31.8377 35.3916 31.9 35.6058 31.9C37.2105 31.8953 38.8093 31.9094 40.414 31.9047C40.6093 31.9047 40.6469 31.9636 40.6469 32.1447C40.6281 33.1165 40.6187 34.093 40.614 35.0647C40.614 35.1941 40.5858 35.2412 40.4481 35.2412C37.7105 35.2365 34.9728 35.2318 32.2352 35.2412C32.0211 35.2412 32.0587 35.1224 32.0587 35.0024C32.0587 32.6141 32.0587 30.2259 32.0634 27.8412C32.0634 27.8412 32.0587 27.8412 32.0634 27.8412Z" fill="#FDFDFD"/>
<path d="M78.5166 11.8718C78.5166 9.51646 78.5201 7.16587 78.5107 4.81058C78.5107 4.6047 78.5495 4.54234 78.7683 4.54823C81.486 4.55764 84.2095 4.55293 86.9283 4.54823C87.1236 4.54823 87.1801 4.59058 87.1754 4.79176C87.1619 5.74895 87.1603 6.70628 87.1707 7.66352C87.1707 7.8647 87.1048 7.89411 86.9283 7.89411C85.3095 7.8894 83.6907 7.89881 82.0719 7.8894C81.8672 7.8894 81.8295 7.94705 81.8295 8.14234C81.8342 11.4223 81.8342 14.7012 81.8248 17.9753C81.8248 18.1859 81.8719 18.2388 82.086 18.2388C83.6954 18.2294 85.3048 18.2341 86.9189 18.2247C87.1142 18.2247 87.1848 18.2718 87.166 18.4729C87.1493 18.6561 87.1493 18.8404 87.166 19.0235C87.1801 19.1953 87.1189 19.2353 86.9519 19.2353C85.8813 19.2294 84.8107 19.2294 83.7389 19.2294C82.086 19.2294 80.4389 19.2247 78.7872 19.2341C78.5636 19.2341 78.4966 19.1906 78.4966 18.9518C78.506 16.5918 78.5013 14.2318 78.5013 11.867L78.5154 11.8718H78.5166Z" fill="#F8E107"/>
<path d="M32.0695 11.8859C32.0695 9.52588 32.0695 7.16118 32.0636 4.80118C32.0636 4.61412 32.093 4.54706 32.3024 4.54706C35.0013 4.55647 37.6954 4.55647 40.3954 4.55176C40.5954 4.55176 40.6236 4.61882 40.6189 4.79176C40.6095 5.74941 40.6095 6.70588 40.6142 7.66353C40.6142 7.85059 40.5718 7.90353 40.3813 7.89882C38.7766 7.88823 37.1766 7.89412 35.573 7.88823C35.3918 7.88823 35.3342 7.92706 35.3342 8.11882C35.3389 11.4129 35.3389 14.7059 35.3295 18.0035C35.3295 18.2047 35.3918 18.2329 35.573 18.2329C37.1813 18.2282 38.7966 18.2329 40.4048 18.2235C40.6048 18.2235 40.6813 18.2765 40.6471 18.4729C40.6377 18.5494 40.6424 18.6306 40.6424 18.7118C40.6377 19.2247 40.6377 19.2247 40.1189 19.2247C37.5154 19.2247 34.9154 19.22 32.3118 19.2294C32.0883 19.2294 32.0542 19.1624 32.0542 18.9612C32.0589 16.6012 32.0589 14.2365 32.0589 11.8765C32.0636 11.8859 32.0683 11.8859 32.0683 11.8859H32.0695Z" fill="#FDFDFD"/>
<path d="M95.0115 13.5765C95.0115 15.38 95.0068 17.18 95.0162 18.9847C95.0162 19.1859 94.9645 19.2388 94.7645 19.2341C93.8221 19.2247 92.8739 19.2247 91.9315 19.2341C91.7315 19.2388 91.6845 19.1812 91.6845 18.9847C91.6892 15.38 91.6892 11.7753 91.6986 8.17177C91.6986 7.93648 91.6362 7.88354 91.4127 7.88942C90.475 7.90354 89.5421 7.89412 88.6033 7.89883C88.4374 7.89883 88.3892 7.8553 88.3892 7.68707C88.3986 6.70707 88.4033 5.72471 88.3939 4.74354C88.3939 4.58118 88.4468 4.55295 88.5939 4.55295C91.6644 4.55765 94.735 4.55765 97.8021 4.55295C97.9633 4.55295 97.9974 4.60001 97.9974 4.75295C97.988 5.7353 97.9821 6.71648 97.988 7.69765C97.988 7.8553 97.9445 7.89765 97.788 7.89765C96.9409 7.89412 96.088 7.90354 95.2409 7.89412C95.055 7.89412 95.0021 7.93648 95.0021 8.12824C95.0162 9.94236 95.0162 11.7612 95.0115 13.5753V13.5765Z" fill="#F8E107"/>
<path d="M49.5226 13.5529C49.5226 15.3612 49.5179 17.1706 49.5274 18.98C49.5274 19.1765 49.4803 19.2341 49.2803 19.2294C48.3439 19.2175 47.4073 19.2175 46.4709 19.2294C46.2521 19.2341 46.2179 19.1624 46.2179 18.9612C46.2274 15.3565 46.2226 11.7518 46.2321 8.14706C46.2321 7.94706 46.1991 7.87883 45.9803 7.88471C45.0274 7.89883 44.0756 7.88942 43.1238 7.89412C42.9709 7.89412 42.9238 7.8553 42.9238 7.69765C42.9332 6.71648 42.9379 5.7353 42.9285 4.75295C42.9285 4.58118 42.985 4.54824 43.1427 4.54824C46.1897 4.55295 49.2321 4.54824 52.2791 4.54236C52.445 4.54236 52.5121 4.56236 52.5074 4.75883C52.4932 5.72471 52.4885 6.68824 52.4932 7.65412C52.4932 7.84118 52.4403 7.89412 52.2497 7.88942C51.4168 7.88001 50.5838 7.89412 49.7509 7.88471C49.565 7.88471 49.5121 7.92706 49.5121 8.11883C49.5321 9.93295 49.5274 11.7424 49.5226 13.5518C49.5274 13.5518 49.5274 13.5518 49.5226 13.5518V13.5529Z" fill="#FDFDFD"/>
<path d="M78.5109 27.8412C78.5109 25.4718 78.5168 23.1023 78.5062 20.7376C78.5062 20.5412 78.5532 20.4882 78.7532 20.4882C81.4826 20.4929 84.2097 20.4929 86.9379 20.4882C87.1144 20.4882 87.1956 20.5212 87.1768 20.7176C87.1601 20.9251 87.1601 21.1337 87.1768 21.3412C87.1909 21.5223 87.1332 21.5647 86.9532 21.5647C85.3721 21.56 83.7956 21.5647 82.2156 21.5647C81.8485 21.5647 81.8485 21.5647 81.8485 21.9247C81.8438 26.2706 81.8344 30.6176 81.8391 34.9635C81.8391 35.1988 81.7768 35.2518 81.5532 35.2459C80.6093 35.2339 79.6653 35.2339 78.7215 35.2459C78.5403 35.2459 78.5015 35.1941 78.5015 35.0223C78.5109 32.6223 78.5109 30.2341 78.5109 27.8412ZM91.6932 27.8412C91.6932 25.4718 91.6991 23.1023 91.6897 20.7329C91.6897 20.5365 91.7368 20.4835 91.9368 20.4835C92.8744 20.4929 93.8074 20.4929 94.7462 20.4835C94.9556 20.4788 95.0215 20.527 95.0215 20.7518C95.0132 24.5188 95.0132 28.2812 95.0132 32.0494C95.0132 33.04 95.0074 34.0259 95.0179 35.0165C95.0179 35.1929 94.9744 35.2423 94.7944 35.2423C93.8415 35.2318 92.8885 35.2318 91.9368 35.2423C91.7415 35.2423 91.6897 35.1988 91.6897 34.9976C91.6944 32.6141 91.6897 30.2247 91.6944 27.8412H91.6932Z" fill="#F8E107"/>
<path d="M49.5127 27.8894C49.5127 30.2588 49.508 32.6282 49.5174 34.9977C49.5174 35.2035 49.4598 35.2412 49.2704 35.2412C48.3268 35.2318 47.3798 35.2318 46.4374 35.2412C46.2751 35.2412 46.208 35.2224 46.208 35.0259C46.2174 30.2494 46.2221 25.4718 46.2174 20.6941C46.2174 20.5271 46.2609 20.4824 46.4268 20.4824C47.3892 20.4929 48.3457 20.4929 49.308 20.4824C49.4939 20.4824 49.5268 20.5412 49.5268 20.7082C49.5221 23.1024 49.5221 25.4965 49.5221 27.8894H49.5127Z" fill="#FDFDFD"/>
<path d="M23.0955 26.7212C23.0955 25.0788 23.099 23.4318 23.0896 21.7906C23.0896 21.5988 23.1425 21.5506 23.3284 21.5553C23.7661 21.5706 24.199 21.5612 24.6378 21.5612C25.6849 21.5612 26.379 22.2494 26.379 23.313C26.3849 24.3753 26.3755 25.433 26.3755 26.4965C26.3708 27.7259 26.3708 28.9518 26.3661 30.1824C26.3602 31 25.8837 31.6412 25.1319 31.853C24.9378 31.9047 24.7378 31.8906 24.5425 31.8953C24.1284 31.9 23.719 31.8859 23.3037 31.9C23.119 31.9106 23.0849 31.8482 23.0849 31.6765C23.0896 30.0235 23.0896 28.373 23.0896 26.7212H23.0955ZM23.0613 13.073C23.0613 11.4212 23.0661 9.7706 23.0566 8.11884C23.0566 7.92707 23.1084 7.87413 23.2943 7.88354C23.7378 7.90354 24.1896 7.85531 24.6272 7.91295C25.3943 8.01295 26.0366 8.6259 26.0319 9.69884C26.0272 11.2059 26.0319 12.7141 26.0366 14.2224C26.0366 14.9741 26.0413 15.72 26.0413 16.4718C26.0366 17.5388 25.3413 18.2282 24.2802 18.233C23.9613 18.233 23.6472 18.2188 23.3272 18.2388C23.1225 18.253 23.0613 18.2 23.0661 17.98C23.0708 16.3424 23.0661 14.7094 23.0613 13.0741C23.0661 13.0741 23.0661 13.0741 23.0613 13.0741V13.073Z" fill="#010100"/>
</svg>
