<svg width="116" height="40" viewBox="0 0 116 40" fill="none" xmlns="http://www.w3.org/2000/svg">
<path d="M73.4858 21.6789V16.4975V16.3699C73.4819 16.3042 73.4983 16.2636 73.5757 16.2733C73.6047 16.2771 73.6366 16.2733 73.6685 16.2733H78.2495C78.4235 16.2733 78.4235 16.2733 78.4815 16.4279L81.4366 24.2995L81.4753 24.402C81.4917 24.4503 81.511 24.4948 81.5768 24.4841C81.6415 24.4716 81.6174 24.4184 81.6174 24.3817C81.6154 24.0607 81.6125 23.7379 81.6077 23.415C81.599 22.6871 81.5884 21.9563 81.5768 21.2284C81.5574 19.9563 81.5362 18.688 81.5188 17.4159C81.512 17.0775 81.514 16.7353 81.5053 16.3951C81.5033 16.2965 81.5362 16.2752 81.6309 16.2752C82.5173 16.2781 83.4047 16.2771 84.2892 16.2771C84.4149 16.2771 84.4149 16.28 84.4178 16.4125V26.867C84.4178 27.1096 84.4545 27.0845 84.2071 27.0845H79.6251C79.3912 27.0845 79.4463 27.1077 79.3728 26.9047C78.3868 24.255 77.4046 21.6054 76.4215 18.9548C76.409 18.92 76.3935 18.8871 76.3848 18.8523C76.3693 18.7963 76.3365 18.7692 76.2775 18.7779C76.2166 18.7885 76.2292 18.8398 76.2292 18.8804C76.2331 19.1897 76.2408 19.501 76.2446 19.8093C76.2533 20.4667 76.263 21.123 76.2736 21.7804L76.3626 26.923C76.3665 27.0845 76.3674 27.0864 76.2079 27.0864H73.6753C73.4597 27.0864 73.4887 27.1096 73.4887 26.9027C73.4848 25.1569 73.4848 23.4189 73.4848 21.6779L73.4858 21.6789ZM51.933 21.676V16.4946C51.933 16.4444 51.9349 16.398 51.933 16.3477C51.931 16.2965 51.9494 16.2675 52.0064 16.2704C52.0441 16.2733 52.0809 16.2704 52.1176 16.2704C54.0635 16.2704 56.0075 16.2675 57.9534 16.2733C58.5755 16.2708 59.1934 16.3765 59.7794 16.5855C60.4909 16.8426 60.9133 17.3356 61.0554 18.0606C61.2197 18.9026 61.1888 19.7397 60.9355 20.5672C60.834 20.8959 60.6262 21.1259 60.3236 21.2845C60.0994 21.3982 59.8602 21.4796 59.6131 21.5262C59.5706 21.5349 59.5281 21.5426 59.4875 21.5551C59.472 21.56 59.4556 21.5764 59.4536 21.5919C59.4478 21.6209 59.473 21.6305 59.4981 21.6354C59.6818 21.6624 59.8625 21.6885 60.0414 21.7417C60.1477 21.7726 60.2521 21.8094 60.3536 21.8529C60.7181 22.0075 60.9636 22.2724 61.1115 22.634C61.2226 22.9085 61.2864 23.1917 61.3106 23.4837C61.3686 24.1797 61.3386 24.8679 61.1424 25.5436C61.1076 25.6664 61.0554 25.7824 61.0042 25.8993C60.8341 26.2763 60.5537 26.5441 60.1767 26.7181C59.7639 26.9076 59.3241 26.9888 58.8775 27.0391C58.515 27.0796 58.1525 27.0816 57.789 27.0816H52.1379C51.9368 27.0816 51.9368 27.0816 51.9368 26.8767C51.933 25.1415 51.933 23.4082 51.933 21.676ZM56.2105 22.6214V22.6146H55.0118C54.8707 22.6146 54.8687 22.6156 54.8687 22.7528V24.5392C54.8687 24.7055 54.8639 24.6978 55.0302 24.6978C55.7117 24.6978 56.3951 24.6997 57.0776 24.6959C57.3543 24.6943 57.6298 24.6596 57.8983 24.5924C57.9949 24.5729 58.0845 24.5281 58.1581 24.4625C58.2316 24.3969 58.2864 24.313 58.3168 24.2193C58.4515 23.8307 58.4491 23.4077 58.3101 23.0206C58.2856 22.9479 58.2433 22.8826 58.1871 22.8304C58.1308 22.7782 58.0625 22.7409 57.9882 22.7219C57.789 22.6596 57.582 22.6257 57.3734 22.6214C56.9867 22.6175 56.5991 22.6214 56.2105 22.6214ZM56.2269 18.6774H55.0263C54.8504 18.6774 54.8687 18.6774 54.8687 18.8369C54.8687 19.3231 54.8668 19.8103 54.8707 20.2965C54.8707 20.3913 54.8262 20.5102 54.8929 20.5769C54.9606 20.6445 55.0814 20.602 55.1781 20.602C55.7059 20.6049 56.2366 20.5962 56.7653 20.6107C57.1133 20.6204 57.4517 20.5865 57.789 20.5044C57.8888 20.4856 57.9806 20.4373 58.0526 20.3658C58.1247 20.2943 58.1736 20.2028 58.1931 20.1032C58.2733 19.7767 58.2633 19.4346 58.1641 19.1133C58.1386 19.0247 58.0904 18.9442 58.0243 18.8798C57.9582 18.8153 57.8764 18.7693 57.7871 18.746C57.6215 18.697 57.4493 18.6742 57.2767 18.6783C56.9287 18.6764 56.5788 18.6764 56.2269 18.6764V18.6774ZM101.608 27.0719C101.575 27.0043 101.592 26.9366 101.59 26.8718C101.581 26.3595 101.606 25.85 101.573 25.3387C101.558 25.1503 101.512 24.9658 101.437 24.7925C101.314 24.4948 101.085 24.3324 100.777 24.2686C100.651 24.2417 100.522 24.2284 100.393 24.229C99.7085 24.2309 99.0251 24.2289 98.3436 24.2309C98.1841 24.2309 98.1841 24.2328 98.1841 24.3875V26.9221C98.1841 27.0941 98.1986 27.0777 98.0256 27.0777H95.403C95.2309 27.0777 95.2483 27.0941 95.2483 26.9192V16.427V16.3545C95.2425 16.2936 95.2648 16.2626 95.3315 16.2684C95.3682 16.2723 95.4049 16.2684 95.4417 16.2684C97.2455 16.2684 99.0493 16.2646 100.854 16.2704C101.513 16.2678 102.17 16.35 102.808 16.5149C103.787 16.773 104.344 17.3994 104.533 18.369C104.646 18.9461 104.683 19.5271 104.665 20.1109C104.656 20.6156 104.589 21.1174 104.464 21.6064C104.36 21.9979 104.127 22.2734 103.78 22.4706C103.473 22.6446 103.14 22.7519 102.8 22.8379C102.771 22.8456 102.739 22.8485 102.712 22.8602C102.671 22.8766 102.599 22.8582 102.609 22.9327C102.617 23.0061 102.684 22.9781 102.726 22.9839C102.893 23.0003 103.055 23.0274 103.217 23.0699C103.969 23.2671 104.389 23.762 104.533 24.5054C104.576 24.721 104.585 24.9404 104.587 25.1589C104.591 25.7486 104.589 26.3382 104.589 26.9289C104.589 27.0738 104.587 27.0767 104.456 27.0767H101.686C101.656 27.0787 101.632 27.0729 101.608 27.0709V27.0719ZM98.1822 20.2598V21.5919C98.1822 21.7465 98.1841 21.7485 98.3436 21.7485H100.596C100.712 21.7485 100.829 21.7378 100.945 21.7214C101.3 21.6731 101.503 21.4797 101.577 21.1327C101.63 20.8768 101.656 20.6159 101.654 20.3545C101.654 19.9969 101.642 19.6392 101.531 19.2912C101.503 19.1972 101.453 19.1116 101.384 19.0422C101.315 18.9728 101.229 18.9218 101.135 18.8939C100.919 18.8244 100.692 18.7898 100.464 18.7914C99.7511 18.7866 99.0377 18.7818 98.3243 18.7789C98.1841 18.7789 98.1822 18.7789 98.1822 18.9142V20.2598ZM105.822 21.9476C105.822 21.4546 105.805 20.9616 105.826 20.4705C105.852 19.8451 105.901 19.2206 106.075 18.6126C106.144 18.3709 106.235 18.1418 106.356 17.9205C106.634 17.3956 107.094 16.9903 107.65 16.7808C108.582 16.4224 109.571 16.2351 110.569 16.2278C111.192 16.2201 111.812 16.2298 112.432 16.3081C112.932 16.366 113.425 16.4768 113.902 16.6387C114.79 16.9451 115.371 17.5377 115.655 18.4241C115.804 18.8978 115.9 19.3782 115.943 19.8693C116.037 20.9577 116.006 22.0443 115.9 23.1289C115.831 23.8863 115.676 24.6333 115.436 25.3551C115.229 25.9622 114.824 26.3692 114.254 26.636C113.799 26.8477 113.317 26.9646 112.823 27.0391C111.709 27.2073 110.589 27.1879 109.47 27.1038C108.844 27.051 108.23 26.9067 107.646 26.6756C107.34 26.5645 107.059 26.3934 106.821 26.1722C106.582 25.9511 106.39 25.6845 106.256 25.388C106.038 24.9182 105.904 24.4141 105.858 23.8983C105.794 23.2507 105.813 22.5982 105.822 21.9476ZM112.988 21.5474V20.6001C112.988 20.3487 112.959 20.1032 112.912 19.8557C112.787 19.1752 112.528 18.8958 111.899 18.7663C111.87 18.7605 111.838 18.7566 111.809 18.7518C111.349 18.6841 110.889 18.7035 110.427 18.7363C110.132 18.7535 109.84 18.8077 109.558 18.8978C109.431 18.9346 109.316 19.0039 109.225 19.0986C109.133 19.1934 109.068 19.3104 109.035 19.4381C108.963 19.6895 108.919 19.9476 108.891 20.2066C108.797 21.0621 108.801 21.9205 108.823 22.777C108.834 23.2023 108.887 23.6238 109.033 24.0317C109.097 24.2121 109.224 24.3628 109.392 24.4551C109.499 24.517 109.614 24.5615 109.732 24.5924C110 24.6649 110.277 24.6929 110.555 24.6939C111.053 24.6997 111.55 24.6765 112.035 24.5354C112.436 24.4204 112.687 24.1671 112.805 23.7737C112.89 23.4933 112.941 23.2062 112.953 22.9133C112.969 22.5141 112.973 22.1139 112.988 21.5474ZM29.0017 21.6537V16.4724C29.0017 16.2443 28.9708 16.2733 29.2105 16.2733C30.0554 16.2713 30.8983 16.2733 31.7432 16.2733C31.7847 16.2733 31.8302 16.2752 31.8717 16.2733C31.9278 16.2713 31.9481 16.2984 31.9462 16.3516C31.9442 16.3931 31.9462 16.4376 31.9462 16.4792V20.1283C31.9462 20.1651 31.9491 20.2018 31.9462 20.2376C31.9326 20.3362 31.979 20.3584 32.0728 20.3584C33.2483 20.3545 34.4257 20.3565 35.6011 20.3565C35.7452 20.3565 35.7461 20.3545 35.7461 20.2018V18.9432V16.4434C35.7461 16.253 35.7307 16.2752 35.9114 16.2752H38.4982C38.707 16.2752 38.6829 16.2462 38.6829 16.4589V26.9318C38.6829 27.0864 38.7003 27.0796 38.535 27.0796H35.8931C35.7287 27.0796 35.7452 27.0855 35.7452 26.9318V23.0457C35.7452 22.8137 35.7732 22.8408 35.5402 22.8408H32.1221C31.923 22.8408 31.9452 22.8147 31.9452 23.0148V26.8641C31.9452 26.9057 31.9433 26.9501 31.9452 26.9917C31.9481 27.0526 31.9278 27.0855 31.8621 27.0787H29.0723C29.0172 27.0816 28.9969 27.0526 28.9998 27.0014C29.0017 26.9588 28.9998 26.9143 28.9998 26.8728C29.0017 25.1328 29.0017 23.3937 29.0017 21.6528V21.6537ZM72.7144 27.0796H69.8869C69.7119 27.0796 69.737 27.1125 69.68 26.9221C69.5196 26.4001 69.361 25.8762 69.1967 25.3561C69.1425 25.1879 69.1773 25.2169 69.013 25.2169C67.8066 25.2149 66.5993 25.2169 65.3929 25.2169C65.243 25.2169 65.243 25.2169 65.2005 25.3667L64.7664 26.9095C64.7181 27.0796 64.7181 27.0796 64.5518 27.0796H61.6818C61.6654 27.01 61.6982 26.9559 61.7147 26.9027C62.5015 24.3034 63.2903 21.705 64.0801 19.1056L64.8892 16.4376C64.9395 16.2733 64.9395 16.2733 65.1115 16.2733H69.2295C69.3871 16.2733 69.389 16.2733 69.4316 16.4134L72.6892 26.9868C72.695 27.0081 72.7008 27.0323 72.7153 27.0796H72.7144ZM65.8646 23.1182H68.5751L67.2537 18.6203C67.244 18.5855 67.2295 18.5527 67.2189 18.5179C67.2169 18.514 67.2073 18.5121 67.2024 18.5121C67.1783 18.5101 67.2024 18.5304 67.1831 18.5101C66.7452 20.0394 66.3073 21.5658 65.8646 23.1182ZM50.8329 27.0796H48.0122C47.8401 27.0796 47.8614 27.1164 47.8024 26.925L47.3239 25.3735C47.2756 25.215 47.2756 25.215 47.117 25.215H43.5152C43.3635 25.215 43.3635 25.215 43.3219 25.3629C43.1701 25.8945 43.0184 26.4262 42.8705 26.9588C42.8482 27.0371 42.826 27.0816 42.7284 27.0816C41.7752 27.0777 40.8192 27.0796 39.8661 27.0796C39.8419 27.0796 39.8177 27.0816 39.7897 27.0526L40.1338 25.911C41.087 22.7654 42.0449 19.6208 43 16.4743C43.0126 16.4337 43.029 16.3931 43.0367 16.3516C43.0464 16.2936 43.0773 16.2675 43.1363 16.2713C43.174 16.2733 43.2107 16.2713 43.2475 16.2713H47.3297C47.5086 16.2713 47.5085 16.2713 47.5617 16.4453C48.6473 19.9621 49.7299 23.4817 50.8146 26.9994C50.8203 27.0188 50.8223 27.0361 50.8339 27.0796H50.8329ZM45.3451 18.5063L45.3065 18.5053L43.987 23.1182H46.6956C46.2451 21.5745 45.7937 20.0404 45.3451 18.5072V18.5063ZM85.8475 16.2723H93.5722C93.808 16.2723 93.7732 16.2433 93.7751 16.4772C93.7771 17.1462 93.7751 17.8161 93.7751 18.485C93.7751 18.659 93.7993 18.6532 93.6089 18.6532H89.0095C88.7543 18.6532 88.7891 18.6203 88.7891 18.8794C88.7871 19.3901 88.7871 19.9009 88.7891 20.4116C88.7891 20.6126 88.764 20.602 88.9747 20.602H93.3169C93.4465 20.602 93.4484 20.603 93.4484 20.7315V22.4464C93.4484 22.6291 93.4552 22.6146 93.2783 22.6146H89.0482C88.7891 22.6146 88.7891 22.6146 88.7891 22.8737V24.5151C88.7891 24.7219 88.7746 24.6959 88.9824 24.6959H93.6736C93.9056 24.6959 93.8766 24.6727 93.8766 24.9027C93.8786 25.5784 93.8766 26.2522 93.8766 26.9279C93.8766 27.0758 93.8747 27.0777 93.7268 27.0777H86.0041C85.8533 27.0777 85.8514 27.0758 85.8514 26.9134V23.1366V16.4937C85.8475 16.4299 85.8475 16.3641 85.8475 16.2733V16.2723ZM115.738 15.6053C115.722 15.585 115.73 15.5628 115.73 15.5425L115.747 14.8658C115.722 14.8726 115.724 14.8948 115.719 14.9103C115.649 15.1239 115.575 15.3385 115.509 15.5531C115.495 15.5956 115.477 15.6111 115.432 15.6082C115.394 15.6043 115.355 15.6082 115.316 15.6082C115.255 15.6082 115.255 15.6082 115.235 15.5521L115.021 14.918C115.015 14.8993 115.005 14.8823 114.992 14.8687V14.9364L115.008 15.5405C115.01 15.6159 115.021 15.6082 114.937 15.6082H114.777C114.753 15.6082 114.74 15.6014 114.742 15.5753V15.5386V14.6686C114.742 14.5893 114.734 14.6019 114.814 14.6009H115.091C115.172 14.6009 115.172 14.6009 115.196 14.6802L115.344 15.1635C115.349 15.1829 115.357 15.2012 115.365 15.2244C115.392 15.1993 115.39 15.1684 115.399 15.1423C115.448 14.9799 115.497 14.8155 115.542 14.6512C115.553 14.6106 115.57 14.598 115.612 14.6C115.72 14.6038 115.83 14.6 115.941 14.6019C115.959 14.6019 115.979 14.598 115.996 14.6116L115.994 14.6164H116V15.5976C115.972 15.6072 115.943 15.6043 115.913 15.6043C115.854 15.6014 115.797 15.6024 115.738 15.6043V15.6053ZM113.782 14.8339C113.782 14.7643 113.784 14.6986 113.782 14.6348C113.78 14.6038 113.797 14.6 113.823 14.6H114.585C114.594 14.6696 114.587 14.7372 114.59 14.803C114.592 14.83 114.577 14.8339 114.555 14.8339H114.372C114.317 14.8339 114.317 14.8358 114.317 14.8909V15.4748C114.317 15.5057 114.315 15.5367 114.317 15.5686C114.319 15.5995 114.303 15.6101 114.274 15.6082C114.213 15.6055 114.152 15.6055 114.091 15.6082C114.05 15.6101 114.043 15.5937 114.043 15.5599C114.045 15.3511 114.043 15.1403 114.043 14.9325C114.043 14.9161 114.041 14.8977 114.043 14.8813C114.048 14.8416 114.028 14.8329 113.991 14.8339H113.782Z" fill="white"/>
<path d="M22.5523 23.8336L22.5552 16.4299C22.5552 16.3042 22.563 16.1786 22.5224 16.0577C22.4035 15.7039 22.0835 15.5058 21.6939 15.5483C21.3459 15.586 21.0801 15.8692 21.0453 16.2462C21.0318 16.3796 21.0453 16.515 21.0395 16.6484C21.0303 16.8349 20.9512 17.0111 20.8179 17.1419C20.6846 17.2727 20.507 17.3484 20.3203 17.354C20.1331 17.3568 19.9516 17.2895 19.8114 17.1654C19.6712 17.0413 19.5824 16.8693 19.5624 16.6832C19.5547 16.601 19.5576 16.515 19.5576 16.4318C19.5576 15.8721 19.5624 15.3115 19.5547 14.7518C19.554 14.5557 19.4764 14.3678 19.3387 14.2283C19.201 14.0888 19.0141 14.0088 18.8181 14.0055C18.6271 14.0029 18.4422 14.0723 18.3 14.1998C18.1578 14.3273 18.0688 14.5036 18.0506 14.6938C18.0448 14.7518 18.0477 14.8117 18.0428 14.8697C18.0071 15.2187 17.7509 15.4777 17.3884 15.5328C17.1003 15.5754 16.7349 15.3801 16.6083 15.1036C16.5503 14.9731 16.5629 14.8272 16.5629 14.6889C16.5629 13.7445 16.5629 12.7972 16.56 11.8527C16.56 11.7628 16.5754 11.6691 16.5406 11.5792C16.5426 11.5714 16.5503 11.5637 16.5474 11.5589C16.5426 11.5463 16.5329 11.5366 16.5252 11.526C16.5155 11.4883 16.4923 11.4554 16.4768 11.4206C16.4332 11.3123 16.3649 11.2157 16.2772 11.1385C16.1896 11.0613 16.0852 11.0056 15.9722 10.976C15.5015 10.86 15.0684 11.179 15.0549 11.6671C15.0452 12.0441 15.05 12.4182 15.0529 12.7952C15.0529 12.948 15.0278 13.0939 14.9485 13.2273C14.8907 13.3264 14.8111 13.4111 14.7159 13.4749C14.6206 13.5388 14.5121 13.5803 14.3985 13.5962C14.2849 13.6121 14.1691 13.6021 14.06 13.5668C13.9508 13.5315 13.8511 13.472 13.7682 13.3926C13.6232 13.2573 13.5962 13.0959 13.5556 12.9286C13.5575 11.7822 13.5604 10.6376 13.5604 9.49407C13.5604 9.4641 13.5401 9.43123 13.5295 9.40126C13.5042 9.36829 13.4861 9.33044 13.4763 9.2901C13.4459 9.18619 13.3923 9.09058 13.3194 9.01051C13.2465 8.93045 13.1564 8.86804 13.0558 8.82803C12.9456 8.78522 12.8266 8.76965 12.7091 8.78265C12.5916 8.79564 12.4789 8.83682 12.3807 8.90268C12.2825 8.96853 12.2016 9.05713 12.145 9.16093C12.0883 9.26473 12.0575 9.38067 12.0553 9.4989C12.0456 10.1021 12.0524 10.7024 12.0524 11.3046C12.0524 11.6816 12.0601 12.0586 12.0505 12.4327C12.0483 12.553 12.0174 12.671 11.9603 12.7768C11.9033 12.8827 11.8217 12.9734 11.7225 13.0413C11.6232 13.1092 11.5092 13.1524 11.3898 13.1673C11.2705 13.1822 11.1493 13.1683 11.0364 13.1268C10.8919 13.0683 10.7597 12.9831 10.6469 12.8755C10.5861 12.6861 10.5552 12.4885 10.555 12.2897C10.555 11.9629 10.5647 11.6372 10.5473 11.3133C10.528 10.9557 10.2438 10.685 9.87643 10.6415C9.70735 10.6272 9.53831 10.6696 9.39599 10.762C9.25368 10.8544 9.1462 10.9916 9.09053 11.1519C9.05283 11.265 9.05573 11.3839 9.05573 11.4989V13.4806C9.05573 13.5811 9.05283 13.6817 9.02963 13.7803C8.99695 13.9423 8.90977 14.0882 8.78261 14.1937C8.65544 14.2992 8.49597 14.358 8.33073 14.3603C8.16539 14.3694 8.00193 14.3214 7.86768 14.2245C7.73343 14.1275 7.63653 13.9874 7.59317 13.8276C7.56645 13.7225 7.55473 13.6141 7.55837 13.5057C7.55837 12.5101 7.5603 11.5163 7.55547 10.5216C7.56002 10.356 7.50773 10.1939 7.4073 10.0622C7.30688 9.93044 7.16437 9.83707 7.0035 9.7976C6.6816 9.7106 6.38483 9.82756 6.1799 10.1292C6.04457 10.28 6.04457 10.4665 6.04457 10.6492V15.267C6.04263 15.5831 5.8957 15.817 5.60667 15.9427C5.35147 16.0529 5.0924 16.0481 4.85943 15.8625C4.76217 15.7889 4.68412 15.6929 4.63194 15.5826C4.57977 15.4724 4.55501 15.3512 4.55977 15.2293C4.56363 14.8117 4.56847 14.3922 4.55783 13.9755C4.55121 13.8018 4.48235 13.6362 4.36382 13.5089C4.24528 13.3817 4.08496 13.3013 3.9121 13.2824C3.51383 13.2389 3.1871 13.4526 3.08077 13.8218C3.0508 13.9282 3.0479 14.0355 3.0479 14.1466V17.5077C3.05329 17.6426 3.01969 17.7761 2.95111 17.8924C2.88253 18.0086 2.78188 18.1026 2.66123 18.1631C2.55031 18.2245 2.42539 18.2562 2.29861 18.255C2.17183 18.2539 2.04751 18.2199 1.93774 18.1564C1.82798 18.093 1.7365 18.0022 1.6722 17.893C1.60791 17.7837 1.57299 17.6596 1.57083 17.5329C1.56117 17.1559 1.57373 16.7789 1.566 16.4048C1.55827 16.0007 1.33497 15.7184 0.967633 15.6382C0.6032 15.558 0.286133 15.7262 0.1073 16.0925C0.0831333 16.1409 0.0908667 16.2182 0 16.2008V30.4098C0.103433 30.3905 0.174 30.4649 0.251333 30.5104C1.84633 31.4326 3.45583 32.3267 5.04213 33.2634C5.43267 33.4954 5.8348 33.6984 6.23307 33.9169C6.28294 33.9612 6.33738 34.0001 6.39547 34.0329C7.57577 34.7028 8.75413 35.3766 9.93443 36.0445C10.1171 36.148 10.2892 36.2678 10.4845 36.3442C10.6623 36.4815 10.8692 36.5665 11.0567 36.6874C11.1254 36.7309 11.2143 36.7483 11.2501 36.8333H11.3506C11.3709 36.7579 11.4444 36.7434 11.4975 36.7106C12.0505 36.3838 12.6179 36.0822 13.1621 35.7352C13.5401 35.4935 13.9432 35.2983 14.3357 35.0827C14.8142 34.8217 15.283 34.5452 15.7567 34.2736C15.805 34.2456 15.8688 34.2311 15.8939 34.1702C16.1975 33.9971 16.5049 33.8318 16.8113 33.6627C17.4664 33.2956 18.1151 32.9172 18.7572 32.5278C18.8916 32.4476 19.0404 32.3992 19.1748 32.3171C19.6465 32.03 20.1279 31.7564 20.6045 31.4799C21.1719 31.1484 21.7519 30.8342 22.3271 30.5181C22.4992 30.4253 22.5552 30.3199 22.5523 30.1256C22.5475 28.0309 22.5504 25.9332 22.5523 23.8326V23.8336ZM16.5126 19.7833C16.4996 19.7776 16.486 19.7734 16.472 19.7707C16.4846 19.7736 16.4991 19.7765 16.5116 19.7833H16.5126ZM16.4237 19.761C16.4053 19.7581 16.385 19.7581 16.3676 19.7581L16.4237 19.761ZM11.774 25.5436C11.7895 25.5436 11.8049 25.5465 11.8223 25.5465C11.8049 25.5465 11.7895 25.5436 11.774 25.5436ZM16.4391 28.2039H16.4536H16.4391ZM16.5677 28.1556L13.4869 28.1536H13.3352C13.0558 28.1517 13.0713 28.1788 13.0713 27.9023V25.7998C13.0713 25.7418 13.0693 25.6819 13.0713 25.6239C13.0761 25.5291 13.0326 25.4885 12.9369 25.4914L11.9538 25.504C11.2191 25.5011 10.4874 25.4963 9.7527 25.4943C9.5265 25.4943 9.52457 25.4963 9.52457 25.7321V27.8656C9.52457 28.1865 9.55743 28.1536 9.22007 28.1536C8.15673 28.1565 7.09437 28.1585 6.03007 28.1585L6.01267 28.1517C6.003 28.1314 5.99237 28.1092 5.9798 28.0889C5.98463 27.9883 5.99237 27.8878 5.99237 27.7892V20.1351C5.99237 19.7736 5.9769 19.821 6.3017 19.821C7.37277 19.821 8.4448 19.8268 9.51683 19.8287L9.53133 19.9215C9.5294 20.7731 9.52457 21.6277 9.52167 22.4793V22.5044C9.51393 22.6021 9.56517 22.6349 9.65893 22.632C9.7846 22.6272 9.9122 22.632 10.0388 22.632H12.848C13.0664 22.632 13.0664 22.6301 13.0693 22.4116V20.1023C13.0693 20.0443 13.0713 19.9843 13.0693 19.9263C13.0693 19.8538 13.1022 19.821 13.1757 19.821H13.3787L16.5687 19.819C16.5596 19.8123 16.5499 19.8065 16.5397 19.8016L16.5687 19.819L16.5706 19.821C16.6064 19.849 16.6189 19.8838 16.6209 19.9215C16.62 19.9022 16.6151 19.8832 16.6064 19.8659C16.5978 19.8486 16.5856 19.8333 16.5706 19.821C16.5754 19.9118 16.5832 20.0046 16.5832 20.0955V27.8752C16.5832 27.968 16.5783 28.0589 16.5754 28.1517L16.5677 28.1565V28.1556ZM16.6257 19.9592V19.9321V19.9592Z" fill="url(#paint0_linear_192_7063)"/>
<path d="M12.0552 5.66996C12.0552 6.02182 12.0523 6.37176 12.0552 6.72362C12.06 7.16249 12.3616 7.48149 12.785 7.49406C12.8842 7.49874 12.9834 7.48336 13.0765 7.44883C13.1697 7.41431 13.2549 7.36135 13.3271 7.29312C13.3993 7.22489 13.457 7.1428 13.4967 7.05175C13.5364 6.96071 13.5574 6.86259 13.5583 6.76326C13.5728 6.03729 13.5699 5.30842 13.5583 4.58245C13.5506 4.15035 13.2103 3.84875 12.7879 3.84875C12.5891 3.85457 12.4005 3.9381 12.2626 4.08143C12.1247 4.22475 12.0485 4.41644 12.0503 4.61532C12.0677 4.96719 12.0552 5.31905 12.0552 5.66996Z" fill="#F3743F"/>
<path d="M9.05563 8.62697C9.05563 8.68497 9.05757 8.7449 9.06337 8.8029C9.1117 9.26497 9.567 9.56947 10.0184 9.43317C10.1704 9.39449 10.3053 9.30654 10.4021 9.18307C10.4988 9.05959 10.5519 8.90754 10.553 8.7507C10.5627 8.38337 10.5549 8.0141 10.5549 7.64773H10.553C10.553 7.263 10.5656 6.87827 10.5482 6.4945C10.5346 6.18033 10.35 5.9696 10.0532 5.86133C9.91363 5.81084 9.76213 5.80318 9.61815 5.83935C9.47417 5.87552 9.34427 5.95386 9.2451 6.06433C9.09623 6.2306 9.05273 6.42877 9.05273 6.64433C9.05757 7.30843 9.05563 7.96867 9.05563 8.62697Z" fill="#F26545"/>
<path d="M15.8144 10.0316C15.9131 10.0312 16.0107 10.0114 16.1017 9.97328C16.1926 9.93518 16.2752 9.87953 16.3447 9.80952C16.4142 9.7395 16.4692 9.65649 16.5066 9.56522C16.544 9.47394 16.563 9.3762 16.5626 9.27756C16.553 8.86866 16.2079 8.55256 15.7825 8.56223C15.5877 8.56376 15.4013 8.64224 15.2641 8.78058C15.1268 8.91892 15.0498 9.10589 15.0498 9.30076C15.0512 9.3993 15.0722 9.49657 15.1115 9.5869C15.1509 9.67723 15.2079 9.7588 15.2792 9.82684C15.3505 9.89489 15.4346 9.94804 15.5267 9.98319C15.6188 10.0183 15.7169 10.0348 15.8154 10.0316H15.8144Z" fill="#F4803A"/>
<path d="M9.80478 4.49738C9.90363 4.49789 10.0016 4.4789 10.0931 4.44152C10.1846 4.40413 10.2678 4.34908 10.338 4.2795C10.4083 4.20992 10.4641 4.12718 10.5023 4.03602C10.5405 3.94486 10.5603 3.84705 10.5607 3.74821C10.5602 3.64945 10.5403 3.55175 10.502 3.4607C10.4637 3.36965 10.4079 3.28703 10.3377 3.21755C10.2675 3.14807 10.1843 3.0931 10.0929 3.05578C10.0014 3.01845 9.90354 2.9995 9.80478 3.00001C9.60565 2.9995 9.41445 3.07797 9.2731 3.21823C9.13176 3.35849 9.0518 3.54908 9.05078 3.74821C9.05078 4.16194 9.38911 4.49738 9.80478 4.49738Z" fill="#F26545"/>
<defs>
<linearGradient id="paint0_linear_192_7063" x1="0.0029" y1="22.808" x2="22.5562" y2="22.808" gradientUnits="userSpaceOnUse">
<stop stop-color="#EE304D"/>
<stop offset="0.927" stop-color="#F7962A"/>
</linearGradient>
</defs>
</svg>
