<svg width="116" height="40" viewBox="0 0 116 40" fill="none" xmlns="http://www.w3.org/2000/svg">
<g clip-path="url(#clip0_192_7065)">
<path d="M7.67968 16.8496H10.9947V19.5495L16.2434 19.6847V4.52119C16.2434 4.34452 16.1522 4.22858 16.0114 4.22858H11.2212C11.083 4.22858 10.9892 4.34452 10.9892 4.52119V11.6986H7.67415V4.52119C7.67415 4.34452 7.58023 4.22858 7.4421 4.22858H2.71821C2.57733 4.22858 2.4834 4.34452 2.4834 4.52119V19.3314L7.67968 19.4638V16.8496Z" fill="white"/>
<path d="M28.3986 4.46322C28.3544 4.28655 28.2688 4.22858 28.1582 4.22858H22.9703C22.8625 4.22858 22.7741 4.28655 22.7299 4.46322L18.3403 19.7399L32.7937 20.1237L28.3986 4.46322ZM24.1747 17.3162L25.5421 8.68404L26.8682 17.3162H24.1747Z" fill="white"/>
<path d="M53.1011 19.9056L55.3884 16.5597L57.1206 20.7419L62.5184 20.88L58.5294 12.0242L63.6289 4.57087C63.7616 4.36659 63.6732 4.22028 63.4991 4.22028H58.0929C58.0373 4.22161 57.983 4.23863 57.9366 4.2694C57.8901 4.30018 57.8534 4.34344 57.8305 4.39419L53.1011 11.9856V4.52118C53.1011 4.3445 53.0127 4.22856 52.8828 4.22856H48.4628C48.3302 4.22856 48.2446 4.3445 48.2446 4.52118V20.5128L53.1066 20.637L53.1011 19.9056Z" fill="white"/>
<path d="M78.6097 18.0416C78.6097 10.1024 69.6481 12.9236 69.6481 9.7822C69.6481 8.88227 70.4105 8.47371 71.4575 8.47371C72.6786 8.47371 73.8775 9.02581 75.0764 10.2791C75.0952 10.3072 75.1213 10.3297 75.1517 10.3442C75.1823 10.3587 75.2162 10.3648 75.2499 10.3616C75.2835 10.3585 75.3157 10.3464 75.343 10.3265C75.3704 10.3066 75.3919 10.2798 75.4052 10.2487L77.8445 6.87261C77.8889 6.81274 77.9113 6.73935 77.9078 6.66488C77.9042 6.59042 77.875 6.51947 77.8251 6.46406C76.1013 4.46269 74.0957 3.56 71.6537 3.56C68.3387 3.56 64.7861 5.1887 64.7861 10.395C64.7861 18.74 73.8554 15.4247 73.8554 18.856C73.8554 19.905 73.0073 20.4267 71.7863 20.4267C70.2587 20.4267 68.7476 19.6427 67.2282 17.5779C67.1425 17.4619 67.0099 17.4316 66.9242 17.5779L64.5596 20.9319L78.0047 21.2798C78.4197 20.2512 78.6254 19.1505 78.6097 18.0416Z" fill="white"/>
<path d="M89.6573 4.46322C89.6132 4.28655 89.5247 4.22858 89.417 4.22858H84.229C84.1185 4.22858 84.0329 4.28655 83.9887 4.46322L79.146 21.3023L94.4999 21.6999L89.6573 4.46322ZM85.4307 17.3162L86.8119 8.68404L88.1241 17.3162H85.4307Z" fill="white"/>
<path d="M104.096 13.3547L105.461 21.9897L111.063 22.1359L115.986 4.54874C116.031 4.34447 115.964 4.22853 115.812 4.22853H111.185C111.056 4.22853 110.967 4.31686 110.945 4.50458L108.5 14.7185L106.5 4.50458C106.478 4.35826 106.389 4.22853 106.26 4.22853H101.936C101.806 4.22853 101.718 4.34447 101.696 4.50458L99.6962 14.7185L97.2399 4.49077C97.2177 4.31686 97.1297 4.21472 97.0002 4.21472H92.3809C92.2289 4.21472 92.1626 4.33066 92.2069 4.53494L97.0272 21.7798L102.743 21.929L104.096 13.3547Z" fill="white"/>
<path d="M45.9877 18.8312C45.9888 18.8145 45.9844 18.7979 45.9751 18.784C45.9657 18.7702 45.9519 18.7599 45.9359 18.7547C45.92 18.7496 45.9028 18.7501 45.8871 18.7559C45.8715 18.7618 45.8582 18.7727 45.8495 18.787C45.5289 19.2657 45.0935 19.6566 44.583 19.9243C44.0725 20.1919 43.5031 20.3276 42.9268 20.3191C40.3769 20.3191 39.1753 17.7905 39.1753 14.4171C39.1753 11.364 40.1753 8.65871 42.9765 8.65871C43.5423 8.63724 44.1042 8.76094 44.6085 9.01802C45.1129 9.27511 45.543 9.657 45.8577 10.1273C45.867 10.1407 45.8803 10.1508 45.8956 10.1562C45.9109 10.1616 45.9276 10.162 45.9432 10.1574C45.9587 10.1529 45.9726 10.1435 45.9825 10.1306C45.9925 10.1178 45.9981 10.1021 45.9987 10.0859V4.42409C45.9998 4.35999 45.9807 4.29716 45.9441 4.2446C45.9073 4.19204 45.8548 4.15243 45.7942 4.13147C44.8165 3.79522 43.7895 3.62448 42.7555 3.6263C37.1282 3.6263 33.5011 8.57037 33.5011 14.7954C33.4771 16.6378 33.8394 18.4649 34.5647 20.159L45.9904 20.4544L45.9877 18.8312Z" fill="white"/>
<path d="M8.50584 25.2824C8.50584 25.4564 8.59701 25.5585 8.73789 25.5585H13.5142C13.6524 25.5585 13.7463 25.4426 13.7463 25.2824V20.4985L8.49756 20.3605L8.50584 25.2824Z" fill="white"/>
<path d="M0.23205 25.5724H4.9725C5.1134 25.5724 5.20732 25.4565 5.20732 25.2963V20.2749L0 20.1424V25.2825C0 25.4565 0.0939252 25.5724 0.23205 25.5724Z" fill="white"/>
<path d="M14.6854 25.5724H19.4618C19.5244 25.5669 19.5835 25.5415 19.6303 25.4997C19.6772 25.4578 19.7092 25.4019 19.7215 25.3404L20.332 22.6931H25.6912L26.3018 25.3404C26.3142 25.4019 26.3462 25.4578 26.3929 25.4997C26.4397 25.5415 26.4989 25.5669 26.5614 25.5724H31.3378C31.4898 25.5724 31.5561 25.4288 31.5119 25.2245L30.3047 20.9264L15.854 20.5509L14.5114 25.2245C14.4478 25.4288 14.5335 25.5724 14.6854 25.5724Z" fill="white"/>
<path d="M56.2168 25.3681C56.233 25.4254 56.2672 25.4761 56.3146 25.5124C56.3618 25.5488 56.4196 25.5688 56.4793 25.5695H61.4711C61.6451 25.5695 61.7115 25.426 61.6231 25.2217L60.0346 21.6911L54.6367 21.5502L56.2168 25.3681Z" fill="white"/>
<path d="M45.9709 25.5724H50.3908C50.5235 25.5724 50.609 25.4565 50.609 25.2963V21.4509L45.7471 21.324V25.2825C45.7526 25.4565 45.8409 25.5724 45.9709 25.5724Z" fill="white"/>
<path d="M61.6922 22.6931C62.5359 23.7967 63.6227 24.6909 64.8684 25.3066C66.1141 25.9223 67.485 26.2428 68.8747 26.2431C71.7173 26.2431 74.3748 24.8629 75.5295 22.1024L62.0734 21.7463L61.6922 22.2983C61.6481 22.3547 61.624 22.4242 61.624 22.4957C61.624 22.5673 61.6481 22.6368 61.6922 22.6931Z" fill="white"/>
<path d="M75.9441 25.5724H80.7177C80.7806 25.5672 80.8401 25.5417 80.8874 25.5C80.9347 25.4582 80.9673 25.4022 80.9801 25.3405L81.5907 22.6932H86.9527L87.5714 25.3405C87.5848 25.4021 87.6173 25.4577 87.6646 25.4995C87.7118 25.5412 87.7711 25.5668 87.8339 25.5724H92.5992C92.7539 25.5724 92.8174 25.4288 92.7761 25.2246L92.0164 22.5193L76.6623 22.1218L75.7701 25.2246C75.6926 25.4288 75.7921 25.5724 75.9441 25.5724Z" fill="white"/>
<path d="M103.373 25.3101C103.395 25.4564 103.481 25.5724 103.61 25.5724H107.68C107.809 25.5724 107.895 25.4867 107.918 25.3101L108.58 22.9471L102.975 22.8035L103.373 25.3101Z" fill="white"/>
<path d="M95.5467 25.5724H99.613C99.7426 25.5724 99.8315 25.4565 99.8537 25.3101L100.26 22.7318L94.5439 22.5854L95.3064 25.3101C95.3285 25.4868 95.4141 25.5724 95.5467 25.5724Z" fill="white"/>
<path d="M40.3687 26.3674C41.3613 26.3715 42.3484 26.2206 43.2942 25.9202C43.3556 25.8989 43.4089 25.8591 43.4465 25.8061C43.4842 25.7531 43.5043 25.6898 43.5042 25.6249V21.266L32.0757 20.9706C33.5371 24.2639 36.435 26.3674 40.3687 26.3674Z" fill="white"/>
<path d="M7.18222 32.2031H5.37555V31.375C5.37555 31.2286 5.28991 31.1541 5.11587 31.1541H4.74293C4.56889 31.1541 4.48326 31.2286 4.48326 31.375V35.0547C4.48326 35.201 4.56889 35.2756 4.74293 35.2756H5.11587C5.28991 35.2756 5.37555 35.201 5.37555 35.0547V33.9809H4.8562V32.8767H7.18222V35.1872C7.18222 36.0154 6.67393 36.4267 5.65456 36.4267H4.19319C3.17383 36.4267 2.66553 36.0154 2.66553 35.1872V31.2425C2.66553 30.418 3.17475 30.0048 4.19319 30.003H5.66561C6.68405 30.003 7.19328 30.4161 7.19328 31.2425L7.18222 32.2031Z" fill="#8E909F"/>
<path d="M26.4787 36.4101L26.2716 35.4523H24.672L24.4538 36.4101H22.6665L24.3819 29.9919H26.592L28.3075 36.4101H26.4787ZM24.9538 34.2017H25.9925L25.4814 31.894L24.9538 34.2017Z" fill="#8E909F"/>
<path d="M45.5036 36.4102H43.8848V30.003H45.8572L46.9622 33.4316L48.0424 30.003H50.001V36.4102H48.3904V32.3412L47.5617 35.0327H46.3158L45.487 32.3632L45.5036 36.4102Z" fill="#8E909F"/>
<path d="M66.0044 30.003H67.8221V36.4102H66.0044V30.003Z" fill="#8E909F"/>
<path d="M86.8585 30.003H88.5161V36.4102H86.9635L85.4774 33.0423V36.4102H83.8198V30.003H85.3613L86.8475 33.4316L86.8585 30.003Z" fill="#8E909F"/>
<path d="M108.989 32.2031H107.185V31.375C107.185 31.2286 107.1 31.1541 106.926 31.1541H106.553C106.379 31.1541 106.293 31.2286 106.293 31.375V35.0547C106.293 35.201 106.379 35.2756 106.553 35.2756H106.909C107.083 35.2756 107.169 35.201 107.169 35.0547V33.9809H106.649V32.8767H108.987V35.1872C108.987 36.0154 108.478 36.4267 107.461 36.4267H105.986C104.966 36.4267 104.459 36.0154 104.459 35.1872V31.2425C104.459 30.418 104.967 30.0048 105.986 30.003H107.461C108.478 30.003 108.987 30.4161 108.987 31.2425L108.989 32.2031Z" fill="#8E909F"/>
</g>
<defs>
<clipPath id="clip0_192_7065">
<rect width="116" height="40" fill="white"/>
</clipPath>
</defs>
</svg>
