<?xml version="1.0" encoding="UTF-8"?>
<svg id="Layer_2" data-name="Layer 2" xmlns="http://www.w3.org/2000/svg" viewBox="0 0 101.93 19.78">
  <defs>
    <style>
      .cls-1 {
        fill: #fff;
        stroke-width: 0px;
      }
    </style>
  </defs>
  <g id="Layer_1-2" data-name="Layer 1">
    <g>
      <g>
        <path class="cls-1" d="M16.58,1.77h11.39v2.58h-8.43v3.77h5.62v2.58h-5.62v4.22h8.7v2.58h-11.66V1.77Z"/>
        <path class="cls-1" d="M27.41,6.32h3.03l2.66,7.79,2.47-7.79h2.94l-4.07,11.18h-2.72l-4.29-11.18Z"/>
        <path class="cls-1" d="M38.04,11.94c0-3.41,2.37-5.83,5.75-5.83s5.73,2.42,5.73,5.83-2.41,5.78-5.81,5.78c-3.35-.01-5.67-2.38-5.67-5.78ZM46.53,12v-.09c0-2.13-1.04-3.41-2.75-3.41s-2.77,1.28-2.77,3.41v.09c0,2.09,1.02,3.32,2.72,3.32,1.73,0,2.79-1.23,2.79-3.32Z"/>
        <path class="cls-1" d="M50.85,1.56h2.96v15.94h-2.96V1.56Z"/>
        <path class="cls-1" d="M55.5,13.02v-6.7h2.94v6.54c0,1.49.71,2.37,2.04,2.37,1.54,0,2.17-1.3,2.17-3.22v-5.68h2.94v11.18h-2.94v-1.58c-.59,1.17-1.61,1.8-3.06,1.8-2.52-.01-4.09-1.8-4.09-4.7Z"/>
        <path class="cls-1" d="M68.28,14.54v-5.85h-1.59v-2.37h1.59v-2.11l2.87-1.61v3.72h2.21v2.37h-2.23v5.57c0,.55.26.78.81.81h1.3v2.44h-2.29c-2.15-.12-2.62-1.12-2.67-2.97Z"/>
        <path class="cls-1" d="M74.68,1.82h3.06v2.87h-3.06V1.82ZM74.73,6.32h2.96v11.18h-2.96V6.32Z"/>
        <path class="cls-1" d="M79.02,11.94c0-3.41,2.37-5.83,5.75-5.83s5.73,2.42,5.73,5.83-2.41,5.78-5.81,5.78c-3.35-.01-5.67-2.38-5.67-5.78ZM87.53,12v-.09c0-2.13-1.04-3.41-2.75-3.41s-2.77,1.28-2.77,3.41v.09c0,2.09,1.02,3.32,2.72,3.32,1.73,0,2.79-1.23,2.79-3.32Z"/>
        <path class="cls-1" d="M91.83,6.32h2.94v1.83c.59-1.3,1.68-2.06,3.27-2.06,2.44,0,3.89,1.64,3.89,4.71v6.7h-2.95v-6.54c0-1.56-.59-2.37-1.96-2.37s-2.25,1.13-2.25,3.22v5.68h-2.94V6.32h0Z"/>
      </g>
      <path class="cls-1" d="M12.41,19.56c-.5,0-.91-.4-.91-.91s.41-.91.91-.91.91.4.91.91c0,.5-.4.91-.91.91M12.41,17.5c-.63,0-1.14.52-1.14,1.14s.52,1.14,1.14,1.14,1.14-.52,1.14-1.14-.52-1.14-1.14-1.14"/>
      <path class="cls-1" d="M11.59,3.53s0-.02,0-.03C8.91-.03,4.05-1.02.01,1.13c1.58,3.55,2.76,7.71,10.53,7.96.91.03,1.92,0,3.02-.08-.16-2.21-.88-4.05-1.96-5.48Z"/>
      <path class="cls-1" d="M10.16,9.72c-4.67.24-6.87,1.94-8.25,4.05-.81,1.23-1.33,2.61-1.91,3.9,5.67,3.03,12.99-.17,13.54-7.88-1.24-.1-2.38-.11-3.39-.07Z"/>
      <g>
        <path class="cls-1" d="M11.97,18.46h-.17v-.11h.48v.11h-.17v.48h-.15v-.48Z"/>
        <path class="cls-1" d="M12.34,18.35h.22l.11.38.11-.38h.22v.59h-.13v-.48l-.15.48h-.11l-.15-.48v.48h-.12v-.59h-.01Z"/>
      </g>
    </g>
  </g>
</svg>