<svg width="116" height="40" viewBox="0 0 116 40" fill="none" xmlns="http://www.w3.org/2000/svg">
<g clip-path="url(#clip0_192_7066)">
<path d="M14.3356 5.5C6.41866 5.5 0 12.0018 0 20.0483C0 21.4886 0.210733 22.9 0.631232 24.2591C0.894165 23.886 1.1571 23.5128 1.3949 23.1136C2.39198 21.6224 3.37384 20.1211 4.34033 18.6099L5.04986 17.4644C5.28669 17.0913 5.52353 16.6911 5.73426 16.3189C6.20792 15.5456 6.65452 14.7723 7.07599 13.9999C7.28576 13.6007 7.49649 13.2266 7.73332 12.8273C7.97016 12.4281 8.15382 12.055 8.36455 11.6557C8.57529 11.2555 8.78505 10.8563 8.96969 10.4832L9.54872 9.28449L9.60092 9.20426C9.75431 8.89688 10.0211 8.66114 10.3451 8.54679C10.669 8.43244 11.0247 8.44843 11.337 8.5914C11.8107 8.85723 12.0997 9.36376 12.0736 9.92346C12.0736 10.6156 11.9422 11.3348 11.89 12.0289C11.8368 12.721 11.8107 13.4402 11.7575 14.1604C11.7053 15.5717 11.6792 17.012 11.6792 18.4233C11.6792 19.8356 11.7575 21.2479 11.889 22.6071C11.9683 23.2731 12.0727 23.9391 12.2051 24.6052C12.3105 25.1919 12.4951 25.7777 12.7571 26.3104C12.8363 26.4708 12.9407 26.6303 13.0732 26.7637C13.1515 26.8169 13.0993 26.7908 13.1515 26.7908H13.2046L13.2568 26.7637H13.2829L13.3622 26.7367C13.3883 26.7106 13.4415 26.6835 13.4676 26.6574C13.6798 26.4914 13.8739 26.3035 14.0466 26.0967C14.4671 25.5912 14.8615 25.0846 15.2037 24.5259C15.571 23.9652 15.9142 23.3533 16.2554 22.7405C16.9376 21.5099 17.5782 20.2567 18.1762 18.983C18.4652 18.3431 18.7813 17.7042 19.0704 17.0381C19.3604 16.3982 19.6484 15.7322 19.9114 15.0932C19.9745 14.9352 20.0681 14.7912 20.187 14.6695C20.3058 14.5477 20.4475 14.4506 20.6039 14.3837C20.7603 14.3168 20.9284 14.2814 21.0985 14.2796C21.2687 14.2778 21.4375 14.3095 21.5953 14.373C22.0168 14.5335 22.3058 14.9057 22.3851 15.359C22.3851 15.5185 22.4112 15.7322 22.4373 15.9458L22.5165 16.5587C22.5687 16.9579 22.6209 17.3571 22.7002 17.7573C22.8317 18.5567 22.9902 19.3562 23.2 20.1285C23.4107 20.9019 23.6736 21.6752 23.9888 22.4195C24.2984 23.1631 24.7054 23.8623 25.199 24.4988C25.3044 24.6583 25.2783 24.872 25.1468 24.9783C25.0154 25.0846 24.8307 25.0846 24.7254 24.9783C24.0712 24.3915 23.4884 23.7296 22.9892 23.0063C22.4895 22.2871 22.069 21.5147 21.6746 20.7414C21.4116 20.2088 21.2009 19.6761 20.9641 19.1425C20.8065 19.4625 20.6741 19.7825 20.5165 20.0754C19.8853 21.3804 19.254 22.6863 18.5184 23.9923C18.1638 24.6676 17.7773 25.3257 17.3603 25.9643C16.9409 26.627 16.4751 27.2592 15.9664 27.8561C15.6764 28.2021 15.3352 28.496 14.993 28.7889C14.8891 28.875 14.774 28.9465 14.6508 29.0016L14.4149 29.135L14.2825 29.1881H14.2564L14.1781 29.2152H14.1249L14.0195 29.2423C13.9412 29.2684 13.8881 29.2954 13.8098 29.2954L13.3361 29.3747C12.9889 29.3981 12.6404 29.3531 12.3105 29.2423C11.9935 29.126 11.6996 28.9545 11.4424 28.7357C11.0395 28.3855 10.7089 27.9599 10.469 27.4829C10.1006 26.7316 9.8353 25.934 9.68019 25.1117C9.52763 24.3631 9.41341 23.6071 9.33799 22.8468C9.18042 21.3543 9.12725 19.8888 9.10115 18.3963V16.2919C8.83822 16.7984 8.57529 17.304 8.31235 17.7834C8.10162 18.1836 7.89089 18.5838 7.65502 18.983L6.99769 20.1817C6.10335 21.7833 5.17351 23.3649 4.20886 24.9251C3.60184 25.9384 2.97923 26.9422 2.34126 27.9363C6.68159 34.6508 15.572 36.5164 22.2004 32.12C28.8289 27.7227 30.6704 18.7162 26.33 12.0018C23.6736 7.97853 19.1757 5.5 14.3356 5.5Z" fill="url(#paint0_linear_192_7066)"/>
<path d="M41.0863 25.2712V15.6258H40.8494L37.7986 25.2973H37.0359L33.9842 15.6249H33.7483V25.2702H32.4858V14.6128H34.7208L37.4303 23.0866L40.0867 14.6128H42.3487V25.2983H41.0863V25.2712V25.2712Z" fill="url(#paint1_linear_192_7066)"/>
<path d="M44.1904 15.998V14.6128H45.5583V15.999H44.1904V15.998ZM44.2165 25.2712V17.0381H45.5583V25.2712H44.2165Z" fill="url(#paint2_linear_192_7066)"/>
<path d="M53.6854 22.581C53.6854 24.1789 53.0803 25.4046 50.451 25.4046C47.1353 25.4046 46.9517 23.4868 46.9517 21.1416C46.9517 18.7965 47.1353 16.8786 50.451 16.8786C53.0803 16.8786 53.6854 18.1034 53.6854 19.7023H52.423C52.423 18.3973 51.9764 17.7573 50.451 17.7573C48.3988 17.7573 48.2934 18.8767 48.2934 21.1146C48.2934 23.3534 48.3988 24.4728 50.45 24.4728C51.9764 24.4728 52.423 23.8328 52.423 22.5269L53.6854 22.58V22.581Z" fill="url(#paint3_linear_192_7066)"/>
<path d="M56.2896 17.9168C56.9208 17.5176 57.7367 16.9849 58.4994 16.9579C58.6569 16.9308 58.8145 16.9308 58.9731 16.9308C59.1838 16.9308 59.3675 16.9308 59.6043 16.9579L59.4989 17.9438C59.2882 17.9168 59.1045 17.9168 58.9199 17.9168C58.7623 17.9168 58.6048 17.9168 58.4201 17.9438C57.7106 17.9699 56.9479 18.5036 56.395 18.8235V25.2982H55.0532V17.0381H56.1059L56.2896 17.9178V17.9168Z" fill="url(#paint4_linear_192_7066)"/>
<path d="M67.127 21.1677C67.127 23.5128 66.9433 25.4307 63.5764 25.4307C60.2095 25.4307 60.0249 23.5128 60.0249 21.1677C60.0249 18.8235 60.2086 16.9047 63.5764 16.9047C66.9433 16.9047 67.127 18.8235 67.127 21.1677ZM61.3666 21.1677C61.3666 23.4065 61.472 24.5259 63.5764 24.5259C65.6809 24.5259 65.7853 23.4335 65.7853 21.1677C65.7853 18.9028 65.6809 17.8104 63.5764 17.8104C61.472 17.8104 61.3666 18.9028 61.3666 21.1677Z" fill="url(#paint5_linear_192_7066)"/>
<path d="M69.5743 27.19C70.074 27.2431 70.7314 27.2702 71.468 27.2702C73.5192 27.2702 73.7821 26.7095 73.8092 24.5249C73.2041 24.8719 72.3621 25.2712 71.4941 25.2982C68.5216 25.3514 68.3379 23.7264 68.3379 21.1677C68.3379 18.6099 68.4955 16.9047 71.3636 16.9047C72.336 16.9047 73.2302 17.358 73.9407 17.8104L74.0721 17.0642H75.1239V24.3654C75.1239 27.3234 74.4666 28.2291 71.7831 28.2291C70.9943 28.2291 70.2055 28.1489 69.4428 28.0426L69.5743 27.19V27.19ZM73.8082 18.5567C73.2302 18.1836 72.4936 17.8104 71.7841 17.8104C69.8111 17.8104 69.6796 18.9298 69.6796 21.1677C69.6796 23.3523 69.8111 24.3925 71.7841 24.3925C72.4936 24.3925 73.2563 23.9923 73.8092 23.6994V18.5567H73.8082Z" fill="url(#paint6_linear_192_7066)"/>
<path d="M82.4107 25.2711L82.2793 24.5259C81.6219 24.9512 80.7529 25.4316 79.8065 25.4316C76.834 25.4848 76.6494 23.7786 76.6494 21.1686C76.6494 18.5567 76.8079 16.9047 79.7534 16.9047C80.7268 16.9047 81.5949 17.358 82.2522 17.7573L82.3846 17.0381H83.4364V25.2711H82.4107V25.2711ZM82.1478 18.5035C81.5949 18.1836 80.8322 17.8104 80.1217 17.8104C78.1497 17.8104 78.0172 18.9298 78.0172 21.1677C78.0172 23.4065 78.1497 24.5259 80.1217 24.5259C80.8322 24.5259 81.5688 24.1257 82.1478 23.7796V18.5035Z" fill="url(#paint7_linear_192_7066)"/>
<path d="M86.2764 17.7573C86.8816 17.3842 87.6975 16.9318 88.5645 16.9047C89.9324 16.8516 90.6429 17.2237 90.9851 17.8105C91.6153 17.4113 92.4573 16.9308 93.3785 16.9047C96.1664 16.8245 96.351 18.2639 96.351 20.262V25.2712H95.0093V20.3412C95.0093 18.637 94.903 17.8105 93.0885 17.8105C92.4312 17.8105 91.7478 18.2107 91.1948 18.5568C91.3263 19.1426 91.3785 19.7554 91.3524 20.3683V25.2983H90.1953V20.3422C90.1953 18.637 90.0899 17.8105 88.2755 17.8105C87.6443 17.8105 86.9608 18.2107 86.434 18.5036V25.2712H85.0923V17.0381H86.145L86.2764 17.7573V17.7573Z" fill="url(#paint8_linear_192_7066)"/>
<path d="M98.0078 15.998V14.6128H99.3756V15.999H98.0078V15.998ZM98.0339 25.2712V17.0381H99.3756V25.2712H98.0339Z" fill="url(#paint9_linear_192_7066)"/>
<path d="M102.216 17.7574C102.874 17.3842 103.742 16.9318 104.689 16.9048C107.661 16.8245 107.846 18.2639 107.846 20.262V25.2713H106.504V20.3413C106.504 18.637 106.373 17.8105 104.4 17.8105C103.689 17.8105 102.926 18.2107 102.374 18.5297V25.2983H101.033V17.0382H102.084L102.216 17.7574V17.7574Z" fill="url(#paint10_linear_192_7066)"/>
<path d="M110.45 27.19C110.95 27.2431 111.607 27.2702 112.344 27.2702C114.395 27.2702 114.658 26.7095 114.684 24.5249C114.08 24.8719 113.238 25.2712 112.37 25.2982C109.398 25.3514 109.214 23.7264 109.214 21.1677C109.214 18.6099 109.371 16.9047 112.239 16.9047C113.212 16.9047 114.106 17.358 114.817 17.8104L114.948 17.0642H116V24.3654C116 27.3234 115.343 28.2291 112.659 28.2291C111.87 28.2291 111.081 28.1489 110.318 28.0426L110.45 27.19ZM114.658 18.5567C114.08 18.1836 113.343 17.8104 112.633 17.8104C110.66 17.8104 110.529 18.9298 110.529 21.1677C110.529 23.3523 110.66 24.3925 112.633 24.3925C113.343 24.3925 114.106 23.9923 114.658 23.6994V18.5567Z" fill="url(#paint11_linear_192_7066)"/>
</g>
<defs>
<linearGradient id="paint0_linear_192_7066" x1="-2.2272" y1="24.0716" x2="113.671" y2="-3.49096" gradientUnits="userSpaceOnUse">
<stop stop-color="#21E418"/>
<stop offset="0.3" stop-color="#31B6E9"/>
<stop offset="0.976" stop-color="#21E418"/>
</linearGradient>
<linearGradient id="paint1_linear_192_7066" x1="-0.981078" y1="29.3138" x2="114.918" y2="1.75129" gradientUnits="userSpaceOnUse">
<stop stop-color="#21E418"/>
<stop offset="0.3" stop-color="#31B6E9"/>
<stop offset="0.976" stop-color="#21E418"/>
</linearGradient>
<linearGradient id="paint2_linear_192_7066" x1="-0.571998" y1="31.0316" x2="115.327" y2="3.46997" gradientUnits="userSpaceOnUse">
<stop stop-color="#21E418"/>
<stop offset="0.3" stop-color="#31B6E9"/>
<stop offset="0.976" stop-color="#21E418"/>
</linearGradient>
<linearGradient id="paint3_linear_192_7066" x1="0.00556869" y1="33.4647" x2="115.905" y2="5.90216" gradientUnits="userSpaceOnUse">
<stop stop-color="#21E418"/>
<stop offset="0.3" stop-color="#31B6E9"/>
<stop offset="0.976" stop-color="#21E418"/>
</linearGradient>
<linearGradient id="paint4_linear_192_7066" x1="0.298397" y1="34.6962" x2="116.198" y2="7.13363" gradientUnits="userSpaceOnUse">
<stop stop-color="#21E418"/>
<stop offset="0.3" stop-color="#31B6E9"/>
<stop offset="0.976" stop-color="#21E418"/>
</linearGradient>
<linearGradient id="paint5_linear_192_7066" x1="0.728684" y1="36.5019" x2="116.628" y2="8.93935" gradientUnits="userSpaceOnUse">
<stop stop-color="#21E418"/>
<stop offset="0.3" stop-color="#31B6E9"/>
<stop offset="0.976" stop-color="#21E418"/>
</linearGradient>
<linearGradient id="paint6_linear_192_7066" x1="1.48915" y1="39.6967" x2="117.387" y2="12.1342" gradientUnits="userSpaceOnUse">
<stop stop-color="#21E418"/>
<stop offset="0.3" stop-color="#31B6E9"/>
<stop offset="0.976" stop-color="#21E418"/>
</linearGradient>
<linearGradient id="paint7_linear_192_7066" x1="1.68544" y1="40.5222" x2="117.585" y2="12.9597" gradientUnits="userSpaceOnUse">
<stop stop-color="#21E418"/>
<stop offset="0.3" stop-color="#31B6E9"/>
<stop offset="0.976" stop-color="#21E418"/>
</linearGradient>
<linearGradient id="paint8_linear_192_7066" x1="2.21618" y1="42.7601" x2="118.116" y2="15.1986" gradientUnits="userSpaceOnUse">
<stop stop-color="#21E418"/>
<stop offset="0.3" stop-color="#31B6E9"/>
<stop offset="0.976" stop-color="#21E418"/>
</linearGradient>
<linearGradient id="paint9_linear_192_7066" x1="2.38039" y1="43.4474" x2="118.279" y2="15.8858" gradientUnits="userSpaceOnUse">
<stop stop-color="#21E418"/>
<stop offset="0.3" stop-color="#31B6E9"/>
<stop offset="0.976" stop-color="#21E418"/>
</linearGradient>
<linearGradient id="paint10_linear_192_7066" x1="2.96834" y1="45.9212" x2="118.868" y2="18.3596" gradientUnits="userSpaceOnUse">
<stop stop-color="#21E418"/>
<stop offset="0.3" stop-color="#31B6E9"/>
<stop offset="0.976" stop-color="#21E418"/>
</linearGradient>
<linearGradient id="paint11_linear_192_7066" x1="3.72946" y1="49.1217" x2="119.629" y2="21.5592" gradientUnits="userSpaceOnUse">
<stop stop-color="#21E418"/>
<stop offset="0.3" stop-color="#31B6E9"/>
<stop offset="0.976" stop-color="#21E418"/>
</linearGradient>
<clipPath id="clip0_192_7066">
<rect width="116" height="40" fill="white"/>
</clipPath>
</defs>
</svg>
