<?xml version="1.0" encoding="UTF-8"?>
<svg id="Layer_2" data-name="Layer 2" xmlns="http://www.w3.org/2000/svg" viewBox="0 0 80 19.66">
  <defs>
    <style>
      .cls-1 {
        fill: #db1beb;
      }

      .cls-1, .cls-2, .cls-3, .cls-4, .cls-5, .cls-6, .cls-7, .cls-8, .cls-9, .cls-10, .cls-11 {
        stroke-width: 0px;
      }

      .cls-2 {
        fill: #e31973;
      }

      .cls-3 {
        fill: #1a84e6;
      }

      .cls-4 {
        fill: #f71a32;
      }

      .cls-5 {
        fill: #ff6a04;
      }

      .cls-6 {
        fill: #fff;
      }

      .cls-7 {
        fill: #fa4b14;
      }

      .cls-8 {
        fill: #25b6ed;
      }

      .cls-9 {
        fill: #6614d4;
      }

      .cls-10 {
        fill: #14e596;
      }

      .cls-11 {
        fill: #fbb91d;
      }
    </style>
  </defs>
  <g id="Layer_1-2" data-name="Layer 1">
    <g>
      <path class="cls-6" d="M1.78,3.97H0v1.78h1.78v-1.78ZM1.78,5.96H0v1.78h1.78v-1.78ZM1.78,7.95H0v1.78h1.78v-1.78ZM1.78,9.94H0v1.78h1.78v-1.78ZM1.78,11.92H0v1.78h1.78v-1.78ZM1.78,13.91H0v1.78h1.78v-1.78ZM1.78,15.9H0v1.78h1.78v-1.78ZM1.78,17.89H0v1.78h1.78v-1.78ZM3.77,0h-1.78v1.78h1.78V0ZM3.77,1.99h-1.78v1.78h1.78v-1.78ZM3.77,3.97h-1.78v1.78h1.78v-1.78ZM3.77,5.96h-1.78v1.78h1.78v-1.78ZM3.77,7.95h-1.78v1.78h1.78v-1.78ZM3.77,9.94h-1.78v1.78h1.78v-1.78ZM3.77,11.92h-1.78v1.78h1.78v-1.78ZM3.77,13.91h-1.78v1.78h1.78v-1.78ZM3.77,15.9h-1.78v1.78h1.78v-1.78ZM25.32,5.96h-1.78v1.78h1.78v-1.78ZM25.32,7.95h-1.78v1.78h1.78v-1.78ZM25.32,9.94h-1.78v1.78h1.78v-1.78ZM25.32,11.92h-1.78v1.78h1.78v-1.78ZM25.32,13.91h-1.78v1.78h1.78v-1.78ZM27.32,1.99h-1.78v1.78h1.78v-1.78ZM27.32,3.97h-1.78v1.78h1.78v-1.78ZM27.32,5.96h-1.78v1.78h1.78v-1.78ZM27.32,7.95h-1.78v1.78h1.78v-1.78ZM27.32,9.94h-1.78v1.78h1.78v-1.78ZM27.32,11.92h-1.78v1.78h1.78v-1.78ZM27.32,13.91h-1.78v1.78h1.78v-1.78ZM29.32,1.99h-1.78v1.78h1.78v-1.78ZM29.32,3.97h-1.78v1.78h1.78v-1.78ZM29.32,13.91h-1.78v1.78h1.78v-1.78ZM29.32,15.9h-1.78v1.78h1.78v-1.78ZM29.32,17.89h-1.78v1.78h1.78v-1.78ZM31.31,0h-1.78v1.78h1.78V0ZM31.31,1.99h-1.78v1.78h1.78v-1.78ZM31.31,15.9h-1.78v1.78h1.78v-1.78ZM31.31,17.89h-1.78v1.78h1.78v-1.78ZM33.31,0h-1.78v1.78h1.78V0ZM33.31,1.99h-1.78v1.78h1.78v-1.78ZM33.31,15.9h-1.78v1.78h1.78v-1.78ZM33.31,17.89h-1.78v1.78h1.78v-1.78ZM35.31,0h-1.78v1.78h1.78V0ZM35.31,1.99h-1.78v1.78h1.78v-1.78ZM35.31,7.95h-1.78v1.78h1.78v-1.78ZM35.31,9.94h-1.78v1.78h1.78v-1.78ZM35.31,15.9h-1.78v1.78h1.78v-1.78ZM35.31,17.89h-1.78v1.78h1.78v-1.78ZM37.31,0h-1.78v1.78h1.78V0ZM37.31,1.99h-1.78v1.78h1.78v-1.78ZM37.31,7.95h-1.78v1.78h1.78v-1.78ZM37.31,9.94h-1.78v1.78h1.78v-1.78ZM37.31,15.9h-1.78v1.78h1.78v-1.78ZM37.31,17.89h-1.78v1.78h1.78v-1.78ZM39.3,1.99h-1.78v1.78h1.78v-1.78ZM39.3,3.97h-1.78v1.78h1.78v-1.78ZM39.3,7.95h-1.78v1.78h1.78v-1.78ZM39.3,9.94h-1.78v1.78h1.78v-1.78ZM39.3,13.91h-1.78v1.78h1.78v-1.78ZM39.3,15.9h-1.78v1.78h1.78v-1.78ZM41.3,1.99h-1.78v1.78h1.78v-1.78ZM41.3,3.97h-1.78v1.78h1.78v-1.78ZM41.3,7.95h-1.78v1.78h1.78v-1.78ZM41.3,9.94h-1.78v1.78h1.78v-1.78ZM41.3,11.92h-1.78v1.78h1.78v-1.78ZM41.3,13.91h-1.78v1.78h1.78v-1.78ZM41.3,15.9h-1.78v1.78h1.78v-1.78ZM43.3,9.94h-1.78v1.78h1.78v-1.78ZM43.3,11.92h-1.78v1.78h1.78v-1.78ZM5.76,0h-1.78v1.78h1.78V0ZM5.76,1.99h-1.78v1.78h1.78v-1.78ZM5.76,11.92h-1.78v1.78h1.78v-1.78ZM5.76,13.91h-1.78v1.78h1.78v-1.78ZM7.75,0h-1.78v1.78h1.78V0ZM7.75,1.99h-1.78v1.78h1.78v-1.78ZM7.75,11.92h-1.78v1.78h1.78v-1.78ZM7.75,13.91h-1.78v1.78h1.78v-1.78ZM9.75,0h-1.78v1.78h1.78V0ZM9.75,1.99h-1.78v1.78h1.78v-1.78ZM9.75,11.92h-1.78v1.78h1.78v-1.78ZM9.75,13.91h-1.78v1.78h1.78v-1.78ZM11.74,0h-1.78v1.78h1.78V0ZM11.74,1.99h-1.78v1.78h1.78v-1.78ZM11.74,11.92h-1.78v1.78h1.78v-1.78ZM11.74,13.91h-1.78v1.78h1.78v-1.78ZM13.73,0h-1.78v1.78h1.78V0ZM13.73,1.99h-1.78v1.78h1.78v-1.78ZM13.73,11.92h-1.78v1.78h1.78v-1.78ZM15.72,0h-1.78v1.78h1.78V0ZM15.72,1.99h-1.78v1.78h1.78v-1.78ZM15.72,3.97h-1.78v1.78h1.78v-1.78ZM15.72,9.94h-1.78v1.78h1.78v-1.78ZM15.72,11.92h-1.78v1.78h1.78v-1.78ZM17.71,1.99h-1.78v1.78h1.78v-1.78ZM17.71,3.97h-1.78v1.78h1.78v-1.78ZM17.71,5.96h-1.78v1.78h1.78v-1.78ZM17.71,7.95h-1.78v1.78h1.78v-1.78ZM17.71,9.94h-1.78v1.78h1.78v-1.78ZM17.71,11.92h-1.78v1.78h1.78v-1.78ZM19.71,3.97h-1.78v1.78h1.78v-1.78ZM19.71,5.96h-1.78v1.78h1.78v-1.78ZM19.71,7.95h-1.78v1.78h1.78v-1.78ZM19.71,9.94h-1.78v1.78h1.78v-1.78Z"/>
      <g>
        <polygon class="cls-6" points="77.43 .02 76.91 .02 76.5 .02 75.92 .02 75.92 .37 76.5 .37 76.5 2.34 76.91 2.34 76.91 .37 77.43 .37 77.43 .02"/>
        <polygon class="cls-6" points="79.58 .02 78.86 1.51 78.13 .02 77.71 .02 77.71 2.34 78.13 2.34 78.13 .89 78.64 1.95 79.07 1.95 79.58 .89 79.58 2.34 80 2.34 80 .02 79.58 .02"/>
        <polygon class="cls-6" points="63.82 2.01 62.57 2.01 62.57 .02 61.15 .02 61.15 5.42 62.57 5.42 62.57 3.43 63.82 3.43 63.82 5.44 65.24 5.44 65.24 3.39 64.58 3.39 64.58 2.07 65.24 2.07 65.24 .02 63.82 .02 63.82 2.01"/>
        <polygon class="cls-6" points="66.59 .02 65.88 .02 65.88 5.42 66.59 5.42 67.3 5.42 69.97 5.42 69.97 4 67.3 4 67.3 3.43 69.26 3.43 69.26 2.01 67.3 2.01 67.3 1.43 69.97 1.43 69.97 .02 67.3 .02 66.59 .02"/>
        <polygon class="cls-6" points="62.52 7.16 61.81 7.16 61.81 12.57 62.52 12.57 63.23 12.57 65.9 12.57 65.9 11.15 63.23 11.15 63.23 10.58 65.2 10.58 65.2 9.16 63.23 9.16 63.23 8.58 65.9 8.58 65.9 7.16 63.23 7.16 62.52 7.16"/>
        <polygon class="cls-6" points="74.68 .02 73.34 .02 71.92 .02 70.59 .02 70.59 1.43 71.92 1.43 71.92 5.42 73.34 5.42 73.34 1.43 74.68 1.43 74.68 .02"/>
        <polygon class="cls-6" points="57.9 18.24 57.9 17.67 59.86 17.67 59.86 16.25 57.9 16.25 57.9 15.67 60.57 15.67 60.57 14.26 57.9 14.26 57.19 14.26 56.48 14.26 56.48 19.66 57.19 19.66 57.9 19.66 57.9 18.24"/>
        <polygon class="cls-6" points="65.28 14.26 63.94 14.26 62.52 14.26 61.19 14.26 61.19 15.67 62.52 15.67 62.52 19.66 63.94 19.66 63.94 15.67 65.28 15.67 65.28 14.26"/>
        <path class="cls-6" d="M50.45.73V.02h-3.38v5.41h1.42v-1.94h1.96v-.82h.71V.73h-.71ZM49.74,2.07h-1.25v-.63h1.25v.63Z"/>
        <path class="cls-6" d="M55.14.73V.02h-2.67v.71h-.71v4h.71v.7h2.67v-.7h.71V.73h-.71ZM54.44,4h-1.25V1.43h1.25v2.57Z"/>
        <path class="cls-6" d="M55.14,14.97v-.71h-2.67v.71h-.71v4h.71v.7h2.67v-.7h.71v-4h-.71ZM54.44,18.24h-1.25v-2.57h1.25v2.57Z"/>
        <polygon class="cls-6" points="60.57 2.14 60.57 .72 59.88 .72 59.88 .02 57.9 .02 57.19 .02 57.19 .73 56.48 .73 56.48 4.72 57.19 4.72 57.19 5.42 57.9 5.42 59.88 5.42 59.88 4.81 60.57 4.81 60.57 3.39 59.15 3.39 59.15 4 57.9 4 57.9 1.43 59.15 1.43 59.15 2.14 60.57 2.14"/>
        <polygon class="cls-6" points="49.07 9.12 49.07 10.54 49.74 10.54 49.74 11.15 48.49 11.15 48.49 8.58 50.45 8.58 50.45 7.16 48.49 7.16 47.78 7.16 47.78 7.82 47.07 7.82 47.07 8.58 47.07 11.15 47.07 11.92 47.78 11.92 47.78 12.57 48.49 12.57 49.74 12.57 50.45 12.57 50.45 11.92 51.16 11.92 51.16 11.15 51.16 10.54 51.16 9.13 51.16 9.12 49.07 9.12"/>
        <path class="cls-6" d="M55.14,7.82v-.66h-2.67v.66h-.71v4.75h1.42v-1.35h1.25v1.35h1.42v-4.75h-.71ZM54.44,9.8h-1.25v-1.22h1.25v1.22Z"/>
        <polygon class="cls-6" points="67.97 7.16 67.27 7.16 67.27 7.82 66.56 7.82 66.56 8.58 66.56 9.12 66.56 9.91 67.27 9.91 67.27 10.54 69.24 10.54 69.24 11.15 66.56 11.15 66.56 12.57 69.24 12.57 69.94 12.57 69.94 11.92 70.65 11.92 70.65 11.15 70.65 10.54 70.65 9.83 69.94 9.83 69.94 9.12 67.97 9.12 67.97 8.58 70.65 8.58 70.65 7.16 67.97 7.16"/>
        <polygon class="cls-6" points="48.48 14.26 47.78 14.26 47.78 14.92 47.07 14.92 47.07 15.67 47.07 16.21 47.07 17 47.78 17 47.78 17.63 49.75 17.63 49.75 18.24 47.07 18.24 47.07 19.66 49.75 19.66 50.45 19.66 50.45 19.02 51.16 19.02 51.16 18.24 51.16 17.63 51.16 16.92 50.45 16.92 50.45 16.21 48.48 16.21 48.48 15.67 51.16 15.67 51.16 14.26 48.48 14.26"/>
        <polygon class="cls-6" points="60.57 7.16 60.57 7.82 59.86 7.82 59.86 8.44 59.15 8.44 59.15 9.13 58.6 9.13 58.6 8.44 57.89 8.44 57.89 7.82 57.18 7.82 57.18 7.16 56.48 7.16 56.48 12.57 57.89 12.57 57.89 10.56 58.52 10.56 58.52 11.22 59.23 11.22 59.23 10.56 59.86 10.56 59.86 12.57 61.27 12.57 61.27 7.16 60.57 7.16"/>
      </g>
      <rect class="cls-9" y="1.99" width="1.78" height="1.78"/>
      <rect class="cls-8" x="1.99" y="17.89" width="1.78" height="1.78"/>
      <rect class="cls-1" x="11.95" y="13.91" width="1.78" height="1.78"/>
      <rect class="cls-5" x="15.94" width="1.78" height="1.78"/>
      <rect class="cls-2" x="23.55" y="3.97" width="1.78" height="1.78"/>
      <rect class="cls-11" x="27.54" width="1.78" height="1.78"/>
      <rect class="cls-3" x="25.54" y="15.9" width="1.78" height="1.78"/>
      <rect class="cls-7" x="37.53" y="17.89" width="1.78" height="1.78"/>
      <rect class="cls-4" x="41.52" y="13.91" width="1.78" height="1.78"/>
      <rect class="cls-10" x="41.52" y="7.95" width="1.78" height="1.78"/>
    </g>
  </g>
</svg>