<?xml version="1.0" encoding="UTF-8"?>
<svg id="Layer_2" data-name="Layer 2" xmlns="http://www.w3.org/2000/svg" viewBox="0 0 80 14.18">
  <defs>
    <style>
      .cls-1 {
        fill: #fff;
        stroke-width: 0px;
      }
    </style>
  </defs>
  <g id="Layer_1-2" data-name="Layer 1">
    <g>
      <g>
        <path class="cls-1" d="M19.06,6.75c-.65-.49-1.07-.81-1.25-.97-.11-.1-.23-.24-.37-.4-.14-.17-.21-.39-.21-.66,0-.35.11-.63.32-.84.21-.21.5-.31.86-.31.77,0,1.23.47,1.37,1.4h.28s0-1.39,0-1.39c0-.06-.01-.11-.04-.13-.15-.17-.65-.25-1.51-.25-.64,0-1.18.15-1.62.45-.51.35-.76.82-.76,1.43,0,.36.09.67.28.93.19.26.54.57,1.05.93.8.57,1.33,1,1.59,1.31.26.31.39.65.38,1.03,0,.41-.14.74-.42,1.01-.28.27-.62.4-1.04.4-.6,0-1.06-.24-1.38-.73-.13-.2-.23-.53-.31-.99h-.27s0,1.53,0,1.53c0,.12.04.19.12.23.15.07.4.15.78.21.37.07.71.1,1,.11.8,0,1.44-.19,1.93-.58.49-.39.74-.9.74-1.54,0-.4-.11-.75-.32-1.06-.22-.29-.62-.66-1.2-1.1Z"/>
        <path class="cls-1" d="M26.33,6.07c-.4-.46-.94-.7-1.61-.7-.77,0-1.39.29-1.87.88v-.89c-.47.26-1.08.41-1.84.45v.27s.25,0,.25,0c.23,0,.39.04.48.1.09.07.13.21.13.43l-.02,5.64c0,.47-.04.75-.12.85-.08.1-.33.17-.75.23v.28s2.96.01,2.96.01v-.28c-.55-.05-.87-.13-.97-.22-.1-.1-.15-.39-.15-.87v-1.46c.42.17.83.25,1.23.25.83,0,1.51-.29,2.05-.87.55-.58.82-1.33.82-2.24,0-.78-.2-1.4-.6-1.87ZM25.37,10.04c-.32.44-.76.66-1.32.66-.43,0-.84-.17-1.22-.52v-1.91c0-.58.04-1,.1-1.26.17-.75.6-1.12,1.3-1.11.5,0,.9.2,1.2.61.29.4.44.96.43,1.66,0,.81-.16,1.44-.48,1.88Z"/>
        <path class="cls-1" d="M32.26,10.29c-.16.05-.28.07-.37.07-.15,0-.24-.06-.3-.18-.05-.12-.08-.33-.08-.64v-2.41c.01-.61-.13-1.05-.42-1.33-.29-.28-.75-.41-1.39-.42-.51,0-.98.09-1.39.27-.15.06-.25.17-.28.31l-.17.61c-.01.05.01.09.09.11l.34.09s.06.01.09.01c.06,0,.13-.09.23-.26.29-.53.62-.79,1.01-.79.61,0,.92.53.93,1.58l-1.18.45c-.48.18-.83.33-1.04.46-.55.32-.83.77-.83,1.35,0,.44.13.79.39,1.06.26.27.6.41,1.02.41.23,0,.5-.1.79-.3l.84-.55c.02.31.1.59.26.86l1.54-.48-.07-.3ZM30.54,8.59c0,1.2-.4,1.8-1.19,1.8-.27,0-.48-.09-.65-.26-.16-.17-.24-.39-.24-.66,0-.6.37-1.05,1.11-1.36.24-.1.57-.22.97-.37v.84Z"/>
        <path class="cls-1" d="M38.54,10.31c-.16.05-.28.07-.36.07-.26,0-.39-.27-.39-.82l.03-6.58c-.59.22-1.2.32-1.85.32v.29s.29,0,.29,0c.21,0,.36.03.44.1.09.07.13.24.13.52v1.38c-.37-.12-.77-.18-1.18-.18-.87,0-1.57.26-2.11.78-.54.53-.81,1.22-.82,2.07,0,.79.23,1.46.69,2,.47.54,1.04.81,1.72.81.26,0,.58-.11.95-.33l.73-.42v.07c.02.28.09.51.24.69l1.56-.48-.07-.3ZM36.82,9.11c0,.43-.06.72-.19.86-.13.14-.29.26-.5.36-.22.11-.43.16-.63.16-.56,0-.99-.3-1.31-.88-.26-.49-.4-1.03-.4-1.64,0-.59.14-1.09.42-1.5.32-.47.76-.7,1.32-.7.56,0,.99.22,1.3.67v2.67Z"/>
        <path class="cls-1" d="M42.12,10.5c-.39,0-.73-.09-1.01-.26-.69-.39-1.04-1.14-1.05-2.26h3.49c0-.47-.03-.86-.11-1.15-.28-.93-.91-1.39-1.9-1.39-.74,0-1.34.25-1.79.75-.49.54-.73,1.2-.73,1.98,0,.81.24,1.52.73,2.12.45.55,1.16.83,2.11.83h.28s1.41-.67,1.41-.67l-.16-.33c-.49.24-.91.37-1.26.37ZM40.18,6.84c.21-.7.64-1.05,1.27-1.05.34,0,.62.11.84.34.22.23.33.5.33.84,0,.42-.23.63-.7.63h-1.87c.03-.33.07-.58.12-.76Z"/>
        <path class="cls-1" d="M49.49,5.61l-.12-.13c-.46.1-.98.16-1.55.15-.1,0-.19,0-.28-.01-.3-.1-.61-.15-.96-.15-.64,0-1.17.16-1.57.5-.41.34-.61.78-.61,1.33,0,.78.41,1.36,1.23,1.73l-1.04.85s0,.04,0,.09c0,.04-.01.08-.01.1,0,.33.23.54.7.66l-1.14.61c-.09.05-.13.18-.13.39,0,.44.11.82.34,1.12.2.27.5.48.89.65.4.17.82.25,1.28.25.7,0,1.28-.16,1.73-.49.57-.41.86-.93.86-1.54,0-.61-.28-1.04-.85-1.3-.26-.12-.66-.22-1.2-.3-.56-.08-.95-.16-1.16-.24-.14-.06-.22-.14-.21-.26,0-.13.1-.27.3-.43.2,0,.34,0,.43,0,.61,0,1.11-.17,1.52-.53.41-.35.61-.79.62-1.32,0-.49-.15-.91-.46-1.26h1.12s.31-.45.31-.45ZM45.76,10.79l1.06.19c.25.04.47.09.66.15.5.15.76.48.76.96,0,.37-.16.68-.47.92-.31.24-.71.35-1.2.35-.49,0-.9-.13-1.22-.39-.32-.26-.48-.59-.48-.99,0-.25.06-.45.19-.62.13-.17.35-.36.7-.58ZM46.59,8.87c-.33,0-.61-.17-.82-.5-.21-.33-.32-.74-.31-1.24,0-.44.1-.77.29-1.02.19-.25.45-.37.78-.37.31,0,.55.15.73.45.18.3.26.71.26,1.24,0,.96-.31,1.44-.93,1.44Z"/>
        <path class="cls-1" d="M54.25,10.37c-.16.05-.28.07-.37.07-.15,0-.25-.06-.3-.18-.05-.12-.08-.33-.08-.64v-2.41c.01-.61-.13-1.05-.42-1.33-.29-.28-.75-.41-1.39-.42-.51,0-.98.09-1.39.27-.15.06-.24.17-.28.31l-.17.61c-.01.05.01.09.09.11l.34.09s.06.01.09.01c.06,0,.13-.09.23-.26.28-.53.62-.79,1.01-.79.62,0,.92.53.93,1.58l-1.19.45c-.48.18-.82.33-1.04.46-.55.32-.82.77-.83,1.35,0,.44.12.79.38,1.06.26.27.6.41,1.02.41.23,0,.5-.1.79-.3l.84-.55c.02.31.1.59.26.86l1.54-.48-.06-.3ZM52.53,8.68c0,1.2-.4,1.8-1.19,1.8-.27,0-.48-.09-.64-.26-.16-.17-.24-.39-.24-.66,0-.6.37-1.05,1.11-1.36.25-.1.57-.22.97-.37v.84Z"/>
        <path class="cls-1" d="M63.36,9.72v-2.27c.01-.38-.01-.67-.05-.88-.16-.7-.65-1.05-1.47-1.06-.74,0-1.39.31-1.97.94-.16-.35-.34-.6-.55-.75-.21-.14-.5-.21-.87-.21-.8,0-1.46.31-1.98.94v-.95c-.48.27-1.1.42-1.84.46v.27s.25,0,.25,0c.24,0,.4.04.49.11.09.07.13.21.13.43v2.93c-.01.49-.05.78-.13.87-.08.09-.33.16-.75.2v.28s2.72.01,2.72.01v-.28c-.43-.05-.69-.11-.76-.21-.08-.09-.11-.38-.11-.87v-1.27c0-.96.14-1.59.41-1.9.24-.29.58-.44,1.03-.43.4,0,.67.13.82.36.15.24.22.66.22,1.26v1.98c0,.49-.05.78-.12.87-.08.09-.33.16-.75.2v.28s2.72.01,2.72.01v-.28c-.43-.05-.69-.11-.76-.21-.08-.09-.12-.38-.11-.87v-1.27c0-.47.02-.8.04-.98.05-.37.17-.68.34-.9.24-.3.58-.46,1.04-.45.39,0,.67.13.82.37.16.24.24.66.24,1.25v1.98c0,.49-.05.78-.13.87-.08.09-.33.16-.75.2v.28s2.71.01,2.71.01v-.28c-.43-.05-.69-.11-.76-.2-.07-.09-.11-.38-.11-.87Z"/>
        <path class="cls-1" d="M65.83,4.82c.18,0,.33-.06.46-.18.12-.12.19-.27.19-.45s-.06-.32-.19-.45c-.13-.12-.27-.18-.44-.19-.17,0-.32.06-.45.18-.13.12-.19.27-.19.43,0,.18.06.33.18.46.12.12.27.18.44.18Z"/>
        <path class="cls-1" d="M66.4,9.68l.02-4.19c-.49.27-1.1.42-1.85.46v.27s.25,0,.25,0c.24,0,.4.03.49.1.09.07.13.21.13.43v2.93c-.01.49-.05.78-.13.87-.08.09-.33.16-.75.2v.28s2.71.01,2.71.01v-.28c-.43-.05-.69-.12-.76-.22-.07-.1-.11-.39-.11-.86Z"/>
        <path class="cls-1" d="M73.27,9.71v-2.29c.01-.47-.02-.8-.08-.99-.21-.62-.72-.92-1.5-.93-.86,0-1.58.31-2.17.93v-.94c-.47.26-1.08.41-1.84.45v.27s.25,0,.25,0c.23,0,.39.03.48.1.09.07.13.21.13.43v2.94c-.01.46-.05.74-.13.84-.08.1-.33.17-.75.23v.28s2.72.01,2.72.01v-.28c-.43-.06-.69-.14-.76-.23-.07-.09-.11-.38-.11-.85v-1.33c0-.48.04-.86.1-1.12.17-.77.67-1.16,1.49-1.15.46,0,.77.12.95.36.18.24.27.66.27,1.25v2.01c0,.46-.04.74-.1.83-.08.12-.34.2-.78.25v.28s2.71.01,2.71.01v-.28c-.44-.05-.7-.12-.77-.23-.06-.08-.1-.36-.1-.85Z"/>
        <path class="cls-1" d="M80,5.67l-.12-.13c-.46.1-.98.16-1.55.15-.1,0-.19,0-.28,0-.3-.1-.61-.15-.96-.15-.64,0-1.17.16-1.57.5-.41.34-.61.78-.61,1.33,0,.78.41,1.36,1.23,1.73l-1.05.85s0,.04,0,.09c0,.04-.01.08-.01.1,0,.33.24.54.7.66l-1.14.61c-.09.05-.13.18-.13.39,0,.44.11.82.34,1.12.2.27.5.48.89.65.39.17.82.25,1.27.25.7,0,1.28-.16,1.73-.49.57-.41.86-.93.86-1.54,0-.61-.28-1.04-.85-1.3-.26-.12-.66-.22-1.2-.3-.56-.08-.95-.16-1.16-.24-.15-.06-.22-.14-.22-.26,0-.13.11-.27.31-.43.2,0,.34,0,.42,0,.61,0,1.12-.17,1.52-.53.41-.35.61-.79.61-1.32,0-.49-.15-.91-.46-1.26h1.12s.31-.45.31-.45ZM76.27,10.86l1.06.19c.25.04.47.09.66.15.5.16.76.48.76.96,0,.37-.16.67-.47.91-.31.24-.71.35-1.19.35-.49,0-.9-.13-1.22-.39-.32-.26-.48-.59-.48-.99,0-.25.06-.45.19-.62.12-.17.36-.36.7-.58ZM77.1,8.93c-.33,0-.6-.17-.82-.5-.21-.33-.32-.74-.32-1.24,0-.44.1-.77.29-1.02.19-.25.45-.37.78-.37.31,0,.56.15.73.45.18.3.26.71.26,1.24,0,.96-.31,1.44-.93,1.44Z"/>
      </g>
      <path class="cls-1" d="M7.96,12.43c.66.72,1.71,1.1,3.12,1.1v.65c-1.61,0-2.82-.45-3.6-1.31-.97-1.08-.88-2.36-.87-2.5l.09-.96.93.25c.41.11,1.71.31,2.28-.19.72-.64.96-2.21-.03-3.84-.89-1.47-2.89-3.01-3.78-3.66-.9.64-2.91,2.18-3.81,3.63-1,1.62-.78,3.19-.06,3.84.56.51,1.87.31,2.28.21l.93-.24.09.96c.01.14.1,1.43-.89,2.5-.79.86-2,1.29-3.61,1.29v-.65c1.42,0,2.47-.36,3.13-1.08.81-.88.72-1.96.72-2l-.02-.19-.19.05s-1.93.5-2.87-.35c-.91-.83-1.24-2.74-.06-4.66,1.13-1.83,3.83-3.73,4.36-4.09.52.37,3.21,2.28,4.33,4.12,1.17,1.93.83,3.84-.1,4.66-.95.84-2.86.33-2.88.33l-.19-.05-.02.19s-.1,1.13.7,2.01ZM10.99,10.67c1.24-1.1,1.74-3.48.28-5.89C9.93,2.57,6.7.39,6.56.3l-.45-.3-.45.3c-.14.09-3.39,2.24-4.75,4.45-1.48,2.4-1,4.78.24,5.89.74.66,1.76.78,2.55.75-.07.13-.16.26-.27.38-.47.5-1.28.75-2.4.75v.65c1.31,0,2.29-.32,2.88-.97.52-.57.62-1.25.64-1.57-.55.11-2.08.33-2.97-.47-1.04-.93-1.41-2.97-.12-5.07C2.75,3,5.89.93,6.02.84l.09-.06.09.06c.13.09,3.25,2.19,4.52,4.28,1.28,2.1.88,4.14-.16,5.07-.9.8-2.42.57-2.97.45.01.32.1,1,.62,1.57.59.65,1.56.99,2.88.99v-.65c-1.12,0-1.92-.26-2.39-.77-.12-.12-.2-.26-.27-.39.79.04,1.82-.07,2.56-.73Z"/>
    </g>
  </g>
</svg>