<?xml version="1.0" encoding="UTF-8"?>
<svg id="Layer_2" data-name="Layer 2" xmlns="http://www.w3.org/2000/svg" viewBox="0 0 82.5 34.1">
  <defs>
    <style>
      .cls-1 {
        fill: #fff;
        stroke-width: 0px;
      }
    </style>
  </defs>
  <g id="Layer_1-2" data-name="Layer 1">
    <path class="cls-1" d="M6.57,0c4.26,0,6.45,2.55,6.45,7.01v.88h-4.14v-1.16c0-1.99-.8-2.75-2.19-2.75s-2.19.76-2.19,2.75c0,5.74,8.57,6.81,8.57,14.78,0,4.46-2.23,7.01-6.53,7.01S0,25.97,0,21.51v-1.71h4.14v1.99c0,1.99.88,2.71,2.27,2.71s2.27-.72,2.27-2.71C8.68,16.06.12,14.98.12,7.01.12,2.55,2.31,0,6.57,0ZM28.56,7.21v3.63c0,4.46-2.15,6.89-6.53,6.89h-2.07v10.48h-4.38V.32h6.45c4.38,0,6.53,2.43,6.53,6.89ZM19.96,4.3v9.44h2.07c1.39,0,2.15-.64,2.15-2.63v-4.18c0-1.99-.76-2.63-2.15-2.63h-2.07ZM39.96,28.21c-.24-.72-.4-1.16-.4-3.43v-4.38c0-2.59-.88-3.55-2.87-3.55h-1.51v11.35h-4.38V.32h6.61c4.54,0,6.49,2.11,6.49,6.41v2.19c0,2.87-.92,4.74-2.87,5.66,2.19.92,2.91,3.03,2.91,5.94v4.3c0,1.35.04,2.35.48,3.39h-4.46ZM35.18,4.3v8.57h1.71c1.63,0,2.63-.72,2.63-2.95v-2.75c0-1.99-.68-2.87-2.23-2.87h-2.11ZM46.81.32h4.38v27.89h-4.38V.32ZM67.48,6.73v1c0,2.87-.88,4.7-2.83,5.62,2.35.92,3.27,3.03,3.27,5.98v2.27c0,4.3-2.27,6.61-6.65,6.61h-6.89V.32h6.61c4.54,0,6.49,2.11,6.49,6.41ZM58.76,4.3v7.37h1.71c1.63,0,2.63-.72,2.63-2.95v-1.55c0-1.99-.68-2.87-2.23-2.87h-2.11ZM58.76,15.66v8.57h2.51c1.47,0,2.27-.68,2.27-2.75v-2.43c0-2.59-.84-3.39-2.83-3.39h-1.95ZM74.93,12.07h6.02v3.98h-6.02v8.17h7.57v3.98h-11.95V.32h11.95v3.98h-7.57v7.77ZM82.5,30.19H0v3.9h82.5v-3.9Z"/>
  </g>
</svg>