<svg width="116" height="40" viewBox="0 0 116 40" fill="none" xmlns="http://www.w3.org/2000/svg">
<path fill-rule="evenodd" clip-rule="evenodd" d="M79.0503 13.2C78.2503 13.2 77.5503 13.8 77.5503 14.6C77.5503 15.4 78.2503 16 79.0503 16C79.8503 16 80.5503 15.4 80.5503 14.6C80.5503 13.8 79.9503 13.2 79.0503 13.2ZM57.7502 19.3C56.4502 18.9 55.1502 18.5 55.1502 17.3C55.1502 16.3 56.0502 15.8 57.1502 15.8C58.1502 15.8 59.1502 16.2 59.8502 17L61.2502 15.4C60.2502 14.2 58.7502 13.5 57.2502 13.6C54.9502 13.6 52.8502 15 52.8502 17.5C52.8502 20 54.8502 20.7 56.5502 21.2C57.9502 21.6 59.2502 22 59.2502 23.1C59.2502 24 58.4502 24.6 57.2502 24.6C55.9502 24.6 54.8502 24 54.0502 23L52.4502 24.6C53.5502 26 55.2502 26.8 57.0502 26.8C59.3502 26.8 61.4502 25.4 61.4502 22.9C61.6502 20.4 59.5502 19.8 57.7502 19.3ZM72.3501 23.6L70.2501 17.4H68.1501L66.0501 23.6L64.0501 17.4H61.6501L65.0501 26.6H67.0501L69.1501 20.4L71.3501 26.6H73.3501L76.7501 17.4H74.2501L72.3501 23.6ZM77.9502 17.4H80.1502V26.6H77.9502V17.4ZM84.0502 18.7C84.5502 17.8 85.6502 17.2 86.9502 17.2C88.8502 17.2 90.2502 18.3 90.2502 20.7V26.6H88.1502V21.1C88.1502 19.9 87.3502 19.2 86.3502 19.2C85.2502 19.2 84.1502 20 84.1502 21.7V26.6H81.9502V17.4H84.0502V18.7ZM96.4501 24.7C95.6501 24.7 94.9501 24.2 94.9501 23.2V19.3H98.0501L96.9501 17.3H94.9501V13.5H92.7501V17.3H90.1501L91.2501 19.3H92.6501V23.5C92.6501 25.6 94.1501 26.6 95.8501 26.6C96.7501 26.6 97.6501 26.3 98.3501 25.8L97.7501 24.2C97.4501 24.5 96.9501 24.7 96.4501 24.7ZM102.85 23.2C102.85 24.2 103.55 24.7 104.35 24.7C104.85 24.7 105.35 24.5 105.75 24.2L106.35 25.8C105.65 26.3 104.75 26.6 103.85 26.6C102.15 26.6 100.65 25.6 100.65 23.5V19.3H99.2501L98.1501 17.3H100.65V13.5H102.85V17.3H104.85L105.95 19.3H102.85V23.2ZM107.75 17.4C107.25 17.4 106.75 17.8 106.75 18.4C106.75 19 107.15 19.4 107.75 19.4C108.35 19.4 108.75 19 108.75 18.4C108.65 17.8 108.25 17.4 107.75 17.4ZM107.75 19.2C107.25 19.2 106.95 18.9 106.85 18.4C106.85 17.9 107.15 17.6 107.65 17.5C108.15 17.4 108.45 17.8 108.55 18.3C108.55 18.8 108.25 19.2 107.75 19.2ZM107.75 17.8C107.95 17.8 108.15 17.9 108.15 18.1C108.15 18.3 108.05 18.4 107.95 18.4L108.15 18.8H107.85L107.65 18.5H107.45V18.8H107.25V17.8H107.75ZM107.55 18V18.3H107.75C107.85 18.3 107.95 18.2 107.95 18.1C107.95 18 107.85 18 107.75 18H107.55Z" fill="white"/>
<path d="M37.95 0H22.55L14.95 13.3L18.75 19.8L22.65 26.5L22.05 25.6L18.45 20.4L18.05 19.8H11.15L7.25 26.7L14.95 40H30.25L37.95 26.7L38.05 26.5L34.25 19.8L30.35 13.2L34.95 19.8H41.85H41.95L45.65 13.3L37.95 0Z" fill="#E84E1C"/>
</svg>
