<svg width="116" height="40" viewBox="0 0 116 40" fill="none" xmlns="http://www.w3.org/2000/svg">
<g clip-path="url(#clip0_192_7072)">
<path d="M29.664 21.569L10.39 2.273C9.55999 1.426 10.14 0 11.328 0H30.602C31.337 0 31.932 0.596 31.932 1.332V20.628C31.932 21.804 30.508 22.4 29.664 21.569ZM36.453 21.569L55.727 2.273C56.557 1.443 55.977 0 54.789 0H35.515C35.3402 -1.97666e-07 35.1671 0.0344674 35.0056 0.101431C34.8441 0.168395 34.6974 0.266541 34.5738 0.390255C34.4503 0.513969 34.3524 0.660823 34.2857 0.822417C34.2189 0.984011 34.1847 1.15717 34.185 1.332V20.628C34.185 21.804 35.625 22.4 36.453 21.569ZM60.155 21.569L79.428 2.273C80.258 1.443 79.678 0 78.49 0H59.216C59.0412 -1.97666e-07 58.8681 0.0344674 58.7066 0.101431C58.5451 0.168395 58.3984 0.266541 58.2748 0.390255C58.1513 0.513969 58.0534 0.660823 57.9867 0.822417C57.9199 0.984011 57.8857 1.15717 57.886 1.332V20.628C57.886 21.804 59.326 22.4 60.155 21.569ZM46.474 39.981C46.549 39.589 48.542 34.719 49.174 32.946C49.174 32.946 51.149 37.723 52.099 39.981H55.359V27.366H53.011V36.342L50.31 29.605H48.187L45.486 36.155V27.366H43.158V39.981H46.473H46.474ZM59.94 27.366L56.401 40H59.139L60.052 36.828H63.274L64.187 40H67.055L63.479 27.366H59.94ZM60.61 34.849L61.654 31.229L62.697 34.849H60.61ZM89.442 27.366L85.904 40H88.641L89.554 36.828H92.776L93.69 40H96.558L92.982 27.366H89.443H89.442ZM90.112 34.849L91.156 31.229L92.199 34.849H90.113H90.112ZM81.042 27.366H77.504V40H80.856C84.6 40 85.903 37.686 85.903 33.431C85.885 29.437 84.525 27.366 81.043 27.366H81.042ZM80.819 38.134H79.943V29.232H80.838C82.793 29.232 83.371 30.52 83.371 33.412C83.371 36.809 82.719 38.134 80.819 38.134ZM75.976 38.022V37.705H71.283L75.697 29.979V27.366H67.744V29.792H72.773L67.744 38.059V39.981H75.976V38.021V38.022ZM103.84 27.366H103.541V34.42C103.393 34.01 100.468 27.366 100.468 27.366H97.656V40H100.115V32.74L103.746 40H106V27.366H103.84Z" fill="white"/>
</g>
<defs>
<clipPath id="clip0_192_7072">
<rect width="116" height="40" fill="white"/>
</clipPath>
</defs>
</svg>
