<?xml version="1.0" encoding="utf-8"?>
<svg xmlns="http://www.w3.org/2000/svg">
<symbol id="empty-bets-history" viewBox="0 0 240 260">
<g clip-path="url(#clip0_884_64261)">
<circle opacity="0.24" cx="120" cy="140" r="120" fill="#282F3E"/>
<g filter="url(#filter0_d_884_64261)">
<rect x="66.735" width="112.43" height="221.204" rx="17.7796" fill="#171E2C"/>
</g>
<rect width="99.9162" height="170.714" transform="matrix(-1 0 0 1 173.27 27.4202)" fill="#11141C"/>
<path fill-rule="evenodd" clip-rule="evenodd" d="M173.27 103.989H95.0427C90.0722 103.989 86.0427 108.018 86.0427 112.989V143.329C86.0427 148.3 90.0722 152.329 95.0427 152.329H173.27V103.989ZM173.27 163.557H95.0427C90.0722 163.557 86.0427 167.586 86.0427 172.557V198.134H173.27V163.557Z" fill="#11141C"/>
<g opacity="0.8">
<path d="M173.27 103.989H95.0427C90.0722 103.989 86.0427 108.018 86.0427 112.989V143.329C86.0427 148.3 90.0722 152.329 95.0427 152.329H173.27V103.989Z" fill="#282F3E"/>
<path d="M173.27 163.557H95.0427C90.0722 163.557 86.0427 167.586 86.0427 172.557V198.134H173.27V163.557Z" fill="#282F3E"/>
</g>
<rect y="40.6386" width="130.115" height="47.993" rx="9" fill="#11141C"/>
<rect opacity="0.8" y="40.6386" width="130.115" height="47.993" rx="9" fill="#282F3E"/>
<g opacity="0.4">
<path d="M173.27 113.995H134.19C132.79 113.995 131.656 115.13 131.656 116.529C131.656 117.929 132.79 119.063 134.19 119.063H173.27V113.995Z" fill="#11141C"/>
<path d="M173.27 123.233H134.19C132.79 123.233 131.656 124.367 131.656 125.766C131.656 127.166 132.79 128.3 134.19 128.3H173.27V123.233Z" fill="#11141C"/>
<path d="M173.27 173.563H134.19C132.79 173.563 131.656 174.698 131.656 176.097C131.656 177.497 132.79 178.631 134.19 178.631H173.27V173.563Z" fill="#11141C"/>
<path d="M173.27 182.801H134.19C132.79 182.801 131.656 183.935 131.656 185.334C131.656 186.734 132.79 187.868 134.19 187.868H173.27V182.801Z" fill="#11141C"/>
<path d="M45.285 53.089C45.285 51.6997 46.4113 50.5734 47.8005 50.5734H115.648C117.037 50.5734 118.163 51.6997 118.163 53.089C118.163 54.4782 117.037 55.6045 115.648 55.6045H47.8005C46.4113 55.6045 45.285 54.4782 45.285 53.089Z" fill="#11141C"/>
<path d="M45.285 62.2596C45.285 60.8703 46.4113 59.7441 47.8005 59.7441H96.4438C97.833 59.7441 98.9593 60.8703 98.9593 62.2596C98.9593 63.6489 97.833 64.7751 96.4438 64.7751H47.8006C46.4113 64.7751 45.285 63.6489 45.285 62.2596Z" fill="#11141C"/>
</g>
<g opacity="0.48">
<path d="M21.7887 52.0091C21.7184 52.0166 21.5 52.0426 21.3075 52.0612C20.0857 52.1952 18.7345 52.6567 17.6423 53.3118C16.254 54.1455 15.1249 55.2806 14.2956 56.6763C13.6478 57.7631 13.2183 59.0285 13.0443 60.3609C12.9851 60.8187 12.9851 62.2107 13.0443 62.6685C13.3479 64.9872 14.3623 66.9486 16.08 68.5527C17.0278 69.4422 18.2088 70.1345 19.4934 70.5588C20.5078 70.8975 21.3112 71.0203 22.4551 71.0203C23.2992 71.0203 23.6731 70.9868 24.4172 70.8342C26.968 70.3094 29.2448 68.6644 30.6146 66.3531C31.2625 65.2663 31.6919 64.0009 31.8659 62.6685C31.9252 62.2107 31.9252 60.8187 31.8659 60.3609C31.6919 59.0285 31.2625 57.7631 30.6146 56.6763C29.7853 55.2806 28.6562 54.1455 27.2679 53.3118C26.198 52.6679 24.9207 52.2287 23.6398 52.0612C23.314 52.0166 22.0183 51.9831 21.7887 52.0091ZM20.9002 54.6405L21.8813 55.3551L21.8961 58.2209L20.7484 59.0583C20.1154 59.5198 19.5712 59.9106 19.5378 59.9255C19.4971 59.9441 19.0306 59.8101 18.1643 59.5272C17.4424 59.2928 16.8427 59.0843 16.8279 59.0695C16.8094 59.0546 16.5983 58.4219 16.354 57.6626L15.9097 56.2893L16.0615 56.0994C16.3207 55.7794 17.0093 55.1206 17.3795 54.8415C17.9792 54.3874 18.4827 54.0896 19.1602 53.7919L19.5119 53.6356L19.7155 53.777C19.8266 53.8589 20.3597 54.246 20.9002 54.6405ZM26.2276 54.0152C26.6237 54.2125 27.1161 54.5288 27.5307 54.8415C27.9009 55.1206 28.5895 55.7794 28.8487 56.0994L29.0005 56.2893L28.5562 57.6626C28.3119 58.4219 28.1009 59.0546 28.0823 59.0695C28.0675 59.0843 27.4678 59.2928 26.7459 59.5272C25.8796 59.8101 25.4131 59.9441 25.3724 59.9255C25.3391 59.9106 24.7949 59.5198 24.1618 59.0583L23.0141 58.2209L23.0289 55.3551L24.2099 54.4953L25.3872 53.6356L25.6723 53.7547C25.8277 53.8217 26.0758 53.937 26.2276 54.0152ZM18.3828 60.7666C18.7789 60.8969 19.1232 61.0197 19.1454 61.0458C19.1824 61.083 20.0598 63.759 20.0598 63.8409C20.0598 63.8632 19.6896 64.3954 19.2343 65.0244L18.405 66.167H15.4914L15.3433 65.9325C15.0879 65.538 14.6918 64.682 14.5178 64.1498C14.2512 63.3384 14.0254 61.9799 14.1364 61.8608C14.1623 61.8348 14.6955 61.4403 15.3248 60.9825L16.4688 60.1488L17.0648 60.3423C17.3943 60.4503 17.9866 60.6401 18.3828 60.7666ZM29.6002 60.9937C30.2 61.4291 30.7183 61.8125 30.7553 61.846C30.8071 61.8981 30.8108 61.9539 30.7812 62.2851C30.7331 62.8471 30.5813 63.5766 30.3925 64.1498C30.2185 64.682 29.8223 65.538 29.5669 65.9325L29.4188 66.167H26.5052L25.676 65.0244C25.2206 64.3954 24.8504 63.8632 24.8504 63.8409C24.8504 63.7888 25.7056 61.1351 25.7426 61.0681C25.7833 61.0011 28.4192 60.1376 28.4711 60.1748C28.4933 60.1897 29.0005 60.5582 29.6002 60.9937ZM24.6949 65.5603C25.1021 66.1261 25.4723 66.6397 25.5168 66.703L25.5982 66.8183L25.1466 68.214L24.6912 69.6097L24.3913 69.6916C23.2696 69.9856 21.6406 69.9856 20.5189 69.6916L20.219 69.6097L19.7637 68.214L19.312 66.8183L19.3935 66.703C19.4379 66.6397 19.8081 66.1261 20.2153 65.5603L20.9557 64.5331H23.9545L24.6949 65.5603Z" fill="#11141C"/>
<path d="M103.353 174.039C103.29 174.063 103.196 174.11 103.153 174.133C103.106 174.16 102.493 174.872 101.785 175.716C101.082 176.56 100.457 177.299 100.398 177.354C100.066 177.67 99.9015 178.487 100.062 179.023C100.281 179.738 100.828 180.293 101.535 180.52C101.914 180.641 102.473 180.633 102.876 180.5C103.044 180.445 103.189 180.398 103.196 180.398C103.208 180.398 103.216 180.731 103.216 181.141V181.88L102.493 181.903V182.685L103.619 182.697L104.74 182.704V181.884H104.037V181.137C104.037 180.441 104.041 180.391 104.107 180.418C104.521 180.594 105.162 180.656 105.561 180.559C106.147 180.414 106.749 179.941 106.999 179.421C107.32 178.769 107.296 178.139 106.925 177.526C106.78 177.291 104.322 174.328 104.158 174.192C103.943 174.02 103.572 173.949 103.353 174.039Z" fill="#11141C"/>
<path d="M111.709 175.063C111.064 175.243 110.56 175.657 110.286 176.232C110.138 176.548 110.083 176.838 110.103 177.213C110.126 177.576 110.224 177.873 110.423 178.186C110.501 178.311 111.15 179.097 111.862 179.937C113.015 181.293 113.183 181.473 113.355 181.555C113.749 181.739 114.062 181.641 114.429 181.223C115.317 180.222 116.986 178.206 117.087 178.01C117.247 177.717 117.341 177.283 117.31 176.998C117.22 176.193 116.673 175.478 115.93 175.2C115.313 174.969 114.433 175.048 113.863 175.38L113.702 175.474L113.472 175.337C113.347 175.259 113.128 175.161 112.987 175.114C112.655 175.009 111.994 174.981 111.709 175.063Z" fill="#11141C"/>
<path d="M113.183 185.319C112.635 185.495 112.19 185.866 111.955 186.335C111.799 186.648 111.752 186.84 111.717 187.281L111.69 187.617L111.525 187.668C111.217 187.758 110.974 187.914 110.697 188.192C110.298 188.595 110.095 189.071 110.095 189.603C110.095 190.772 111.095 191.721 112.245 191.643C112.569 191.62 112.929 191.506 113.151 191.362L113.3 191.264V193.14H112.596V194H114.824V193.14H114.121V191.264L114.269 191.362C114.629 191.6 115.258 191.71 115.731 191.62C116.528 191.463 117.181 190.818 117.349 190.006C117.49 189.333 117.228 188.555 116.704 188.09C116.509 187.918 116.094 187.696 115.891 187.649L115.762 187.621V187.301C115.762 187.125 115.735 186.875 115.7 186.75C115.528 186.077 114.965 185.511 114.281 185.307C113.996 185.221 113.46 185.229 113.183 185.319Z" fill="#11141C"/>
<path d="M103.411 185.347C103.333 185.397 100.785 188.782 100.394 189.361C100.328 189.451 100.285 189.568 100.285 189.646C100.285 189.779 100.218 189.685 102.661 192.992C103.13 193.629 103.38 193.93 103.454 193.965C103.611 194.027 103.81 193.98 103.927 193.852C104.193 193.57 106.964 189.814 106.988 189.708C107.003 189.626 106.992 189.548 106.941 189.454C106.788 189.165 103.974 185.393 103.873 185.339C103.732 185.268 103.533 185.272 103.411 185.347Z" fill="#11141C"/>
<path fill-rule="evenodd" clip-rule="evenodd" d="M103.423 120.859C104.298 120.859 105.069 120.615 105.705 120.303C105.059 121.547 104.672 122.986 104.595 124.471C102.012 124.754 99.9857 126.971 99.9857 129.688C99.9857 132.595 102.299 135 105.142 135C106.018 135 106.857 134.748 107.609 134.325C106.442 133.155 105.715 131.488 105.715 129.688C105.715 127.887 106.442 126.259 107.609 125.089C107.03 124.763 106.399 124.542 105.739 124.456C105.988 120.315 109.047 116.899 112.99 116.275C111.986 117.717 111.444 119.438 111.444 121.245V124.473C108.873 124.769 106.861 126.98 106.861 129.688C106.861 132.595 109.174 135 112.017 135C114.86 135 117.173 132.595 117.173 129.688C117.173 126.98 115.161 124.769 112.59 124.473V121.245C112.59 119.263 113.344 117.401 114.714 116L115.692 115H114.309C111.618 115 109.179 116.122 107.414 117.933C106.951 117.478 105.466 116.172 103.423 116.172C101.11 116.172 99.4964 117.858 99.2914 118.073C99.2822 118.082 99.2758 118.089 99.2723 118.092L98.8398 118.516L99.2723 118.939C99.2758 118.942 99.2822 118.949 99.2914 118.959C99.4964 119.173 101.11 120.859 103.423 120.859ZM112.017 127.93C111.069 127.93 110.298 128.718 110.298 129.688H109.152C109.152 128.072 110.438 126.758 112.017 126.758V127.93ZM103.423 129.688C103.423 128.718 104.194 127.93 105.142 127.93V126.758C103.563 126.758 102.277 128.072 102.277 129.688H103.423Z" fill="#11141C"/>
</g>
<g opacity="0.25">
<path d="M131.886 198.134H152.418C152.018 197.262 151.137 196.656 150.114 196.656H134.19C133.167 196.656 132.286 197.262 131.886 198.134Z" fill="#11141C"/>
<path d="M134.19 137.088C132.79 137.088 131.656 138.223 131.656 139.622C131.656 141.021 132.79 142.156 134.19 142.156H150.114C151.514 142.156 152.648 141.021 152.648 139.622C152.648 138.223 151.514 137.088 150.114 137.088H134.19Z" fill="#11141C"/>
<path d="M45.285 76.0155C45.285 74.6263 46.4113 73.5 47.8005 73.5H63.6104C64.9997 73.5 66.1259 74.6263 66.1259 76.0155C66.1259 77.4048 64.9997 78.5311 63.6104 78.5311H47.8005C46.4113 78.5311 45.285 77.4048 45.285 76.0155Z" fill="#11141C"/>
</g>
</g>
<defs>
<filter id="filter0_d_884_64261" x="54.735" y="-12" width="136.43" height="245.204" filterUnits="userSpaceOnUse" color-interpolation-filters="sRGB">
<feFlood flood-opacity="0" result="BackgroundImageFix"/>
<feColorMatrix in="SourceAlpha" type="matrix" values="0 0 0 0 0 0 0 0 0 0 0 0 0 0 0 0 0 0 127 0" result="hardAlpha"/>
<feOffset/>
<feGaussianBlur stdDeviation="6"/>
<feColorMatrix type="matrix" values="0 0 0 0 0 0 0 0 0 0 0 0 0 0 0 0 0 0 0.16 0"/>
<feBlend mode="normal" in2="BackgroundImageFix" result="effect1_dropShadow_884_64261"/>
<feBlend mode="normal" in="SourceGraphic" in2="effect1_dropShadow_884_64261" result="shape"/>
</filter>
<clipPath id="clip0_884_64261">
<rect width="240" height="260" fill="white"/>
</clipPath>
</defs>

</symbol>
<symbol id="empty-bonuses" viewBox="0 0 240 240">
<g clip-path="url(#clip0_890_64846)">
<circle opacity="0.24" cx="120" cy="120" r="120" fill="#282F3E"/>
<g opacity="0.5" filter="url(#filter0_d_890_64846)">
<ellipse cx="170.278" cy="48.8856" rx="11.4992" ry="15.3484" transform="rotate(-31 170.278 48.8856)" fill="#19202F"/>
</g>
<ellipse cx="173.802" cy="46.8919" rx="11.4992" ry="15.1305" transform="rotate(-31 173.802 46.8919)" fill="#151C2A"/>
<path opacity="0.32" fill-rule="evenodd" clip-rule="evenodd" d="M180.318 51.2231C180.536 49.2222 180.054 46.6197 178.516 44.0596C176.977 41.4994 174.906 39.8519 173.037 39.1056C171.173 38.3613 169.869 38.6032 169.1 39.0655C168.33 39.5278 167.504 40.5653 167.287 42.5606C167.068 44.5614 167.55 47.164 169.088 49.7241C170.627 52.2843 172.698 53.9318 174.567 54.6781C176.432 55.4224 177.735 55.1805 178.505 54.7182C179.274 54.2559 180.1 53.2184 180.318 51.2231ZM181.595 59.8612C187.039 56.5903 187.963 48.1321 183.659 40.9693C179.355 33.8066 171.453 30.6516 166.009 33.9225C160.566 37.1934 159.642 45.6516 163.945 52.8143C168.249 59.9771 176.151 63.1321 181.595 59.8612Z" fill="#282F3E"/>
<path opacity="0.72" d="M171.597 44.154L172.502 45.8552C172.544 45.9341 172.605 45.99 172.686 46.023C172.776 46.0507 172.861 46.0436 172.94 46.0016L174.345 45.2544C175.568 44.6041 176.526 44.9299 177.218 46.2317L178.406 48.4655C179.098 49.7673 178.833 50.7434 177.61 51.3936L175.968 52.2667C174.745 52.9169 173.787 52.5911 173.095 51.2893L172.717 50.5793L174.685 49.5331L175.086 50.2876C175.128 50.3665 175.189 50.4224 175.27 50.4553C175.361 50.4831 175.446 50.4759 175.525 50.434L176.397 49.9699C176.476 49.928 176.525 49.8643 176.542 49.7789C176.57 49.6883 176.563 49.6035 176.521 49.5246L175.396 47.4091C175.354 47.3302 175.288 47.2769 175.197 47.2492C175.117 47.2163 175.037 47.2208 174.958 47.2627L173.567 48.0021C172.344 48.6523 171.387 48.3266 170.695 47.0247L168.862 43.5779L173.892 40.9035L174.733 42.4864L171.597 44.154Z" fill="#11141C"/>
<g opacity="0.5" filter="url(#filter1_d_890_64846)">
<ellipse cx="207.566" cy="134.328" rx="11.4992" ry="15.3484" transform="rotate(14 207.566 134.328)" fill="#19202F"/>
</g>
<ellipse cx="211.468" cy="135.41" rx="11.4992" ry="15.1305" transform="rotate(14 211.468 135.41)" fill="#151C2A"/>
<path opacity="0.32" fill-rule="evenodd" clip-rule="evenodd" d="M213.013 143.08C214.582 141.82 216.081 139.638 216.804 136.74C217.527 133.842 217.227 131.213 216.433 129.363C215.641 127.519 214.548 126.768 213.677 126.551C212.806 126.334 211.489 126.483 209.924 127.74C208.354 129 206.855 131.182 206.132 134.08C205.41 136.978 205.71 139.607 206.504 141.457C207.295 143.301 208.388 144.052 209.259 144.269C210.13 144.486 211.448 144.337 213.013 143.08ZM207.808 150.091C213.97 151.627 220.604 146.3 222.626 138.192C224.647 130.084 221.291 122.265 215.129 120.729C208.966 119.193 202.332 124.52 200.311 132.628C198.289 140.736 201.646 148.555 207.808 150.091Z" fill="#282F3E"/>
<path opacity="0.72" d="M211.845 131.915L211.282 133.757C211.256 133.843 211.259 133.926 211.293 134.006C211.338 134.09 211.403 134.145 211.488 134.171L213.01 134.636C214.335 135.041 214.782 135.949 214.35 137.359L213.611 139.778C213.18 141.188 212.302 141.691 210.977 141.286L209.199 140.742C207.874 140.337 207.428 139.43 207.859 138.02L208.094 137.25L210.225 137.902L209.975 138.719C209.949 138.805 209.953 138.888 209.987 138.968C210.031 139.052 210.096 139.107 210.182 139.133L211.127 139.422C211.212 139.448 211.292 139.437 211.365 139.389C211.448 139.345 211.503 139.28 211.529 139.194L212.23 136.903C212.256 136.818 212.247 136.733 212.202 136.649C212.168 136.569 212.109 136.516 212.023 136.49L210.517 136.029C209.193 135.624 208.746 134.717 209.177 133.307L210.318 129.574L215.766 131.239L215.242 132.953L211.845 131.915Z" fill="#11141C"/>
<g filter="url(#filter2_d_890_64846)">
<path fill-rule="evenodd" clip-rule="evenodd" d="M228.961 35.8963C228.87 34.7533 228.076 33.8208 226.983 33.4732L183.243 19.5555C180.801 18.7785 178.37 21.2936 178.997 23.7784C181.252 32.7128 183.347 49.6593 172.332 63.5341C156.583 83.3723 150.645 103.004 153.928 121.638C175.643 131.611 203.965 139.03 203.965 139.03C203.965 139.03 194.568 118.648 213.751 90.4996C230.025 66.6215 229.496 42.6266 228.961 35.8963Z" fill="#202735"/>
</g>
<path opacity="0.48" fill-rule="evenodd" clip-rule="evenodd" d="M194.822 136.443C200.397 138.095 203.965 139.03 203.965 139.03C203.965 139.03 202.481 135.81 201.896 130.164C201.01 121.602 202.192 107.461 213.751 90.4996C230.025 66.6215 229.496 42.6266 228.961 35.8963C228.87 34.7533 228.076 33.8208 226.983 33.4732L183.243 19.5555C180.801 18.7785 178.37 21.2936 178.997 23.7784C181.252 32.7128 183.347 49.6593 172.332 63.5341C156.583 83.3723 150.645 103.004 153.928 121.638C167.936 128.071 184.692 133.441 194.822 136.443ZM193.707 127.754C192.379 127.348 190.973 126.912 189.505 126.447C181.048 123.769 170.694 120.196 161.259 116.141C159.929 101.467 165.115 85.4913 178.597 68.5083C189.062 55.3274 189.641 40.149 188.235 29.5391L221.144 40.0102C221.279 48.6804 219.824 67.384 207.14 85.9943C196.641 101.4 193.722 115.089 193.665 125.275C193.66 126.129 193.675 126.955 193.707 127.754Z" fill="#11141C"/>
<ellipse opacity="0.48" rx="3.89569" ry="4.7614" transform="matrix(-0.990268 0.139173 0.139173 0.990268 203.726 48.0501)" fill="#11141C"/>
<ellipse opacity="0.48" rx="3.89569" ry="4.7614" transform="matrix(-0.996195 -0.0871557 -0.0871557 0.996195 178.003 107.615)" fill="#11141C"/>
<ellipse opacity="0.48" rx="11.9468" ry="17.141" transform="matrix(-0.891007 -0.45399 -0.45399 0.891007 192.248 77.7256)" fill="#11141C"/>
<path d="M194.018 76.874C195.762 77.7981 196.164 79.1816 195.225 81.0246L193.817 83.7892C192.863 85.6605 191.507 86.1484 189.749 85.2526L188.877 84.8084L187.935 86.6585L187.148 86.2576L188.091 84.4075L187.24 83.9741C185.482 83.0783 185.08 81.6948 186.033 79.8234L186.759 78.3986L189.269 79.6772L188.359 81.4635C188.301 81.5769 188.286 81.6942 188.313 81.8154C188.355 81.9438 188.432 82.0369 188.546 82.0947L189.12 82.3872L191.146 78.4106L190.296 77.9772C188.538 77.0814 188.135 75.6979 189.089 73.8265L190.4 71.2534C191.354 69.382 192.709 68.8942 194.467 69.7899L195.318 70.2233L195.881 69.1175L196.668 69.5184L196.105 70.6242L196.828 70.9926C198.586 71.8884 198.988 73.2719 198.034 75.1433L197.514 76.164L195.005 74.8855L195.698 73.5245C195.756 73.411 195.764 73.2901 195.722 73.1617C195.695 73.0406 195.624 72.9511 195.511 72.8933L195.064 72.6657L193.147 76.4297L194.018 76.874ZM191.807 75.7471L192.36 76.0288L194.278 72.2648L193.725 71.9831C193.611 71.9253 193.49 71.9173 193.362 71.959C193.248 72.008 193.162 72.0891 193.104 72.2026L191.62 75.1159C191.562 75.2294 191.547 75.3467 191.574 75.4678C191.616 75.5962 191.693 75.6893 191.807 75.7471ZM191.123 82.8721L192.716 79.7461C192.774 79.6326 192.782 79.5117 192.74 79.3833C192.712 79.2622 192.642 79.1727 192.528 79.1149L191.933 78.8115L189.907 82.7882L190.502 83.0915C190.616 83.1493 190.73 83.1538 190.844 83.1048C190.972 83.0631 191.065 82.9855 191.123 82.8721Z" fill="#282F3E"/>
<g filter="url(#filter3_d_890_64846)">
<path d="M130.387 234.628C129.751 234.655 129.141 234.668 128.558 234.668C105.473 234.668 47.2537 239.127 30.0574 189.168C14.2568 143.282 73.1713 72.9283 82.8805 61.767C83.7427 60.774 84.2165 60.25 84.2165 60.25C84.2165 60.25 81.6519 58.3632 133.58 56.3644C193.217 102.076 202.641 138.265 202.641 138.265C221.613 212.412 155.126 233.612 130.387 234.628Z" fill="#202735"/>
</g>
<path opacity="0.4" d="M130.387 234.628C129.751 234.654 129.141 234.668 128.558 234.668C105.473 234.668 47.2537 239.127 30.0574 189.167C14.2567 143.282 73.1713 72.9284 82.8805 61.7671C85.3597 61.3835 87.7388 61.5009 90.0059 62.2048C90.8736 62.4756 -30.8892 218.194 130.387 234.628Z" fill="#1C212B"/>
<path opacity="0.8" d="M74.343 21.0478C74.343 21.0478 84.0283 4.58764 97.7005 10.6519C111.373 16.7162 122.391 21.2644 129.602 16.9328C136.813 12.6012 140.594 9.16797 142.598 18.682C144.603 28.196 117.256 51.5877 117.256 51.5877C117.256 51.5877 75.4825 51.5877 74.343 21.0478Z" fill="#1D2432"/>
<path opacity="0.3" d="M74.343 28.2694C74.343 28.2694 84.0283 11.8092 97.7005 17.8735C111.373 23.9378 122.391 28.486 129.602 24.1544C136.813 19.8227 140.594 16.3895 142.598 25.9035C144.603 35.4175 117.256 58.8093 117.256 58.8093C117.256 58.8093 75.4825 58.8093 74.343 28.2694Z" fill="#11141C"/>
<path d="M144.654 44.4084C140.779 50.1625 136.258 55.0962 132.28 57.1271C127.289 59.6728 118.402 61.2165 109.551 61.8616C100.7 62.5068 91.8708 62.2452 87.03 61.1889H87.0208C85.8198 60.9274 84.8676 60.6163 84.2166 60.2593C84.2166 60.2593 68.5692 35.4267 68.3434 23.8405C68.2671 20.1623 69.7482 17.8193 73.7719 18.0267C90.4834 18.8894 90.8644 28.2052 102.258 25.6053C113.651 23.0054 122.006 5.67789 129.601 16.9438C137.197 28.2097 145.362 12.1772 152.199 17.377C156.611 20.7212 151.706 33.9235 144.654 44.4084Z" fill="#202735"/>
<path opacity="0.6" d="M83.3002 58.7588C83.3002 58.7588 114.06 67.5689 134.169 55.9708C135.902 58.1577 136.803 58.8616 136.803 58.8616C136.803 58.8616 122.027 72.3457 82.0615 62.716C82.0606 62.7179 83.0321 59.8628 83.3002 58.7588Z" fill="#11141C"/>
<path opacity="0.4" d="M144.653 44.4084C140.779 50.1625 136.258 55.0962 132.28 57.1271C127.289 59.6728 118.402 61.2165 109.551 61.8616L87.03 61.1889H87.0208C85.8198 60.9274 84.8676 60.6163 84.2166 60.2593C84.2166 60.2593 68.5693 35.4267 68.3434 23.8405C68.5335 23.6377 74.6791 17.1411 82.0578 31.0666C89.5542 45.2068 92.2638 57.5336 101.142 51.5978C110.02 45.662 123.722 22.3419 126.133 33.3233C128.544 44.3047 119.658 54.8704 126.133 53.124C131.182 51.7502 140.909 44.2139 144.653 44.4084Z" fill="#1C212B"/>
<g opacity="0.9">
<path d="M131.306 136.73C142.505 136.324 148.412 141.986 149.027 153.717L149.949 171.314C150.573 183.225 145.291 189.474 134.101 190.061L128.551 190.352L129.169 202.128L124.16 202.39L123.543 190.614L118.129 190.898C106.939 191.484 101.032 185.822 100.408 173.91L99.9328 164.841L115.905 164.004L116.501 175.374C116.539 176.096 116.797 176.716 117.277 177.234C117.847 177.747 118.493 177.984 119.215 177.947L122.869 177.755L121.543 152.443L116.128 152.727C104.939 153.313 99.0319 147.651 98.4076 135.739L97.5492 119.361C96.925 107.449 102.208 101.2 113.397 100.614L118.812 100.33L118.443 93.2915L123.451 93.029L123.82 100.068L128.422 99.8265C139.612 99.24 145.519 104.903 146.143 116.814L146.483 123.311L130.511 124.148L130.057 115.485C130.019 114.764 129.715 114.146 129.146 113.633C128.666 113.115 128.065 112.875 127.343 112.913L124.501 113.062L125.756 137.02L131.306 136.73ZM117.229 137.467L120.748 137.283L119.493 113.325L115.973 113.509C115.251 113.547 114.634 113.851 114.121 114.42C113.698 114.986 113.506 115.629 113.543 116.351L114.515 134.895C114.553 135.617 114.812 136.237 115.291 136.755C115.861 137.268 116.507 137.505 117.229 137.467ZM134.098 174.452L133.055 154.554C133.017 153.832 132.713 153.215 132.143 152.702C131.664 152.184 131.063 151.944 130.341 151.982L126.551 152.181L127.878 177.493L131.668 177.294C132.389 177.256 132.962 176.955 133.385 176.39C133.898 175.82 134.135 175.174 134.098 174.452Z" fill="#3D4451"/>
</g>
<path d="M54.1983 61.7283C54.1983 76.3835 42.7326 87.9122 28.0778 87.4627C12.8265 86.9948 0 73.8287 0 58.0769C0 42.3252 12.8265 30.8872 28.0778 32.4746C42.7326 33.9991 54.1983 47.073 54.1983 61.7283Z" fill="#181E2A"/>
<path d="M58.1584 60.465C58.1584 75.1202 46.6926 86.6489 32.0379 86.1987C16.7874 85.7307 3.96008 72.5662 3.96008 56.8129C3.96008 41.0597 16.7874 29.6232 32.0379 31.2106C46.6926 32.7359 58.1584 45.8098 58.1584 60.465Z" fill="#1B2436"/>
<path d="M57.0083 60.3874C57.0083 74.3973 46.0376 85.3996 32.0379 84.9463C17.4954 84.4761 5.28394 71.9123 5.28394 56.9005C5.28394 41.8888 17.4947 30.9724 32.0379 32.4615C46.0384 33.8969 57.0083 46.3776 57.0083 60.3874Z" fill="#121927"/>
<path d="M56.1864 60.3321C56.1864 73.8794 45.5709 84.506 32.0402 84.0519C18.0028 83.5809 6.23108 71.4505 6.23108 56.9659C6.23108 42.4812 18.0005 31.9368 32.0379 33.3575C45.5686 34.7268 56.1864 46.7818 56.1864 60.3321Z" fill="#151C2A"/>
<g opacity="0.48">
<path d="M26.1915 60.2538C27.3995 58.7151 28.0035 56.4133 28.0037 53.3485C28.0037 50.4174 27.3895 48.1622 26.1611 46.5829C24.9328 45.0036 23.1716 44.2142 20.8776 44.2145C16.1947 44.2145 13.8533 47.2592 13.8533 53.3485C13.8533 56.3333 14.464 58.6151 15.6856 60.1939C16.9071 61.7727 18.6377 62.5622 20.8776 62.5623C23.2119 62.5623 24.9832 61.7928 26.1915 60.2538ZM20.9182 58.425C20.2393 58.425 19.7474 58.0087 19.4422 57.1759C19.1371 56.3432 18.9844 55.0807 18.984 53.3884C18.984 51.6965 19.1368 50.4407 19.4422 49.6209C19.7477 48.8011 20.2397 48.3914 20.9182 48.3917C22.2214 48.3917 22.873 50.0573 22.873 53.3884C22.873 56.7462 22.2214 58.425 20.9182 58.425Z" fill="#3A414F"/>
<path d="M47.0099 58.2551C45.7813 56.6761 44.0202 55.8866 41.7266 55.8866C37.0436 55.8866 34.702 58.9313 34.702 65.0206C34.702 67.9916 35.3129 70.2668 36.5346 71.8461C37.7563 73.4254 39.487 74.2148 41.7268 74.2145C44.0611 74.2145 45.8325 73.445 47.0408 71.9059C48.2491 70.3669 48.8533 68.0718 48.8533 65.0206C48.8533 62.0896 48.2388 59.8344 47.0099 58.2551ZM41.7672 70.0972C41.0884 70.0972 40.5963 69.6808 40.291 68.8481C39.9857 68.0153 39.8331 66.7528 39.8331 65.0606C39.8331 63.3678 39.9857 62.112 40.291 61.2933C40.5963 60.4745 41.0884 60.0648 41.7672 60.0641C43.0702 60.0641 43.7213 61.7296 43.7204 65.0606C43.7213 68.4185 43.0702 70.0973 41.7672 70.0972Z" fill="#3A414F"/>
<path d="M41.4698 44.9387C41.4131 44.8423 41.3318 44.7619 41.234 44.7055C41.1362 44.6491 41.0252 44.6186 40.9118 44.6169H37.8928C37.6594 44.6186 37.4308 44.6815 37.2303 44.7989C37.0299 44.9163 36.865 45.084 36.7526 45.2848L21.1465 72.9064C21.0917 73.0039 21.0635 73.1138 21.0648 73.2252C21.066 73.3367 21.0967 73.4459 21.1537 73.5423C21.2107 73.6387 21.2921 73.7189 21.39 73.7752C21.488 73.8316 21.5992 73.8621 21.7127 73.8637H25.1175C25.2334 73.8628 25.347 73.8316 25.4465 73.7733C25.546 73.7149 25.6279 73.6316 25.6837 73.5318L41.478 45.5763C41.5327 45.4784 41.5608 45.3682 41.5593 45.2564C41.5579 45.1447 41.5271 45.0352 41.4698 44.9387Z" fill="#3A414F"/>
</g>
</g>
<defs>
<filter id="filter0_d_890_64846" x="145.642" y="22.4543" width="49.271" height="52.8626" filterUnits="userSpaceOnUse" color-interpolation-filters="sRGB">
<feFlood flood-opacity="0" result="BackgroundImageFix"/>
<feColorMatrix in="SourceAlpha" type="matrix" values="0 0 0 0 0 0 0 0 0 0 0 0 0 0 0 0 0 0 127 0" result="hardAlpha"/>
<feOffset/>
<feGaussianBlur stdDeviation="6"/>
<feColorMatrix type="matrix" values="0 0 0 0 0 0 0 0 0 0 0 0 0 0 0 0 0 0 0.16 0"/>
<feBlend mode="normal" in2="BackgroundImageFix" result="effect1_dropShadow_890_64846"/>
<feBlend mode="normal" in="SourceGraphic" in2="effect1_dropShadow_890_64846" result="shape"/>
</filter>
<filter id="filter1_d_890_64846" x="183.804" y="107.175" width="47.5248" height="54.3056" filterUnits="userSpaceOnUse" color-interpolation-filters="sRGB">
<feFlood flood-opacity="0" result="BackgroundImageFix"/>
<feColorMatrix in="SourceAlpha" type="matrix" values="0 0 0 0 0 0 0 0 0 0 0 0 0 0 0 0 0 0 127 0" result="hardAlpha"/>
<feOffset/>
<feGaussianBlur stdDeviation="6"/>
<feColorMatrix type="matrix" values="0 0 0 0 0 0 0 0 0 0 0 0 0 0 0 0 0 0 0.16 0"/>
<feBlend mode="normal" in2="BackgroundImageFix" result="effect1_dropShadow_890_64846"/>
<feBlend mode="normal" in="SourceGraphic" in2="effect1_dropShadow_890_64846" result="shape"/>
</filter>
<filter id="filter2_d_890_64846" x="141.055" y="7.41193" width="100.096" height="143.618" filterUnits="userSpaceOnUse" color-interpolation-filters="sRGB">
<feFlood flood-opacity="0" result="BackgroundImageFix"/>
<feColorMatrix in="SourceAlpha" type="matrix" values="0 0 0 0 0 0 0 0 0 0 0 0 0 0 0 0 0 0 127 0" result="hardAlpha"/>
<feOffset/>
<feGaussianBlur stdDeviation="6"/>
<feColorMatrix type="matrix" values="0 0 0 0 0 0 0 0 0 0 0 0 0 0 0 0 0 0 0.16 0"/>
<feBlend mode="normal" in2="BackgroundImageFix" result="effect1_dropShadow_890_64846"/>
<feBlend mode="normal" in="SourceGraphic" in2="effect1_dropShadow_890_64846" result="shape"/>
</filter>
<filter id="filter3_d_890_64846" x="11.3812" y="40.3644" width="210.619" height="210.406" filterUnits="userSpaceOnUse" color-interpolation-filters="sRGB">
<feFlood flood-opacity="0" result="BackgroundImageFix"/>
<feColorMatrix in="SourceAlpha" type="matrix" values="0 0 0 0 0 0 0 0 0 0 0 0 0 0 0 0 0 0 127 0" result="hardAlpha"/>
<feOffset/>
<feGaussianBlur stdDeviation="8"/>
<feColorMatrix type="matrix" values="0 0 0 0 0 0 0 0 0 0 0 0 0 0 0 0 0 0 0.24 0"/>
<feBlend mode="normal" in2="BackgroundImageFix" result="effect1_dropShadow_890_64846"/>
<feBlend mode="normal" in="SourceGraphic" in2="effect1_dropShadow_890_64846" result="shape"/>
</filter>
<clipPath id="clip0_890_64846">
<rect width="240" height="240" fill="white"/>
</clipPath>
</defs>

</symbol>
<symbol id="empty-notification" viewBox="0 0 212 284">
<g opacity="0.8" filter="url(#filter0_d_747_49490)">
<path d="M30.4035 42.3231C30.4035 35.707 35.7669 30.3436 42.383 30.3436H168.853C175.469 30.3436 180.832 35.707 180.832 42.3231V86.518C180.832 93.1341 175.469 98.4975 168.852 98.4975H42.383C35.7669 98.4975 30.4035 93.1341 30.4035 86.518V42.3231Z" fill="#282F3E"/>
<path d="M30.4035 120.213C30.4035 113.597 35.7669 108.234 42.383 108.234H168.853C175.469 108.234 180.832 113.597 180.832 120.213V164.408C180.832 171.024 175.469 176.388 168.852 176.388H42.383C35.7669 176.388 30.4035 171.024 30.4035 164.408V120.213Z" fill="#282F3E"/>
<path d="M30.4035 198.104C30.4035 191.487 35.7669 186.124 42.383 186.124H168.853C175.469 186.124 180.832 191.487 180.832 198.104V242.298C180.832 248.914 175.469 254.278 168.852 254.278H42.383C35.7669 254.278 30.4035 248.914 30.4035 242.298V198.104Z" fill="#282F3E"/>
</g>
<g filter="url(#filter1_d_747_49490)">
<path d="M199.235 30.3436C199.235 40.4744 190.996 48.6871 180.832 48.6871C170.668 48.6871 162.429 40.4744 162.429 30.3436C162.429 20.2127 170.668 12 180.832 12C190.996 12 199.235 20.2127 199.235 30.3436Z" fill="#1C212B"/>
<path d="M48.807 253.656C48.807 263.787 40.5675 272 30.4035 272C20.2395 272 12 263.787 12 253.656C12 243.526 20.2395 235.313 30.4035 235.313C40.5675 235.313 48.807 243.526 48.807 253.656Z" fill="#1C212B"/>
<path d="M48.807 102.92C48.807 113.051 40.5675 121.264 30.4035 121.264C20.2395 121.264 12 113.051 12 102.92C12 92.7894 20.2395 84.5767 30.4035 84.5767C40.5675 84.5767 48.807 92.7894 48.807 102.92Z" fill="#1C212B"/>
<path d="M199.235 181.08C199.235 191.211 190.996 199.423 180.832 199.423C170.668 199.423 162.429 191.211 162.429 181.08C162.429 170.949 170.668 162.736 180.832 162.736C190.996 162.736 199.235 170.949 199.235 181.08Z" fill="#1C212B"/>
</g>
<g opacity="0.25">
<path d="M43.4276 79.3495C43.4276 77.7363 44.7353 76.4286 46.3484 76.4286H64.6013C66.2144 76.4286 67.5222 77.7363 67.5222 79.3495C67.5222 80.9626 66.2144 82.2704 64.6013 82.2704H46.3484C44.7353 82.2704 43.4276 80.9626 43.4276 79.3495Z" fill="#11141C"/>
<path d="M43.4276 157.24C43.4276 155.627 44.7353 154.319 46.3484 154.319H64.6013C66.2144 154.319 67.5222 155.627 67.5222 157.24C67.5222 158.853 66.2144 160.161 64.6013 160.161H46.3484C44.7353 160.161 43.4276 158.853 43.4276 157.24Z" fill="#11141C"/>
<path d="M43.4276 235.13C43.4276 233.517 44.7353 232.209 46.3484 232.209H64.6013C66.2144 232.209 67.5222 233.517 67.5222 235.13C67.5222 236.743 66.2144 238.051 64.6013 238.051H46.3484C44.7353 238.051 43.4276 236.743 43.4276 235.13Z" fill="#11141C"/>
</g>
<g opacity="0.4">
<path d="M43.4276 216.956C43.4276 215.342 44.7353 214.035 46.3484 214.035H114.093C115.706 214.035 117.014 215.342 117.014 216.956C117.014 218.569 115.706 219.876 114.093 219.876H46.3484C44.7353 219.876 43.4276 218.569 43.4276 216.956Z" fill="#11141C"/>
<path d="M43.4276 49.4916C43.4276 47.8784 44.7353 46.5707 46.3484 46.5707H143.397C145.01 46.5707 146.318 47.8784 146.318 49.4916C146.318 51.1047 145.01 52.4125 143.397 52.4125H46.3484C44.7353 52.4125 43.4276 51.1047 43.4276 49.4916Z" fill="#11141C"/>
<path d="M43.4276 61.1751C43.4276 59.5619 44.7353 58.2542 46.3484 58.2542H114.093C115.706 58.2542 117.014 59.5619 117.014 61.1751C117.014 62.7883 115.706 64.096 114.093 64.096H46.3484C44.7353 64.096 43.4276 62.7883 43.4276 61.1751Z" fill="#11141C"/>
<path d="M167.808 71.885C167.808 79.4131 161.685 85.5158 154.133 85.5158C146.58 85.5158 140.457 79.4131 140.457 71.885C140.457 64.3569 146.58 58.2542 154.133 58.2542C161.685 58.2542 167.808 64.3569 167.808 71.885Z" fill="#11141C"/>
<path d="M43.4276 127.382C43.4276 125.769 44.7353 124.461 46.3484 124.461H143.397C145.01 124.461 146.318 125.769 146.318 127.382C146.318 128.995 145.01 130.303 143.397 130.303H46.3484C44.7353 130.303 43.4276 128.995 43.4276 127.382Z" fill="#11141C"/>
<path d="M43.4276 139.065C43.4276 137.452 44.7353 136.144 46.3484 136.144H114.093C115.706 136.144 117.014 137.452 117.014 139.065C117.014 140.678 115.706 141.986 114.093 141.986H46.3484C44.7353 141.986 43.4276 140.678 43.4276 139.065Z" fill="#11141C"/>
<path d="M167.808 149.775C167.808 157.303 161.685 163.406 154.133 163.406C146.58 163.406 140.457 157.303 140.457 149.775C140.457 142.247 146.58 136.144 154.133 136.144C161.685 136.144 167.808 142.247 167.808 149.775Z" fill="#11141C"/>
<path d="M43.4276 205.272C43.4276 203.659 44.7353 202.351 46.3484 202.351H143.397C145.01 202.351 146.318 203.659 146.318 205.272C146.318 206.885 145.01 208.193 143.397 208.193H46.3484C44.7353 208.193 43.4276 206.885 43.4276 205.272Z" fill="#11141C"/>
<path d="M167.808 227.665C167.808 235.193 161.685 241.296 154.133 241.296C146.58 241.296 140.457 235.193 140.457 227.665C140.457 220.137 146.58 214.035 154.133 214.035C161.685 214.035 167.808 220.137 167.808 227.665Z" fill="#11141C"/>
</g>
<path fill-rule="evenodd" clip-rule="evenodd" d="M188.875 177.028H185.316C185.571 176.854 185.79 176.681 185.943 176.525C186.851 175.613 186.851 174.128 185.943 173.216C185.061 172.327 183.525 172.329 182.644 173.216C182.155 173.705 180.862 175.697 181.04 177.028H180.96C181.137 175.697 179.843 173.705 179.356 173.216C178.474 172.329 176.938 172.329 176.057 173.216C175.15 174.128 175.15 175.613 176.056 176.525C176.21 176.681 176.429 176.854 176.684 177.028H173.125C172.505 177.028 172 177.533 172 178.153V179.841C172 180.151 172.252 180.403 172.562 180.403H179.875V177.253H182.125V180.403H189.438C189.748 180.403 190 180.151 190 179.841V178.153C190 177.533 189.496 177.028 188.875 177.028ZM179.809 176.991C179.809 176.991 179.761 177.028 179.6 177.028C178.823 177.028 177.339 176.221 176.854 175.732C176.383 175.258 176.383 174.484 176.854 174.009C177.083 173.779 177.385 173.653 177.707 173.653C178.028 173.653 178.33 173.779 178.559 174.009C179.317 174.772 180.071 176.72 179.809 176.991ZM182.398 177.028C182.239 177.028 182.191 176.991 182.191 176.991C181.929 176.72 182.683 174.772 183.441 174.009C183.895 173.551 184.688 173.549 185.146 174.009C185.618 174.484 185.618 175.258 185.146 175.732C184.661 176.221 183.177 177.028 182.398 177.028Z" fill="#3D4451"/>
<path d="M174.025 181.976V188.279C174.025 188.9 174.53 189.404 175.15 189.404H179.875V181.976H174.025Z" fill="#3D4451"/>
<path d="M182.125 189.404V181.976H187.975V188.279C187.975 188.9 187.471 189.404 186.85 189.404H182.125Z" fill="#3D4451"/>
<path fill-rule="evenodd" clip-rule="evenodd" d="M26.0958 99.4805C26.8396 99.4805 27.4948 99.2728 28.0358 99.0078C27.4865 100.065 27.1574 101.288 27.0921 102.55C24.896 102.791 23.174 104.675 23.174 106.984C23.174 109.456 25.14 111.5 27.5568 111.5C28.3013 111.5 29.0146 111.285 29.6542 110.927C28.6619 109.932 28.0438 108.515 28.0438 106.984C28.0438 105.454 28.6619 104.07 29.6542 103.075C29.1617 102.799 28.625 102.611 28.0646 102.538C28.2763 99.0177 30.8759 96.114 34.2275 95.5842C33.3739 96.8098 32.9136 98.2723 32.9136 99.8078V102.552C30.7281 102.804 29.0177 104.683 29.0177 106.984C29.0177 109.456 30.9838 111.5 33.4005 111.5C35.8173 111.5 37.7833 109.456 37.7833 106.984C37.7833 104.683 36.073 102.804 33.8875 102.552V99.8078C33.8875 98.1239 34.5286 96.5408 35.6928 95.3502L36.524 94.5H35.3485C33.0612 94.5 30.9882 95.4539 29.4883 96.9927C29.0946 96.6061 27.832 95.4961 26.0958 95.4961C24.13 95.4961 22.7581 96.9296 22.5839 97.1116C22.576 97.1198 22.5706 97.1255 22.5677 97.1284L22.2 97.4883L22.5677 97.8482C22.5706 97.8511 22.576 97.8567 22.5838 97.8649C22.7581 98.047 24.13 99.4805 26.0958 99.4805ZM33.4005 105.49C32.595 105.49 31.9396 106.161 31.9396 106.984H30.9656C30.9656 105.611 32.058 104.494 33.4005 104.494V105.49ZM26.0958 106.984C26.0958 106.161 26.7512 105.49 27.5568 105.49V104.494C26.2143 104.494 25.1219 105.611 25.1219 106.984H26.0958Z" fill="#3D4451"/>
<path d="M188.974 28.1747C188.74 25.7555 186.92 24.0003 184.643 24.0003C183.126 24.0003 181.737 24.7686 180.956 25.9999C180.181 24.7526 178.849 24 177.357 24C175.08 24 173.26 25.7552 173.027 28.1744C173.008 28.2812 172.933 28.8436 173.163 29.7607C173.494 31.0836 174.261 32.2868 175.378 33.2395L180.308 37.4501C180.68 37.7675 181.226 37.7698 181.601 37.4555L186.622 33.2398C187.739 32.2868 188.506 31.0839 188.837 29.7607C189.067 28.8439 188.992 28.2815 188.974 28.1747Z" fill="#3D4451"/>
<path fill-rule="evenodd" clip-rule="evenodd" d="M22 249.5C22 248.395 22.8954 247.5 24 247.5H36.6667C37.7712 247.5 38.6667 248.395 38.6667 249.5V254.167H22V249.5ZM24.6667 249.167C24.1144 249.167 23.6667 249.614 23.6667 250.167V251.5C23.6667 252.052 24.1144 252.5 24.6667 252.5H26.8333C27.3856 252.5 27.8333 252.052 27.8333 251.5V250.167C27.8333 249.614 27.3856 249.167 26.8333 249.167H24.6667Z" fill="#3D4451"/>
<path d="M22 257.5H38.6667V258.833C38.6667 259.938 37.7712 260.833 36.6667 260.833H24C22.8954 260.833 22 259.938 22 258.833V257.5Z" fill="#3D4451"/>
<defs>
<filter id="filter0_d_747_49490" x="14.4035" y="14.3436" width="182.429" height="255.934" filterUnits="userSpaceOnUse" color-interpolation-filters="sRGB">
<feFlood flood-opacity="0" result="BackgroundImageFix"/>
<feColorMatrix in="SourceAlpha" type="matrix" values="0 0 0 0 0 0 0 0 0 0 0 0 0 0 0 0 0 0 127 0" result="hardAlpha"/>
<feOffset/>
<feGaussianBlur stdDeviation="8"/>
<feColorMatrix type="matrix" values="0 0 0 0 0 0 0 0 0 0 0 0 0 0 0 0 0 0 0.24 0"/>
<feBlend mode="normal" in2="BackgroundImageFix" result="effect1_dropShadow_747_49490"/>
<feBlend mode="normal" in="SourceGraphic" in2="effect1_dropShadow_747_49490" result="shape"/>
</filter>
<filter id="filter1_d_747_49490" x="0" y="0" width="211.235" height="284" filterUnits="userSpaceOnUse" color-interpolation-filters="sRGB">
<feFlood flood-opacity="0" result="BackgroundImageFix"/>
<feColorMatrix in="SourceAlpha" type="matrix" values="0 0 0 0 0 0 0 0 0 0 0 0 0 0 0 0 0 0 127 0" result="hardAlpha"/>
<feOffset/>
<feGaussianBlur stdDeviation="6"/>
<feColorMatrix type="matrix" values="0 0 0 0 0 0 0 0 0 0 0 0 0 0 0 0 0 0 0.16 0"/>
<feBlend mode="normal" in2="BackgroundImageFix" result="effect1_dropShadow_747_49490"/>
<feBlend mode="normal" in="SourceGraphic" in2="effect1_dropShadow_747_49490" result="shape"/>
</filter>
</defs>

</symbol>
<symbol id="empty-quest" viewBox="0 0 240 240">
<g id="Empty-illustration-search-no-result" clip-path="url(#clip0_592_31370)">
<circle id="base" opacity="0.24" cx="120" cy="120" r="120" fill="#282F3E"/>
<g id="Group 47250">
<g id="Group">
<g id="Group_2">
<g id="Vector" filter="url(#filter0_d_592_31370)">
<path d="M230 88.1616L210.324 208.785C209.682 212.849 205.619 215.629 201.555 214.774L84.3534 194.242C80.2899 193.601 77.5095 189.537 78.1512 185.473L105.313 30.8439C105.955 26.7803 110.018 24 114.082 24.8555L199.203 39.8265L230 88.1616Z" fill="#202735"/>
</g>
</g>
<path id="Vector_2" d="M197.278 155.103L133.972 143.982L127.128 142.699L105.955 139.063C105.099 138.849 104.03 139.705 104.03 140.774C103.816 141.843 104.457 142.913 105.313 143.127L126.486 146.762L133.33 148.046L196.636 159.167C197.492 159.381 198.561 158.525 198.561 157.456C198.775 156.387 198.347 155.317 197.278 155.103Z" fill="#A9AFC3"/>
<path id="Vector_3" d="M199.844 140.346L176.318 136.283L168.405 134.786L108.735 124.306C107.879 124.092 106.81 124.948 106.81 126.017C106.596 127.086 107.238 128.156 108.093 128.37L167.764 138.849L175.677 140.346L199.203 144.41C200.058 144.624 201.128 143.768 201.128 142.699C201.341 141.63 200.7 140.56 199.844 140.346Z" fill="#A9AFC3"/>
<path id="Vector_4" opacity="0.4" d="M202.839 125.375L196.636 124.306L190.434 123.236L110.874 109.335C110.018 109.121 108.949 109.976 108.949 111.046C108.735 112.115 109.376 113.184 110.232 113.398L189.792 127.3L196.636 128.583L201.983 129.439C202.839 129.653 203.908 128.797 203.908 127.728C204.336 126.658 203.908 125.589 202.839 125.375Z" fill="#11141C"/>
<path id="Vector_5" d="M138.249 179.057L133.972 178.416C133.116 178.202 132.475 177.132 132.688 176.063C132.902 174.994 133.758 174.138 134.613 174.352L138.891 174.994C139.746 175.208 140.388 176.277 140.174 177.346C139.96 178.63 139.105 179.057 138.249 179.057Z" fill="#A9AFC3"/>
<path id="Vector_6" d="M125.203 176.705L100.18 172.427C99.3242 172.213 98.6826 171.144 98.8964 170.075C99.1103 169.005 99.9658 168.15 100.821 168.364L125.844 172.641C126.7 172.855 127.341 173.924 127.128 174.994C126.914 176.277 126.058 176.918 125.203 176.705Z" fill="#E3EAF2"/>
<path id="Vector_7" opacity="0.4" d="M206.26 110.832L186.37 107.41L181.451 106.555L113.654 94.5777C112.798 94.3638 111.729 95.2193 111.729 96.2886C111.515 97.358 112.157 98.4274 113.012 98.6412L180.81 110.618L185.729 111.474L205.405 114.896C206.474 115.109 207.33 114.254 207.544 113.185C207.758 112.115 207.116 111.046 206.26 110.832Z" fill="#11141C"/>
<path id="Vector_8" opacity="0.4" d="M178.243 62.2831L121.995 52.445C120.711 52.2311 119.856 50.9479 120.07 49.6646C120.284 48.3814 121.567 47.5259 122.85 47.7398L179.099 57.5779C180.382 57.7918 181.237 59.075 181.023 60.3582C180.81 61.4276 179.526 62.497 178.243 62.2831Z" fill="#11141C"/>
<path id="Vector_9" d="M141.243 69.5547L119.642 65.705C118.359 65.4911 117.503 64.2079 117.717 62.9246C117.931 61.6414 119.214 60.7859 120.498 60.9998L141.885 64.8495C143.168 65.0634 144.024 66.3466 143.81 67.6298C143.596 68.9131 142.313 69.7685 141.243 69.5547Z" fill="#A9AFC3"/>
<path id="Vector_10" opacity="0.56" d="M198.989 39.8264L193.214 72.9766C192.359 77.6818 195.78 82.1731 200.486 83.0286L230 88.1615" fill="#11141C"/>
</g>
<path id="Vector_11" d="M149.371 197.45C175.712 197.45 197.065 176.097 197.065 149.757C197.065 123.416 175.712 102.063 149.371 102.063C123.031 102.063 101.678 123.416 101.678 149.757C101.678 176.097 123.031 197.45 149.371 197.45Z" fill="#222834"/>
<g id="Group_3">
<g id="Group_4">
<g id="Vector_12" filter="url(#filter1_d_592_31370)">
<path d="M143.596 55.0114L176.319 172.641C177.388 176.705 175.035 180.768 170.972 181.838L55.6947 212.421C51.6312 213.491 47.5676 211.138 46.4982 207.074L6.29029 55.2253C5.22093 51.1618 7.57352 47.0982 11.6371 46.0288L95.0472 24L143.596 55.0114Z" fill="#202735"/>
</g>
</g>
<path id="Vector_13" opacity="0.4" d="M141.885 129.439L79.6485 145.907L72.8046 147.618L52.059 153.179C51.2035 153.393 50.5619 154.462 50.9897 155.531C51.2035 156.601 52.2729 157.242 53.1284 157.028L73.874 151.468L80.7179 149.757L142.955 133.289C143.81 133.075 144.452 132.005 144.024 130.936C143.81 129.867 142.741 129.225 141.885 129.439Z" fill="#11141C"/>
<path id="Vector_14" opacity="0.4" d="M137.822 114.896L114.724 120.884L106.81 123.023L48.4233 138.635C47.5678 138.849 46.9262 139.919 47.3539 140.988C47.5678 142.057 48.6372 142.699 49.4926 142.485L108.094 126.872L116.007 124.734L139.105 118.745C139.961 118.531 140.602 117.462 140.174 116.393C139.747 115.537 138.677 114.682 137.822 114.896Z" fill="#11141C"/>
<path id="Vector_15" opacity="0.4" d="M134.399 100.138L128.411 101.635L122.423 103.133L44.3593 123.878C43.5038 124.092 42.8622 125.161 43.29 126.231C43.5038 127.3 44.5732 127.942 45.4287 127.728L123.492 106.982L130.122 105.271L135.469 103.774C136.324 103.56 136.966 102.491 136.538 101.422C136.324 100.566 135.469 99.9245 134.399 100.138Z" fill="#11141C"/>
<path id="Vector_16" opacity="0.4" d="M98.2553 175.849L93.9779 176.918C93.1224 177.132 92.053 176.491 91.8392 175.421C91.6253 174.352 92.053 173.282 92.9085 173.069L97.186 171.999C98.0415 171.785 99.1108 172.427 99.3247 173.496C99.5386 174.78 99.1108 175.635 98.2553 175.849Z" fill="#11141C"/>
<path id="Vector_17" opacity="0.4" d="M85.2089 179.271L60.6136 185.687C59.7581 185.901 58.6888 185.259 58.4749 184.19C58.261 183.121 58.6888 182.051 59.5443 181.838L84.1396 175.421C84.995 175.207 86.0644 175.849 86.2783 176.918C86.706 177.988 86.2783 179.057 85.2089 179.271Z" fill="#11141C"/>
<path id="Vector_18" opacity="0.4" d="M131.405 85.3811L111.943 90.5141L107.238 91.7973L40.7236 109.335C39.8681 109.549 39.2265 110.618 39.6542 111.687C39.8681 112.757 40.9374 113.398 41.7929 113.185L108.093 95.8609L112.798 94.5776L132.047 89.4447C133.116 89.2308 133.544 88.1615 133.33 86.8782C133.33 86.0228 132.261 85.1673 131.405 85.3811Z" fill="#11141C"/>
<path id="Vector_19" opacity="0.4" d="M85.4231 53.0865L30.2441 67.6298C28.9609 68.0575 27.6777 67.202 27.2499 65.9188C26.8222 64.6356 27.6777 63.3523 28.9609 62.9246L84.1399 48.3813C85.4231 47.9535 86.7064 48.809 87.1341 50.0923C87.5619 51.3755 86.7064 52.6587 85.4231 53.0865Z" fill="#11141C"/>
<path id="Vector_20" opacity="0.4" d="M55.0527 75.3292L33.8794 80.8898C32.5962 81.3176 31.3129 80.4621 30.8852 79.1788C30.4575 77.8956 31.3129 76.6124 32.5962 76.1846L53.5556 70.624C54.8389 70.1962 56.1221 71.0517 56.5498 72.3349C56.9776 73.6182 56.1221 74.9014 55.0527 75.3292Z" fill="#11141C"/>
<path id="Vector_21" opacity="0.56" d="M95.0469 24L103.602 56.5086C104.885 60.9999 109.804 63.7802 114.295 62.497L143.596 55.0114" fill="#11141C"/>
</g>
<path id="Vector_22" d="M144.88 157.456C144.666 156.601 144.666 155.745 144.666 154.676C144.666 151.04 146.163 147.832 150.013 145.052L153.221 142.699C155.146 141.202 156.001 139.491 156.001 137.352C156.001 134.358 153.863 131.364 149.371 131.364C144.666 131.364 142.528 135.213 142.528 138.849C142.528 139.705 142.528 140.346 142.741 140.988L134.187 140.774C133.973 139.919 133.759 138.849 133.759 137.78C133.759 130.508 139.106 123.664 149.158 123.664C159.423 123.664 164.984 130.294 164.984 136.924C164.984 142.271 162.204 145.907 158.354 148.687L155.574 150.612C153.221 152.323 151.938 154.462 151.938 157.028V157.456H144.88ZM148.516 161.734C151.51 161.734 153.863 164.086 153.863 167.08C153.863 170.075 151.51 172.427 148.516 172.427C145.522 172.427 143.169 170.075 143.169 167.08C143.383 164.3 145.522 161.734 148.516 161.734Z" fill="#3D4451"/>
<g id="Vector_23" filter="url(#filter2_d_592_31370)">
<path d="M220.76 223.807C218.909 223.807 217.058 223.066 215.577 221.4L184.661 190.484L183.55 191.225C173.553 198.63 161.89 202.517 150.042 202.517C135.788 202.517 121.533 196.779 110.981 186.782C99.8733 176.23 93.7642 161.975 93.7642 146.424C93.7642 115.508 118.941 90.3313 149.857 90.3313C170.962 90.3313 189.474 101.439 199.471 120.322C209.283 139.019 207.987 160.864 195.953 178.451L195.213 179.562L226.314 210.663C229.461 213.81 228.721 216.957 228.165 218.623C226.684 221.585 223.722 223.807 220.76 223.807ZM149.857 105.697C127.272 105.697 109.13 124.024 109.13 146.424C109.13 171.972 130.049 187.337 150.413 187.337C162.816 187.337 174.109 181.783 182.069 171.787C191.881 159.568 193.547 143.092 186.697 128.837C179.662 114.583 165.593 105.697 149.857 105.697Z" fill="#282F3E"/>
</g>
</g>
</g>
<defs>
<filter id="filter0_d_592_31370" x="56.0591" y="13.7004" width="195.941" height="234.229" filterUnits="userSpaceOnUse" color-interpolation-filters="sRGB">
<feFlood flood-opacity="0" result="BackgroundImageFix"/>
<feColorMatrix in="SourceAlpha" type="matrix" values="0 0 0 0 0 0 0 0 0 0 0 0 0 0 0 0 0 0 127 0" result="hardAlpha"/>
<feOffset dy="11"/>
<feGaussianBlur stdDeviation="11"/>
<feColorMatrix type="matrix" values="0 0 0 0 0 0 0 0 0 0 0 0 0 0 0 0 0 0 0.27 0"/>
<feBlend mode="normal" in2="BackgroundImageFix" result="effect1_dropShadow_592_31370"/>
<feBlend mode="normal" in="SourceGraphic" in2="effect1_dropShadow_592_31370" result="shape"/>
</filter>
<filter id="filter1_d_592_31370" x="-15.9673" y="13" width="214.543" height="232.679" filterUnits="userSpaceOnUse" color-interpolation-filters="sRGB">
<feFlood flood-opacity="0" result="BackgroundImageFix"/>
<feColorMatrix in="SourceAlpha" type="matrix" values="0 0 0 0 0 0 0 0 0 0 0 0 0 0 0 0 0 0 127 0" result="hardAlpha"/>
<feOffset dy="11"/>
<feGaussianBlur stdDeviation="11"/>
<feColorMatrix type="matrix" values="0 0 0 0 0 0 0 0 0 0 0 0 0 0 0 0 0 0 0.27 0"/>
<feBlend mode="normal" in2="BackgroundImageFix" result="effect1_dropShadow_592_31370"/>
<feBlend mode="normal" in="SourceGraphic" in2="effect1_dropShadow_592_31370" result="shape"/>
</filter>
<filter id="filter2_d_592_31370" x="89.7642" y="90.3313" width="142.897" height="141.476" filterUnits="userSpaceOnUse" color-interpolation-filters="sRGB">
<feFlood flood-opacity="0" result="BackgroundImageFix"/>
<feColorMatrix in="SourceAlpha" type="matrix" values="0 0 0 0 0 0 0 0 0 0 0 0 0 0 0 0 0 0 127 0" result="hardAlpha"/>
<feOffset dy="4"/>
<feGaussianBlur stdDeviation="2"/>
<feComposite in2="hardAlpha" operator="out"/>
<feColorMatrix type="matrix" values="0 0 0 0 0 0 0 0 0 0 0 0 0 0 0 0 0 0 0.25 0"/>
<feBlend mode="normal" in2="BackgroundImageFix" result="effect1_dropShadow_592_31370"/>
<feBlend mode="normal" in="SourceGraphic" in2="effect1_dropShadow_592_31370" result="shape"/>
</filter>
<clipPath id="clip0_592_31370">
<rect width="240" height="240" fill="white"/>
</clipPath>
</defs>

</symbol>
<symbol id="empty-transactions" viewBox="0 0 240 260">
<g clip-path="url(#clip0_887_64481)">
<circle opacity="0.24" cx="120" cy="140" r="120" fill="#282F3E"/>
<g opacity="0.5" filter="url(#filter0_d_887_64481)">
<ellipse cx="164.762" cy="55.8856" rx="11.4992" ry="15.3484" transform="rotate(-31 164.762 55.8856)" fill="#19202F"/>
</g>
<ellipse cx="168.286" cy="53.8919" rx="11.4992" ry="15.1305" transform="rotate(-31 168.286 53.8919)" fill="#151C2A"/>
<path opacity="0.32" fill-rule="evenodd" clip-rule="evenodd" d="M174.801 58.2231C175.02 56.2222 174.538 53.6197 173 51.0596C171.461 48.4994 169.39 46.8519 167.521 46.1056C165.656 45.3613 164.353 45.6032 163.583 46.0655C162.814 46.5278 161.988 47.5653 161.77 49.5606C161.552 51.5614 162.034 54.164 163.572 56.7241C165.111 59.2843 167.182 60.9318 169.051 61.6781C170.915 62.4224 172.219 62.1805 172.988 61.7182C173.758 61.2559 174.584 60.2184 174.801 58.2231ZM176.079 66.8612C181.522 63.5903 182.446 55.1321 178.143 47.9693C173.839 40.8066 165.937 37.6516 160.493 40.9225C155.049 44.1934 154.125 52.6516 158.429 59.8143C162.733 66.9771 170.635 70.1321 176.079 66.8612Z" fill="#282F3E"/>
<path opacity="0.72" d="M166.081 51.154L166.986 52.8552C167.028 52.9341 167.089 52.99 167.17 53.023C167.26 53.0507 167.345 53.0436 167.424 53.0016L168.829 52.2544C170.052 51.6041 171.01 51.9299 171.702 53.2317L172.89 55.4655C173.582 56.7673 173.317 57.7434 172.094 58.3936L170.452 59.2667C169.229 59.9169 168.271 59.5911 167.579 58.2893L167.201 57.5793L169.169 56.5331L169.57 57.2876C169.612 57.3665 169.673 57.4224 169.754 57.4553C169.845 57.4831 169.929 57.4759 170.008 57.434L170.881 56.9699C170.96 56.928 171.008 56.8643 171.026 56.7789C171.054 56.6883 171.047 56.6035 171.005 56.5246L169.88 54.4091C169.838 54.3302 169.772 54.2769 169.681 54.2492C169.601 54.2163 169.521 54.2208 169.442 54.2627L168.051 55.0021C166.828 55.6523 165.871 55.3266 165.179 54.0247L163.346 50.5779L168.376 47.9035L169.217 49.4864L166.081 51.154Z" fill="#11141C"/>
<g opacity="0.5" filter="url(#filter1_d_887_64481)">
<ellipse cx="217.05" cy="141.328" rx="11.4992" ry="15.3484" transform="rotate(14 217.05 141.328)" fill="#19202F"/>
</g>
<ellipse cx="220.952" cy="142.41" rx="11.4992" ry="15.1305" transform="rotate(14 220.952 142.41)" fill="#151C2A"/>
<path opacity="0.32" fill-rule="evenodd" clip-rule="evenodd" d="M222.496 150.08C224.066 148.82 225.565 146.638 226.288 143.74C227.01 140.842 226.71 138.213 225.916 136.363C225.125 134.519 224.032 133.768 223.161 133.551C222.29 133.334 220.972 133.483 219.407 134.74C217.838 136 216.339 138.182 215.616 141.08C214.894 143.978 215.193 146.607 215.987 148.457C216.779 150.301 217.872 151.052 218.743 151.269C219.614 151.486 220.931 151.337 222.496 150.08ZM217.292 157.091C223.454 158.627 230.088 153.3 232.109 145.192C234.131 137.084 230.774 129.265 224.612 127.729C218.45 126.193 211.816 131.52 209.794 139.628C207.773 147.736 211.129 155.555 217.292 157.091Z" fill="#282F3E"/>
<path opacity="0.72" d="M221.329 138.915L220.766 140.757C220.739 140.843 220.743 140.926 220.777 141.006C220.822 141.09 220.887 141.145 220.972 141.171L222.494 141.636C223.819 142.041 224.265 142.949 223.834 144.359L223.095 146.778C222.664 148.188 221.786 148.691 220.461 148.286L218.683 147.742C217.358 147.337 216.911 146.43 217.343 145.02L217.578 144.25L219.709 144.902L219.459 145.719C219.433 145.805 219.437 145.888 219.47 145.968C219.515 146.052 219.58 146.107 219.665 146.133L220.611 146.422C220.696 146.448 220.775 146.437 220.848 146.389C220.932 146.345 220.987 146.28 221.013 146.194L221.713 143.903C221.74 143.818 221.73 143.733 221.686 143.649C221.652 143.569 221.592 143.516 221.507 143.49L220.001 143.029C218.676 142.624 218.23 141.717 218.661 140.307L219.802 136.574L225.25 138.239L224.726 139.953L221.329 138.915Z" fill="#11141C"/>
<g filter="url(#filter2_d_887_64481)">
<path fill-rule="evenodd" clip-rule="evenodd" d="M111.073 52.641C110.421 49.6115 108.337 47.0881 105.485 45.876V45.876V45.876C108.343 44.6612 110.449 42.1538 111.151 39.1285L111.181 39.0014L111.21 39.1285C111.913 42.1538 114.019 44.6612 116.877 45.876V45.876V45.876C114.025 47.0881 111.941 49.6115 111.289 52.641L111.181 53.1435L111.073 52.641Z" fill="#3D4451"/>
</g>
<g filter="url(#filter3_d_887_64481)">
<path fill-rule="evenodd" clip-rule="evenodd" d="M10.9685 182.875C9.99092 178.331 6.86438 174.546 2.58641 172.728V172.728V172.728C6.87386 170.905 10.0325 167.144 11.0863 162.606L11.1306 162.416L11.1749 162.606C12.2287 167.144 15.3874 170.905 19.6748 172.728V172.728V172.728C15.3968 174.546 12.2703 178.331 11.2927 182.875L11.1306 183.629L10.9685 182.875Z" fill="#3D4451"/>
</g>
<g filter="url(#filter4_d_887_64481)">
<path fill-rule="evenodd" clip-rule="evenodd" d="M223.444 42.8963C223.354 41.7533 222.56 40.8208 221.467 40.4732L177.727 26.5555C175.285 25.7785 172.854 28.2936 173.481 30.7784C175.736 39.7128 177.831 56.6593 166.816 70.5341C151.066 90.3723 145.129 110.004 148.412 128.638C170.127 138.611 198.449 146.03 198.449 146.03C198.449 146.03 189.052 125.648 208.235 97.4996C224.509 73.6215 223.979 49.6266 223.444 42.8963Z" fill="#202735"/>
</g>
<path opacity="0.48" fill-rule="evenodd" clip-rule="evenodd" d="M189.306 143.443C194.881 145.095 198.449 146.03 198.449 146.03C198.449 146.03 196.965 142.81 196.38 137.164C195.494 128.602 196.676 114.461 208.235 97.4996C224.509 73.6215 223.979 49.6266 223.445 42.8963C223.354 41.7533 222.56 40.8208 221.467 40.4732L177.727 26.5555C175.285 25.7785 172.854 28.2936 173.481 30.7784C175.736 39.7128 177.831 56.6593 166.816 70.5341C151.066 90.3723 145.129 110.004 148.412 128.638C162.419 135.071 179.176 140.441 189.306 143.443ZM188.191 134.754C186.863 134.348 185.457 133.912 183.989 133.447C175.532 130.769 165.178 127.196 155.743 123.141C154.413 108.467 159.599 92.4913 173.081 75.5083C183.545 62.3274 184.125 47.149 182.719 36.5391L215.627 47.0102C215.763 55.6804 214.308 74.384 201.624 92.9943C191.125 108.4 188.206 122.089 188.148 132.275C188.144 133.129 188.159 133.955 188.191 134.754Z" fill="#11141C"/>
<ellipse opacity="0.48" rx="3.89569" ry="4.7614" transform="matrix(-0.990268 0.139173 0.139173 0.990268 198.21 55.0501)" fill="#11141C"/>
<ellipse opacity="0.48" rx="3.89569" ry="4.7614" transform="matrix(-0.996195 -0.0871557 -0.0871557 0.996195 172.487 114.615)" fill="#11141C"/>
<ellipse opacity="0.48" rx="11.9468" ry="17.141" transform="matrix(-0.891007 -0.45399 -0.45399 0.891007 186.732 84.7256)" fill="#11141C"/>
<path d="M188.502 83.874C190.246 84.7981 190.648 86.1816 189.709 88.0246L188.3 90.7892C187.347 92.6605 185.991 93.1484 184.233 92.2526L183.361 91.8084L182.419 93.6585L181.632 93.2576L182.575 91.4075L181.724 90.9741C179.966 90.0783 179.564 88.6948 180.517 86.8234L181.243 85.3986L183.753 86.6772L182.842 88.4635C182.785 88.5769 182.769 88.6942 182.797 88.8154C182.839 88.9438 182.916 89.0369 183.03 89.0947L183.604 89.3872L185.63 85.4106L184.779 84.9772C183.022 84.0814 182.619 82.6979 183.573 80.8265L184.884 78.2534C185.837 76.382 187.193 75.8942 188.951 76.7899L189.802 77.2233L190.365 76.1175L191.152 76.5184L190.589 77.6242L191.312 77.9926C193.07 78.8884 193.472 80.2719 192.518 82.1433L191.998 83.164L189.489 81.8855L190.182 80.5245C190.24 80.411 190.248 80.2901 190.206 80.1617C190.179 80.0406 190.108 79.9511 189.995 79.8933L189.548 79.6657L187.63 83.4297L188.502 83.874ZM186.291 82.7471L186.844 83.0288L188.762 79.2648L188.209 78.9831C188.095 78.9253 187.974 78.9173 187.846 78.959C187.732 79.008 187.646 79.0891 187.588 79.2026L186.103 82.1159C186.046 82.2294 186.031 82.3467 186.058 82.4678C186.1 82.5962 186.177 82.6893 186.291 82.7471ZM185.607 89.8721L187.2 86.7461C187.257 86.6326 187.266 86.5117 187.224 86.3833C187.196 86.2622 187.126 86.1727 187.012 86.1149L186.417 85.8115L184.391 89.7882L184.986 90.0915C185.1 90.1493 185.213 90.1538 185.328 90.1048C185.456 90.0631 185.549 89.9855 185.607 89.8721Z" fill="#282F3E"/>
<path d="M11 12.4078C11 5.55569 16.5547 0.000984192 23.4068 0.000984192H56.1671C62.5458 0.000984192 67.7167 5.17194 67.7167 11.5506C67.7167 17.9293 62.5458 23.1003 56.1671 23.1003H11V12.4078Z" fill="#171E2C"/>
<g filter="url(#filter5_d_887_64481)">
<path fill-rule="evenodd" clip-rule="evenodd" d="M24.6487 0.000934342H71.2878C84.8961 0.000934342 95.9278 11.0326 95.9278 24.6409V102.424H61.3778C48.8983 102.424 38.7816 92.3078 38.7816 79.8282V14.3221C38.7816 6.48591 32.4841 0.104585 24.6487 0.000934342Z" fill="#202735"/>
</g>
<path fill-rule="evenodd" clip-rule="evenodd" d="M61.7193 79.1459C61.7193 74.2724 65.6702 70.3215 70.5437 70.3215C87.9494 70.3215 102.059 84.4316 102.059 101.837V102.424H53.7736C58.6583 99.8671 61.7193 94.8093 61.7193 89.2956V79.1459Z" fill="#171E2C"/>
<g filter="url(#filter6_d_887_64481)">
<path fill-rule="evenodd" clip-rule="evenodd" d="M77.5332 70.3215H112.676C126.284 70.3215 137.316 81.3533 137.316 94.9615V125.355H91.7084V84.6844C91.7084 76.825 85.3919 70.4249 77.5332 70.3215Z" fill="#202735"/>
</g>
<g opacity="0.24">
<path d="M50.7078 55.0345C50.7078 53.768 51.7344 52.7414 53.0008 52.7414H81.3717C82.6381 52.7414 83.6648 53.768 83.6648 55.0345C83.6648 56.3009 82.6381 57.3275 81.3717 57.3275H53.0008C51.7344 57.3275 50.7078 56.3009 50.7078 55.0345Z" fill="#11141C"/>
<path d="M102.059 105.482C102.059 104.215 103.086 103.189 104.352 103.189H125.825C127.092 103.189 128.118 104.215 128.118 105.482C128.118 106.748 127.092 107.775 125.825 107.775H104.352C103.086 107.775 102.059 106.748 102.059 105.482Z" fill="#11141C"/>
</g>
<g opacity="0.4">
<path d="M50.7078 21.4029C50.7078 20.1364 51.7344 19.1098 53.0008 19.1098H81.3717C82.6381 19.1098 83.6648 20.1364 83.6648 21.4029C83.6648 22.6693 82.6381 23.6959 81.3717 23.6959H53.0008C51.7344 23.6959 50.7078 22.6693 50.7078 21.4029Z" fill="#11141C"/>
<path d="M50.7078 37.4543C50.7078 36.1879 51.7344 35.1613 53.0008 35.1613H81.3717C82.6381 35.1613 83.6648 36.1879 83.6648 37.4543C83.6648 38.7207 82.6381 39.7474 81.3717 39.7474H53.0008C51.7344 39.7474 50.7078 38.7207 50.7078 37.4543Z" fill="#11141C"/>
<path d="M50.7078 46.6266C50.7078 45.3602 51.7344 44.3335 53.0008 44.3335H74.4737C75.7402 44.3335 76.7668 45.3602 76.7668 46.6266C76.7668 47.893 75.7402 48.9196 74.4737 48.9196H53.0008C51.7344 48.9196 50.7078 47.893 50.7078 46.6266Z" fill="#11141C"/>
<path d="M102.059 88.6661C102.059 87.3997 103.086 86.373 104.352 86.373H125.825C127.092 86.373 128.118 87.3997 128.118 88.6661C128.118 89.9325 127.092 90.9591 125.825 90.9591H104.352C103.086 90.9591 102.059 89.9325 102.059 88.6661Z" fill="#11141C"/>
<path d="M102.059 97.074C102.059 95.8075 103.086 94.7809 104.352 94.7809H119.694C120.96 94.7809 121.987 95.8075 121.987 97.074C121.987 98.3404 120.96 99.367 119.694 99.367H104.352C103.086 99.367 102.059 98.3404 102.059 97.074Z" fill="#11141C"/>
</g>
<g filter="url(#filter7_d_887_64481)">
<rect x="25" y="121" width="191" height="117" rx="10" fill="#202735"/>
</g>
<rect opacity="0.56" x="25" y="141.75" width="191" height="25.1316" fill="#11141C"/>
<g opacity="0.64">
<circle opacity="0.6" cx="59.5559" cy="203.72" r="15.7072" fill="#11141C"/>
<circle opacity="0.502038" cx="74.6351" cy="203.72" r="15.7072" fill="#11141C"/>
</g>
<rect opacity="0.64" x="161.967" y="209.375" width="35.1842" height="10.0526" rx="5.02632" fill="#11141C"/>
</g>
<defs>
<filter id="filter0_d_887_64481" x="140.126" y="29.4543" width="49.271" height="52.8626" filterUnits="userSpaceOnUse" color-interpolation-filters="sRGB">
<feFlood flood-opacity="0" result="BackgroundImageFix"/>
<feColorMatrix in="SourceAlpha" type="matrix" values="0 0 0 0 0 0 0 0 0 0 0 0 0 0 0 0 0 0 127 0" result="hardAlpha"/>
<feOffset/>
<feGaussianBlur stdDeviation="6"/>
<feColorMatrix type="matrix" values="0 0 0 0 0 0 0 0 0 0 0 0 0 0 0 0 0 0 0.16 0"/>
<feBlend mode="normal" in2="BackgroundImageFix" result="effect1_dropShadow_887_64481"/>
<feBlend mode="normal" in="SourceGraphic" in2="effect1_dropShadow_887_64481" result="shape"/>
</filter>
<filter id="filter1_d_887_64481" x="193.288" y="114.175" width="47.5248" height="54.3056" filterUnits="userSpaceOnUse" color-interpolation-filters="sRGB">
<feFlood flood-opacity="0" result="BackgroundImageFix"/>
<feColorMatrix in="SourceAlpha" type="matrix" values="0 0 0 0 0 0 0 0 0 0 0 0 0 0 0 0 0 0 127 0" result="hardAlpha"/>
<feOffset/>
<feGaussianBlur stdDeviation="6"/>
<feColorMatrix type="matrix" values="0 0 0 0 0 0 0 0 0 0 0 0 0 0 0 0 0 0 0.16 0"/>
<feBlend mode="normal" in2="BackgroundImageFix" result="effect1_dropShadow_887_64481"/>
<feBlend mode="normal" in="SourceGraphic" in2="effect1_dropShadow_887_64481" result="shape"/>
</filter>
<filter id="filter2_d_887_64481" x="89.4849" y="23.0014" width="43.3922" height="46.1421" filterUnits="userSpaceOnUse" color-interpolation-filters="sRGB">
<feFlood flood-opacity="0" result="BackgroundImageFix"/>
<feColorMatrix in="SourceAlpha" type="matrix" values="0 0 0 0 0 0 0 0 0 0 0 0 0 0 0 0 0 0 127 0" result="hardAlpha"/>
<feOffset/>
<feGaussianBlur stdDeviation="8"/>
<feColorMatrix type="matrix" values="0 0 0 0 0 0 0 0 0 0 0 0 0 0 0 0 0 0 0.24 0"/>
<feBlend mode="normal" in2="BackgroundImageFix" result="effect1_dropShadow_887_64481"/>
<feBlend mode="normal" in="SourceGraphic" in2="effect1_dropShadow_887_64481" result="shape"/>
</filter>
<filter id="filter3_d_887_64481" x="-13.4136" y="146.416" width="49.0884" height="53.2132" filterUnits="userSpaceOnUse" color-interpolation-filters="sRGB">
<feFlood flood-opacity="0" result="BackgroundImageFix"/>
<feColorMatrix in="SourceAlpha" type="matrix" values="0 0 0 0 0 0 0 0 0 0 0 0 0 0 0 0 0 0 127 0" result="hardAlpha"/>
<feOffset/>
<feGaussianBlur stdDeviation="8"/>
<feColorMatrix type="matrix" values="0 0 0 0 0 0 0 0 0 0 0 0 0 0 0 0 0 0 0.24 0"/>
<feBlend mode="normal" in2="BackgroundImageFix" result="effect1_dropShadow_887_64481"/>
<feBlend mode="normal" in="SourceGraphic" in2="effect1_dropShadow_887_64481" result="shape"/>
</filter>
<filter id="filter4_d_887_64481" x="135.539" y="14.4119" width="100.096" height="143.618" filterUnits="userSpaceOnUse" color-interpolation-filters="sRGB">
<feFlood flood-opacity="0" result="BackgroundImageFix"/>
<feColorMatrix in="SourceAlpha" type="matrix" values="0 0 0 0 0 0 0 0 0 0 0 0 0 0 0 0 0 0 127 0" result="hardAlpha"/>
<feOffset/>
<feGaussianBlur stdDeviation="6"/>
<feColorMatrix type="matrix" values="0 0 0 0 0 0 0 0 0 0 0 0 0 0 0 0 0 0 0.16 0"/>
<feBlend mode="normal" in2="BackgroundImageFix" result="effect1_dropShadow_887_64481"/>
<feBlend mode="normal" in="SourceGraphic" in2="effect1_dropShadow_887_64481" result="shape"/>
</filter>
<filter id="filter5_d_887_64481" x="8.64868" y="-15.9991" width="103.279" height="134.424" filterUnits="userSpaceOnUse" color-interpolation-filters="sRGB">
<feFlood flood-opacity="0" result="BackgroundImageFix"/>
<feColorMatrix in="SourceAlpha" type="matrix" values="0 0 0 0 0 0 0 0 0 0 0 0 0 0 0 0 0 0 127 0" result="hardAlpha"/>
<feOffset/>
<feGaussianBlur stdDeviation="8"/>
<feColorMatrix type="matrix" values="0 0 0 0 0 0 0 0 0 0 0 0 0 0 0 0 0 0 0.24 0"/>
<feBlend mode="normal" in2="BackgroundImageFix" result="effect1_dropShadow_887_64481"/>
<feBlend mode="normal" in="SourceGraphic" in2="effect1_dropShadow_887_64481" result="shape"/>
</filter>
<filter id="filter6_d_887_64481" x="61.5332" y="54.3215" width="91.7825" height="87.0335" filterUnits="userSpaceOnUse" color-interpolation-filters="sRGB">
<feFlood flood-opacity="0" result="BackgroundImageFix"/>
<feColorMatrix in="SourceAlpha" type="matrix" values="0 0 0 0 0 0 0 0 0 0 0 0 0 0 0 0 0 0 127 0" result="hardAlpha"/>
<feOffset/>
<feGaussianBlur stdDeviation="8"/>
<feColorMatrix type="matrix" values="0 0 0 0 0 0 0 0 0 0 0 0 0 0 0 0 0 0 0.24 0"/>
<feBlend mode="normal" in2="BackgroundImageFix" result="effect1_dropShadow_887_64481"/>
<feBlend mode="normal" in="SourceGraphic" in2="effect1_dropShadow_887_64481" result="shape"/>
</filter>
<filter id="filter7_d_887_64481" x="13" y="109" width="215" height="141" filterUnits="userSpaceOnUse" color-interpolation-filters="sRGB">
<feFlood flood-opacity="0" result="BackgroundImageFix"/>
<feColorMatrix in="SourceAlpha" type="matrix" values="0 0 0 0 0 0 0 0 0 0 0 0 0 0 0 0 0 0 127 0" result="hardAlpha"/>
<feOffset/>
<feGaussianBlur stdDeviation="6"/>
<feColorMatrix type="matrix" values="0 0 0 0 0 0 0 0 0 0 0 0 0 0 0 0 0 0 0.16 0"/>
<feBlend mode="normal" in2="BackgroundImageFix" result="effect1_dropShadow_887_64481"/>
<feBlend mode="normal" in="SourceGraphic" in2="effect1_dropShadow_887_64481" result="shape"/>
</filter>
<clipPath id="clip0_887_64481">
<rect width="240" height="260" fill="white"/>
</clipPath>
</defs>

</symbol>
<symbol id="fast-withdrawals" viewBox="0 0 48 48">
<path fill-rule="evenodd" clip-rule="evenodd" d="M25.1792 10.4417V14.1434L25.6322 14.198C27.6939 14.4479 29.9586 15.3694 31.6142 16.6424L32.0672 16.9938L34.6833 14.3776L37.2995 11.7615L36.7294 11.2773C35.7376 10.4495 34.0976 9.40301 32.7934 8.76264C30.4897 7.63808 28.3967 7.06018 25.6322 6.78685L25.1792 6.73999V10.4417ZM21.8993 6.82589C19.0644 7.11484 15.9797 8.16912 13.5275 9.68415C12.8013 10.1371 11.5283 11.0586 11.0207 11.5116L10.7239 11.7771L13.3323 14.3854L15.9407 16.986L16.5186 16.5643C17.1199 16.1191 17.7993 15.6974 18.3694 15.4163C19.4315 14.8774 21.2511 14.323 22.3522 14.198L22.8364 14.1434V10.4417C22.8364 6.96646 22.8286 6.73999 22.7037 6.7478L22.6357 6.75483L22.6357 6.75483C22.4958 6.76943 22.2002 6.80028 21.8993 6.82589ZM5.20266 19.8675C5.91332 17.9229 7.24873 15.5957 8.51386 14.0729L9.0371 13.4403L11.6533 16.0565L14.2616 18.6648L13.754 19.3521C12.606 20.9061 11.7782 22.9366 11.5049 24.8499L11.4034 25.5606H7.70168H4L4.05467 25.0295C4.23428 23.2255 4.63257 21.4059 5.20266 19.8675ZM36.3546 16.0643L33.754 18.6648L34.2616 19.3521C35.4018 20.8983 36.2452 22.9522 36.5186 24.8733L36.6123 25.5606H40.3061C43.2191 25.5606 44 25.5371 44 25.459C44 25.0686 43.7267 23.1787 43.5627 22.4446C42.9145 19.5004 41.3682 16.3064 39.5096 14.0807L39.3546 13.8962L39.3545 13.8961L39.3539 13.8953C39.1407 13.6415 38.9849 13.4559 38.9785 13.4559C38.9707 13.4559 37.7915 14.6273 36.3546 16.0643ZM20.7278 28.4109C19.6501 26.1774 20.884 23.6783 23.344 23.1395C23.8047 23.038 24.6794 23.1083 25.2417 23.3035C26.2101 23.6315 26.8739 24.2953 28.6154 26.6928C30.0757 28.7076 34.613 35.5565 34.8317 36.0797C35.1519 36.8451 34.6052 37.665 33.7696 37.665C33.426 37.665 33.2698 37.5791 31.7313 36.5952C30.8098 36.0094 28.998 34.8146 27.6939 33.9399C22.7427 30.6209 21.2042 29.4027 20.7278 28.4109ZM4.05467 28.4266C4.51542 33.1513 6.34284 37.2044 9.47442 40.4922C10.146 41.2029 10.4506 41.3434 10.9816 41.1872C11.2628 41.1013 11.6298 40.7733 13.2542 39.1646C15.8235 36.6031 15.8313 36.5953 14.6755 35.2755C12.8559 33.1982 11.7548 30.8241 11.4658 28.3485L11.4112 27.9034H7.70949H4L4.05467 28.4266ZM35.5892 31.8234C36.05 30.8082 36.417 29.4806 36.5498 28.3482L36.6045 27.9031H40.2983C43.2191 27.9031 44 27.9265 44 28.0046C44 28.3248 43.7501 30.1678 43.6095 30.816C42.8833 34.3693 41.1183 37.7586 38.6505 40.3748C37.5572 41.5384 37.1746 41.5462 36.0188 40.4138C35.6361 40.0468 35.3315 39.7266 35.3315 39.6954C35.3315 39.6719 35.4565 39.586 35.6049 39.5079C35.9641 39.3127 36.6748 38.563 36.8856 38.1491C37.3386 37.2666 37.3932 36.1577 37.0262 35.2596C36.9247 34.9941 36.4951 34.2522 36.0734 33.604L35.3159 32.4247L35.5892 31.8234Z" fill="url(#paint0_linear_135_11838)"/>
<defs>
<linearGradient id="paint0_linear_135_11838" x1="56.021" y1="-0.810254" x2="7.745" y2="55.8917" gradientUnits="userSpaceOnUse">
<stop offset="0.104422" stop-color="#FFC53A"/>
<stop offset="0.9375" stop-color="#FF124C"/>
</linearGradient>
</defs>

</symbol>
<symbol id="live-chat-support" viewBox="0 0 48 48">
<path fill-rule="evenodd" clip-rule="evenodd" d="M10.2051 15.1596C12.4707 10.394 17.0723 7.08928 22.3067 6.47991C23.7285 6.31584 25.627 6.40959 27.1192 6.71428C31.5879 7.62834 35.6426 10.8002 37.627 14.9252L38.0254 15.7612L39.4082 15.769C40.1661 15.769 40.9786 15.808 41.2051 15.8549C42.5176 16.1362 43.6348 17.2533 43.9161 18.5658C44.0333 19.1205 44.0333 24.1283 43.9161 24.6908C43.6426 25.9955 42.5567 27.1049 41.2598 27.4018C41.0723 27.4487 40.2676 27.4877 39.4707 27.4877H38.0254L37.6192 28.3315C37.4004 28.8002 36.9395 29.5971 36.5957 30.1127C34.4786 33.2612 31.4551 35.4018 27.6192 36.4408C27.541 36.4565 27.5176 36.7221 27.5176 37.4018C27.5176 38.9643 27.2676 39.6987 26.4707 40.5033C25.0645 41.9018 22.9395 41.9018 21.5332 40.5033C20.9785 39.9487 20.6817 39.3705 20.5488 38.5893C20.3301 37.2924 20.9317 35.8705 22.0176 35.1518C22.6895 34.7065 23.1504 34.5893 24.4395 34.5112C25.0801 34.4799 25.9629 34.3783 26.3926 34.2924C31.916 33.2143 36.0411 28.8158 36.7754 23.2143C37.4864 17.7924 34.6348 12.519 29.666 10.0658C28.0254 9.25334 26.4395 8.84709 24.5801 8.76116C21.0176 8.59709 17.502 9.94866 14.9863 12.4487C11.8067 15.5971 10.5098 19.894 11.3926 24.3237C11.4629 24.6674 11.6895 25.4955 11.9004 26.1674C12.1113 26.8393 12.2832 27.4096 12.2832 27.4408C12.2832 27.4643 11.1113 27.4877 9.68946 27.4877C6.92383 27.4877 6.66602 27.4565 5.90039 27.0893C5.68946 26.9877 5.31445 26.6987 5.04883 26.4408C4.54102 25.9252 4.22852 25.3705 4.08789 24.6908C3.9707 24.1362 3.9707 19.1283 4.08789 18.5658C4.36133 17.2533 5.47852 16.1362 6.79883 15.8549C7.02539 15.808 7.82227 15.769 8.56446 15.769H9.92384L10.2051 15.1596ZM16.3613 14.394C18.0723 12.6049 20.3145 11.4643 22.6973 11.1596C23.5488 11.0502 25.3301 11.1362 26.1504 11.3159C28.3066 11.8002 29.8613 12.644 31.3926 14.1674C32.9941 15.7612 33.8848 17.4174 34.3691 19.683C34.5566 20.5893 34.5645 22.6596 34.3691 23.5815C33.8145 26.2455 32.3926 28.5033 30.2598 30.1127C29.1426 30.9487 27.6816 31.6127 26.1504 31.9643C25.4785 32.1205 25.1895 32.1283 19.4551 32.1518L13.4551 32.183V31.019V29.8549L13.8066 29.808C14.5098 29.7065 15.1973 29.2143 15.5176 28.5737L15.7129 28.183L15.2832 27.558C12.5098 23.4721 12.9629 17.9409 16.3613 14.394ZM20.4863 22.8002V21.6283V20.4565H19.3145H18.1426V21.6283V22.8002H19.3145H20.4863ZM25.1738 22.8002V21.6283V20.4565H24.002H22.8301V21.6283V22.8002H24.002H25.1738ZM29.8613 22.8002V21.6283V20.4565H28.6895H27.5176V21.6283V22.8002H28.6895H29.8613Z" fill="url(#paint0_linear_135_11850)"/>
<defs>
<linearGradient id="paint0_linear_135_11850" x1="56.0261" y1="-1.28951" x2="6.72468" y2="55.5735" gradientUnits="userSpaceOnUse">
<stop offset="0.104422" stop-color="#FFC53A"/>
<stop offset="0.9375" stop-color="#FF124C"/>
</linearGradient>
</defs>

</symbol>
<symbol id="privacy-security" viewBox="0 0 48 48">
<path d="M23.4131 4.1443C23.2409 4.23034 22.8027 4.56664 22.4349 4.89513C20.2592 6.87389 17.8488 8.2035 15.0314 9.00126C13.4271 9.45489 11.0089 9.77556 9.22454 9.78338C8.11324 9.7912 7.72194 9.96326 7.38542 10.6046C7.22107 10.9096 7.22107 10.9957 7.22107 16.3923C7.21325 22.3207 7.23673 22.8057 7.69064 25.6604C9.10715 34.5609 13.9358 40.3408 22.7401 43.6569C24.047 44.1497 24.0314 44.1497 25.9018 43.4067C28.4374 42.4056 30.8713 41.0212 32.7417 39.5117C33.7591 38.6905 35.3791 37.0168 36.1695 35.9687C38.2904 33.1531 39.6286 29.8056 40.3173 25.5822C40.7556 22.876 40.7869 22.3051 40.7791 16.3923C40.7791 10.9331 40.7791 10.9174 40.6069 10.589C40.4034 10.1979 40.1217 9.96326 39.7382 9.86941C39.5817 9.8303 38.8773 9.77556 38.1652 9.75209C33.1017 9.58003 28.9305 7.97668 25.5653 4.89513C24.587 4.00352 24.0862 3.83145 23.4131 4.1443ZM30.707 18.8247C31.2157 19.3643 31.6383 19.8414 31.6539 19.8727C31.6696 19.9118 29.6818 21.8124 27.2479 24.1118C22.7479 28.3431 22.4036 28.6324 21.8479 28.6324C21.2844 28.6246 21.0497 28.4213 18.7958 25.9263C17.5984 24.5967 16.5575 23.4392 16.4793 23.3531C16.3384 23.1967 16.3619 23.1733 17.3714 22.2816C17.9427 21.7811 18.4279 21.3587 18.4592 21.3431C18.4905 21.3353 19.2731 22.1643 20.2044 23.1967C21.1357 24.2291 21.9418 25.0816 21.9888 25.0894C22.0436 25.0973 23.7888 23.4705 25.8783 21.4761C27.9679 19.4817 29.6974 17.847 29.7287 17.847C29.7522 17.8392 30.1904 18.285 30.707 18.8247Z" fill="url(#paint0_linear_135_12133)"/>
<defs>
<linearGradient id="paint0_linear_135_12133" x1="50.8656" y1="52.75" x2="-5.07021" y2="5.18675" gradientUnits="userSpaceOnUse">
<stop offset="0.104422" stop-color="#FFC53A"/>
<stop offset="0.9375" stop-color="#FF124C"/>
</linearGradient>
</defs>

</symbol>
<symbol id="provably-fair-slots" viewBox="0 0 48 48">
<path fill-rule="evenodd" clip-rule="evenodd" d="M23.4699 4.1045C22.9914 4.34681 22.8659 4.62039 22.8423 5.52711C22.8401 5.5901 22.8385 5.64834 22.8369 5.70221C22.8273 6.03362 22.8225 6.1997 22.7373 6.29017C22.6518 6.38106 22.4851 6.39563 22.1511 6.42484C22.0937 6.42985 22.0314 6.4353 21.9637 6.44164C21.1086 6.51981 19.5867 6.85592 18.6139 7.1764C17.2489 7.62194 16.4252 8.00495 14.5267 9.04455C11.3181 10.8189 8.76851 11.9992 6.03847 12.9763C5.28536 13.242 4.55578 13.5469 4.41457 13.6485C3.77913 14.1097 3.91249 15.2274 4.65776 15.5792C4.97156 15.7277 5.65407 15.7433 7.3878 15.6261C9.95309 15.4541 11.8202 15.1336 14.9817 14.3442C18.9591 13.3515 22.2226 12.9919 25.6508 13.1873C28.475 13.3515 30.1146 13.6094 33.3389 14.4145C36.3513 15.1649 38.085 15.4541 40.619 15.6261C42.3527 15.7433 43.0352 15.7277 43.349 15.5792C44.0943 15.2274 44.2276 14.1097 43.5922 13.6485C43.451 13.5469 42.8626 13.2968 42.2821 13.0857C39.301 12.0305 36.822 10.8971 33.5585 9.09145C32.7269 8.63028 31.7228 8.09875 31.3227 7.91115C29.8557 7.23112 27.5258 6.58234 26.0431 6.44164C25.982 6.43602 25.9253 6.43104 25.8725 6.4264L25.8725 6.4264C25.5044 6.39405 25.3307 6.37879 25.2493 6.28413C25.1766 6.19952 25.1776 6.05149 25.1794 5.77114V5.77112C25.1798 5.72254 25.1801 5.66998 25.1801 5.61309C25.1801 4.80017 25.0624 4.46406 24.6859 4.1983C24.3799 3.97943 23.8073 3.93253 23.4699 4.1045ZM22.8266 26.2172V36.9649H24.0034H25.1801V26.2172V15.4694H24.0034H22.8266V26.2172ZM12.589 17.3537C12.6125 17.3303 13.0989 17.1974 13.6716 17.0645L14.1519 16.953L14.1524 16.9528C14.5015 16.8717 14.758 16.8121 14.7856 16.8066C14.8326 16.8066 15.7662 18.8311 16.8645 21.3167L18.8649 25.8269L19.2572 25.8659C19.7906 25.9285 20.128 26.1239 20.3163 26.4913C20.7007 27.2495 20.2927 29.0317 19.4612 30.2198C16.5193 34.3938 9.58438 34.8862 5.81097 31.1812C4.94018 30.3292 4.35965 29.2818 4.10861 28.1327C3.80266 26.7101 4.13999 25.9832 5.15984 25.8738L5.59915 25.8269L7.37211 21.8404L9.14506 17.854L10.3375 17.6898C10.9965 17.596 11.6084 17.5023 11.6947 17.4788C11.7731 17.4554 11.8437 17.471 11.8437 17.5023C11.8437 17.5413 11.02 19.4329 10.008 21.6997L8.17229 25.8269L10.2041 25.8503C11.326 25.8581 13.146 25.8581 14.2678 25.8503L16.2918 25.8269L14.4247 21.6138C13.3892 19.2922 12.5655 17.3772 12.589 17.3537ZM31.1423 21.3085L29.134 25.8264L28.7025 25.8733C27.6826 25.9827 27.3689 26.6315 27.6434 28.0698C28.0121 29.9848 29.4321 31.6966 31.4953 32.7284C32.0915 33.0255 33.2839 33.4006 34.0449 33.5335C34.8843 33.682 36.8298 33.6664 37.6693 33.5023C40.1169 33.0176 42.1016 31.7279 43.2156 29.8988C43.8511 28.8514 44.1884 27.163 43.8903 26.5455C43.702 26.1391 43.3725 25.928 42.8469 25.8733L42.4076 25.8264L40.6346 21.84L38.8617 17.8535L37.6693 17.6894C37.0103 17.5956 36.3984 17.5018 36.3121 17.4784C36.2336 17.4549 36.163 17.4705 36.163 17.5018C36.163 17.5409 36.9867 19.4325 37.9987 21.6993L39.8345 25.8264L37.8026 25.8499C36.6808 25.8577 34.8608 25.8577 33.7389 25.8499L31.7149 25.8264L33.5899 21.6133C34.6176 19.2918 35.4334 17.3689 35.4021 17.3455C35.3628 17.3142 34.9157 17.197 34.3979 17.0797C33.8801 16.9703 33.3859 16.8608 33.2996 16.8374C33.1584 16.7983 32.9309 17.2751 31.1423 21.3085ZM16.8174 40.3576C17.3195 39.8573 17.8216 39.5759 18.4727 39.4196C18.9669 39.3023 28.7888 39.2711 29.4085 39.3883C30.9697 39.6853 32.2406 41.2096 32.2406 42.7963C32.2406 43.2106 31.9738 43.6639 31.613 43.8437C31.3149 44.0001 31.1658 44.0001 24.0034 44.0001C16.8409 44.0001 16.6919 44.0001 16.3938 43.8437C15.4053 43.3435 15.6328 41.5457 16.8174 40.3576Z" fill="url(#paint0_linear_135_11857)"/>
<defs>
<linearGradient id="paint0_linear_135_11857" x1="56.021" y1="-4.74987" x2="-0.646572" y2="52.6822" gradientUnits="userSpaceOnUse">
<stop offset="0.104422" stop-color="#FFC53A"/>
<stop offset="0.9375" stop-color="#FF124C"/>
</linearGradient>
</defs>

</symbol></svg>