<?xml version="1.0" encoding="utf-8"?>
<svg xmlns="http://www.w3.org/2000/svg">
<symbol id="fast-withdrawals" viewBox="0 0 48 48">
<path fill-rule="evenodd" clip-rule="evenodd" d="M25.1792 10.4417V14.1434L25.6322 14.198C27.6939 14.4479 29.9586 15.3694 31.6142 16.6424L32.0672 16.9938L34.6833 14.3776L37.2995 11.7615L36.7294 11.2773C35.7376 10.4495 34.0976 9.40301 32.7934 8.76264C30.4897 7.63808 28.3967 7.06018 25.6322 6.78685L25.1792 6.73999V10.4417ZM21.8993 6.82589C19.0644 7.11484 15.9797 8.16912 13.5275 9.68415C12.8013 10.1371 11.5283 11.0586 11.0207 11.5116L10.7239 11.7771L13.3323 14.3854L15.9407 16.986L16.5186 16.5643C17.1199 16.1191 17.7993 15.6974 18.3694 15.4163C19.4315 14.8774 21.2511 14.323 22.3522 14.198L22.8364 14.1434V10.4417C22.8364 6.96646 22.8286 6.73999 22.7037 6.7478L22.6357 6.75483L22.6357 6.75483C22.4958 6.76943 22.2002 6.80028 21.8993 6.82589ZM5.20266 19.8675C5.91332 17.9229 7.24873 15.5957 8.51386 14.0729L9.0371 13.4403L11.6533 16.0565L14.2616 18.6648L13.754 19.3521C12.606 20.9061 11.7782 22.9366 11.5049 24.8499L11.4034 25.5606H7.70168H4L4.05467 25.0295C4.23428 23.2255 4.63257 21.4059 5.20266 19.8675ZM36.3546 16.0643L33.754 18.6648L34.2616 19.3521C35.4018 20.8983 36.2452 22.9522 36.5186 24.8733L36.6123 25.5606H40.3061C43.2191 25.5606 44 25.5371 44 25.459C44 25.0686 43.7267 23.1787 43.5627 22.4446C42.9145 19.5004 41.3682 16.3064 39.5096 14.0807L39.3546 13.8962L39.3545 13.8961L39.3539 13.8953C39.1407 13.6415 38.9849 13.4559 38.9785 13.4559C38.9707 13.4559 37.7915 14.6273 36.3546 16.0643ZM20.7278 28.4109C19.6501 26.1774 20.884 23.6783 23.344 23.1395C23.8047 23.038 24.6794 23.1083 25.2417 23.3035C26.2101 23.6315 26.8739 24.2953 28.6154 26.6928C30.0757 28.7076 34.613 35.5565 34.8317 36.0797C35.1519 36.8451 34.6052 37.665 33.7696 37.665C33.426 37.665 33.2698 37.5791 31.7313 36.5952C30.8098 36.0094 28.998 34.8146 27.6939 33.9399C22.7427 30.6209 21.2042 29.4027 20.7278 28.4109ZM4.05467 28.4266C4.51542 33.1513 6.34284 37.2044 9.47442 40.4922C10.146 41.2029 10.4506 41.3434 10.9816 41.1872C11.2628 41.1013 11.6298 40.7733 13.2542 39.1646C15.8235 36.6031 15.8313 36.5953 14.6755 35.2755C12.8559 33.1982 11.7548 30.8241 11.4658 28.3485L11.4112 27.9034H7.70949H4L4.05467 28.4266ZM35.5892 31.8234C36.05 30.8082 36.417 29.4806 36.5498 28.3482L36.6045 27.9031H40.2983C43.2191 27.9031 44 27.9265 44 28.0046C44 28.3248 43.7501 30.1678 43.6095 30.816C42.8833 34.3693 41.1183 37.7586 38.6505 40.3748C37.5572 41.5384 37.1746 41.5462 36.0188 40.4138C35.6361 40.0468 35.3315 39.7266 35.3315 39.6954C35.3315 39.6719 35.4565 39.586 35.6049 39.5079C35.9641 39.3127 36.6748 38.563 36.8856 38.1491C37.3386 37.2666 37.3932 36.1577 37.0262 35.2596C36.9247 34.9941 36.4951 34.2522 36.0734 33.604L35.3159 32.4247L35.5892 31.8234Z" fill="url(#paint0_linear_135_11838)"/>
<defs>
<linearGradient id="paint0_linear_135_11838" x1="56.021" y1="-0.810254" x2="7.745" y2="55.8917" gradientUnits="userSpaceOnUse">
<stop offset="0.104422" stop-color="#FFC53A"/>
<stop offset="0.9375" stop-color="#FF124C"/>
</linearGradient>
</defs>

</symbol>
<symbol id="live-chat-support" viewBox="0 0 48 48">
<path fill-rule="evenodd" clip-rule="evenodd" d="M10.2051 15.1596C12.4707 10.394 17.0723 7.08928 22.3067 6.47991C23.7285 6.31584 25.627 6.40959 27.1192 6.71428C31.5879 7.62834 35.6426 10.8002 37.627 14.9252L38.0254 15.7612L39.4082 15.769C40.1661 15.769 40.9786 15.808 41.2051 15.8549C42.5176 16.1362 43.6348 17.2533 43.9161 18.5658C44.0333 19.1205 44.0333 24.1283 43.9161 24.6908C43.6426 25.9955 42.5567 27.1049 41.2598 27.4018C41.0723 27.4487 40.2676 27.4877 39.4707 27.4877H38.0254L37.6192 28.3315C37.4004 28.8002 36.9395 29.5971 36.5957 30.1127C34.4786 33.2612 31.4551 35.4018 27.6192 36.4408C27.541 36.4565 27.5176 36.7221 27.5176 37.4018C27.5176 38.9643 27.2676 39.6987 26.4707 40.5033C25.0645 41.9018 22.9395 41.9018 21.5332 40.5033C20.9785 39.9487 20.6817 39.3705 20.5488 38.5893C20.3301 37.2924 20.9317 35.8705 22.0176 35.1518C22.6895 34.7065 23.1504 34.5893 24.4395 34.5112C25.0801 34.4799 25.9629 34.3783 26.3926 34.2924C31.916 33.2143 36.0411 28.8158 36.7754 23.2143C37.4864 17.7924 34.6348 12.519 29.666 10.0658C28.0254 9.25334 26.4395 8.84709 24.5801 8.76116C21.0176 8.59709 17.502 9.94866 14.9863 12.4487C11.8067 15.5971 10.5098 19.894 11.3926 24.3237C11.4629 24.6674 11.6895 25.4955 11.9004 26.1674C12.1113 26.8393 12.2832 27.4096 12.2832 27.4408C12.2832 27.4643 11.1113 27.4877 9.68946 27.4877C6.92383 27.4877 6.66602 27.4565 5.90039 27.0893C5.68946 26.9877 5.31445 26.6987 5.04883 26.4408C4.54102 25.9252 4.22852 25.3705 4.08789 24.6908C3.9707 24.1362 3.9707 19.1283 4.08789 18.5658C4.36133 17.2533 5.47852 16.1362 6.79883 15.8549C7.02539 15.808 7.82227 15.769 8.56446 15.769H9.92384L10.2051 15.1596ZM16.3613 14.394C18.0723 12.6049 20.3145 11.4643 22.6973 11.1596C23.5488 11.0502 25.3301 11.1362 26.1504 11.3159C28.3066 11.8002 29.8613 12.644 31.3926 14.1674C32.9941 15.7612 33.8848 17.4174 34.3691 19.683C34.5566 20.5893 34.5645 22.6596 34.3691 23.5815C33.8145 26.2455 32.3926 28.5033 30.2598 30.1127C29.1426 30.9487 27.6816 31.6127 26.1504 31.9643C25.4785 32.1205 25.1895 32.1283 19.4551 32.1518L13.4551 32.183V31.019V29.8549L13.8066 29.808C14.5098 29.7065 15.1973 29.2143 15.5176 28.5737L15.7129 28.183L15.2832 27.558C12.5098 23.4721 12.9629 17.9409 16.3613 14.394ZM20.4863 22.8002V21.6283V20.4565H19.3145H18.1426V21.6283V22.8002H19.3145H20.4863ZM25.1738 22.8002V21.6283V20.4565H24.002H22.8301V21.6283V22.8002H24.002H25.1738ZM29.8613 22.8002V21.6283V20.4565H28.6895H27.5176V21.6283V22.8002H28.6895H29.8613Z" fill="url(#paint0_linear_135_11850)"/>
<defs>
<linearGradient id="paint0_linear_135_11850" x1="56.0261" y1="-1.28951" x2="6.72468" y2="55.5735" gradientUnits="userSpaceOnUse">
<stop offset="0.104422" stop-color="#FFC53A"/>
<stop offset="0.9375" stop-color="#FF124C"/>
</linearGradient>
</defs>

</symbol>
<symbol id="privacy-security" viewBox="0 0 48 48">
<path d="M23.4131 4.1443C23.2409 4.23034 22.8027 4.56664 22.4349 4.89513C20.2592 6.87389 17.8488 8.2035 15.0314 9.00126C13.4271 9.45489 11.0089 9.77556 9.22454 9.78338C8.11324 9.7912 7.72194 9.96326 7.38542 10.6046C7.22107 10.9096 7.22107 10.9957 7.22107 16.3923C7.21325 22.3207 7.23673 22.8057 7.69064 25.6604C9.10715 34.5609 13.9358 40.3408 22.7401 43.6569C24.047 44.1497 24.0314 44.1497 25.9018 43.4067C28.4374 42.4056 30.8713 41.0212 32.7417 39.5117C33.7591 38.6905 35.3791 37.0168 36.1695 35.9687C38.2904 33.1531 39.6286 29.8056 40.3173 25.5822C40.7556 22.876 40.7869 22.3051 40.7791 16.3923C40.7791 10.9331 40.7791 10.9174 40.6069 10.589C40.4034 10.1979 40.1217 9.96326 39.7382 9.86941C39.5817 9.8303 38.8773 9.77556 38.1652 9.75209C33.1017 9.58003 28.9305 7.97668 25.5653 4.89513C24.587 4.00352 24.0862 3.83145 23.4131 4.1443ZM30.707 18.8247C31.2157 19.3643 31.6383 19.8414 31.6539 19.8727C31.6696 19.9118 29.6818 21.8124 27.2479 24.1118C22.7479 28.3431 22.4036 28.6324 21.8479 28.6324C21.2844 28.6246 21.0497 28.4213 18.7958 25.9263C17.5984 24.5967 16.5575 23.4392 16.4793 23.3531C16.3384 23.1967 16.3619 23.1733 17.3714 22.2816C17.9427 21.7811 18.4279 21.3587 18.4592 21.3431C18.4905 21.3353 19.2731 22.1643 20.2044 23.1967C21.1357 24.2291 21.9418 25.0816 21.9888 25.0894C22.0436 25.0973 23.7888 23.4705 25.8783 21.4761C27.9679 19.4817 29.6974 17.847 29.7287 17.847C29.7522 17.8392 30.1904 18.285 30.707 18.8247Z" fill="url(#paint0_linear_135_12133)"/>
<defs>
<linearGradient id="paint0_linear_135_12133" x1="50.8656" y1="52.75" x2="-5.07021" y2="5.18675" gradientUnits="userSpaceOnUse">
<stop offset="0.104422" stop-color="#FFC53A"/>
<stop offset="0.9375" stop-color="#FF124C"/>
</linearGradient>
</defs>

</symbol>
<symbol id="provably-fair-slots" viewBox="0 0 48 48">
<path fill-rule="evenodd" clip-rule="evenodd" d="M23.4699 4.1045C22.9914 4.34681 22.8659 4.62039 22.8423 5.52711C22.8401 5.5901 22.8385 5.64834 22.8369 5.70221C22.8273 6.03362 22.8225 6.1997 22.7373 6.29017C22.6518 6.38106 22.4851 6.39563 22.1511 6.42484C22.0937 6.42985 22.0314 6.4353 21.9637 6.44164C21.1086 6.51981 19.5867 6.85592 18.6139 7.1764C17.2489 7.62194 16.4252 8.00495 14.5267 9.04455C11.3181 10.8189 8.76851 11.9992 6.03847 12.9763C5.28536 13.242 4.55578 13.5469 4.41457 13.6485C3.77913 14.1097 3.91249 15.2274 4.65776 15.5792C4.97156 15.7277 5.65407 15.7433 7.3878 15.6261C9.95309 15.4541 11.8202 15.1336 14.9817 14.3442C18.9591 13.3515 22.2226 12.9919 25.6508 13.1873C28.475 13.3515 30.1146 13.6094 33.3389 14.4145C36.3513 15.1649 38.085 15.4541 40.619 15.6261C42.3527 15.7433 43.0352 15.7277 43.349 15.5792C44.0943 15.2274 44.2276 14.1097 43.5922 13.6485C43.451 13.5469 42.8626 13.2968 42.2821 13.0857C39.301 12.0305 36.822 10.8971 33.5585 9.09145C32.7269 8.63028 31.7228 8.09875 31.3227 7.91115C29.8557 7.23112 27.5258 6.58234 26.0431 6.44164C25.982 6.43602 25.9253 6.43104 25.8725 6.4264L25.8725 6.4264C25.5044 6.39405 25.3307 6.37879 25.2493 6.28413C25.1766 6.19952 25.1776 6.05149 25.1794 5.77114V5.77112C25.1798 5.72254 25.1801 5.66998 25.1801 5.61309C25.1801 4.80017 25.0624 4.46406 24.6859 4.1983C24.3799 3.97943 23.8073 3.93253 23.4699 4.1045ZM22.8266 26.2172V36.9649H24.0034H25.1801V26.2172V15.4694H24.0034H22.8266V26.2172ZM12.589 17.3537C12.6125 17.3303 13.0989 17.1974 13.6716 17.0645L14.1519 16.953L14.1524 16.9528C14.5015 16.8717 14.758 16.8121 14.7856 16.8066C14.8326 16.8066 15.7662 18.8311 16.8645 21.3167L18.8649 25.8269L19.2572 25.8659C19.7906 25.9285 20.128 26.1239 20.3163 26.4913C20.7007 27.2495 20.2927 29.0317 19.4612 30.2198C16.5193 34.3938 9.58438 34.8862 5.81097 31.1812C4.94018 30.3292 4.35965 29.2818 4.10861 28.1327C3.80266 26.7101 4.13999 25.9832 5.15984 25.8738L5.59915 25.8269L7.37211 21.8404L9.14506 17.854L10.3375 17.6898C10.9965 17.596 11.6084 17.5023 11.6947 17.4788C11.7731 17.4554 11.8437 17.471 11.8437 17.5023C11.8437 17.5413 11.02 19.4329 10.008 21.6997L8.17229 25.8269L10.2041 25.8503C11.326 25.8581 13.146 25.8581 14.2678 25.8503L16.2918 25.8269L14.4247 21.6138C13.3892 19.2922 12.5655 17.3772 12.589 17.3537ZM31.1423 21.3085L29.134 25.8264L28.7025 25.8733C27.6826 25.9827 27.3689 26.6315 27.6434 28.0698C28.0121 29.9848 29.4321 31.6966 31.4953 32.7284C32.0915 33.0255 33.2839 33.4006 34.0449 33.5335C34.8843 33.682 36.8298 33.6664 37.6693 33.5023C40.1169 33.0176 42.1016 31.7279 43.2156 29.8988C43.8511 28.8514 44.1884 27.163 43.8903 26.5455C43.702 26.1391 43.3725 25.928 42.8469 25.8733L42.4076 25.8264L40.6346 21.84L38.8617 17.8535L37.6693 17.6894C37.0103 17.5956 36.3984 17.5018 36.3121 17.4784C36.2336 17.4549 36.163 17.4705 36.163 17.5018C36.163 17.5409 36.9867 19.4325 37.9987 21.6993L39.8345 25.8264L37.8026 25.8499C36.6808 25.8577 34.8608 25.8577 33.7389 25.8499L31.7149 25.8264L33.5899 21.6133C34.6176 19.2918 35.4334 17.3689 35.4021 17.3455C35.3628 17.3142 34.9157 17.197 34.3979 17.0797C33.8801 16.9703 33.3859 16.8608 33.2996 16.8374C33.1584 16.7983 32.9309 17.2751 31.1423 21.3085ZM16.8174 40.3576C17.3195 39.8573 17.8216 39.5759 18.4727 39.4196C18.9669 39.3023 28.7888 39.2711 29.4085 39.3883C30.9697 39.6853 32.2406 41.2096 32.2406 42.7963C32.2406 43.2106 31.9738 43.6639 31.613 43.8437C31.3149 44.0001 31.1658 44.0001 24.0034 44.0001C16.8409 44.0001 16.6919 44.0001 16.3938 43.8437C15.4053 43.3435 15.6328 41.5457 16.8174 40.3576Z" fill="url(#paint0_linear_135_11857)"/>
<defs>
<linearGradient id="paint0_linear_135_11857" x1="56.021" y1="-4.74987" x2="-0.646572" y2="52.6822" gradientUnits="userSpaceOnUse">
<stop offset="0.104422" stop-color="#FFC53A"/>
<stop offset="0.9375" stop-color="#FF124C"/>
</linearGradient>
</defs>

</symbol></svg>