<?xml version="1.0" encoding="utf-8"?>
<svg xmlns="http://www.w3.org/2000/svg">
<symbol id="icn-notification" viewBox="0 0 48 48">
<path d="M26.6166 44.7273C26.6166 44.7273 9.8516 42.5693 9.4649 41.7585C9.39609 41.4432 9.36676 41.1205 9.37759 40.798V40.798C9.29027 37.4965 9.73933 27.0766 9.73933 27.0766L26.5334 28.7689L26.6124 43.8582L26.6166 44.7273Z" fill="url(#paint0_linear_2_487)"/>
<path d="M39.5978 40.4487C39.5978 41.1597 39.5271 41.6337 39.4066 41.7585C38.4835 42.7481 26.6166 44.7273 26.6166 44.7273V43.8624L26.5376 28.7731L38.6831 27.035C38.6831 27.035 39.6935 36.8105 39.5978 40.4487Z" fill="url(#paint1_linear_2_487)"/>
<path d="M28.3546 31.4051C28.2964 31.8625 28.234 32.1618 28.155 32.2076C27.7392 32.4612 9.02831 30.6691 8.55015 30.3697L8.50441 30.324C8.2302 29.6581 8.04429 28.9592 7.95139 28.245C7.46907 25.7253 6.95348 21.7877 7.00337 21.3511C7.00337 21.2887 7.20711 21.2513 7.56054 21.243C10.8869 21.1473 27.7143 23.164 28.155 23.6629C28.2086 23.7353 28.2442 23.8194 28.259 23.9082C28.259 23.9457 28.2798 23.9872 28.2881 24.0371C28.5625 25.3802 28.5584 29.6172 28.3546 31.4051Z" fill="url(#paint2_linear_2_487)"/>
<path d="M39.8016 29.1265C39.7582 29.4053 39.6726 29.6759 39.5479 29.929C39.2278 30.1743 28.3713 32.3905 28.1592 32.2034C28.09 31.953 28.0578 31.6939 28.0636 31.4342C27.9596 29.7086 27.9596 25.559 28.259 23.9207C28.3255 23.5506 28.4045 23.3136 28.5043 23.2513C29.0407 22.9103 40.9783 20.7565 41.1321 21.0683C41.286 21.3802 40.313 26.9851 39.8016 29.1265Z" fill="url(#paint3_linear_2_487)"/>
<path d="M41.1446 21.0767C41.1446 21.4924 30.7496 23.8084 28.3047 24.0538L28.0178 24.0746C26.3546 24.1161 9.92229 22.2825 7.34849 21.5132C7.22824 21.494 7.11504 21.4439 7.02001 21.3677C6.77053 21.0018 9.21958 20.3698 12.4254 19.7503L12.5876 19.717C16.8911 18.8854 22.4836 18.0871 24.7954 17.9748C28.8619 17.7711 41.1155 20.6567 41.1446 21.0767Z" fill="url(#paint4_linear_2_487)"/>
<g style="mix-blend-mode:multiply" opacity="0.3">
<path d="M39.8016 29.1307C39.7581 29.4095 39.6726 29.6801 39.5479 29.9332C39.2278 30.1785 28.3713 32.3947 28.1592 32.2076C27.7434 32.4654 9.03247 30.6691 8.54599 30.3698C8.39215 30.2783 8.17592 29.4176 7.95555 28.2658C9.61875 30.5569 13.5065 30.8022 19.3027 31.4384C25.0989 32.0745 27.6852 31.4675 28.0636 31.4384L28.3546 31.4051C29.9596 31.2097 37.4149 30.2325 38.4752 29.9955C39.5355 29.7585 39.7849 29.1889 39.8016 29.1307Z" fill="#900055"/>
</g>
<g style="mix-blend-mode:multiply" opacity="0.2">
<path d="M7.95555 23.0267C8.71231 22.0912 26.1176 24.2035 27.0823 25.2762C28.0469 26.349 27.8889 30.1244 27.0823 31.1348C26.2756 32.1452 10.8661 29.9248 9.36512 28.823C7.86408 27.7211 7.95555 23.0267 7.95555 23.0267Z" fill="#DA0553"/>
</g>
<g style="mix-blend-mode:multiply" opacity="0.2">
<path d="M29.2819 24.0746C28.2548 24.27 28.4503 30.0246 28.9076 30.8687C29.365 31.7128 37.5978 30.2658 38.9242 29.534C40.2506 28.8022 40.9492 22.2658 40.6706 21.8376C40.392 21.4093 33.4523 23.2804 29.2819 24.0746Z" fill="#DA0553"/>
</g>
<path d="M40.7288 20.8646C41.1446 21.0725 32.6498 23.534 27.7434 23.7752C22.837 24.0163 7.22375 21.4841 7.22375 21.4841C7.22375 21.4841 10.1135 22.2741 18.4753 23.2804C26.837 24.2866 27.9555 24.6567 28.4128 24.6193C28.8702 24.5818 30.8494 23.613 35.207 22.8147C39.5646 22.0164 41.1446 21.4384 41.1446 21.2554C41.1446 21.0725 40.7288 20.8646 40.7288 20.8646Z" fill="#8981FF"/>
<path d="M24.7289 18.6401C23.6228 15.8251 22.6998 10.2368 20.5459 7.5133C18.3921 4.78982 12.6042 12.5029 9.81417 12.0122C7.02417 11.5216 6.24246 9.51744 7.63123 7.82514C9.02 6.13284 10.6208 8.65674 10.2965 9.30955L11.3859 9.47171C11.3859 9.47171 10.2341 7.1765 8.83289 6.92702C7.43165 6.67754 6.59589 8.73159 6.546 10.295C6.4961 11.8584 9.91397 13.0517 10.7705 13.2056C11.6271 13.3594 16.1759 6.9686 19.2778 7.86257C22.3796 8.75653 21.8474 17.2056 24.7289 18.6401Z" fill="url(#paint5_linear_2_487)"/>
<g style="mix-blend-mode:multiply" opacity="0.3">
<path d="M39.5978 40.4487C39.5978 41.1597 39.5271 41.6337 39.4066 41.7585C38.4835 42.7481 26.6166 44.7273 26.6166 44.7273C26.6166 44.7273 9.85159 42.5693 9.4649 41.7585C9.39608 41.4432 9.36675 41.1205 9.37758 40.798C9.45659 41.588 18.6748 43.1098 21.943 43.484C25.2112 43.8583 26.5168 43.8666 26.5168 43.8666H26.5958C27.2153 43.825 31.4107 43.5256 35.207 42.9061C39.3359 42.2366 39.5978 40.4487 39.5978 40.4487Z" fill="#900055"/>
</g>
<g style="mix-blend-mode:multiply" opacity="0.2">
<path d="M9.60211 30.5569C9.43579 30.5569 13.1156 40.2325 18.5626 41.7585C24.0095 43.2844 26.3671 32.956 26.3671 32.4279C26.3671 31.8999 9.60211 30.5569 9.60211 30.5569Z" fill="#DA0553"/>
</g>
<g style="mix-blend-mode:multiply" opacity="0.2">
<path d="M27.049 32.2076C26.3671 32.4279 27.9471 42.1452 28.5002 42.9061C29.0532 43.667 37.6228 42.3032 38.8411 41.0391C40.0594 39.7751 39.5687 31.06 38.4253 30.7772C37.2818 30.4945 27.049 32.2076 27.049 32.2076Z" fill="#DA0553"/>
</g>
<path d="M27.074 24.4405C27.5771 24.5236 27.8307 32.2325 28.1592 32.2076C28.4877 32.1826 28.5085 25.9124 28.9908 24.4405C28.361 24.5932 27.7038 24.5932 27.074 24.4405V24.4405Z" fill="#665CFF"/>
<path d="M26.6166 32.2076C26.3255 32.166 26.4087 43.0765 26.5334 43.7086C26.6582 44.3406 26.97 35.2803 26.6166 32.2076Z" fill="#5D52FF"/>
<g style="mix-blend-mode:multiply" opacity="0.5">
<path d="M9.5439 31.7793C10.7123 30.3531 23.6353 32.7065 27.3027 33.3926C30.97 34.0787 39.0906 31.5465 39.0906 31.5465L38.9741 30.0953C38.9741 30.0953 30.3006 31.9623 27.997 32.2076C25.6935 32.4529 9.60212 30.5444 9.60212 30.5444L9.5439 31.7793Z" fill="#6E3B66"/>
</g>
<g style="mix-blend-mode:multiply" opacity="0.3">
<path d="M10.3755 42.1535C10.3755 42.1535 11.4607 41.7377 17.257 42.6067C23.0532 43.4757 25.7808 44.6358 25.7808 44.6358C25.7808 44.6358 14.7747 43.2179 10.3755 42.1535Z" fill="#900055"/>
</g>
<g style="mix-blend-mode:multiply" opacity="0.3">
<path d="M26.8785 44.6192C26.8785 44.6192 32.1467 43.0558 34.1966 42.5901C35.7624 42.2804 37.3501 42.0941 38.945 42.0329C38.945 42.0329 37.3317 42.5651 33.7891 43.3842C30.2465 44.2034 26.8785 44.6192 26.8785 44.6192Z" fill="#900055"/>
</g>
<g style="mix-blend-mode:soft-light">
<path d="M27.2902 23.7835C26.3089 24.1702 27.8182 24.7856 28.417 24.6151C29.0157 24.4446 30.1717 24.0496 30.2673 23.8625C30.3629 23.6754 27.2902 23.7835 27.2902 23.7835Z" fill="white"/>
</g>
<path d="M21.0033 43.9705C20.8879 44.1572 20.7106 44.2974 20.5024 44.3665C20.2941 44.4357 20.0682 44.4295 19.864 44.3489C19.0324 44.1327 15.0823 43.6005 14.4295 43.4217C13.7767 43.2429 12.9701 23.2139 13.0449 22.3573C13.1198 21.5008 24.3172 20.0912 24.7829 20.0455C25.2486 19.9997 26.0968 20.611 26.1883 20.8189C26.2798 21.0268 19.864 22.7149 19.3942 23.1848C18.9243 23.6546 19.3651 43.7252 19.6145 43.7418C19.864 43.7585 21.0033 43.9705 21.0033 43.9705Z" fill="url(#paint6_linear_2_487)"/>
<path d="M24.995 20.0621C24.5043 20.1037 25.4399 20.5652 26.1883 20.8189C26.9368 21.0725 34.2839 21.9789 34.9201 22.8646C35.5563 23.7502 33.7891 43.4009 33.7891 43.4009L32.6748 43.6462C32.941 43.8474 33.2472 43.9892 33.5729 44.062C33.9887 44.1077 37.365 43.193 37.577 43.0059C37.7891 42.8188 39.4523 22.3407 39.3359 21.85C39.2195 21.3594 29.1696 19.7004 24.995 20.0621Z" fill="url(#paint7_linear_2_487)"/>
<path d="M24.9284 18.9394C24.9284 18.9394 24.8328 10.6692 27.1031 7.13492C29.3733 3.60063 31.0241 6.46133 32.4544 6.83555C33.8848 7.20977 35.1945 3.94991 33.5147 2.16197C31.8349 0.374038 31.997 2.23682 31.997 2.23682L30.9783 1.68796C30.9783 1.68796 31.8515 0.319984 33.5729 1.72538C35.2943 3.13078 34.575 6.1079 33.39 7.34698C32.2049 8.58606 31.0074 5.63389 28.9825 7.18066C26.9575 8.72743 24.9742 18.823 25.3027 19.5548C25.6311 20.2866 24.9284 18.9394 24.9284 18.9394Z" fill="url(#paint8_linear_2_487)"/>
<g style="mix-blend-mode:multiply" opacity="0.5">
<path d="M14.3006 22.2492C13.6977 22.5112 18.1551 23.139 19.8807 22.7398C22.1683 22.1504 24.5166 21.8281 26.8785 21.7793C30.1717 21.7003 34.7787 22.744 34.7787 22.744C33.3307 22.0861 31.8151 21.5884 30.259 21.2596C28.18 20.902 32.6082 20.4987 32.6082 20.4987L30.8245 20.2451L22.3505 20.7399C22.3505 20.7399 14.9035 21.3178 14.3006 22.2492Z" fill="#811166"/>
</g>
<path d="M24.3297 20.1162C23.9596 20.1619 14.941 19.2846 14.5792 19.3677C14.2175 19.4509 12.0844 19.8334 12.0844 19.8334C12.1646 19.5178 12.2804 19.2123 12.4295 18.9228C12.5709 18.7482 16.783 18.1245 18.2133 17.9914C19.6437 17.8584 27.2361 19.8001 27.2361 20.1162C27.2361 20.4322 24.3297 20.1162 24.3297 20.1162Z" fill="url(#paint9_linear_2_487)"/>
<path d="M12.8162 14.7108C12.1052 15.0143 13.4524 21.1099 16.9493 21.6047C20.4461 22.0995 24.7247 20.4322 24.8494 20.2492C24.9742 20.0663 20.1052 14.4862 19.3276 13.8085C18.5501 13.1307 12.8162 14.7108 12.8162 14.7108Z" fill="url(#paint10_linear_2_487)"/>
<path d="M35.3234 19.4675C35.3234 19.4675 35.5604 18.7773 35.3234 18.6609C33.7318 18.3972 32.1274 18.2181 30.5168 18.1245C29.7933 18.1245 25.5272 20.1203 25.6395 20.2035C25.7517 20.2866 26.7455 20.3698 28.2216 20.2035C29.6977 20.0371 34.3338 19.2513 34.3338 19.2513L35.3234 19.4675Z" fill="url(#paint11_linear_2_487)"/>
<path d="M25.4773 20.532L25.4191 20.4945C25.5005 20.4113 25.5704 20.3176 25.627 20.2159C25.4607 19.613 23.2653 15.3719 21.8848 13.2721C21.6449 12.8611 21.3466 12.4871 20.9992 12.1619C18.2965 10.3116 13.3235 13.4634 12.0678 14.7108C11.9171 14.8616 11.8119 15.0518 11.7643 15.2596C11.7643 15.2846 11.7643 15.3137 11.7435 15.3386C11.6021 16.0538 11.8932 17.0725 12.4919 18.1203C12.7779 18.6113 13.1047 19.0772 13.469 19.5132C13.8109 19.921 14.1849 20.3006 14.5875 20.6484C15.0717 21.0715 15.6033 21.4371 16.1717 21.7378C18.8162 23.1141 23.5563 21.3594 25.0407 20.744C25.3276 20.6276 25.4939 20.5527 25.4939 20.5527L25.4773 20.532ZM16.6832 21.2596C16.3033 21.1421 15.9521 20.9467 15.652 20.6858C15.3671 20.4508 15.1053 20.189 14.8703 19.9041C13.5896 18.3947 12.6582 16.1245 13.0408 15.4301C13.5605 14.4821 22.0678 19.2846 23.8515 20.4197C23.8597 20.4216 23.8683 20.4216 23.8765 20.4197C22.0179 20.8064 18.2341 21.6712 16.6832 21.2554V21.2596Z" fill="url(#paint12_linear_2_487)"/>
<path d="M29.9388 10.2742C32.5875 9.54656 31.602 16.7856 30.97 17.9623C30.338 19.139 28.5002 19.8999 28.5002 19.8999C28.5002 19.8999 36.5916 19.401 38.0635 16.6234C38.6244 15.5453 38.9541 14.3619 39.0314 13.149C39.1088 11.9361 38.932 10.7205 38.5126 9.57982C37.9804 8.35321 29.9388 10.2742 29.9388 10.2742Z" fill="url(#paint13_linear_2_487)"/>
<path d="M38.7454 8.94365C38.7167 8.92052 38.6844 8.90226 38.6498 8.8896C37.5895 8.4738 31.9513 8.6027 29.602 10.0746C29.3864 10.2093 29.1881 10.3699 29.0116 10.5528C27.2486 12.4779 25.1904 19.9457 26.1925 20.1162C26.4776 20.1687 26.7676 20.1896 27.0573 20.1785C26.5126 20.4488 26.3255 20.4779 27.3484 20.6775C27.7481 20.7078 28.1501 20.691 28.5459 20.6276C28.8453 20.5902 29.1821 20.5403 29.548 20.4737L30.1758 20.3615L30.4586 20.3033C30.7704 20.2409 31.0989 20.1661 31.4357 20.0912L32.1176 19.929L32.6498 19.7918C33.232 19.638 33.8141 19.4634 34.3712 19.2804L35.103 19.0268H35.1529L35.4274 18.9228L35.4939 18.8979L35.7642 18.7898H35.7891C35.9554 18.7232 36.1217 18.6525 36.2756 18.5819C36.5001 18.4779 36.6914 18.374 36.9035 18.2659C36.9691 18.2332 37.0329 18.1971 37.0947 18.1577C37.1737 18.1162 37.2444 18.0704 37.3193 18.0247C37.3941 17.979 37.5812 17.8459 37.6976 17.7586C37.7571 17.7148 37.814 17.6676 37.8681 17.6172V17.6172L38.0012 17.4841C38.0584 17.4258 38.1112 17.3633 38.1592 17.297L38.2257 17.1972C38.2539 17.1519 38.2789 17.1047 38.3005 17.0559C38.6141 16.2509 38.8399 15.4145 38.9741 14.5611V14.5611C38.9741 14.4821 39.0074 14.3989 39.0199 14.3158C39.0199 14.3158 39.0199 14.2867 39.0199 14.27C39.0448 14.1453 39.0614 14.0164 39.0822 13.8833C39.0822 13.8833 39.0822 13.8625 39.0822 13.8501L39.1072 13.6838C39.1072 13.5549 39.1363 13.426 39.1529 13.2929C39.1529 13.1973 39.1737 13.1058 39.182 13.0143C39.1903 12.9228 39.182 12.9686 39.182 12.9478V12.8688C39.182 12.7399 39.2028 12.611 39.2111 12.4863C39.2195 12.3615 39.2111 12.2409 39.2111 12.1204C39.2111 12.0372 39.2111 11.954 39.2111 11.875C39.2111 11.7129 39.2111 11.5507 39.2111 11.3969C39.3109 10.1578 39.1488 9.21392 38.7454 8.94365ZM37.261 17.0185C35.8099 18.453 31.5812 19.1848 29.1155 19.6338C30.1582 19.0765 31.0809 18.3192 31.8307 17.4051C34.5791 14.2451 37.0864 9.67546 38.0344 10.0788C38.9824 10.4821 39.2402 15.06 37.261 17.0185Z" fill="url(#paint14_linear_2_487)"/>
<g style="mix-blend-mode:multiply" opacity="0.5">
<path d="M33.5729 44.062C33.5729 44.062 34.3712 43.6462 34.9326 36.9352C35.4939 30.2242 35.3484 22.9228 35.5895 22.7398C35.8307 22.5569 39.3317 21.85 39.3317 21.85C39.3317 21.85 37.8182 41.5298 37.3691 42.5319C36.9201 43.5339 33.5729 44.062 33.5729 44.062Z" fill="#811166"/>
</g>
<g style="mix-blend-mode:multiply" opacity="0.5">
<path d="M20.0428 44.3822C20.0428 44.3822 19.3069 44.4445 19.1156 43.326C18.9243 42.2075 18.3796 24.2284 18.6665 23.4425C18.9534 22.6567 24.7746 21.3636 24.7746 21.3636C24.7746 21.3636 19.889 22.8895 19.5231 23.5049C19.1572 24.1203 19.1821 31.4675 19.232 31.5797C19.2819 31.692 19.864 31.6712 19.864 31.6712C19.864 31.6712 20.1093 43.6919 20.1967 43.8208C20.284 43.9497 21.0283 43.9705 21.0283 43.9705C20.914 44.1189 20.763 44.2349 20.5902 44.3071C20.4173 44.3793 20.2287 44.4052 20.0428 44.3822V44.3822Z" fill="#811166"/>
</g>
<g style="mix-blend-mode:multiply" opacity="0.3">
<path d="M13.7019 23.0517C13.3485 23.1141 13.5273 30.5901 14.2632 33.218C14.9992 35.8458 17.8599 38.3655 18.3713 38.4113C18.8827 38.457 18.4337 24.7149 18.3713 24.1827C18.3089 23.6504 13.7019 23.0517 13.7019 23.0517Z" fill="#912774"/>
</g>
<g style="mix-blend-mode:multiply" opacity="0.5">
<path d="M34.9076 22.8646C35.1862 23.243 34.7829 30.1203 34.1758 31.1265C34.1758 31.1265 33.5729 42.8562 33.1987 43.5007L33.7725 43.3842C33.7725 43.3842 35.4814 25.875 34.9076 22.8646Z" fill="#811166"/>
</g>
<path d="M13.1364 22.5361C13.2237 21.9748 15.4316 22.7523 16.9243 22.8105C18.417 22.8687 18.5875 22.848 18.6083 23.0891C18.6291 23.3303 18.3339 23.7253 16.5293 23.5257C14.7248 23.3261 13.0241 22.9228 13.1364 22.5361Z" fill="#FF4F90"/>
<path d="M35.0365 22.4904C34.891 22.5444 35.9471 22.7648 37.1737 22.4031C38.4003 22.0413 39.0656 21.9873 39.103 21.85C39.1404 21.7128 35.7392 22.2243 35.0365 22.4904Z" fill="#FF4F90"/>
<g style="mix-blend-mode:multiply" opacity="0.5">
<path d="M25.4731 20.532L25.3858 20.4821L25.0282 20.2825C22.6208 18.9311 14.363 14.6484 12.1925 15.0393C12.0301 15.0575 11.8811 15.138 11.7767 15.2638C11.7625 15.2834 11.7499 15.3043 11.7393 15.3262C11.5896 16.0621 11.9056 17.1266 12.546 18.2076C13.0955 19.1175 13.7844 19.9355 14.5875 20.6317C15.0664 21.0481 15.5925 21.4068 16.1551 21.7003C18.7954 23.0766 23.5355 21.322 25.0199 20.7066L25.4773 20.5153L25.4731 20.532ZM14.8703 19.9083C13.5771 18.3989 12.6374 16.112 13.02 15.4135C13.5439 14.4613 22.1343 19.3178 23.8307 20.4031C21.9929 20.7981 18.2133 21.6504 16.6665 21.2346C16.2935 21.1231 15.9479 20.9348 15.652 20.6816C15.3671 20.4466 15.1053 20.1849 14.8703 19.8999V19.9083Z" fill="#811166"/>
</g>
<g style="mix-blend-mode:multiply" opacity="0.5">
<path d="M38.7454 8.94365C38.2455 8.8345 37.7228 8.92237 37.286 9.18897C35.207 10.3574 33.4773 14.7524 31.2819 17.0226L28.6706 19.7004L28.4919 19.8875C28.2507 20.1411 28.1966 20.191 28.1966 20.191L28.5376 20.6276C28.837 20.5902 29.1738 20.5403 29.5397 20.4737L30.1675 20.3615L30.4503 20.3033C30.7621 20.2409 31.0906 20.166 31.4274 20.0912L32.1093 19.929L32.6415 19.7918C33.2236 19.638 33.8058 19.4633 34.3629 19.2804L35.0947 19.0268H35.1446L35.4191 18.9228L35.4856 18.8979L35.7558 18.7898H35.7808C35.9471 18.7232 36.1134 18.6525 36.2673 18.5819C36.4918 18.4779 36.6831 18.374 36.8951 18.2658C36.9608 18.2332 37.0246 18.1971 37.0864 18.1577C37.1654 18.1162 37.2361 18.0704 37.3109 18.0247C37.3858 17.9789 37.5729 17.8459 37.6893 17.7586C37.7488 17.7148 37.8057 17.6676 37.8598 17.6172L37.9928 17.4841C38.0501 17.4258 38.1029 17.3633 38.1508 17.297L38.2174 17.1972C38.2456 17.1519 38.2706 17.1047 38.2922 17.0559C38.6058 16.2509 38.8316 15.4145 38.9658 14.5611V14.5611C38.9658 14.4821 38.9991 14.3989 39.0115 14.3158C39.0115 14.3158 39.0115 14.2867 39.0115 14.27C39.0365 14.1453 39.0531 14.0164 39.0739 13.8833C39.0739 13.8833 39.0739 13.8625 39.0739 13.8501L39.0989 13.6838C39.0989 13.5549 39.128 13.426 39.1446 13.2929C39.1446 13.1973 39.1654 13.1058 39.1737 13.0143C39.182 12.9228 39.1737 12.9686 39.1737 12.9478V12.8688C39.1737 12.7399 39.1945 12.611 39.2028 12.4863C39.2111 12.3615 39.2028 12.2409 39.2028 12.1203C39.2028 12.0372 39.2028 11.954 39.2028 11.875C39.2028 11.7129 39.2028 11.5507 39.2028 11.3969C39.3109 10.1578 39.1488 9.21392 38.7454 8.94365ZM37.261 17.0185C35.8099 18.453 31.5812 19.1848 29.1155 19.6338C30.1582 19.0765 31.0809 18.3192 31.8307 17.4051C34.5791 14.2451 37.0864 9.67545 38.0344 10.0788C38.9824 10.4821 39.2402 15.06 37.261 17.0185Z" fill="#811166"/>
</g>
<g style="mix-blend-mode:multiply" opacity="0.3">
<path d="M26.5334 18.9478C26.5334 18.9478 26.4752 15.2347 28.1966 13.2305C29.918 11.2264 27.7393 17.2056 27.6311 17.9665C27.523 18.7274 30.8868 12.69 32.6207 11.8709C34.3546 11.0517 31.2943 16.5112 30.2715 17.6588C29.4862 18.4402 28.5417 19.0429 27.5022 19.4259L26.5334 18.9478Z" fill="#912774"/>
</g>
<g style="mix-blend-mode:multiply" opacity="0.3">
<path d="M25.3068 19.5548C25.3068 19.5548 22.2258 15.5257 21.1073 15.0226C19.9888 14.5195 19.1073 15.6879 20.7705 17.2887C22.4337 18.8895 25.3068 19.5548 25.3068 19.5548Z" fill="#912774"/>
</g>
<path d="M24.0553 20.8646C23.5314 21.7419 28.1384 21.376 28.5002 20.9893L28.8661 20.5985C28.8661 20.5985 27.5563 19.2056 26.5334 18.9353C26.0258 18.7678 25.4777 18.7678 24.97 18.9353C24.97 18.9353 25.6478 19.8043 25.3526 20.5319C25.0574 21.2596 24.0553 20.8646 24.0553 20.8646Z" fill="url(#paint15_linear_2_487)"/>
<g style="mix-blend-mode:multiply" opacity="0.5">
<path d="M32.313 16.8355C31.8307 17.9041 38.1633 16.216 38.4461 14.0497C38.7288 11.8833 38.6165 10.191 37.7558 10.3075C36.8951 10.4239 34.5833 13.9623 33.7559 15.0309C32.9284 16.0995 32.313 16.8355 32.313 16.8355Z" fill="#9D1166"/>
</g>
<g style="mix-blend-mode:multiply" opacity="0.5">
<path d="M13.1406 15.3386C12.6374 15.4551 13.2196 18.3989 14.8329 19.3344C16.4462 20.27 21.4233 19.8209 21.7476 19.3344C22.0719 18.848 14.309 15.0725 13.1406 15.3386Z" fill="#9D1166"/>
</g>
<g style="mix-blend-mode:multiply" opacity="0.5">
<path d="M24.0553 21.1058C24.4336 21.4675 25.8141 20.9394 27.128 20.4987C28.4419 20.0579 28.8661 20.5985 28.8661 20.5985C28.8661 20.5985 28.6291 21.1265 28.2049 21.2263C27.1614 21.3983 26.1065 21.4928 25.049 21.5091C24.6807 21.4957 24.3288 21.3529 24.0553 21.1058V21.1058Z" fill="#811166"/>
</g>
<g style="mix-blend-mode:soft-light">
<path d="M29.4191 10.5528C28.1052 11.9499 31.8681 10.794 33.5563 11.0393C35.2444 11.2846 36.8037 9.23886 37.1529 8.96028C37.5022 8.6817 30.8411 8.96444 29.4191 10.5528Z" fill="white"/>
</g>
<g style="mix-blend-mode:soft-light">
<path d="M13.5688 14.1786C13.39 14.5944 15.8516 14.6526 19.4274 14.349C23.0033 14.0455 21.2154 12.3906 20.0096 12.0455C18.8037 11.7004 14.1177 12.9312 13.5688 14.1786Z" fill="white"/>
</g>
<path d="M9.39006 41.114L9.5938 30.719C9.34146 34.1779 9.27346 37.6478 9.39006 41.114V41.114Z" fill="#8981FF"/>
<path d="M7.88071 21.6546C7.58965 21.1972 10.7165 20.0912 10.7165 20.0912C10.7165 20.0912 6.97427 20.9727 6.97427 21.3636C6.97427 21.7544 7.88071 21.6546 7.88071 21.6546Z" fill="#8981FF"/>
<path d="M15.6561 15.3012C15.2819 15.3012 20.2549 17.8708 21.6769 18.5652C23.0989 19.2596 23.943 19.7669 23.943 19.7669C23.943 19.7669 17.0283 15.3178 15.6561 15.3012Z" fill="#FF4F90"/>
<path d="M30.5168 17.8085C30.5168 17.8085 34.5417 12.0954 35.6727 10.7149C35.6727 10.7149 32.97 15.5756 30.5168 17.8085Z" fill="#FF4F90"/>
<g style="mix-blend-mode:multiply" opacity="0.5">
<path d="M27.1613 19.218C27.1613 19.218 28.8245 16.2201 29.4773 15.4758C30.1301 14.7316 30.0178 16.8022 29.5979 17.8251C29.1779 18.848 27.4316 19.3927 27.3401 19.3386C27.2486 19.2846 27.1613 19.218 27.1613 19.218Z" fill="#9D1166"/>
</g>
<g style="mix-blend-mode:multiply" opacity="0.5">
<path d="M25.3068 19.4633C25.3068 19.4633 23.8432 17.6837 23.1405 16.9145C22.4378 16.1453 22.4586 17.3677 22.7663 18.191C23.074 19.0143 25.3068 19.4633 25.3068 19.4633Z" fill="#9D1166"/>
</g>
<g style="mix-blend-mode:multiply" opacity="0.3">
<path d="M26.6291 18.9769C26.5266 17.9904 26.6562 16.9937 27.0074 16.0663C27.3318 15.5257 27.469 17.8209 27.3858 18.2617C27.3027 18.7024 26.6291 18.9769 26.6291 18.9769Z" fill="#9D1166"/>
</g>
<path d="M35.9679 9.45924C36.7205 9.09334 36.2174 10.5112 35.4357 10.7066C34.654 10.9021 33.9014 10.137 32.4128 10.191C30.9243 10.2451 31.3775 10.7108 29.9596 10.9686C28.5417 11.2264 28.6873 11.1391 29.0324 10.5528C29.3775 9.96651 29.9804 10.5528 30.837 10.3449C31.6935 10.137 31.4108 9.99146 33.1613 10.1204C34.1442 10.217 35.1315 9.98449 35.9679 9.45924V9.45924Z" fill="#FF5CA2"/>
<path d="M13.5605 14.507C13.5605 14.7648 14.1759 14.9228 15.5189 14.7025C16.862 14.4821 17.3443 14.0497 18.4046 13.4551C19.7434 12.6858 20.7538 13.1224 20.9617 12.5445C21.1696 11.9665 20.7455 12.3033 20.5044 12.4613C20.2632 12.6193 20.3256 12.5445 18.259 13.2721C16.1925 13.9998 13.5231 13.8792 13.5605 14.507Z" fill="#FF5CA2"/>
<g style="mix-blend-mode:multiply" opacity="0.5">
<path d="M27.8141 6.19522C28.4378 5.67547 29.1114 6.64844 29.1779 6.82723C29.2444 7.00603 28.3879 7.62557 27.5147 9.22639C26.6415 10.8272 26.0677 9.64219 26.0677 9.64219C26.0677 9.64219 27.1322 6.74823 27.8141 6.19522Z" fill="#D42F55"/>
</g>
<g style="mix-blend-mode:multiply" opacity="0.5">
<path d="M20.2008 7.42598C19.785 7.5923 20.9992 9.5715 21.232 10.2201C21.4107 10.6397 21.7317 10.9827 22.1384 11.189C22.1384 11.189 21.3526 8.11621 20.2008 7.42598Z" fill="#D42F55"/>
</g>
<path d="M28.8577 5.47588C28.4711 5.75863 29.3401 6.59854 29.4357 6.62349C29.5313 6.64844 30.5833 6.56944 30.5833 6.56944C30.3625 6.24168 30.1164 5.93166 29.8473 5.6422C29.5854 5.39688 28.8577 5.47588 28.8577 5.47588Z" fill="#FFF455"/>
<path d="M31.0989 1.57985C31.434 1.3103 31.8396 1.14287 32.2673 1.09753C32.55 1.15158 32.5376 1.24306 32.5376 1.24306C32.5376 1.24306 31.997 1.75449 31.997 1.99565C31.997 2.23681 31.0989 1.57985 31.0989 1.57985Z" fill="#FFF455"/>
<path d="M19.7809 7.05176C19.5563 6.9395 19.1405 7.53409 19.2902 7.68378C19.602 7.87975 19.9304 8.0481 20.2715 8.1869C20.2715 8.1869 20.5459 7.60893 20.4337 7.3844C20.3214 7.15987 19.7809 7.05176 19.7809 7.05176Z" fill="#FFF455"/>
<path d="M10.1676 7.93741C9.98881 7.89168 10.4212 8.97691 10.4961 9.09749C10.5709 9.21807 11.1489 9.22639 11.1489 9.22639C11.1489 9.22639 10.6499 8.09126 10.1676 7.93741Z" fill="#FFF455"/>
<path d="M6.63332 10.7274C6.7539 10.4364 8.13435 11.5341 8.40878 11.821C8.6832 12.1079 8.09277 12.1536 7.9514 12.0621C7.81002 11.9707 6.68321 11.3262 6.63332 10.7274Z" fill="#FFF455"/>
<g style="mix-blend-mode:multiply" opacity="0.5">
<path d="M8.20919 12.216C8.15098 12.0954 8.59173 12.0247 8.71231 12.0122C9.42793 12.1598 10.1251 12.3857 10.7913 12.6858C11.0241 12.8771 10.9202 13.1016 10.7497 13.1016C9.85476 12.9686 8.99288 12.6682 8.20919 12.216V12.216Z" fill="#D42F55"/>
</g>
<path d="M18.6291 29.7377C17.864 29.2928 17.7268 30.6899 18.0802 31.6296C18.4337 32.5693 18.8412 31.9623 18.8412 31.1265C18.8412 30.2907 18.7913 29.8334 18.6291 29.7377Z" fill="#920066"/>
<path d="M35.602 38.4113C36.2756 37.4134 37.3692 38.2824 36.4544 39.2969C35.5396 40.3115 34.9783 39.3552 35.602 38.4113Z" fill="#920066"/>
<g style="mix-blend-mode:multiply" opacity="0.5">
<path d="M35.602 38.4113C35.1862 38.8604 35.7766 39.5755 36.4544 38.9934C37.1321 38.4113 36.4419 37.4799 35.602 38.4113Z" fill="#9A1166"/>
</g>
<g style="mix-blend-mode:multiply" opacity="0.5">
<path d="M17.8599 30.5111C17.9555 31.1057 18.417 31.6088 18.6208 31.5423C18.8245 31.4758 19.0615 29.8791 18.6208 29.6504C18.18 29.4217 17.7518 29.8749 17.8599 30.5111Z" fill="#9A1166"/>
</g>
<path d="M17.9472 31.139C17.9472 31.139 18.1218 31.9248 18.442 31.9706C18.7622 32.0163 18.8245 31.3926 18.8245 31.3926C18.8245 31.3926 18.7746 32.2533 18.4836 32.2866C18.1925 32.3198 17.9472 31.139 17.9472 31.139Z" fill="#FF4F90"/>
<path d="M35.3234 39.1514C35.3816 39.8832 36.4377 39.3136 36.4377 39.3136C36.4377 39.3136 36.1134 39.8416 35.6602 39.8624C35.207 39.8832 35.3234 39.1514 35.3234 39.1514Z" fill="#FF4F90"/>
<g style="mix-blend-mode:multiply" opacity="0.3">
<path d="M14.6499 43.4716C14.2923 43.1181 14.9451 41.746 16.6582 41.9123C18.3713 42.0786 19.2985 44.2325 19.2985 44.2325L14.6499 43.4716Z" fill="#912774"/>
</g>
<g style="mix-blend-mode:multiply" opacity="0.3">
<path d="M35.7933 23.1598C35.5438 23.6172 35.3775 25.8084 36.2465 26.9477C37.1155 28.087 39.024 23.6504 38.9616 22.7398C38.8993 21.8292 35.7933 23.1598 35.7933 23.1598Z" fill="#811166"/>
</g>
<g style="mix-blend-mode:multiply" opacity="0.2">
<path d="M25.9264 24.4405C24.1634 23.85 26.1925 27.3802 27.074 28.6941C27.9555 30.008 27.4191 25.1141 27.2445 24.7773C27.0698 24.4405 25.9264 24.4405 25.9264 24.4405Z" fill="#DA0553"/>
</g>
<g style="mix-blend-mode:multiply" opacity="0.5">
<path d="M39.1238 13.8002C38.9911 14.9009 38.7259 15.9815 38.3338 17.0185C37.6644 18.5694 32.6249 19.9623 29.5646 20.4862C29.9471 20.3947 36.0802 18.9394 37.5438 17.6047C38.5375 16.6983 38.9533 14.9187 39.1238 13.8002Z" fill="#9D1166"/>
</g>
<g style="mix-blend-mode:multiply" opacity="0.5">
<path d="M39.2402 12.8189V12.8979C39.2421 12.8688 39.2421 12.8396 39.2402 12.8106V12.8189Z" fill="#9D1166"/>
</g>
<g style="mix-blend-mode:multiply" opacity="0.5">
<path d="M8.55015 30.3697L8.50441 30.324C8.23021 29.6581 8.04429 28.9592 7.9514 28.245C7.46907 25.7253 6.95348 21.7877 7.00338 21.3511C6.7539 20.9852 9.20295 20.3532 12.4088 19.7336C11.5522 19.9166 8.4462 20.6151 7.55639 21.243C7.45805 21.3046 7.37885 21.3924 7.3277 21.4966C7.09901 22.2908 8.16761 29.9124 8.55015 30.3697Z" fill="#6E3B66"/>
</g>
<g style="mix-blend-mode:multiply" opacity="0.5">
<path d="M39.3109 11.3387C39.3109 11.4925 39.3109 11.6547 39.3109 11.8168C39.3109 11.8958 39.3109 11.979 39.3109 12.0621C39.3109 12.1827 39.3109 12.3033 39.3109 12.428C39.3109 12.5528 39.3109 12.6817 39.2818 12.8106V12.8896C39.2818 12.9104 39.2818 12.927 39.2818 12.9561C39.2818 12.9852 39.2818 13.1391 39.2527 13.2347C39.2527 13.3677 39.2194 13.4966 39.207 13.6255L39.182 13.7919C39.182 13.7919 39.182 13.8168 39.182 13.8251C39.182 13.9582 39.1446 14.0871 39.1197 14.2118C39.1197 14.2118 39.1197 14.2451 39.1197 14.2576C39.1197 14.3407 39.0906 14.4239 39.0739 14.5029C39.1197 14.1619 39.5687 10.1412 37.3525 9.1765C37.1612 9.09296 36.96 9.03427 36.7538 9.00186C33.7392 8.52369 29.6852 10.0746 29.6852 10.0746C31.9596 8.61101 37.5978 8.4738 38.6498 8.8896C38.6808 8.89918 38.7102 8.91319 38.7371 8.93118V8.93118C39.1488 9.21392 39.3109 10.1578 39.3109 11.3387Z" fill="#9D1166"/>
</g>
<g style="mix-blend-mode:multiply" opacity="0.5">
<path d="M21.864 13.2472C21.731 13.0808 20.6166 11.717 19.1821 11.7877C17.6478 11.8626 13.1156 13.5174 12.2882 14.8563C12.2549 14.9145 12.2216 14.9727 12.1925 15.0309C11.6395 16.1744 12.2965 17.7045 12.4919 18.1162L12.5335 18.1993C11.8932 17.1182 11.5772 16.0538 11.7268 15.3178C11.7375 15.296 11.75 15.2751 11.7643 15.2555C11.8119 15.0476 11.9171 14.8574 12.0678 14.7066C13.3152 13.4592 18.3048 10.3116 20.9784 12.137C21.3258 12.4622 21.6242 12.8361 21.864 13.2472V13.2472Z" fill="#9D1166"/>
</g>
<defs>
<linearGradient id="paint0_linear_2_487" x1="22.2299" y1="45.2969" x2="12.388" y2="21.9623" gradientUnits="userSpaceOnUse">
<stop stop-color="#512EFF"/>
<stop offset="1" stop-color="#6B2ED8"/>
</linearGradient>
<linearGradient id="paint1_linear_2_487" x1="26.5334" y1="35.8832" x2="39.6061" y2="35.8832" gradientUnits="userSpaceOnUse">
<stop stop-color="#3D069A"/>
<stop offset="1" stop-color="#6509BA"/>
</linearGradient>
<linearGradient id="paint2_linear_2_487" x1="25.469" y1="43.9289" x2="15.6312" y2="20.5943" gradientUnits="userSpaceOnUse">
<stop stop-color="#512EFF"/>
<stop offset="1" stop-color="#6B2ED8"/>
</linearGradient>
<linearGradient id="paint3_linear_2_487" x1="27.997" y1="26.6317" x2="41.1404" y2="26.6317" gradientUnits="userSpaceOnUse">
<stop stop-color="#3D069A"/>
<stop offset="1" stop-color="#6509BA"/>
</linearGradient>
<linearGradient id="paint4_linear_2_487" x1="6.98259" y1="21.0184" x2="41.128" y2="21.0184" gradientUnits="userSpaceOnUse">
<stop offset="0.04" stop-color="#9190FF"/>
<stop offset="1" stop-color="#6B59FF"/>
</linearGradient>
<linearGradient id="paint5_linear_2_487" x1="15.2473" y1="17.4126" x2="16.6385" y2="6.55573" gradientUnits="userSpaceOnUse">
<stop stop-color="#FFAC15"/>
<stop offset="0.63" stop-color="#FF8100"/>
<stop offset="0.7" stop-color="#FFA400"/>
<stop offset="1" stop-color="#FFBA00"/>
</linearGradient>
<linearGradient id="paint6_linear_2_487" x1="19.6145" y1="44.3946" x2="19.6145" y2="20.0413" gradientUnits="userSpaceOnUse">
<stop stop-color="#DE0086"/>
<stop offset="1" stop-color="#FF003B"/>
</linearGradient>
<linearGradient id="paint7_linear_2_487" x1="32.101" y1="44.062" x2="32.101" y2="20.0122" gradientUnits="userSpaceOnUse">
<stop stop-color="#DE0086"/>
<stop offset="1" stop-color="#FF003B"/>
</linearGradient>
<linearGradient id="paint8_linear_2_487" x1="24.7781" y1="19.4978" x2="32.9956" y2="1.32014" gradientUnits="userSpaceOnUse">
<stop stop-color="#FFAC15"/>
<stop offset="0.63" stop-color="#FF8100"/>
<stop offset="0.7" stop-color="#FFA400"/>
<stop offset="1" stop-color="#FFBA00"/>
</linearGradient>
<linearGradient id="paint9_linear_2_487" x1="19.6436" y1="20.2409" x2="19.6436" y2="17.9665" gradientUnits="userSpaceOnUse">
<stop stop-color="#DE0086"/>
<stop offset="1" stop-color="#FF003B"/>
</linearGradient>
<linearGradient id="paint10_linear_2_487" x1="18.7455" y1="21.6879" x2="18.7455" y2="13.6339" gradientUnits="userSpaceOnUse">
<stop stop-color="#DE0057"/>
<stop offset="1" stop-color="#83003B"/>
</linearGradient>
<linearGradient id="paint11_linear_2_487" x1="30.5168" y1="20.3074" x2="30.5168" y2="18.1245" gradientUnits="userSpaceOnUse">
<stop stop-color="#DE0086"/>
<stop offset="1" stop-color="#FF003B"/>
</linearGradient>
<linearGradient id="paint12_linear_2_487" x1="18.6665" y1="22.2492" x2="18.6665" y2="11.5798" gradientUnits="userSpaceOnUse">
<stop stop-color="#DE0086"/>
<stop offset="1" stop-color="#FF003B"/>
</linearGradient>
<linearGradient id="paint13_linear_2_487" x1="33.785" y1="19.8999" x2="33.785" y2="9.16818" gradientUnits="userSpaceOnUse">
<stop stop-color="#DE0057"/>
<stop offset="1" stop-color="#83003B"/>
</linearGradient>
<linearGradient id="paint14_linear_2_487" x1="32.6207" y1="20.7107" x2="32.6207" y2="8.69001" gradientUnits="userSpaceOnUse">
<stop stop-color="#DE0086"/>
<stop offset="1" stop-color="#FF003B"/>
</linearGradient>
<linearGradient id="paint15_linear_2_487" x1="26.442" y1="21.4051" x2="26.442" y2="18.8313" gradientUnits="userSpaceOnUse">
<stop stop-color="#FF0086"/>
<stop offset="0.99" stop-color="#FF4A77"/>
</linearGradient>
</defs>

</symbol>
<symbol id="money" viewBox="0 0 88 88">
<path d="M80.9777 37.7158H78.9495L7.52615 42.5542L5.9884 43.8136L33.9454 52.7879C33.9454 52.7879 63.3074 52.0986 80.9777 37.7158Z" fill="#404C29"/>
<path d="M82.29 29.1391C69.8824 41.6926 39.2345 44.6354 32.9776 43.8135C23.5659 42.5675 14.5253 37.6628 9.05053 34.1632C7.12841 32.9304 5.67026 31.8964 4.83513 31.2866L4.29167 30.8757C4.19888 30.8757 4.11933 30.7431 4.02654 30.6768L4.82186 30.8094H4.91467C17.8393 32.5459 46.7109 21.0132 46.7109 21.0132C52.0133 23.5849 60.7622 25.5998 68.2651 26.9917C68.2625 27.0358 68.2625 27.0801 68.2651 27.1242C68.2167 27.3021 68.2167 27.4898 68.2651 27.6677C68.3119 27.8624 68.397 28.0459 68.5153 28.2075C68.6336 28.3691 68.7829 28.5055 68.9545 28.6089C69.4494 28.8489 70.0148 28.9007 70.5452 28.7547C71.2396 28.6124 71.9187 28.4037 72.5733 28.1317C72.8036 28.0464 73.0293 27.949 73.2494 27.84C78.459 28.6884 82.29 29.1391 82.29 29.1391Z" fill="url(#paint0_linear_733_37025)"/>
<path d="M82.3033 29.1391L81.1368 35.8599C81.1368 35.8599 61.2527 51.555 33.826 50.3752L32.9909 43.8135C32.9909 43.8135 69.2991 41.9577 82.3033 29.1391Z" fill="url(#paint1_linear_733_37025)"/>
<path d="M33.9454 52.7879C33.9454 52.7879 67.9205 46.1599 80.9777 37.7158L78.9627 57.5998C78.9627 57.5998 55.884 64.7581 34.6214 66.5079L33.9454 52.7879Z" fill="url(#paint2_linear_733_37025)"/>
<path d="M33.826 50.3753C20.7423 49.1159 5.49794 41.6131 5.49794 41.6131L5.02074 38.087L4 30.6503L4.26514 30.8492L4.8086 31.2866C6.1598 32.3077 7.56241 33.2589 9.01081 34.1367V34.1367C19.5096 40.473 32.9512 43.787 32.9512 43.787L33.826 50.3753Z" fill="url(#paint3_linear_733_37025)"/>
<path d="M33.9454 52.7879C33.9454 52.7879 15.0688 45.7358 5.9884 43.8136L8.94447 61.7357C8.94447 61.7357 27.7813 66.3621 34.6214 66.4417L33.9454 52.7879Z" fill="url(#paint4_linear_733_37025)"/>
<path d="M31.4267 55.7175L34.0779 56.6454C34.0779 56.6454 60.6959 51.2104 80.2883 43.9462C80.2883 43.9462 57.0638 53.5435 34.0116 55.3065L31.4267 55.7175Z" fill="#404C29"/>
<path d="M50.701 34.6139C42.7473 37.6495 32.3282 33.0099 37.0208 30.6371C45.3721 26.3289 58.8799 31.4987 50.701 34.6139Z" fill="url(#paint5_linear_733_37025)"/>
<path d="M71.4466 32.8906C64.8981 31.7241 68.6231 29.5898 70.4922 28.7414C69.9618 28.8875 69.3964 28.8356 68.9015 28.5956C68.7299 28.4923 68.5806 28.3558 68.4623 28.1942C68.3439 28.0327 68.2589 27.8492 68.2121 27.6545L50.754 23.6777C48.5208 24.3349 46.2228 24.7483 43.9006 24.9105C42.6715 25.0062 41.4357 24.9662 40.2154 24.7912C36.2386 26.3289 15.9304 31.4192 15.9304 31.4192C22.3463 33.9378 13.9686 35.396 13.9686 35.396L26.8534 40.884C37.9354 38.763 39.5792 41.8119 39.5792 41.8119C54.3861 42.4217 72.3347 32.9701 72.3347 32.9701L71.4466 32.8906ZM53.1268 35.5418C42.0713 39.7174 27.5692 33.3148 34.0646 29.961C37.3938 28.3462 41.0637 27.5595 44.7622 27.6677C53.1135 27.7738 60.0332 31.6445 54.9694 34.6802C54.3671 35.0049 53.7372 35.2755 53.087 35.4888L53.1268 35.5418Z" fill="#D8EC38"/>
<path d="M50.701 34.6139C42.7473 37.6495 32.3282 33.0099 37.0208 30.6371C45.3721 26.3289 58.8799 31.4987 50.701 34.6139Z" fill="url(#paint6_linear_733_37025)"/>
<path d="M50.701 34.6139C42.7473 37.6495 32.3282 33.0099 37.0208 30.6371C45.3721 26.3289 58.8799 31.4987 50.701 34.6139Z" fill="#D8EC38"/>
<path d="M34.1309 56.6454C34.1309 56.6454 69.7498 50.6006 84 43.9726L80.4474 42.9254L80.3414 43.9726C80.3414 43.9726 68.3049 49.9776 34.1309 56.6454Z" fill="url(#paint7_linear_733_37025)"/>
<g style="mix-blend-mode:multiply" opacity="0.3">
<path d="M35.271 63.9362C34.0514 63.7373 38.2403 55.9826 52.053 52.0058C66.396 47.8169 78.5651 45.5766 78.5651 45.5766C78.5651 45.5766 79.2146 51.5551 72.3214 56.7779C65.6802 61.7357 43.1185 65.1822 35.271 63.9362Z" fill="#91A674"/>
</g>
<g style="mix-blend-mode:multiply" opacity="0.3">
<path d="M9.3952 58.4217C10.575 60.768 31.6256 66.2957 33.1235 66.3753C34.6214 66.4548 33.7067 58.6205 33.7465 57.2286C33.7863 55.8367 10.0315 51.8599 9.22287 51.555C8.41425 51.2502 32.3149 55.3065 33.1765 54.9221C34.0381 54.5377 23.1947 49.6197 16.3546 47.4987C9.51451 45.3777 6.38606 44.7149 6.38606 44.7149C6.38606 44.7149 7.91053 55.4523 9.3952 58.4217Z" fill="#8E909F"/>
</g>
<g style="mix-blend-mode:multiply" opacity="0.5">
<path d="M6.39934 35.6214C6.83679 32.5858 30.3264 43.3629 32.0762 44.2776C33.4018 44.9801 33.9188 50.1102 31.9702 49.9909C30.0215 49.8716 9.48799 47.6578 6.39934 35.6214Z" fill="#8E909F"/>
</g>
<g style="mix-blend-mode:multiply" opacity="0.3">
<path d="M38.6512 54.8558C38.1078 53.5965 71.9106 43.2568 77.0009 40.5923C82.0912 37.9279 79.0025 43.9726 79.0025 43.9726C66.0479 49.2373 52.4962 52.8923 38.6512 54.8558V54.8558Z" fill="#91A674"/>
</g>
<g style="mix-blend-mode:multiply" opacity="0.3">
<path d="M35.1251 43.6678C35.1251 43.6678 45.6106 49.0763 55.3803 46.8493C65.15 44.6222 75.2644 41.4275 77.5311 38.3521C79.2473 35.7337 80.586 32.8867 81.5079 29.8948C67.714 38.8956 51.5959 43.6817 35.1251 43.6678V43.6678Z" fill="#91A674"/>
</g>
<g style="mix-blend-mode:multiply" opacity="0.5">
<path d="M25.0505 48.7846C25.0505 48.7846 33.0041 52.0323 34.3297 52.324C35.6553 52.6156 46.2602 50.0572 46.2602 50.0572C39.1836 51.2151 31.9379 50.7804 25.0505 48.7846Z" fill="#780DAA"/>
</g>
<g style="mix-blend-mode:multiply" opacity="0.5">
<path d="M7.52612 42.5542C5.98842 43.8135 15.1615 46.3322 15.1615 46.3322L17.9055 46.6503L7.52612 42.5542Z" fill="#780DAA"/>
</g>
<g style="mix-blend-mode:multiply" opacity="0.5">
<path d="M4 30.7167L4.79533 30.8492V31.353L5.00747 38.1533L4 30.7167Z" fill="#8E909F"/>
</g>
<g style="mix-blend-mode:multiply" opacity="0.5">
<path d="M46.6844 21C46.6844 21 45.7697 22.6835 29.6769 27.8931C15.0953 32.6123 5.90885 30.995 4.88814 30.7962C17.826 32.5327 46.6844 21 46.6844 21Z" fill="#8E909F"/>
</g>
<g style="mix-blend-mode:multiply" opacity="0.5">
<path d="M79.0158 30.7167C76.5833 31.7791 74.0269 32.5317 71.4068 32.9569C65.9983 34.1607 60.4701 34.7433 54.9296 34.6935C52.9483 34.7627 50.9901 34.2513 49.2958 33.2221C47.4261 31.6894 45.8729 29.8074 44.7225 27.6811C44.278 26.8564 43.9861 25.9582 43.8608 25.0299C43.7423 24.5155 43.8262 23.9753 44.0952 23.5212C44.3642 23.0671 44.7977 22.7339 45.3058 22.5907C45.3058 22.5907 58.3098 24.9503 68.1856 27.1773C68.1371 27.3552 68.1371 27.5429 68.1856 27.7208C68.2324 27.9155 68.3174 28.099 68.4357 28.2606C68.5541 28.4222 68.7034 28.5586 68.8749 28.662C69.3699 28.902 69.9353 28.9538 70.4656 28.8078C71.1601 28.6655 71.8392 28.4568 72.4938 28.1848C76.749 29.2055 79.6786 30.1599 79.0158 30.7167Z" fill="#91A674"/>
</g>
<g style="mix-blend-mode:multiply" opacity="0.5">
<path d="M78.9627 57.5336C78.9627 57.5336 72.6529 58.7134 61.0538 61.4308C50.1309 64.0025 34.6214 66.4416 34.6214 66.4416C34.6214 66.4416 61.1732 63.353 78.9627 57.5336Z" fill="#780DAA"/>
</g>
<g style="mix-blend-mode:multiply" opacity="0.5">
<path d="M8.94447 61.7357L34.6214 66.5079C25.9768 65.4181 17.4033 63.8247 8.94447 61.7357V61.7357Z" fill="#780DAA"/>
</g>
<g style="mix-blend-mode:multiply" opacity="0.5">
<path d="M34.8335 56.6454C34.8335 56.6454 67.3637 51.0646 73.8327 50.5874C80.3016 50.1102 80.0763 46.6106 80.0763 46.6106L80.2751 45.4706C80.2751 45.4706 66.9661 50.6007 34.8335 56.6454Z" fill="#CB76F4"/>
</g>
<path d="M84 43.9727V44.7415C71.0349 49.2826 57.6907 52.6585 44.126 54.8294C44.126 54.8294 69.7763 49.4872 84 43.9727Z" fill="url(#paint8_linear_733_37025)"/>
<g style="mix-blend-mode:multiply" opacity="0.5">
<path d="M23.725 28.1229C23.725 28.1229 35.2179 38.4228 47.8509 41.5247C47.8509 41.5247 48.4739 50.7112 48.0497 64.3118C48.0497 64.3118 48.9246 44.9713 48.2088 40.5836C47.4929 36.1958 31.6786 28.229 23.725 28.1229Z" fill="#563F0B"/>
</g>
<path d="M12.3911 36.0191C12.3911 36.0191 25.7797 41.7059 32.0498 42.8857C38.3199 44.0655 47.8376 42.1301 47.8376 42.1301C47.8376 42.1301 37.4847 44.2643 32.9909 43.8004C28.4971 43.3364 12.3911 36.0191 12.3911 36.0191Z" fill="#C2E238"/>
<path d="M30.1144 55.5452C31.3894 56.075 32.7252 56.4446 34.0912 56.6454C35.1384 56.6454 43.1053 54.8028 43.1053 54.8028C43.1053 54.8028 34.4358 56.6056 30.1144 55.5452Z" fill="#A7B138"/>
<path d="M66.4226 48.7846C66.4226 48.7846 71.0887 47.6181 74.1243 47.0878C77.3488 46.2512 80.5006 45.1562 83.5493 43.8136L80.8186 43.005C80.4474 42.8989 80.3414 43.9461 80.3414 43.9461C80.3414 43.9461 70.8501 47.9495 66.4226 48.7846Z" fill="#C2D138"/>
<path d="M7.52615 42.5542L4.50374 43.8798C9.93903 44.9464 15.3079 46.3274 20.5833 48.0157L7.32728 43.2038L7.52615 42.5542Z" fill="#91A622"/>
<path d="M4.50374 43.9727L4.88813 45.2983C4.88813 45.2983 24.5336 48.7714 33.9454 52.8277C33.9454 52.7879 17.1765 45.8418 4.50374 43.9727Z" fill="url(#paint9_linear_733_37025)"/>
<g style="mix-blend-mode:multiply" opacity="0.5">
<path d="M7.35381 50.6007C7.35381 50.6007 19.5626 53.5701 25.5013 54.0473C31.44 54.5245 10.628 50.1235 7.35381 50.6007Z" fill="#8E909F"/>
</g>
<path d="M68.1856 27.111C68.4237 27.7384 68.8999 28.2463 69.5106 28.5244C70.1213 28.8024 70.8171 28.8281 71.4466 28.5957C71.4466 28.5957 67.8409 29.749 68.1856 27.111Z" fill="url(#paint10_linear_733_37025)"/>
<path d="M67.4698 37.4242C66.237 37.5302 68.9147 35.7009 71.0887 36.0986C69.9069 36.6046 68.6989 37.0471 67.4698 37.4242V37.4242Z" fill="#526800"/>
<path d="M9.46146 34.3621C9.46146 34.3621 14.6048 34.5609 12.3911 36.0323L9.46146 34.3621Z" fill="#526800"/>
<path d="M12.9478 33.1955C11.9403 33.9644 13.531 33.7788 13.9287 33.4474C14.3264 33.116 13.6503 32.6653 12.9478 33.1955Z" fill="#526800"/>
<path d="M72.6528 48.3737C72.6528 48.3737 72.8384 47.4192 74.3894 46.836C75.4014 46.505 76.4926 46.505 77.5046 46.836C75.9546 47.5405 74.3257 48.0567 72.6528 48.3737Z" fill="#526100"/>
<g style="mix-blend-mode:multiply" opacity="0.5">
<path d="M28.4175 43.3099C26.5617 43.1243 32.3944 48.6123 33.1102 49.0365C33.826 49.4607 33.4018 45.8815 32.4076 44.609C31.4134 43.3364 28.4175 43.3099 28.4175 43.3099Z" fill="#8E909F"/>
</g>
<g style="mix-blend-mode:multiply" opacity="0.5">
<path d="M23.4201 54.3123C20.8749 54.0207 28.7225 60.3836 30.5518 61.7357C32.3811 63.0878 33.773 58.5012 33.5874 57.5335C33.4018 56.5658 26.9594 54.71 23.4201 54.3123Z" fill="#8E909F"/>
</g>
<g style="mix-blend-mode:multiply" opacity="0.5">
<path d="M82.3033 29.1391C81.0148 30.4034 79.5924 31.5235 78.0614 32.4796C76.0464 33.5932 79.6918 32.652 80.4607 32.811C81.2295 32.9701 81.1368 35.8599 81.1368 35.8599C81.1368 35.8599 82.0514 31.3264 82.3033 29.1391Z" fill="#8E909F"/>
</g>
<g style="mix-blend-mode:color" opacity="0.24">
<path d="M80.9776 37.7158H78.9494L7.52611 42.5542L5.98837 43.8136L33.9453 52.7879C33.9453 52.7879 63.3074 52.0986 80.9776 37.7158Z" fill="#0E091E"/>
<path d="M82.29 29.1391C69.8823 41.6926 39.2344 44.6354 32.9776 43.8135C23.5658 42.5675 14.5252 37.6628 9.05051 34.1632C7.12839 32.9304 5.67024 31.8964 4.83511 31.2866L4.29165 30.8757C4.19886 30.8757 4.1193 30.7431 4.02651 30.6768L4.82184 30.8094H4.91464C17.8393 32.5459 46.7109 21.0132 46.7109 21.0132C52.0133 23.5849 60.7622 25.5998 68.2651 26.9917C68.2625 27.0358 68.2625 27.0801 68.2651 27.1242C68.2166 27.3021 68.2166 27.4898 68.2651 27.6677C68.3119 27.8624 68.3969 28.0459 68.5153 28.2075C68.6336 28.3691 68.7829 28.5055 68.9544 28.6089C69.4494 28.8489 70.0148 28.9007 70.5452 28.7547C71.2396 28.6124 71.9187 28.4037 72.5733 28.1317C72.8036 28.0464 73.0293 27.949 73.2494 27.84C78.459 28.6884 82.29 29.1391 82.29 29.1391Z" fill="#0E091E"/>
<path d="M82.3032 29.1391L81.1367 35.8599C81.1367 35.8599 61.2527 51.555 33.826 50.3752L32.9909 43.8135C32.9909 43.8135 69.2991 41.9577 82.3032 29.1391Z" fill="#0E091E"/>
<path d="M33.9453 52.7879C33.9453 52.7879 67.9205 46.1599 80.9776 37.7158L78.9627 57.5998C78.9627 57.5998 55.884 64.7581 34.6213 66.5079L33.9453 52.7879Z" fill="#0E091E"/>
<path d="M33.826 50.3752C20.7423 49.1159 5.49791 41.6131 5.49791 41.6131L5.02071 38.087L3.99997 30.6503L4.26511 30.8492L4.80857 31.2866C6.15977 32.3077 7.56238 33.2589 9.01078 34.1367C19.5095 40.473 32.9511 43.7871 32.9511 43.7871L33.826 50.3752Z" fill="#0E091E"/>
<path d="M33.9453 52.7879C33.9453 52.7879 15.0687 45.7357 5.98837 43.8136L8.94444 61.7357C8.94444 61.7357 27.7812 66.3621 34.6213 66.4417L33.9453 52.7879Z" fill="#0E091E"/>
<path d="M31.4267 55.7175L34.0779 56.6454C34.0779 56.6454 60.6959 51.2104 80.2883 43.9462C80.2883 43.9462 57.0638 53.5435 34.0116 55.3065L31.4267 55.7175Z" fill="#0E091E"/>
<path d="M50.7009 34.6139C42.7473 37.6495 32.3282 33.0099 37.0208 30.6371C45.3721 26.3289 58.8799 31.4987 50.7009 34.6139Z" fill="#0E091E"/>
<path d="M71.4466 32.8906C64.8981 31.7241 68.6231 29.5898 70.4922 28.7414C69.9618 28.8875 69.3964 28.8356 68.9014 28.5956C68.7299 28.4923 68.5806 28.3558 68.4623 28.1942C68.3439 28.0327 68.2589 27.8492 68.2121 27.6545L50.754 23.6777C48.5207 24.3349 46.2228 24.7483 43.9005 24.9105C42.6715 25.0062 41.4357 24.9662 40.2154 24.7912C36.2386 26.3289 15.9304 31.4192 15.9304 31.4192C22.3463 33.9378 13.9685 35.396 13.9685 35.396L26.8533 40.884C37.9353 38.763 39.5791 41.8119 39.5791 41.8119C54.3861 42.4217 72.3347 32.9701 72.3347 32.9701L71.4466 32.8906ZM53.1267 35.5418C42.0712 39.7174 27.5691 33.3148 34.0646 29.961C37.3937 28.3462 41.0637 27.5595 44.7622 27.6677C53.1135 27.7738 60.0331 31.6445 54.9694 34.6802C54.3671 35.0049 53.7372 35.2755 53.087 35.4888L53.1267 35.5418Z" fill="#0E091E"/>
<path d="M50.7009 34.6139C42.7473 37.6495 32.3282 33.0099 37.0208 30.6371C45.3721 26.3289 58.8799 31.4987 50.7009 34.6139Z" fill="#0E091E"/>
<path d="M50.7009 34.6139C42.7473 37.6495 32.3282 33.0099 37.0208 30.6371C45.3721 26.3289 58.8799 31.4987 50.7009 34.6139Z" fill="#0E091E"/>
<path d="M34.1309 56.6454C34.1309 56.6454 69.7498 50.6006 84 43.9726L80.4474 42.9254L80.3414 43.9726C80.3414 43.9726 68.3049 49.9776 34.1309 56.6454Z" fill="#0E091E"/>
<path d="M35.2709 63.9362C34.0514 63.7373 38.2402 55.9826 52.053 52.0058C66.396 47.8169 78.565 45.5766 78.565 45.5766C78.565 45.5766 79.2145 51.5551 72.3214 56.7779C65.6802 61.7357 43.1185 65.1822 35.2709 63.9362Z" fill="#0E091E"/>
<path d="M9.39517 58.4217C10.575 60.768 31.6255 66.2957 33.1235 66.3753C34.6214 66.4548 33.7067 58.6205 33.7465 57.2286C33.7862 55.8367 10.0315 51.8599 9.22284 51.5551C8.41422 51.2502 32.3148 55.3065 33.1765 54.9221C34.0381 54.5377 23.1947 49.6197 16.3546 47.4987C9.51448 45.3778 6.38603 44.7149 6.38603 44.7149C6.38603 44.7149 7.9105 55.4523 9.39517 58.4217Z" fill="#0E091E"/>
<path d="M6.3993 35.6214C6.83675 32.5858 30.3264 43.3629 32.0762 44.2776C33.4018 44.9801 33.9188 50.1102 31.9701 49.9909C30.0215 49.8716 9.48795 47.6579 6.3993 35.6214Z" fill="#0E091E"/>
<path d="M38.6512 54.8558C38.1077 53.5965 71.9105 43.2568 77.0008 40.5923C82.0912 37.9279 79.0025 43.9726 79.0025 43.9726C66.0479 49.2373 52.4962 52.8923 38.6512 54.8558Z" fill="#0E091E"/>
<path d="M35.1251 43.6678C35.1251 43.6678 45.6106 49.0763 55.3803 46.8493C65.15 44.6223 75.2643 41.4275 77.5311 38.3521C79.2472 35.7337 80.586 32.8867 81.5079 29.8948C67.7139 38.8957 51.5959 43.6818 35.1251 43.6678Z" fill="#0E091E"/>
<path d="M25.0505 48.7846C25.0505 48.7846 33.0041 52.0323 34.3297 52.324C35.6553 52.6156 46.2601 50.0572 46.2601 50.0572C39.1836 51.2151 31.9379 50.7804 25.0505 48.7846Z" fill="#0E091E"/>
<path d="M7.52611 42.5542C5.98842 43.8136 15.1615 46.3322 15.1615 46.3322L17.9055 46.6503L7.52611 42.5542Z" fill="#0E091E"/>
<path d="M3.99997 30.7167L4.7953 30.8492V31.353L5.00744 38.1533L3.99997 30.7167Z" fill="#0E091E"/>
<path d="M46.6843 21C46.6843 21 45.7697 22.6835 29.6769 27.8931C15.0952 32.6123 5.90882 30.995 4.8881 30.7962C17.826 32.5327 46.6843 21 46.6843 21Z" fill="#0E091E"/>
<path d="M79.0158 30.7167C76.5833 31.7791 74.0269 32.5318 71.4067 32.9569C65.9983 34.1607 60.4701 34.7433 54.9295 34.6935C52.9483 34.7627 50.9901 34.2513 49.2957 33.2221C47.4261 31.6894 45.8728 29.8074 44.7225 27.6811C44.278 26.8564 43.9861 25.9583 43.8608 25.0299C43.7423 24.5155 43.8262 23.9753 44.0952 23.5212C44.3642 23.0671 44.7977 22.7339 45.3057 22.5907C45.3057 22.5907 58.3098 24.9503 68.1855 27.1773C68.1371 27.3552 68.1371 27.5429 68.1855 27.7208C68.2323 27.9156 68.3174 28.099 68.4357 28.2606C68.554 28.4222 68.7034 28.5586 68.8749 28.662C69.3699 28.902 69.9352 28.9538 70.4656 28.8078C71.16 28.6655 71.8392 28.4568 72.4937 28.1848C76.7489 29.2055 79.6786 30.1599 79.0158 30.7167Z" fill="#0E091E"/>
<path d="M78.9627 57.5336C78.9627 57.5336 72.6528 58.7134 61.0538 61.4308C50.1308 64.0025 34.6213 66.4417 34.6213 66.4417C34.6213 66.4417 61.1731 63.353 78.9627 57.5336Z" fill="#0E091E"/>
<path d="M8.94444 61.7357L34.6213 66.5079C25.9768 65.4181 17.4033 63.8247 8.94444 61.7357Z" fill="#0E091E"/>
<path d="M34.8335 56.6454C34.8335 56.6454 67.3637 51.0646 73.8326 50.5874C80.3016 50.1102 80.0762 46.6106 80.0762 46.6106L80.275 45.4706C80.275 45.4706 66.966 50.6007 34.8335 56.6454Z" fill="#0E091E"/>
<path d="M84 43.9726L84 44.7415C71.0348 49.2826 57.6907 52.6585 44.1259 54.8294C44.1259 54.8294 69.7763 49.4871 84 43.9726Z" fill="#0E091E"/>
<path d="M23.7249 28.1229C23.7249 28.1229 35.2179 38.4228 47.8509 41.5247C47.8509 41.5247 48.4739 50.7112 48.0497 64.3118C48.0497 64.3118 48.9246 44.9713 48.2087 40.5836C47.4929 36.1958 31.6785 28.229 23.7249 28.1229Z" fill="#0E091E"/>
<path d="M12.391 36.0191C12.391 36.0191 25.7796 41.7059 32.0497 42.8857C38.3198 44.0655 47.8376 42.1301 47.8376 42.1301C47.8376 42.1301 37.4846 44.2643 32.9909 43.8004C28.4971 43.3364 12.391 36.0191 12.391 36.0191Z" fill="#0E091E"/>
<path d="M30.1143 55.5452C31.3893 56.075 32.7251 56.4446 34.0911 56.6454C35.1384 56.6454 43.1052 54.8028 43.1052 54.8028C43.1052 54.8028 34.4358 56.6056 30.1143 55.5452Z" fill="#0E091E"/>
<path d="M66.4226 48.7846C66.4226 48.7846 71.0887 47.6181 74.1243 47.0878C77.3488 46.2512 80.5006 45.1562 83.5493 43.8136L80.8186 43.005C80.4474 42.8989 80.3414 43.9461 80.3414 43.9461C80.3414 43.9461 70.8501 47.9495 66.4226 48.7846Z" fill="#0E091E"/>
<path d="M7.52611 42.5542L4.50371 43.8798C9.93901 44.9464 15.3079 46.3274 20.5833 48.0157L7.32725 43.2038L7.52611 42.5542Z" fill="#0E091E"/>
<path d="M4.50371 43.9727L4.88811 45.2983C4.88811 45.2983 24.5336 48.7714 33.9453 52.8277C33.9453 52.7879 17.1765 45.8418 4.50371 43.9727Z" fill="#0E091E"/>
<path d="M7.35377 50.6007C7.35377 50.6007 19.5626 53.5701 25.5013 54.0473C31.4399 54.5245 10.628 50.1235 7.35377 50.6007Z" fill="#0E091E"/>
<path d="M68.1856 27.111C68.4236 27.7384 68.8999 28.2463 69.5106 28.5244C70.1213 28.8024 70.8171 28.828 71.4466 28.5957C71.4466 28.5957 67.8409 29.7489 68.1856 27.111Z" fill="#0E091E"/>
<path d="M67.4698 37.4242C66.237 37.5302 68.9147 35.7009 71.0887 36.0986C69.9068 36.6046 68.6988 37.0471 67.4698 37.4242Z" fill="#0E091E"/>
<path d="M9.46143 34.3621C9.46143 34.3621 14.6048 34.5609 12.391 36.0323L9.46143 34.3621Z" fill="#0E091E"/>
<path d="M12.9477 33.1955C11.9403 33.9644 13.531 33.7788 13.9287 33.4474C14.3263 33.116 13.6503 32.6653 12.9477 33.1955Z" fill="#0E091E"/>
<path d="M72.6528 48.3737C72.6528 48.3737 72.8384 47.4192 74.3893 46.836C75.4014 46.505 76.4925 46.505 77.5046 46.836C75.9545 47.5405 74.3257 48.0567 72.6528 48.3737Z" fill="#0E091E"/>
<path d="M28.4175 43.3099C26.5617 43.1243 32.3944 48.6123 33.1102 49.0365C33.826 49.4607 33.4018 45.8815 32.4076 44.609C31.4134 43.3364 28.4175 43.3099 28.4175 43.3099Z" fill="#0E091E"/>
<path d="M23.42 54.3123C20.8749 54.0207 28.7224 60.3836 30.5518 61.7357C32.3811 63.0878 33.773 58.5012 33.5874 57.5335C33.4018 56.5658 26.9594 54.71 23.42 54.3123Z" fill="#0E091E"/>
<path d="M82.3032 29.1391C81.0148 30.4034 79.5924 31.5235 78.0613 32.4796C76.0464 33.5932 79.6918 32.652 80.4607 32.811C81.2295 32.9701 81.1367 35.8599 81.1367 35.8599C81.1367 35.8599 82.0514 31.3264 82.3032 29.1391Z" fill="#0E091E"/>
</g>
<path d="M43.7946 65.3679L49.5609 64.4664C49.5609 64.4664 48.6065 66.6935 46.9097 66.8393C46.3143 66.8377 45.7265 66.705 45.1881 66.4507C44.6498 66.1964 44.174 65.8267 43.7946 65.3679Z" fill="#E2B3F9"/>
<path d="M60.3115 63.6313C60.2865 63.811 60.2466 63.9884 60.1923 64.1615C60.1127 64.4532 59.7945 64.705 59.3173 64.9569C58.4668 65.341 57.5782 65.6343 56.6661 65.8318V65.8318C55.5526 66.0969 54.3066 66.309 53.0871 66.4814C52.2387 66.6139 51.4168 66.7199 50.6479 66.7995C48.8584 66.9983 47.4532 67.1176 47.1086 67.1442H47.0291C47.0291 67.1442 47.8509 66.7465 48.3547 62.9022C48.8584 59.058 49.309 42.594 48.4739 40.473C45.6371 33.3015 24.1889 27.5749 24.1889 27.5749C25.0992 27.1468 26.0331 26.7706 26.986 26.4482C29.4119 25.5851 31.9374 25.0328 34.5021 24.8044V24.8044H34.966C35.9016 24.7381 36.8407 24.7381 37.7763 24.8044C41.4763 25.4251 45.0955 26.4566 48.5667 27.8798C54.5982 30.0406 61.0141 32.8243 61.8227 35.0778C62.9097 38.7498 61.0671 59.5484 60.3115 63.6313Z" fill="url(#paint11_linear_733_37025)"/>
<path d="M52.9677 66.5079C52.1193 66.6404 51.2974 66.7465 50.5286 66.826C52.4905 66.4018 52.5436 39.9428 51.9338 37.6628C51.324 35.3828 33.0307 26.5278 26.8534 26.435L29.1069 26.0505C29.1069 26.0505 50.8335 33.7788 53.5377 37.0928C56.2419 40.4068 53.3256 66.0042 52.9677 66.5079Z" fill="url(#paint12_linear_733_37025)"/>
<path d="M59.3041 64.9702C58.4537 65.3543 57.565 65.6476 56.6529 65.8451H56.4938C58.4689 65.5269 58.5088 38.9619 57.899 36.6818C57.2892 34.4018 38.7573 25.1756 32.58 25.0828L34.4226 24.7779H34.807H34.8865C36.3712 25.3214 56.865 32.9569 59.4764 36.1516C62.0878 39.3463 59.8344 62.2924 59.3041 64.9702Z" fill="url(#paint13_linear_733_37025)"/>
<path d="M23.725 28.4897C23.725 28.4897 41.8061 31.0348 48.2088 40.9503C48.2088 40.9503 48.8318 60.5825 48.0497 64.6786C47.2676 68.7747 43.821 65.3679 43.821 65.3679L42.4954 65.6065C42.4954 65.6065 47.0953 68.8144 48.0232 66.3753C48.9512 63.9362 48.7523 44.0787 48.7125 40.8177C48.6727 37.5568 34.1309 28.662 24.0564 27.5617L23.725 28.4897Z" fill="#E2B3F9"/>
<path opacity="0.3" d="M23.725 28.4897C23.725 28.4897 41.8061 31.0348 48.2088 40.9503C48.2088 40.9503 48.8318 60.5825 48.0497 64.6786C47.2676 68.7747 43.821 65.3679 43.821 65.3679L42.4954 65.6065C42.4954 65.6065 47.0953 68.8144 48.0232 66.3753C48.9512 63.9362 48.7523 44.0787 48.7125 40.8177C48.6727 37.5568 34.1309 28.662 24.0564 27.5617L23.725 28.4897Z" fill="#8E909F"/>
<g style="mix-blend-mode:multiply" opacity="0.4">
<path d="M48.7125 40.8177C48.4872 37.1988 60.643 35.2236 61.6769 36.3636C62.7109 37.5037 61.5841 62.0936 59.8476 64.2013C58.416 65.9246 49.5476 66.8525 48.7125 66.4018C47.5858 65.7257 49.4018 51.9262 48.7125 40.8177Z" fill="#640B8E"/>
</g>
<g style="mix-blend-mode:multiply" opacity="0.1">
<path d="M49.0307 40.5129C48.063 42.9785 53.8029 43.4292 57.4615 40.6852C61.1202 37.9412 62.353 36.4168 60.6694 36.0721C58.9859 35.7274 50.237 37.6496 49.0307 40.5129Z" fill="#640B8E"/>
</g>
<g style="mix-blend-mode:multiply" opacity="0.2">
<path d="M46.6049 27.2568C39.6322 25.0828 34.9793 27.6014 34.8335 29.1391C34.6877 30.6768 43.8609 34.7332 46.1277 36.8541C48.3944 38.9751 59.6355 34.4548 59.7151 33.7787C59.7946 33.1027 52.7159 29.1524 46.6049 27.2568Z" fill="#CB76F4"/>
</g>
<g style="mix-blend-mode:multiply" opacity="0.8">
<path d="M60.2983 63.6446C60.2733 63.8243 60.2333 64.0017 60.179 64.1748C59.5692 66.15 48.063 67.0911 46.923 67.1707C50.6284 66.8155 54.3019 66.1819 57.9122 65.2751C58.8839 65.05 59.7356 64.4681 60.2983 63.6446V63.6446Z" fill="#640B8E"/>
</g>
<defs>
<linearGradient id="paint0_linear_733_37025" x1="4.00002" y1="32.4796" x2="82.29" y2="32.4796" gradientUnits="userSpaceOnUse">
<stop stop-color="#84A61D"/>
<stop offset="1" stop-color="#B5CE45"/>
</linearGradient>
<linearGradient id="paint1_linear_733_37025" x1="32.9909" y1="39.797" x2="82.3033" y2="39.797" gradientUnits="userSpaceOnUse">
<stop stop-color="#848D04"/>
<stop offset="1" stop-color="#829A45"/>
</linearGradient>
<linearGradient id="paint2_linear_733_37025" x1="33.9454" y1="52.0853" x2="80.9777" y2="52.0853" gradientUnits="userSpaceOnUse">
<stop stop-color="#848D04"/>
<stop offset="1" stop-color="#829A45"/>
</linearGradient>
<linearGradient id="paint3_linear_733_37025" x1="4" y1="40.5128" x2="33.826" y2="40.5128" gradientUnits="userSpaceOnUse">
<stop stop-color="#427038"/>
<stop offset="0.99" stop-color="#635C06"/>
</linearGradient>
<linearGradient id="paint4_linear_733_37025" x1="5.9884" y1="55.1343" x2="34.6214" y2="55.1343" gradientUnits="userSpaceOnUse">
<stop stop-color="#427038"/>
<stop offset="0.99" stop-color="#635C06"/>
</linearGradient>
<linearGradient id="paint5_linear_733_37025" x1="35.8543" y1="32.2941" x2="53.2329" y2="32.2941" gradientUnits="userSpaceOnUse">
<stop stop-color="#D8EC38"/>
<stop offset="0.99" stop-color="#FFF47C"/>
</linearGradient>
<linearGradient id="paint6_linear_733_37025" x1="35.8543" y1="32.2941" x2="53.2329" y2="32.2941" gradientUnits="userSpaceOnUse">
<stop stop-color="#84A61D"/>
<stop offset="1" stop-color="#B5CE45"/>
</linearGradient>
<linearGradient id="paint7_linear_733_37025" x1="34.1309" y1="49.7788" x2="84" y2="49.7788" gradientUnits="userSpaceOnUse">
<stop stop-color="#84A61D"/>
<stop offset="1" stop-color="#B5CE45"/>
</linearGradient>
<linearGradient id="paint8_linear_733_37025" x1="44.126" y1="49.3679" x2="84" y2="49.3679" gradientUnits="userSpaceOnUse">
<stop stop-color="#848D04"/>
<stop offset="1" stop-color="#829A45"/>
</linearGradient>
<linearGradient id="paint9_linear_733_37025" x1="4.50374" y1="48.3737" x2="33.9454" y2="48.3737" gradientUnits="userSpaceOnUse">
<stop stop-color="#427038"/>
<stop offset="0.99" stop-color="#635C06"/>
</linearGradient>
<linearGradient id="paint10_linear_733_37025" x1="68.1591" y1="27.9726" x2="71.3803" y2="27.9726" gradientUnits="userSpaceOnUse">
<stop stop-color="#427038"/>
<stop offset="0.99" stop-color="#635C06"/>
</linearGradient>
<linearGradient id="paint11_linear_733_37025" x1="43.0655" y1="67.1839" x2="43.0655" y2="24.7779" gradientUnits="userSpaceOnUse">
<stop stop-color="#F8E1F2"/>
<stop offset="1" stop-color="white"/>
</linearGradient>
<linearGradient id="paint12_linear_733_37025" x1="40.7589" y1="66.8128" x2="40.7589" y2="26.1036" gradientUnits="userSpaceOnUse">
<stop stop-color="#9210D0"/>
<stop offset="1" stop-color="#FF0D49"/>
</linearGradient>
<linearGradient id="paint13_linear_733_37025" x1="46.6048" y1="65.8583" x2="46.6048" y2="24.7779" gradientUnits="userSpaceOnUse">
<stop stop-color="#9210D0"/>
<stop offset="1" stop-color="#FF0D49"/>
</linearGradient>
</defs>

</symbol>
<symbol id="warning-error" viewBox="0 0 80 60">
<path d="M73.5301 54.1787C73.3483 55.5499 72.9084 56.875 72.2335 58.0847C70.1302 59.6729 11.324 62.0766 7.70806 56.5824C6.18482 54.7455 4.98646 52.6652 4.1641 50.43C4.03445 49.9292 3.90487 49.4571 3.78962 48.9992C-2.54912 23.4739 0.663463 4.55888 2.07527 3.95795C12.1596 -0.33442 77.3909 -1.13564 79.6383 2.0121C81.3814 4.61613 76.4113 41.8453 73.5301 54.1787Z" fill="url(#paint0_linear_733_38335)"/>
<g style="mix-blend-mode:multiply" opacity="0.4">
<path d="M79.5951 1.95487C79.1917 -2.07995 74.3224 16.6348 72.7953 31.2145C71.686 41.7738 71.4988 56.5109 71.859 57.2978C72.2191 58.0847 81.367 19.2531 79.5951 1.95487Z" fill="#AE042F"/>
</g>
<g style="mix-blend-mode:multiply" opacity="0.4">
<path d="M73.5301 54.1787C73.3483 55.5499 72.9084 56.875 72.2335 58.0848C70.1302 59.6729 11.324 62.0766 7.70809 56.5824C7.11743 55.6953 4.36581 51.6891 3.80397 49.0278C6.77165 55.4378 17.4035 60.3311 42.3983 59.4583C67.3931 58.5855 71.6141 57.6412 73.5301 54.1787Z" fill="#AE042F"/>
</g>
<g style="mix-blend-mode:multiply" opacity="0.4">
<path d="M2.03206 3.87221C1.62868 6.13286 19.4924 29.4261 31.4928 35.2637C43.4932 41.1014 72.7954 5.67501 79.5952 1.95496C79.5952 1.95496 79.84 2.18386 79.8256 3.81497C79.8112 5.44607 52.4538 25.6345 47.4836 31.2146C42.5135 36.7947 68.2142 56.8973 72.2048 58.0991C72.2048 58.0991 71.254 58.6715 70.6777 58.4855C70.1015 58.2995 49.8319 43.4478 44.5448 33.1462C44.5448 33.1462 38.912 38.0395 35.5698 38.2112C32.2275 38.3829 28.5251 33.9188 27.7039 33.5754C27.7039 33.5754 11.4105 48.4127 9.52331 57.2836C9.52331 57.2836 9.52327 57.999 8.58687 56.4823C7.65046 54.9657 26.4073 33.7042 26.4073 33.3465C26.4073 32.9888 7.67929 15.247 2.03206 3.87221Z" fill="#AE042F"/>
</g>
<g style="mix-blend-mode:multiply" opacity="0.4">
<path d="M29.5623 34.2049C29.5623 34.2049 33.8841 40.0854 35.9442 40.0854C39.7187 40.0854 44.2135 39.1554 56.257 28.5104C77.8664 9.42362 78.6587 2.54153 78.6587 2.54153C78.6587 2.54153 71.4556 9.5381 59.9306 19.9829C48.4056 30.4276 39.5458 34.8917 37.0824 35.7216C34.6189 36.5514 29.5623 34.2049 29.5623 34.2049Z" fill="#AE042F"/>
</g>
<g style="mix-blend-mode:multiply" opacity="0.3">
<path d="M79.5951 1.95489C79.2638 1.84043 71.0666 -1.23577 50.7827 1.95489C30.0089 5.21709 5.95051 0.724404 3.12689 4.67338C0.303276 8.62236 1.3693 13.0149 1.02355 22.0432C0.692212 30.6279 3.54463 47.3967 3.80394 48.9277C-2.53479 23.4024 0.677791 4.4874 2.0896 3.88647C12.1307 -0.491749 77.3477 -1.22146 79.5951 1.95489Z" fill="#AE042F"/>
</g>
<g style="mix-blend-mode:screen" opacity="0.3">
<path d="M5.08611 4.81648C3.64549 5.54619 12.1308 15.3042 19.9102 24.4183C27.6895 33.5324 41.2169 32.7169 50.0191 26.8793C58.8213 21.0417 75.6621 4.35865 74.841 2.55585C74.0198 0.75306 53.8944 2.68459 37.6154 3.54306C21.3363 4.40153 7.41992 3.65754 5.08611 4.81648Z" fill="#FB8C32"/>
</g>
<g style="mix-blend-mode:multiply" opacity="0.2">
<path d="M9.52329 57.2835C8.71655 55.3519 19.1611 43.0615 37.457 43.4192C55.7529 43.7768 68.6896 58.514 68.6896 58.514C68.6896 58.514 30.6572 62.048 9.52329 57.2835Z" fill="#FF6F93"/>
</g>
<g style="mix-blend-mode:multiply" opacity="0.4">
<path d="M58.5188 48.1551C60.8595 50.6256 63.3671 52.9345 66.0244 55.0658C69.4099 57.6126 70.6777 58.4711 70.6777 58.4711C70.6777 58.4711 72.1183 59.0577 72.6369 57.2978C73.1555 55.538 67.0041 55.6811 58.5188 48.1551Z" fill="#AE042F"/>
</g>
<path d="M45.7261 35.1635C44.5592 34.5196 49.2556 43.2046 56.0986 48.7417C60.0274 51.9732 64.2414 54.8464 68.6896 57.3265C68.6896 57.3265 59.5416 48.1551 45.7261 35.1635Z" fill="#FFD1AC"/>
<path d="M10.0419 55.5809C10.0419 55.5809 20.8177 40.4718 27.7039 33.5754C27.7039 33.5754 14.1477 42.3032 10.0419 55.5809Z" fill="#FFD1AC"/>
<g style="mix-blend-mode:multiply" opacity="0.4">
<path d="M72.925 29.9984C71.7869 45.0503 76.9876 30.6995 78.5867 22.0289C79.5035 15.565 79.5035 9.00544 78.5867 2.54156C78.5723 1.61155 73.8758 17.3216 72.925 29.9984Z" fill="#AE042F"/>
</g>
<g style="mix-blend-mode:multiply" opacity="0.2">
<path d="M11.252 31.0715C11.2598 30.7723 11.3619 30.4832 11.5438 30.2446C11.7258 30.0061 11.9785 29.8302 12.2664 29.7418C12.5542 29.6533 12.8627 29.6567 13.1485 29.7515C13.4343 29.8463 13.683 30.0278 13.8595 30.2703C13.9743 30.8133 13.8927 31.3791 13.6293 31.8683C13.3658 32.3576 12.9373 32.7391 12.4189 32.9458C11.2808 33.2034 11.2232 31.9014 11.252 31.0715Z" fill="#AE042F"/>
</g>
<g style="mix-blend-mode:multiply" opacity="0.2">
<path d="M61.6593 7.50639C61.67 7.20843 61.7741 6.92121 61.9572 6.68489C62.1402 6.44857 62.393 6.27494 62.6802 6.18825C62.9674 6.10157 63.2748 6.10621 63.5592 6.20144C63.8437 6.29667 64.0911 6.47774 64.2669 6.71943C64.3846 7.2626 64.3043 7.82964 64.0405 8.31959C63.7767 8.80954 63.3464 9.19065 62.8262 9.39504C61.6882 9.65258 61.6305 8.33625 61.6593 7.50639Z" fill="#AE042F"/>
</g>
<g style="mix-blend-mode:multiply" opacity="0.2">
<path d="M10.4596 29.6979C11.7562 28.1527 10.1283 22.9875 6.51236 23.2594C2.8964 23.5312 4.69718 28.725 6.51236 29.9554C6.78669 30.1998 7.10745 30.3873 7.45575 30.5068C7.80404 30.6264 8.17289 30.6756 8.54061 30.6516C8.90833 30.6276 9.26751 30.5309 9.59707 30.3672C9.92663 30.2034 10.2199 29.9758 10.4596 29.6979V29.6979Z" fill="#AE042F"/>
</g>
<path d="M35.6273 35.836C33.8697 35.6071 57.1214 22.4581 57.1214 22.4581C57.1214 22.4581 43.7668 34.305 35.6273 35.836Z" fill="#FFB070"/>
<g style="mix-blend-mode:multiply" opacity="0.4">
<path d="M2.03203 3.87213C2.03203 3.87213 3.89043 10.2391 10.5893 18.8096C17.2882 27.38 29.5623 34.2049 29.5623 34.2049C29.5623 34.2049 9.50885 18.3088 2.03203 3.87213Z" fill="#AE042F"/>
</g>
<g style="mix-blend-mode:multiply" opacity="0.2">
<path d="M52.3097 37.7962C52.6123 40.858 65.8228 54.2216 69.4243 55.1087C73.0259 55.9958 70.2742 31.2432 70.087 24.4469C69.8997 17.6507 51.9208 34.1476 52.3097 37.7962Z" fill="#FF6F93"/>
</g>
<g style="mix-blend-mode:multiply" opacity="0.2">
<path d="M56.0986 48.7418C51.7768 46.6385 58.2019 53.5779 61.1984 56.2248C62.2214 57.0835 63.4263 57.7018 64.7234 58.0338C66.0204 58.3657 67.3762 58.4027 68.6896 58.1421C69.2947 57.9704 60.8527 53.3776 56.0986 48.7418Z" fill="#FF6F93"/>
</g>
<path d="M4.38022 6.24722C7.37671 10.8687 14.6518 6.24722 23.7998 4.73059C32.9477 3.21395 10.0562 2.29824 6.78603 3.2998C3.51582 4.30135 4.38022 6.24722 4.38022 6.24722Z" fill="#FFD1AC"/>
<path d="M28.4623 17.6016C21.9812 20.1298 19.4858 24.5542 18.548 32.5712C17.6102 40.5883 35.4795 50.8675 43.6689 43.9648C51.8583 37.0621 51.5066 26.4836 49.1285 20.6787C46.7504 14.8738 31.8955 16.2709 28.4623 17.6016Z" fill="url(#paint1_linear_733_38335)"/>
<g style="mix-blend-mode:multiply" opacity="0.6">
<path d="M45.3101 30.858C45.3101 32.9667 44.6806 35.0281 43.501 36.7814C42.3214 38.5347 40.6449 39.9012 38.6833 40.7082C36.7217 41.5152 34.5632 41.7263 32.4809 41.3149C30.3985 40.9035 28.4858 39.8881 26.9844 38.397C25.4831 36.9059 24.4607 35.0062 24.0465 32.9381C23.6323 30.8699 23.8449 28.7262 24.6574 26.778C25.4699 24.8298 26.8458 23.1647 28.6111 21.9931C30.3765 20.8216 32.452 20.1964 34.5752 20.1964C37.4223 20.1964 40.1527 21.3196 42.1659 23.3191C44.1791 25.3185 45.3101 28.0304 45.3101 30.858V30.858Z" fill="#CB0537"/>
</g>
<path d="M35.9652 40.3555C41.0615 40.3555 45.1929 36.1033 45.1929 30.8581C45.1929 25.6128 41.0615 21.3607 35.9652 21.3607C30.8689 21.3607 26.7375 25.6128 26.7375 30.8581C26.7375 36.1033 30.8689 40.3555 35.9652 40.3555Z" fill="#FA3A6A"/>
<g style="mix-blend-mode:multiply" opacity="0.6">
<path d="M19.2682 36.1307C23.1231 40.7315 28.5952 43.7045 34.5752 44.4472C44.523 45.6115 48.5424 37.9936 49.6477 31.7729C50.1563 27.3764 49.5101 22.924 47.772 18.8491C48.6678 19.4902 49.3969 20.3341 49.8989 21.3108C50.2339 22.4418 51.1382 35.166 51.4564 38.6589C51.7746 42.1519 46.2815 47.3247 36.836 47.9068C27.3906 48.489 21.1774 39.79 19.2682 36.1307Z" fill="#AE042F"/>
</g>
<g style="mix-blend-mode:multiply" opacity="0.4">
<path d="M23.924 29.5441C24.4431 35.0662 23.2708 33.1534 27.7926 26.4005C32.3143 19.6475 43.3508 25.4856 44.3388 26.4005C45.3269 27.3153 40.9894 18.7826 33.1182 20.1964C25.247 21.6102 23.924 29.5441 23.924 29.5441Z" fill="#AE042F"/>
</g>
<g style="mix-blend-mode:screen" opacity="0.3">
<path d="M19.2682 34.8999C19.4091 35.485 19.666 36.0364 20.024 36.5217C20.382 37.007 20.8339 37.4165 21.3532 37.7263C21.8725 38.0361 22.4488 38.2399 23.0484 38.3257C23.648 38.4116 24.2588 38.3779 24.8451 38.2264C25.7159 37.9104 21.931 32.2884 24.3761 25.8681C26.8212 19.4478 32.7497 17.3188 39.884 20.1464C47.0184 22.974 47.0687 20.0133 46.4155 18.849C45.7624 17.6847 32.6995 14.1752 25.7829 18.849C18.8663 23.5229 18.816 32.8374 19.2682 34.8999Z" fill="#E6A409"/>
</g>
<g style="mix-blend-mode:screen" opacity="0.3">
<path d="M38.226 44.5138C36.2666 42.8505 43.8197 38.5425 46.3318 33.4362C48.8438 28.3299 48.4252 34.7502 46.9514 38.975C45.4776 43.1997 38.226 44.5138 38.226 44.5138Z" fill="#E6A409"/>
</g>
<path d="M36.5178 17.0028C34.4412 17.5018 38.5611 20.3294 41.7095 19.9136C44.858 19.4977 40.9391 16.0381 36.5178 17.0028Z" fill="#FFF9E5"/>
<path d="M38.3768 44.0146C37.4055 43.7984 40.4199 41.2702 41.274 41.553C42.1281 41.8357 40.6879 44.5469 38.3768 44.0146Z" fill="#FFF9E5"/>
<g style="mix-blend-mode:screen" opacity="0.5">
<path fill-rule="evenodd" clip-rule="evenodd" d="M36.7923 31.4068V32.169C36.7633 32.5699 36.5824 32.945 36.2861 33.2189C35.9899 33.4927 35.6002 33.6449 35.1954 33.6449C34.7907 33.6449 34.401 33.4927 34.1048 33.2189C33.8085 32.945 33.6277 32.5699 33.5986 32.169V31.4068C33.6277 31.8077 33.8085 32.1828 34.1048 32.4566C34.401 32.7305 34.7907 32.8827 35.1954 32.8827C35.6002 32.8827 35.9899 32.7305 36.2861 32.4566C36.5824 32.1828 36.7633 31.8077 36.7923 31.4068V31.4068ZM36.7923 35.1605V36.0375C36.8081 36.2554 36.7785 36.4741 36.7054 36.6801C36.6323 36.8861 36.5172 37.0749 36.3674 37.2348C36.2176 37.3947 36.0362 37.5222 35.8346 37.6094C35.6329 37.6966 35.4154 37.7416 35.1954 37.7416C34.9755 37.7416 34.758 37.6966 34.5563 37.6094C34.3547 37.5222 34.1733 37.3947 34.0235 37.2348C33.8737 37.0749 33.7586 36.8861 33.6855 36.6801C33.6124 36.4741 33.5828 36.2554 33.5986 36.0375V35.1605C33.6277 35.5615 33.8085 35.9366 34.1048 36.2104C34.401 36.4842 34.7907 36.6365 35.1954 36.6365C35.6002 36.6365 35.9899 36.4842 36.2861 36.2104C36.5824 35.9366 36.7633 35.5615 36.7923 35.1605V35.1605Z" fill="#FFACC1"/>
</g>
<path style="mix-blend-mode:multiply" opacity="0.75" fill-rule="evenodd" clip-rule="evenodd" d="M35.1872 33.5787C35.5042 33.577 35.8146 33.6689 36.0789 33.8426C36.3433 34.0164 36.5498 34.2641 36.6722 34.5545C36.7946 34.8449 36.8275 35.1649 36.7667 35.4738C36.7058 35.7828 36.554 36.0669 36.3305 36.2901C36.1069 36.5133 35.8216 36.6655 35.5109 36.7275C35.2001 36.7896 34.8778 36.7586 34.5847 36.6385C34.2917 36.5184 34.0412 36.3146 33.8649 36.0529C33.6886 35.7913 33.5945 35.4835 33.5945 35.1687C33.5945 34.7484 33.7621 34.3452 34.0605 34.0473C34.359 33.7493 34.7641 33.5808 35.1872 33.5787V33.5787ZM35.1872 23.9975C35.6104 23.9975 36.0164 24.1639 36.3164 24.4604C36.6164 24.7568 36.786 25.1591 36.7882 25.5794V31.4149C36.7592 31.8158 36.5783 32.191 36.282 32.4648C35.9858 32.7386 35.5961 32.8909 35.1914 32.8909C34.7866 32.8909 34.3969 32.7386 34.1007 32.4648C33.8044 32.191 33.6236 31.8158 33.5945 31.4149V25.5712C33.5967 25.1523 33.7652 24.7512 34.0634 24.455C34.3617 24.1589 34.7655 23.9915 35.1872 23.9893V23.9975Z" fill="url(#paint2_linear_733_38335)"/>
<g style="mix-blend-mode:multiply" opacity="0.5">
<path fill-rule="evenodd" clip-rule="evenodd" d="M36.751 25.2353C36.6694 24.8852 36.4708 24.5729 36.1875 24.3492C35.9043 24.1256 35.5532 24.0039 35.1913 24.0039C34.8295 24.0039 34.4783 24.1256 34.1951 24.3492C33.9119 24.5729 33.7133 24.8852 33.6316 25.2353C33.6231 25.3471 33.6231 25.4595 33.6316 25.5713V26.3909C33.6338 25.972 33.8023 25.5709 34.1005 25.2748C34.3987 24.9786 34.8026 24.8112 35.2243 24.8091C35.6475 24.8091 36.0535 24.9755 36.3535 25.2719C36.6535 25.5683 36.8231 25.9706 36.8253 26.3909V25.5713C36.8243 25.4581 36.8104 25.3454 36.784 25.2353H36.751ZM35.1913 34.3984C35.5382 34.4055 35.874 34.521 36.1511 34.7284C36.4281 34.9359 36.6322 35.2248 36.7345 35.554C36.771 35.4176 36.7905 35.2772 36.7923 35.136C36.8081 34.9182 36.7785 34.6994 36.7054 34.4934C36.6323 34.2874 36.5172 34.0986 36.3674 33.9387C36.2176 33.7788 36.0362 33.6513 35.8346 33.5641C35.6329 33.4769 35.4154 33.4319 35.1954 33.4319C34.9755 33.4319 34.758 33.4769 34.5563 33.5641C34.3547 33.6513 34.1733 33.7788 34.0235 33.9387C33.8737 34.0986 33.7586 34.2874 33.6855 34.4934C33.6124 34.6994 33.5828 34.9182 33.5986 35.136C33.6005 35.2772 33.6199 35.4176 33.6564 35.554C33.7513 35.2221 33.9524 34.9298 34.2293 34.7213C34.5062 34.5128 34.8439 34.3995 35.1913 34.3984V34.3984Z" fill="#0E091E"/>
</g>
<defs>
<linearGradient id="paint0_linear_733_38335" x1="39.9636" y1="60.002" x2="39.9636" y2="-0.00532365" gradientUnits="userSpaceOnUse">
<stop stop-color="#FFB070"/>
<stop offset="1" stop-color="#FFD1AC"/>
</linearGradient>
<linearGradient id="paint1_linear_733_38335" x1="34.5751" y1="46.177" x2="34.5751" y2="16.4373" gradientUnits="userSpaceOnUse">
<stop stop-color="#DE0086"/>
<stop offset="1" stop-color="#FF003B"/>
</linearGradient>
<linearGradient id="paint2_linear_733_38335" x1="35.1872" y1="36.7423" x2="35.1872" y2="23.9893" gradientUnits="userSpaceOnUse">
<stop stop-color="#AE042F"/>
<stop offset="1" stop-color="#950428"/>
</linearGradient>
</defs>

</symbol>
<symbol id="warning-success" viewBox="0 0 80 60">
<path d="M73.5301 54.1787C73.3483 55.5499 72.9084 56.875 72.2335 58.0847C70.1302 59.6729 11.324 62.0766 7.70806 56.5824C6.18482 54.7455 4.98646 52.6652 4.1641 50.43C4.03445 49.9292 3.90487 49.4571 3.78962 48.9992C-2.54912 23.4739 0.663463 4.55888 2.07527 3.95795C12.1596 -0.33442 77.3909 -1.13564 79.6383 2.0121C81.3814 4.61613 76.4113 41.8453 73.5301 54.1787Z" fill="url(#paint0_linear_733_38445)"/>
<g style="mix-blend-mode:multiply" opacity="0.4">
<path d="M79.5951 1.95487C79.1917 -2.07995 74.3224 16.6348 72.7953 31.2145C71.686 41.7738 71.4988 56.5109 71.859 57.2978C72.2191 58.0847 81.367 19.2531 79.5951 1.95487Z" fill="#AE042F"/>
</g>
<g style="mix-blend-mode:multiply" opacity="0.4">
<path d="M73.5301 54.1787C73.3483 55.5499 72.9084 56.875 72.2335 58.0848C70.1302 59.6729 11.324 62.0766 7.70809 56.5824C7.11743 55.6953 4.36581 51.6891 3.80397 49.0278C6.77165 55.4378 17.4035 60.3311 42.3983 59.4583C67.3931 58.5855 71.6141 57.6412 73.5301 54.1787Z" fill="#AE042F"/>
</g>
<g style="mix-blend-mode:multiply" opacity="0.4">
<path d="M2.03206 3.87221C1.62868 6.13286 19.4924 29.4261 31.4928 35.2637C43.4932 41.1014 72.7954 5.67501 79.5952 1.95496C79.5952 1.95496 79.84 2.18386 79.8256 3.81497C79.8112 5.44607 52.4538 25.6345 47.4836 31.2146C42.5135 36.7947 68.2142 56.8973 72.2048 58.0991C72.2048 58.0991 71.254 58.6715 70.6777 58.4855C70.1015 58.2995 49.8319 43.4478 44.5448 33.1462C44.5448 33.1462 38.912 38.0395 35.5698 38.2112C32.2275 38.3829 28.5251 33.9188 27.7039 33.5754C27.7039 33.5754 11.4105 48.4127 9.52331 57.2836C9.52331 57.2836 9.52327 57.999 8.58687 56.4823C7.65046 54.9657 26.4073 33.7042 26.4073 33.3465C26.4073 32.9888 7.67929 15.247 2.03206 3.87221Z" fill="#AE042F"/>
</g>
<g style="mix-blend-mode:multiply" opacity="0.4">
<path d="M29.5623 34.2049C29.5623 34.2049 33.8841 40.0854 35.9442 40.0854C39.7187 40.0854 44.2135 39.1554 56.257 28.5104C77.8664 9.42362 78.6587 2.54153 78.6587 2.54153C78.6587 2.54153 71.4556 9.5381 59.9306 19.9829C48.4056 30.4276 39.5458 34.8917 37.0824 35.7216C34.6189 36.5514 29.5623 34.2049 29.5623 34.2049Z" fill="#AE042F"/>
</g>
<g style="mix-blend-mode:multiply" opacity="0.3">
<path d="M79.5951 1.95489C79.2638 1.84043 71.0666 -1.23577 50.7827 1.95489C30.0089 5.21709 5.95051 0.724404 3.12689 4.67338C0.303276 8.62236 1.3693 13.0149 1.02355 22.0432C0.692212 30.6279 3.54463 47.3967 3.80394 48.9277C-2.53479 23.4024 0.677791 4.4874 2.0896 3.88647C12.1307 -0.491749 77.3477 -1.22146 79.5951 1.95489Z" fill="#AE042F"/>
</g>
<g style="mix-blend-mode:screen" opacity="0.3">
<path d="M5.08611 4.81648C3.64549 5.54619 12.1308 15.3042 19.9102 24.4183C27.6895 33.5324 41.2169 32.7169 50.0191 26.8793C58.8213 21.0417 75.6621 4.35865 74.841 2.55585C74.0198 0.75306 53.8944 2.68459 37.6154 3.54306C21.3363 4.40153 7.41992 3.65754 5.08611 4.81648Z" fill="#FB8C32"/>
</g>
<g style="mix-blend-mode:multiply" opacity="0.2">
<path d="M9.52329 57.2835C8.71655 55.3519 19.1611 43.0615 37.457 43.4192C55.7529 43.7768 68.6896 58.514 68.6896 58.514C68.6896 58.514 30.6572 62.048 9.52329 57.2835Z" fill="#FF6F93"/>
</g>
<g style="mix-blend-mode:multiply" opacity="0.4">
<path d="M58.5188 48.1551C60.8595 50.6256 63.3671 52.9345 66.0244 55.0658C69.4099 57.6126 70.6777 58.4711 70.6777 58.4711C70.6777 58.4711 72.1183 59.0577 72.6369 57.2978C73.1555 55.538 67.0041 55.6811 58.5188 48.1551Z" fill="#AE042F"/>
</g>
<path d="M45.7261 35.1635C44.5592 34.5196 49.2556 43.2046 56.0986 48.7417C60.0274 51.9732 64.2414 54.8464 68.6896 57.3265C68.6896 57.3265 59.5416 48.1551 45.7261 35.1635Z" fill="#FFD1AC"/>
<path d="M10.0419 55.5809C10.0419 55.5809 20.8177 40.4718 27.7039 33.5754C27.7039 33.5754 14.1477 42.3032 10.0419 55.5809Z" fill="#FFD1AC"/>
<g style="mix-blend-mode:multiply" opacity="0.4">
<path d="M72.925 29.9984C71.7869 45.0503 76.9876 30.6995 78.5867 22.0289C79.5035 15.565 79.5035 9.00544 78.5867 2.54156C78.5723 1.61155 73.8758 17.3216 72.925 29.9984Z" fill="#AE042F"/>
</g>
<g style="mix-blend-mode:multiply" opacity="0.2">
<path d="M11.252 31.0715C11.2598 30.7723 11.3619 30.4832 11.5438 30.2446C11.7258 30.0061 11.9785 29.8302 12.2664 29.7418C12.5542 29.6533 12.8627 29.6567 13.1485 29.7515C13.4343 29.8463 13.683 30.0278 13.8595 30.2703C13.9743 30.8133 13.8927 31.3791 13.6293 31.8683C13.3658 32.3576 12.9373 32.7391 12.4189 32.9458C11.2808 33.2034 11.2232 31.9014 11.252 31.0715Z" fill="#AE042F"/>
</g>
<g style="mix-blend-mode:multiply" opacity="0.2">
<path d="M61.6593 7.50639C61.67 7.20843 61.7741 6.92121 61.9572 6.68489C62.1402 6.44857 62.393 6.27494 62.6802 6.18825C62.9674 6.10157 63.2748 6.10621 63.5592 6.20144C63.8437 6.29667 64.0911 6.47774 64.2669 6.71943C64.3846 7.2626 64.3043 7.82964 64.0405 8.31959C63.7767 8.80954 63.3464 9.19065 62.8262 9.39504C61.6882 9.65258 61.6305 8.33625 61.6593 7.50639Z" fill="#AE042F"/>
</g>
<g style="mix-blend-mode:multiply" opacity="0.2">
<path d="M10.4596 29.6979C11.7562 28.1527 10.1283 22.9875 6.51236 23.2594C2.8964 23.5312 4.69718 28.725 6.51236 29.9554C6.78669 30.1998 7.10745 30.3873 7.45575 30.5068C7.80404 30.6264 8.17289 30.6756 8.54061 30.6516C8.90833 30.6276 9.26751 30.5309 9.59707 30.3672C9.92663 30.2034 10.2199 29.9758 10.4596 29.6979V29.6979Z" fill="#AE042F"/>
</g>
<path d="M35.6273 35.836C33.8697 35.6071 57.1214 22.4581 57.1214 22.4581C57.1214 22.4581 43.7668 34.305 35.6273 35.836Z" fill="#FFB070"/>
<g style="mix-blend-mode:multiply" opacity="0.4">
<path d="M2.03203 3.87213C2.03203 3.87213 3.89043 10.2391 10.5893 18.8096C17.2882 27.38 29.5623 34.2049 29.5623 34.2049C29.5623 34.2049 9.50885 18.3088 2.03203 3.87213Z" fill="#AE042F"/>
</g>
<g style="mix-blend-mode:multiply" opacity="0.2">
<path d="M52.3097 37.7962C52.6123 40.858 65.8228 54.2216 69.4243 55.1087C73.0259 55.9958 70.2742 31.2432 70.087 24.4469C69.8997 17.6507 51.9208 34.1476 52.3097 37.7962Z" fill="#FF6F93"/>
</g>
<g style="mix-blend-mode:multiply" opacity="0.2">
<path d="M56.0986 48.7418C51.7768 46.6385 58.2019 53.5779 61.1984 56.2248C62.2214 57.0835 63.4263 57.7018 64.7234 58.0338C66.0204 58.3657 67.3762 58.4027 68.6896 58.1421C69.2947 57.9704 60.8527 53.3776 56.0986 48.7418Z" fill="#FF6F93"/>
</g>
<path d="M4.38022 6.24722C7.37671 10.8687 14.6518 6.24722 23.7998 4.73059C32.9477 3.21395 10.0562 2.29824 6.78603 3.2998C3.51582 4.30135 4.38022 6.24722 4.38022 6.24722Z" fill="#FFD1AC"/>
<path d="M28.4623 17.6016C21.9812 20.1298 19.4858 24.5542 18.548 32.5712C17.6102 40.5883 35.4795 50.8675 43.6689 43.9648C51.8583 37.0621 51.5066 26.4836 49.1285 20.6787C46.7504 14.8738 31.8955 16.2709 28.4623 17.6016Z" fill="url(#paint1_linear_733_38445)"/>
<g style="mix-blend-mode:multiply" opacity="0.6">
<path d="M45.3101 30.858C45.3101 32.9667 44.6806 35.0281 43.501 36.7814C42.3214 38.5347 40.6449 39.9012 38.6833 40.7082C36.7217 41.5152 34.5632 41.7263 32.4809 41.3149C30.3985 40.9035 28.4858 39.8881 26.9844 38.397C25.4831 36.9059 24.4607 35.0062 24.0465 32.9381C23.6323 30.8699 23.8449 28.7262 24.6574 26.778C25.4699 24.8298 26.8458 23.1647 28.6111 21.9931C30.3765 20.8216 32.452 20.1964 34.5752 20.1964C37.4223 20.1964 40.1527 21.3196 42.1659 23.3191C44.1791 25.3185 45.3101 28.0304 45.3101 30.858V30.858Z" fill="#046E1C"/>
</g>
<path d="M35.9652 40.3555C41.0615 40.3555 45.1929 36.1033 45.1929 30.8581C45.1929 25.6128 41.0615 21.3607 35.9652 21.3607C30.8689 21.3607 26.7375 25.6128 26.7375 30.8581C26.7375 36.1033 30.8689 40.3555 35.9652 40.3555Z" fill="#00A828"/>
<g style="mix-blend-mode:multiply" opacity="0.7">
<path d="M19.2682 36.1307C23.1231 40.7315 28.5952 43.7045 34.5752 44.4472C44.523 45.6115 48.5424 37.9936 49.6477 31.7729C50.1563 27.3764 49.5101 22.924 47.772 18.8491C48.6678 19.4902 49.3969 20.3341 49.8989 21.3108C50.2339 22.4418 51.1382 35.166 51.4564 38.6589C51.7746 42.1519 46.2815 47.3247 36.836 47.9068C27.3906 48.489 21.1774 39.79 19.2682 36.1307Z" fill="#045618"/>
</g>
<g style="mix-blend-mode:multiply" opacity="0.4">
<path d="M23.924 29.5441C24.4431 35.0662 23.2708 33.1534 27.7926 26.4005C32.3143 19.6475 43.3508 25.4856 44.3388 26.4005C45.3269 27.3153 40.9894 18.7826 33.1182 20.1964C25.247 21.6102 23.924 29.5441 23.924 29.5441Z" fill="#045618"/>
</g>
<g style="mix-blend-mode:screen" opacity="0.3">
<path d="M19.2682 34.8999C19.4091 35.485 19.666 36.0364 20.024 36.5217C20.382 37.007 20.8339 37.4165 21.3532 37.7263C21.8725 38.0361 22.4488 38.2399 23.0484 38.3257C23.648 38.4116 24.2588 38.3779 24.8451 38.2264C25.7159 37.9104 21.931 32.2884 24.3761 25.8681C26.8212 19.4478 32.7497 17.3188 39.884 20.1464C47.0184 22.974 47.0687 20.0133 46.4155 18.849C45.7624 17.6847 32.6995 14.1752 25.7829 18.849C18.8663 23.5229 18.816 32.8374 19.2682 34.8999Z" fill="#E6A409"/>
</g>
<g style="mix-blend-mode:screen" opacity="0.3">
<path d="M38.226 44.5138C36.2666 42.8505 43.8197 38.5425 46.3318 33.4362C48.8438 28.3299 48.4252 34.7502 46.9514 38.975C45.4776 43.1997 38.226 44.5138 38.226 44.5138Z" fill="#E6A409"/>
</g>
<path d="M36.5178 17.0028C34.4412 17.5018 38.5611 20.3294 41.7095 19.9136C44.858 19.4977 40.9391 16.0381 36.5178 17.0028Z" fill="#FFF9E5"/>
<path d="M38.3768 44.0146C37.4055 43.7984 40.4199 41.2702 41.274 41.553C42.1281 41.8357 40.6879 44.5469 38.3768 44.0146Z" fill="#FFF9E5"/>
<path style="mix-blend-mode:multiply" opacity="0.75" fill-rule="evenodd" clip-rule="evenodd" d="M34.9917 36.7163L41 26.234L38.0202 24.5L33.4921 32.3764L30.9895 28.0072L28 29.7412L32.0022 36.7163H34.9917Z" fill="url(#paint2_linear_733_38445)"/>
<g style="mix-blend-mode:screen" opacity="0.5">
<path fill-rule="evenodd" clip-rule="evenodd" d="M34.9917 36.7163H32.0022L28 29.7411V30.515L32.0022 37.5H34.9917L41 27.0079V26.2339L34.9917 36.7163Z" fill="#B4FFC6"/>
</g>
<g style="mix-blend-mode:multiply" opacity="0.5">
<path fill-rule="evenodd" clip-rule="evenodd" d="M30.9895 28.0072L28 29.7412L28.4674 30.5543L30.9895 29.0946L33.4921 33.4639L38.0202 25.5874L40.5326 27.0569L41 26.234L39.8899 25.5874L38.0202 24.5L37.3872 25.5874L33.4921 32.3764L30.9895 28.0072Z" fill="#0E091E"/>
</g>
<defs>
<linearGradient id="paint0_linear_733_38445" x1="39.9636" y1="60.002" x2="39.9636" y2="-0.00532365" gradientUnits="userSpaceOnUse">
<stop stop-color="#FFB070"/>
<stop offset="1" stop-color="#FFD1AC"/>
</linearGradient>
<linearGradient id="paint1_linear_733_38445" x1="34.5751" y1="46.177" x2="34.5751" y2="16.4373" gradientUnits="userSpaceOnUse">
<stop stop-color="#00A828"/>
<stop offset="1" stop-color="#00CF2F"/>
</linearGradient>
<linearGradient id="paint2_linear_733_38445" x1="34.5049" y1="36.7163" x2="34.5049" y2="24.5" gradientUnits="userSpaceOnUse">
<stop stop-color="#038322"/>
<stop offset="1" stop-color="#045518"/>
</linearGradient>
</defs>

</symbol></svg>