<svg width="150" height="24" viewBox="0 0 150 24" fill="none" xmlns="http://www.w3.org/2000/svg">
<g clip-path="url(#clip0_499_33259)">
<path d="M69.5486 12.3162C68.273 11.0953 66.6177 10.4713 64.5555 10.4713C62.4931 10.4713 60.8377 11.1224 59.5353 12.3976C58.2597 13.6727 57.6084 15.2734 57.6084 17.1996C57.6084 19.2344 58.2597 20.8622 59.5353 22.1102C60.8377 23.3311 62.4931 23.9551 64.5282 23.9551C66.5364 23.9551 68.1917 23.3311 69.4942 22.0559C70.1455 21.4319 70.661 20.6994 70.9868 19.8855C71.3124 19.0716 71.4753 18.1763 71.4753 17.1996C71.5024 15.1648 70.851 13.537 69.5486 12.3162ZM67.4319 20.1839C66.7264 20.9436 65.7766 21.3234 64.5282 21.3234C63.4428 21.3234 62.4388 20.9436 61.6788 20.1568C60.9191 19.3429 60.5935 18.3662 60.5935 17.1996C60.5935 16.0059 60.9735 15.002 61.7062 14.2424C62.4388 13.4828 63.3886 13.1029 64.5282 13.1029C65.6137 13.1029 66.5635 13.4828 67.3233 14.2424C68.0833 15.002 68.4359 15.9787 68.4359 17.1996C68.463 18.3933 68.1375 19.3971 67.4319 20.1839Z" fill="#656777"/>
<path d="M80.1855 16.3314H76.4948V13.3471H80.7553C80.9724 13.3471 81.1353 13.1843 81.1353 12.9673V11.0682C81.1353 10.8511 80.9724 10.6884 80.7553 10.6884H74.0255C73.8084 10.6884 73.6455 10.8511 73.6455 11.0682V23.3582C73.6455 23.5751 73.8084 23.738 74.0255 23.738H76.1151C76.3322 23.738 76.4948 23.5751 76.4948 23.3582V18.9902H80.1855C80.4026 18.9902 80.5653 18.8274 80.5653 18.6104V16.7113C80.5653 16.4942 80.3755 16.3314 80.1855 16.3314Z" fill="#656777"/>
<path d="M86.4002 13.3471V23.3853C86.4002 23.6024 86.5631 23.7651 86.7802 23.7651H88.8698C89.0869 23.7651 89.2496 23.6024 89.2496 23.3853V13.3471H92.8589C93.076 13.3471 93.2387 13.1843 93.2387 12.9673V11.0682C93.2387 10.8511 93.076 10.6884 92.8589 10.6884H82.8183C82.6011 10.6884 82.4385 10.8511 82.4385 11.0682V12.9673C82.4385 13.1843 82.6011 13.3471 82.8183 13.3471H86.4002Z" fill="#656777"/>
<path d="M98.2308 18.3662C98.8819 18.6646 99.3704 18.9902 99.7233 19.2886C100.049 19.587 100.239 19.8855 100.239 20.211C100.239 20.5637 100.103 20.835 99.8588 21.0521C99.6146 21.242 99.289 21.3505 98.8819 21.3505C98.3393 21.3505 97.8237 21.2149 97.281 20.9707C96.901 20.7808 96.5755 20.5637 96.3039 20.2924C96.1413 20.1297 95.897 20.1568 95.7613 20.3196L94.5944 21.7303C94.4859 21.866 94.4859 22.0288 94.5673 22.1644C94.8928 22.68 95.4086 23.0868 96.1141 23.4124C96.9553 23.7922 97.8508 23.9822 98.8006 23.9822C100.103 23.9822 101.134 23.6295 101.975 22.8968C102.681 22.3544 103.142 21.5676 103.224 20.6994C103.305 19.8041 103.169 19.0716 102.844 18.4476C102.573 17.9321 102.247 17.5523 101.867 17.281C101.46 16.9826 101.026 16.7384 100.564 16.4671C100.076 16.2229 99.6417 16.0059 99.2348 15.8431C98.8277 15.6532 98.475 15.4361 98.1764 15.1648C97.905 14.8935 97.7421 14.568 97.7421 14.1881C97.7421 13.8626 97.8779 13.5913 98.1221 13.4014C98.3935 13.2114 98.7464 13.1301 99.1533 13.1301C99.5875 13.1301 99.9404 13.1843 100.239 13.32C100.429 13.4014 100.619 13.537 100.836 13.6998C100.999 13.8354 101.243 13.8083 101.379 13.6184L102.464 12.0991C102.573 11.9363 102.545 11.7193 102.41 11.6108C101.541 10.8511 100.375 10.4713 98.8819 10.4713C97.6066 10.4713 96.6026 10.824 95.8426 11.5565C95.0828 12.289 94.703 13.1572 94.703 14.1881C94.703 14.6494 94.7573 15.0834 94.8928 15.4904C95.0557 15.8974 95.2457 16.25 95.4357 16.4942C95.6528 16.7655 95.9241 17.0368 96.2768 17.281C96.6297 17.5252 96.9281 17.7422 97.1995 17.8778C97.5253 18.0406 97.8508 18.2034 98.2308 18.3662Z" fill="#656777"/>
<path d="M110.986 23.4945L113.699 15.0299L116.44 23.4945C116.495 23.6574 116.63 23.7387 116.793 23.7387H118.991C119.154 23.7387 119.289 23.6303 119.344 23.4674L122.817 11.1774C122.872 10.9332 122.709 10.7162 122.465 10.7162H120.511C120.348 10.7162 120.185 10.8247 120.158 10.9875L117.906 19.3165L115.355 10.9875C115.301 10.8247 115.165 10.7162 115.002 10.7162H112.641C112.478 10.7162 112.343 10.8247 112.288 10.9875L109.819 19.3436L107.594 11.0146C107.539 10.8518 107.404 10.7433 107.241 10.7433H104.799C104.554 10.7433 104.365 10.9875 104.446 11.2045L108.082 23.4945C108.136 23.6574 108.272 23.7658 108.435 23.7658H110.633C110.796 23.7387 110.931 23.6303 110.986 23.4945Z" fill="#656777"/>
<path d="M125.314 23.738H127.403C127.62 23.738 127.783 23.5751 127.783 23.3582V11.0682C127.783 10.8511 127.62 10.6884 127.403 10.6884H125.314C125.096 10.6884 124.934 10.8511 124.934 11.0682V23.3582C124.961 23.5751 125.124 23.738 125.314 23.738Z" fill="#656777"/>
<path d="M133.971 18.366C134.622 18.6645 135.11 18.99 135.463 19.2885C135.789 19.5869 135.979 19.8853 135.979 20.2109C135.979 20.5636 135.843 20.8349 135.599 21.0519C135.355 21.2418 135.029 21.3504 134.622 21.3504C134.079 21.3504 133.563 21.2147 133.021 20.9705C132.641 20.7806 132.315 20.5636 132.044 20.2923C131.881 20.1295 131.637 20.1566 131.501 20.3194L130.334 21.7302C130.226 21.8658 130.226 22.0286 130.307 22.1643C130.633 22.6798 131.148 23.0867 131.854 23.4122C132.695 23.792 133.591 23.982 134.54 23.982C135.843 23.982 136.874 23.6294 137.715 22.8967L137.851 22.7882C138.557 22.11 138.991 21.1876 138.991 20.238C138.991 19.5598 138.855 18.9629 138.584 18.4746C138.312 17.9591 137.987 17.5793 137.607 17.308C137.2 17.0095 136.765 16.7654 136.304 16.494C135.816 16.2499 135.382 16.0328 134.975 15.8701C134.567 15.6802 134.215 15.4631 133.916 15.1918C133.645 14.9205 133.482 14.5949 133.482 14.2151C133.482 13.8896 133.618 13.6182 133.862 13.4283C134.133 13.2384 134.486 13.157 134.893 13.157C135.327 13.157 135.68 13.2113 135.979 13.347C136.169 13.4283 136.359 13.564 136.576 13.7268C136.738 13.8624 136.983 13.8353 137.118 13.6454L138.204 12.1261C138.312 11.9633 138.285 11.7463 138.149 11.6378C137.281 10.8781 136.114 10.4983 134.622 10.4983C133.346 10.4983 132.342 10.851 131.583 11.5835C130.823 12.316 130.443 13.1842 130.443 14.2151C130.443 14.6763 130.497 15.1104 130.633 15.5174C130.795 15.9243 130.985 16.277 131.175 16.5212C131.393 16.7925 131.664 17.0638 132.017 17.308C132.369 17.5521 132.668 17.7692 132.939 17.9048C133.265 18.0405 133.591 18.2033 133.971 18.366Z" fill="#656777"/>
<path d="M144.011 18.366C144.663 18.6645 145.151 18.99 145.504 19.2885C145.83 19.5869 146.02 19.8853 146.02 20.2109C146.02 20.5636 145.884 20.8349 145.64 21.0519C145.395 21.2418 145.07 21.3504 144.663 21.3504C144.12 21.3504 143.604 21.2147 143.062 20.9705C142.682 20.7806 142.356 20.5636 142.085 20.2923C141.922 20.1295 141.678 20.1566 141.542 20.3194L140.375 21.7302C140.267 21.8658 140.267 22.0286 140.348 22.1643C140.674 22.6798 141.189 23.0867 141.895 23.4122C142.736 23.792 143.632 23.982 144.581 23.982C145.884 23.982 146.915 23.6294 147.756 22.8967L147.892 22.7882C148.598 22.11 149.032 21.1876 149.032 20.238C149.032 19.5598 148.896 18.9629 148.625 18.4746C148.353 17.9591 148.028 17.5793 147.648 17.308C147.241 17.0095 146.806 16.7654 146.345 16.494C145.857 16.2499 145.422 16.0328 145.016 15.8701C144.608 15.6802 144.256 15.4631 143.957 15.1918C143.686 14.9205 143.523 14.5949 143.523 14.2151C143.523 13.8896 143.659 13.6182 143.903 13.4283C144.174 13.2384 144.527 13.157 144.934 13.157C145.368 13.157 145.721 13.2113 146.02 13.347C146.21 13.4283 146.399 13.564 146.616 13.7268C146.779 13.8624 147.024 13.8353 147.159 13.6454L148.245 12.1261C148.353 11.9633 148.326 11.7463 148.19 11.6378C147.322 10.8781 146.155 10.4983 144.663 10.4983C143.387 10.4983 142.383 10.851 141.623 11.5835C140.864 12.316 140.484 13.1842 140.484 14.2151C140.484 14.6763 140.538 15.1104 140.674 15.5174C140.836 15.9243 141.026 16.277 141.216 16.5212C141.434 16.7925 141.705 17.0638 142.058 17.308C142.41 17.5521 142.709 17.7692 142.98 17.9048C143.279 18.0405 143.632 18.2033 144.011 18.366Z" fill="#656777"/>
<path d="M50.8783 18.3665C51.5294 18.6649 52.0178 18.9905 52.3707 19.2889C52.6963 19.5873 52.8863 19.8858 52.8863 20.2113C52.8863 20.564 52.7507 20.8353 52.5063 21.0524C52.262 21.2423 51.9365 21.3508 51.5294 21.3508C50.9867 21.3508 50.4712 21.2151 49.9285 20.971C49.5485 20.7811 49.2229 20.564 48.9516 20.2927C48.7887 20.1299 48.5445 20.1571 48.4087 20.3199L47.2418 21.7306C47.1334 21.8663 47.1334 22.0291 47.2147 22.1647C47.5405 22.6802 48.056 23.0871 48.7616 23.4127C49.6027 23.7925 50.4983 23.9825 51.448 23.9825C52.7505 23.9825 53.7818 23.6298 54.6229 22.8971L54.7316 22.7887C55.4372 22.1104 55.8714 21.188 55.8985 20.2113C55.8985 19.5331 55.7627 18.9362 55.4914 18.4207C55.22 17.9053 54.8945 17.5254 54.5145 17.2541C54.1074 16.9557 53.6732 16.7115 53.2118 16.4402C52.7234 16.1961 52.2894 15.979 51.8823 15.8162C51.4752 15.6263 51.1225 15.4093 50.8238 15.138C50.5525 14.8667 50.3898 14.5411 50.3898 14.1613C50.3898 13.8357 50.5254 13.5644 50.7696 13.3745C51.0409 13.1846 51.3938 13.1032 51.8009 13.1032C52.2349 13.1032 52.5878 13.1575 52.8863 13.2931C53.0763 13.3745 53.2663 13.5102 53.4834 13.6729C53.646 13.8086 53.8903 13.7815 54.026 13.5916L55.1114 12.0723C55.22 11.9095 55.1929 11.6925 55.0572 11.5839C54.1889 10.8243 53.022 10.4445 51.5294 10.4445C50.254 10.4445 49.25 10.7971 48.49 11.5297C47.7303 12.2622 47.3505 13.1303 47.3505 14.1613C47.3505 14.6225 47.4047 15.0566 47.5403 15.4635C47.7032 15.8705 47.8932 16.2232 48.0832 16.4674C48.3003 16.7387 48.5716 17.01 48.9243 17.2541C49.2772 17.4983 49.5756 17.7153 49.8469 17.851C50.1727 18.0409 50.4983 18.2037 50.8783 18.3665Z" fill="#656777"/>
<path d="M18.1752 14.9313C17.3977 14.1548 16.9534 13.1342 16.909 12.0249L12.7994 16.1293L8.5344 11.8696L12.7994 7.60984L14.0656 8.87447C14.3766 9.18507 14.7987 9.36256 15.2429 9.36256C15.6872 9.36256 16.1093 9.18507 16.4203 8.87447L18.2196 7.07738C18.8638 6.43398 18.8638 5.36904 18.2196 4.72564L13.9768 0.488096C13.6658 0.177489 13.2437 0 12.7994 0C12.3552 0 11.9331 0.177489 11.6221 0.488096L1.38159 10.7159C0.737388 11.3593 0.737388 12.4242 1.38159 13.0676L11.6221 23.2956C11.9331 23.606 12.3552 23.7836 12.7994 23.7836C13.2437 23.7836 13.6658 23.606 13.9768 23.2956L21.0852 16.1959C19.9745 16.1515 18.9526 15.7078 18.1752 14.9313Z" fill="#656777"/>
<path d="M41.0781 13.0676L30.8377 23.2954C30.5266 23.606 30.1046 23.7834 29.6603 23.7834C29.2161 23.7834 28.7939 23.606 28.483 23.2954L24.2401 19.0578C23.5959 18.4144 23.5959 17.3495 24.2401 16.7061L26.0394 14.909C26.3506 14.5984 26.7726 14.4209 27.2168 14.4209C27.661 14.4209 28.0832 14.5984 28.3941 14.909L29.5937 16.107L29.6603 16.1736L33.9254 11.9139L29.6603 7.65413L23.3072 13.9994C23.285 14.0216 23.2628 14.0437 23.2183 14.0659C22.6852 14.5762 21.9743 14.8646 21.2191 14.8646C20.4416 14.8646 19.6863 14.554 19.131 13.9994C18.5756 13.4447 18.2646 12.7126 18.2646 11.9139C18.2646 11.1596 18.5312 10.4496 19.0643 9.91713C19.0865 9.89493 19.1088 9.87275 19.131 9.85057L19.1532 9.82837L19.1976 9.8062L28.483 0.532405C28.7939 0.2218 29.2161 0.0443115 29.6603 0.0443115C30.1046 0.0443115 30.5266 0.2218 30.8377 0.532405L41.0781 10.7602C41.7223 11.3592 41.7223 12.402 41.0781 13.0676Z" fill="#656777"/>
<path d="M49.9406 4.3646V6.55614H48.4443V0.110457C48.731 0.110457 49.0459 0.107388 49.3888 0.101249C49.7379 0.0951108 50.0901 0.092041 50.4454 0.092041C51.3681 0.092041 52.0414 0.294621 52.4652 0.699776C52.883 1.09266 53.0919 1.60217 53.0919 2.22832C53.0919 2.82992 52.8706 3.34249 52.4279 3.76607C51.9852 4.18352 51.3992 4.39223 50.6699 4.39223C50.3457 4.39223 50.1026 4.38303 49.9406 4.3646ZM50.595 1.47326C50.5888 1.47326 50.5608 1.47632 50.511 1.48246C50.461 1.48246 50.3832 1.48553 50.2772 1.49167C50.1712 1.49167 50.059 1.49167 49.9406 1.49167V2.96496C50.2023 2.99567 50.4299 3.011 50.6232 3.011C50.8788 3.011 51.0877 2.94656 51.2497 2.81765C51.4179 2.68258 51.5021 2.48307 51.5021 2.21911C51.5021 1.72188 51.1999 1.47326 50.595 1.47326Z" fill="#656777"/>
<path d="M53.8516 3.33333C53.8516 2.38182 54.1727 1.58993 54.8147 0.957642C55.4631 0.319213 56.3016 0 57.3302 0C58.3527 0 59.1849 0.303867 59.8269 0.911602C60.4816 1.51934 60.8089 2.32658 60.8089 3.33333C60.8089 4.30324 60.4785 5.10129 59.8176 5.72744C59.1631 6.3536 58.3338 6.66667 57.3302 6.66667C56.314 6.66667 55.4787 6.3628 54.824 5.75507C54.1758 5.14733 53.8516 4.34009 53.8516 3.33333ZM55.4413 3.33333C55.4413 3.87969 55.6251 4.34315 55.9929 4.72375C56.3547 5.09822 56.8002 5.28544 57.3302 5.28544C57.9287 5.28544 58.3931 5.10435 58.7236 4.74218C59.054 4.36771 59.2191 3.89809 59.2191 3.33333C59.2191 2.75015 59.0382 2.28053 58.6767 1.92449C58.3089 1.56231 57.86 1.38122 57.3302 1.38122C56.7816 1.38122 56.3296 1.56231 55.9742 1.92449C55.6189 2.28669 55.4413 2.75629 55.4413 3.33333Z" fill="#656777"/>
<path d="M69.0532 0.110229H70.4932L68.6512 6.55592H67.2203L65.8552 2.41228L64.5085 6.55592H63.0779L61.1421 0.110229H62.8348L63.9381 4.18023L65.1632 0.110229H66.6688L67.931 4.18023L69.0532 0.110229Z" fill="#656777"/>
<path d="M75.4308 6.55592H71.4565V0.110229H75.3372V1.49145H72.9525V2.62405H75.0565V4.00528H72.9525V5.1747H75.4308V6.55592Z" fill="#656777"/>
<path d="M78.4528 4.30014V6.55614H76.9565V0.110457C77.3119 0.110457 77.7045 0.107388 78.1348 0.101249C78.565 0.0951108 78.9141 0.092041 79.1821 0.092041C80.7968 0.092041 81.6041 0.779581 81.6041 2.15466C81.6041 3.03863 81.2363 3.65865 80.5005 4.01469L82.4083 6.55614H80.5941L79.0043 4.30014H78.4528ZM79.1072 1.47326C79.101 1.47326 79.073 1.47632 79.0232 1.48246C78.9732 1.48246 78.8952 1.48553 78.7894 1.49167C78.6834 1.49167 78.5712 1.49167 78.4528 1.49167V2.91894H78.995C79.6745 2.91894 80.0143 2.67032 80.0143 2.17307C80.0143 1.70653 79.7119 1.47326 79.1072 1.47326Z" fill="#656777"/>
<path d="M87.3438 6.55592H83.3696V0.110229H87.2503V1.49145H84.8656V2.62405H86.9696V4.00528H84.8656V5.1747H87.3438V6.55592Z" fill="#656777"/>
<path d="M89.0295 6.55583H88.8706V0.110144H89.0015C89.2819 0.110144 89.5937 0.107074 89.9366 0.100936C90.0675 0.100936 90.2108 0.100936 90.3668 0.100936C90.5288 0.0947971 90.6535 0.0917275 90.7408 0.0917275C90.8282 0.0855889 90.8935 0.0825195 90.9371 0.0825195C92.1653 0.0825195 93.0848 0.383319 93.6957 0.984914C94.3066 1.58651 94.6122 2.35079 94.6122 3.27774C94.6122 4.22923 94.2848 5.01808 93.6304 5.64423C92.9819 6.26423 92.0593 6.57423 90.8624 6.57423C90.6193 6.57423 90.3479 6.57116 90.0488 6.56503C89.7495 6.5589 89.4097 6.55583 89.0295 6.55583ZM90.9184 1.46374C90.6753 1.46374 90.4915 1.47294 90.3668 1.49136V5.17461C90.5413 5.18688 90.7222 5.19303 90.9091 5.19303C91.5699 5.19303 92.0873 5.02421 92.4615 4.68659C92.8355 4.34894 93.0224 3.87934 93.0224 3.27774C93.0224 2.70683 92.8324 2.26179 92.4519 1.94256C92.0717 1.62334 91.5606 1.46374 90.9184 1.46374Z" fill="#656777"/>
<path d="M97.9443 6.53781V0.128979C98.6737 0.0921467 99.3343 0.0737305 99.9268 0.0737305C100.65 0.0737305 101.195 0.217991 101.563 0.506512C101.937 0.788892 102.124 1.1787 102.124 1.67594C102.124 2.30821 101.875 2.78703 101.376 3.11239V3.13081C101.657 3.23517 101.881 3.41319 102.049 3.66488C102.224 3.91657 102.311 4.22963 102.311 4.6041C102.311 5.24868 102.081 5.74283 101.619 6.08661C101.164 6.42423 100.566 6.59306 99.8239 6.59306C98.9572 6.59306 98.3308 6.57463 97.9443 6.53781ZM100.02 3.95032H99.4403V5.15659C99.5777 5.19343 99.7459 5.21183 99.9454 5.21183C100.525 5.21183 100.815 4.9847 100.815 4.53043C100.815 4.1437 100.55 3.95032 100.02 3.95032ZM99.9079 1.45495C99.7957 1.45495 99.6399 1.46722 99.4403 1.49178V2.66119H99.9361C100.397 2.66119 100.628 2.45248 100.628 2.03506C100.628 1.85703 100.559 1.71584 100.422 1.61148C100.285 1.50713 100.114 1.45495 99.9079 1.45495Z" fill="#656777"/>
<path d="M107.493 0.110229H109.111L106.792 3.93161V6.55592H105.295V3.93161L102.995 0.110229H104.706L106.109 2.55039L107.493 0.110229Z" fill="#656777"/>
</g>
<defs>
<clipPath id="clip0_499_33259">
<rect width="148.222" height="24" fill="white" transform="translate(0.888672)"/>
</clipPath>
</defs>
</svg>
