<svg width="80" height="24" viewBox="0 0 80 24" fill="none" xmlns="http://www.w3.org/2000/svg">
<path d="M30.3202 0.0362765C31.5355 0.0362765 32.4787 0.290218 33.1861 0.798096C33.8753 1.30597 34.22 2.08593 34.2381 3.11982C34.2381 3.6277 34.1293 4.13558 33.8935 4.58904C33.694 5.00623 33.3493 5.35086 32.9321 5.55039V5.62294C33.4037 5.8406 33.8028 6.18523 34.093 6.6387C34.2744 6.91077 34.4014 7.20099 34.4921 7.50935C34.6009 7.87212 34.6553 8.27116 34.6372 8.65207C34.6553 9.2325 34.5283 9.7948 34.2925 10.3027C34.0749 10.7743 33.7302 11.1733 33.3312 11.4817C32.914 11.8082 32.4424 12.044 31.9345 12.1891C31.4085 12.3523 30.8462 12.4249 30.3021 12.4249H23.6634V0H30.3202V0.0362765ZM26.8557 4.60718H29.776C30.1388 4.64346 30.4834 4.53463 30.7555 4.29883C30.9369 4.0993 31.0457 3.82723 31.0276 3.55515C31.0276 3.30121 30.9369 3.04727 30.7555 2.84775C30.4834 2.61195 30.1207 2.50311 29.776 2.53939H26.8557V4.60718ZM26.8557 9.93991H29.8123C30.2658 9.97618 30.7192 9.84921 31.0639 9.559C31.3178 9.28692 31.4448 8.94229 31.4266 8.56138C31.4629 8.14419 31.2997 7.74514 30.9913 7.47307C30.6467 7.21913 30.2295 7.09216 29.8123 7.1103H26.8557V9.93991Z" fill="white"/>
<path d="M37.6663 12.4612H34.2926L38.6821 0.0544244H41.947L46.4454 12.4612H42.8902L42.2916 10.3027H38.283L37.6663 12.4612ZM40.2964 3.30122H40.2238L38.936 7.9084H41.5661L40.2964 3.30122Z" fill="white"/>
<path d="M50.1819 5.11507H50.1094V12.4612H46.917V0.0362903H50.454L54.6803 6.9652H54.7528V0.0362903H57.9452V12.4612H54.7347L50.1819 5.11507Z" fill="white"/>
<path d="M62.3891 0.0362903V4.38953L66.4703 0.0362903H70.6784L65.6722 4.77044L70.9686 12.4612H66.96L63.296 6.94706L62.371 7.83585V12.4612H59.1786V0.0362903H62.3891Z" fill="white"/>
<path d="M16.5712 14.3657V16.4516H14.3946V23.7615H12.091V16.4516H9.91441V14.3657H16.5712Z" fill="white"/>
<path d="M22.1035 14.3657C22.4299 14.3657 22.7746 14.4383 23.0648 14.5652C23.355 14.6922 23.6271 14.8917 23.8266 15.1457C24.0443 15.3996 24.2075 15.6898 24.3164 16.0163C24.4433 16.361 24.4977 16.7237 24.4977 17.0865C24.5159 17.6306 24.3708 18.1567 24.0987 18.6283C23.8266 19.0636 23.4457 19.3901 22.9922 19.6077L24.6973 23.7615H22.2486L20.8338 19.9342H18.9836V23.7615H16.68V14.3657H22.1035ZM21.4142 17.9753C21.6319 17.9934 21.8495 17.9027 21.9765 17.7213C22.1035 17.5581 22.1579 17.3586 22.1579 17.159C22.1579 17.0684 22.1397 16.9595 22.1216 16.8688C22.1035 16.7781 22.049 16.6874 21.9946 16.5968C21.9402 16.5242 21.8495 16.4516 21.7588 16.3972C21.65 16.3428 21.5412 16.3065 21.4142 16.3247H19.0018V17.9753H21.4142Z" fill="white"/>
<path d="M26.5293 23.7615H24.0987L27.2548 14.3657H29.6128L32.8415 23.7615H30.2839L29.8486 22.129H26.9646L26.5293 23.7615ZM28.4338 16.8326H28.3975L27.4725 20.3151H29.3589L28.4338 16.8326Z" fill="white"/>
<path d="M35.1995 18.2111H35.1451V23.7615H32.8415L32.8415 14.3657H35.3809L38.4281 19.6077H38.4825V14.3657H40.7861V23.7615H38.4644L35.1995 18.2111Z" fill="white"/>
<path d="M44.7222 23.9973C44.2143 24.0154 43.7064 23.9428 43.2167 23.7977C42.8176 23.6708 42.4549 23.4894 42.1284 23.2536C41.8382 23.0178 41.5842 22.7457 41.4028 22.4011C41.2214 22.0564 41.0763 21.6937 40.9856 21.3309L43.1804 20.4421C43.1985 20.9137 43.3799 21.349 43.7064 21.6755C44.0511 21.9657 44.4864 22.1109 44.9217 22.0927C45.0487 22.0927 45.1756 22.0746 45.3026 22.0564C45.4296 22.0383 45.5384 22.002 45.6472 21.9295C45.7561 21.8751 45.8286 21.7844 45.9012 21.6755C45.9737 21.5667 46.01 21.4216 46.01 21.2946C46.01 21.1677 45.9919 21.0407 45.9556 20.9137C45.9012 20.7867 45.8286 20.6779 45.7379 20.6054C45.611 20.4965 45.4659 20.4058 45.3026 20.3333C45.0668 20.2244 44.831 20.1519 44.5952 20.0793C44.0873 19.9342 43.5976 19.7528 43.126 19.5533C42.7451 19.3901 42.4004 19.1724 42.074 18.9003C41.8019 18.6645 41.5842 18.3743 41.4391 18.0478C41.294 17.6851 41.2214 17.3041 41.2214 16.9232C41.2214 16.5061 41.3121 16.0889 41.4935 15.7261C41.6749 15.3815 41.9288 15.0731 42.2553 14.8373C42.6 14.5834 42.9809 14.402 43.3981 14.2932C43.8697 14.1662 44.3594 14.1118 44.8492 14.1118C45.2845 14.1118 45.7379 14.148 46.1551 14.2569C46.4998 14.3476 46.8262 14.4927 47.1165 14.6922C47.3885 14.8736 47.6243 15.1094 47.8057 15.3815C48.0052 15.6898 48.1504 15.9982 48.2773 16.3428L46.3002 17.2135C46.2277 16.8507 46.0463 16.5242 45.7924 16.2703C45.2482 15.9075 44.5589 15.8893 43.9966 16.2158C43.8334 16.3428 43.7427 16.5242 43.7246 16.7237C43.7246 16.8507 43.7427 16.9595 43.7971 17.0683C43.8515 17.1772 43.9422 17.286 44.0511 17.3586C44.1962 17.4674 44.3594 17.5581 44.5408 17.6125C44.8129 17.7213 45.0668 17.7939 45.3389 17.8664C45.7742 17.9934 46.2095 18.1204 46.5904 18.2473C46.9532 18.3743 47.2978 18.5557 47.6062 18.7915C47.8964 19.0273 48.1322 19.3175 48.2955 19.644C48.4769 20.0612 48.5675 20.5328 48.5494 20.9863C48.5675 21.4397 48.4587 21.8751 48.2592 22.2922C48.0597 22.655 47.7876 22.9815 47.443 23.2173C47.0802 23.4712 46.663 23.6708 46.2277 23.7796C45.7198 23.9428 45.2119 24.0154 44.7222 23.9973Z" fill="white"/>
<path d="M51.0163 17.8483H54.5895V19.9342H51.0163V23.7615H48.7127V14.3657H55.6779V16.4516H51.0163V17.8483Z" fill="white"/>
<path d="M55.8592 14.3657H62.8244V16.4516H58.1628V17.7213H62.244V19.8073H58.1628V21.6937H62.9514V23.7796H55.8592V14.3657Z" fill="white"/>
<path d="M68.538 14.3657C68.8645 14.3657 69.2092 14.4383 69.4994 14.5652C69.7896 14.6922 70.0617 14.8917 70.2612 15.1457C70.4789 15.3996 70.6421 15.6898 70.7509 16.0163C70.8779 16.361 70.9323 16.7237 70.9323 17.0865C70.9505 17.6306 70.8054 18.1567 70.5333 18.6283C70.2612 19.0636 69.8803 19.3901 69.4268 19.6077L71.1319 23.7615H68.6832L67.2683 19.9342H65.4182V23.7615H63.1146V14.3657H68.538ZM67.8488 17.9753C68.0664 17.9934 68.2841 17.9027 68.4111 17.7213C68.538 17.5581 68.5925 17.3586 68.5925 17.159C68.5925 17.0684 68.5743 16.9595 68.5562 16.8688C68.538 16.7781 68.4836 16.6874 68.4292 16.5968C68.3748 16.5242 68.2841 16.4516 68.1934 16.3972C68.0846 16.3428 67.9757 16.3065 67.8488 16.3247H65.4364V17.9753H67.8488Z" fill="white"/>
<path d="M22.43 0.0362903H9.85999V2.55754H22.43V0.0362903Z" fill="white"/>
<path d="M22.43 4.77044H9.85999V7.29169H22.43V4.77044Z" fill="white"/>
<path d="M22.43 9.95805H9.85999V12.4793H22.43V9.95805Z" fill="white"/>
</svg>
