<svg width="80" height="24" viewBox="0 0 80 24" fill="none" xmlns="http://www.w3.org/2000/svg">
<g clip-path="url(#clip0_1908_993)">
<path d="M8.30979 9.30175L7.8538 11.1315C7.89773 11.1424 7.94943 11.1561 8.00743 11.1716C8.63223 11.3378 9.98781 11.6984 10.224 10.7512C10.4647 9.78751 9.16375 9.49533 8.51291 9.34915C8.43448 9.33154 8.3655 9.31605 8.30979 9.30175Z" fill="#F7931A"/>
<path d="M7.62387 12.0541L7.12035 14.0721C7.17148 14.0848 7.23139 14.1006 7.29844 14.1184C8.04579 14.3158 9.6807 14.7477 9.94065 13.7035C10.2068 12.6363 8.62231 12.2801 7.84911 12.1064C7.76271 12.0869 7.68629 12.0698 7.62387 12.0541Z" fill="#F7931A"/>
<path fill-rule="evenodd" clip-rule="evenodd" d="M5.52911 4.09748C7.08365 3.53931 8.7688 3.45464 10.3715 3.85419C11.4356 4.11949 12.4371 4.5918 13.3188 5.24416C14.2004 5.89651 14.9449 6.71614 15.5098 7.65623C16.0746 8.59632 16.4488 9.63846 16.6109 10.7232C16.773 11.8079 16.7198 12.9139 16.4545 13.978C16.0549 15.5807 15.189 17.0288 13.9663 18.1394C12.7437 19.2499 11.2192 19.9729 9.58562 20.2171C7.95204 20.4612 6.28276 20.2154 4.78886 19.5108C3.29497 18.8063 2.04355 17.6745 1.19285 16.2587C0.342149 14.8429 -0.069617 13.2067 0.00961723 11.5569C0.0888524 9.90704 0.655528 8.31777 1.63799 6.99002C2.62045 5.66226 3.97457 4.65565 5.52911 4.09748ZM10.8653 12.1133C11.4639 11.9746 11.915 11.5807 12.0353 10.7677C12.2012 9.65587 11.3552 9.05823 10.1978 8.65852L10.5684 7.14989L9.65256 6.9219L9.28681 8.38784C9.04297 8.32834 8.79816 8.27077 8.55238 8.21515L8.92105 6.73951L8.00423 6.51151L7.62974 8.01626C7.47097 7.98292 7.3122 7.94373 7.15344 7.90455C7.11817 7.89584 7.0829 7.88714 7.04764 7.8785L5.7864 7.56319L5.54192 8.5421C5.54192 8.5421 6.22201 8.6983 6.20746 8.70703C6.57904 8.80017 6.64598 9.04659 6.63531 9.24063L6.20552 10.952C6.23856 10.9596 6.27099 10.9697 6.30254 10.9821L6.20552 10.9578L5.60692 13.361C5.59369 13.403 5.57228 13.442 5.54391 13.4757C5.51555 13.5094 5.48079 13.5371 5.44165 13.5573C5.40251 13.5775 5.35975 13.5898 5.31585 13.5934C5.27195 13.597 5.22777 13.5919 5.18586 13.5783C5.19944 13.5919 4.52032 13.4124 4.52032 13.4124L4.0653 14.4602L5.25765 14.7571C5.4043 14.7936 5.54883 14.8313 5.69181 14.8687C5.76544 14.8879 5.83867 14.9071 5.91155 14.9259L5.53221 16.4481L6.44709 16.6771L6.82255 15.1704C7.07286 15.2431 7.3154 15.3052 7.5531 15.3644L7.17861 16.8643L8.09543 17.0923L8.47477 15.573C10.0377 15.8679 11.2126 15.7486 11.7074 14.336C12.1052 13.198 11.687 12.5412 10.8653 12.1133Z" fill="#F7931A"/>
<path d="M24.4798 8.65852C25.0841 8.64397 25.6839 8.7667 26.2339 9.01749C26.7111 9.24476 27.1312 9.57631 27.4631 9.98767C27.7952 10.4147 28.0392 10.9034 28.181 11.4255C28.3389 12.0039 28.4166 12.6013 28.4119 13.2009C28.4172 15.0714 27.6978 16.8711 26.4046 18.2226C25.7773 18.8675 25.0303 19.3839 24.2052 19.7428C23.3394 20.121 22.4034 20.3121 21.4586 20.3036C21.3316 20.3036 21.1074 20.3036 20.7912 20.2929C20.4274 20.2809 20.0647 20.2485 19.7046 20.1959C19.2668 20.1329 18.8325 20.0474 18.4036 19.9398C17.9547 19.8317 17.5185 19.6763 17.1025 19.476L20.7601 4.10741L24.0364 3.60001L22.7267 9.05338C22.9993 8.93184 23.2821 8.83444 23.5717 8.76233C23.869 8.69093 24.174 8.65607 24.4798 8.65852ZM21.7322 17.7074C22.2202 17.7078 22.7002 17.5843 23.1274 17.3484C23.5664 17.1081 23.9516 16.7806 24.2596 16.386C24.5815 15.9748 24.8348 15.5141 25.0095 15.0219C25.1927 14.5132 25.286 13.9764 25.285 13.4357C25.285 12.7566 25.1715 12.2317 24.9464 11.8504C24.7214 11.4691 24.3022 11.278 23.6969 11.278C23.4375 11.2878 23.1797 11.3235 22.9275 11.3847C22.6084 11.4579 22.3132 11.6111 22.0699 11.83L20.6747 17.621C20.7591 17.6366 20.8339 17.6501 20.8969 17.6637C20.9625 17.6783 21.0289 17.6887 21.0958 17.6948C21.1805 17.704 21.2657 17.7082 21.351 17.7074H21.7322ZM31.8076 20.0096H28.6787L31.3205 8.89137H34.4726L31.8076 20.0096ZM33.3298 7.53602C32.9033 7.54026 32.4873 7.40387 32.1461 7.14795C31.792 6.88891 31.6164 6.49017 31.6164 5.95269C31.6147 5.66523 31.6756 5.38084 31.7949 5.11931C31.9102 4.86507 32.0721 4.63471 32.2723 4.44018C32.4722 4.24913 32.7044 4.09507 32.9582 3.98517C33.2224 3.87346 33.5067 3.817 33.7935 3.81927C34.22 3.81503 34.636 3.95142 34.9771 4.20734C35.3283 4.46605 35.5043 4.86415 35.5049 5.40163C35.5065 5.69022 35.4449 5.97566 35.3245 6.23792C35.2108 6.49233 35.0498 6.7228 34.85 6.91705C34.6502 7.10836 34.4175 7.26216 34.1632 7.37109C33.8998 7.48474 33.6156 7.54191 33.3288 7.53893L33.3298 7.53602ZM37.2105 6.12053L40.4878 5.61604L39.6825 8.8933H43.1926L42.561 11.472H39.0732L38.1438 15.3605C38.063 15.6576 38.0136 15.9622 37.9963 16.2696C37.9753 16.5185 38.0112 16.769 38.1011 17.0021C38.1885 17.211 38.3503 17.3801 38.5552 17.4765C38.7734 17.59 39.0858 17.6472 39.4953 17.6472C39.8259 17.6477 40.1558 17.6152 40.48 17.5502C40.8061 17.4856 41.1271 17.3974 41.4405 17.2863L41.6743 19.6972C41.2251 19.8592 40.7663 19.9931 40.3005 20.0979C39.7241 20.218 39.1361 20.2737 38.5474 20.2638C37.5772 20.2638 36.8231 20.1202 36.2849 19.833C35.7815 19.5788 35.3783 19.1626 35.1401 18.6514C34.9097 18.108 34.81 17.5182 34.8491 16.9293C34.8818 16.2381 34.9793 15.5514 35.1401 14.8783L37.2134 6.12732L37.2105 6.12053ZM43.0548 15.5701C43.0488 14.6475 43.2061 13.731 43.5196 12.8633C43.8151 12.044 44.2683 11.2905 44.8536 10.6454C45.4431 10.0037 46.1601 9.49212 46.9589 9.14361C47.8288 8.76781 48.7685 8.58034 49.7161 8.59352C50.2885 8.58661 50.8596 8.64718 51.4178 8.77397C51.8882 8.88404 52.3458 9.04338 52.7828 9.24936L51.704 11.7049C51.4155 11.5898 51.1229 11.4876 50.826 11.3983C50.4652 11.2978 50.0915 11.251 49.7171 11.2596C48.6722 11.2596 47.8466 11.6205 47.2324 12.3374C46.6183 13.0544 46.3088 14.0226 46.3088 15.2344C46.3088 15.953 46.4644 16.5351 46.7755 16.9807C47.085 17.4251 47.6574 17.6463 48.4869 17.6463C48.8852 17.6472 49.2823 17.6049 49.6715 17.5201C50.0187 17.4457 50.3584 17.3395 50.6863 17.2029L50.923 19.7186C50.4951 19.8824 50.0577 20.0204 49.6133 20.1319C49.0512 20.2589 48.4761 20.3189 47.8999 20.3104C47.0261 20.3104 46.2862 20.1836 45.6802 19.9301C45.1115 19.7015 44.5996 19.3515 44.1803 18.9046C43.7828 18.4718 43.4898 17.9537 43.3236 17.3901C43.1455 16.8009 43.0559 16.1885 43.0578 15.573L43.0548 15.5701ZM56.9536 20.3046C56.291 20.3181 55.632 20.2027 55.0133 19.965C54.4909 19.7589 54.0241 19.4332 53.6502 19.0142C53.2834 18.592 53.0064 18.0995 52.8362 17.5667C52.6476 16.9707 52.5555 16.3484 52.5636 15.7234C52.5655 14.861 52.704 14.0044 52.974 13.1854C53.2386 12.3573 53.6507 11.5839 54.1906 10.9025C54.7276 10.2234 55.3949 9.65836 56.1532 9.24063C56.9294 8.81181 57.8161 8.59643 58.8154 8.59643C59.478 8.58342 60.1368 8.69839 60.7558 8.93502C61.2791 9.14138 61.7472 9.46692 62.1228 9.8858C62.4888 10.3086 62.7651 10.8014 62.9348 11.3343C63.1249 11.932 63.2176 12.5563 63.2094 13.1834C63.2064 14.0449 63.0716 14.9008 62.8097 15.7214C62.5523 16.5459 62.1513 17.3184 61.6251 18.0033C61.0962 18.6865 60.4303 19.2516 59.6701 19.6623C58.8895 20.0924 57.984 20.3075 56.9536 20.3075V20.3046ZM58.5176 11.2576C58.076 11.2504 57.6446 11.3911 57.2922 11.6573C56.9331 11.9348 56.6319 12.2799 56.4055 12.6731C56.1617 13.0924 55.9797 13.5446 55.8651 14.0159C55.7498 14.4681 55.6898 14.9326 55.6866 15.3993C55.6866 16.1056 55.7991 16.6554 56.0242 17.0486C56.2503 17.4416 56.6577 17.6395 57.2505 17.6395C57.6929 17.6469 58.1249 17.5051 58.4768 17.2368C58.8368 16.9614 59.139 16.6179 59.3665 16.2259C59.6107 15.8068 59.793 15.3545 59.9078 14.8832C60.0214 14.431 60.081 13.9669 60.0854 13.5007C60.0854 12.7973 59.9719 12.2462 59.7458 11.8514C59.5198 11.4565 59.1113 11.2596 58.5195 11.2596L58.5176 11.2576ZM66.6225 20.0096H63.4907L66.1335 8.89137H69.2846L66.6225 20.0096ZM68.1427 7.53602C67.7165 7.5407 67.3007 7.40426 66.9601 7.14795C66.6069 6.88924 66.43 6.49082 66.4294 5.95269C66.4283 5.66509 66.4899 5.3807 66.6098 5.11931C66.724 4.86472 66.8857 4.63423 67.0862 4.44018C67.2863 4.24888 67.5189 4.0948 67.7731 3.98517C68.0364 3.87233 68.32 3.81486 68.6065 3.81636C69.0333 3.81191 69.4496 3.9483 69.7911 4.20443C70.1432 4.46638 70.3208 4.86415 70.3208 5.39872C70.3212 5.68729 70.2593 5.97254 70.1394 6.23501C70.0261 6.48937 69.8654 6.71985 69.6659 6.91414C69.4657 7.10509 69.2331 7.25884 68.979 7.36818C68.715 7.48193 68.4301 7.5391 68.1427 7.53602ZM71.5383 9.39683C71.776 9.32698 72.0419 9.24354 72.33 9.15234C72.6502 9.05338 72.9736 8.96963 73.3002 8.90107C73.6978 8.81502 74.0997 8.75025 74.5042 8.70703C75.0056 8.65364 75.5096 8.62837 76.0138 8.63136C77.6637 8.63136 78.8024 9.11095 79.4298 10.0701C80.0572 11.0293 80.1668 12.34 79.7587 14.0023L78.3248 20.0096H75.1746L76.5697 14.1323C76.6551 13.7655 76.7211 13.4105 76.7715 13.0651C76.8222 12.7638 76.8183 12.4559 76.7599 12.156C76.7093 11.9054 76.5719 11.6807 76.3718 11.5215C76.1661 11.3595 75.8537 11.279 75.4307 11.279C75.0119 11.2804 74.5943 11.3233 74.184 11.407L72.1311 20.0096H68.981L71.5393 9.39877L71.5383 9.39683Z" fill="white"/>
</g>
<defs>
<clipPath id="clip0_1908_993">
<rect width="80" height="24" fill="white"/>
</clipPath>
</defs>
</svg>
