<svg width="80" height="24" viewBox="0 0 80 24" fill="none" xmlns="http://www.w3.org/2000/svg">
<path d="M9.192 5.86383H11.3366V2.79999C11.3366 2.79999 9.08267 2.79999 9.028 2.80241C4.03093 2.89384 0 6.97268 0 11.992C0 17.0655 4.11898 21.1791 9.192 21.184H11.3366V18.1197H9.192C8.26133 18.1161 7.34363 17.9008 6.50848 17.4901C5.67328 17.0793 4.94251 16.484 4.37147 15.7491C3.80044 15.0141 3.40412 14.1589 3.21252 13.2481C3.02092 12.3374 3.03906 11.395 3.26558 10.4923C3.61125 11.8004 4.38 12.9573 5.452 13.7828C6.524 14.6083 7.83899 15.0559 9.192 15.0558H11.3366V11.992H9.192C7.51179 11.992 6.14411 10.6084 6.14411 8.92815C6.14411 7.24793 7.51179 5.86383 9.192 5.86383Z" fill="#144BFE"/>
<path d="M16 13.5167V10.2147C16 7.87695 17.3893 6.53333 19.9557 6.53333C21.0444 6.53333 21.9475 6.83978 22.6497 7.43919C23.3519 8.03855 23.71 8.92895 23.71 10.1432V10.2893H21.4745V10.1432C21.4745 9.09119 20.7438 8.60895 19.8124 8.60895C18.7519 8.60895 18.2216 9.09119 18.2216 10.0556V13.679C18.2216 14.6434 18.7519 15.1256 19.8124 15.1256C20.7723 15.1256 21.4745 14.6872 21.4745 13.5914V13.4453H23.71V13.5914C23.71 14.8037 23.3519 15.7096 22.6497 16.309C21.9475 16.9084 21.0444 17.2 19.9557 17.2C17.3893 17.1987 16 15.8576 16 13.5167Z" fill="white"/>
<path d="M24.9995 11.9536C24.9995 10.2732 26.1892 9.12076 28.3098 9.12076C30.4304 9.12076 31.6062 10.2751 31.6062 11.9536V14.306C31.6062 15.9857 30.431 17.1549 28.3098 17.1549C26.1886 17.1549 24.9995 15.9864 24.9995 14.306V11.9536ZM29.5709 14.2327V12.0591C29.5709 11.4308 29.1124 10.9923 28.3079 10.9923C27.4623 10.9923 27.0323 11.4597 27.0323 12.0591V14.2359C27.0323 14.8353 27.4623 15.2879 28.3079 15.2879C29.1124 15.2846 29.5709 14.832 29.5709 14.2327Z" fill="white"/>
<path d="M33.1964 16.9798V9.29459H35.2317V16.9798H33.1964Z" fill="white"/>
<path d="M37.1552 16.9798V9.29462H38.3159L38.8748 10.0106C39.1642 9.72145 39.507 9.49371 39.8834 9.34065C40.2597 9.18758 40.6622 9.11222 41.0673 9.11889C42.7155 9.11889 43.69 10.2443 43.69 12.1145V16.9798H41.6521V12.231C41.6521 11.4128 41.222 10.9891 40.6057 10.9891C40.0753 10.9891 39.6022 11.2377 39.1867 11.7199V16.9798H37.1552Z" fill="white"/>
<path d="M46.0083 16.3662C45.4064 15.8396 45.0913 15.1681 45.0768 14.335H47.0547C47.181 14.9923 47.6994 15.3142 48.617 15.3142C49.2334 15.3142 49.6059 15.1095 49.6059 14.7734C49.6059 14.496 49.3906 14.3061 48.9466 14.1889L47.0976 13.7066C45.8794 13.3847 45.2631 12.6984 45.2631 11.6323C45.2631 10.0691 46.3809 9.12141 48.3158 9.12141C50.1648 9.12141 51.4102 10.1592 51.4689 11.7952H49.5055C49.3477 11.2402 48.9037 10.9627 48.187 10.9627C47.5554 10.9627 47.2397 11.1527 47.2397 11.5177C47.2397 11.7224 47.4405 11.8834 47.8415 11.9851L49.8194 12.4969C50.9946 12.8034 51.5819 13.5193 51.5819 14.6151C51.5819 16.2079 50.3638 17.1575 48.4295 17.1575C47.4273 17.1549 46.6278 16.8915 46.0083 16.3662Z" fill="white"/>
<path d="M53.2585 16.9798V6.75221H57.7584C59.5498 6.75221 60.625 7.99413 60.625 9.96677C60.625 11.9394 59.5514 13.1665 57.7584 13.1665H55.4816V16.9798H53.2585ZM55.48 11.1939H57.3429C57.9018 11.1939 58.3749 10.7851 58.3749 9.96677C58.3749 9.14847 57.9018 8.72485 57.3429 8.72485H55.4816L55.48 11.1939Z" fill="white"/>
<path d="M66.6309 16.9798L66.0725 16.2638C65.456 16.8626 64.696 17.1549 63.793 17.1549C63.0768 17.1549 62.4752 16.9502 61.9877 16.5562C61.5002 16.1467 61.2565 15.5767 61.257 14.8462C61.257 13.2541 62.2746 12.3482 64.2954 12.3482H65.7712V11.9246C65.7712 11.2962 65.4128 10.9891 64.6816 10.9891C63.9504 10.9891 63.593 11.2376 63.593 11.7488H61.6005C61.6005 10.1567 62.6613 9.11887 64.6816 9.11887C66.7018 9.11887 67.8064 10.1567 67.8064 11.7784V16.9798H66.6309ZM65.7712 14.6563V13.809H64.2954C63.6213 13.809 63.2917 14.0575 63.2917 14.5687C63.2917 15.0194 63.6074 15.3284 64.2234 15.3284C64.8538 15.3284 65.3701 15.1095 65.7712 14.6563Z" fill="white"/>
<path d="M69.6549 16.9798V9.29459H71.6902V16.9798H69.6549Z" fill="white"/>
<path d="M78.8411 16.9798L78.2822 16.2639C77.9894 16.5535 77.6438 16.7812 77.2646 16.9342C76.8849 17.0871 76.4801 17.1621 76.0721 17.1549C74.5243 17.1549 73.3921 16.1892 73.3921 14.3351V11.9246C73.3921 11.004 73.6502 10.3028 74.1499 9.83479C74.6513 9.35324 75.2961 9.1189 76.0705 9.1189C76.8443 9.1189 77.4747 9.32359 77.9649 9.74722V6.67948H80.0001V16.9804L78.8411 16.9798ZM77.9665 14.5539V11.7211C77.4934 11.239 76.9921 10.9904 76.4907 10.9904C76.3499 10.9892 76.2107 11.0168 76.0806 11.0715C75.9505 11.1263 75.8326 11.207 75.7334 11.3091C75.6347 11.4112 75.5569 11.5324 75.5051 11.6657C75.4529 11.799 75.4278 11.9415 75.4305 12.0849V14.1889C75.4273 14.3323 75.4529 14.475 75.5046 14.6082C75.5569 14.7416 75.6347 14.8628 75.7334 14.9649C75.8326 15.067 75.9505 15.1478 76.0806 15.2025C76.2107 15.2572 76.3499 15.2847 76.4907 15.2834C76.9921 15.2847 77.4934 15.0361 77.9665 14.5539Z" fill="white"/>
</svg>
