<svg width="80" height="24" viewBox="0 0 80 24" fill="none" xmlns="http://www.w3.org/2000/svg">
<g clip-path="url(#clip0_1908_954)">
<path fill-rule="evenodd" clip-rule="evenodd" d="M10.9091 24C16.934 24 21.8182 18.6274 21.8182 12C21.8182 5.37258 16.934 0 10.9091 0C4.88417 0 0 5.37258 0 12C0 18.6274 4.88417 24 10.9091 24ZM12.0206 14.4267L17.0886 20L18.1818 18.7967L13.6627 13.8276L16.8828 10.2832C17.6421 9.44745 17.6421 8.08811 16.8828 7.25236C16.1235 6.41661 14.8885 6.41661 14.1292 7.25236L6.60034 15.5444L6.59577 15.5494C6.43568 15.7206 6.18411 15.7155 6.02859 15.5444C5.87307 15.3682 5.87764 15.0913 6.03316 14.9201L9.80675 10.7917C10.1086 10.4594 10.1086 9.9207 9.80675 9.58842L4.72956 4L3.63636 5.20327L8.16009 10.1825L4.93997 13.7067L4.92624 13.7218C4.16695 14.5626 4.17153 15.922 4.93539 16.7577C5.69926 17.5935 6.93425 17.5884 7.69354 16.7476L15.2224 8.46067C15.3779 8.28949 15.6295 8.28949 15.785 8.46067C15.9405 8.63184 15.9405 8.90875 15.785 9.07992L12.0206 13.2234C11.7187 13.5557 11.7187 14.0944 12.0206 14.4267Z" fill="#00FF00"/>
<path d="M25.4546 14.4182V9.76757C25.4546 9.1338 25.5396 8.62087 25.7095 8.22875C25.8794 7.83664 26.1053 7.53344 26.3872 7.31915C26.6732 7.10485 27.0048 6.96123 27.382 6.88828C27.7633 6.81077 28.1571 6.77201 28.5633 6.77201C28.9032 6.77201 29.2016 6.77885 29.4586 6.79253C29.7197 6.80621 29.9477 6.82217 30.1425 6.8404C30.3373 6.85864 30.5052 6.87688 30.6461 6.89512C30.7871 6.91335 30.9114 6.93387 31.0192 6.95667C31.1891 6.98403 31.2741 7.07521 31.2741 7.23024V8.53652C31.2741 8.60947 31.2492 8.67558 31.1995 8.73485C31.1497 8.78957 31.0896 8.81692 31.0192 8.81692H28.4327C28.1343 8.81692 27.9229 8.88531 27.7986 9.0221C27.6784 9.15432 27.6183 9.40281 27.6183 9.76757V11.0465H30.9197C30.986 11.0465 31.0441 11.0738 31.0938 11.1286C31.1477 11.1833 31.1746 11.2494 31.1746 11.3269V12.6537C31.1746 12.7266 31.1477 12.7928 31.0938 12.852C31.0441 12.9067 30.986 12.9341 30.9197 12.9341H27.6183V14.4182C27.6183 14.783 27.6804 15.0337 27.8048 15.1705C27.9291 15.3027 28.1384 15.3688 28.4327 15.3688H31.0192C31.0855 15.3688 31.1435 15.3985 31.1933 15.4578C31.2472 15.5125 31.2741 15.5763 31.2741 15.6492V16.9555C31.2741 17.1242 31.1891 17.2223 31.0192 17.2496C30.7995 17.2861 30.5052 17.3248 30.1363 17.3659C29.7674 17.4069 29.2389 17.4274 28.5509 17.4274C28.1447 17.4274 27.753 17.391 27.3758 17.318C27.0027 17.2451 26.6732 17.1014 26.3872 16.8871C26.1053 16.6683 25.8794 16.3605 25.7095 15.9639C25.5396 15.5672 25.4546 15.052 25.4546 14.4182Z" fill="white"/>
<path d="M32.3808 17.1333C32.3808 17.0878 32.3912 17.0513 32.4119 17.0239L34.6377 13.1324L32.4741 9.57607C32.4575 9.53959 32.4492 9.50996 32.4492 9.48716C32.4492 9.43245 32.4678 9.38457 32.5051 9.34354C32.5425 9.29794 32.586 9.27515 32.6357 9.27515H34.5382C34.6046 9.27515 34.6605 9.3025 34.7061 9.35722C34.7559 9.40737 34.8097 9.48032 34.8678 9.57607L35.9993 11.5047L37.0439 9.57607C37.1019 9.4712 37.1537 9.39597 37.1993 9.35038C37.249 9.30022 37.3071 9.27515 37.3734 9.27515H39.0832C39.1868 9.27515 39.2365 9.3367 39.2324 9.4598C39.2324 9.5054 39.2241 9.54415 39.2075 9.57607L37.106 13.2419L39.4127 17.0102C39.4293 17.0467 39.4376 17.0786 39.4376 17.106C39.4376 17.1516 39.421 17.1972 39.3878 17.2428C39.3547 17.2838 39.3112 17.3043 39.2573 17.3043H37.3361C37.2698 17.3043 37.2117 17.2815 37.162 17.2359C37.1164 17.1903 37.0646 17.1151 37.0066 17.0102L35.7444 14.8422L34.5631 17.0239C34.5051 17.1288 34.4512 17.2017 34.4015 17.2428C34.3559 17.2838 34.2978 17.3043 34.2274 17.3043H32.5238C32.4285 17.3043 32.3808 17.2473 32.3808 17.1333Z" fill="white"/>
<path d="M39.8728 13.83V12.852C39.8728 12.2912 39.9453 11.7828 40.0904 11.3269C40.2355 10.8664 40.4448 10.4788 40.7184 10.1642C40.9961 9.84508 41.3339 9.59887 41.7318 9.42561C42.1297 9.25235 42.5836 9.16572 43.0934 9.16572C43.6115 9.16572 44.0675 9.25919 44.4613 9.44613C44.8592 9.63306 45.1887 9.89067 45.4498 10.219C45.7151 10.5427 45.912 10.9302 46.0405 11.3816C46.1731 11.8284 46.2394 12.3186 46.2394 12.852V13.6659C46.2394 13.8893 46.1503 14.001 45.9721 14.001H41.9121V14.0284C41.9121 14.2244 41.9328 14.4159 41.9743 14.6029C42.0157 14.7898 42.0862 14.9539 42.1857 15.0953C42.2893 15.2321 42.424 15.3438 42.5898 15.4304C42.7556 15.5125 42.967 15.5535 43.224 15.5535C43.4271 15.5535 43.6426 15.5489 43.8706 15.5398C44.1027 15.5307 44.3307 15.5216 44.5545 15.5125C44.7783 15.5033 44.9877 15.4919 45.1825 15.4783C45.3773 15.4646 45.5389 15.4486 45.6674 15.4304H45.7047C45.8664 15.4304 45.9472 15.5033 45.9472 15.6492V16.7162C45.9472 16.8301 45.9306 16.9145 45.8975 16.9692C45.8643 17.0239 45.7918 17.065 45.6799 17.0923C45.2737 17.2063 44.8737 17.2906 44.4799 17.3454C44.0903 17.4001 43.6198 17.4274 43.0686 17.4274C42.6872 17.4274 42.3059 17.3682 41.9245 17.2496C41.5432 17.1265 41.1992 16.9259 40.8925 16.6478C40.5857 16.3651 40.3391 15.9935 40.1526 15.533C39.9661 15.0725 39.8728 14.5048 39.8728 13.83ZM41.9121 12.599H44.2312V12.5443C44.2312 12.0199 44.1276 11.6301 43.9203 11.3748C43.7172 11.1149 43.4375 10.9849 43.081 10.9849C42.7245 10.9849 42.4406 11.1172 42.2292 11.3816C42.0178 11.6415 41.9121 12.0291 41.9121 12.5443V12.599Z" fill="white"/>
<path d="M47.3834 13.83V12.852C47.3834 12.2912 47.456 11.7828 47.6011 11.3269C47.7461 10.8664 47.9554 10.4788 48.229 10.1642C48.5067 9.84508 48.8445 9.59887 49.2425 9.42561C49.6404 9.25235 50.0942 9.16572 50.6041 9.16572C51.1222 9.16572 51.5781 9.25919 51.9719 9.44613C52.3698 9.63306 52.6993 9.89067 52.9605 10.219C53.2257 10.5427 53.4226 10.9302 53.5511 11.3816C53.6838 11.8284 53.7501 12.3186 53.7501 12.852V13.6659C53.7501 13.8893 53.661 14.001 53.4827 14.001H49.4228V14.0284C49.4228 14.2244 49.4435 14.4159 49.4849 14.6029C49.5264 14.7898 49.5968 14.9539 49.6963 15.0953C49.7999 15.2321 49.9347 15.3438 50.1005 15.4304C50.2663 15.5125 50.4776 15.5535 50.7346 15.5535C50.9377 15.5535 51.1533 15.5489 51.3812 15.5398C51.6134 15.5307 51.8413 15.5216 52.0652 15.5125C52.289 15.5033 52.4983 15.4919 52.6931 15.4783C52.8879 15.4646 53.0496 15.4486 53.1781 15.4304H53.2154C53.377 15.4304 53.4579 15.5033 53.4579 15.6492V16.7162C53.4579 16.8301 53.4413 16.9145 53.4081 16.9692C53.375 17.0239 53.3024 17.065 53.1905 17.0923C52.7843 17.2063 52.3843 17.2906 51.9906 17.3454C51.6009 17.4001 51.1305 17.4274 50.5792 17.4274C50.1979 17.4274 49.8165 17.3682 49.4352 17.2496C49.0539 17.1265 48.7098 16.9259 48.4031 16.6478C48.0964 16.3651 47.8497 15.9935 47.6632 15.533C47.4767 15.0725 47.3834 14.5048 47.3834 13.83ZM49.4228 12.599H51.7419V12.5443C51.7419 12.0199 51.6382 11.6301 51.431 11.3748C51.2279 11.1149 50.9481 10.9849 50.5916 10.9849C50.2352 10.9849 49.9512 11.1172 49.7398 11.3816C49.5285 11.6415 49.4228 12.0291 49.4228 12.5443V12.599Z" fill="white"/>
<path d="M54.8568 13.8437V12.7494C54.8568 11.6461 55.12 10.7729 55.6464 10.13C56.1728 9.48716 56.9749 9.16572 58.0525 9.16572C58.181 9.16572 58.3406 9.17484 58.5313 9.19308C58.722 9.21131 58.9105 9.23411 59.0971 9.26147V6.8404C59.0971 6.76745 59.1219 6.70362 59.1717 6.64891C59.2256 6.58963 59.2857 6.56 59.352 6.56H60.8939C60.9602 6.56 61.0203 6.58963 61.0742 6.64891C61.1322 6.70362 61.1613 6.76745 61.1613 6.8404V16.6614C61.1613 16.7754 61.1364 16.8598 61.0866 16.9145C61.041 16.9692 60.9333 17.0194 60.7633 17.065C60.3986 17.1698 59.9779 17.2565 59.5012 17.3248C59.0287 17.3932 58.5458 17.4274 58.0525 17.4274C57.0163 17.4274 56.2246 17.1151 55.6775 16.4905C55.1304 15.8658 54.8568 14.9836 54.8568 13.8437ZM56.921 13.8437C56.921 14.0945 56.9375 14.327 56.9707 14.5413C57.0039 14.751 57.0619 14.9334 57.1448 15.0884C57.2318 15.2389 57.3479 15.3574 57.493 15.4441C57.638 15.5261 57.8246 15.5672 58.0525 15.5672C58.2639 15.5672 58.4608 15.5581 58.6432 15.5398C58.8256 15.5216 58.9769 15.5033 59.0971 15.4851V11.1149C58.9437 11.0966 58.7696 11.0807 58.5748 11.067C58.38 11.0533 58.2059 11.0465 58.0525 11.0465C57.8246 11.0465 57.638 11.0875 57.493 11.1696C57.3479 11.2517 57.2318 11.3702 57.1448 11.5252C57.0619 11.6803 57.0039 11.8626 56.9707 12.0724C56.9375 12.2821 56.921 12.5078 56.921 12.7494V13.8437Z" fill="white"/>
<path d="M62.6845 17.0102V9.55555C62.6845 9.4826 62.7094 9.41877 62.7591 9.36406C62.8089 9.30478 62.869 9.27515 62.9394 9.27515H64.3881C64.4544 9.27515 64.5124 9.30478 64.5622 9.36406C64.6161 9.41877 64.643 9.4826 64.643 9.55555V9.87015C64.9166 9.6741 65.2047 9.50768 65.5072 9.37089C65.814 9.23411 66.1538 9.16572 66.5269 9.16572C66.8668 9.16572 67.1569 9.22043 67.3973 9.32986C67.6419 9.43473 67.8533 9.60799 68.0315 9.84964C68.218 9.73565 68.3921 9.63534 68.5538 9.54871C68.7154 9.46208 68.8771 9.39141 69.0387 9.3367C69.2004 9.27743 69.3683 9.23411 69.5423 9.20675C69.7164 9.1794 69.905 9.16572 70.1081 9.16572C70.5226 9.16572 70.8708 9.24095 71.1527 9.39141C71.4387 9.54187 71.6646 9.74933 71.8303 10.0138C71.9961 10.2782 72.1143 10.5997 72.1847 10.9781C72.2594 11.3565 72.2967 11.776 72.2967 12.2365V17.0102C72.2967 17.0832 72.2676 17.1516 72.2096 17.2154C72.1557 17.2747 72.0956 17.3043 72.0293 17.3043H70.4874C70.4211 17.3043 70.361 17.2747 70.3071 17.2154C70.2573 17.1516 70.2325 17.0832 70.2325 17.0102V12.2365C70.2325 11.7897 70.1765 11.4842 70.0646 11.3201C69.9568 11.1559 69.7537 11.0738 69.4553 11.0738C69.3434 11.0738 69.2004 11.0898 69.0263 11.1217C68.8563 11.1536 68.674 11.222 68.4792 11.3269C68.504 11.605 68.5165 11.9082 68.5165 12.2365V17.0102C68.5165 17.0832 68.4895 17.1516 68.4356 17.2154C68.3859 17.2747 68.3279 17.3043 68.2616 17.3043H66.7196C66.6533 17.3043 66.5911 17.2747 66.5331 17.2154C66.4792 17.1516 66.4523 17.0832 66.4523 17.0102V12.2365C66.4523 11.7897 66.4025 11.4842 66.3031 11.3201C66.2077 11.1559 66.0108 11.0738 65.7124 11.0738C65.5922 11.0738 65.4492 11.1058 65.2834 11.1696C65.1217 11.2334 64.9435 11.3223 64.7487 11.4363V17.0102C64.7487 17.0832 64.7218 17.1516 64.6679 17.2154C64.6181 17.2747 64.5601 17.3043 64.4938 17.3043H62.9519C62.8856 17.3043 62.8234 17.2747 62.7653 17.2154C62.7115 17.1516 62.6845 17.0832 62.6845 17.0102Z" fill="white"/>
<path d="M73.6334 13.83V12.852C73.6334 12.2912 73.7059 11.7828 73.851 11.3269C73.9961 10.8664 74.2054 10.4788 74.479 10.1642C74.7567 9.84508 75.0945 9.59887 75.4924 9.42561C75.8903 9.25235 76.3442 9.16572 76.854 9.16572C77.3721 9.16572 77.8281 9.25919 78.2219 9.44613C78.6198 9.63306 78.9493 9.89067 79.2104 10.219C79.4757 10.5427 79.6726 10.9302 79.8011 11.3816C79.9337 11.8284 80 12.3186 80 12.852V13.6659C80 13.8893 79.9109 14.001 79.7327 14.001H75.6727V14.0284C75.6727 14.2244 75.6934 14.4159 75.7349 14.6029C75.7763 14.7898 75.8468 14.9539 75.9463 15.0953C76.0499 15.2321 76.1846 15.3438 76.3504 15.4304C76.5162 15.5125 76.7276 15.5535 76.9846 15.5535C77.1877 15.5535 77.4032 15.5489 77.6312 15.5398C77.8633 15.5307 78.0913 15.5216 78.3151 15.5125C78.539 15.5033 78.7483 15.4919 78.9431 15.4783C79.1379 15.4646 79.2995 15.4486 79.428 15.4304H79.4653C79.627 15.4304 79.7078 15.5033 79.7078 15.6492V16.7162C79.7078 16.8301 79.6912 16.9145 79.6581 16.9692C79.6249 17.0239 79.5524 17.065 79.4405 17.0923C79.0343 17.2063 78.6343 17.2906 78.2405 17.3454C77.8509 17.4001 77.3804 17.4274 76.8292 17.4274C76.4478 17.4274 76.0665 17.3682 75.6852 17.2496C75.3038 17.1265 74.9598 16.9259 74.6531 16.6478C74.3463 16.3651 74.0997 15.9935 73.9132 15.533C73.7267 15.0725 73.6334 14.5048 73.6334 13.83ZM75.6727 12.599H77.9918V12.5443C77.9918 12.0199 77.8882 11.6301 77.6809 11.3748C77.4778 11.1149 77.1981 10.9849 76.8416 10.9849C76.4851 10.9849 76.2012 11.1172 75.9898 11.3816C75.7784 11.6415 75.6727 12.0291 75.6727 12.5443V12.599Z" fill="white"/>
</g>
<defs>
<clipPath id="clip0_1908_954">
<rect width="80" height="24" fill="white"/>
</clipPath>
</defs>
</svg>
