<svg width="80" height="24" viewBox="0 0 80 24" fill="none" xmlns="http://www.w3.org/2000/svg">
<g clip-path="url(#clip0_1908_473)">
<path d="M30.0157 6.47565H25.6201C25.3689 6.47565 25.1177 6.72682 24.9921 6.978L23.2339 18.4066C23.2339 18.6577 23.3595 18.7833 23.4851 18.7833H25.6201C25.8712 18.7833 26.1224 18.5322 26.248 18.281L26.7504 15.2669C26.7504 15.0157 27.0015 14.7645 27.3783 14.7645H28.7598C31.6483 14.7645 33.4066 13.383 33.7833 10.4945C34.0345 9.2386 33.7833 8.35948 33.1554 7.60594C32.5274 6.85241 31.3971 6.47565 30.0157 6.47565ZM30.518 10.6201C30.2669 12.2527 29.011 12.2527 27.8807 12.2527H27.2527L27.6295 9.2386C27.6295 9.11301 27.7551 8.98742 28.0063 8.98742H28.2574C29.011 8.98742 29.7645 8.98742 30.1413 9.48977C30.518 9.61536 30.518 10.1177 30.518 10.6201ZM43.2025 10.6201H41.0675C40.9419 10.6201 40.6907 10.7457 40.6907 10.8713L40.5651 11.4992L40.4395 11.248C39.9372 10.6201 38.9325 10.3689 37.9278 10.3689C35.5416 10.3689 33.5322 12.1271 33.1554 14.6389C32.9042 15.8948 33.281 17.0251 33.9089 17.9042C34.5369 18.6577 35.5416 19.0345 36.5463 19.0345C38.4301 19.0345 39.4348 17.7786 39.4348 17.7786L39.3092 18.4066C39.3092 18.6577 39.4348 18.7833 39.5604 18.7833H41.4442C41.6954 18.7833 41.9466 18.5322 42.0722 18.281L43.2025 10.9968C43.5792 10.7457 43.4537 10.6201 43.2025 10.6201ZM40.1884 14.7645C40.0628 15.8948 39.0581 16.7739 37.8022 16.7739C37.1742 16.7739 36.6719 16.5227 36.4207 16.146C36.1695 15.7692 36.0439 15.2669 36.0439 14.6389C36.2951 13.383 37.1742 12.6295 38.4301 12.6295C39.0581 12.6295 39.5604 12.8807 39.8116 13.2574C40.1884 13.6342 40.3139 14.1366 40.1884 14.7645ZM54.5055 10.6201H52.3705C52.1193 10.6201 51.9937 10.7457 51.8681 10.8713L48.9796 15.2669L47.7237 11.1224C47.5981 10.8713 47.3469 10.7457 47.0957 10.7457H44.9607C44.7095 10.7457 44.584 10.8713 44.584 11.1224V11.248L46.9701 18.1554L44.7095 21.2951C44.584 21.4207 44.584 21.6719 44.8351 21.7975C44.8351 21.7975 44.9607 21.9231 45.0863 21.9231H47.2213C47.4725 21.9231 47.5981 21.7975 47.7237 21.6719L54.7566 11.3736C54.8822 11.248 54.8822 10.9968 54.6311 10.8713C54.6311 10.6201 54.631 10.6201 54.5055 10.6201Z" fill="#005FCC"/>
<path d="M61.5385 6.47565H57.1429C56.8917 6.47565 56.6405 6.72682 56.515 6.978L54.7567 18.4066C54.7567 18.6577 54.8823 18.7833 55.0079 18.7833H57.2685C57.5197 18.7833 57.6453 18.6577 57.6453 18.4066L58.1476 15.1413C58.1476 14.8901 58.3988 14.6389 58.7756 14.6389H60.157C63.0456 14.6389 64.8038 13.2574 65.1806 10.3689C65.4317 9.11301 65.1806 8.23389 64.5526 7.48036C64.1759 6.85241 63.0456 6.47565 61.5385 6.47565ZM62.0409 10.6201C61.7897 12.2527 60.5338 12.2527 59.4035 12.2527H58.7756L59.2779 9.2386C59.2779 9.11301 59.4035 8.98742 59.6547 8.98742H59.9058C60.6594 8.98742 61.4129 8.98742 61.7897 9.48977C62.0409 9.61536 62.1664 10.1177 62.0409 10.6201ZM74.8509 10.6201H72.7159C72.5903 10.6201 72.3391 10.7457 72.3391 10.8713L72.2135 11.4992L72.0879 11.248C71.5856 10.6201 70.5809 10.3689 69.5762 10.3689C67.19 10.3689 65.1806 12.1271 64.8038 14.6389C64.5526 15.8948 64.9294 17.0251 65.5573 17.9042C66.1853 18.6577 67.19 19.0345 68.1947 19.0345C70.0785 19.0345 71.0832 17.7786 71.0832 17.7786L70.9577 18.4066C70.9577 18.6577 71.0832 18.7833 71.2088 18.7833H73.0927C73.3438 18.7833 73.595 18.5322 73.7206 18.281L74.8509 10.9968C75.2277 10.7457 75.1021 10.6201 74.8509 10.6201ZM71.8368 14.7645C71.5856 16.0204 70.7065 16.7739 69.4506 16.7739C68.8226 16.7739 68.3203 16.5227 68.0691 16.146C67.8179 15.7692 67.6923 15.2669 67.6923 14.6389C67.9435 13.383 68.8226 12.6295 70.0785 12.6295C70.7065 12.6295 71.2088 12.8807 71.46 13.2574C71.8368 13.6342 71.9624 14.1366 71.8368 14.7645ZM77.3627 6.72682L75.4788 18.4066C75.4788 18.6577 75.6044 18.7833 75.73 18.7833H77.6138C77.865 18.7833 78.1162 18.5322 78.2418 18.281L80 6.85241C80 6.60124 79.8744 6.47565 79.7489 6.47565H77.7394C77.4883 6.47565 77.3627 6.60124 77.3627 6.72682Z" fill="#179BD7"/>
<path d="M4.77235 21.0439L5.14912 18.9089H0.62793L3.1397 2.95915C3.1397 2.83356 3.26529 2.83356 3.39088 2.83356H9.41913C11.4286 2.83356 12.81 3.21032 13.5636 4.08944C13.9403 4.46621 14.0659 4.84298 14.1915 5.34533C14.3171 5.84768 14.3171 6.35004 14.1915 7.10357V7.48034L14.5683 7.73151C14.8194 7.8571 15.0706 7.98269 15.1962 8.23387C15.4474 8.61063 15.6986 8.9874 15.6986 9.48975C15.8242 9.99211 15.6986 10.6201 15.573 11.3736C15.4474 12.1271 15.1962 12.8806 14.8194 13.383C14.5683 13.8854 14.0659 14.3877 13.6891 14.6389C13.1868 15.0157 12.6844 15.1412 12.0565 15.3924C11.6797 15.518 11.0518 15.518 10.2983 15.518H9.7959C9.41913 15.518 9.16796 15.6436 8.91678 15.8948C8.6656 16.146 8.54001 16.3971 8.41442 16.7739V17.0251L7.78648 20.7927V21.0439H4.77235Z" fill="#005FCC"/>
<path d="M14.945 7.10352V7.48028C14.0659 11.4991 11.3029 13.0062 7.78646 13.0062H6.02822C5.65145 13.0062 5.27469 13.2574 5.1491 13.7597L4.26998 19.5368L4.0188 21.1694C4.0188 21.4206 4.14439 21.6718 4.39557 21.6718H7.66087C8.03764 21.6718 8.4144 21.4206 8.4144 21.0439V20.9183L9.04235 17.1506V16.8994C9.04235 16.5227 9.41911 16.2715 9.79588 16.2715H10.2982C13.3124 16.2715 15.8241 15.0156 16.4521 11.3735C16.7033 9.86647 16.5777 8.61058 15.8241 7.73146C15.573 7.48028 15.3218 7.2291 14.945 7.10352Z" fill="#179BD7"/>
<path d="M14.066 6.72682C13.8148 6.60124 13.5636 6.60124 13.3125 6.60124C12.8101 6.47565 12.3077 6.47565 11.6798 6.47565H7.03302C6.65626 6.47565 6.27949 6.72682 6.27949 7.10359L5.27478 13.5086V13.6342C5.27478 13.2574 5.65155 13.0063 6.02831 13.0063H7.78655C11.303 13.0063 14.066 11.6248 14.8195 7.48036V7.10359C14.5683 6.978 14.4428 6.85241 14.1916 6.85241C14.1916 6.72682 14.1916 6.72682 14.066 6.72682Z" fill="#005FCC"/>
<path d="M6.27943 7.10356C6.27943 6.7268 6.6562 6.47562 7.03296 6.47562H11.8053C12.3077 6.47562 12.9356 6.47562 13.438 6.60121C13.8148 6.60121 14.0659 6.7268 14.4427 6.85239C14.6939 6.97797 14.945 6.97797 15.0706 7.10356C15.3218 5.5965 15.0706 4.59179 14.1915 3.58708C13.3124 2.58237 11.6797 2.08002 9.54474 2.08002H3.39089C3.01413 2.08002 2.63736 2.45678 2.51177 2.83355L0 18.9089C0 19.1601 0.125589 19.4112 0.376766 19.5368H4.27001L5.27472 13.5086L6.27943 7.10356Z" fill="#005FCC"/>
</g>
<defs>
<clipPath id="clip0_1908_473">
<rect width="80" height="24" fill="white"/>
</clipPath>
</defs>
</svg>
