<svg width="80" height="24" viewBox="0 0 80 24" fill="none" xmlns="http://www.w3.org/2000/svg">
<path d="M23.7585 7.05774H24.3963C24.5585 7.05774 24.6906 7.18982 24.6906 7.35208V13.0615C24.6906 14.8653 25.668 16.0049 27.4868 16.0049C29.3057 16.0049 30.2831 14.8653 30.2831 13.0615V7.35208C30.2831 7.18982 30.4151 7.05774 30.5774 7.05774H31.2151C31.3774 7.05774 31.5095 7.18982 31.5095 7.35208V13.0766C31.5095 15.5332 30.1623 17.0993 27.4868 17.0993C24.8114 17.0993 23.4642 15.5181 23.4642 13.0917V7.35208C23.4604 7.18982 23.5925 7.05774 23.7585 7.05774ZM33.3887 14.8351C33.4831 14.7143 33.6642 14.703 33.7736 14.8087C34.434 15.4502 35.4227 16.0049 36.6755 16.0049C38.434 16.0049 38.9963 15.0577 38.9963 14.303C38.9963 13.1181 37.8 12.7936 36.4982 12.4389C34.917 12.0238 33.1548 11.5823 33.1548 9.64265C33.1548 8.01623 34.6038 6.9068 36.5434 6.9068C37.9359 6.9068 39.0378 7.33321 39.8491 8.08416C39.9661 8.18982 39.9774 8.37095 39.8755 8.4917L39.4906 8.9634C39.3963 9.08038 39.2227 9.08793 39.1132 8.98604C38.3925 8.31057 37.4416 8.00114 36.4529 8.00114C35.268 8.00114 34.4265 8.63887 34.4265 9.56718C34.4265 10.5596 35.5661 10.854 36.8227 11.1936C38.434 11.6238 40.268 12.1257 40.268 14.1974C40.268 15.6313 39.2906 17.0955 36.6302 17.0955C35.0378 17.0955 33.8378 16.5332 33.0227 15.7181C32.917 15.6125 32.9057 15.4426 33 15.3257L33.3887 14.8351ZM41.7283 7.35208C41.7283 7.18982 41.8604 7.05774 42.0227 7.05774H45.0982C48.1585 7.05774 50.1585 9.20114 50.1585 11.9974C50.1585 14.8087 48.1623 16.9219 45.0982 16.9219H42.0227C41.8604 16.9219 41.7283 16.7898 41.7283 16.6276V7.35208ZM45.1019 15.8276C47.4982 15.8276 48.8868 14.1106 48.8868 11.9974C48.8868 9.86529 47.5397 8.15208 45.1019 8.15208H42.9585V15.8276H45.1019ZM62.434 13.3445C62.434 11.2728 63.7963 9.60114 65.9699 9.60114C68.1434 9.60114 69.5057 11.2728 69.5057 13.3445C69.5057 15.4162 68.1434 17.103 65.9699 17.103C63.7963 17.103 62.434 15.4125 62.434 13.3445ZM68.3359 13.3445C68.3359 11.8955 67.4944 10.5936 65.9699 10.5936C64.4453 10.5936 63.5887 11.8955 63.5887 13.3445C63.5887 14.8087 64.4453 16.1106 65.9699 16.1106C67.4944 16.1106 68.3359 14.8087 68.3359 13.3445ZM70.5699 7.82755C70.5699 7.41246 70.9095 7.08793 71.3095 7.08793C71.7246 7.08793 72.0642 7.41246 72.0642 7.82755C72.0642 8.24265 71.7246 8.58227 71.3095 8.58227C70.9095 8.58227 70.5699 8.23887 70.5699 7.82755ZM71.0566 9.7785H71.5736C71.7359 9.7785 71.868 9.91057 71.868 10.0728V16.6276C71.868 16.7898 71.7359 16.9219 71.5736 16.9219H71.0566C70.8944 16.9219 70.7623 16.7898 70.7623 16.6276V10.0728C70.7623 9.91057 70.8944 9.7785 71.0566 9.7785ZM78.2604 12.2502C78.2604 10.9936 77.6227 10.5936 76.6642 10.5936C75.7925 10.5936 74.9623 11.1257 74.5472 11.703V16.6276C74.5472 16.7898 74.4151 16.9219 74.2529 16.9219H73.7359C73.5736 16.9219 73.4416 16.7898 73.4416 16.6276V10.0728C73.4416 9.91057 73.5736 9.7785 73.7359 9.7785H74.2529C74.4151 9.7785 74.5472 9.91057 74.5472 10.0728V10.8125C75.0491 10.22 76.0265 9.60114 77.0906 9.60114C78.5849 9.60114 79.3699 10.3559 79.3699 11.9068V16.6238C79.3699 16.786 79.2378 16.9181 79.0755 16.9181H78.5585C78.3963 16.9181 78.2642 16.786 78.2642 16.6238V12.2502H78.2604ZM52.9623 11.9974C52.9623 8.9634 55.1963 6.89548 57.9925 6.89548C59.6491 6.89548 60.8114 7.61623 61.5963 8.60491C61.6944 8.72944 61.6604 8.91435 61.5208 8.99359L60.9698 9.29925C60.8453 9.37095 60.6868 9.33699 60.5963 9.22755C60.0114 8.50302 59.0642 7.99359 57.9925 7.99359C55.8755 7.99359 54.234 9.65019 54.234 12.0011C54.234 14.337 55.8755 16.0087 57.9925 16.0087C59.068 16.0087 60.0151 15.5106 60.5963 14.7747C60.6868 14.6615 60.8415 14.6313 60.9698 14.6993L61.5283 15.0049C61.6717 15.0842 61.7057 15.2728 61.6038 15.3974C60.7887 16.3936 59.6491 17.103 57.9925 17.103C55.1963 17.0993 52.9623 15.0313 52.9623 11.9974Z" fill="white"/>
<path fill-rule="evenodd" clip-rule="evenodd" d="M20 11.9974C20 17.3118 15.6918 21.62 10.3774 21.62C5.06296 21.62 0.754761 17.3118 0.754761 11.9974C0.754761 6.68293 5.06296 2.37473 10.3774 2.37473C15.6918 2.37473 20 6.68293 20 11.9974ZM8.57363 18.6879C8.57363 18.9143 8.39627 19.0426 8.1774 18.9747C5.26797 18.0464 3.15853 15.3181 3.15853 12.0992C3.15853 8.88038 5.26797 6.15208 8.1774 5.22377C8.39627 5.15585 8.57363 5.28415 8.57363 5.51057V6.06906C8.57363 6.22 8.45664 6.39736 8.31325 6.44641C6.01136 7.2917 4.3623 9.50302 4.3623 12.0955C4.3623 14.6879 6.01136 16.8992 8.31325 17.7445C8.45664 17.7974 8.57363 17.9709 8.57363 18.1219V18.6879ZM10.9774 16.6087C10.9774 16.7747 10.8416 16.9106 10.6755 16.9106H10.0755C9.90948 16.9106 9.77363 16.7747 9.77363 16.6087V15.6577C8.46042 15.4804 7.81891 14.7445 7.64532 13.7445C7.61514 13.5747 7.75098 13.42 7.92457 13.42H8.61136C8.75476 13.42 8.87551 13.5219 8.9057 13.6653C9.034 14.2615 9.3774 14.7181 10.4302 14.7181C11.2076 14.7181 11.7585 14.2842 11.7585 13.6351C11.7585 12.986 11.434 12.7408 10.2944 12.5521C8.61136 12.3257 7.81514 11.8162 7.81514 10.4955C7.81514 9.4766 8.58495 8.68415 9.7774 8.51434V7.58226C9.7774 7.41623 9.91325 7.28038 10.0793 7.28038H10.6793C10.8453 7.28038 10.9812 7.41623 10.9812 7.58226V8.54075C11.951 8.71434 12.5661 9.26528 12.7661 10.1785C12.8038 10.3521 12.668 10.5143 12.4906 10.5143H11.8566C11.7208 10.5143 11.6076 10.4238 11.5661 10.2917C11.3963 9.71057 10.9812 9.46151 10.2604 9.46151C9.46419 9.46151 9.05287 9.84642 9.05287 10.386C9.05287 10.9558 9.28683 11.2426 10.5095 11.42C12.1623 11.6464 13.0151 12.1181 13.0151 13.5257C13.0151 14.5936 12.2227 15.4577 10.9812 15.6577V16.6087H10.9774ZM12.1812 18.6879C12.1812 18.9143 12.3585 19.0426 12.5774 18.9747C15.4868 18.0426 17.5925 15.3181 17.5963 12.1068C17.5963 8.88792 15.4868 6.15962 12.5774 5.23132C12.3585 5.15962 12.1812 5.2917 12.1812 5.51811V6.0766C12.1812 6.22755 12.2982 6.40113 12.4416 6.45396C14.7434 7.29924 16.3925 9.51056 16.3925 12.103C16.3925 14.6955 14.7434 16.9068 12.4416 17.7521C12.2831 17.8087 12.1812 17.9634 12.1812 18.1294V18.6879Z" fill="#2775CA"/>
</svg>
