<svg width="80" height="24" viewBox="0 0 80 24" fill="none" xmlns="http://www.w3.org/2000/svg">
<path d="M79.7874 9.53642C79.7874 14.8032 75.1716 19.0728 69.4777 19.0728C63.7839 19.0728 59.1681 14.8032 59.1681 9.53642C59.1681 4.2696 63.7839 0 69.4777 0C75.1716 0 79.7874 4.2696 79.7874 9.53642Z" fill="#F79F1A"/>
<path d="M67.0149 9.53642C67.0149 14.8032 62.3991 19.0728 56.7053 19.0728C51.0114 19.0728 46.3956 14.8032 46.3956 9.53642C46.3956 4.2696 51.0114 0 56.7053 0C59.4396 0 62.0619 1.00473 63.9953 2.79315C65.9287 4.58158 67.0149 7.00721 67.0149 9.53642Z" fill="#EA001B"/>
<path d="M63.0516 1.98145C60.5466 3.80142 59.0839 6.58467 59.0839 9.53111C59.0839 12.4776 60.5466 15.2608 63.0516 17.0808C65.5567 15.2608 67.0194 12.4776 67.0194 9.53111C67.0194 6.58467 65.5567 3.80142 63.0516 1.98145Z" fill="#FF5F01"/>
<path d="M48.6295 23.8623H48.0453V21.3298H48.618V21.6371C48.8491 21.4554 49.1242 21.3282 49.4199 21.2662C49.7876 21.2899 50.1262 21.46 50.3478 21.7325C50.5543 21.4496 50.8954 21.2761 51.2642 21.2662C51.7865 21.2475 52.2448 21.5857 52.341 22.0609V23.8517H51.7797V22.2835C51.7745 22.1433 51.7056 22.0117 51.5901 21.9209C51.4745 21.8301 51.3229 21.7887 51.1726 21.8066C50.8437 21.774 50.5435 21.9823 50.4852 22.2835V23.8623H49.901V22.2729C49.8719 21.9934 49.6203 21.779 49.3168 21.7749C48.6295 21.7749 48.618 22.2835 48.618 22.2835L48.6295 23.8623Z" fill="white"/>
<path d="M66.4766 21.2662C66.1809 21.3282 65.9057 21.4554 65.6747 21.6371V21.3298H65.0562V23.8623H65.6404V22.2835C65.6404 22.2835 65.6404 21.7748 66.3391 21.7748C66.4477 21.7719 66.555 21.7977 66.6484 21.849L66.8432 21.351C66.7275 21.3026 66.6033 21.2738 66.4766 21.2662Z" fill="white"/>
<path d="M74.7473 21.2662C74.4516 21.3282 74.1765 21.4554 73.9454 21.6371V21.3298H73.3727V23.8623H73.9569V22.2835C73.9569 22.2835 73.9569 21.7748 74.6557 21.7748C74.7643 21.7719 74.8715 21.7977 74.9649 21.849L75.1597 21.351C75.0361 21.3036 74.9039 21.2785 74.7702 21.2768L74.7473 21.2662Z" fill="white"/>
<path d="M54.254 21.2557C53.8832 21.2694 53.5336 21.419 53.2822 21.6715C53.0308 21.9239 52.8982 22.2584 52.9137 22.6014C52.8876 23.327 53.4932 23.9389 54.2769 23.9789C54.6068 23.9592 54.9206 23.8401 55.1704 23.6398V23.8941H55.7431V21.3298H55.1589V21.6477C54.919 21.4134 54.591 21.273 54.2425 21.2557H54.254ZM54.3685 21.7749C54.7441 21.7488 55.0988 21.9379 55.2625 22.2517C55.4263 22.5655 55.3658 22.94 55.11 23.1958C54.8542 23.4516 54.4552 23.5365 54.1043 23.4099C53.7533 23.2833 53.5219 22.971 53.5208 22.6226C53.5115 22.4061 53.5957 22.1952 53.7547 22.0362C53.9137 21.8771 54.1345 21.7831 54.3685 21.7749Z" fill="white"/>
<path d="M71.1045 21.2557C70.7338 21.2694 70.3842 21.419 70.1328 21.6715C69.8813 21.9239 69.7488 22.2584 69.7643 22.6014C69.7384 23.3309 70.3506 23.9445 71.1389 23.9789C71.4688 23.9592 71.7826 23.8401 72.0324 23.6398V23.8941H72.6052V21.3298H72.0209V21.6477C71.781 21.4134 71.453 21.273 71.1045 21.2557ZM71.2191 21.7749C71.5947 21.7488 71.9494 21.9379 72.1131 22.2517C72.2769 22.5655 72.2163 22.94 71.9606 23.1958C71.7048 23.4516 71.3058 23.5365 70.9549 23.4099C70.6039 23.2833 70.3725 22.971 70.3714 22.6226C70.3621 22.4061 70.4462 22.1952 70.6052 22.0362C70.7643 21.8771 70.9851 21.7831 71.2191 21.7749Z" fill="white"/>
<path d="M76.6603 21.2557C75.9064 21.3066 75.3329 21.9028 75.3659 22.6014C75.3386 23.3117 75.9177 23.9172 76.6832 23.9788C77.0131 23.9592 77.3269 23.8401 77.5767 23.6398V23.8941H78.1495V20.3338H77.5652V21.6477C77.3253 21.4133 76.9973 21.273 76.6488 21.2557H76.6603ZM76.7748 21.7749C77.1505 21.7487 77.5051 21.9379 77.6689 22.2517C77.8326 22.5655 77.7721 22.94 77.5163 23.1958C77.2605 23.4516 76.8616 23.5365 76.5106 23.4099C76.1597 23.2833 75.9282 22.971 75.9272 22.6225C75.9179 22.4061 76.002 22.1951 76.161 22.0361C76.32 21.8771 76.5408 21.7831 76.7748 21.7749Z" fill="white"/>
<path d="M57.5188 23.9788C57.1119 23.9583 56.7175 23.8415 56.3733 23.6398L56.6253 23.2795C56.9073 23.4002 57.2094 23.4755 57.5188 23.502C57.7594 23.502 58.1718 23.4278 58.1718 23.2053C58.1718 22.9828 57.4844 22.898 57.4844 22.898C57.4844 22.898 56.4535 22.898 56.4535 22.1033C56.4535 21.6053 56.969 21.298 57.599 21.298C57.9962 21.3427 58.3831 21.4464 58.7445 21.6053L58.4581 22.0186C58.1897 21.9169 57.9089 21.8457 57.6219 21.8066C57.3813 21.8066 57.0835 21.902 57.0835 22.1033C57.0835 22.6437 58.8018 22.1033 58.8018 23.1629C58.8018 23.8729 58.103 24 57.5417 24L57.5188 23.9788Z" fill="white"/>
<path d="M59.718 20.5987V21.3404H59.214V21.8596H59.7295V23.1311C59.715 23.3683 59.813 23.5994 59.9979 23.7643C60.1827 23.9292 60.436 24.0114 60.6917 23.9894C60.9743 23.9584 61.2514 23.8943 61.5165 23.7987L61.2874 23.2477C61.1585 23.3486 60.9977 23.4081 60.8292 23.4172C60.371 23.4172 60.3824 23.1311 60.3824 23.1311V21.8596H61.3332V21.3298H60.3595V20.5881L59.718 20.5987Z" fill="white"/>
<path d="M63.2004 21.2874C62.4438 21.3495 61.8636 21.9358 61.8636 22.6384C61.8636 23.3411 62.4438 23.9274 63.2004 23.9894C63.5795 23.942 63.943 23.819 64.2658 23.6291L64.0023 23.1947C63.7649 23.3484 63.4888 23.4433 63.2004 23.4702C62.7787 23.4823 62.4232 23.1817 62.3986 22.7921H64.4032C64.4032 22.7921 64.6094 21.2874 63.2004 21.2874ZM63.1202 21.7854H63.189C63.3711 21.7767 63.549 21.8376 63.6812 21.9538C63.8133 22.07 63.888 22.2313 63.8877 22.4H62.4558C62.4494 22.2352 62.5173 22.0754 62.6433 21.9588C62.7693 21.8423 62.9421 21.7794 63.1202 21.7854Z" fill="white"/>
<path d="M69.1573 23.1947L69.4208 23.6927C69.1442 23.8622 68.8241 23.9609 68.4929 23.9788C68.0962 23.996 67.7089 23.8637 67.4196 23.6121C67.1303 23.3604 66.9637 23.011 66.9579 22.6437C66.9239 22.2629 67.0769 21.8881 67.3745 21.6231C67.6721 21.3581 68.0828 21.2309 68.4929 21.2768C68.8463 21.2906 69.1898 21.3892 69.4895 21.5629L69.1917 22.0609C69.0139 21.8668 68.7432 21.7675 68.47 21.796C68.0124 21.8438 67.6667 22.2019 67.6667 22.6278C67.6667 23.0537 68.0124 23.4117 68.47 23.4596C68.7366 23.443 68.99 23.3462 69.1917 23.1841L69.1573 23.1947Z" fill="white"/>
<path d="M20.2527 6.29617L17.5035 18.1129H14.2136L16.9628 6.29617H20.2527ZM34.1639 13.9253L35.9051 9.48345L36.9039 13.9253H34.1639ZM37.8295 18.1129H40.9087L38.2511 6.29617H35.4194C34.806 6.28582 34.2474 6.62134 34.0081 7.14385L29.0869 18.1213H32.5602L33.2475 16.3582H37.4905L37.8295 18.1129ZM29.1969 14.2559C29.1969 11.1364 24.5324 10.9669 24.569 9.56822C24.569 9.14438 25.0181 8.72054 25.9711 8.57643C27.0899 8.47667 28.2171 8.65825 29.2336 9.102L29.8109 6.55895C28.8232 6.21615 27.7775 6.0382 26.7226 6.03339C23.451 6.03339 21.16 7.63551 21.1416 9.9412C21.1416 11.6366 22.782 12.5944 24.0375 13.1624C25.293 13.7303 25.7604 14.1118 25.7512 14.6289C25.7512 15.4257 24.7248 15.7733 23.7717 15.7902C22.5912 15.8136 21.4238 15.5568 20.381 15.0442L19.7854 17.6382C20.9545 18.0562 22.1976 18.269 23.451 18.2654C26.9242 18.2654 29.1969 16.6803 29.2061 14.222L29.1969 14.2559ZM15.5332 6.29617L10.1722 18.1213H6.68065L4.04138 8.68663C3.98944 8.24366 3.69532 7.85637 3.26243 7.66094C2.22497 7.19756 1.12901 6.85585 0 6.64372L0.0824772 6.30464H5.70009C6.45846 6.30454 7.10397 6.81531 7.22133 7.50835L8.61428 14.3492L12.0508 6.30464L15.5332 6.29617Z" fill="#2188FF"/>
</svg>
