<svg width="115" height="24" viewBox="0 0 115 24" fill="none" xmlns="http://www.w3.org/2000/svg">
<path fill-rule="evenodd" clip-rule="evenodd" d="M37.6766 7.7804C36.8867 7.42024 36.0254 7.24397 35.1575 7.26487C34.7183 7.26135 34.2803 7.31142 33.8533 7.41396C33.4373 7.51752 33.0312 7.65739 32.6397 7.83196L34.5207 0L29.8154 0.728716L24.5625 22.8006C25.16 23.0882 25.7863 23.3115 26.431 23.4666C27.0471 23.6212 27.6707 23.744 28.2994 23.8345C28.8166 23.9101 29.3376 23.9566 29.86 23.9738C30.3142 23.9891 30.6361 23.9891 30.8186 23.9891C32.1755 24.0013 33.5196 23.7269 34.7631 23.1838C35.948 22.6683 37.0209 21.9267 37.9218 21.0004C39.7791 19.0596 40.8123 16.4748 40.8047 13.7885C40.8113 12.9274 40.6997 12.0694 40.473 11.2387C40.2694 10.4889 39.9189 9.78704 39.442 9.17374C38.9653 8.58297 38.362 8.1068 37.6766 7.7804ZM33.2151 19.745C32.6017 20.0837 31.9123 20.2611 31.2115 20.2605H30.6639C30.5415 20.2618 30.4192 20.2557 30.2975 20.2424C30.2014 20.2337 30.106 20.2188 30.0119 20.1978C29.9274 20.1797 29.8285 20.1615 29.7173 20.141L29.6928 20.1365L31.6964 11.8197C32.0459 11.5053 32.4699 11.2852 32.9281 11.1802C33.2904 11.0922 33.6605 11.0409 34.033 11.0269C34.9025 11.0269 35.5044 11.3014 35.8276 11.849C36.1509 12.3965 36.3139 13.1503 36.3139 14.1257C36.3153 14.9023 36.1814 15.6731 35.9182 16.4038C35.6673 17.1106 35.3036 17.7722 34.8412 18.3628C34.3989 18.9295 33.8456 19.3998 33.2151 19.745ZM41.1878 23.5669H45.6813L49.5089 7.59927H44.9819L41.1878 23.5669ZM46.1676 5.09544C46.6576 5.46298 47.255 5.65886 47.8675 5.65278L47.8661 5.65696C48.278 5.66123 48.6862 5.57912 49.0644 5.41591C49.4296 5.25946 49.7638 5.03858 50.0509 4.76383C50.3378 4.48485 50.569 4.15386 50.7322 3.78849C50.9052 3.41183 50.9936 3.00189 50.9914 2.58743C50.9904 1.81552 50.7378 1.24379 50.2334 0.87223C49.7434 0.504686 49.146 0.30881 48.5335 0.314895C48.1216 0.311641 47.7133 0.392725 47.3338 0.553156C46.9694 0.710988 46.6359 0.932243 46.3488 1.20663C46.0613 1.486 45.8287 1.81684 45.6632 2.18197C45.4919 2.55757 45.4044 2.966 45.4069 3.37885C45.4069 4.15076 45.659 4.72342 46.1676 5.09544ZM58.1476 2.89536L53.4409 3.61989L53.445 3.62965L50.4675 16.1976C50.2365 17.1642 50.0965 18.1503 50.0495 19.1431C49.9934 19.9888 50.1366 20.8359 50.4675 21.6163C50.8095 22.3504 51.3886 22.9482 52.1116 23.3133C52.8844 23.7258 53.9675 23.932 55.3609 23.932C56.2064 23.9461 57.0508 23.8662 57.8786 23.6937C58.5476 23.5432 59.2066 23.351 59.8516 23.1183L59.5158 19.6558C59.0658 19.8154 58.6048 19.9421 58.1364 20.0348C57.6708 20.1281 57.197 20.1748 56.7222 20.1742C56.1342 20.1742 55.6855 20.0919 55.372 19.9289C55.0778 19.7904 54.8454 19.5476 54.7199 19.2476C54.5908 18.9128 54.5393 18.5531 54.5695 18.1956C54.5943 17.7542 54.6653 17.3167 54.7812 16.8901L56.1161 11.3056H61.1251L62.0322 7.60206H56.9911L58.1476 2.89536ZM62.5017 13.3036C62.0516 14.5499 61.8256 15.866 61.8343 17.191L61.8385 17.1952C61.8359 18.0792 61.9646 18.9587 62.2203 19.8049C62.4589 20.6143 62.8798 21.3584 63.4506 21.9799C64.0528 22.6218 64.788 23.1245 65.6047 23.4527C66.4751 23.8168 67.5377 23.9989 68.7927 23.9989C69.6201 24.011 70.4461 23.925 71.2533 23.7425C71.8916 23.5824 72.5197 23.3842 73.1343 23.1489L72.7943 19.536C72.3235 19.7322 71.8356 19.8847 71.3369 19.9916C70.778 20.1134 70.2076 20.1742 69.6356 20.1728C68.4443 20.1728 67.6223 19.8551 67.1778 19.2169C66.731 18.5769 66.5076 17.7409 66.5076 16.7089C66.5076 14.9686 66.9521 13.5781 67.8341 12.5484C68.716 11.5187 69.9018 11.0004 71.4024 11.0004C71.9402 10.9882 72.4768 11.0553 72.995 11.1997C73.4213 11.3278 73.8417 11.4746 74.2559 11.64L75.8053 8.11341C75.1777 7.81759 74.5206 7.58875 73.8449 7.43068C73.0433 7.24858 72.223 7.16159 71.401 7.17151C70.0401 7.15258 68.6906 7.42182 67.4411 7.96154C66.2941 8.46206 65.2642 9.19672 64.4176 10.1184C63.5771 11.0448 62.9262 12.1269 62.5017 13.3036ZM79.0086 23.5028C79.8972 23.8443 80.8436 24.0099 81.7953 23.9905V23.9947C83.275 23.9947 84.5755 23.6858 85.6967 23.0681C86.7884 22.4783 87.7447 21.6667 88.5042 20.6855C89.26 19.7019 89.8359 18.5924 90.2055 17.4084C90.5817 16.2298 90.7753 15.0006 90.7796 13.7634C90.7913 12.8628 90.6582 11.9661 90.3852 11.1077C90.1415 10.3424 89.7447 9.63468 89.219 9.02744C88.6796 8.42587 88.0074 7.95834 87.2558 7.66197C86.3668 7.32212 85.4206 7.15701 84.4691 7.17569C83.034 7.17569 81.7605 7.48502 80.6458 8.10087C79.5566 8.7008 78.5983 9.51228 77.8271 10.4877C77.0518 11.4662 76.4598 12.577 76.0798 13.7662C75.6921 14.9424 75.4932 16.1727 75.4904 17.4112C75.4789 18.3088 75.6111 19.2026 75.882 20.0585C76.1264 20.8236 76.5242 21.531 77.051 22.1374C77.5879 22.7392 78.2584 23.2068 79.0086 23.5028ZM82.2816 11.5717C82.7877 11.1893 83.4072 10.9873 84.0414 10.9976L84.0442 11.0004C84.8941 11.0004 85.4807 11.2833 85.8053 11.8503C86.13 12.4174 86.293 13.2089 86.293 14.219C86.2867 14.8886 86.2011 15.5551 86.038 16.2045C85.8732 16.8814 85.6113 17.531 85.2605 18.1329C84.9339 18.6959 84.4998 19.1892 83.9828 19.5848C83.4775 19.97 82.857 20.1737 82.2217 20.163C81.3703 20.163 80.7851 19.8788 80.4605 19.3145C80.1372 18.7497 79.9756 17.9601 79.9756 16.9458C79.9803 16.2755 80.0664 15.6084 80.232 14.9589C80.3965 14.2821 80.6579 13.6326 81.0081 13.0305C81.3332 12.4657 81.7659 11.9701 82.2816 11.5717ZM91.1836 23.5669H95.6813L99.5046 7.59927H94.9791L91.1836 23.5669ZM96.1662 5.09544C96.6554 5.46354 97.2525 5.65949 97.8647 5.65278C98.2775 5.6572 98.6866 5.57508 99.0657 5.41173C99.4307 5.25469 99.7648 5.03388 100.052 4.75964C100.339 4.48061 100.569 4.14961 100.732 3.78431C100.904 3.40735 100.993 2.99768 100.993 2.58325C100.993 1.81552 100.738 1.24425 100.232 0.868049C99.7416 0.500213 99.1437 0.304322 98.5307 0.310714C98.1193 0.30857 97.7119 0.391095 97.3338 0.553156C96.9688 0.710608 96.6347 0.931896 96.3473 1.20663C96.0594 1.48532 95.8272 1.81634 95.6632 2.18197C95.4909 2.55737 95.4025 2.9658 95.4041 3.37885C95.405 4.15168 95.659 4.72388 96.1662 5.09544ZM103.878 7.97408C103.465 8.10505 103.083 8.22488 102.741 8.3252L102.743 8.32798L99.0685 23.5669H103.593L106.541 11.2122C107.13 11.0919 107.73 11.0303 108.331 11.0283C108.939 11.0283 109.388 11.1439 109.683 11.3766C109.97 11.6052 110.168 11.9279 110.24 12.2879C110.324 12.7185 110.33 13.1608 110.257 13.5934C110.185 14.0894 110.09 14.5994 109.967 15.1261L107.964 23.5669H112.488L114.547 14.9394C115.133 12.5521 114.976 10.6697 114.075 9.29218C113.174 7.91463 111.538 7.22585 109.169 7.22585C108.445 7.22157 107.721 7.25785 107.001 7.33454C106.42 7.39661 105.843 7.48963 105.272 7.6132C104.803 7.71167 104.338 7.83196 103.878 7.97408ZM14.8951 0.364989C12.5935 -0.208827 10.1733 -0.0872342 7.94072 0.714392C5.70814 1.51602 3.7634 2.96167 2.35242 4.86855C0.941447 6.77543 0.127606 9.05789 0.013812 11.4273C-0.0999818 13.7967 0.491383 16.1466 1.71313 18.18C2.93487 20.2133 4.73212 21.8386 6.8776 22.8505C9.02309 23.8624 11.4205 24.2154 13.7665 23.8648C16.1126 23.5142 18.3021 22.4758 20.058 20.8808C21.8139 19.2859 23.0574 17.2061 23.6314 14.9045C24.0125 13.3762 24.0888 11.7878 23.856 10.23C23.6232 8.67216 23.0858 7.17547 22.2746 5.82534C21.4633 4.47522 20.3941 3.2981 19.1279 2.36121C17.8618 1.42432 16.4235 0.746004 14.8951 0.364989ZM17.2847 10.2939C17.1119 11.4615 16.464 12.0272 15.6044 12.2265C16.7845 12.8409 17.385 13.7842 16.8138 15.4186C16.1032 17.4473 14.4158 17.6187 12.1712 17.1951L11.6264 19.3771L10.3097 19.0497L10.8475 16.8956C10.5061 16.8106 10.1578 16.7214 9.79832 16.6169L9.2591 18.7807L7.94518 18.4519L8.48997 16.2658C8.38541 16.2388 8.28037 16.2114 8.17473 16.1837L8.17449 16.1837C7.96912 16.13 7.76151 16.0758 7.55086 16.0233L5.83845 15.597L6.49193 14.0922C6.49193 14.0922 7.46726 14.3499 7.44776 14.3304C7.50795 14.3499 7.57139 14.3573 7.63444 14.3521C7.69749 14.3469 7.75889 14.3293 7.81511 14.3003C7.87132 14.2713 7.92124 14.2314 7.96198 14.183C8.00271 14.1346 8.03347 14.0787 8.05246 14.0183L8.91215 10.567L9.05149 10.6018C9.00619 10.584 8.95961 10.5696 8.91215 10.5587L9.5294 8.10081C9.54473 7.82214 9.44859 7.46823 8.91494 7.33447C8.93584 7.32193 7.95911 7.0976 7.95911 7.0976L8.31023 5.69172L10.1216 6.14456L10.2736 6.18198L10.2736 6.18199C10.5016 6.23826 10.7296 6.29453 10.9576 6.34241L11.4954 4.18134L12.8121 4.50878L12.2826 6.62805C12.6356 6.70793 12.9872 6.7906 13.3374 6.87606L13.8627 4.77073L15.178 5.09816L14.6457 7.2648C16.308 7.83886 17.523 8.69715 17.2847 10.2939ZM11.2793 10.8163L11.9342 8.18848C12.0142 8.209 12.1133 8.23125 12.2259 8.25655C13.1606 8.46648 15.0289 8.8861 14.6832 10.2701C14.3441 11.6305 12.3972 11.1126 11.4999 10.8738L11.4999 10.8738C11.4166 10.8517 11.3424 10.8319 11.2793 10.8163ZM10.2266 15.0397L10.9497 12.1416C11.0394 12.164 11.149 12.1887 11.2732 12.2166C12.3836 12.4662 14.6592 12.9776 14.277 14.5103C13.9037 16.01 11.5558 15.3897 10.4825 15.1062C10.3861 15.0807 10.3 15.058 10.2266 15.0397Z" fill="#656777"/>
</svg>
