<svg width="110" height="24" viewBox="0 0 110 24" fill="none" xmlns="http://www.w3.org/2000/svg">
<path fill-rule="evenodd" clip-rule="evenodd" d="M12.8936 0C10.5202 0 8.20015 0.703787 6.22676 2.02236C4.25337 3.34094 2.7153 5.21508 1.80705 7.4078C0.8988 9.60051 0.66116 12.0133 1.12418 14.3411C1.58721 16.6688 2.7301 18.807 4.40833 20.4853C6.08656 22.1635 8.22475 23.3064 10.5525 23.7694C12.8803 24.2324 15.2931 23.9948 17.4858 23.0865C19.6785 22.1783 21.5527 20.6402 22.8712 18.6668C24.1898 16.6934 24.8936 14.3734 24.8936 12C24.8936 8.8174 23.6293 5.76515 21.3789 3.51472C19.1284 1.26428 16.0762 0 12.8936 0ZM13.2693 19.1788H8.46154V12.789H6.7668V11.2217H8.46154V4.83328H12.5957L12.6784 4.83299C13.8901 4.82698 20.0335 4.79654 20.0335 12.1167C20.0335 19.7464 13.2693 19.1788 13.2693 19.1788ZM37.0281 7.98948C33.97 8.60806 31.8741 11.2381 31.8808 14.4423C31.8808 14.4817 31.8799 14.5212 31.8789 14.5608C31.8769 14.6454 31.8748 14.73 31.8821 14.8114C31.9814 15.9989 32.2377 17.1341 33.2132 17.9392C34.4504 18.967 36.3853 18.9912 37.8882 17.9875C38.2277 17.758 38.4289 17.6735 38.5403 18.1606C38.6329 18.5551 38.8932 18.6329 39.2756 18.5551C39.8252 18.4423 40.3807 18.3607 40.9395 18.3109C41.3085 18.28 41.3743 18.1794 41.2629 17.8211C40.8592 16.5867 40.7984 15.2658 41.0871 13.9995C41.4281 12.5559 41.777 11.1145 42.1259 9.67303C42.2521 9.15168 42.3783 8.63034 42.5041 8.1089C42.8816 6.55595 43.2555 5.00435 43.6258 3.45408C43.6311 3.43214 43.6375 3.40952 43.6439 3.38689C43.688 3.23099 43.7324 3.07412 43.4125 3.12802C42.6163 3.26399 41.8157 3.38699 41.0106 3.49702C40.7208 3.53728 40.6054 3.66878 40.541 3.95995C40.4035 4.58225 40.2538 5.202 40.1039 5.82205L40.1039 5.82227L40.1038 5.8225L40.1038 5.82275C39.9655 6.39506 39.8271 6.96762 39.6983 7.54265C39.6205 7.88615 39.5078 8.03376 39.1186 7.9452C38.4266 7.81088 37.7138 7.82598 37.0281 7.98948ZM35.1186 15.6419C34.2156 13.919 35.3065 10.2223 38.2209 10.2961C38.242 10.2965 38.2628 10.2964 38.2836 10.2962H38.2837C38.3253 10.2959 38.3668 10.2956 38.4088 10.3001C38.9952 10.3323 39.0086 10.3498 38.8744 10.9147C38.8009 11.2232 38.7243 11.5311 38.6476 11.839L38.6475 11.8395C38.3645 12.9761 38.0815 14.1126 37.958 15.2823C37.9563 15.2963 37.9562 15.3117 37.9561 15.3271C37.9559 15.3605 37.9557 15.3945 37.9392 15.4165C37.7735 15.6528 37.557 15.8489 37.3055 15.9903C37.0539 16.1317 36.7739 16.2149 36.486 16.2337C35.9358 16.2793 35.4071 16.1921 35.1186 15.6419ZM59.0956 17.3587C58.3854 17.6946 57.5939 17.8203 56.8145 17.721C55.046 17.4996 53.9671 16.2826 53.8625 14.4201C53.6719 10.867 55.8377 8.29467 59.3908 7.83039C60.897 7.63357 62.4285 7.82813 63.8377 8.39531C64.0846 8.49192 64.2174 8.5939 64.1423 8.90386C63.6919 10.7467 63.2479 12.5912 62.8039 14.4356C62.5429 15.5202 62.2818 16.6047 62.0195 17.6888C61.9446 17.9742 61.855 18.2554 61.7511 18.5315C60.9916 20.661 59.4848 21.874 57.2291 22.1008C55.7424 22.2497 54.2771 22.1612 52.8642 21.564C52.5045 21.4124 52.4361 21.2782 52.6173 20.9267C52.8541 20.4544 53.0599 19.9672 53.2332 19.4681C53.3566 19.1273 53.4787 19.028 53.8598 19.1997C54.9157 19.6873 56.098 19.8309 57.2399 19.6103C57.7604 19.5046 58.2288 19.2232 58.5666 18.8133C58.9044 18.4034 59.0912 17.8899 59.0956 17.3587ZM56.7823 13.7546L56.7866 13.8329C56.8122 14.3147 56.844 14.9106 57.4532 15.2172C58.1564 15.5674 58.8487 15.3889 59.5089 15.0441C59.5917 15.0003 59.6638 14.9388 59.7199 14.8638C59.7761 14.7889 59.8149 14.7024 59.8336 14.6107L59.9947 13.9383C60.2559 12.8475 60.517 11.7572 60.7864 10.6697C60.8642 10.3557 60.7568 10.2752 60.4509 10.2484C58.3335 10.0578 56.7971 11.4627 56.7823 13.7546ZM109.401 12.0471C109.181 12.6877 109.033 13.3466 108.885 14.0042L108.885 14.0043C108.811 14.3371 108.736 14.6695 108.652 14.9991C108.393 16.0216 108.142 17.0467 107.915 18.0773C107.852 18.3657 107.733 18.457 107.446 18.4503C106.714 18.4342 105.98 18.4355 105.248 18.4503C104.951 18.4503 104.875 18.3845 104.95 18.0759C105.398 16.2363 105.827 14.3913 106.254 12.5476C106.357 12.1722 106.405 11.784 106.398 11.3949C106.36 10.6891 105.983 10.3081 105.284 10.2692C104.036 10.1994 103.972 10.2517 103.685 11.458C103.496 12.2503 103.306 13.0421 103.116 13.8339L103.115 13.8372L103.114 13.8408L103.113 13.8448C102.775 15.2525 102.437 16.6601 102.108 18.0705C102.044 18.3483 101.943 18.4597 101.648 18.453C100.915 18.4342 100.182 18.4382 99.4498 18.453C99.1653 18.453 99.0593 18.4006 99.1371 18.084C99.6258 16.0912 100.108 14.0934 100.591 12.0956L100.592 12.0904L100.596 12.0747C100.859 10.9855 101.122 9.89629 101.386 8.8079C101.389 8.79423 101.392 8.7805 101.396 8.76677C101.426 8.63627 101.455 8.50669 101.629 8.44963C103.324 7.89143 105.051 7.60696 106.827 7.89814C108.169 8.11954 109.045 8.89243 109.316 10.2665C109.322 10.2925 109.346 10.314 109.37 10.3355C109.381 10.345 109.392 10.3545 109.401 10.3644V12.0471ZM87.6611 18.709C85.0123 18.709 83.5095 17.3068 83.4075 14.7251C83.3203 12.5084 84.0408 10.5574 85.7557 9.06127C87.1203 7.86972 88.7211 7.51413 90.4722 7.88582C92.0824 8.22665 93.0874 9.34842 93.3062 11.1867C93.6014 13.6664 92.9036 15.8402 90.9566 17.5121C90.0496 18.3145 88.8716 18.7423 87.6611 18.709ZM86.3367 14.0019L86.341 14.1477V14.1478C86.3525 14.5527 86.3616 14.8705 86.4481 15.184C86.6681 15.973 87.2062 16.334 88.0193 16.2213C88.756 16.118 89.2686 15.6845 89.651 15.0888C90.3154 14.0617 90.5804 12.8267 90.3957 11.6175C90.2615 10.552 89.6269 10.0864 88.5762 10.2904C88.2078 10.3689 87.8714 10.5558 87.6101 10.8271C86.6789 11.7315 86.3823 12.8721 86.3367 13.9979V14.0019ZM42.9735 15.0256C43.1748 17.4878 44.6427 18.7089 47.058 18.7089C48.3261 18.7009 49.2506 18.4137 50.214 17.72C52.3354 16.2037 53.4519 12.9202 52.6951 10.4258C52.3261 9.21275 51.576 8.33788 50.3428 7.97424C48.84 7.53546 47.364 7.65891 46.0288 8.5311C43.682 10.0608 42.7548 12.3419 42.9735 15.0256ZM49.9777 12.3533C49.9737 12.2822 49.9705 12.2104 49.9674 12.1381C49.9612 11.9968 49.9549 11.8537 49.9416 11.7112C49.8182 10.4083 48.734 9.84207 47.5867 10.4862C47.3285 10.6313 47.1007 10.8249 46.9158 11.0564C45.9644 12.252 45.6947 13.6193 45.9671 15.0819C46.1389 16.0132 46.7534 16.3607 47.6874 16.1849C48.0877 16.111 48.455 15.914 48.738 15.6213C49.6335 14.7191 49.9357 13.5892 49.9777 12.3533ZM68.9888 18.6991C68.1729 18.7193 67.4296 18.6575 66.7251 18.365C65.2799 17.7639 64.5996 16.6206 64.4118 15.1231C64.0401 12.1564 65.822 8.69174 69.2652 7.89604C70.0539 7.69034 70.8815 7.68573 71.6724 7.88262C72.7566 8.17916 73.551 8.8219 73.7966 9.95173C74.0743 11.2614 73.755 12.4261 72.715 13.3264C71.8348 14.0873 70.7573 14.3905 69.6355 14.5663C68.9743 14.6767 68.3052 14.7337 67.6349 14.7367C67.3383 14.7367 67.2981 14.8494 67.3665 15.1003C67.5396 15.7833 68.0857 16.1899 68.9458 16.2449C69.8194 16.3085 70.697 16.2047 71.5315 15.939C71.8415 15.837 71.9153 15.9269 71.9341 16.2073L71.9441 16.3639V16.3641C71.9753 16.8552 72.0064 17.346 72.0683 17.8323C72.1072 18.1007 71.9985 18.1866 71.7758 18.255C70.8767 18.5519 69.9356 18.7019 68.9888 18.6991ZM68.2873 12.6695L68.2874 12.6695C68.4966 12.6497 68.7728 12.6235 69.0424 12.571C69.6382 12.4542 70.2394 12.3295 70.7412 11.9537C70.9352 11.808 71.0785 11.6049 71.1507 11.3733C71.223 11.1416 71.2205 10.8931 71.1438 10.6629C70.968 10.1865 70.5695 10.0899 70.124 10.0873C68.9686 10.0873 67.9596 10.8789 67.5181 12.1456C67.3209 12.7186 67.3209 12.7186 68.0938 12.6891C68.1477 12.6828 68.2133 12.6765 68.2873 12.6695ZM77.1316 18.4407C77.7406 18.6398 78.3789 18.7346 79.0196 18.7212C79.4115 18.7114 79.8026 18.6796 80.191 18.6259C80.5145 18.571 80.8316 18.4774 81.1485 18.3839L81.1487 18.3838L81.1489 18.3838L81.1491 18.3837C81.2657 18.3493 81.3824 18.3148 81.4993 18.2824C81.6871 18.23 81.8361 18.1616 81.8079 17.904C81.7575 17.4546 81.7229 17.0028 81.6883 16.5518L81.6882 16.5507L81.688 16.5479C81.6776 16.4116 81.6671 16.2755 81.6563 16.1395C81.6361 15.8979 81.5489 15.8214 81.2953 15.9181C80.7374 16.1255 80.1461 16.2283 79.5509 16.2213C78.2909 16.2253 77.6992 15.6738 77.5382 14.43C77.4933 13.983 77.5046 13.5323 77.5717 13.0881C77.7529 11.5974 78.6962 10.5239 80.0528 10.2998C80.7945 10.1618 81.5605 10.2492 82.252 10.5507C82.4963 10.6594 82.6049 10.5977 82.7016 10.3615C82.931 9.80198 83.1779 9.2478 83.4342 8.69899C83.5469 8.46015 83.555 8.32194 83.2598 8.21862C81.086 7.4484 78.9713 7.50476 77.0672 8.87612C74.9108 10.4286 74.2386 12.6601 74.5351 15.2096C74.7163 16.801 75.6086 17.8906 77.1316 18.4407ZM95.1401 18.4506C95.0158 18.4506 94.8915 18.4493 94.767 18.4479C94.5177 18.4453 94.268 18.4426 94.0183 18.4506C93.7271 18.4627 93.6453 18.3983 93.7231 18.0816C94.1166 16.4764 94.4955 14.867 94.8742 13.2581L94.8743 13.2579L94.8743 13.2578L94.8744 13.2575L94.8748 13.2558C94.9828 12.797 95.0908 12.3383 95.1991 11.8797C95.3055 11.425 95.4144 10.9708 95.5233 10.5165L95.5238 10.5143L95.5242 10.5124L95.5243 10.5123L95.5243 10.5122C95.6898 9.82152 95.8554 9.13067 96.0123 8.43787C96.0794 8.13998 96.18 7.99909 96.5275 8.01653C97.2284 8.05276 97.9307 8.05276 98.6315 8.01653C99.0448 7.99507 99.0488 8.15743 98.9723 8.47276C98.2791 11.3353 97.5898 14.201 96.9046 17.0699C96.8799 17.1733 96.8524 17.2765 96.825 17.3797L96.8248 17.3804C96.7643 17.6076 96.7038 17.835 96.6725 18.0655C96.6268 18.401 96.4618 18.4681 96.1666 18.4506C95.9404 18.4444 95.7125 18.4465 95.4839 18.4485C95.3694 18.4496 95.2547 18.4506 95.1401 18.4506ZM96.3951 5.24349C96.3749 6.14788 97.0029 6.73963 97.9851 6.74768C98.2505 6.75427 98.5145 6.70832 98.762 6.61247C99.0095 6.51662 99.2356 6.37277 99.4273 6.18919C99.619 6.00561 99.7725 5.78593 99.8789 5.5428C99.9854 5.29966 100.043 5.03788 100.048 4.77251C100.048 3.88019 99.3967 3.27637 98.4373 3.27637C97.3598 3.27771 96.4165 4.18747 96.3951 5.24349ZM11.1758 7.46289H13.0544C13.7642 7.46289 17.3402 7.74467 17.3469 12.158C17.3535 16.5255 13.7541 16.5221 13.184 16.5216C13.178 16.5216 13.1724 16.5216 13.1671 16.5216V16.5404H11.1758V12.7833H14.1815V11.22H11.1758V7.46289Z" fill="#656777"/>
</svg>
