<svg width="86" height="24" viewBox="0 0 86 24" fill="none" xmlns="http://www.w3.org/2000/svg">
<path fill-rule="evenodd" clip-rule="evenodd" d="M8.4098 23.9554C8.48897 23.9817 8.57174 23.9956 8.65517 23.9967L8.66074 24C8.74419 24 8.82695 23.9849 8.905 23.9554C8.95142 23.9396 8.99593 23.9186 9.03772 23.8929L16.6084 19.3748C16.7157 19.3097 16.8043 19.218 16.8659 19.1086C16.9274 18.9992 16.9597 18.8758 16.9597 18.7503C16.9598 18.6905 16.9527 18.631 16.9385 18.5729L14.3064 7.67085C14.2853 7.58575 14.2474 7.50573 14.1949 7.43552L9.29312 0.297579C9.2213 0.204946 9.12923 0.129972 9.02397 0.0783934C8.91872 0.0268151 8.80305 0 8.68584 0C8.56862 0 8.45296 0.0268151 8.3477 0.0783934C8.24244 0.129972 8.15038 0.204946 8.07856 0.297579L3.17123 7.43552C3.11791 7.50773 3.07995 7.59009 3.0597 7.67754L0.424242 18.5707C0.408506 18.63 0.400631 18.6911 0.400821 18.7525C0.400979 18.8788 0.43383 19.0029 0.496176 19.1127C0.558523 19.2226 0.648241 19.3144 0.756602 19.3793L8.27039 23.884C8.31593 23.9131 8.36456 23.937 8.41538 23.9554H8.4098ZM9.91992 21.6534L13.3517 10.2126L15.3414 18.3989L9.91992 21.6534ZM7.39711 21.6534L1.97563 18.3989L3.96979 10.2126L7.39711 21.6534ZM8.65405 20.7121L4.73265 7.73219L8.65517 2.01626L12.5766 7.73219L8.65405 20.7121ZM58.6681 4.93024C57.8933 4.64992 56.9446 4.50977 55.8218 4.50977C54.7013 4.51051 53.7526 4.65141 52.9756 4.93247C52.2311 5.19123 51.5807 5.66614 51.1075 6.29648C50.6398 6.92626 50.2944 7.76496 50.0713 8.8126C49.8483 9.86025 49.7368 11.1432 49.7368 12.6615C49.7397 14.1783 49.8513 15.4609 50.0713 16.5093C50.2914 17.5577 50.6368 18.3964 51.1075 19.0254C51.58 19.6569 52.2306 20.1327 52.9756 20.3917C53.7496 20.6727 54.6984 20.8133 55.8218 20.8133C56.9453 20.8133 57.8941 20.6727 58.6681 20.3917C59.4126 20.1324 60.0628 19.6567 60.5351 19.0254C61.005 18.3957 61.3463 17.557 61.5589 16.5093C61.7716 15.4617 61.8779 14.1791 61.8779 12.6615C61.8787 11.1432 61.7723 9.86025 61.5589 8.8126C61.3455 7.76496 61.0043 6.92626 60.5351 6.29648C60.0624 5.66559 59.4124 5.18992 58.6681 4.93024ZM53.1451 6.49724C53.8054 6.0645 54.6976 5.84813 55.8218 5.84813V5.85259C56.952 5.85185 57.8416 6.06822 58.4907 6.5017C59.1399 6.93518 59.6049 7.6434 59.886 8.62635C60.167 9.61302 60.3076 10.9566 60.3076 12.6571C60.3076 14.3575 60.167 15.7007 59.886 16.6866C59.6049 17.6733 59.138 18.383 58.4852 18.8158C57.8323 19.2485 56.9446 19.4649 55.8218 19.4649C54.6976 19.4649 53.8054 19.2485 53.1451 18.8158C52.4849 18.383 52.0179 17.6733 51.7443 16.6866C51.4714 15.7 51.335 14.3568 51.335 12.6571C51.335 10.9573 51.4714 9.61376 51.7443 8.62635C52.0179 7.63968 52.4849 6.92997 53.1451 6.49724ZM32.3237 4.7832H30.0686C29.2328 4.7832 28.561 5.01853 28.0532 5.48919C27.5454 5.95985 27.2914 6.58962 27.2914 7.37851V17.9415C27.29 18.7163 27.5439 19.3427 28.0532 19.8208C28.5625 20.2989 29.2343 20.538 30.0686 20.538C30.8121 20.5372 31.5638 20.5335 32.3237 20.5268C33.0828 20.5194 33.8379 20.5079 34.5889 20.4922C35.3398 20.4766 36.0722 20.4461 36.786 20.4008L36.718 19.2621H30.3195C29.8184 19.2628 29.4351 19.1226 29.1696 18.8416C28.9042 18.5605 28.7715 18.1546 28.7715 17.6237V12.7755H35.8068V11.5687H28.7715V7.69749C28.7715 7.1666 28.9042 6.76435 29.1696 6.49073C29.4351 6.21711 29.8184 6.0803 30.3195 6.0803H36.718L36.786 4.91927C36.073 4.87317 35.3406 4.83897 34.5889 4.81666C33.8372 4.79436 33.0821 4.7832 32.3237 4.7832ZM79.9563 4.53182C80.6998 4.54744 81.4512 4.58461 82.2103 4.64335C82.9695 4.70209 83.7286 4.80098 84.4878 4.94002L84.3762 6.03302C83.707 5.98766 82.9936 5.95049 82.236 5.92149C81.4783 5.89249 80.7418 5.87725 80.0265 5.87576C79.4042 5.87576 78.8692 5.89844 78.4216 5.94379C78.0352 5.97111 77.6589 6.07981 77.3175 6.26277C77.0141 6.44879 76.7907 6.74097 76.6907 7.08252C76.562 7.46172 76.4977 7.99298 76.4977 8.67628C76.4977 9.64734 76.6646 10.3344 76.9985 10.7374C77.3323 11.1404 77.8863 11.4173 78.6603 11.5683L81.9627 12.2508C83.1472 12.494 83.9706 12.9572 84.4331 13.6405C84.8956 14.3238 85.1272 15.2952 85.1279 16.5548C85.1279 17.4805 85.0216 18.2207 84.809 18.7753C84.6308 19.2833 84.3011 19.7244 83.8643 20.039C83.3865 20.3497 82.8462 20.5515 82.2817 20.6301C81.5355 20.7442 80.7813 20.7976 80.0265 20.7896C79.48 20.7896 78.8045 20.7669 78 20.7215C77.0769 20.6625 76.1574 20.556 75.2452 20.4026L75.3568 19.3096C76.1308 19.3408 76.7799 19.3676 77.3041 19.3899C77.8283 19.4122 78.3027 19.4274 78.7272 19.4356C79.1518 19.4438 79.5979 19.4475 80.0656 19.4468C80.9459 19.4311 81.6445 19.3568 82.1612 19.2237C82.678 19.0906 83.046 18.8174 83.2654 18.4039C83.4884 17.9935 83.6 17.3708 83.6 16.5358C83.6 15.8533 83.5279 15.3183 83.3836 14.9309C83.2559 14.5623 83.007 14.2478 82.6776 14.0387C82.2887 13.8107 81.8598 13.6592 81.414 13.5925L78.0681 12.8865C76.9438 12.659 76.1505 12.1999 75.688 11.5092C75.2255 10.8184 74.995 9.86668 74.9965 8.65398C74.9965 7.72679 75.0991 6.9866 75.3044 6.43341C75.5096 5.88022 75.8133 5.46644 76.2156 5.19208C76.6793 4.8967 77.2055 4.7134 77.7524 4.65674C78.4836 4.56751 79.2197 4.52579 79.9563 4.53182Z" fill="#656777"/>
</svg>
