<svg width="106" height="24" viewBox="0 0 106 24" fill="none" xmlns="http://www.w3.org/2000/svg">
<path fill-rule="evenodd" clip-rule="evenodd" d="M7.62831 0L15.1276 12.2206L7.62831 16.5752L0.12796 12.2206L7.62831 0ZM43.4121 8.93761C42.6371 8.93757 41.8822 9.18373 41.2562 9.64056V3.40487C41.2559 3.15202 41.1553 2.90961 40.9765 2.73082C40.7977 2.55203 40.5553 2.45146 40.3025 2.45117C40.0504 2.45429 39.8095 2.55573 39.6312 2.73389C39.4528 2.91204 39.3511 3.1528 39.3477 3.40487V17.3051C39.3467 17.4429 39.3756 17.5792 39.4323 17.7047C39.489 17.8302 39.5722 17.9419 39.6762 18.0322C39.7842 18.1238 39.9109 18.1908 40.0474 18.2286C40.1839 18.2664 40.327 18.2741 40.4667 18.2512C40.6894 18.2121 40.8909 18.095 41.0349 17.9208C41.179 17.7466 41.2563 17.5268 41.2529 17.3008V14.1254C41.2529 14.1123 41.2529 14.0488 41.243 13.9743C41.243 13.9407 41.2384 13.9043 41.2348 13.8766L41.2348 13.8766C41.2329 13.8619 41.2314 13.8498 41.231 13.8418V13.8024C41.1686 12.84 41.4182 11.9826 41.9164 11.4527C42.2887 11.0552 42.7924 10.8527 43.4143 10.8527C44.6352 10.8527 45.1914 12.0089 45.1914 13.0831V17.3051C45.1899 17.4308 45.2136 17.5556 45.261 17.672C45.3084 17.7884 45.3786 17.8942 45.4674 17.9832C45.5562 18.0721 45.6619 18.1424 45.7783 18.1899C45.8947 18.2375 46.0194 18.2613 46.1451 18.2599C46.398 18.2594 46.6404 18.1585 46.8192 17.9796C46.998 17.8006 47.0985 17.5581 47.0988 17.3051V13.0754C47.101 11.0695 45.8089 8.93761 43.4121 8.93761ZM34.4638 9.07722H35.6212C35.7467 9.07708 35.871 9.10166 35.987 9.14957C36.1031 9.19747 36.2085 9.26776 36.2974 9.35642C36.3863 9.44508 36.4568 9.55038 36.505 9.6663C36.5531 9.78221 36.578 9.90648 36.5781 10.032C36.5795 10.1577 36.5557 10.2824 36.5081 10.3988C36.4606 10.5152 36.3903 10.6209 36.3014 10.7097C36.2124 10.7985 36.1066 10.8687 35.9902 10.9161C35.8738 10.9635 35.749 10.9872 35.6233 10.9857H34.466V17.3418C34.4629 17.5939 34.3614 17.8348 34.1833 18.0131C34.0051 18.1915 33.7644 18.2932 33.5123 18.2966C33.2594 18.296 33.017 18.1952 32.8382 18.0163C32.6594 17.8373 32.5589 17.5948 32.5586 17.3418V10.9813H31.4713C31.3457 10.9826 31.2211 10.9589 31.1048 10.9114C30.9885 10.864 30.8829 10.7938 30.7941 10.7049C30.7052 10.6161 30.635 10.5105 30.5876 10.3941C30.5401 10.2778 30.5163 10.1532 30.5177 10.0276C30.5208 9.77556 30.6222 9.53468 30.8004 9.35633C30.9785 9.17797 31.2193 9.07625 31.4713 9.07284H32.5586V7.13918C32.5555 6.91333 32.6329 6.69376 32.777 6.5198C32.921 6.34584 33.1223 6.22888 33.3448 6.18987C33.4846 6.16671 33.6277 6.1743 33.7642 6.21212C33.9008 6.24994 34.0274 6.31708 34.1353 6.40885C34.2392 6.49897 34.3224 6.61052 34.3791 6.73583C34.4358 6.86115 34.4647 6.99725 34.4638 7.1348V9.07722ZM23.7153 8.91602H23.7229C26.18 8.91602 28.1826 11.0413 28.1936 13.6604C28.1927 13.9161 28.0904 14.1611 27.9092 14.3415C27.7279 14.522 27.4825 14.6231 27.2267 14.6229H21.3502C21.6852 15.628 22.5218 16.5138 23.7196 16.5138C24.7051 16.5138 25.3927 16.1645 25.9402 15.3795C26.0642 15.192 26.2502 15.0542 26.4656 14.9901C26.681 14.926 26.9121 14.9398 27.1183 15.0291C27.2631 15.0913 27.3898 15.1889 27.487 15.3128C27.5842 15.4368 27.6487 15.5832 27.6746 15.7386C27.7095 15.9481 27.674 16.1634 27.5738 16.3507L27.5574 16.3824C26.8326 17.646 25.3577 18.4311 23.7153 18.4311C21.2626 18.4311 19.2676 16.297 19.2676 13.6735C19.2676 11.0501 21.2626 8.91602 23.7153 8.91602ZM23.7229 10.8234C22.5185 10.8234 21.6841 11.7103 21.3502 12.7155H26.0979C25.7639 11.6994 24.8989 10.8234 23.7229 10.8234ZM88.0839 9.15909L88.1047 9.16566C88.2986 9.23087 88.4671 9.3554 88.5864 9.52163C88.7057 9.68786 88.7697 9.88739 88.7693 10.092V17.3503C88.7693 17.6034 88.6689 17.8461 88.4901 18.0251C88.3113 18.2041 88.0687 18.3048 87.8157 18.3051C87.6194 18.3072 87.4275 18.2479 87.2665 18.1357C87.1056 18.0234 86.9837 17.8637 86.9178 17.6788C86.5593 17.9715 86.1463 18.1903 85.7028 18.3225C85.2592 18.4547 84.7939 18.4977 84.3336 18.449C83.8733 18.4004 83.4273 18.261 83.0212 18.039C82.6151 17.8169 82.257 17.5166 81.9676 17.1554C81.3676 16.4021 81.0391 15.4003 81.0391 14.3327V10.0788C81.0425 9.82696 81.1441 9.58636 81.3222 9.40824C81.5003 9.23012 81.7409 9.12855 81.9928 9.12514C82.2456 9.12543 82.488 9.22601 82.6668 9.4048C82.8456 9.58359 82.9462 9.82599 82.9465 10.0788V14.3283C82.9465 15.4024 83.5027 16.5576 84.7236 16.5576C86.6145 16.5576 86.8576 14.5407 86.8576 12.7833V10.0745C86.8587 9.92523 86.8945 9.7783 86.9621 9.64528C87.0298 9.51226 87.1274 9.39679 87.2474 9.308C87.3653 9.21928 87.5025 9.15957 87.6479 9.1337C87.7932 9.10783 87.9426 9.11653 88.0839 9.15909ZM54.5346 8.91602H54.5269C52.0742 8.91602 50.0782 11.0501 50.0782 13.6735C50.0782 16.297 52.0742 18.4311 54.5269 18.4311C56.1693 18.4311 57.6442 17.646 58.3691 16.3824L58.3855 16.3507C58.4857 16.1634 58.5211 15.9481 58.4862 15.7386C58.4603 15.5832 58.3958 15.4368 58.2986 15.3128C58.2015 15.1889 58.0747 15.0913 57.93 15.0291C57.7237 14.9398 57.4926 14.926 57.2772 14.9901C57.0618 15.0542 56.8758 15.192 56.7518 15.3795C56.2044 16.1645 55.5167 16.5138 54.5313 16.5138C53.3334 16.5138 52.4969 15.628 52.1618 14.6229H58.0373C58.2931 14.6231 58.5387 14.522 58.7201 14.3416C58.9015 14.1612 59.0041 13.9162 59.0052 13.6604C58.9997 11.0413 56.9949 8.91602 54.5346 8.91602ZM52.1618 12.7155C52.4969 11.7092 53.3334 10.8234 54.5313 10.8234C55.7072 10.8234 56.5723 11.6994 56.9062 12.7155H52.1618ZM100.232 9.32711C100.744 9.07225 101.307 8.93892 101.879 8.9375C104.275 8.9375 105.568 11.0562 105.566 13.049V17.305C105.566 17.5582 105.465 17.8009 105.286 17.9799C105.107 18.1589 104.864 18.2595 104.611 18.2598C104.485 18.2612 104.361 18.2374 104.244 18.1898C104.128 18.1423 104.022 18.072 103.933 17.9831C103.845 17.8941 103.774 17.7883 103.727 17.6719C103.68 17.5555 103.656 17.4307 103.657 17.305V13.049C103.657 12.2311 103.283 10.8449 101.881 10.8449C100.193 10.8449 99.7462 12.9253 99.7462 14.0202V17.305C99.7462 17.5581 99.6458 17.8008 99.467 17.9798C99.2881 18.1588 99.0456 18.2595 98.7925 18.2598C98.6668 18.2612 98.5421 18.2374 98.4258 18.1898C98.3094 18.1423 98.2037 18.072 98.1148 17.9831C98.026 17.8941 97.9558 17.7883 97.9084 17.6719C97.861 17.5555 97.8374 17.4307 97.8388 17.305V13.049C97.8388 12.2311 97.4644 10.8449 96.0617 10.8449C95.4321 10.8449 94.9537 11.0266 94.6 11.3924C94.1062 11.9037 93.8664 12.7753 93.9058 13.9107V13.9184C93.9175 14.003 93.9175 14.0889 93.9058 14.1735V17.2963C93.9089 17.5234 93.8305 17.7442 93.6849 17.9185C93.5393 18.0929 93.336 18.2093 93.112 18.2467C93.0591 18.2554 93.0057 18.2598 92.9521 18.2598C92.7225 18.2611 92.5 18.1803 92.3247 18.0321C92.2206 17.9419 92.1374 17.8301 92.0807 17.7046C92.024 17.5791 91.9952 17.4428 91.9962 17.305V10.0445C91.9931 9.81864 92.0705 9.59906 92.2145 9.42511C92.3586 9.25115 92.5599 9.13418 92.7824 9.09517C92.9221 9.07201 93.0653 9.07961 93.2018 9.11743C93.3384 9.15525 93.465 9.22239 93.5729 9.31416C93.6897 9.41419 93.7803 9.54123 93.8368 9.68425C94.4774 9.20209 95.2578 8.94186 96.0595 8.94297C96.6203 8.9375 97.1741 9.06778 97.6737 9.3227C98.1732 9.57761 98.6037 9.9496 98.9283 10.4069C99.274 9.95149 99.7201 9.58197 100.232 9.32711ZM73.5912 8.91602H73.5825C71.1298 8.91602 69.1348 11.0501 69.1348 13.6735C69.1348 16.297 71.1298 18.4311 73.5825 18.4311C75.2249 18.4311 76.7008 17.646 77.4246 16.3824L77.4421 16.3507C77.5423 16.1634 77.5777 15.9481 77.5429 15.7386C77.517 15.5832 77.4525 15.4368 77.3553 15.3128C77.2581 15.1889 77.1313 15.0913 76.9866 15.0291C76.7804 14.9398 76.5493 14.926 76.3339 14.9901C76.1184 15.0542 75.9324 15.192 75.8085 15.3795C75.261 16.1645 74.5734 16.5138 73.5868 16.5138C72.3901 16.5138 71.5535 15.628 71.2185 14.6229H77.0896C77.3454 14.6231 77.5909 14.522 77.7724 14.3416C77.9538 14.1612 78.0563 13.9162 78.0575 13.6604C78.052 11.0413 76.0483 8.91602 73.5912 8.91602ZM71.2185 12.7155C71.5535 11.7092 72.3901 10.8234 73.5868 10.8234C74.7639 10.8234 75.6289 11.6994 75.9629 12.7155H71.2185ZM64.0069 9.89455C64.619 9.41606 65.3668 9.081 66.1661 9.081C66.4315 9.07759 66.6875 9.17867 66.8789 9.3624C66.9661 9.44589 67.0355 9.54617 67.083 9.6572C67.1304 9.76822 67.1548 9.88769 67.1549 10.0084C67.1621 10.2477 67.0788 10.4809 66.9218 10.6615C66.7647 10.8421 66.5453 10.9569 66.3074 10.9829C64.2379 11.2829 64.0189 13.2593 64.0189 14.0947V17.2701C64.0223 17.4961 63.9451 17.7159 63.801 17.8901C63.6569 18.0643 63.4554 18.1814 63.2328 18.2205C63.1788 18.2292 63.1243 18.2336 63.0696 18.2336C62.9436 18.2352 62.8185 18.2117 62.7017 18.1643C62.5849 18.1169 62.4787 18.0467 62.3894 17.9578C62.3 17.8689 62.2294 17.763 62.1815 17.6464C62.1336 17.5299 62.1094 17.4049 62.1105 17.2788V10.0424C62.1076 9.81642 62.1852 9.59683 62.3295 9.42289C62.4737 9.24896 62.6751 9.13203 62.8977 9.09305C63.0375 9.07004 63.1806 9.07771 63.3171 9.11552C63.4536 9.15334 63.5803 9.22039 63.6883 9.31204C63.8607 9.46184 63.9738 9.66851 64.0069 9.89455ZM7.62831 17.9643L0.12796 13.6152L7.62831 23.9997L15.1276 13.6152L7.62831 17.9698V17.9643Z" fill="#656777"/>
</svg>
