<svg width="109" height="24" viewBox="0 0 109 24" fill="none" xmlns="http://www.w3.org/2000/svg">
<path fill-rule="evenodd" clip-rule="evenodd" d="M12.5645 7.45293e-08C14.9379 -0.000264388 17.2581 0.703299 19.2317 2.02171C21.2052 3.34013 22.7435 5.21418 23.652 7.40687C24.5604 9.59956 24.7983 12.0124 24.3354 14.3403C23.8725 16.6681 22.7297 18.8064 21.0516 20.4848C19.3734 22.1632 17.2352 23.3062 14.9074 23.7693C12.5796 24.2325 10.1667 23.9949 7.97391 23.0867C5.78111 22.1785 3.90689 20.6404 2.58825 18.667C1.26962 16.6936 0.565796 14.3734 0.565796 12C0.565796 8.81763 1.82989 5.76559 4.08004 3.51519C6.33019 1.26479 9.38209 0.000354987 12.5645 7.45293e-08ZM10.6621 4.6194L8.7959 11.6722L7.51028 12.1699L6.89222 14.4843L8.17784 13.9987L7.1076 18.0334H18.5859L19.3738 15.0395H12.4668L13.2548 12.1057L14.515 11.6321L15.133 9.31772L13.8715 9.80334L15.2414 4.61538H10.6621V4.6194ZM29.7679 19.3272L32.9077 4.33594H35.9847L33.3773 16.8162H41.0027L40.481 19.3219L29.7679 19.3272ZM47.6643 8.46704H44.7346L42.4603 19.3272H45.3901L47.6643 8.46704ZM48.5286 4.33594H45.5934L45.0356 6.99413H47.976L48.5286 4.33594ZM49.015 10.6452L49.4645 8.46731H50.896L51.2545 6.72818L54.619 4.7041L53.8311 8.46731H55.621L55.1689 10.6452H53.3695L52.4184 15.1937C52.2489 16.0196 52.1637 16.4901 52.1628 16.6051C52.1578 16.7034 52.1744 16.8016 52.2116 16.8927C52.2489 16.9838 52.3058 17.0656 52.3782 17.1322C52.5214 17.2579 52.7796 17.3208 53.1555 17.3208C53.2893 17.3208 53.609 17.2981 54.1267 17.2499L53.6665 19.4279C53.1547 19.5307 52.634 19.5822 52.112 19.5817C51.0757 19.5817 50.3225 19.3819 49.8525 18.9824C49.3825 18.5828 49.1479 18.0294 49.1488 17.3222C49.1488 16.9886 49.275 16.2185 49.5274 15.0118L50.4371 10.6452H49.015ZM58.4671 14.8092H65.825C65.9677 14.1822 66.0359 13.5405 66.0283 12.8975C66.0292 11.4179 65.6372 10.2674 64.8524 9.44598C64.0675 8.62457 63.0111 8.21387 61.6831 8.21387C59.598 8.21387 57.9926 8.99781 56.8671 10.5657C56.0433 11.7231 55.6103 13.1131 55.631 14.5336C55.6318 16.0533 56.0885 17.2752 57.0009 18.1992C57.9132 19.1231 59.0994 19.5851 60.5594 19.5851C61.5747 19.5982 62.573 19.3231 63.4383 18.7918C64.2936 18.2638 64.9768 17.4714 65.4878 16.4145L62.8577 15.9798C62.3164 16.9893 61.5583 17.4941 60.5835 17.4941C60.2989 17.4974 60.0169 17.4393 59.7568 17.3239C59.4966 17.2085 59.2643 17.0384 59.0758 16.8252C58.6628 16.382 58.4564 15.7992 58.4564 15.0768C58.4564 15.0502 58.4583 15.019 58.4605 14.9832L58.4605 14.983C58.4635 14.934 58.4671 14.8763 58.4671 14.8092ZM63.3607 12.7209C63.3607 12.7891 63.358 12.8828 63.3514 13.0165H58.7601C58.9295 12.1229 59.2546 11.4482 59.7353 10.9925C59.9488 10.7764 60.203 10.6047 60.483 10.4872C60.7631 10.3696 61.0637 10.3086 61.3674 10.3075C61.6388 10.2956 61.9095 10.3435 62.1603 10.4478C62.4111 10.552 62.6359 10.7101 62.8189 10.9109C63.1801 11.3149 63.3607 11.9182 63.3607 12.7209ZM74.2623 15.2361L77.1091 15.6963C76.64 16.9646 75.9448 17.9291 75.0235 18.59C74.0902 19.2552 72.9681 19.6031 71.8222 19.5826C70.4389 19.5826 69.3415 19.1702 68.5299 18.3452C67.7183 17.5202 67.3143 16.3862 67.3178 14.9432C67.3127 13.7875 67.5645 12.6451 68.055 11.5987C68.5288 10.5677 69.3022 9.70342 70.2744 9.11841C71.2518 8.51824 72.3782 8.20488 73.5252 8.21406C74.8068 8.21406 75.8293 8.54807 76.5928 9.21607C77.3562 9.88408 77.7861 10.7635 77.8824 11.8542L75.0904 12.1512C75.0226 11.5438 74.8367 11.0979 74.5326 10.8134C74.2078 10.5189 73.7799 10.3646 73.3419 10.384C72.7546 10.3916 72.1907 10.6155 71.758 11.0127C71.2674 11.4355 70.8906 12.0678 70.6275 12.9097C70.3778 13.6747 70.2452 14.473 70.2342 15.2776C70.2342 15.9189 70.3912 16.413 70.7051 16.7599C70.8509 16.9278 71.0318 17.0615 71.235 17.1517C71.4382 17.2419 71.6588 17.2862 71.881 17.2816C72.3791 17.2709 72.8585 17.0907 73.2402 16.7706C73.679 16.4299 74.0197 15.9184 74.2623 15.2361ZM80.6836 10.001C79.5492 11.1997 78.9819 12.805 78.9819 14.8171C78.9759 15.6559 79.1738 16.4837 79.5585 17.2291C79.95 17.9812 80.5696 18.59 81.3284 18.9682C82.172 19.39 83.1053 19.6007 84.0482 19.5823C85.9327 19.5823 87.4413 18.9402 88.574 17.6559C89.6888 16.4008 90.291 14.7724 90.2609 13.094C90.2582 11.6001 89.8083 10.4122 88.9111 9.53012C88.0139 8.64806 86.7626 8.20704 85.1572 8.20704C83.3093 8.20436 81.8181 8.80236 80.6836 10.001ZM86.7372 11.0485C87.143 11.4677 87.3459 12.0251 87.3459 12.7208H87.3405C87.3414 14.1174 86.9516 15.3036 86.1713 16.2793C85.6237 16.9678 84.9485 17.3121 84.1458 17.3121C83.8464 17.3193 83.5489 17.2619 83.2737 17.1437C82.9985 17.0255 82.7521 16.8493 82.5512 16.6271C82.1284 16.1705 81.9171 15.5533 81.9171 14.7756C81.9322 14.0702 82.0707 13.373 82.3264 12.7154C82.6011 11.9707 82.986 11.4012 83.481 11.007C83.9574 10.6203 84.5543 10.4125 85.1679 10.4197C85.4589 10.409 85.7489 10.4595 86.0192 10.5678C86.2895 10.6761 86.5341 10.8398 86.7372 11.0485ZM93.6095 8.46704H96.5446L94.2703 19.3272H91.3392L93.6095 8.46704ZM94.4683 4.33594H97.4034L96.8509 6.99413H93.9158L94.4683 4.33594ZM102.25 8.4665H99.4688L97.1986 19.3267H100.134L101.063 14.8678C101.336 13.5657 101.582 12.7033 101.801 12.2806C102.084 11.7058 102.51 11.213 103.038 10.8491C103.562 10.4879 104.04 10.3073 104.47 10.3073C104.637 10.2973 104.806 10.3206 104.964 10.3757C105.123 10.4308 105.27 10.5166 105.395 10.6284C105.509 10.7451 105.597 10.8841 105.654 11.0365C105.711 11.1889 105.736 11.3515 105.727 11.514C105.728 11.6906 105.633 12.2391 105.441 13.1595L104.152 19.3267H107.088L108.365 13.1809C108.59 12.116 108.702 11.3932 108.702 11.0123C108.703 10.1668 108.446 9.48858 107.93 8.97754C107.415 8.4665 106.711 8.21099 105.819 8.21099C105.164 8.20808 104.515 8.33824 103.912 8.59359C103.201 8.91933 102.544 9.35199 101.964 9.87654L102.25 8.4665Z" fill="#656777"/>
</svg>
