<svg width="81" height="24" viewBox="0 0 81 24" fill="none" xmlns="http://www.w3.org/2000/svg">
<path fill-rule="evenodd" clip-rule="evenodd" d="M0.733043 0.112791C0.57696 0.0905834 0.420512 0.0683235 0.274653 0H0.246826C0.252248 0.0180719 0.257425 0.0362254 0.2626 0.0543721C0.276549 0.103286 0.290485 0.152151 0.309158 0.199239C2.20063 4.95576 4.09285 9.71264 5.98581 14.4699C7.08033 17.2199 8.17411 19.9714 9.26714 22.7244C9.38439 23.0085 9.49605 23.2926 9.60933 23.5808L9.60944 23.5811L9.60948 23.5812C9.66391 23.7197 9.71872 23.8591 9.7747 24C9.84963 23.9096 9.9192 23.8284 9.98639 23.7499L9.98664 23.7496L9.9867 23.7495L9.98676 23.7494C10.0163 23.715 10.0453 23.6811 10.0741 23.6472L11.3797 22.0466C11.8198 21.5078 12.2624 20.9684 12.7076 20.4282L14.0077 18.8476C14.4485 18.3118 14.8881 17.7761 15.3267 17.2403L16.4643 15.8534C16.6154 15.67 16.767 15.4867 16.9186 15.3033L16.9187 15.3031L16.9189 15.3029L16.9191 15.3027L16.9192 15.3025L16.9194 15.3023L16.9196 15.3021L16.9203 15.3012L16.9211 15.3003C17.1181 15.062 17.3152 14.8236 17.5116 14.5845C17.7202 14.3304 17.9268 14.0775 18.134 13.8238L18.1349 13.8227C18.3574 13.5501 18.5808 13.2766 18.8084 12.9995C19.0241 12.7368 19.2422 12.4731 19.4596 12.2102L19.4599 12.2098C19.6855 11.9371 19.9103 11.6653 20.1307 11.3967C20.3284 11.1558 20.5256 10.9142 20.7228 10.6727L20.7233 10.6721L20.7237 10.6716L20.7246 10.6705L20.7246 10.6705L20.7246 10.6705L20.7246 10.6705L20.7247 10.6704L20.7247 10.6704L20.7247 10.6704L20.7247 10.6704L20.7247 10.6704C20.9588 10.3837 21.1928 10.097 21.4274 9.8117C21.6431 9.54883 21.8596 9.2866 22.0761 9.02435L22.0763 9.02414L22.0765 9.02393L22.0766 9.02372L22.0768 9.02351L22.077 9.0233L22.0771 9.02309L22.0773 9.02289L22.0775 9.02268L22.0779 9.02223C22.3558 8.68556 22.6338 8.34886 22.91 8.01076C23.0654 7.82061 23.0606 7.81608 22.8884 7.6534L22.8755 7.64122C22.0326 6.84204 21.1911 6.04174 20.3511 5.24033C20.1658 5.06369 19.9814 4.88646 19.797 4.7093L19.796 4.7084C19.4102 4.33773 19.0247 3.96731 18.6325 3.603C18.606 3.57827 18.5808 3.55146 18.5554 3.52448L18.5553 3.52446C18.4676 3.43128 18.378 3.33619 18.2296 3.31806C18.0711 3.29825 17.9141 3.26731 17.7572 3.23641C17.6761 3.22044 17.5951 3.20447 17.5139 3.19006C17.1746 3.12857 16.8351 3.0678 16.4956 3.00703L16.4955 3.00702L16.4954 3.007L16.4953 3.00699L16.4953 3.00698L16.4952 3.00697L16.4951 3.00695L16.495 3.00694L16.495 3.00693L16.4949 3.00691C15.9926 2.91701 15.4903 2.8271 14.9883 2.73481C14.5963 2.66314 14.2044 2.58874 13.8122 2.51431C13.4127 2.43848 13.013 2.36261 12.613 2.28958C12.2121 2.21639 11.8107 2.14519 11.4091 2.07396L11.409 2.07395L11.4089 2.07394L11.4089 2.07392L11.4088 2.07391L11.4087 2.0739L11.4086 2.07388L11.4086 2.07387L11.4085 2.07385C11.0164 2.00431 10.6241 1.93475 10.2322 1.86328C9.84865 1.79332 9.46581 1.72168 9.0829 1.65002L9.08289 1.65002L9.08287 1.65002L9.08286 1.65001L9.08284 1.65001L9.08249 1.64994C8.77097 1.59165 8.4594 1.53334 8.14739 1.47593C7.89819 1.43022 7.65051 1.38581 7.40367 1.34155C7.09154 1.28559 6.78077 1.22987 6.47 1.17206C6.12228 1.10808 5.77483 1.04299 5.42739 0.977893L5.42736 0.977888L5.42733 0.977883L5.4273 0.977878L5.42728 0.977873L5.42725 0.977868L5.42722 0.977863L5.4272 0.977858L5.42706 0.977833C5.0795 0.912718 4.73194 0.847603 4.38411 0.783601C4.09066 0.729237 3.79599 0.676716 3.5017 0.624263L3.50169 0.624261L3.50168 0.624259L3.50166 0.624257L3.50165 0.624255L3.50164 0.624253L3.50163 0.624251L3.50162 0.624249L3.50161 0.624247C3.23556 0.576828 2.96983 0.529464 2.7056 0.480846C2.5097 0.443744 2.31367 0.407507 2.11765 0.371271C1.7256 0.298797 1.33355 0.226324 0.942495 0.146925C0.873417 0.132764 0.803267 0.122783 0.733043 0.112791ZM13.3423 8.78457L13.3221 8.79325L13.3255 8.79603L13.3446 8.78784C13.3441 8.78681 13.3433 8.78572 13.3423 8.78457ZM13.4745 8.78434C13.4317 8.7988 13.3854 8.79885 13.3425 8.78448L13.3454 8.78323C13.365 8.72704 13.4095 8.69588 13.4538 8.66489L13.4539 8.66488C13.4701 8.65351 13.4863 8.64217 13.5013 8.62963C14.9816 7.40005 16.4591 6.16789 17.9335 4.93312C18.0448 4.84074 18.096 4.83629 18.2073 4.94091C18.8826 5.59412 19.5635 6.23962 20.2438 6.88464L20.2439 6.88467L20.2439 6.88471L20.2439 6.88475L20.244 6.88478L20.244 6.88482L20.2441 6.88486L20.2441 6.8849L20.2441 6.88493C20.4216 7.05317 20.599 7.22137 20.7763 7.38967C20.7842 7.3969 20.7913 7.40531 20.8015 7.41741L20.8016 7.41744C20.8087 7.4258 20.8172 7.43593 20.8286 7.44866L19.5931 7.67127L14.6867 8.56173C14.2826 8.63742 13.8786 8.71199 13.4745 8.78434ZM2.76014 2.90511L2.78796 2.88508V2.88396L2.84948 2.93355C2.9161 2.9872 2.98291 3.041 3.04842 3.09545C5.67452 5.27335 8.301 7.45051 10.9278 9.62693C10.9681 9.65418 10.9995 9.69264 11.0181 9.73756C11.0367 9.78248 11.0417 9.83187 11.0325 9.8796C10.9026 10.9229 10.775 11.9666 10.6496 13.0107C10.516 14.1237 10.3821 15.2368 10.2478 16.3499L9.80253 19.974C9.78904 20.1245 9.76222 20.2735 9.72239 20.4193L2.76014 2.90511ZM20.6229 8.79319C20.5962 8.79147 20.5693 8.79149 20.5425 8.79325L18.5168 9.16056C16.491 9.52787 14.4648 9.8937 12.4383 10.258C12.2958 10.2836 12.2435 10.3304 12.2279 10.4807C12.1474 11.2139 12.0582 11.9455 11.9689 12.6776L11.9185 13.0919C11.8027 14.061 11.6855 15.0309 11.5667 16.0015C11.4525 16.9535 11.336 17.9067 11.2172 18.861C11.17 19.2515 11.1233 19.6421 11.0745 20.0506L11.0236 20.4771C13.5486 17.4067 16.0551 14.3549 18.564 11.3L20.6229 8.79319ZM3.70291 1.97792L3.71404 1.94231L16.6757 4.32427L15.477 5.32604C14.2318 6.36045 12.9881 7.39709 11.7459 8.43595C11.6591 8.5083 11.6068 8.5339 11.5011 8.44597C9.12133 6.47139 6.74085 4.49717 4.35962 2.52333L3.70291 1.97792ZM80.174 19.0018C80.203 19.0369 80.2357 19.0763 80.2925 19.0763L80.2891 5.80074C80.1556 5.80074 80.0219 5.80185 79.8883 5.80296C79.6208 5.80519 79.3531 5.80742 79.0859 5.80074C78.9445 5.7974 78.9156 5.8397 78.9156 5.97326V15.3153V15.5312C78.6551 15.2425 78.4081 14.9731 78.1648 14.7077L78.1635 14.7063C78.0714 14.6058 77.9798 14.506 77.8882 14.4059C77.6313 14.1205 77.3751 13.8344 77.119 13.5482L77.1186 13.5478L77.1182 13.5473L77.1178 13.5468L77.1174 13.5464L77.117 13.5459L77.1165 13.5455C76.8609 13.2599 76.6053 12.9743 76.3489 12.6895C76.2191 12.5452 76.0885 12.4024 75.9579 12.2595L75.9537 12.2549L75.953 12.2542C75.786 12.0715 75.6187 11.8886 75.4528 11.7022C75.1743 11.3928 74.8968 11.0823 74.6193 10.7719L74.615 10.7671L74.613 10.7649L74.6122 10.7639L74.6118 10.7635L74.6115 10.7632L74.6112 10.7628C74.3824 10.5069 74.1537 10.2511 73.9246 9.9959C73.7512 9.8034 73.5773 9.61158 73.4034 9.41983L73.4032 9.41956L73.4029 9.41928L73.4027 9.41901L73.4024 9.41873L73.4022 9.41846L73.4019 9.41819L73.4017 9.41791L73.401 9.41717L73.4004 9.41656L73.4002 9.41627C73.1891 9.18344 72.9781 8.95071 72.7681 8.71698C72.1596 8.04098 71.5519 7.3646 70.9449 6.68785C70.8055 6.53252 70.6669 6.37696 70.5283 6.22149C70.358 6.03047 70.1878 5.83958 70.0166 5.64936C69.9224 5.54527 69.8274 5.44143 69.7303 5.33536L69.7286 5.33342L69.7225 5.32677L69.7212 5.3254L69.7203 5.3244C69.612 5.20595 69.501 5.08464 69.3855 4.95703V5.08503V18.108C69.3855 18.2037 69.4055 18.2348 69.5068 18.2348H70.5308C70.6327 18.2348 70.6831 18.2348 70.708 18.2097C70.7323 18.185 70.7323 18.1364 70.7323 18.0401V8.68248C70.7215 8.62806 70.7294 8.57161 70.7546 8.52219C70.8106 8.61492 70.8804 8.69861 70.9616 8.77041C71.0061 8.81922 71.0512 8.86718 71.0963 8.91515L71.0965 8.91528L71.0965 8.91533C71.1666 8.98982 71.2368 9.06435 71.3044 9.14217C71.483 9.35599 71.6709 9.5612 71.8589 9.76649L71.8589 9.76653L71.859 9.7666C71.9146 9.82737 71.9703 9.88814 72.0257 9.94915L72.0907 10.0206L72.2002 10.1408C72.3523 10.3074 72.5046 10.4744 72.6535 10.6426C72.8949 10.915 73.1388 11.1862 73.3829 11.4575L73.6229 11.7245C73.7163 11.8284 73.8108 11.9315 73.9054 12.0346C74.0285 12.1689 74.1516 12.3031 74.2719 12.4391C74.3932 12.5768 74.5163 12.7128 74.6393 12.8488C74.8244 13.0533 75.0094 13.2576 75.1879 13.4676C75.4031 13.7201 75.627 13.9647 75.8502 14.2088L75.9804 14.3513C76.1233 14.5102 76.2695 14.6674 76.416 14.8249C76.604 15.027 76.7924 15.2295 76.9744 15.4366C77.018 15.4861 77.0633 15.5356 77.1086 15.585L77.1086 15.5851L77.1087 15.5851L77.1087 15.5852L77.1087 15.5852L77.1088 15.5853L77.1088 15.5853L77.1089 15.5854C77.1654 15.6471 77.2219 15.7088 77.2749 15.7705C77.5123 16.0541 77.7601 16.3221 78.0092 16.5916L78.0093 16.5917L78.0095 16.5919L78.0363 16.6209L78.0774 16.6652L78.1126 16.7028L78.1131 16.7034L78.1137 16.7041C78.1966 16.7927 78.2794 16.8813 78.3557 16.9737C78.5273 17.1801 78.7087 17.3784 78.8903 17.577C78.9527 17.6451 79.015 17.7133 79.077 17.7818C79.118 17.8271 79.1603 17.8721 79.2026 17.9172C79.283 18.0028 79.3636 18.0887 79.4365 18.177C79.5522 18.3106 79.6713 18.4413 79.7904 18.572L79.7905 18.5721L79.7905 18.5721L79.7906 18.5722L79.7906 18.5723C79.9146 18.7083 80.0386 18.8444 80.1589 18.9839C80.1637 18.9894 80.1685 18.9951 80.1734 19.001L80.1736 19.0014L80.1739 19.0017L80.174 19.0018ZM52.1181 18.2396H50.6711C50.582 18.2396 50.5498 18.194 50.5152 18.1283C50.3238 17.761 50.1309 17.3941 49.9365 17.0275L49.6788 16.538C49.4811 16.162 49.2833 15.7858 49.0838 15.4102C48.9841 15.2218 48.884 15.0334 48.7839 14.845C48.5588 14.4212 48.3336 13.9974 48.1132 13.5737C48.0947 13.5264 48.0611 13.4867 48.0176 13.4605C47.9741 13.4343 47.9232 13.4232 47.8728 13.429C46.9445 13.4349 46.0169 13.4349 45.0901 13.429C44.9721 13.429 44.9399 13.459 44.9399 13.5792V18.0771C44.9399 18.2107 44.9076 18.243 44.7762 18.2396C44.4256 18.2296 44.0739 18.233 43.7222 18.2396C43.6331 18.2396 43.6042 18.2207 43.6042 18.1283V12.2012C43.6042 12.0799 43.6568 12.0799 43.7431 12.0799L43.7478 12.0799H48.2646C49.0226 12.0799 49.6337 11.766 50.1268 11.2229C50.4266 10.8913 50.6204 10.4777 50.6833 10.0352C50.7361 9.71269 50.7243 9.38291 50.6487 9.06496C50.5731 8.74701 50.4352 8.44722 50.243 8.18293C50.0508 7.91864 49.808 7.69511 49.5288 7.52528C49.2496 7.35545 48.9394 7.2427 48.6163 7.19354C48.4548 7.17123 48.2919 7.16118 48.1288 7.16349H42.6748C42.5512 7.16349 42.52 7.19021 42.52 7.3171V18.0282C42.52 18.1358 42.52 18.19 42.4929 18.2174C42.4653 18.2452 42.4097 18.2452 42.2974 18.2452H41.319C41.2155 18.2452 41.1832 18.2218 41.1844 18.1139V16.5344V5.98809C41.1844 5.85118 41.2066 5.80555 41.358 5.80666H41.3585C43.6668 5.80666 45.9752 5.80666 48.2847 5.81334C48.8173 5.80529 49.3453 5.91276 49.8324 6.12835C50.3195 6.34395 50.7541 6.66254 51.1063 7.0622C51.6227 7.62045 51.9509 8.32666 52.0446 9.08131C52.1629 9.9436 51.9851 10.8205 51.5403 11.5686C51.0954 12.3167 50.4099 12.8918 49.5958 13.1997C49.5068 13.2331 49.4845 13.2475 49.5357 13.3399C50.1435 14.4752 50.7483 15.6117 51.3501 16.7492C51.5927 17.2078 51.835 17.666 52.0769 18.1239C52.1012 18.1578 52.1155 18.198 52.1181 18.2396ZM54.4575 12.7611C54.7469 15.5093 57.1411 18.2096 60.566 18.2341C62.2039 18.2599 63.7856 17.6379 64.9673 16.5035C66.149 15.3691 66.8349 13.814 66.876 12.1764C66.9171 10.5389 66.31 8.95136 65.1867 7.75913C64.0634 6.5669 62.5148 5.86641 60.8777 5.81002C58.9777 5.75325 57.3459 6.41219 56.0603 7.80575C54.7747 9.19931 54.2605 10.8778 54.4575 12.7611ZM64.0727 8.62288C64.9831 9.52261 65.5031 10.7444 65.5203 12.0243C65.5187 12.667 65.39 13.3031 65.1415 13.8959C64.893 14.4887 64.5298 15.0265 64.0726 15.4783C63.6154 15.9301 63.0733 16.287 62.4776 16.5285C61.8819 16.7699 61.2444 16.8911 60.6016 16.8851C57.9548 16.8851 55.7665 14.6801 55.7732 12.0087C55.7944 10.7289 56.3183 9.50876 57.2316 8.61194C58.145 7.71512 59.3744 7.21356 60.6544 7.21561C61.9344 7.21765 63.1622 7.72314 64.0727 8.62288ZM33.0127 5.80666H38.3109C38.4389 5.80666 38.4667 5.84006 38.4634 5.96249C38.4545 6.31311 38.4578 6.66485 38.4634 7.01547C38.4634 7.11453 38.4467 7.15238 38.3354 7.15238H27.6789C27.5754 7.15238 27.5553 7.11898 27.5564 7.02437C27.562 6.67375 27.5642 6.32202 27.5564 5.9714C27.5564 5.84562 27.5776 5.80555 27.7156 5.80666C28.8929 5.80815 30.0726 5.80765 31.2502 5.80716H31.2503H31.2504H31.2505H31.2506H31.2507H31.2523H31.2539H31.2555H31.2571H31.2587C31.8441 5.80691 32.429 5.80666 33.0127 5.80666ZM32.4675 18.0817V13.852C32.466 12.451 32.4653 11.0485 32.4653 9.6446C32.4664 9.53997 32.4519 9.50101 32.3306 9.50101C32.0902 9.5062 31.8494 9.50447 31.6083 9.50274C31.4877 9.50188 31.3671 9.50101 31.2465 9.50101C31.1497 9.4999 31.1218 9.5255 31.1218 9.62567V18.1095C31.1218 18.223 31.1619 18.2364 31.2587 18.2364C31.6105 18.2297 31.9622 18.2275 32.3128 18.2364C32.4386 18.2397 32.4675 18.2074 32.4675 18.0817ZM34.882 13.872V18.0816C34.882 18.2052 34.8553 18.2408 34.7284 18.2374C34.3778 18.2274 34.0261 18.2308 33.6755 18.2374C33.5719 18.2374 33.5408 18.2174 33.5408 18.1083V9.62784C33.5408 9.53211 33.5619 9.49983 33.6632 9.50206C33.7819 9.50206 33.9007 9.5028 34.0194 9.50354H34.0195C34.2569 9.50503 34.4943 9.50651 34.7318 9.50206C34.8431 9.50206 34.8809 9.52766 34.8809 9.64787C34.8794 11.0555 34.8798 12.4636 34.882 13.872ZM72.2019 11.9025L71.8412 11.502C71.8318 11.5156 71.8247 11.5306 71.8201 11.5465V18.1459C71.8201 18.2427 71.8679 18.2427 71.9392 18.2427C72.0632 18.2427 72.187 18.2421 72.3108 18.2415H72.3111C72.5584 18.2402 72.8053 18.239 73.0522 18.2427C73.1491 18.2438 73.1802 18.2204 73.1802 18.1192V13.0825C73.1828 13.0557 73.1799 13.0287 73.1717 13.003C73.1634 12.9774 73.1501 12.9537 73.1324 12.9334C72.823 12.5926 72.5148 12.2502 72.2031 11.9039L72.2021 11.9027L72.2019 11.9025ZM60.034 12.6407C60.1957 12.8082 60.416 12.9063 60.6486 12.9145C60.8812 12.9063 61.1016 12.8082 61.2632 12.6407C61.4249 12.4733 61.5153 12.2496 61.5153 12.0168C61.5153 11.7841 61.4249 11.5604 61.2632 11.393C61.1016 11.2255 60.8812 11.1273 60.6486 11.1191C60.416 11.1273 60.1957 11.2255 60.034 11.393C59.8723 11.5604 59.782 11.7841 59.782 12.0168C59.782 12.2496 59.8723 12.4733 60.034 12.6407Z" fill="#656777"/>
</svg>
