<svg width="105" height="104" viewBox="0 0 105 104" fill="none" xmlns="http://www.w3.org/2000/svg">
<path d="M66.5382 97.127C91.4612 89.3739 105.38 62.8848 97.627 37.9618C89.8739 13.0388 63.3848 -0.880085 38.4618 6.87301C13.5388 14.6261 -0.380084 41.1153 7.37301 66.0383C15.1261 90.9612 41.6153 104.88 66.5382 97.127Z" fill="url(#paint0_linear_320_24712)"/>
<path d="M66.5382 97.127C91.4612 89.3739 105.38 62.8848 97.627 37.9618C89.8739 13.0388 63.3848 -0.880085 38.4618 6.87301C13.5388 14.6261 -0.380084 41.1153 7.37301 66.0383C15.1261 90.9612 41.6153 104.88 66.5382 97.127Z" fill="url(#paint1_linear_320_24712)"/>
<path fill-rule="evenodd" clip-rule="evenodd" d="M15.2438 23.2759C17.1392 23.5199 19.0655 23.321 20.8711 22.6949C22.6767 22.0687 24.3125 21.0323 25.6499 19.6672C30.717 14.9214 29.8519 10.4598 29.8519 10.4598C24.1072 13.6169 19.1215 17.9909 15.2438 23.2759V23.2759Z" fill="white"/>
<g style="mix-blend-mode:soft-light">
<path fill-rule="evenodd" clip-rule="evenodd" d="M89.6068 75.801C89.6068 75.801 89.6933 70.1159 94.402 67.2487C94.4955 68.9821 94.0944 70.7064 93.2454 72.2206C92.3964 73.7348 91.1345 74.9765 89.6068 75.801V75.801Z" fill="#F0FFF4"/>
</g>
<g clip-path="url(#clip0_320_24712)">
<path fill-rule="evenodd" clip-rule="evenodd" d="M60.7942 55.1908V59.5206C60.6438 61.6385 59.7069 63.6202 58.172 65.0668C56.6371 66.5135 54.6181 67.3177 52.5214 67.3177C50.4247 67.3177 48.4058 66.5135 46.8709 65.0668C45.336 63.6202 44.3991 61.6385 44.2487 59.5206V55.1908C44.3991 57.3088 45.336 59.2904 46.8709 60.737C48.4058 62.1837 50.4247 62.9879 52.5214 62.9879C54.6181 62.9879 56.6371 62.1837 58.172 60.737C59.7069 59.2904 60.6438 57.3088 60.7942 55.1908ZM60.7942 74.9779V79.6974C60.6438 81.8153 59.7069 83.797 58.172 85.2436C56.6371 86.6902 54.6181 87.4944 52.5214 87.4944C50.4247 87.4944 48.4058 86.6902 46.8709 85.2436C45.336 83.797 44.3991 81.8153 44.2487 79.6974V74.9779C44.1669 76.1288 44.3202 77.2844 44.6989 78.3726C45.0776 79.4608 45.6737 80.4584 46.4499 81.3031C47.2261 82.1477 48.1658 82.8214 49.2104 83.282C50.255 83.7426 51.3821 83.9804 52.5214 83.9804C53.6607 83.9804 54.7879 83.7426 55.8325 83.282C56.8771 82.8214 57.8168 82.1477 58.593 81.3031C59.3692 80.4584 59.9653 79.4608 60.344 78.3726C60.7227 77.2844 60.876 76.1288 60.7942 74.9779Z" fill="#7F3E4F"/>
<path fill-rule="evenodd" clip-rule="evenodd" d="M60.7942 55.1908V59.5206C60.6438 61.6385 59.7069 63.6202 58.172 65.0668C56.6371 66.5135 54.6181 67.3177 52.5214 67.3177C50.4247 67.3177 48.4058 66.5135 46.8709 65.0668C45.336 63.6202 44.3991 61.6385 44.2487 59.5206V55.1908C44.3991 57.3088 45.336 59.2904 46.8709 60.737C48.4058 62.1837 50.4247 62.9879 52.5214 62.9879C54.6181 62.9879 56.6371 62.1837 58.172 60.737C59.7069 59.2904 60.6438 57.3088 60.7942 55.1908ZM60.7942 74.9779V79.6974C60.6438 81.8153 59.7069 83.797 58.172 85.2436C56.6371 86.6902 54.6181 87.4944 52.5214 87.4944C50.4247 87.4944 48.4058 86.6902 46.8709 85.2436C45.336 83.797 44.3991 81.8153 44.2487 79.6974V74.9779C44.1669 76.1288 44.3202 77.2844 44.6989 78.3726C45.0776 79.4608 45.6737 80.4584 46.4499 81.3031C47.2261 82.1477 48.1658 82.8214 49.2104 83.282C50.255 83.7426 51.3821 83.9804 52.5214 83.9804C53.6607 83.9804 54.7879 83.7426 55.8325 83.282C56.8771 82.8214 57.8168 82.1477 58.593 81.3031C59.3692 80.4584 59.9653 79.4608 60.344 78.3726C60.7227 77.2844 60.876 76.1288 60.7942 74.9779Z" fill="url(#paint2_radial_320_24712)"/>
<path fill-rule="evenodd" clip-rule="evenodd" d="M52.4787 67.2039C54.1228 67.1953 55.7322 67.6817 57.1027 68.6014C58.4732 69.5211 59.5429 70.8325 60.1759 72.3691C60.809 73.9057 60.9768 75.5982 60.6582 77.2316C60.3395 78.8651 59.5486 80.3657 58.3861 81.5431C57.2236 82.7204 55.7418 83.5213 54.1289 83.844C52.5161 84.1667 50.8449 83.9967 49.3276 83.3556C47.8103 82.7145 46.5154 81.6312 45.6073 80.2433C44.6992 78.8553 44.2188 77.2253 44.2273 75.5603C44.2385 73.3476 45.1115 71.2286 46.6565 69.664C48.2015 68.0993 50.2938 67.2152 52.4787 67.2039ZM52.4787 16.5454C54.6785 16.5454 56.788 17.4303 58.3435 19.0056C59.8989 20.5809 60.7729 22.7174 60.7729 24.9451V55.6C60.6224 57.718 59.6855 59.6996 58.1506 61.1463C56.6157 62.5929 54.5967 63.3971 52.5 63.3971C50.4033 63.3971 48.3844 62.5929 46.8495 61.1463C45.3146 59.6996 44.3777 57.718 44.2273 55.6V24.772C44.2273 22.5517 45.0953 20.4217 46.6415 18.8477C48.1878 17.2736 50.2864 16.3836 52.4787 16.3722V16.5454Z" fill="url(#paint3_radial_320_24712)"/>
</g>
<defs>
<linearGradient id="paint0_linear_320_24712" x1="57.8802" y1="98.7342" x2="46.611" y2="5.23149" gradientUnits="userSpaceOnUse">
<stop stop-color="#FFB070"/>
<stop offset="0.21" stop-color="#FFD1AC"/>
<stop offset="1" stop-color="#FFEBDA"/>
</linearGradient>
<linearGradient id="paint1_linear_320_24712" x1="57.8802" y1="98.7342" x2="46.611" y2="5.23149" gradientUnits="userSpaceOnUse">
<stop stop-color="#FFB070"/>
<stop offset="0.21" stop-color="#FFD1AC"/>
<stop offset="1" stop-color="#FFEBDA"/>
</linearGradient>
<radialGradient id="paint2_radial_320_24712" cx="0" cy="0" r="1" gradientUnits="userSpaceOnUse" gradientTransform="translate(51.9401 79.7639) rotate(-3.05351) scale(8.78184 15.5795)">
<stop stop-color="#0E091E"/>
<stop offset="1" stop-color="#944301"/>
</radialGradient>
<radialGradient id="paint3_radial_320_24712" cx="0" cy="0" r="1" gradientUnits="userSpaceOnUse" gradientTransform="translate(52.5196 65.1963) scale(8.99608 35.5361)">
<stop stop-color="#FB8C32"/>
<stop offset="0.99" stop-color="#D16004"/>
</radialGradient>
<clipPath id="clip0_320_24712">
<rect width="16.5455" height="72.0909" fill="white" transform="translate(44.2273 16.5454)"/>
</clipPath>
</defs>
</svg>
