<svg width="48" height="48" viewBox="0 0 48 48" fill="none" xmlns="http://www.w3.org/2000/svg">
<path d="M44.1696 20.5723H43.0633L4.10517 23.2114L3.2664 23.8983L18.5157 28.7934C18.5157 28.7934 34.5313 28.4174 44.1696 20.5723Z" fill="#404C29"/>
<path d="M44.8855 15.8941C38.1177 22.7414 21.4006 24.3466 17.9878 23.8983C12.8541 23.2186 7.92288 20.5433 4.93666 18.6345C3.88823 17.962 3.09287 17.398 2.63735 17.0654L2.34091 16.8413C2.2903 16.8413 2.24691 16.769 2.19629 16.7328L2.63011 16.8051H2.68073C9.73052 17.7523 25.4787 11.4617 25.4787 11.4617C28.3709 12.8645 33.143 13.9635 37.2355 14.7227C37.2341 14.7468 37.2341 14.7709 37.2355 14.795C37.2091 14.8921 37.2091 14.9944 37.2355 15.0915C37.261 15.1977 37.3074 15.2978 37.372 15.3859C37.4365 15.474 37.518 15.5485 37.6115 15.6049C37.8815 15.7358 38.1899 15.764 38.4792 15.6844C38.858 15.6068 39.2284 15.493 39.5855 15.3446C39.7111 15.298 39.8342 15.2449 39.9542 15.1855C42.7958 15.6482 44.8855 15.8941 44.8855 15.8941Z" fill="url(#paint0_linear_2_2341)"/>
<path d="M44.8927 15.8941L44.2564 19.56C44.2564 19.56 33.4106 28.1209 18.4506 27.4774L17.995 23.8983C17.995 23.8983 37.7995 22.886 44.8927 15.8941Z" fill="url(#paint1_linear_2_2341)"/>
<path d="M18.5157 28.7934C18.5157 28.7934 37.0475 25.1781 44.1696 20.5723L43.0706 31.4181C43.0706 31.4181 30.4822 35.3226 18.8844 36.277L18.5157 28.7934Z" fill="url(#paint2_linear_2_2341)"/>
<path d="M18.4506 27.4774C11.314 26.7905 2.99887 22.698 2.99887 22.698L2.73858 20.7747L2.18182 16.7184L2.32644 16.8268L2.62287 17.0654C3.35989 17.6224 4.12495 18.1412 4.91499 18.62V18.62C10.6416 22.0762 17.9734 23.8838 17.9734 23.8838L18.4506 27.4774Z" fill="url(#paint3_linear_2_2341)"/>
<path d="M18.5157 28.7934C18.5157 28.7934 8.21933 24.9468 3.2664 23.8983L4.8788 33.674C4.8788 33.674 15.1534 36.1975 18.8844 36.2409L18.5157 28.7934Z" fill="url(#paint4_linear_2_2341)"/>
<path d="M17.1418 30.3914L18.5879 30.8975C18.5879 30.8975 33.1069 27.933 43.7936 23.9706C43.7936 23.9706 31.1257 29.2055 18.5518 30.1672L17.1418 30.3914Z" fill="#404C29"/>
<path d="M27.6551 18.8803C23.3167 20.5361 17.6336 18.0054 20.1932 16.7111C24.7484 14.3612 32.1163 17.1811 27.6551 18.8803Z" fill="url(#paint5_linear_2_2341)"/>
<path d="M38.9709 17.9403C35.399 17.304 37.4308 16.1399 38.4503 15.6772C38.161 15.7568 37.8526 15.7285 37.5826 15.5976C37.489 15.5412 37.4076 15.4668 37.3431 15.3787C37.2785 15.2905 37.2321 15.1905 37.2066 15.0843L27.684 12.9151C26.4659 13.2736 25.2125 13.4991 23.9458 13.5875C23.2754 13.6397 22.6013 13.6179 21.9357 13.5225C19.7665 14.3612 8.68932 17.1377 8.68932 17.1377C12.1889 18.5115 7.61921 19.3069 7.61921 19.3069L14.6473 22.3003C20.692 21.1435 21.5886 22.8065 21.5886 22.8065C29.6652 23.1391 39.4553 17.9837 39.4553 17.9837L38.9709 17.9403ZM28.9782 19.3864C22.948 21.6641 15.0377 18.1717 18.5807 16.3424C20.3966 15.4616 22.3984 15.0324 24.4158 15.0915C28.971 15.1493 32.7454 17.2607 29.9833 18.9164C29.6548 19.0936 29.3112 19.2412 28.9566 19.3575L28.9782 19.3864Z" fill="#D8EC38"/>
<path d="M27.6551 18.8803C23.3167 20.5361 17.6336 18.0054 20.1932 16.7111C24.7484 14.3612 32.1163 17.1811 27.6551 18.8803Z" fill="url(#paint6_linear_2_2341)"/>
<path d="M27.6551 18.8803C23.3167 20.5361 17.6336 18.0054 20.1932 16.7111C24.7484 14.3612 32.1163 17.1811 27.6551 18.8803Z" fill="#D8EC38"/>
<path d="M18.6169 30.8975C18.6169 30.8975 38.0453 27.6003 45.8182 23.9851L43.8804 23.4139L43.8226 23.9851C43.8226 23.9851 37.2572 27.2605 18.6169 30.8975Z" fill="url(#paint7_linear_2_2341)"/>
<g style="mix-blend-mode:multiply" opacity="0.3">
<path d="M19.2387 34.8743C18.5735 34.7658 20.8583 30.5359 28.3926 28.3668C36.216 26.0819 42.8537 24.86 42.8537 24.86C42.8537 24.86 43.2079 28.1209 39.4481 30.9698C35.8256 33.674 23.5192 35.554 19.2387 34.8743Z" fill="#91A674"/>
</g>
<g style="mix-blend-mode:multiply" opacity="0.3">
<path d="M5.12466 31.8664C5.76818 33.1462 17.2503 36.1613 18.0674 36.2047C18.8844 36.2481 18.3855 31.9748 18.4072 31.2156C18.4289 30.4564 5.47172 28.2872 5.03066 28.1209C4.58959 27.9546 17.6263 30.1672 18.0963 29.9575C18.5663 29.7478 12.6517 27.0653 8.9207 25.9084C5.18973 24.7515 3.48331 24.39 3.48331 24.39C3.48331 24.39 4.31483 30.2467 5.12466 31.8664Z" fill="#8E909F"/>
</g>
<g style="mix-blend-mode:multiply" opacity="0.5">
<path d="M3.49055 19.4298C3.72915 17.7741 16.5417 23.6525 17.4961 24.1514C18.2192 24.5346 18.5012 27.3329 17.4383 27.2678C16.3754 27.2027 5.17526 25.9952 3.49055 19.4298Z" fill="#8E909F"/>
</g>
<g style="mix-blend-mode:multiply" opacity="0.3">
<path d="M21.0825 29.9213C20.786 29.2344 39.2239 23.5946 42.0005 22.1413C44.777 20.6879 43.0923 23.9851 43.0923 23.9851C36.0261 26.8567 28.6343 28.8504 21.0825 29.9213V29.9213Z" fill="#91A674"/>
</g>
<g style="mix-blend-mode:multiply" opacity="0.3">
<path d="M19.1591 23.8188C19.1591 23.8188 24.8785 26.7689 30.2074 25.5541C35.5364 24.3394 41.0533 22.5968 42.2897 20.9193C43.2258 19.4911 43.956 17.9382 44.4589 16.3063C36.9349 21.2158 28.1432 23.8264 19.1591 23.8188V23.8188Z" fill="#91A674"/>
</g>
<g style="mix-blend-mode:multiply" opacity="0.5">
<path d="M13.6639 26.6098C13.6639 26.6098 18.0023 28.3813 18.7253 28.5403C19.4484 28.6994 25.2328 27.3039 25.2328 27.3039C21.3729 27.9355 17.4207 27.6984 13.6639 26.6098Z" fill="#780DAA"/>
</g>
<g style="mix-blend-mode:multiply" opacity="0.5">
<path d="M4.10516 23.2114C3.26641 23.8983 8.26992 25.2721 8.26992 25.2721L9.76665 25.4456L4.10516 23.2114Z" fill="#780DAA"/>
</g>
<g style="mix-blend-mode:multiply" opacity="0.5">
<path d="M2.18182 16.7546L2.61563 16.8269V17.1016L2.73135 20.8109L2.18182 16.7546Z" fill="#8E909F"/>
</g>
<g style="mix-blend-mode:multiply" opacity="0.5">
<path d="M25.4642 11.4545C25.4642 11.4545 24.9653 12.3728 16.1874 15.2144C8.23379 17.7885 3.22301 16.9064 2.66625 16.7979C9.72327 17.7451 25.4642 11.4545 25.4642 11.4545Z" fill="#8E909F"/>
</g>
<g style="mix-blend-mode:multiply" opacity="0.5">
<path d="M43.0995 16.7546C41.7727 17.3341 40.3783 17.7446 38.9491 17.9765C35.9991 18.6331 32.9837 18.9509 29.9616 18.9237C28.8809 18.9615 27.8128 18.6825 26.8886 18.1211C25.8688 17.2851 25.0216 16.2586 24.3941 15.0988C24.1517 14.6489 23.9924 14.159 23.9241 13.6526C23.8594 13.3721 23.9052 13.0774 24.0519 12.8297C24.1987 12.582 24.4351 12.4003 24.7122 12.3222C24.7122 12.3222 31.8054 13.6093 37.1921 14.824C37.1657 14.921 37.1657 15.0234 37.1921 15.1205C37.2177 15.2267 37.264 15.3267 37.3286 15.4149C37.3931 15.503 37.4746 15.5774 37.5681 15.6338C37.8381 15.7647 38.1465 15.793 38.4358 15.7134C38.8146 15.6357 39.185 15.5219 39.5421 15.3735C41.8631 15.9303 43.461 16.4509 43.0995 16.7546Z" fill="#91A674"/>
</g>
<g style="mix-blend-mode:multiply" opacity="0.5">
<path d="M43.0706 31.3819C43.0706 31.3819 39.6288 32.0255 33.3021 33.5077C27.3441 34.9105 18.8844 36.2409 18.8844 36.2409C18.8844 36.2409 33.3672 34.5562 43.0706 31.3819Z" fill="#780DAA"/>
</g>
<g style="mix-blend-mode:multiply" opacity="0.5">
<path d="M4.8788 33.674L18.8844 36.277C14.1692 35.6826 9.49271 34.8134 4.8788 33.674V33.674Z" fill="#780DAA"/>
</g>
<g style="mix-blend-mode:multiply" opacity="0.5">
<path d="M19.0001 30.8975C19.0001 30.8975 36.7439 27.8534 40.2724 27.5931C43.8009 27.3328 43.678 25.424 43.678 25.424L43.7864 24.8022C43.7864 24.8022 36.527 27.6004 19.0001 30.8975Z" fill="#CB76F4"/>
</g>
<path d="M45.8182 23.9851V24.4045C38.7463 26.8814 31.4677 28.7228 24.0687 29.9069C24.0687 29.9069 38.0598 26.993 45.8182 23.9851Z" fill="url(#paint8_linear_2_2341)"/>
<g style="mix-blend-mode:multiply" opacity="0.5">
<path d="M12.9409 15.3398C12.9409 15.3398 19.2098 20.9579 26.1005 22.6499C26.1005 22.6499 26.4403 27.6606 26.2089 35.0792C26.2089 35.0792 26.6861 24.5298 26.2957 22.1365C25.9052 19.7432 17.2792 15.3976 12.9409 15.3398Z" fill="#563F0B"/>
</g>
<path d="M6.75877 19.6468C6.75877 19.6468 14.0616 22.7487 17.4817 23.3922C20.9017 24.0357 26.0933 22.9801 26.0933 22.9801C26.0933 22.9801 20.4462 24.1442 17.995 23.8911C15.5439 23.638 6.75877 19.6468 6.75877 19.6468Z" fill="#C2E238"/>
<path d="M16.426 30.2974C17.1215 30.5864 17.8501 30.7879 18.5952 30.8975C19.1664 30.8975 23.512 29.8925 23.512 29.8925C23.512 29.8925 18.7832 30.8758 16.426 30.2974Z" fill="#A7B138"/>
<path d="M36.2305 26.6098C36.2305 26.6098 38.7757 25.9735 40.4315 25.6843C42.1903 25.2279 43.9094 24.6307 45.5724 23.8983L44.0829 23.4573C43.8804 23.3994 43.8226 23.9706 43.8226 23.9706C43.8226 23.9706 38.6455 26.1543 36.2305 26.6098Z" fill="#C2D138"/>
<path d="M4.10517 23.2114L2.45658 23.9344C5.42129 24.5162 8.34977 25.2695 11.2272 26.1904L3.9967 23.5657L4.10517 23.2114Z" fill="#91A622"/>
<path d="M2.45658 23.9851L2.66626 24.7082C2.66626 24.7082 13.382 26.6026 18.5157 28.8151C18.5157 28.7934 9.36899 25.0046 2.45658 23.9851Z" fill="url(#paint9_linear_2_2341)"/>
<g style="mix-blend-mode:multiply" opacity="0.5">
<path d="M4.01116 27.6004C4.01116 27.6004 10.6705 29.22 13.9098 29.4803C17.1491 29.7406 5.79711 27.3401 4.01116 27.6004Z" fill="#8E909F"/>
</g>
<path d="M37.1921 14.7878C37.322 15.13 37.5818 15.4071 37.9149 15.5588C38.248 15.7104 38.6275 15.7244 38.9709 15.5976C38.9709 15.5976 37.0041 16.2267 37.1921 14.7878Z" fill="url(#paint10_linear_2_2341)"/>
<path d="M36.8017 20.4132C36.1293 20.471 37.5898 19.4732 38.7756 19.6901C38.131 19.9661 37.4721 20.2075 36.8017 20.4132V20.4132Z" fill="#526800"/>
<path d="M5.1608 18.743C5.1608 18.743 7.96627 18.8514 6.75877 19.654L5.1608 18.743Z" fill="#526800"/>
<path d="M7.06242 18.1067C6.5129 18.526 7.38055 18.4248 7.59747 18.244C7.81439 18.0633 7.44564 17.8174 7.06242 18.1067Z" fill="#526800"/>
<path d="M39.6288 26.3856C39.6288 26.3856 39.7301 25.865 40.576 25.5469C41.128 25.3664 41.7232 25.3664 42.2752 25.5469C41.4298 25.9312 40.5413 26.2127 39.6288 26.3856Z" fill="#526100"/>
<g style="mix-blend-mode:multiply" opacity="0.5">
<path d="M15.5005 23.6236C14.4882 23.5223 17.6697 26.5158 18.0601 26.7472C18.4506 26.9786 18.2192 25.0263 17.6769 24.3322C17.1346 23.638 15.5005 23.6236 15.5005 23.6236Z" fill="#8E909F"/>
</g>
<g style="mix-blend-mode:multiply" opacity="0.5">
<path d="M12.7746 29.6249C11.3863 29.4658 15.6668 32.9365 16.6646 33.674C17.6624 34.4115 18.4216 31.9098 18.3204 31.3819C18.2192 30.8541 14.7051 29.8418 12.7746 29.6249Z" fill="#8E909F"/>
</g>
<g style="mix-blend-mode:multiply" opacity="0.5">
<path d="M44.8927 15.8941C44.1899 16.5837 43.4141 17.1946 42.5789 17.7162C41.4799 18.3235 43.4683 17.8102 43.8876 17.8969C44.307 17.9837 44.2564 19.56 44.2564 19.56C44.2564 19.56 44.7553 17.0871 44.8927 15.8941Z" fill="#8E909F"/>
</g>
<g style="mix-blend-mode:color" opacity="0.24">
<path d="M44.1696 20.5723H43.0633L4.10514 23.2114L3.26637 23.8983L18.5156 28.7934C18.5156 28.7934 34.5313 28.4174 44.1696 20.5723Z" fill="#0E091E"/>
<path d="M44.8854 15.8941C38.1176 22.7414 21.4006 24.3466 17.9878 23.8983C12.8541 23.2186 7.92285 20.5433 4.93663 18.6345C3.8882 17.962 3.09284 17.398 2.63732 17.0654L2.34089 16.8413C2.29027 16.8413 2.24688 16.769 2.19627 16.7328L2.63008 16.8051H2.6807C9.73049 17.7523 25.4787 11.4617 25.4787 11.4617C28.3709 12.8645 33.143 13.9635 37.2355 14.7227C37.2341 14.7468 37.2341 14.7709 37.2355 14.795C37.2091 14.8921 37.2091 14.9944 37.2355 15.0915C37.261 15.1977 37.3074 15.2978 37.372 15.3859C37.4365 15.474 37.5179 15.5485 37.6115 15.6049C37.8815 15.7358 38.1899 15.764 38.4792 15.6844C38.858 15.6068 39.2284 15.493 39.5854 15.3446C39.711 15.298 39.8341 15.2449 39.9542 15.1855C42.7958 15.6482 44.8854 15.8941 44.8854 15.8941Z" fill="#0E091E"/>
<path d="M44.8927 15.8941L44.2564 19.56C44.2564 19.56 33.4106 28.1209 18.4505 27.4774L17.995 23.8983C17.995 23.8983 37.7995 22.886 44.8927 15.8941Z" fill="#0E091E"/>
<path d="M18.5156 28.7934C18.5156 28.7934 37.0475 25.1781 44.1696 20.5723L43.0706 31.4181C43.0706 31.4181 30.4822 35.3226 18.8843 36.277L18.5156 28.7934Z" fill="#0E091E"/>
<path d="M18.4505 27.4774C11.314 26.7905 2.99885 22.698 2.99885 22.698L2.73856 20.7747L2.18179 16.7184L2.32641 16.8268L2.62284 17.0654C3.35986 17.6224 4.12492 18.1412 4.91496 18.62C10.6416 22.0762 17.9733 23.8838 17.9733 23.8838L18.4505 27.4774Z" fill="#0E091E"/>
<path d="M18.5156 28.7934C18.5156 28.7934 8.2193 24.9468 3.26637 23.8983L4.87877 33.674C4.87877 33.674 15.1534 36.1975 18.8843 36.2409L18.5156 28.7934Z" fill="#0E091E"/>
<path d="M17.1418 30.3914L18.5879 30.8975C18.5879 30.8975 33.1068 27.933 43.7936 23.9706C43.7936 23.9706 31.1257 29.2055 18.5518 30.1672L17.1418 30.3914Z" fill="#0E091E"/>
<path d="M27.655 18.8803C23.3167 20.5361 17.6335 18.0054 20.1931 16.7111C24.7484 14.3612 32.1163 17.1811 27.655 18.8803Z" fill="#0E091E"/>
<path d="M38.9708 17.9403C35.399 17.304 37.4308 16.1399 38.4503 15.6772C38.161 15.7568 37.8526 15.7285 37.5826 15.5976C37.489 15.5412 37.4076 15.4668 37.343 15.3787C37.2785 15.2905 37.2321 15.1905 37.2066 15.0843L27.684 12.9151C26.4658 13.2736 25.2124 13.4991 23.9457 13.5875C23.2753 13.6397 22.6013 13.6179 21.9357 13.5224C19.7665 14.3612 8.68929 17.1377 8.68929 17.1377C12.1889 18.5115 7.61918 19.3069 7.61918 19.3069L14.6473 22.3003C20.692 21.1435 21.5886 22.8065 21.5886 22.8065C29.6651 23.1391 39.4553 17.9837 39.4553 17.9837L38.9708 17.9403ZM28.9782 19.3864C22.9479 21.6641 15.0377 18.1717 18.5807 16.3424C20.3966 15.4616 22.3984 15.0324 24.4157 15.0915C28.971 15.1493 32.7453 17.2607 29.9833 18.9164C29.6548 19.0936 29.3112 19.2412 28.9565 19.3575L28.9782 19.3864Z" fill="#0E091E"/>
<path d="M27.655 18.8803C23.3167 20.5361 17.6335 18.0054 20.1931 16.7111C24.7484 14.3612 32.1163 17.1811 27.655 18.8803Z" fill="#0E091E"/>
<path d="M27.655 18.8803C23.3167 20.5361 17.6335 18.0054 20.1931 16.7111C24.7484 14.3612 32.1163 17.1811 27.655 18.8803Z" fill="#0E091E"/>
<path d="M18.6168 30.8975C18.6168 30.8975 38.0453 27.6003 45.8182 23.9851L43.8804 23.4139L43.8226 23.9851C43.8226 23.9851 37.2572 27.2605 18.6168 30.8975Z" fill="#0E091E"/>
<path d="M19.2387 34.8743C18.5735 34.7658 20.8583 30.536 28.3925 28.3668C36.216 26.0819 42.8536 24.86 42.8536 24.86C42.8536 24.86 43.2079 28.121 39.448 30.9698C35.8255 33.674 23.5192 35.554 19.2387 34.8743Z" fill="#0E091E"/>
<path d="M5.12463 31.8664C5.76815 33.1462 17.2503 36.1613 18.0673 36.2047C18.8844 36.2481 18.3855 31.9748 18.4071 31.2156C18.4288 30.4564 5.47169 28.2872 5.03063 28.1209C4.58956 27.9546 17.6263 30.1672 18.0962 29.9575C18.5662 29.7478 12.6516 27.0653 8.92067 25.9084C5.1897 24.7515 3.48328 24.39 3.48328 24.39C3.48328 24.39 4.31481 30.2467 5.12463 31.8664Z" fill="#0E091E"/>
<path d="M3.49052 19.4299C3.72913 17.7741 16.5417 23.6525 17.4961 24.1514C18.2191 24.5346 18.5011 27.3329 17.4382 27.2678C16.3753 27.2027 5.17524 25.9952 3.49052 19.4299Z" fill="#0E091E"/>
<path d="M21.0825 29.9213C20.786 29.2344 39.2239 23.5946 42.0005 22.1413C44.777 20.6879 43.0923 23.9851 43.0923 23.9851C36.0261 26.8567 28.6343 28.8504 21.0825 29.9213Z" fill="#0E091E"/>
<path d="M19.1591 23.8188C19.1591 23.8188 24.8785 26.7689 30.2074 25.5541C35.5363 24.3394 41.0533 22.5968 42.2897 20.9193C43.2257 19.4911 43.956 17.9382 44.4588 16.3063C36.9349 21.2158 28.1432 23.8264 19.1591 23.8188Z" fill="#0E091E"/>
<path d="M13.6639 26.6098C13.6639 26.6098 18.0022 28.3813 18.7253 28.5403C19.4483 28.6994 25.2328 27.3039 25.2328 27.3039C21.3728 27.9355 17.4206 27.6984 13.6639 26.6098Z" fill="#0E091E"/>
<path d="M4.10514 23.2114C3.2664 23.8983 8.26989 25.2721 8.26989 25.2721L9.76662 25.4456L4.10514 23.2114Z" fill="#0E091E"/>
<path d="M2.18179 16.7546L2.6156 16.8269V17.1016L2.73132 20.8109L2.18179 16.7546Z" fill="#0E091E"/>
<path d="M25.4642 11.4545C25.4642 11.4545 24.9653 12.3728 16.1874 15.2144C8.23376 17.7885 3.22298 16.9064 2.66623 16.7979C9.72325 17.7451 25.4642 11.4545 25.4642 11.4545Z" fill="#0E091E"/>
<path d="M43.0995 16.7546C41.7727 17.3341 40.3783 17.7446 38.9491 17.9765C35.9991 18.6331 32.9837 18.9509 29.9616 18.9237C28.8809 18.9615 27.8127 18.6825 26.8886 18.1211C25.8688 17.2851 25.0215 16.2586 24.3941 15.0988C24.1516 14.6489 23.9924 14.159 23.9241 13.6526C23.8594 13.3721 23.9052 13.0774 24.0519 12.8297C24.1986 12.582 24.4351 12.4003 24.7122 12.3222C24.7122 12.3222 31.8053 13.6093 37.1921 14.824C37.1657 14.921 37.1657 15.0234 37.1921 15.1205C37.2176 15.2267 37.264 15.3267 37.3286 15.4149C37.3931 15.503 37.4745 15.5774 37.5681 15.6338C37.8381 15.7647 38.1465 15.793 38.4358 15.7134C38.8146 15.6357 39.185 15.5219 39.542 15.3735C41.863 15.9303 43.461 16.4509 43.0995 16.7546Z" fill="#0E091E"/>
<path d="M43.0705 31.3819C43.0705 31.3819 39.6288 32.0255 33.3021 33.5077C27.3441 34.9105 18.8843 36.2409 18.8843 36.2409C18.8843 36.2409 33.3671 34.5562 43.0705 31.3819Z" fill="#0E091E"/>
<path d="M4.87877 33.674L18.8843 36.277C14.1692 35.6826 9.49268 34.8135 4.87877 33.674Z" fill="#0E091E"/>
<path d="M19.0001 30.8975C19.0001 30.8975 36.7438 27.8534 40.2723 27.5931C43.8008 27.3328 43.6779 25.424 43.6779 25.424L43.7864 24.8022C43.7864 24.8022 36.5269 27.6004 19.0001 30.8975Z" fill="#0E091E"/>
<path d="M45.8182 23.9851L45.8182 24.4045C38.7463 26.8814 31.4676 28.7228 24.0687 29.9069C24.0687 29.9069 38.0598 26.993 45.8182 23.9851Z" fill="#0E091E"/>
<path d="M12.9409 15.3398C12.9409 15.3398 19.2098 20.9579 26.1005 22.6499C26.1005 22.6499 26.4403 27.6606 26.2089 35.0792C26.2089 35.0792 26.6861 24.5298 26.2957 22.1365C25.9052 19.7432 17.2792 15.3976 12.9409 15.3398Z" fill="#0E091E"/>
<path d="M6.75874 19.6468C6.75874 19.6468 14.0616 22.7487 17.4817 23.3922C20.9017 24.0357 26.0932 22.9801 26.0932 22.9801C26.0932 22.9801 20.4462 24.1442 17.995 23.8911C15.5438 23.638 6.75874 19.6468 6.75874 19.6468Z" fill="#0E091E"/>
<path d="M16.426 30.2974C17.1214 30.5864 17.8501 30.7879 18.5952 30.8975C19.1664 30.8975 23.5119 29.8925 23.5119 29.8925C23.5119 29.8925 18.7832 30.8758 16.426 30.2974Z" fill="#0E091E"/>
<path d="M36.2305 26.6098C36.2305 26.6098 38.7756 25.9735 40.4314 25.6843C42.1902 25.2279 43.9094 24.6307 45.5723 23.8983L44.0828 23.4573C43.8804 23.3994 43.8226 23.9706 43.8226 23.9706C43.8226 23.9706 38.6455 26.1543 36.2305 26.6098Z" fill="#0E091E"/>
<path d="M4.10514 23.2114L2.45656 23.9344C5.42126 24.5162 8.34974 25.2695 11.2272 26.1904L3.99667 23.5657L4.10514 23.2114Z" fill="#0E091E"/>
<path d="M2.45656 23.9851L2.66623 24.7082C2.66623 24.7082 13.3819 26.6026 18.5156 28.8151C18.5156 28.7934 9.36897 25.0046 2.45656 23.9851Z" fill="#0E091E"/>
<path d="M4.01114 27.6004C4.01114 27.6004 10.6705 29.22 13.9098 29.4803C17.1491 29.7406 5.79708 27.3401 4.01114 27.6004Z" fill="#0E091E"/>
<path d="M37.1921 14.7878C37.322 15.13 37.5817 15.4071 37.9149 15.5588C38.248 15.7104 38.6275 15.7244 38.9708 15.5976C38.9708 15.5976 37.0041 16.2267 37.1921 14.7878Z" fill="#0E091E"/>
<path d="M36.8017 20.4132C36.1293 20.471 37.5898 19.4732 38.7756 19.6901C38.131 19.9661 37.4721 20.2075 36.8017 20.4132Z" fill="#0E091E"/>
<path d="M5.16077 18.743C5.16077 18.743 7.96624 18.8514 6.75874 19.654L5.16077 18.743Z" fill="#0E091E"/>
<path d="M7.06239 18.1067C6.51287 18.526 7.38053 18.4248 7.59744 18.244C7.81436 18.0633 7.44561 17.8174 7.06239 18.1067Z" fill="#0E091E"/>
<path d="M39.6288 26.3856C39.6288 26.3856 39.73 25.865 40.576 25.5469C41.128 25.3664 41.7232 25.3664 42.2752 25.5469C41.4297 25.9312 40.5413 26.2128 39.6288 26.3856Z" fill="#0E091E"/>
<path d="M15.5004 23.6236C14.4882 23.5223 17.6696 26.5158 18.0601 26.7472C18.4505 26.9786 18.2191 25.0263 17.6768 24.3322C17.1346 23.638 15.5004 23.6236 15.5004 23.6236Z" fill="#0E091E"/>
<path d="M12.7746 29.6249C11.3863 29.4658 15.6668 32.9365 16.6646 33.674C17.6624 34.4115 18.4216 31.9098 18.3204 31.3819C18.2191 30.8541 14.7051 29.8418 12.7746 29.6249Z" fill="#0E091E"/>
<path d="M44.8927 15.8941C44.1899 16.5837 43.414 17.1946 42.5789 17.7162C41.4798 18.3235 43.4683 17.8102 43.8876 17.8969C44.307 17.9837 44.2564 19.56 44.2564 19.56C44.2564 19.56 44.7553 17.0871 44.8927 15.8941Z" fill="#0E091E"/>
</g>
<path d="M23.888 35.6552L27.0332 35.1635C27.0332 35.1635 26.5126 36.3782 25.5871 36.4578C25.2623 36.4569 24.9417 36.3845 24.6481 36.2458C24.3544 36.1071 24.0949 35.9055 23.888 35.6552Z" fill="#E2B3F9"/>
<path d="M32.8972 34.708C32.8835 34.806 32.8618 34.9028 32.8321 34.9972C32.7888 35.1563 32.6152 35.2936 32.3549 35.431C31.891 35.6406 31.4063 35.8005 30.9088 35.9082V35.9082C30.3014 36.0529 29.6218 36.1686 28.9566 36.2626C28.4938 36.3349 28.0455 36.3927 27.6261 36.4361C26.65 36.5445 25.8836 36.6096 25.6956 36.6241H25.6522C25.6522 36.6241 26.1005 36.4072 26.3753 34.3103C26.65 32.2134 26.8958 23.2331 26.4403 22.0762C24.893 18.1645 13.1939 15.0409 13.1939 15.0409C13.6905 14.8073 14.1999 14.6021 14.7196 14.4263C16.0429 13.9555 17.4204 13.6542 18.8193 13.5297V13.5297H19.0724C19.5827 13.4935 20.0949 13.4935 20.6053 13.5297C22.6234 13.8682 24.5975 14.4309 26.4909 15.2072C29.7808 16.3858 33.2804 17.9042 33.7215 19.1334C34.3144 21.1362 33.3093 32.481 32.8972 34.708Z" fill="url(#paint11_linear_2_2341)"/>
<path d="M28.8915 36.277C28.4287 36.3493 27.9804 36.4072 27.561 36.4506C28.6312 36.2192 28.6601 21.787 28.3275 20.5434C27.9949 19.2997 18.0167 14.4697 14.6473 14.4191L15.8765 14.2094C15.8765 14.2094 27.7274 18.4248 29.2024 20.2324C30.6774 22.0401 29.0867 36.0023 28.8915 36.277Z" fill="url(#paint12_linear_2_2341)"/>
<path d="M32.3477 35.4383C31.8838 35.6478 31.3991 35.8078 30.9016 35.9155H30.8148C31.8921 35.742 31.9139 21.2519 31.5813 20.0083C31.2487 18.7646 21.1403 13.7321 17.7709 13.6815L18.7759 13.5152H18.9856H19.029C19.8388 13.8117 31.0172 17.9765 32.4417 19.7191C33.8661 21.4616 32.6369 33.9777 32.3477 35.4383Z" fill="url(#paint13_linear_2_2341)"/>
<path d="M12.9409 15.5398C12.9409 15.5398 22.8033 16.9281 26.2957 22.3365C26.2957 22.3365 26.6355 33.045 26.2089 35.2792C25.7823 37.5135 23.9024 35.6552 23.9024 35.6552L23.1793 35.7854C23.1793 35.7854 25.6884 37.5352 26.1945 36.2047C26.7006 34.8743 26.5921 24.0429 26.5705 22.2642C26.5488 20.4855 18.6169 15.6338 13.1217 15.0337L12.9409 15.5398Z" fill="#E2B3F9"/>
<path opacity="0.3" d="M12.9409 15.5398C12.9409 15.5398 22.8033 16.9281 26.2957 22.3365C26.2957 22.3365 26.6355 33.045 26.2089 35.2792C25.7823 37.5135 23.9024 35.6552 23.9024 35.6552L23.1793 35.7854C23.1793 35.7854 25.6884 37.5352 26.1945 36.2047C26.7006 34.8743 26.5921 24.0429 26.5705 22.2642C26.5488 20.4855 18.6169 15.6338 13.1217 15.0337L12.9409 15.5398Z" fill="#8E909F"/>
<g style="mix-blend-mode:multiply" opacity="0.4">
<path d="M26.5705 22.2642C26.4476 20.2902 33.078 19.2129 33.642 19.8347C34.206 20.4565 33.5914 33.8692 32.6442 35.0189C31.8633 35.9589 27.026 36.465 26.5705 36.2192C25.9559 35.8504 26.9465 28.3234 26.5705 22.2642Z" fill="#640B8E"/>
</g>
<g style="mix-blend-mode:multiply" opacity="0.1">
<path d="M26.744 22.0979C26.2162 23.4428 29.347 23.6887 31.3426 22.1919C33.3383 20.6952 34.0107 19.8637 33.0924 19.6757C32.1741 19.4877 27.402 20.5361 26.744 22.0979Z" fill="#640B8E"/>
</g>
<g style="mix-blend-mode:multiply" opacity="0.2">
<path d="M25.4208 14.8673C21.6176 13.6815 19.0796 15.0553 19.0001 15.8941C18.9206 16.7328 23.9241 18.9454 25.1605 20.1023C26.397 21.2591 32.5285 18.7935 32.5719 18.4248C32.6152 18.056 28.7541 15.9013 25.4208 14.8673Z" fill="#CB76F4"/>
</g>
<g style="mix-blend-mode:multiply" opacity="0.8">
<path d="M32.89 34.7152C32.8763 34.8133 32.8545 34.91 32.8249 35.0044C32.4923 36.0818 26.2162 36.5952 25.5944 36.6385C27.6155 36.4448 29.6192 36.0992 31.5885 35.6046C32.1185 35.4818 32.583 35.1644 32.89 34.7152V34.7152Z" fill="#640B8E"/>
</g>
<path fill-rule="evenodd" clip-rule="evenodd" d="M10.9008 31.8218L15.8783 25.4381L18.5506 25.0909L19.8739 29.5203L14.111 35.5256L20.971 39.136V40.1287L17.3809 44.7273L11.968 39.915L7.83145 43.4007L6.39284 44.5403L2.67893 40.8454L7.56678 35.6013L1.09091 31.2832L4.00655 27.2945L5.89339 26.5065L10.9008 31.8218Z" fill="url(#paint14_radial_2_2341)"/>
<path fill-rule="evenodd" clip-rule="evenodd" d="M12.4376 33.4556L18.5506 25.0909L22.9091 29.7919L15.2977 35.9441L20.971 39.136L17.7011 43.4007L13.0395 39.0113L7.83145 43.4007L5.40673 41.1259L9.88905 36.042L2.56367 30.7401L5.89339 26.5065L12.4376 33.4556Z" fill="url(#paint15_radial_2_2341)"/>
<defs>
<linearGradient id="paint0_linear_2_2341" x1="2.18183" y1="17.7162" x2="44.8855" y2="17.7162" gradientUnits="userSpaceOnUse">
<stop stop-color="#84A61D"/>
<stop offset="1" stop-color="#B5CE45"/>
</linearGradient>
<linearGradient id="paint1_linear_2_2341" x1="17.995" y1="21.7074" x2="44.8927" y2="21.7074" gradientUnits="userSpaceOnUse">
<stop stop-color="#848D04"/>
<stop offset="1" stop-color="#829A45"/>
</linearGradient>
<linearGradient id="paint2_linear_2_2341" x1="18.5157" y1="28.4102" x2="44.1696" y2="28.4102" gradientUnits="userSpaceOnUse">
<stop stop-color="#848D04"/>
<stop offset="1" stop-color="#829A45"/>
</linearGradient>
<linearGradient id="paint3_linear_2_2341" x1="2.18182" y1="22.0979" x2="18.4506" y2="22.0979" gradientUnits="userSpaceOnUse">
<stop stop-color="#427038"/>
<stop offset="0.99" stop-color="#635C06"/>
</linearGradient>
<linearGradient id="paint4_linear_2_2341" x1="3.2664" y1="30.0732" x2="18.8844" y2="30.0732" gradientUnits="userSpaceOnUse">
<stop stop-color="#427038"/>
<stop offset="0.99" stop-color="#635C06"/>
</linearGradient>
<linearGradient id="paint5_linear_2_2341" x1="19.5569" y1="17.615" x2="29.0361" y2="17.615" gradientUnits="userSpaceOnUse">
<stop stop-color="#D8EC38"/>
<stop offset="0.99" stop-color="#FFF47C"/>
</linearGradient>
<linearGradient id="paint6_linear_2_2341" x1="19.5569" y1="17.615" x2="29.0361" y2="17.615" gradientUnits="userSpaceOnUse">
<stop stop-color="#84A61D"/>
<stop offset="1" stop-color="#B5CE45"/>
</linearGradient>
<linearGradient id="paint7_linear_2_2341" x1="18.6169" y1="27.1521" x2="45.8182" y2="27.1521" gradientUnits="userSpaceOnUse">
<stop stop-color="#84A61D"/>
<stop offset="1" stop-color="#B5CE45"/>
</linearGradient>
<linearGradient id="paint8_linear_2_2341" x1="24.0687" y1="26.9279" x2="45.8182" y2="26.9279" gradientUnits="userSpaceOnUse">
<stop stop-color="#848D04"/>
<stop offset="1" stop-color="#829A45"/>
</linearGradient>
<linearGradient id="paint9_linear_2_2341" x1="2.45658" y1="26.3856" x2="18.5157" y2="26.3856" gradientUnits="userSpaceOnUse">
<stop stop-color="#427038"/>
<stop offset="0.99" stop-color="#635C06"/>
</linearGradient>
<linearGradient id="paint10_linear_2_2341" x1="37.1777" y1="15.2578" x2="38.9347" y2="15.2578" gradientUnits="userSpaceOnUse">
<stop stop-color="#427038"/>
<stop offset="0.99" stop-color="#635C06"/>
</linearGradient>
<linearGradient id="paint11_linear_2_2341" x1="23.4903" y1="36.6458" x2="23.4903" y2="13.5152" gradientUnits="userSpaceOnUse">
<stop stop-color="#F8E1F2"/>
<stop offset="1" stop-color="white"/>
</linearGradient>
<linearGradient id="paint12_linear_2_2341" x1="22.2321" y1="36.4433" x2="22.2321" y2="14.2383" gradientUnits="userSpaceOnUse">
<stop stop-color="#9210D0"/>
<stop offset="1" stop-color="#FF0D49"/>
</linearGradient>
<linearGradient id="paint13_linear_2_2341" x1="25.4208" y1="35.9227" x2="25.4208" y2="13.5152" gradientUnits="userSpaceOnUse">
<stop stop-color="#9210D0"/>
<stop offset="1" stop-color="#FF0D49"/>
</linearGradient>
<radialGradient id="paint14_radial_2_2341" cx="0" cy="0" r="1" gradientUnits="userSpaceOnUse" gradientTransform="translate(11.0331 34.9113) scale(9.68179 10.0964)">
<stop stop-color="#CB0536"/>
<stop offset="1" stop-color="#691C2F"/>
</radialGradient>
<radialGradient id="paint15_radial_2_2341" cx="0" cy="0" r="1" gradientUnits="userSpaceOnUse" gradientTransform="translate(12.7364 34.248) scale(9.5025 9.90944)">
<stop stop-color="#FA3A6A"/>
<stop offset="0.99" stop-color="#AE042F"/>
</radialGradient>
</defs>
</svg>
