<svg width="80" height="60" viewBox="0 0 80 60" fill="none" xmlns="http://www.w3.org/2000/svg">
<path d="M73.5301 54.1787C73.3483 55.5499 72.9084 56.875 72.2335 58.0847C70.1302 59.6729 11.324 62.0766 7.70806 56.5824C6.18482 54.7455 4.98646 52.6652 4.1641 50.43C4.03445 49.9292 3.90487 49.4571 3.78962 48.9992C-2.54912 23.4739 0.663463 4.55888 2.07527 3.95795C12.1596 -0.33442 77.3909 -1.13564 79.6383 2.0121C81.3814 4.61613 76.4113 41.8453 73.5301 54.1787Z" fill="url(#paint0_linear_733_38445)"/>
<g style="mix-blend-mode:multiply" opacity="0.4">
<path d="M79.5951 1.95487C79.1917 -2.07995 74.3224 16.6348 72.7953 31.2145C71.686 41.7738 71.4988 56.5109 71.859 57.2978C72.2191 58.0847 81.367 19.2531 79.5951 1.95487Z" fill="#AE042F"/>
</g>
<g style="mix-blend-mode:multiply" opacity="0.4">
<path d="M73.5301 54.1787C73.3483 55.5499 72.9084 56.875 72.2335 58.0848C70.1302 59.6729 11.324 62.0766 7.70809 56.5824C7.11743 55.6953 4.36581 51.6891 3.80397 49.0278C6.77165 55.4378 17.4035 60.3311 42.3983 59.4583C67.3931 58.5855 71.6141 57.6412 73.5301 54.1787Z" fill="#AE042F"/>
</g>
<g style="mix-blend-mode:multiply" opacity="0.4">
<path d="M2.03206 3.87221C1.62868 6.13286 19.4924 29.4261 31.4928 35.2637C43.4932 41.1014 72.7954 5.67501 79.5952 1.95496C79.5952 1.95496 79.84 2.18386 79.8256 3.81497C79.8112 5.44607 52.4538 25.6345 47.4836 31.2146C42.5135 36.7947 68.2142 56.8973 72.2048 58.0991C72.2048 58.0991 71.254 58.6715 70.6777 58.4855C70.1015 58.2995 49.8319 43.4478 44.5448 33.1462C44.5448 33.1462 38.912 38.0395 35.5698 38.2112C32.2275 38.3829 28.5251 33.9188 27.7039 33.5754C27.7039 33.5754 11.4105 48.4127 9.52331 57.2836C9.52331 57.2836 9.52327 57.999 8.58687 56.4823C7.65046 54.9657 26.4073 33.7042 26.4073 33.3465C26.4073 32.9888 7.67929 15.247 2.03206 3.87221Z" fill="#AE042F"/>
</g>
<g style="mix-blend-mode:multiply" opacity="0.4">
<path d="M29.5623 34.2049C29.5623 34.2049 33.8841 40.0854 35.9442 40.0854C39.7187 40.0854 44.2135 39.1554 56.257 28.5104C77.8664 9.42362 78.6587 2.54153 78.6587 2.54153C78.6587 2.54153 71.4556 9.5381 59.9306 19.9829C48.4056 30.4276 39.5458 34.8917 37.0824 35.7216C34.6189 36.5514 29.5623 34.2049 29.5623 34.2049Z" fill="#AE042F"/>
</g>
<g style="mix-blend-mode:multiply" opacity="0.3">
<path d="M79.5951 1.95489C79.2638 1.84043 71.0666 -1.23577 50.7827 1.95489C30.0089 5.21709 5.95051 0.724404 3.12689 4.67338C0.303276 8.62236 1.3693 13.0149 1.02355 22.0432C0.692212 30.6279 3.54463 47.3967 3.80394 48.9277C-2.53479 23.4024 0.677791 4.4874 2.0896 3.88647C12.1307 -0.491749 77.3477 -1.22146 79.5951 1.95489Z" fill="#AE042F"/>
</g>
<g style="mix-blend-mode:screen" opacity="0.3">
<path d="M5.08611 4.81648C3.64549 5.54619 12.1308 15.3042 19.9102 24.4183C27.6895 33.5324 41.2169 32.7169 50.0191 26.8793C58.8213 21.0417 75.6621 4.35865 74.841 2.55585C74.0198 0.75306 53.8944 2.68459 37.6154 3.54306C21.3363 4.40153 7.41992 3.65754 5.08611 4.81648Z" fill="#FB8C32"/>
</g>
<g style="mix-blend-mode:multiply" opacity="0.2">
<path d="M9.52329 57.2835C8.71655 55.3519 19.1611 43.0615 37.457 43.4192C55.7529 43.7768 68.6896 58.514 68.6896 58.514C68.6896 58.514 30.6572 62.048 9.52329 57.2835Z" fill="#FF6F93"/>
</g>
<g style="mix-blend-mode:multiply" opacity="0.4">
<path d="M58.5188 48.1551C60.8595 50.6256 63.3671 52.9345 66.0244 55.0658C69.4099 57.6126 70.6777 58.4711 70.6777 58.4711C70.6777 58.4711 72.1183 59.0577 72.6369 57.2978C73.1555 55.538 67.0041 55.6811 58.5188 48.1551Z" fill="#AE042F"/>
</g>
<path d="M45.7261 35.1635C44.5592 34.5196 49.2556 43.2046 56.0986 48.7417C60.0274 51.9732 64.2414 54.8464 68.6896 57.3265C68.6896 57.3265 59.5416 48.1551 45.7261 35.1635Z" fill="#FFD1AC"/>
<path d="M10.0419 55.5809C10.0419 55.5809 20.8177 40.4718 27.7039 33.5754C27.7039 33.5754 14.1477 42.3032 10.0419 55.5809Z" fill="#FFD1AC"/>
<g style="mix-blend-mode:multiply" opacity="0.4">
<path d="M72.925 29.9984C71.7869 45.0503 76.9876 30.6995 78.5867 22.0289C79.5035 15.565 79.5035 9.00544 78.5867 2.54156C78.5723 1.61155 73.8758 17.3216 72.925 29.9984Z" fill="#AE042F"/>
</g>
<g style="mix-blend-mode:multiply" opacity="0.2">
<path d="M11.252 31.0715C11.2598 30.7723 11.3619 30.4832 11.5438 30.2446C11.7258 30.0061 11.9785 29.8302 12.2664 29.7418C12.5542 29.6533 12.8627 29.6567 13.1485 29.7515C13.4343 29.8463 13.683 30.0278 13.8595 30.2703C13.9743 30.8133 13.8927 31.3791 13.6293 31.8683C13.3658 32.3576 12.9373 32.7391 12.4189 32.9458C11.2808 33.2034 11.2232 31.9014 11.252 31.0715Z" fill="#AE042F"/>
</g>
<g style="mix-blend-mode:multiply" opacity="0.2">
<path d="M61.6593 7.50639C61.67 7.20843 61.7741 6.92121 61.9572 6.68489C62.1402 6.44857 62.393 6.27494 62.6802 6.18825C62.9674 6.10157 63.2748 6.10621 63.5592 6.20144C63.8437 6.29667 64.0911 6.47774 64.2669 6.71943C64.3846 7.2626 64.3043 7.82964 64.0405 8.31959C63.7767 8.80954 63.3464 9.19065 62.8262 9.39504C61.6882 9.65258 61.6305 8.33625 61.6593 7.50639Z" fill="#AE042F"/>
</g>
<g style="mix-blend-mode:multiply" opacity="0.2">
<path d="M10.4596 29.6979C11.7562 28.1527 10.1283 22.9875 6.51236 23.2594C2.8964 23.5312 4.69718 28.725 6.51236 29.9554C6.78669 30.1998 7.10745 30.3873 7.45575 30.5068C7.80404 30.6264 8.17289 30.6756 8.54061 30.6516C8.90833 30.6276 9.26751 30.5309 9.59707 30.3672C9.92663 30.2034 10.2199 29.9758 10.4596 29.6979V29.6979Z" fill="#AE042F"/>
</g>
<path d="M35.6273 35.836C33.8697 35.6071 57.1214 22.4581 57.1214 22.4581C57.1214 22.4581 43.7668 34.305 35.6273 35.836Z" fill="#FFB070"/>
<g style="mix-blend-mode:multiply" opacity="0.4">
<path d="M2.03203 3.87213C2.03203 3.87213 3.89043 10.2391 10.5893 18.8096C17.2882 27.38 29.5623 34.2049 29.5623 34.2049C29.5623 34.2049 9.50885 18.3088 2.03203 3.87213Z" fill="#AE042F"/>
</g>
<g style="mix-blend-mode:multiply" opacity="0.2">
<path d="M52.3097 37.7962C52.6123 40.858 65.8228 54.2216 69.4243 55.1087C73.0259 55.9958 70.2742 31.2432 70.087 24.4469C69.8997 17.6507 51.9208 34.1476 52.3097 37.7962Z" fill="#FF6F93"/>
</g>
<g style="mix-blend-mode:multiply" opacity="0.2">
<path d="M56.0986 48.7418C51.7768 46.6385 58.2019 53.5779 61.1984 56.2248C62.2214 57.0835 63.4263 57.7018 64.7234 58.0338C66.0204 58.3657 67.3762 58.4027 68.6896 58.1421C69.2947 57.9704 60.8527 53.3776 56.0986 48.7418Z" fill="#FF6F93"/>
</g>
<path d="M4.38022 6.24722C7.37671 10.8687 14.6518 6.24722 23.7998 4.73059C32.9477 3.21395 10.0562 2.29824 6.78603 3.2998C3.51582 4.30135 4.38022 6.24722 4.38022 6.24722Z" fill="#FFD1AC"/>
<path d="M28.4623 17.6016C21.9812 20.1298 19.4858 24.5542 18.548 32.5712C17.6102 40.5883 35.4795 50.8675 43.6689 43.9648C51.8583 37.0621 51.5066 26.4836 49.1285 20.6787C46.7504 14.8738 31.8955 16.2709 28.4623 17.6016Z" fill="url(#paint1_linear_733_38445)"/>
<g style="mix-blend-mode:multiply" opacity="0.6">
<path d="M45.3101 30.858C45.3101 32.9667 44.6806 35.0281 43.501 36.7814C42.3214 38.5347 40.6449 39.9012 38.6833 40.7082C36.7217 41.5152 34.5632 41.7263 32.4809 41.3149C30.3985 40.9035 28.4858 39.8881 26.9844 38.397C25.4831 36.9059 24.4607 35.0062 24.0465 32.9381C23.6323 30.8699 23.8449 28.7262 24.6574 26.778C25.4699 24.8298 26.8458 23.1647 28.6111 21.9931C30.3765 20.8216 32.452 20.1964 34.5752 20.1964C37.4223 20.1964 40.1527 21.3196 42.1659 23.3191C44.1791 25.3185 45.3101 28.0304 45.3101 30.858V30.858Z" fill="#046E1C"/>
</g>
<path d="M35.9652 40.3555C41.0615 40.3555 45.1929 36.1033 45.1929 30.8581C45.1929 25.6128 41.0615 21.3607 35.9652 21.3607C30.8689 21.3607 26.7375 25.6128 26.7375 30.8581C26.7375 36.1033 30.8689 40.3555 35.9652 40.3555Z" fill="#00A828"/>
<g style="mix-blend-mode:multiply" opacity="0.7">
<path d="M19.2682 36.1307C23.1231 40.7315 28.5952 43.7045 34.5752 44.4472C44.523 45.6115 48.5424 37.9936 49.6477 31.7729C50.1563 27.3764 49.5101 22.924 47.772 18.8491C48.6678 19.4902 49.3969 20.3341 49.8989 21.3108C50.2339 22.4418 51.1382 35.166 51.4564 38.6589C51.7746 42.1519 46.2815 47.3247 36.836 47.9068C27.3906 48.489 21.1774 39.79 19.2682 36.1307Z" fill="#045618"/>
</g>
<g style="mix-blend-mode:multiply" opacity="0.4">
<path d="M23.924 29.5441C24.4431 35.0662 23.2708 33.1534 27.7926 26.4005C32.3143 19.6475 43.3508 25.4856 44.3388 26.4005C45.3269 27.3153 40.9894 18.7826 33.1182 20.1964C25.247 21.6102 23.924 29.5441 23.924 29.5441Z" fill="#045618"/>
</g>
<g style="mix-blend-mode:screen" opacity="0.3">
<path d="M19.2682 34.8999C19.4091 35.485 19.666 36.0364 20.024 36.5217C20.382 37.007 20.8339 37.4165 21.3532 37.7263C21.8725 38.0361 22.4488 38.2399 23.0484 38.3257C23.648 38.4116 24.2588 38.3779 24.8451 38.2264C25.7159 37.9104 21.931 32.2884 24.3761 25.8681C26.8212 19.4478 32.7497 17.3188 39.884 20.1464C47.0184 22.974 47.0687 20.0133 46.4155 18.849C45.7624 17.6847 32.6995 14.1752 25.7829 18.849C18.8663 23.5229 18.816 32.8374 19.2682 34.8999Z" fill="#E6A409"/>
</g>
<g style="mix-blend-mode:screen" opacity="0.3">
<path d="M38.226 44.5138C36.2666 42.8505 43.8197 38.5425 46.3318 33.4362C48.8438 28.3299 48.4252 34.7502 46.9514 38.975C45.4776 43.1997 38.226 44.5138 38.226 44.5138Z" fill="#E6A409"/>
</g>
<path d="M36.5178 17.0028C34.4412 17.5018 38.5611 20.3294 41.7095 19.9136C44.858 19.4977 40.9391 16.0381 36.5178 17.0028Z" fill="#FFF9E5"/>
<path d="M38.3768 44.0146C37.4055 43.7984 40.4199 41.2702 41.274 41.553C42.1281 41.8357 40.6879 44.5469 38.3768 44.0146Z" fill="#FFF9E5"/>
<path style="mix-blend-mode:multiply" opacity="0.75" fill-rule="evenodd" clip-rule="evenodd" d="M34.9917 36.7163L41 26.234L38.0202 24.5L33.4921 32.3764L30.9895 28.0072L28 29.7412L32.0022 36.7163H34.9917Z" fill="url(#paint2_linear_733_38445)"/>
<g style="mix-blend-mode:screen" opacity="0.5">
<path fill-rule="evenodd" clip-rule="evenodd" d="M34.9917 36.7163H32.0022L28 29.7411V30.515L32.0022 37.5H34.9917L41 27.0079V26.2339L34.9917 36.7163Z" fill="#B4FFC6"/>
</g>
<g style="mix-blend-mode:multiply" opacity="0.5">
<path fill-rule="evenodd" clip-rule="evenodd" d="M30.9895 28.0072L28 29.7412L28.4674 30.5543L30.9895 29.0946L33.4921 33.4639L38.0202 25.5874L40.5326 27.0569L41 26.234L39.8899 25.5874L38.0202 24.5L37.3872 25.5874L33.4921 32.3764L30.9895 28.0072Z" fill="#0E091E"/>
</g>
<defs>
<linearGradient id="paint0_linear_733_38445" x1="39.9636" y1="60.002" x2="39.9636" y2="-0.00532365" gradientUnits="userSpaceOnUse">
<stop stop-color="#FFB070"/>
<stop offset="1" stop-color="#FFD1AC"/>
</linearGradient>
<linearGradient id="paint1_linear_733_38445" x1="34.5751" y1="46.177" x2="34.5751" y2="16.4373" gradientUnits="userSpaceOnUse">
<stop stop-color="#00A828"/>
<stop offset="1" stop-color="#00CF2F"/>
</linearGradient>
<linearGradient id="paint2_linear_733_38445" x1="34.5049" y1="36.7163" x2="34.5049" y2="24.5" gradientUnits="userSpaceOnUse">
<stop stop-color="#038322"/>
<stop offset="1" stop-color="#045518"/>
</linearGradient>
</defs>
</svg>
