<svg width="24" height="24" viewBox="0 0 24 24" fill="none" xmlns="http://www.w3.org/2000/svg">
<path d="M17.3352 10.5421H16.9943L20.0625 2.26024C20.4716 1.17326 19.6705 0 18.5114 0H17.4886H13.2102H6.64773C2.98295 0 0 3.01941 0 6.72897C0 10.4213 2.98295 13.4579 6.64773 13.4579H7.09091L15.8864 13.5442H16.3125H17.2159C19.2955 13.5442 20.983 15.2696 20.983 17.3573C20.983 19.4623 19.2784 21.1704 17.2159 21.1704H14.5739C14.3523 21.1704 14.1477 21.1531 13.9261 21.1186C13.517 21.0496 13.2955 20.6183 13.4318 20.2214L14.7614 16.6326C15.0511 15.8735 14.4886 15.0625 13.6875 15.0625H7.41477C6.86932 15.0625 6.39205 15.4076 6.20455 15.908L4.03977 21.7398C3.63068 22.8267 4.43182 24 5.59091 24H8.11364H10.9091H17.3523C21 24 24 20.9806 24 17.271C23.983 13.5615 20.983 10.5421 17.3352 10.5421ZM7.60227 10.6283H6.76705C4.6875 10.6283 3 8.90295 3 6.81524C3 4.71028 4.70455 3.00216 6.76705 3.00216H9.40909C10.1591 3.00216 10.6705 3.76132 10.4148 4.46873L8.31818 10.128C8.19886 10.4385 7.90909 10.6283 7.60227 10.6283Z" fill="url(#paint0_linear_425_12162)"/>
<defs>
<linearGradient id="paint0_linear_425_12162" x1="31.2126" y1="-5.25" x2="-2.788" y2="29.2093" gradientUnits="userSpaceOnUse">
<stop offset="0.104422" stop-color="#FFC53A"/>
<stop offset="0.9375" stop-color="#FF124C"/>
</linearGradient>
</defs>
</svg>
