<?xml version="1.0" standalone="no"?>
<!DOCTYPE svg PUBLIC "-//W3C//DTD SVG 20010904//EN"
 "http://www.w3.org/TR/2001/REC-SVG-20010904/DTD/svg10.dtd">
<svg version="1.0" xmlns="http://www.w3.org/2000/svg"
 width="856.000000pt" height="856.000000pt" viewBox="0 0 856.000000 856.000000"
 preserveAspectRatio="xMidYMid meet">
<metadata>
Created by potrace 1.14, written by Peter Selinger 2001-2017
</metadata>
<g transform="translate(0.000000,856.000000) scale(0.100000,-0.100000)"
fill="#000000" stroke="none">
<path d="M2189 8556 c-2 -2 -33 -6 -69 -10 -138 -13 -314 -50 -460 -97 -510
-165 -948 -495 -1251 -944 -215 -318 -353 -700 -396 -1093 -15 -133 -7 -521
12 -592 2 -8 6 -37 10 -65 8 -67 59 -269 91 -364 119 -346 305 -651 553 -906
78 -80 194 -187 234 -214 12 -8 24 -18 27 -22 18 -26 286 -191 404 -248 201
-99 466 -186 627 -206 24 -3 51 -7 59 -10 68 -18 262 -25 930 -30 619 -5 1469
-13 2075 -20 187 -2 532 -4 767 -5 320 -1 451 -4 525 -15 445 -67 835 -356
1024 -759 41 -88 93 -238 103 -297 3 -19 8 -45 11 -59 9 -45 19 -174 18 -245
-1 -261 -86 -532 -236 -752 -160 -236 -370 -401 -652 -514 -25 -10 -99 -33
-102 -31 -2 0 -17 -4 -35 -9 -112 -34 -199 -38 -823 -35 -341 1 -631 5 -645 9
-14 4 -37 9 -52 12 -47 11 -106 62 -134 117 -49 96 -46 108 135 598 89 239
164 442 168 450 3 8 7 20 8 25 2 6 14 39 28 75 52 133 125 336 137 379 24 91
9 205 -40 294 -34 61 -110 140 -158 163 -115 55 -29 51 -1306 52 -1277 0
-1244 2 -1347 -55 -59 -32 -137 -104 -172 -158 -14 -22 -82 -193 -152 -380
-69 -187 -177 -477 -240 -645 -62 -168 -187 -505 -278 -750 -91 -245 -170
-472 -176 -505 -11 -67 -7 -186 10 -248 43 -163 163 -311 311 -384 138 -68
-39 -63 2404 -62 2330 1 2282 0 2514 45 394 77 820 293 1118 568 125 116 292
304 350 394 9 15 19 29 22 32 13 11 129 209 167 285 84 167 190 476 207 605 3
19 7 46 10 60 6 27 11 63 25 175 9 73 6 448 -3 500 -3 17 -10 59 -16 95 -21
145 -44 241 -89 378 -58 174 -149 375 -228 499 -18 29 -33 55 -33 58 0 3 -4
11 -10 18 -5 7 -45 60 -89 119 -99 132 -114 149 -226 264 -360 365 -817 599
-1330 680 -70 11 -96 13 -280 20 -99 3 -181 7 -181 8 -1 0 30 84 68 186 38
102 71 190 72 195 4 13 16 45 26 70 5 11 47 126 95 255 47 129 89 244 94 255
5 11 43 112 84 225 41 113 99 268 127 345 29 77 67 181 85 230 57 157 265 719
280 755 49 120 185 505 190 541 11 69 8 173 -5 231 -19 84 -85 210 -141 272
-51 56 -175 146 -201 146 -8 0 -18 3 -22 7 -4 4 -26 14 -49 23 -37 13 -324 15
-2308 17 -1246 2 -2268 1 -2270 -1z m1324 -1103 c116 -55 192 -155 218 -286
15 -73 1 -163 -40 -267 -16 -41 -45 -118 -65 -170 -70 -192 -538 -1457 -560
-1515 -13 -33 -43 -114 -67 -179 -51 -139 -93 -199 -165 -236 -49 -25 -51 -25
-319 -25 -220 0 -285 3 -351 18 -216 46 -429 144 -579 267 -79 64 -226 224
-276 300 -96 146 -183 340 -204 460 -4 19 -13 69 -20 110 -20 107 -13 357 13
475 23 104 53 197 88 273 13 29 24 55 24 57 0 9 95 162 134 215 65 89 224 241
322 307 107 71 227 130 339 166 189 62 225 65 865 63 l575 -1 68 -32z"/>
</g>
</svg>
