<svg width="168" height="20" viewBox="0 0 168 20" fill="none" xmlns="http://www.w3.org/2000/svg">
<path d="M1.30747 16.8627C1.02084 16.8627 0.835577 16.6797 0.751684 16.3137C0.667792 16.129 0.625842 15.7943 0.625842 15.3098C0.625842 13.8527 0.610114 12.556 0.578654 11.4196C0.526221 9.77778 0.5 8.04532 0.5 6.22222V0.700654C0.5 0.550763 0.57166 0.404357 0.714977 0.261438C0.858295 0.118519 1.00511 0.0470589 1.15541 0.0470589L4.04972 0.0732023C4.58803 0.0906315 5.29238 0.0993457 6.16277 0.0993457C7.42117 0.0993457 8.39468 0.0906315 9.0833 0.0732023L10.0166 0.0470589C11.0233 0.0156864 11.8535 0 12.5072 0C13.5628 0 14.5695 0.14989 15.5273 0.449673C16.6529 0.784313 17.567 1.36122 18.2696 2.18039C19.0596 3.06928 19.4546 4.26667 19.4546 5.77255C19.4546 8.31373 18.8079 10.1542 17.5145 11.2941C16.375 12.3643 14.6727 12.8993 12.4076 12.8993H8.95746C8.97493 13.2828 8.98367 13.6924 8.98367 14.1281C8.98367 14.278 8.98018 14.4575 8.97318 14.6667C8.9627 14.8758 8.95746 15.1564 8.95746 15.5085C8.95746 16.0593 8.84036 16.4113 8.60615 16.5647C8.42089 16.7146 8.07658 16.7895 7.57322 16.7895C6.83566 16.7895 6.32357 16.7983 6.03694 16.8157C4.87992 16.8157 3.95709 16.8314 3.26847 16.8627H1.30747ZM9.61287 9.88758H10.3155C10.6685 9.88758 10.9289 9.55294 11.0967 8.88366C11.2331 8.4305 11.3344 7.76122 11.4008 6.87582C11.4323 6.39129 11.448 5.84749 11.448 5.24444V4.96732C11.448 4.69891 11.4061 4.29804 11.3222 3.76471C11.2558 3.46144 11.1806 3.22266 11.0967 3.04837C11.0128 2.87059 10.9045 2.72418 10.7716 2.60915C10.6353 2.45926 10.4833 2.38431 10.3155 2.38431C10.2316 2.38431 10.1617 2.41743 10.1057 2.48366C10.0463 2.54989 9.99038 2.63355 9.93795 2.73464C9.75618 3.03442 9.5884 3.7037 9.4346 4.74248C9.38566 5.04227 9.34371 5.49368 9.30876 6.09673C9.22486 7.01699 9.18292 8.24749 9.18292 9.78824C9.18292 9.78824 9.19165 9.79521 9.20913 9.80915C9.22661 9.82658 9.25982 9.84401 9.30876 9.86144L9.61287 9.88758ZM22.5754 16.7895C22.5404 16.7895 22.5142 16.7564 22.4967 16.6902C22.3814 16.5368 22.2975 16.3521 22.245 16.1359C22.1961 16.0523 22.1542 15.9442 22.1192 15.8118C21.9689 15.5085 21.8605 15.0902 21.7941 14.5569C21.7277 13.7865 21.6945 13.1747 21.6945 12.7216C21.677 12.5229 21.6683 12.2475 21.6683 11.8954V11.2941C21.6683 10.7922 21.6595 10.3983 21.6421 10.1124C21.6246 9.81264 21.6158 9.2183 21.6158 8.32941C21.6158 5.95555 21.6665 4.12375 21.7679 2.83399C21.7679 2.63181 22.0528 2.48192 22.6226 2.38431H23.3776H24.0068C24.9646 2.38431 25.6777 2.4 26.1461 2.43137C26.8522 2.48366 27.5653 2.5098 28.2853 2.5098C28.4531 2.5098 28.579 2.50109 28.6628 2.48366H29.0404L29.1662 2.58301C29.722 2.46449 30.2935 2.38954 30.8808 2.35817C31.468 2.32331 32.1811 2.30588 33.02 2.30588C33.0515 2.30588 33.0934 2.33203 33.1459 2.38431H33.9481C34.0844 2.38431 34.1893 2.45926 34.2627 2.60915C34.3396 2.75904 34.4025 2.97691 34.4515 3.26275C34.5214 3.47887 34.5721 3.74553 34.6035 4.06274C34.6699 4.48105 34.7294 4.75817 34.7818 4.89412C34.7818 5.36122 34.6979 5.59477 34.5301 5.59477C34.5126 5.59477 34.4864 5.57037 34.4515 5.52157L34.3518 5.49542C34.2679 5.47799 34.1753 5.48671 34.0739 5.52157C33.9761 5.57037 33.8677 5.59477 33.7489 5.59477C33.6475 5.59477 33.5636 5.57037 33.4972 5.52157C33.4622 5.50414 33.3871 5.49542 33.2717 5.49542C33.1214 5.49542 32.9449 5.51983 32.7421 5.56863C32.6757 5.58606 32.5464 5.6122 32.3541 5.64706C32.1584 5.67843 31.9347 5.69412 31.683 5.69412C30.9629 5.69412 30.4438 5.71155 30.1257 5.74641C29.9405 5.76383 29.7639 5.81438 29.5962 5.89804V5.84575C29.5297 5.84575 29.4703 5.92941 29.4179 6.09673C29.3025 6.38257 29.2274 6.77647 29.1924 7.27843C29.1749 7.42832 29.1662 7.59564 29.1662 7.78039C29.1662 7.96166 29.1959 8.08715 29.2553 8.15686C29.3148 8.22309 29.4109 8.25621 29.5437 8.25621C29.6451 8.25621 29.729 8.22309 29.7954 8.15686C29.8304 8.15686 29.8723 8.16383 29.9212 8.17778C29.9737 8.19521 30.0156 8.22135 30.0471 8.25621H32.1864C32.2038 8.22135 32.23 8.19521 32.265 8.17778C32.2965 8.16383 32.3297 8.15686 32.3646 8.15686C32.5324 8.15686 32.6582 8.18126 32.7421 8.23007C32.8435 8.27887 33.0445 8.32941 33.3451 8.3817C33.5129 8.3817 33.63 8.43224 33.6964 8.53333C33.7803 8.64837 33.8223 8.75643 33.8223 8.85752L34.3518 10.515C34.4043 10.7834 34.1526 10.9595 33.5968 11.0431C33.2787 11.1094 32.667 11.1425 31.7616 11.1425H30.6763H29.9212C29.687 11.1425 29.5123 11.1547 29.3969 11.1791C29.2781 11.2035 29.2012 11.2662 29.1662 11.3673C29.0998 11.451 29.0666 11.5852 29.0666 11.7699V11.8693C29.0666 11.9529 29.0753 12.0122 29.0928 12.0471L29.0666 12.5961C29.0491 12.7146 29.0404 12.8906 29.0404 13.1242V13.3752V13.6V13.7516C29.7954 13.7516 30.5679 13.7272 31.3579 13.6784C32.1304 13.6261 32.8942 13.6 33.6492 13.6C33.6982 13.6 33.7401 13.6383 33.7751 13.715C33.8065 13.7882 33.8223 13.8754 33.8223 13.9765C33.8572 14.0776 33.8747 14.1874 33.8747 14.3059C33.9097 14.5569 33.9603 14.7904 34.0268 15.0065L34.1998 15.7333V16.2353V16.3137V16.5124L34.0005 16.6902H33.8223H33.7489C33.5636 16.6902 33.4465 16.6815 33.3976 16.6641C33.3451 16.6292 33.2857 16.6118 33.2193 16.6118C33.1878 16.6292 33.1371 16.6553 33.0672 16.6902C33.0008 16.7216 32.9431 16.7547 32.8942 16.7895V16.6641L32.5901 16.6902H32.2126C32.1462 16.6902 32.0955 16.6728 32.0605 16.6379L31.8613 16.6118C31.2391 16.6118 30.8021 16.671 30.5504 16.7895H22.5754ZM49.1768 17.166C48.4392 16.4444 47.81 15.7159 47.2892 14.9804C46.9186 14.4959 46.3489 13.6349 45.5799 12.3974L45.1499 11.7176C45.1324 11.7002 45.1202 11.688 45.1132 11.681C45.1027 11.6741 45.0975 11.6706 45.0975 11.6706H44.9716L44.872 11.7176C44.8545 11.9373 44.8458 12.5229 44.8458 13.4745C44.8458 14.095 44.8126 14.8235 44.7462 15.6601L44.72 16.4131C44.6535 16.5978 44.6116 16.6902 44.5941 16.6902H44.4211H44.3424C42.4968 16.8227 41.1545 16.8889 40.3156 16.8889H39.9381H39.4609C39.2757 16.8889 39.1411 16.8802 39.0572 16.8627H38.8842L38.1029 16.6118L38.0505 16.4392C38.019 16.4392 37.998 16.4044 37.9875 16.3346C37.9806 16.2684 37.9771 16.2196 37.9771 16.1882C37.9281 15.4841 37.8862 14.9734 37.8512 14.6562C37.7848 13.7534 37.7429 13.0928 37.7254 12.6745C37.6904 12.2702 37.6729 12.0105 37.6729 11.8954L37.5471 10.515L37.5261 9.76209C37.5087 9.6122 37.4999 9.40305 37.4999 9.13464V8.9098C37.5314 8.82614 37.5471 8.69194 37.5471 8.50719V8.07843C37.5646 8.0122 37.5733 7.93725 37.5733 7.85359L37.5471 7.6549V7.40392C37.5471 7.2854 37.5314 7.19303 37.4999 7.1268V6.97516L37.5261 6.34771C37.5401 6.22919 37.5471 6.05316 37.5471 5.81961C37.5821 5.31765 37.5995 4.84183 37.5995 4.39216V4.14118C37.5821 4.08889 37.5733 3.97908 37.5733 3.81176V3.46144V3.21046C37.5244 3.16166 37.4999 3.11111 37.4999 3.05882C37.4999 2.82527 37.7096 2.65795 38.1291 2.55686C38.3458 2.49063 38.6552 2.45752 39.0572 2.45752C42.9862 2.45752 45.9224 2.59172 47.8659 2.86013C49.7815 3.12854 51.1238 3.58867 51.8928 4.24052C52.2284 4.55773 52.4678 4.92898 52.6111 5.35425C52.7544 5.78301 52.8261 6.2902 52.8261 6.87582C52.8261 7.81351 52.5569 8.59956 52.0186 9.23399C51.6691 9.58606 51.2584 9.87887 50.7865 10.1124C50.8878 10.3634 51.1814 10.8654 51.6673 11.6183C51.7687 11.7368 51.8648 11.8623 51.9557 11.9948C52.0501 12.1272 52.1637 12.2702 52.2965 12.4235C52.6146 12.8558 52.9834 13.3316 53.4029 13.851C53.4203 13.9172 53.4885 14.0601 53.6074 14.2797C53.6912 14.3111 53.7367 14.3477 53.7437 14.3895C53.7542 14.4314 53.7419 14.4871 53.707 14.5569C53.5741 14.7556 53.1791 15.0484 52.522 15.4353C52.4381 15.519 52.3385 15.6026 52.2231 15.6863C51.8875 15.9512 51.4261 16.2266 50.8389 16.5124C50.3006 16.7983 49.8392 16.9987 49.4547 17.1137C49.3043 17.1974 49.2117 17.2148 49.1768 17.166ZM44.5941 8.32941C44.8143 8.32941 45.108 8.28758 45.475 8.20392C45.828 8.10283 46.0797 8.00349 46.23 7.90588C46.4817 7.75251 46.7002 7.58519 46.8854 7.40392C47.0707 7.18431 47.1633 6.93333 47.1633 6.65098C47.1633 6.18039 47.02 5.80392 46.7334 5.52157C46.4817 5.31939 46.1723 5.2183 45.8053 5.2183H44.72C44.72 5.43442 44.7042 5.77778 44.6728 6.24837L44.6465 6.77647C44.6116 7.11111 44.5941 7.62876 44.5941 8.32941ZM61.4828 17.2654C60.8117 17.3002 60.2419 17.2828 59.7735 17.2131C59.3855 17.1294 59.0324 17.0126 58.7143 16.8627C58.3962 16.7129 58.1026 16.4793 57.8335 16.1621C57.2986 15.4928 56.9386 14.6144 56.7533 13.5268C56.617 12.6379 56.5663 11.6671 56.6013 10.6144V9.51111C56.6013 9.36122 56.61 9.24444 56.6275 9.16078V8.65882V8.20392V7.95294L56.7009 7.78039C56.7009 7.76296 56.7061 7.73682 56.7166 7.70196C56.7236 7.67059 56.7271 7.61307 56.7271 7.52941C56.7761 6.92636 56.8005 6.44009 56.8005 6.07059L56.853 5.1451C56.8704 4.7268 56.8792 4.24052 56.8792 3.68627C56.8792 3.47015 56.8704 3.32026 56.853 3.2366C56.818 3.03442 56.8005 2.87582 56.8005 2.76078C56.8005 2.5098 57.0609 2.38431 57.5818 2.38431H57.9331C58.1358 2.38431 58.2704 2.36688 58.3368 2.33203L61.4094 2.38431C61.4094 2.38431 61.4216 2.39651 61.4461 2.42091C61.4706 2.44532 61.4915 2.45752 61.509 2.45752L61.7083 2.38431C62.5821 2.38431 63.1449 2.46797 63.3966 2.63529C63.5644 2.75033 63.6867 2.92462 63.7636 3.15817C63.837 3.39521 63.8737 3.71416 63.8737 4.11503C63.8737 4.38344 63.8912 4.7512 63.9262 5.2183C63.9576 5.45185 63.9734 5.81961 63.9734 6.32157V6.57255C63.9419 7.05708 63.9087 7.85185 63.8737 8.95686L63.8475 10.1647V11.2418C63.8161 11.444 63.8003 11.7124 63.8003 12.0471V12.4235V12.8C63.7829 13.0336 63.8161 13.3595 63.9 13.7778C63.9839 13.9102 64.059 13.9765 64.1254 13.9765C64.2268 13.9765 64.6043 13.851 65.258 13.6L65.861 13.302C66.0287 13.2322 66.1126 13.1643 66.1126 13.098V4.84183C66.0637 4.48976 66.0392 4.21438 66.0392 4.01569C66.0218 3.93203 66.013 3.80654 66.013 3.63922V3.26275V3.01176C66.013 2.80959 66.055 2.66667 66.1389 2.58301C66.1738 2.5342 66.2577 2.5098 66.3905 2.5098C66.4255 2.5098 66.4587 2.522 66.4902 2.5464C66.5251 2.57081 66.5426 2.60044 66.5426 2.63529V2.68235C66.7104 2.61612 67.0704 2.55861 67.6227 2.5098C68.0771 2.45752 68.5805 2.43137 69.1328 2.43137H69.762H70.1657H70.6429L73.2855 2.5098C73.3204 2.5098 73.3502 2.51678 73.3746 2.53072C73.3991 2.54815 73.4113 2.56558 73.4113 2.58301C73.4288 2.58301 73.4375 2.59172 73.4375 2.60915C73.4375 2.62658 73.4375 2.63529 73.4375 2.63529V2.76078C73.4201 2.76078 73.4113 2.78519 73.4113 2.83399L73.5372 2.80784C73.5546 2.77647 73.5808 2.76078 73.6158 2.76078C73.6647 2.76078 73.6892 2.80261 73.6892 2.88627C73.6892 5.81438 73.677 8.24401 73.6525 10.1752C73.628 12.1063 73.5564 14.0601 73.4375 16.0366C73.4375 16.1203 73.3711 16.2458 73.2383 16.4131C73.1719 16.4967 73.1124 16.563 73.06 16.6118C73.0425 16.6466 73.0181 16.6728 72.9866 16.6902C72.9517 16.7041 72.9254 16.7198 72.908 16.7373C72.894 16.7198 72.8363 16.6989 72.7349 16.6745C72.6336 16.6501 72.5497 16.6379 72.4833 16.6379L72.4046 16.6902C72.3731 16.7216 72.3399 16.7373 72.305 16.7373C71.6338 16.8558 70.5764 16.915 69.1328 16.915H68.0265C67.607 16.915 67.2382 16.8819 66.9201 16.8157C66.8013 16.732 66.6754 16.5229 66.5426 16.1882C66.5251 16.0697 66.4919 15.9686 66.443 15.885C66.408 15.8013 66.3661 15.7595 66.3171 15.7595C66.1808 15.7595 65.9711 15.8519 65.6879 16.0366C65.653 16.068 65.6058 16.1046 65.5464 16.1464C65.4904 16.1882 65.4362 16.2353 65.3838 16.2876C65.251 16.3887 65.1584 16.4723 65.1059 16.5386C64.655 16.7895 64.1184 16.9725 63.4962 17.0876C63.0768 17.1887 62.6905 17.2392 62.3375 17.2392C61.9529 17.2392 61.6681 17.2479 61.4828 17.2654ZM79.1999 16.9621H78.8486H78.4449H78.0674H77.8681L76.8876 16.6902L76.8352 16.5386C76.8177 16.5386 76.809 16.4549 76.809 16.2876C76.809 16.068 76.802 15.8919 76.788 15.7595L76.7618 14.8078C76.7443 14.6057 76.7356 14.2867 76.7356 13.851C76.7356 13.4327 76.7268 13.1242 76.7094 12.9255V12.1725C76.608 11.1163 76.5573 10.0288 76.5573 8.9098V8.70588V8.32941C76.5573 8.13072 76.566 7.98954 76.5835 7.90588V7.70196V7.52941C76.566 7.47712 76.5573 7.39346 76.5573 7.27843V7.00131V6.84967V6.59869V6.19608C76.5573 5.99739 76.566 5.85621 76.5835 5.77255V5.52157L76.6097 5.39608V5.06667C76.6272 4.89935 76.636 4.67451 76.636 4.39216C76.636 4.17255 76.6272 3.97908 76.6097 3.81176L76.5835 3.2366L76.5573 3.13726C76.5084 3.1024 76.5084 3.07625 76.5573 3.05882C76.6272 2.79041 76.837 2.59869 77.1865 2.48366C77.3543 2.41743 77.6322 2.38431 78.0202 2.38431C78.3033 2.38431 79.0496 2.35817 80.2591 2.30588C80.8638 2.27451 81.2413 2.25882 81.3916 2.25882C81.6433 2.24139 81.9457 2.23268 82.2987 2.23268C82.4665 2.25011 82.5836 2.27974 82.65 2.32157C82.7164 2.3634 82.7794 2.43312 82.8388 2.53072C82.8982 2.63181 82.9436 2.7085 82.9751 2.76078L83.4785 3.48758C83.4645 3.47015 83.6742 3.77168 84.1077 4.39216C84.5132 5.04401 85.0008 5.77952 85.5705 6.59869C85.6544 6.73115 85.7541 6.88105 85.8694 7.04837C85.9883 7.21569 86.1141 7.40915 86.2469 7.62876V6.75033C86.2644 6.51678 86.2731 6.18214 86.2731 5.74641C86.2731 5.17821 86.2906 4.54205 86.3256 3.83791C86.3256 3.70545 86.3343 3.58344 86.3518 3.4719C86.3658 3.36383 86.3728 3.27669 86.3728 3.21046C86.3728 3.04314 86.3815 2.95948 86.399 2.95948C86.4654 2.85839 86.5825 2.75033 86.7503 2.63529C86.953 2.49935 87.1628 2.44009 87.3795 2.45752H88.6379H88.8896C89.1412 2.45752 89.351 2.46623 89.5188 2.48366H90.2738C90.4416 2.50109 90.6933 2.5098 91.0288 2.5098H91.5846H91.8363C92.1719 2.5098 92.4235 2.56732 92.5913 2.68235C92.6927 2.74858 92.7591 2.83747 92.7906 2.94902C92.8255 3.05708 92.843 3.21917 92.843 3.43529C92.843 3.6549 92.8343 3.83965 92.8168 3.98954C92.7993 4.15686 92.7906 4.3573 92.7906 4.59085V4.76863C92.8081 4.81743 92.8168 4.89237 92.8168 4.99346V5.64706L92.7906 8.53333V11.3673V12.0471C92.7906 13.8527 92.7749 14.9978 92.7434 15.4824L92.6647 16.3137C92.5808 16.6972 92.4637 16.8976 92.3134 16.915C92.282 16.915 92.2365 16.9237 92.1771 16.9412C92.1177 16.9551 92.0548 16.9621 91.9884 16.9621C91.3836 16.9621 90.9379 16.9464 90.6513 16.915H89.3457H88.0349H87.7098C87.6574 16.9325 87.5892 16.9412 87.5053 16.9412C87.3061 16.9412 87.0964 16.8993 86.8761 16.8157C86.7433 16.7808 86.6017 16.6885 86.4514 16.5386L84.2335 13.4275C84.1496 13.3089 83.9906 13.1155 83.7564 12.8471L83.4313 12.549C83.3474 12.4654 83.2792 12.4235 83.2268 12.4235C83.1778 12.4235 83.1359 12.4444 83.101 12.4863C83.0695 12.5281 83.0538 12.5647 83.0538 12.5961V13.0248C83.0363 13.1573 83.0275 13.3664 83.0275 13.6523V14.3791C83.0101 14.5638 83.0013 14.8148 83.0013 15.132V15.7333V16.1098C82.9838 16.1447 82.9751 16.1952 82.9751 16.2614C82.9751 16.2789 82.9506 16.4131 82.9017 16.6641C82.8668 16.7303 82.8423 16.7721 82.8283 16.7895C82.8108 16.807 82.7514 16.8157 82.65 16.8157C82.6151 16.7983 82.5854 16.7895 82.5609 16.7895C82.5364 16.7895 82.5154 16.7895 82.498 16.7895C81.1732 16.9046 80.0738 16.9621 79.1999 16.9621ZM96.5679 16.8627C96.2812 16.8627 96.096 16.6797 96.0121 16.3137C95.9282 16.129 95.8862 15.7943 95.8862 15.3098C95.8862 13.8527 95.8705 12.556 95.839 11.4196C95.7866 9.77778 95.7604 8.04532 95.7604 6.22222V0.700654C95.7604 0.550763 95.8321 0.404357 95.9754 0.261438C96.1187 0.118519 96.2655 0.0470589 96.4158 0.0470589L99.3101 0.0732023C99.8484 0.0906315 100.553 0.0993457 101.423 0.0993457C102.682 0.0993457 103.655 0.0906315 104.344 0.0732023L105.277 0.0470589C106.284 0.0156864 107.114 0 107.768 0C108.823 0 109.83 0.14989 110.788 0.449673C111.913 0.784313 112.827 1.36122 113.53 2.18039C114.32 3.06928 114.715 4.26667 114.715 5.77255C114.715 8.31373 114.068 10.1542 112.775 11.2941C111.635 12.3643 109.933 12.8993 107.668 12.8993H104.218C104.235 13.2828 104.244 13.6924 104.244 14.1281C104.244 14.278 104.241 14.4575 104.234 14.6667C104.223 14.8758 104.218 15.1564 104.218 15.5085C104.218 16.0593 104.101 16.4113 103.867 16.5647C103.681 16.7146 103.337 16.7895 102.834 16.7895C102.096 16.7895 101.584 16.7983 101.297 16.8157C100.14 16.8157 99.2175 16.8314 98.5289 16.8627H96.5679ZM104.873 9.88758H105.576C105.929 9.88758 106.189 9.55294 106.357 8.88366C106.493 8.4305 106.595 7.76122 106.661 6.87582C106.693 6.39129 106.708 5.84749 106.708 5.24444V4.96732C106.708 4.69891 106.666 4.29804 106.583 3.76471C106.516 3.46144 106.441 3.22266 106.357 3.04837C106.273 2.87059 106.165 2.72418 106.032 2.60915C105.896 2.45926 105.744 2.38431 105.576 2.38431C105.492 2.38431 105.422 2.41743 105.366 2.48366C105.307 2.54989 105.251 2.63355 105.198 2.73464C105.017 3.03442 104.849 3.7037 104.695 4.74248C104.646 5.04227 104.604 5.49368 104.569 6.09673C104.485 7.01699 104.443 8.24749 104.443 9.78824C104.443 9.78824 104.452 9.79521 104.47 9.80915C104.487 9.82658 104.52 9.84401 104.569 9.86144L104.873 9.88758ZM124.175 17.0405L123.824 17.0144L123.499 16.9621H123.095C122.843 16.9307 122.406 16.8976 121.784 16.8627C121.651 16.8627 121.525 16.854 121.406 16.8366C121.291 16.8227 121.183 16.8157 121.081 16.8157H120.526L120.274 16.7895C119.739 16.7895 119.346 16.7983 119.094 16.8157C118.842 16.8471 118.447 16.8627 117.909 16.8627H117.406L116.955 16.8889L116.876 16.7895V16.5124V15.885V15.2314V14.8078V13.098C116.876 12.6972 116.86 12.4044 116.829 12.2196V11.6183L116.929 10.5412C116.978 9.8719 117.002 8.9098 117.002 7.6549C117.037 5.62963 117.163 4.16558 117.38 3.26275C117.498 2.77473 117.692 2.46449 117.962 2.33203L120.903 2.35817C121.155 2.3756 121.517 2.38431 121.988 2.38431H123.194C123.278 2.39826 123.434 2.41394 123.661 2.43137C123.888 2.4488 124.06 2.49063 124.175 2.55686C124.276 2.64052 124.348 2.75381 124.39 2.89673C124.432 3.03965 124.453 3.24532 124.453 3.51373L124.427 3.71242V4.01569C124.378 4.13072 124.353 4.24749 124.353 4.36601C124.318 4.49847 124.309 4.63268 124.327 4.76863V5.1451C124.344 5.22876 124.353 5.34553 124.353 5.49542L124.379 5.69412V6.27451L124.406 7.07451C124.42 7.24183 124.427 7.47712 124.427 7.78039C124.462 8.01394 124.503 8.17255 124.552 8.25621C124.552 8.37124 124.545 8.49673 124.531 8.63268C124.514 8.76514 124.505 8.89935 124.505 9.03529C124.488 9.23399 124.479 9.53377 124.479 9.93464C124.479 10.3216 124.488 10.6074 124.505 10.7922C124.505 11.0571 124.547 11.3325 124.631 11.6183C124.799 11.6845 124.991 11.7176 125.208 11.7176C125.764 11.7176 126.339 11.7089 126.933 11.6915C127.527 11.6776 128.06 11.6288 128.532 11.5451C128.633 11.559 128.73 11.6253 128.82 11.7438C128.911 11.8623 128.957 11.9634 128.957 12.0471L128.784 16.3608C128.749 16.4619 128.681 16.5298 128.579 16.5647C128.296 16.6972 127.903 16.7808 127.4 16.8157C126.728 16.9133 126.283 16.9621 126.063 16.9621H125.638C125.302 16.9621 125.051 16.9708 124.883 16.9882C124.547 17.0231 124.311 17.0405 124.175 17.0405ZM131.348 16.915C131.03 16.915 130.904 16.6309 130.97 16.0627C130.97 15.8606 131.012 15.634 131.096 15.383C131.096 15.2645 131.105 15.1686 131.122 15.0954C131.14 15.0187 131.149 14.956 131.149 14.9072C131.533 13.0841 131.961 11.2854 132.433 9.51111L134.142 2.83399C134.142 2.79913 134.169 2.7573 134.221 2.7085C134.27 2.65969 134.319 2.61786 134.368 2.58301H134.546C134.749 2.58301 134.908 2.55861 135.023 2.5098C135.125 2.49237 135.301 2.48366 135.553 2.48366C135.955 2.48366 136.257 2.49237 136.46 2.5098C136.761 2.55861 137.07 2.58301 137.388 2.58301L138.699 2.55686C138.832 2.52549 138.991 2.5098 139.176 2.5098L140.282 2.45752H141.116C141.434 2.45752 141.743 2.46623 142.044 2.48366H142.752C142.92 2.50109 143.163 2.5098 143.481 2.5098H144.435C144.487 2.5098 144.538 2.51678 144.587 2.53072C144.64 2.54815 144.681 2.56558 144.713 2.58301C144.779 2.61786 144.863 2.63529 144.965 2.63529H145.19C145.309 2.71895 145.368 2.80261 145.368 2.88627L147.156 9.51111C147.709 11.634 148.144 13.4327 148.462 14.9072C148.462 14.9908 148.488 15.1495 148.541 15.383C148.607 15.7176 148.64 15.9861 148.64 16.1882C148.64 16.3033 148.623 16.4619 148.588 16.6641C148.504 16.8314 148.387 16.915 148.236 16.915H147.959C147.742 16.915 147.574 16.9063 147.455 16.8889H146.905H146.375H145.945C145.83 16.8889 145.763 16.8802 145.746 16.8627H144.362L144.335 16.8157C144.304 16.7808 144.253 16.7634 144.183 16.7634L144.11 16.8157C144.11 16.8471 144.092 16.8627 144.058 16.8627H143.984H143.806C143.722 16.8314 143.572 16.8157 143.355 16.8157C142.953 16.7808 142.617 16.7634 142.348 16.7634C142.163 16.38 141.944 15.5346 141.693 14.2275C141.34 14.2797 140.938 14.3059 140.487 14.3059H139.831H139.202C139.136 14.5569 139.094 14.766 139.076 14.9333C139.059 15.017 138.992 15.3011 138.877 15.7856C138.758 16.2702 138.648 16.5961 138.547 16.7634L138.395 16.8157C138.346 16.8296 138.304 16.8418 138.269 16.8523C138.237 16.8593 138.222 16.8627 138.222 16.8627H138.169C138.068 16.8627 138.002 16.8471 137.97 16.8157C137.904 16.7808 137.862 16.7634 137.844 16.7634L136.885 16.8157H136.182C136.098 16.8296 136.032 16.8418 135.983 16.8523C135.93 16.8593 135.895 16.8627 135.878 16.8627H133.865H133.665C133.515 16.8802 133.204 16.8889 132.732 16.8889H132.129C132.028 16.9063 131.869 16.915 131.652 16.915H131.348ZM141.467 11.5451C141.366 10.9734 141.307 10.6388 141.289 10.5412L141.09 9.33333C141.055 9.09978 141.022 8.88715 140.99 8.69543C140.955 8.5037 140.929 8.32418 140.912 8.15686C140.863 7.95468 140.826 7.76645 140.801 7.59216C140.777 7.41438 140.747 7.25055 140.712 7.10065C140.695 6.99956 140.677 6.87059 140.66 6.71373C140.646 6.55338 140.621 6.44009 140.586 6.37386L140.534 6.07059C140.534 6.00436 140.518 5.94684 140.487 5.89804L140.461 5.74641C140.426 5.84749 140.408 5.89804 140.408 5.89804V5.99739V6.07059C140.408 6.08802 140.401 6.11765 140.387 6.15948C140.37 6.20131 140.352 6.27277 140.335 6.37386C140.317 6.45752 140.3 6.56209 140.282 6.68758C140.268 6.81307 140.244 6.95076 140.209 7.10065L140.031 8.13072L139.831 9.28627L139.758 9.83529C139.723 9.97124 139.688 10.1891 139.653 10.4889C139.503 11.2418 139.436 11.5852 139.454 11.519H140.56C140.578 11.5015 140.604 11.4806 140.639 11.4562C140.67 11.4318 140.695 11.4196 140.712 11.4196H140.786C140.87 11.4196 140.941 11.4266 141.001 11.4405C141.06 11.458 141.114 11.4754 141.163 11.4928C141.265 11.5277 141.366 11.5451 141.467 11.5451ZM159.863 20C159.765 20 159.513 19.9338 159.108 19.8013C159.042 19.7839 158.942 19.742 158.809 19.6758C158.69 19.6235 158.58 19.5974 158.479 19.5974C158.412 19.5974 158.295 19.5556 158.127 19.4719C158.012 19.3882 157.904 19.3464 157.802 19.3464L157.498 19.2732C157.397 19.2732 157.33 19.2645 157.299 19.2471C157.247 19.2471 157.22 19.2383 157.22 19.2209C156.686 19.1059 156.14 18.9142 155.584 18.6458L153.949 17.966C153.833 17.9172 153.775 17.8336 153.775 17.715C153.775 17.6174 153.8 17.5181 153.849 17.417L154.531 16.2353C154.698 15.9181 154.933 15.5416 155.233 15.1059C155.352 14.9909 155.469 14.7817 155.584 14.4784C155.686 14.2449 155.736 14.1037 155.736 14.0549C155.485 13.5669 155.167 13.0475 154.782 12.4967C154.394 11.8275 154.083 11.3848 153.849 11.1686C153.817 11.085 153.742 10.9508 153.623 10.766C153.354 10.2954 153.228 10.0776 153.246 10.1124L152.816 9.35948C152.701 9.19216 152.559 8.94118 152.391 8.60654C152.29 8.43922 152.18 8.23007 152.061 7.97908C151.911 7.7281 151.827 7.57821 151.809 7.52941C151.676 7.37604 151.451 6.97342 151.133 6.32157C150.829 5.65229 150.677 5.25142 150.677 5.11895C150.677 5.05272 150.745 4.96383 150.881 4.85229C151.014 4.74423 151.164 4.63268 151.332 4.51765C151.87 4.26667 152.223 4.11503 152.391 4.06274C152.608 3.96166 152.797 3.878 152.958 3.81176C153.115 3.74553 153.244 3.68802 153.346 3.63922C153.734 3.45447 154.27 3.22789 154.955 2.95948C155.092 2.89325 155.411 2.75904 155.915 2.55686C156.1 2.50806 156.268 2.48366 156.418 2.48366C156.519 2.48366 156.603 2.51678 156.67 2.58301C156.736 2.61786 156.836 2.75207 156.969 2.98562L157.85 4.89412C158.353 5.94684 158.706 6.65795 158.909 7.02745C158.944 7.07625 158.977 7.139 159.008 7.21569C159.043 7.28889 159.076 7.34292 159.108 7.37778C159.209 7.51024 159.302 7.57647 159.386 7.57647C159.438 7.57647 159.485 7.55207 159.527 7.50327C159.569 7.45098 159.597 7.40915 159.611 7.37778L161.326 2.88627C161.392 2.66667 161.534 2.49935 161.751 2.38431C161.936 2.26579 162.163 2.22397 162.432 2.25882C163.523 2.60741 164.328 2.8915 164.849 3.11111C165.874 3.52941 166.629 3.89717 167.114 4.21438C167.282 4.29804 167.396 4.40261 167.455 4.5281C167.511 4.65359 167.515 4.7756 167.466 4.89412C167.448 5.04401 167.406 5.1695 167.34 5.27059L167.188 5.56863L163.161 14.2797L162.962 14.7817L160.492 19.4719C160.377 19.6741 160.272 19.8135 160.178 19.8902C160.087 19.9634 159.982 20 159.863 20Z" fill="#656777"/>
</svg>
