<svg xmlns="http://www.w3.org/2000/svg" width="156" height="156" fill="none">
  <g clip-path="url(#a)">
    <circle cx="78" cy="78" r="78" fill="#2C3445"/>
    <path fill="#1E232E" d="m151.842 47.531-86.336 86.576a7.74 7.74 0 0 1-5.478 2.275 7.74 7.74 0 0 1-5.479-2.275L7.654 87.082a7.78 7.78 0 0 1 0-10.987l13.24-13.276a7.738 7.738 0 0 1 10.956 0l28.178 28.257 43.339-43.462 24.279-24.346a7.736 7.736 0 0 1 10.957 0l13.239 13.276a7.78 7.78 0 0 1 2.269 5.494 7.78 7.78 0 0 1-2.269 5.493Z"/>
    <path fill="#232936" d="M148.407 44.086 62.07 130.662a7.74 7.74 0 0 1-5.478 2.275 7.74 7.74 0 0 1-5.478-2.275L4.219 83.642a7.78 7.78 0 0 1 0-10.987l13.239-13.282a7.74 7.74 0 0 1 5.478-2.275c2.055 0 4.025.819 5.478 2.275L56.592 87.63l43.34-43.461 24.284-24.346a7.739 7.739 0 0 1 10.958 0L148.413 33.1a7.784 7.784 0 0 1-.006 10.987Z"/>
    <path fill="#1C212B" d="M126.953 115.233a28.89 28.89 0 0 1-.836 6.923c-2.854 11.593-12.715 20.417-24.818 21.697a28.435 28.435 0 0 1-3.046.161c-15.853 0-28.703-12.886-28.703-28.781S82.4 86.45 98.253 86.45s28.7 12.886 28.7 28.783Z"/>
    <path fill="#2A3140" fill-rule="evenodd" d="M86.344 117.046c1.795-2.452 4.598-3.996 7.707-4.237 3.91-.299 7.669 1.582 9.743 4.873 1.022 1.613 1.522 3.379 1.522 5.323 0 1.347-.175 2.325-.624 3.545-1.06 2.853-3.519 5.197-6.478 6.162-2.57.839-5.295.693-7.773-.413-2.211-.991-4.084-2.82-5.092-4.974-1.594-3.405-1.223-7.242.995-10.279Zm9.333.636c0-.471-.143-.737-.475-.89-.286-.133-.41-.133-.696.006-.35.172-.52.471-.52.928l-.006.388-.423.184c-1.08.47-1.84 1.779-1.678 2.89.208 1.512 1.268 2.497 2.855 2.643.696.07 1.086.311 1.3.807.274.654-.09 1.417-.786 1.639-.403.133-.833.044-1.242-.261-.222-.158-.456-.273-.605-.292-.3-.038-.664.115-.82.35-.162.241-.143.711.033.959.156.216.813.661 1.144.775.228.083.228.089.228.47 0 .445.143.724.468.921.378.223.82.127 1.087-.247.104-.14.136-.28.136-.598v-.413l.423-.197c.5-.228 1.067-.73 1.327-1.175a2.858 2.858 0 0 0-.54-3.583c-.54-.489-1.158-.737-2.003-.807-.852-.076-1.334-.59-1.275-1.366.02-.298.065-.432.221-.616.449-.552 1.17-.673 1.724-.298.552.381.617.406.89.406.222 0 .32-.038.514-.209.209-.191.241-.261.267-.578l.033-.363-.358-.336a3.279 3.279 0 0 0-.794-.54l-.429-.204v-.393Z" clip-rule="evenodd"/>
    <path fill="#2A3140" fill-rule="evenodd" d="M104.978 102.74c-1.086.184-1.951.463-2.855.927-2.784 1.423-4.618 4.072-4.95 7.115l-.02.192c-.043.388-.06.55.014.636.054.061.156.083.332.119l.116.025a12.043 12.043 0 0 1 5.607 3.088c1.548 1.505 2.673 3.468 3.161 5.482l.117.489.423-.038c.767-.063 1.392-.158 1.886-.292 4.228-1.124 7.077-4.917 6.881-9.161-.201-4.409-3.499-7.947-8.026-8.608-.618-.089-2.075-.076-2.686.026Zm4.098 4.586c.468.127.65.293.65.591 0 .159-.045.273-.143.362-.228.197-.332.21-.748.102-.572-.146-1.32-.089-1.795.14-.358.171-1.151.895-1.151 1.048 0 .038.5.063 1.274.063h1.275l.189.185c.202.197.234.374.11.597-.149.286-.208.292-1.756.298h-1.483v.82l3.005.038.156.178c.202.229.202.489-.006.705l-.156.165h-1.307c-.716 0-1.301.026-1.301.057 0 .102.442.617.676.795a2.561 2.561 0 0 0 2.062.482c.546-.101.735-.038.871.286.241.547-.299.871-1.417.864a4.916 4.916 0 0 1-.859-.089c-1.008-.267-1.88-.972-2.387-1.925l-.208-.394-.612-.025c-.572-.025-.624-.038-.767-.203a.506.506 0 0 1-.007-.712c.131-.146.215-.171.618-.203l.469-.032v-.743h-.326c-.78 0-1.157-.47-.754-.934.15-.165.195-.178.767-.197l.612-.025.241-.458a3.679 3.679 0 0 1 4.208-1.836ZM90.636 100.783a10.95 10.95 0 0 0-1.521.318c-3.279 1.067-5.425 4.084-5.256 7.382.046.813.11 1.194.338 1.912.443 1.378 1.366 2.712 2.492 3.57l.39.305.35-.28c.97-.768 2.447-1.556 3.63-1.931 1.392-.444 2.361-.597 3.792-.603.768 0 .891-.019.891-.102.007-.286.143-1.34.234-1.772.313-1.487 1.028-2.999 2.036-4.282l.28-.369-.24-.425c-1.087-1.932-3.188-3.336-5.497-3.679-.572-.082-1.45-.101-1.919-.044Zm-1.073 3.399c.078.082.417.571.761 1.099.345.521.657.984.696 1.029.052.057.24-.191.755-.978.377-.572.754-1.1.839-1.169.344-.274.852-.045.852.381 0 .197-.117.419-.618 1.188l-.624.946.435.038c.371.032.462.064.592.21.195.229.195.508-.013.705-.15.153-.201.159-.878.159h-.715v.572h.709c.676 0 .709.006.878.165.11.114.169.235.169.368-.007.426-.254.547-1.1.547h-.656v.33c0 .661-.358 1.004-.82.794-.24-.114-.351-.381-.351-.857v-.267h-.69c-.67 0-.689-.007-.878-.184-.24-.242-.247-.502-.02-.731.17-.159.203-.165.879-.165h.709v-.572h-.716c-.676 0-.728-.006-.878-.159-.208-.197-.208-.476-.006-.705.13-.152.208-.178.585-.203.234-.013.43-.038.43-.051 0-.013-.28-.451-.618-.966-.683-1.048-.742-1.232-.456-1.505.209-.21.56-.216.748-.019Z" clip-rule="evenodd"/>
    <g filter="url(#b)">
      <path fill="#384257" fill-rule="evenodd" d="M63.333 28.92a11.148 11.148 0 0 0-6.538-7.914 11.373 11.373 0 0 0 6.63-7.895l.034-.149.035.15a11.373 11.373 0 0 0 6.63 7.894 11.148 11.148 0 0 0-6.538 7.915l-.127.588-.126-.588Z" clip-rule="evenodd"/>
    </g>
    <g filter="url(#c)">
      <path fill="#384257" fill-rule="evenodd" d="M146.297 134.317a6.19 6.19 0 0 0-3.632-4.398 6.315 6.315 0 0 0 3.683-4.385l.02-.083.019.083a6.315 6.315 0 0 0 3.683 4.385 6.19 6.19 0 0 0-3.632 4.398l-.07.326-.071-.326Z" clip-rule="evenodd"/>
    </g>
    <path stroke="#222936" stroke-linecap="round" stroke-linejoin="round" stroke-width="14.91" d="M15.531 131.668a3.643 3.643 0 0 0 3.638-3.648 3.643 3.643 0 0 0-3.638-3.648 3.643 3.643 0 0 0-3.638 3.648 3.643 3.643 0 0 0 3.638 3.648Z"/>
  </g>
  <defs>
    <filter id="b" width="45.329" height="48.546" x="40.795" y="-3.038" color-interpolation-filters="sRGB" filterUnits="userSpaceOnUse">
      <feFlood flood-opacity="0" result="BackgroundImageFix"/>
      <feColorMatrix in="SourceAlpha" result="hardAlpha" values="0 0 0 0 0 0 0 0 0 0 0 0 0 0 0 0 0 0 127 0"/>
      <feOffset/>
      <feGaussianBlur stdDeviation="8"/>
      <feColorMatrix values="0 0 0 0 0 0 0 0 0 0 0 0 0 0 0 0 0 0 0.24 0"/>
      <feBlend in2="BackgroundImageFix" result="effect1_dropShadow_3332_67066"/>
      <feBlend in="SourceGraphic" in2="effect1_dropShadow_3332_67066" result="shape"/>
    </filter>
    <filter id="c" width="39.405" height="41.192" x="126.665" y="109.451" color-interpolation-filters="sRGB" filterUnits="userSpaceOnUse">
      <feFlood flood-opacity="0" result="BackgroundImageFix"/>
      <feColorMatrix in="SourceAlpha" result="hardAlpha" values="0 0 0 0 0 0 0 0 0 0 0 0 0 0 0 0 0 0 127 0"/>
      <feOffset/>
      <feGaussianBlur stdDeviation="8"/>
      <feColorMatrix values="0 0 0 0 0 0 0 0 0 0 0 0 0 0 0 0 0 0 0.24 0"/>
      <feBlend in2="BackgroundImageFix" result="effect1_dropShadow_3332_67066"/>
      <feBlend in="SourceGraphic" in2="effect1_dropShadow_3332_67066" result="shape"/>
    </filter>
    <clipPath id="a">
      <path fill="#fff" d="M0 0h156v156H0z"/>
    </clipPath>
  </defs>
</svg>
