<svg xmlns="http://www.w3.org/2000/svg" fill="none" viewBox="0 0 105 104"><path fill="url(#a)" d="M58.326 98.907c25.906-3.217 44.299-26.827 41.081-52.733C96.19 20.268 72.58 1.875 46.674 5.093 20.768 8.31 2.375 31.92 5.593 57.826 8.81 83.732 32.42 102.125 58.326 98.907Z"/><path fill="url(#b)" d="M58.326 98.907c25.906-3.217 44.299-26.827 41.081-52.733C96.19 20.268 72.58 1.875 46.674 5.093 20.768 8.31 2.375 31.92 5.593 57.826 8.81 83.732 32.42 102.125 58.326 98.907Z"/><path fill="#FFEEF2" fill-rule="evenodd" d="M15.241 23.256a12.36 12.36 0 0 0 10.408-3.609c5.068-4.746 4.203-9.209 4.203-9.209A45.006 45.006 0 0 0 15.24 23.256Z" clip-rule="evenodd"/><path fill="#FFDCE4" fill-rule="evenodd" d="M89.616 75.79s.087-5.686 4.796-8.554a9.16 9.16 0 0 1-4.796 8.554Z" clip-rule="evenodd" style="mix-blend-mode:soft-light"/><path fill="url(#c)" fill-rule="evenodd" d="M49.307 43.417 63.72 25.69l7.738-.964 3.832 12.3L58.603 53.7l19.864 10.025v2.756L68.07 79.251 52.398 65.889 40.42 75.567l-4.166 3.165-10.753-10.26 14.153-14.56-18.752-11.99 8.443-11.076 5.463-2.188 14.5 14.759Z" clip-rule="evenodd"/><path fill="url(#d)" fill-rule="evenodd" d="m53.757 47.953 17.701-23.226 12.62 13.053L62.04 54.863l16.428 8.863-9.469 11.841L55.5 63.38 40.42 75.567l-7.02-6.316 12.978-14.116-21.211-14.722 9.641-11.755 18.95 19.295Z" clip-rule="evenodd"/><defs><radialGradient id="c" cx="0" cy="0" r="1" gradientTransform="translate(49.69 51.995) scale(28.0344)" gradientUnits="userSpaceOnUse"><stop stop-color="#CB0536"/><stop offset="1" stop-color="#691C2F"/></radialGradient><radialGradient id="d" cx="0" cy="0" r="1" gradientTransform="translate(54.623 50.154) scale(27.5152)" gradientUnits="userSpaceOnUse"><stop stop-color="#FA3A6A"/><stop offset=".99" stop-color="#AE042F"/></radialGradient><linearGradient id="a" x1="58.284" x2="46.698" y1="98.909" y2="5.086" gradientUnits="userSpaceOnUse"><stop stop-color="#FF6F93"/><stop offset=".21" stop-color="#FFACC1"/><stop offset="1" stop-color="#FFDCE4"/></linearGradient><linearGradient id="b" x1="58.284" x2="46.698" y1="98.909" y2="5.086" gradientUnits="userSpaceOnUse"><stop stop-color="#FF6F93"/><stop offset=".21" stop-color="#FFACC1"/><stop offset="1" stop-color="#FFDCE4"/></linearGradient></defs></svg>