<svg width="240" height="240" viewBox="0 0 240 240" fill="none" xmlns="http://www.w3.org/2000/svg">
<g clip-path="url(#clip0_7250_115010)">
<circle cx="120" cy="120" r="120" fill="#1C212B"/>
<g filter="url(#filter0_d_7250_115010)">
<path d="M230 88.1617L210.324 208.785C209.682 212.849 205.619 215.629 201.555 214.774L84.3532 194.242C80.2896 193.601 77.5093 189.537 78.1509 185.473L105.313 30.8439C105.954 26.7804 110.018 24 114.081 24.8555L199.202 39.8266L230 88.1617Z" fill="#282F3E"/>
</g>
<path d="M197.277 155.104L133.971 143.982L127.127 142.699L105.954 139.063C105.099 138.849 104.029 139.705 104.029 140.774C103.815 141.844 104.457 142.913 105.312 143.127L126.486 146.763L133.33 148.046L196.636 159.167C197.491 159.381 198.561 158.526 198.561 157.456C198.775 156.387 198.347 155.317 197.277 155.104Z" fill="#A9AFC3"/>
<path d="M199.844 140.346L176.318 136.283L168.405 134.786L108.735 124.306C107.879 124.092 106.81 124.947 106.81 126.017C106.596 127.086 107.238 128.156 108.093 128.369L167.763 138.849L175.677 140.346L199.202 144.41C200.058 144.624 201.127 143.768 201.127 142.699C201.341 141.63 200.7 140.56 199.844 140.346Z" fill="#A9AFC3"/>
<path opacity="0.4" d="M202.838 125.375L196.636 124.306L190.433 123.236L110.873 109.335C110.018 109.121 108.948 109.976 108.948 111.046C108.734 112.115 109.376 113.185 110.231 113.398L189.792 127.3L196.636 128.583L201.983 129.439C202.838 129.653 203.907 128.797 203.907 127.728C204.335 126.658 203.907 125.589 202.838 125.375Z" fill="#1C212B"/>
<path d="M138.249 179.057L133.971 178.416C133.116 178.202 132.474 177.132 132.688 176.063C132.902 174.994 133.758 174.138 134.613 174.352L138.89 174.994C139.746 175.208 140.388 176.277 140.174 177.346C139.96 178.629 139.104 179.057 138.249 179.057Z" fill="#A9AFC3"/>
<path d="M125.203 176.705L100.18 172.427C99.3242 172.213 98.6826 171.144 98.8964 170.075C99.1103 169.005 99.9658 168.15 100.821 168.364L125.844 172.641C126.7 172.855 127.341 173.924 127.128 174.994C126.914 176.277 126.058 176.919 125.203 176.705Z" fill="#E3EAF2"/>
<path opacity="0.4" d="M206.26 110.832L186.37 107.41L181.451 106.555L113.654 94.5778C112.798 94.3639 111.729 95.2194 111.729 96.2888C111.515 97.3581 112.156 98.4275 113.012 98.6414L180.809 110.618L185.728 111.474L205.405 114.896C206.474 115.11 207.33 114.254 207.543 113.185C207.757 112.115 207.116 111.046 206.26 110.832Z" fill="#1C212B"/>
<path opacity="0.4" d="M178.243 62.2831L121.995 52.4449C120.711 52.2311 119.856 50.9478 120.07 49.6646C120.284 48.3814 121.567 47.5259 122.85 47.7398L179.099 57.5779C180.382 57.7917 181.237 59.075 181.023 60.3582C180.81 61.4276 179.526 62.4969 178.243 62.2831Z" fill="#1C212B"/>
<path d="M141.243 69.5547L119.642 65.705C118.359 65.4912 117.503 64.2079 117.717 62.9247C117.931 61.6415 119.214 60.786 120.498 60.9998L141.885 64.8495C143.168 65.0634 144.024 66.3466 143.81 67.6299C143.596 68.9131 142.313 69.7686 141.243 69.5547Z" fill="#A9AFC3"/>
<path opacity="0.56" d="M198.988 39.8265L193.214 72.9767C192.358 77.6818 195.78 82.1732 200.485 83.0286L230 88.1616" fill="#1C212B"/>
<path d="M149.371 197.45C175.712 197.45 197.065 176.097 197.065 149.757C197.065 123.416 175.712 102.063 149.371 102.063C123.031 102.063 101.678 123.416 101.678 149.757C101.678 176.097 123.031 197.45 149.371 197.45Z" fill="#222834"/>
<g filter="url(#filter1_d_7250_115010)">
<path d="M143.596 55.0114L176.319 172.641C177.388 176.705 175.035 180.768 170.972 181.838L55.6947 212.421C51.6312 213.491 47.5676 211.138 46.4982 207.074L6.29029 55.2253C5.22093 51.1618 7.57352 47.0982 11.6371 46.0288L95.0472 24L143.596 55.0114Z" fill="#282F3E"/>
</g>
<path opacity="0.4" d="M141.885 129.439L79.6483 145.907L72.8044 147.618L52.0588 153.179C51.2033 153.393 50.5617 154.462 50.9894 155.531C51.2033 156.601 52.2727 157.242 53.1281 157.028L73.8737 151.468L80.7176 149.757L142.954 133.289C143.81 133.075 144.451 132.005 144.024 130.936C143.81 129.867 142.741 129.225 141.885 129.439Z" fill="#1C212B"/>
<path opacity="0.4" d="M137.822 114.896L114.724 120.884L106.81 123.023L48.4233 138.635C47.5678 138.849 46.9262 139.919 47.3539 140.988C47.5678 142.057 48.6372 142.699 49.4926 142.485L108.094 126.872L116.007 124.734L139.105 118.745C139.961 118.531 140.602 117.462 140.174 116.393C139.747 115.537 138.677 114.682 137.822 114.896Z" fill="#1C212B"/>
<path opacity="0.4" d="M134.399 100.138L128.411 101.635L122.423 103.133L44.3593 123.878C43.5038 124.092 42.8622 125.161 43.29 126.231C43.5038 127.3 44.5732 127.942 45.4287 127.728L123.492 106.982L130.122 105.271L135.469 103.774C136.324 103.56 136.966 102.491 136.538 101.422C136.324 100.566 135.469 99.9244 134.399 100.138Z" fill="#1C212B"/>
<path opacity="0.4" d="M98.2553 175.849L93.9779 176.918C93.1224 177.132 92.053 176.491 91.8392 175.421C91.6253 174.352 92.053 173.283 92.9085 173.069L97.186 171.999C98.0415 171.785 99.1108 172.427 99.3247 173.496C99.5386 174.78 99.1108 175.635 98.2553 175.849Z" fill="#1C212B"/>
<path opacity="0.4" d="M85.2089 179.271L60.6136 185.687C59.7581 185.901 58.6888 185.259 58.4749 184.19C58.261 183.121 58.6888 182.051 59.5443 181.838L84.1396 175.421C84.995 175.207 86.0644 175.849 86.2783 176.918C86.706 177.988 86.2783 179.057 85.2089 179.271Z" fill="#1C212B"/>
<path opacity="0.4" d="M131.406 85.3812L111.943 90.5141L107.238 91.7974L40.7238 109.335C39.8683 109.549 39.2267 110.618 39.6545 111.687C39.8683 112.757 40.9377 113.398 41.7932 113.185L108.094 95.8609L112.799 94.5777L132.047 89.4448C133.117 89.2309 133.544 88.1615 133.33 86.8783C133.33 86.0228 132.261 85.1673 131.406 85.3812Z" fill="#1C212B"/>
<path opacity="0.4" d="M85.4229 53.0864L30.2439 67.6297C28.9607 68.0575 27.6774 67.202 27.2497 65.9188C26.822 64.6355 27.6774 63.3523 28.9607 62.9245L84.1397 48.3812C85.4229 47.9535 86.7061 48.809 87.1339 50.0922C87.5616 51.3755 86.7061 52.6587 85.4229 53.0864Z" fill="#1C212B"/>
<path opacity="0.4" d="M55.053 75.3292L33.8797 80.8899C32.5964 81.3176 31.3132 80.4621 30.8854 79.1789C30.4577 77.8956 31.3132 76.6124 32.5964 76.1847L53.5559 70.624C54.8391 70.1963 56.1223 71.0517 56.5501 72.335C56.9778 73.6182 56.1223 74.9014 55.053 75.3292Z" fill="#1C212B"/>
<path opacity="0.56" d="M95.0471 24L103.602 56.5086C104.885 60.9999 109.804 63.7802 114.296 62.497L143.596 55.0114" fill="#1C212B"/>
<path d="M144.88 157.456C144.666 156.601 144.666 155.745 144.666 154.676C144.666 151.04 146.163 147.832 150.013 145.052L153.221 142.699C155.146 141.202 156.001 139.491 156.001 137.352C156.001 134.358 153.863 131.364 149.371 131.364C144.666 131.364 142.527 135.213 142.527 138.849C142.527 139.705 142.527 140.346 142.741 140.988L134.186 140.774C133.972 139.919 133.759 138.849 133.759 137.78C133.759 130.508 139.105 123.664 149.157 123.664C159.423 123.664 164.984 130.294 164.984 136.924C164.984 142.271 162.204 145.907 158.354 148.687L155.573 150.612C153.221 152.323 151.938 154.462 151.938 157.028V157.456H144.88ZM148.516 161.734C151.51 161.734 153.863 164.086 153.863 167.08C153.863 170.075 151.51 172.427 148.516 172.427C145.522 172.427 143.169 170.075 143.169 167.08C143.383 164.3 145.522 161.734 148.516 161.734Z" fill="#434B59"/>
<g filter="url(#filter2_d_7250_115010)">
<path d="M220.76 223.807C218.909 223.807 217.058 223.066 215.577 221.4L184.661 190.484L183.55 191.225C173.553 198.63 161.89 202.517 150.042 202.517C135.788 202.517 121.533 196.779 110.981 186.782C99.8733 176.23 93.7642 161.975 93.7642 146.424C93.7642 115.508 118.941 90.3314 149.857 90.3314C170.962 90.3314 189.474 101.439 199.471 120.322C209.283 139.019 207.987 160.864 195.953 178.451L195.213 179.562L226.314 210.663C229.461 213.81 228.721 216.957 228.165 218.623C226.684 221.585 223.722 223.807 220.76 223.807ZM149.857 105.697C127.272 105.697 109.13 124.024 109.13 146.424C109.13 171.972 130.049 187.337 150.413 187.337C162.816 187.337 174.109 181.783 182.069 171.787C191.881 159.568 193.547 143.092 186.697 128.838C179.662 114.583 165.593 105.697 149.857 105.697Z" fill="#383D4A"/>
</g>
</g>
<defs>
<filter id="filter0_d_7250_115010" x="56.0588" y="13.7005" width="195.941" height="234.228" filterUnits="userSpaceOnUse" color-interpolation-filters="sRGB">
<feFlood flood-opacity="0" result="BackgroundImageFix"/>
<feColorMatrix in="SourceAlpha" type="matrix" values="0 0 0 0 0 0 0 0 0 0 0 0 0 0 0 0 0 0 127 0" result="hardAlpha"/>
<feOffset dy="11"/>
<feGaussianBlur stdDeviation="11"/>
<feColorMatrix type="matrix" values="0 0 0 0 0 0 0 0 0 0 0 0 0 0 0 0 0 0 0.27 0"/>
<feBlend mode="normal" in2="BackgroundImageFix" result="effect1_dropShadow_7250_115010"/>
<feBlend mode="normal" in="SourceGraphic" in2="effect1_dropShadow_7250_115010" result="shape"/>
</filter>
<filter id="filter1_d_7250_115010" x="-15.9673" y="13" width="214.543" height="232.679" filterUnits="userSpaceOnUse" color-interpolation-filters="sRGB">
<feFlood flood-opacity="0" result="BackgroundImageFix"/>
<feColorMatrix in="SourceAlpha" type="matrix" values="0 0 0 0 0 0 0 0 0 0 0 0 0 0 0 0 0 0 127 0" result="hardAlpha"/>
<feOffset dy="11"/>
<feGaussianBlur stdDeviation="11"/>
<feColorMatrix type="matrix" values="0 0 0 0 0 0 0 0 0 0 0 0 0 0 0 0 0 0 0.27 0"/>
<feBlend mode="normal" in2="BackgroundImageFix" result="effect1_dropShadow_7250_115010"/>
<feBlend mode="normal" in="SourceGraphic" in2="effect1_dropShadow_7250_115010" result="shape"/>
</filter>
<filter id="filter2_d_7250_115010" x="89.7642" y="90.3314" width="142.897" height="141.476" filterUnits="userSpaceOnUse" color-interpolation-filters="sRGB">
<feFlood flood-opacity="0" result="BackgroundImageFix"/>
<feColorMatrix in="SourceAlpha" type="matrix" values="0 0 0 0 0 0 0 0 0 0 0 0 0 0 0 0 0 0 127 0" result="hardAlpha"/>
<feOffset dy="4"/>
<feGaussianBlur stdDeviation="2"/>
<feComposite in2="hardAlpha" operator="out"/>
<feColorMatrix type="matrix" values="0 0 0 0 0 0 0 0 0 0 0 0 0 0 0 0 0 0 0.25 0"/>
<feBlend mode="normal" in2="BackgroundImageFix" result="effect1_dropShadow_7250_115010"/>
<feBlend mode="normal" in="SourceGraphic" in2="effect1_dropShadow_7250_115010" result="shape"/>
</filter>
<clipPath id="clip0_7250_115010">
<rect width="240" height="240" fill="white"/>
</clipPath>
</defs>
</svg>
