<svg width="24" height="24" viewBox="0 0 24 24" fill="none" xmlns="http://www.w3.org/2000/svg">
<path d="M12.0186 2.00003C17.5363 2.00003 22.0124 6.48577 22 12.0124C21.9876 17.5267 17.5239 22 12.0186 22C6.47614 22 1.98763 17.5143 2.00003 11.9752C2.01242 6.4362 6.48854 1.98763 12.0186 2.00003ZM13.2213 11.7894C13.7793 11.4672 14.1141 10.9963 14.1761 10.4139C14.2381 9.80671 14.2629 9.18714 14.1761 8.59234C14.0273 7.63819 13.4445 6.98144 12.465 6.79557C11.9938 6.70883 11.4978 6.70882 11.0143 6.77077C10.0471 6.90708 9.42716 7.48949 9.19158 8.44363C9.01799 9.12517 9.03038 9.81909 9.16678 10.5006C9.27837 11.0211 9.55115 11.4548 10.0223 11.7274C10.0471 11.7398 10.0595 11.7646 10.0967 11.8017C9.57595 12.1115 9.27837 12.5824 9.16678 13.1524C9.01798 13.9083 9.03039 14.6766 9.12958 15.4449C9.22877 16.176 9.56355 16.7956 10.2455 17.1425C10.8407 17.4523 11.473 17.5019 12.1302 17.4275C13.1841 17.3036 13.9281 16.6964 14.1265 15.6679C14.2381 15.0979 14.2257 14.5155 14.2257 13.9331C14.2629 13.0781 14.0397 12.3098 13.2213 11.7894ZM7.2449 17.3408C7.2449 13.834 7.2449 10.3395 7.2449 6.83273C6.97211 6.83273 6.69933 6.84512 6.43895 6.83273C6.22816 6.82034 6.12897 6.8823 6.05457 7.08056C5.81899 7.74971 5.32302 8.08428 4.61626 8.12146C4.52947 8.12146 4.44267 8.13384 4.34348 8.14623C4.34348 8.53037 4.34348 8.90213 4.34348 9.29866C4.77745 9.29866 5.18662 9.29866 5.633 9.29866C5.633 12 5.633 14.6642 5.633 17.3408C6.17856 17.3408 6.69933 17.3408 7.2449 17.3408ZM18.2182 14.7138C18.2182 14.0198 18.2182 13.3507 18.2182 12.6444C18.9002 12.6444 19.5697 12.6444 20.2393 12.6444C20.2393 12.3098 20.2269 12 20.2393 11.6902C20.2393 11.5291 20.1773 11.492 20.0285 11.492C19.5325 11.5043 19.0366 11.492 18.5406 11.492C18.429 11.492 18.3298 11.492 18.1934 11.492C18.1934 10.798 18.1934 10.1413 18.1934 9.47214C17.7966 9.47214 17.4247 9.47214 17.0403 9.47214C17.0403 10.1537 17.0403 10.8104 17.0403 11.492C16.3583 11.492 15.7012 11.492 15.044 11.492C15.044 11.8885 15.044 12.2602 15.044 12.6444C15.7136 12.6444 16.3707 12.6444 17.0527 12.6444C17.0527 13.3383 17.0527 14.0074 17.0527 14.7014C17.4371 14.7138 17.809 14.7138 18.2182 14.7138Z" fill="currentColor"/>
<path d="M10.7291 14.2677C10.7539 13.9703 10.7415 13.6481 10.8035 13.3383C10.8903 12.8426 11.2003 12.5948 11.6962 12.6072C12.1798 12.6072 12.527 12.8674 12.5642 13.3631C12.6138 13.9703 12.6138 14.6022 12.5642 15.2094C12.5146 15.7175 12.1922 15.9529 11.6838 15.9653C11.1631 15.9653 10.8779 15.7299 10.7911 15.2094C10.7415 14.912 10.7415 14.6022 10.7291 14.2677Z" fill="currentColor"/>
<path d="M10.7291 9.70761C10.7539 9.43499 10.7539 9.16238 10.8035 8.90215C10.8903 8.44367 11.1755 8.23301 11.6466 8.22062C12.1426 8.20823 12.4402 8.39409 12.5394 8.86497C12.6634 9.39781 12.6634 9.94304 12.5518 10.4883C12.4526 10.9591 12.0682 11.1822 11.5474 11.1326C11.0763 11.0831 10.7911 10.7733 10.7539 10.2528C10.7415 10.0793 10.7539 9.90587 10.7539 9.71999C10.7415 9.7076 10.7291 9.70761 10.7291 9.70761Z" fill="currentColor"/>
</svg>
