<svg width="24" height="24" viewBox="0 0 24 24" fill="none" xmlns="http://www.w3.org/2000/svg">
    <path d="M13.8 7.3C13.8 7.465 13.666 7.6 13.499 7.6C13.334 7.6 13.2 7.465 13.2 7.3C13.2 7.135 13.334 7 13.5 7C13.666 7 13.8 7.135 13.8 7.3ZM10.5 7C10.334 7 10.2 7.135 10.2 7.301C10.2 7.466 10.334 7.601 10.501 7.601C10.666 7.601 10.8 7.466 10.8 7.301C10.8 7.135 10.666 7 10.5 7ZM24 12C24 18.627 18.627 24 12 24C5.373 24 0 18.627 0 12C0 5.373 5.373 0 12 0C18.627 0 24 5.373 24 12ZM7.8 10.282C7.8 9.799 7.383 9.399 6.9 9.4C6.417 9.399 6 9.8 6 10.283V13.946C6 14.43 6.417 14.8 6.899 14.8C7.382 14.8 7.799 14.43 7.799 13.946V10.282H7.8ZM15.601 9.4H8.399L8.4 15.066C8.4 15.583 8.818 16 9.335 16H9.601V18.125C9.6 18.607 10.023 19 10.506 19C10.989 19 11.4 18.607 11.401 18.125V16H12.6V18.125C12.6 18.607 13.025 19 13.507 19C13.99 19 14.4 18.607 14.4 18.124V16H14.668C15.182 16 15.602 15.582 15.602 15.066V9.4H15.601ZM15.601 8.798C15.601 7.445 14.878 6.515 13.772 5.895L14.335 4.78C14.364 4.721 14.346 4.648 14.29 4.614C14.235 4.582 14.168 4.604 14.138 4.663L13.568 5.79C12.65 5.348 11.442 5.303 10.431 5.79L9.862 4.663C9.832 4.604 9.765 4.583 9.71 4.614C9.654 4.647 9.636 4.721 9.665 4.78L10.228 5.895C9.122 6.515 8.399 7.445 8.399 8.798H15.601ZM18 10.282C18 9.799 17.583 9.399 17.101 9.4C16.618 9.399 16.201 9.8 16.201 10.283V13.946C16.201 14.43 16.618 14.8 17.101 14.8C17.583 14.8 18 14.43 18 13.946V10.282Z" fill="currentColor"/>
</svg>
