<svg width="24" height="24" viewBox="0 0 24 24" fill="none" xmlns="http://www.w3.org/2000/svg">
<path d="M12.2455 6.1462C13.1651 6.1462 14.3179 5.50539 15.0044 4.65097C15.6261 3.87665 16.0794 2.79528 16.0794 1.71391C16.0794 1.56705 16.0665 1.4202 16.0406 1.30005C15.0173 1.3401 13.7869 2.00761 13.0486 2.90208C12.4657 3.58295 11.9347 4.65097 11.9347 5.74569C11.9347 5.9059 11.9606 6.0661 11.9735 6.1195C12.0383 6.13285 12.1419 6.1462 12.2455 6.1462ZM9.00745 22.3C10.2638 22.3 10.8208 21.4323 12.388 21.4323C13.9811 21.4323 14.3308 22.2733 15.7297 22.2733C17.1026 22.2733 18.0223 20.965 18.8901 19.6834C19.8615 18.2149 20.263 16.773 20.2889 16.7063C20.1982 16.6796 17.5689 15.5715 17.5689 12.4609C17.5689 9.76413 19.6413 8.54925 19.7579 8.4558C18.3849 6.42656 16.2996 6.37316 15.7297 6.37316C14.1884 6.37316 12.932 7.33438 12.1419 7.33438C11.2871 7.33438 10.1602 6.42656 8.82612 6.42656C6.28747 6.42656 3.70996 8.5893 3.70996 12.6745C3.70996 15.211 4.66843 17.8945 5.84709 19.63C6.85737 21.0985 7.73813 22.3 9.00745 22.3Z" fill="currentColor"/>
</svg>
