<svg width="24" height="24" viewBox="0 0 24 24" fill="none" xmlns="http://www.w3.org/2000/svg">
<path d="M12.4682 8.19006L17.8083 13.4924C17.9319 13.6151 18 13.7788 18 13.9533C18 14.1279 17.9319 14.2916 17.8083 14.4142L17.4151 14.8047C17.1589 15.0588 16.7425 15.0588 16.4867 14.8047L12.0025 10.3522L7.51326 14.8097C7.38965 14.9323 7.22487 15 7.04916 15C6.87326 15 6.70848 14.9323 6.58477 14.8097L6.19171 14.4192C6.0681 14.2964 6 14.1328 6 13.9583C6 13.7837 6.0681 13.62 6.19171 13.4974L11.5366 8.19006C11.6606 8.06713 11.8262 7.99961 12.0022 8C12.1789 7.99961 12.3443 8.06713 12.4682 8.19006Z" fill="currentColor"/>
</svg>
