<svg width="24" height="24" viewBox="0 0 24 24" fill="none" xmlns="http://www.w3.org/2000/svg">
<path d="M8.19006 12.4682L13.4924 17.8083C13.6151 17.9319 13.7788 18 13.9533 18C14.1279 18 14.2916 17.9319 14.4142 17.8083L14.8047 17.4151C15.0588 17.1589 15.0588 16.7425 14.8047 16.4867L10.3522 12.0025L14.8097 7.51326C14.9323 7.38965 15 7.22487 15 7.04916C15 6.87326 14.9323 6.70848 14.8097 6.58477L14.4192 6.19171C14.2964 6.0681 14.1328 6 13.9583 6C13.7837 6 13.62 6.0681 13.4974 6.19171L8.19006 11.5366C8.06713 11.6606 7.99961 11.8262 8 12.0022C7.99961 12.1789 8.06713 12.3443 8.19006 12.4682Z" fill="currentColor"/>
</svg>
