<svg width="24" height="24" viewBox="0 0 24 24" fill="none" xmlns="http://www.w3.org/2000/svg">
<path d="M12.4682 15.8099L17.8083 10.5076C17.9319 10.3849 18 10.2212 18 10.0467C18 9.87212 17.9319 9.70841 17.8083 9.58577L17.4151 9.19529C17.1589 8.9412 16.7425 8.9412 16.4867 9.19529L12.0025 13.6478L7.51326 9.19035C7.38965 9.06771 7.22487 9 7.04916 9C6.87326 9 6.70848 9.06771 6.58477 9.19035L6.19171 9.58083C6.0681 9.70356 6 9.86718 6 10.0417C6 10.2163 6.0681 10.38 6.19171 10.5026L11.5366 15.8099C11.6606 15.9329 11.8262 16.0004 12.0022 16C12.1789 16.0004 12.3443 15.9329 12.4682 15.8099Z" fill="currentColor"/>
</svg>
