<svg width="24" height="24" viewBox="0 0 24 24" fill="none" xmlns="http://www.w3.org/2000/svg">
<path d="M15.8099 12.4682L10.5076 17.8083C10.3849 17.9319 10.2212 18 10.0467 18C9.87212 18 9.70841 17.9319 9.58577 17.8083L9.19529 17.4151C8.9412 17.1589 8.9412 16.7425 9.19529 16.4867L13.6478 12.0025L9.19035 7.51326C9.06771 7.38965 9 7.22487 9 7.04916C9 6.87326 9.06771 6.70848 9.19035 6.58477L9.58083 6.19171C9.70356 6.0681 9.86718 6 10.0417 6C10.2163 6 10.38 6.0681 10.5026 6.19171L15.8099 11.5366C15.9329 11.6606 16.0004 11.8262 16 12.0022C16.0004 12.1789 15.9329 12.3443 15.8099 12.4682Z" fill="currentColor"/>
</svg>
