<svg width="20" height="20" viewBox="0 0 20 20" fill="none" xmlns="http://www.w3.org/2000/svg">
<path fill-rule="evenodd" clip-rule="evenodd" d="M11.042 9.05945L15.1111 4.99033C15.3403 4.24626 15.1624 3.40158 14.5774 2.81367C13.7607 1.99075 12.3378 1.99284 11.5222 2.81367C11.0702 3.2668 9.8722 5.11159 10.0378 6.34388H9.96283C10.1274 5.11159 8.92949 3.2668 8.47845 2.81367C7.66178 1.99284 6.23887 1.99284 5.42324 2.81367C4.58366 3.65847 4.58366 5.03347 5.4222 5.87826C5.56491 6.02201 5.76803 6.18242 6.00449 6.34388H2.70866C2.1347 6.34388 1.66699 6.81159 1.66699 7.38555V8.94805C1.66699 9.23555 1.90033 9.46888 2.18783 9.46888H8.95866V6.55222H11.042V9.05945ZM8.70449 6.34388C8.85345 6.34388 8.8972 6.30951 8.8972 6.30951C9.13991 6.05847 8.44199 4.2543 7.73991 3.54805C7.52845 3.33555 7.24824 3.21888 6.95137 3.21888C6.65345 3.21888 6.37324 3.33555 6.16178 3.54805C5.72533 3.98763 5.72533 4.7043 6.16178 5.14388C6.61074 5.59597 7.9847 6.34388 8.70449 6.34388ZM11.1034 6.30951C11.1034 6.30951 11.1472 6.34388 11.2952 6.34388C12.0159 6.34388 13.3899 5.59597 13.8389 5.14388C14.2764 4.7043 14.2764 3.98763 13.8389 3.54805C13.4149 3.12201 12.6805 3.12409 12.2607 3.54805C11.5587 4.2543 10.8607 6.05847 11.1034 6.30951ZM3.54199 16.5594V10.9249H8.95866V11.1428L3.54199 16.5594Z" fill="currentColor"/>
<path fill-rule="evenodd" clip-rule="evenodd" d="M5.83398 17.8024H8.95805V14.6783L7.70805 15.9283V16.5524H7.08398L5.83398 17.8024ZM11.0414 12.595V17.8024H15.4164C15.9914 17.8024 16.458 17.3357 16.458 16.7607V10.9249H12.7115L11.0414 12.595ZM14.1675 9.46887H17.8122C18.0997 9.46887 18.333 9.23554 18.333 8.94804V7.38554C18.333 6.81194 17.867 6.34446 17.2925 6.34387L16.0425 7.59387H17.083V8.21887H15.4175L14.1675 9.46887ZM12.2914 16.5524V12.1749H15.208V16.5524H12.2914Z" fill="currentColor"/>
<path d="M17.4997 3.33333L3.33301 17.5" stroke="white" stroke-width="1.5" stroke-linecap="round"/>
</svg>
