<svg width="24" height="24" viewBox="0 0 24 24" fill="none" xmlns="http://www.w3.org/2000/svg">
<path fill-rule="evenodd" clip-rule="evenodd" d="M20.75 7.61266H16.795C17.0787 7.41891 17.3225 7.22641 17.4925 7.05391C18.5013 6.04016 18.5013 4.39016 17.4925 3.37641C16.5125 2.38891 14.805 2.39141 13.8263 3.37641C13.2838 3.92016 11.8463 6.13391 12.045 7.61266H11.955C12.1525 6.13391 10.715 3.92016 10.1737 3.37641C9.19375 2.39141 7.48625 2.39141 6.5075 3.37641C5.5 4.39016 5.5 6.04016 6.50625 7.05391C6.6775 7.22641 6.92125 7.41891 7.205 7.61266H3.25C2.56125 7.61266 2 8.17391 2 8.86266V10.7377C2 11.0827 2.28 11.3627 2.625 11.3627H10.75V7.86266H13.25V11.3627H21.375C21.72 11.3627 22 11.0827 22 10.7377V8.86266C22 8.17391 21.44 7.61266 20.75 7.61266ZM10.6763 7.57141C10.6763 7.57141 10.6237 7.61266 10.445 7.61266C9.58125 7.61266 7.9325 6.71516 7.39375 6.17266C6.87 5.64516 6.87 4.78516 7.39375 4.25766C7.6475 4.00266 7.98375 3.86266 8.34125 3.86266C8.6975 3.86266 9.03375 4.00266 9.2875 4.25766C10.13 5.10516 10.9675 7.27016 10.6763 7.57141ZM13.5538 7.61266C13.3763 7.61266 13.3237 7.57141 13.3237 7.57141C13.0325 7.27016 13.87 5.10516 14.7125 4.25766C15.2162 3.74891 16.0975 3.74641 16.6063 4.25766C17.1313 4.78516 17.1313 5.64516 16.6063 6.17266C16.0675 6.71516 14.4187 7.61266 13.5538 7.61266ZM4.25 13.1099V20.1129C4.25 20.8029 4.81125 21.3629 5.5 21.3629H10.75V13.1099H4.25ZM13.25 21.3629V13.1099H19.75V20.1129C19.75 20.8029 19.19 21.3629 18.5 21.3629H13.25Z" fill="currentColor"/>
</svg>
