<svg width="24" height="24" viewBox="0 0 24 24" fill="none" xmlns="http://www.w3.org/2000/svg">
<path fill-rule="evenodd" clip-rule="evenodd" d="M7.68062 3.55419C7.89193 2.76177 8.56108 2.15865 9.37992 2.02218C9.63085 1.97815 9.94782 2.00017 10.2384 2.08381C11.5063 2.436 12.3207 2.46241 13.3684 2.18506C14.0772 1.99576 14.3105 1.96935 14.6671 2.03098C15.5124 2.18506 16.1639 2.80579 16.362 3.65104C16.4545 4.03845 16.4281 4.29819 16.1859 5.35915L15.9966 6.1956L12.0081 6.2088C9.81135 6.21321 8.01519 6.2088 8.01519 6.1956C8.01519 6.18239 7.92715 5.77297 7.81709 5.28431C7.60578 4.33341 7.57496 3.946 7.68062 3.55419ZM7.6454 8.99549C7.01587 8.837 6.91902 7.98295 7.49572 7.7012C7.62779 7.63516 8.07243 7.62636 12.0257 7.62636H16.4105L16.5601 7.72761C16.8771 7.93892 16.9872 8.2779 16.8463 8.60808C16.7671 8.79738 16.6394 8.90304 16.3841 8.99108L16.1639 9.06152L17.1148 10.4923C18.1274 12.0155 18.3519 12.4161 18.5984 13.1249C18.8802 13.9349 18.9506 14.3619 18.9506 15.3084C18.9506 16.2285 18.8802 16.682 18.6248 17.4568C17.9689 19.4114 16.3312 21.0359 14.3678 21.6698C13.5313 21.9384 13.0735 22 11.9773 22C10.8723 21.9956 10.4937 21.9384 9.60885 21.6478C6.10899 20.4812 4.22919 16.704 5.39581 13.1909C5.62913 12.4821 5.91528 11.9715 6.91021 10.4747C7.42088 9.70426 7.83911 9.07033 7.83911 9.06152C7.83911 9.05272 7.75106 9.0219 7.6454 8.99549Z" fill="currentColor"/>
</svg>
