<svg width="24" height="24" viewBox="0 0 24 24" fill="none" xmlns="http://www.w3.org/2000/svg">
<path d="M8 3C7.44772 3 7 3.44771 7 4V5H9V4C9 3.44772 8.55229 3 8 3Z" fill="currentColor"/>
<path fill-rule="evenodd" clip-rule="evenodd" d="M5 5C3.89543 5 3 5.89543 3 7V19C3 20.1046 3.89543 21 5 21H19C20.1046 21 21 20.1046 21 19V7C21 5.89543 20.1046 5 19 5H5ZM19 9H5V19H19V9Z" fill="currentColor"/>
<path d="M15 4C15 3.44771 15.4477 3 16 3C16.5523 3 17 3.44772 17 4V5H15V4Z" fill="currentColor"/>
<path d="M11 12.3999C11 11.8476 11.4477 11.3999 12 11.3999C12.5523 11.3999 13 11.8476 13 12.3999C13 12.9522 12.5523 13.3999 12 13.3999C11.4477 13.3999 11 12.9522 11 12.3999Z" fill="currentColor"/>
<path d="M14.5 12.3999C14.5 11.8476 14.9477 11.3999 15.5 11.3999C16.0523 11.3999 16.5 11.8476 16.5 12.3999C16.5 12.9522 16.0523 13.3999 15.5 13.3999C14.9477 13.3999 14.5 12.9522 14.5 12.3999Z" fill="currentColor"/>
<path d="M7.5 15.8999C7.5 15.3476 7.94772 14.8999 8.5 14.8999C9.05228 14.8999 9.5 15.3476 9.5 15.8999C9.5 16.4522 9.05228 16.8999 8.5 16.8999C7.94772 16.8999 7.5 16.4522 7.5 15.8999Z" fill="currentColor"/>
<path d="M11 15.8999C11 15.3476 11.4477 14.8999 12 14.8999C12.5523 14.8999 13 15.3476 13 15.8999C13 16.4522 12.5523 16.8999 12 16.8999C11.4477 16.8999 11 16.4522 11 15.8999Z" fill="currentColor"/>
<path d="M14.5 15.8999C14.5 15.3476 14.9477 14.8999 15.5 14.8999C16.0523 14.8999 16.5 15.3476 16.5 15.8999C16.5 16.4522 16.0523 16.8999 15.5 16.8999C14.9477 16.8999 14.5 16.4522 14.5 15.8999Z" fill="currentColor"/>
</svg>
