<svg width="24" height="24" viewBox="0 0 24 24" fill="none" xmlns="http://www.w3.org/2000/svg">
<path d="M11.8916 8.59278L10.4131 15.4629H8.64382L10.1223 8.59278H11.8916ZM19.3728 13.0283L20.3091 10.4458L20.8463 13.0283H19.3728ZM21.3441 15.4629H23L21.5708 8.59278H20.0479C19.7181 8.58676 19.4177 8.78183 19.289 9.08561L16.6425 15.4678H18.5103L18.8799 14.4427H21.1617L21.3441 15.4629ZM16.7016 13.2205C16.7016 11.4068 14.1931 11.3083 14.2128 10.4951C14.2128 10.2487 14.4543 10.0023 14.9668 9.9185C15.5685 9.8605 16.1747 9.96607 16.7213 10.2241L17.0318 8.74556C16.5006 8.54626 15.9383 8.4428 15.371 8.44C13.6116 8.44 12.3795 9.37145 12.3696 10.712C12.3696 11.6976 13.2518 12.2545 13.927 12.5847C14.6022 12.9149 14.8535 13.1367 14.8486 13.4373C14.8486 13.9006 14.2966 14.1026 13.784 14.1125C13.1492 14.1261 12.5214 13.9768 11.9606 13.6788L11.6402 15.1869C12.269 15.4299 12.9375 15.5536 13.6116 15.5516C15.4794 15.5516 16.7016 14.63 16.7065 13.2008L16.7016 13.2205ZM9.35349 8.59278L6.47043 15.4678H4.59274L3.17339 9.98257C3.14546 9.72503 2.98728 9.49986 2.75448 9.38624C2.19655 9.11684 1.60717 8.91817 1 8.79484L1.04435 8.59771H4.06541C4.47325 8.59765 4.82039 8.8946 4.88351 9.29753L5.63262 13.2747L7.48073 8.59771L9.35349 8.59278Z" fill="currentColor"/>
</svg>
