<svg width="24" height="24" viewBox="0 0 24 24" fill="none" xmlns="http://www.w3.org/2000/svg">
<path fill-rule="evenodd" clip-rule="evenodd" d="M7.79245 18.7949C4.04108 18.7949 1 15.7538 1 12.0024C1 8.25104 4.04108 5.20996 7.79245 5.20996C9.32667 5.20996 10.8074 5.72901 11.9998 6.66987C10.4254 7.91384 9.41509 9.84014 9.41509 12.0024C9.41509 14.1648 10.4255 16.0911 12 17.3351C10.843 18.2492 9.38145 18.7949 7.79245 18.7949ZM12 17.3351C13.157 18.2492 14.6185 18.7949 16.2075 18.7949C19.9589 18.7949 23 15.7538 23 12.0024C23 8.25104 19.9589 5.20996 16.2075 5.20996C14.6185 5.20996 13.1568 5.75565 11.9998 6.66987C12.2075 6.83376 12.4065 7.01045 12.5954 7.19942C13.8693 8.47325 14.5849 10.2009 14.5849 12.0024C14.5849 14.1648 13.5745 16.0911 12 17.3351ZM12.0038 7.31115C10.6255 8.42722 9.82066 10.134 9.82066 11.9409C9.82066 13.7477 10.6255 15.4545 12.0038 16.5706C13.382 15.4545 14.1868 13.7477 14.1868 11.9409C14.1868 10.134 13.382 8.42722 12.0038 7.31115Z" fill="currentColor"/>
</svg>
