<svg width="24" height="24" viewBox="0 0 24 24" fill="none" xmlns="http://www.w3.org/2000/svg">
<path fill-rule="evenodd" clip-rule="evenodd" d="M7.79245 18.7949C4.04108 18.7949 1 15.7538 1 12.0024C1 8.25107 4.04108 5.20999 7.79245 5.20999C9.32667 5.20999 10.8074 5.72904 11.9998 6.6699C10.4254 7.91387 9.41509 9.84017 9.41509 12.0024C9.41509 14.1648 10.4255 16.0912 12 17.3351C10.843 18.2493 9.38145 18.7949 7.79245 18.7949ZM12 17.3351C13.157 18.2493 14.6185 18.7949 16.2075 18.7949C19.9589 18.7949 23 15.7538 23 12.0024C23 8.25107 19.9589 5.20999 16.2075 5.20999C14.6185 5.20999 13.1568 5.75568 11.9998 6.6699C12.2075 6.83379 12.4065 7.01048 12.5954 7.19945C13.8693 8.47328 14.5849 10.201 14.5849 12.0024C14.5849 14.1648 13.5745 16.0912 12 17.3351ZM12.0038 7.31118C10.6255 8.42725 9.82066 10.134 9.82066 11.9409C9.82066 13.7478 10.6255 15.4545 12.0038 16.5706C13.382 15.4545 14.1868 13.7478 14.1868 11.9409C14.1868 10.134 13.382 8.42725 12.0038 7.31118Z" fill="currentColor"/>
</svg>
