<svg width="16" height="16" viewBox="0 0 16 16" fill="none" xmlns="http://www.w3.org/2000/svg">
<path fill-rule="evenodd" clip-rule="evenodd" d="M7.28573 7.90039V12.9004H8.00001H8.7143V7.90039V2.90039H8.00001H7.28573V7.90039ZM2.36013 2.9748C2.29763 3.03433 2.28573 3.07599 2.28573 3.2129V3.37659H4.54763H6.80954V3.13849V2.9004H4.62204H2.43156L2.36013 2.9748ZM9.19051 3.37659V3.13849V2.9004H11.378H13.5685L13.6399 2.9748C13.7024 3.03433 13.7143 3.07599 13.7143 3.2129V3.37659H11.4524H9.19051ZM1.88389 3.92717C1.82139 3.9867 1.80949 4.02836 1.80949 4.16527V4.32896H4.30949H6.80949V4.09086V3.85277H4.38389H1.95532L1.88389 3.92717ZM9.19051 4.32896V4.09086V3.85277H11.6161H14.0447L14.1161 3.92717C14.1786 3.9867 14.1905 4.02836 14.1905 4.16527V4.32896H11.6905H9.19051ZM1.70232 4.84088C1.61601 4.88254 1.57137 4.98671 1.57137 5.14742V5.28135H4.19042H6.80947V5.04326V4.80516L4.28863 4.80814C2.61601 4.80814 1.74399 4.82004 1.70232 4.84088ZM9.19051 5.28135V5.04326V4.80516H11.7054C13.4822 4.80516 14.2381 4.81409 14.2887 4.8379C14.384 4.87957 14.4286 4.98373 14.4286 5.14742V5.28135H11.8096H9.19051ZM1.40774 5.83194L1.33333 5.90337V9.32896V12.7546L1.40774 12.826L1.47917 12.9004H4.14583H6.80953V12.6474V12.3944H5.00893H3.20536L3.13691 12.326C3.08631 12.2754 3.0625 12.2069 3.04762 12.07C2.99107 11.5819 2.79167 11.4182 2.19345 11.3647C1.99405 11.3468 1.93452 11.3319 1.87798 11.2754L1.80952 11.2069V9.55218V7.89741L1.87798 7.82896C1.92262 7.78432 2 7.75456 2.10714 7.73968C2.63095 7.67122 2.97322 7.24563 3.04464 6.57896C3.0625 6.42122 3.08333 6.35575 3.13691 6.30218L3.20536 6.23372H5.00893H6.80953V5.99563V5.75753H4.14583H1.47917L1.40774 5.83194ZM9.19051 6.23372V5.99563V5.75753H11.8542H14.5209L14.5923 5.83194L14.6667 5.90337V9.32896V12.7546L14.5923 12.826L14.5209 12.9004H11.8542H9.19051V12.6474V12.3944H10.9911H12.7947L12.8631 12.326C12.9167 12.2724 12.9375 12.2069 12.9554 12.0492C13.0238 11.4063 13.3512 10.9897 13.8661 10.8915C13.8907 10.8869 13.9135 10.8832 13.9346 10.8799C14.0001 10.8694 14.049 10.8616 14.0854 10.836C14.1922 10.7611 14.1919 10.5335 14.1908 9.63836L14.1905 9.31408L14.1908 8.99155C14.1919 8.09478 14.1922 7.86674 14.0849 7.79096C14.0483 7.76512 13.9992 7.75698 13.9334 7.74607C13.9118 7.74249 13.8885 7.73862 13.8631 7.73372C13.3512 7.63849 13.0566 7.27241 12.9584 6.6117C12.9256 6.39741 12.9048 6.33194 12.8512 6.2873C12.7887 6.2367 12.6816 6.23372 10.9881 6.23372H9.19051ZM3.47025 6.92718C3.32442 7.52837 2.91668 8.00159 2.39882 8.16825L2.28573 8.20397V9.54921V10.8944L2.49108 10.9242C2.75596 10.9688 3.05061 11.1058 3.20834 11.2635C3.34227 11.3974 3.45834 11.6206 3.49108 11.8081L3.51192 11.9183H5.16073H6.80954V11.5016C6.80954 11.2724 6.79763 11.0849 6.78573 11.0849C6.73215 11.0849 6.38394 10.7397 6.25596 10.5611C5.62799 9.68016 5.76489 8.4748 6.57442 7.73968C6.67858 7.64742 6.77084 7.57302 6.78573 7.57302C6.79763 7.57302 6.80954 7.37956 6.80954 7.14147V6.70992H5.16668H3.52084L3.47025 6.92718ZM3.93454 8.6504C4.09823 8.69802 4.34525 8.94504 4.39287 9.10873C4.4762 9.38849 4.41668 9.61171 4.20537 9.82004C3.90477 10.1236 3.52382 10.1236 3.22323 9.82004C2.91965 9.51944 2.91965 9.13849 3.22323 8.8379C3.43156 8.62659 3.65477 8.57004 3.93454 8.6504ZM3.47616 9.32896C3.47616 9.27242 3.50294 9.20992 3.55056 9.16527C3.5952 9.11765 3.6577 9.09087 3.71425 9.09087C3.7708 9.09087 3.8333 9.11765 3.87794 9.16527C3.92556 9.20992 3.95235 9.27242 3.95235 9.32896C3.95235 9.38551 3.92556 9.44801 3.87794 9.49265C3.8333 9.54027 3.7708 9.56706 3.71425 9.56706C3.6577 9.56706 3.5952 9.54027 3.55056 9.49265C3.50294 9.44801 3.47616 9.38551 3.47616 9.32896ZM9.19051 7.14147C9.19051 7.37956 9.20242 7.57302 9.21432 7.57302C9.26789 7.57302 9.61611 7.91825 9.74408 8.09683C10.3721 8.97778 10.2352 10.1831 9.42563 10.9183C9.32146 11.0105 9.2292 11.0849 9.21432 11.0849C9.20242 11.0849 9.19051 11.2724 9.19051 11.5016V11.9183H10.8363H12.4822L12.5209 11.7308C12.6369 11.1474 13.0804 10.6266 13.6042 10.4599L13.7143 10.4242V9.31409V8.20397L13.6042 8.16825C13.0804 8.00159 12.6369 7.48075 12.5209 6.89444L12.4822 6.70992H10.8363H9.19051V7.14147ZM12.506 8.6504C12.7619 8.72778 13 9.05516 13 9.32897C13 9.69802 12.6548 10.0433 12.2857 10.0433C11.9167 10.0433 11.5715 9.69802 11.5715 9.32897C11.5715 9.14147 11.6399 8.98968 11.7947 8.8379C12.003 8.62659 12.2262 8.57004 12.506 8.6504ZM12.2857 9.56706C12.0774 9.56706 11.9732 9.31111 12.122 9.16527C12.1667 9.11765 12.2292 9.09087 12.2857 9.09087C12.4078 9.09087 12.5238 9.20694 12.5238 9.32896C12.5238 9.45099 12.4078 9.56706 12.2857 9.56706ZM6.68751 8.3111C6.44346 8.62955 6.34823 8.91229 6.34823 9.32895C6.34823 9.75157 6.44644 10.0403 6.69346 10.3528L6.80954 10.4986V9.33193C6.80954 8.69205 6.80656 8.16824 6.80358 8.16824C6.79763 8.17122 6.74704 8.23372 6.68751 8.3111ZM9.19051 10.4986V9.32895V8.15931L9.30658 8.30514C9.55361 8.61764 9.65182 8.90633 9.65182 9.32895C9.65182 9.75157 9.55361 10.0403 9.30658 10.3528L9.19051 10.4986Z" fill="currentColor"/>
</svg>
