<svg width="20" height="20" viewBox="0 0 20 20" fill="none" xmlns="http://www.w3.org/2000/svg">
<path d="M10.1846 2.00223C9.94881 1.99637 9.71306 2.00223 9.47838 2.0177C7.95615 2.11744 6.51927 2.6092 5.25305 3.5618V3.0647C5.25199 2.77188 5.01464 2.53453 4.72182 2.53347C4.4274 2.5324 4.18739 2.77028 4.18632 3.0647V4.71814C4.18632 5.19337 4.75916 5.43072 5.09571 5.09629C7.55933 2.63321 11.4588 2.37772 14.2221 4.49839C16.9855 6.61905 17.7472 10.4508 16.0063 13.4675C14.2643 16.4842 10.567 17.7376 7.34865 16.4042C4.13032 15.0708 2.40381 11.5714 3.30573 8.20689C3.38254 7.92207 3.21293 7.62925 2.92757 7.55351C2.64382 7.47617 2.351 7.64365 2.27313 7.9274C1.2352 11.8018 3.23373 15.857 6.93903 17.3925C10.6443 18.9276 14.923 17.4709 16.9284 13.9987C18.9339 10.5265 18.0549 6.09262 14.8729 3.6514C13.4808 2.58307 11.8337 2.03904 10.1846 2.00223ZM10.0016 4.54213C6.9929 4.54213 4.53994 6.99135 4.53994 9.99953C4.53994 13.0077 6.99343 15.4601 10.0016 15.4601C13.0098 15.4601 15.458 13.0072 15.458 9.99953C15.458 6.99188 13.0098 4.54213 10.0016 4.54213ZM10.0016 6.64839C10.296 6.64946 10.5339 6.88947 10.5328 7.18389V7.26603C11.0662 7.33857 11.5233 7.66925 11.766 8.12955C11.9025 8.39037 11.8017 8.71252 11.5404 8.84959C11.2806 8.98614 10.9579 8.88586 10.8203 8.62558C10.7249 8.4437 10.5403 8.31836 10.312 8.31836H9.81601C9.48852 8.31836 9.24103 8.56584 9.24103 8.89333C9.24103 9.22082 9.48852 9.4683 9.81601 9.4683H10.0016H10.0278H10.1862C11.0865 9.4683 11.8236 10.2102 11.8236 11.11C11.8236 11.8914 11.2684 12.5506 10.5328 12.7122V12.8184C10.5318 13.1112 10.2944 13.3485 10.0016 13.3496C9.70667 13.3512 9.46612 13.1133 9.46505 12.8184V12.7352C8.93275 12.6616 8.47565 12.333 8.23351 11.8738C8.0959 11.6135 8.1967 11.2897 8.45752 11.1527C8.71887 11.0151 9.04156 11.1164 9.17863 11.3778C9.27411 11.5596 9.46238 11.6839 9.69013 11.6839H10.1862C10.5142 11.6839 10.7569 11.4375 10.7569 11.11C10.7569 10.7825 10.5142 10.535 10.1862 10.535H10.0016H9.81601C8.91568 10.535 8.1743 9.79312 8.1743 8.89333C8.1743 8.11408 8.73114 7.45537 9.46505 7.29216V7.18389C9.46398 6.88734 9.70453 6.64679 10.0016 6.64839Z" fill="currentColor"/>
</svg>
