<svg width="24" height="24" viewBox="0 0 24 24" fill="none" xmlns="http://www.w3.org/2000/svg">
<path d="M21.2589 8.21647C21.0993 7.82596 20.6291 7.687 20.2639 7.89821V7.89821C19.9303 8.09114 19.8063 8.50824 19.9471 8.86691C20.3338 9.85152 20.5364 10.9101 20.5364 12C20.5364 13.0899 20.3338 14.1485 19.9471 15.1331C19.8063 15.4918 19.9303 15.9089 20.2639 16.1018V16.1018C20.6291 16.313 21.0993 16.174 21.2589 15.7835C21.7364 14.6156 22 13.3381 22 12C22 10.6619 21.7364 9.38439 21.2589 8.21647Z" fill="currentColor"/>
<path fill-rule="evenodd" clip-rule="evenodd" d="M12 4.62251C16.0608 4.62251 19.3645 7.93201 19.3645 12C19.3645 16.068 16.0608 19.3775 12 19.3775C7.93922 19.3775 4.63551 16.068 4.63551 12C4.63551 7.93201 7.93922 4.62251 12 4.62251ZM6.09914 12C6.09914 12.3236 6.36147 12.587 6.68508 12.587V12.587C7.00868 12.587 7.27102 12.3236 7.27102 12V12C7.27102 11.6764 7.00868 11.413 6.68508 11.413V11.413C6.36147 11.413 6.09914 11.6764 6.09914 12V12ZM17.9009 12C17.9009 11.6764 17.6386 11.413 17.315 11.413V11.413C16.9914 11.413 16.729 11.6764 16.729 12V12C16.729 12.3236 16.9914 12.587 17.315 12.587V12.587C17.6386 12.587 17.9009 12.3236 17.9009 12V12ZM12.7656 7.7112V7.19466C12.7656 6.90939 12.5348 6.67813 12.25 6.67813H11.7135C11.4316 6.67813 11.2031 6.90705 11.2031 7.18944V7.70076L10.8385 7.78946C9.77083 8.07121 8.96354 9.12514 8.96354 10.2521C8.96354 10.9252 9.21875 11.5252 9.71875 12.0261C10.3073 12.6157 10.7865 12.7826 11.9062 12.7826C12.5052 12.7826 12.6719 12.8035 12.8437 12.8818C13.4792 13.1739 13.6458 13.9305 13.1927 14.4209C12.9323 14.6975 12.7031 14.7653 12.0052 14.7653C11.6562 14.7653 11.2969 14.7392 11.1979 14.7079C10.9323 14.6192 10.651 14.3218 10.5781 14.0557C10.538 13.9196 10.4132 13.8261 10.2715 13.8261H9.2264C9.08176 13.8261 8.97029 13.9538 8.98958 14.0974C9.09375 14.8696 9.54687 15.5584 10.2135 15.9705C10.4062 16.0958 10.9271 16.2784 11.0729 16.2784C11.2031 16.2784 11.2031 16.2784 11.2031 16.8001C11.2031 17.0883 11.4363 17.3219 11.724 17.3219H12.25C12.5348 17.3219 12.7656 17.0906 12.7656 16.8053V16.2888L13 16.2575C13.3646 16.2001 13.9427 15.8818 14.2708 15.5531C15.2396 14.5827 15.2448 12.9861 14.276 11.9948C13.724 11.4313 13.1042 11.2174 11.9896 11.2174C11.3802 11.2174 11.2552 11.2017 11.0573 11.1078C10.4323 10.8 10.3542 9.89734 10.9167 9.46428C11.1143 9.31319 11.125 9.31298 11.9134 9.29739L11.9167 9.29732C12.6875 9.28167 12.724 9.28167 12.9375 9.40689C13.1563 9.53733 13.3437 9.80864 13.4115 10.08C13.4297 10.1652 13.5049 10.226 13.5919 10.226H14.7578C14.891 10.226 14.9932 10.1076 14.974 9.9756C14.8229 8.87992 14.0312 7.98251 13.026 7.76859L12.7656 7.7112Z" fill="currentColor"/>
<path d="M18.6795 6.6737C18.9196 6.97491 19.3429 7.07533 19.6763 6.88247V6.88247C20.0414 6.67131 20.1553 6.19456 19.8967 5.86141C18.3294 3.84277 16.0095 2.43854 13.3627 2.07568C12.9431 2.01816 12.5859 2.35693 12.5859 2.78041V2.78041C12.5859 3.16782 12.887 3.48552 13.2702 3.54243C15.0682 3.80944 16.7273 4.64204 18.0361 5.95321C18.2655 6.18293 18.48 6.42351 18.6795 6.6737Z" fill="currentColor"/>
<path d="M18.0361 18.0468C16.7273 19.358 15.0681 20.1906 13.2702 20.4576C12.887 20.5145 12.5859 20.8322 12.5859 21.2196V21.2196C12.5859 21.6431 12.9431 21.9818 13.3627 21.9243C16.0095 21.5615 18.3294 20.1572 19.8967 18.1386C20.1553 17.8054 20.0414 17.3287 19.6763 17.1175V17.1175C19.3429 16.9247 18.9196 17.0251 18.6795 17.3263C18.48 17.5765 18.2655 17.8171 18.0361 18.0468Z" fill="currentColor"/>
<path d="M5.32054 17.3263C5.08042 17.0251 4.65713 16.9247 4.32368 17.1175V17.1175C3.95858 17.3287 3.8447 17.8054 4.10335 18.1386C5.67056 20.1572 7.99055 21.5615 10.6373 21.9243C11.0569 21.9818 11.4141 21.6431 11.4141 21.2196V21.2196C11.4141 20.8322 11.113 20.5145 10.7298 20.4576C8.93183 20.1906 7.27273 19.358 5.96387 18.0468C5.73453 17.8171 5.51998 17.5765 5.32054 17.3263Z" fill="currentColor"/>
<path d="M3.46363 12C3.46363 10.9101 3.66618 9.85152 4.05287 8.8669C4.19373 8.50824 4.06971 8.09114 3.73615 7.89822V7.89822C3.37094 7.687 2.90075 7.82597 2.7411 8.21648C2.26364 9.3844 2 10.6619 2 12C2 13.3381 2.26364 14.6156 2.7411 15.7835C2.90075 16.174 3.37094 16.313 3.73615 16.1018V16.1018C4.06971 15.9089 4.19373 15.4918 4.05287 15.1331C3.66618 14.1485 3.46363 13.0899 3.46363 12Z" fill="currentColor"/>
<path d="M5.96387 5.95321C7.27273 4.64204 8.93183 3.80944 10.7298 3.54243C11.113 3.48552 11.4141 3.16782 11.4141 2.7804V2.7804C11.4141 2.35693 11.0569 2.01816 10.6373 2.07568C7.99055 2.43854 5.67056 3.84277 4.10335 5.86141C3.8447 6.19456 3.95858 6.67131 4.32368 6.88247V6.88247C4.65713 7.07533 5.08042 6.97491 5.32054 6.6737C5.51998 6.42351 5.73453 6.18293 5.96387 5.95321Z" fill="currentColor"/>
</svg>
