<svg width="24" height="24" viewBox="0 0 24 24" fill="none" xmlns="http://www.w3.org/2000/svg">
<path fill-rule="evenodd" clip-rule="evenodd" d="M7.42333 7.85938C8.29837 7.85938 9.06912 7.61508 9.7056 7.30334C9.05942 8.54678 8.67226 9.98615 8.59542 11.4705C6.01178 11.7542 3.98583 13.971 3.98583 16.6875C3.98583 19.5954 6.29883 22 9.14208 22C10.018 22 10.8571 21.7476 11.6097 21.3254C10.4422 20.1549 9.715 18.4877 9.715 16.6875C9.715 14.8873 10.4422 13.2592 11.6097 12.0887C11.0302 11.7635 10.3988 11.5424 9.73946 11.4565C9.98862 7.31494 13.0469 3.8988 16.99 3.27548C15.9857 4.71744 15.4442 6.43802 15.4442 8.24451V11.4733C12.8731 11.7691 10.8608 13.9801 10.8608 16.6875C10.8608 19.5954 13.1738 22 16.0171 22C18.8603 22 21.1733 19.5954 21.1733 16.6875C21.1733 13.9801 19.1611 11.7691 16.59 11.4733V8.24451C16.59 6.26346 17.3442 4.40097 18.7138 3.00021L19.6918 2H18.3087C15.6178 2 13.1791 3.12228 11.4145 4.93259C10.9512 4.47772 9.46584 3.17188 7.42333 3.17188C5.11056 3.17188 3.49654 4.85834 3.29158 5.0725C3.28234 5.08215 3.27597 5.08881 3.27252 5.09219L2.84 5.51562L3.27252 5.93906C3.27597 5.94244 3.28234 5.9491 3.29158 5.95875C3.49654 6.17291 5.11056 7.85938 7.42333 7.85938ZM16.0171 14.9297C15.0694 14.9297 14.2983 15.7183 14.2983 16.6875H13.1525C13.1525 15.0722 14.4377 13.7578 16.0171 13.7578V14.9297ZM7.42333 16.6875C7.42333 15.7183 8.19438 14.9297 9.14208 14.9297V13.7578C7.56268 13.7578 6.2775 15.0722 6.2775 16.6875H7.42333Z" fill="currentColor"/>
</svg>
