<svg width="24" height="24" viewBox="0 0 24 24" fill="none" xmlns="http://www.w3.org/2000/svg">
<path d="M10.6781 2.0545C7.25527 2.54818 4.39197 4.63571 2.93916 7.69649C2.53951 8.53808 2.27622 9.37028 2.08816 10.3999C1.97061 11.0394 1.97061 12.9576 2.08816 13.5971C2.4972 15.8115 3.39992 17.5653 4.91385 19.0792C6.42308 20.5884 8.20031 21.5052 10.3725 21.9002C10.9414 22.0036 12.4506 22.0412 13.0806 21.9707C15.8593 21.651 18.3747 20.2123 20.0203 17.9978C20.9935 16.6955 21.5859 15.3085 21.8915 13.6206C22.0138 12.9529 22.0373 11.5424 21.9385 10.7761C21.3884 6.42234 18.1396 2.96192 13.8423 2.14383C13.2922 2.0404 13.0336 2.01689 12.1591 2.00278C11.4539 1.99338 10.9837 2.00749 10.6781 2.0545ZM12.3613 6.05561C12.5917 6.14964 12.7844 6.33771 12.8926 6.56809C12.9725 6.74205 12.9819 6.91601 12.9819 9.05997V11.3638L14.7873 12.2665C16.3248 13.0376 16.6163 13.2021 16.7573 13.3667C17.1899 13.8698 17.0394 14.5985 16.4376 14.89C15.9815 15.1157 15.9721 15.1157 13.579 13.9215C12.1732 13.2209 11.4162 12.8166 11.3034 12.7085C10.9978 12.4122 11.0072 12.5157 11.0072 9.48312C11.0072 6.8643 11.0119 6.71854 11.0965 6.55399C11.3457 6.07442 11.8911 5.85814 12.3613 6.05561Z" fill="currentColor"/>
</svg>
