<svg width="24" height="24" viewBox="0 0 24 24" fill="none" xmlns="http://www.w3.org/2000/svg">
<path fill-rule="evenodd" clip-rule="evenodd" d="M5.23357 5.23368C5.54498 4.92227 6.04988 4.92227 6.36129 5.23368L12 10.8724L17.6387 5.23368C17.9501 4.92227 18.455 4.92227 18.7664 5.23368C19.0778 5.54509 19.0778 6.04999 18.7664 6.3614L13.1277 12.0001L18.7663 17.6386C19.0777 17.9501 19.0777 18.455 18.7663 18.7664C18.4548 19.0778 17.9499 19.0778 17.6385 18.7664L12 13.1278L6.36147 18.7664C6.05006 19.0778 5.54516 19.0778 5.23375 18.7664C4.92234 18.455 4.92234 17.9501 5.23375 17.6386L10.8723 12.0001L5.23357 6.3614C4.92215 6.04999 4.92215 5.54509 5.23357 5.23368Z" fill="currentColor"/>
</svg>
