<svg width="24" height="24" viewBox="0 0 24 24" fill="none" xmlns="http://www.w3.org/2000/svg">
    <path fill-rule="evenodd" clip-rule="evenodd" d="M11.9108 10.5043C12.3289 10.4086 12.7778 10.5083 13.1104 10.8054L13.2164 10.9115C13.2717 10.9733 13.3201 11.0392 13.3618 11.1082C16.1004 10.6001 18.2716 10.7134 19.8655 11.4681C20.2923 11.2342 20.672 10.951 21.0043 10.6186C23.5637 8.05937 20.5893 5.08507 18.793 5.207C18.915 3.41071 15.9407 0.43642 13.3815 2.99561C11.863 4.51407 11.3728 7.01695 11.9108 10.5043ZM13.5276 11.5401C13.6093 11.9601 13.4909 12.4163 13.1744 12.7572L13.0751 12.8544C12.9049 13.0058 12.7076 13.1092 12.5012 13.1645C12.9189 15.6857 12.8276 17.745 12.2121 19.3345C12.4498 19.836 12.7547 20.2728 13.127 20.6452C15.6134 23.1315 18.6747 20.0702 18.6046 18.2767C20.3982 18.3469 23.4593 15.2856 20.973 12.7991C19.501 11.3272 17.0193 10.9075 13.5276 11.5401ZM11.1675 10.9467C10.8702 11.2809 10.7578 11.7197 10.8323 12.1263C7.3238 12.7672 4.83135 12.3495 3.35496 10.8731C0.86852 8.38662 3.92985 5.3253 5.72337 5.39547C5.65318 3.60195 8.71452 0.540626 11.2009 3.02707C11.524 3.35009 11.7963 3.72177 12.018 4.14207C11.2143 5.76403 11.0399 7.94892 11.4746 10.6858C11.401 10.7322 11.3307 10.7861 11.2647 10.8474L11.1675 10.9467ZM12.0429 13.2083C11.7517 13.1873 11.4684 13.0733 11.2411 12.8655L11.1563 12.7807C11.0931 12.7115 11.0385 12.6371 10.9926 12.559C8.34388 13.0537 6.22447 12.9686 4.64337 12.2859C4.00408 12.557 3.45483 12.9222 2.99561 13.3814C0.43642 15.9406 3.41071 18.9148 5.207 18.793C5.08507 20.5893 8.05937 23.5635 10.6186 21.0043C12.1784 19.4445 12.6532 16.8458 12.0429 13.2083Z" fill="currentColor"/>
</svg>