<svg width="24" height="24" viewBox="0 0 24 24" fill="none" xmlns="http://www.w3.org/2000/svg">
<path d="M19.9803 10.5468C19.5123 10.6946 19.0197 10.7931 18.5271 10.7931C16.2118 10.7685 14.3399 8.89655 14.3153 6.58128C14.3153 6.13793 14.3892 5.69458 14.537 5.27586C13.9951 4.68473 13.6995 3.92118 13.6995 3.13301C13.6995 2.81281 13.7488 2.49261 13.8473 2.17241C13.2315 2.07389 12.6158 2 12 2C6.48276 2 2 6.48276 2 12C2 17.5172 6.48276 22 12 22C17.5172 22 22 17.5172 22 12C22 11.7783 22 11.5567 21.9754 11.335C21.2611 11.2611 20.5468 10.9901 19.9803 10.5468ZM6.58128 9.31527C8.30542 9.31527 8.30542 12.0246 6.58128 12.0246C4.85714 12.0246 4.61084 9.31527 6.58128 9.31527ZM8.05912 17.7635C6.08867 17.7635 6.08867 14.8079 8.05912 14.8079C10.0296 14.8079 10.0296 17.7635 8.05912 17.7635ZM11.0148 3.33005C12.7389 3.33005 12.7389 6.28571 11.0148 6.28571C9.29064 6.28571 9.04434 3.33005 11.0148 3.33005ZM12.2463 10.8424C13.7241 10.8424 13.7241 12.8128 12.2463 12.8128C10.7685 12.8128 11.0148 10.8424 12.2463 10.8424ZM13.9704 18.9458C12.4926 18.9458 12.4926 16.9754 13.9704 16.9754C15.4483 16.9754 15.202 18.9458 13.9704 18.9458ZM18.6503 15.1034C17.4187 15.1034 17.4187 13.133 18.6503 13.133C19.8818 13.133 19.8818 15.1034 18.6503 15.1034Z" fill="currentColor"/>
</svg>
