<svg width="24" height="24" viewBox="0 0 24 24" fill="none" xmlns="http://www.w3.org/2000/svg">
<path d="M18.8546 5.63636H8.85457C8.37236 5.63636 7.9099 5.82792 7.56892 6.1689C7.22795 6.50987 7.03639 6.97233 7.03639 7.45455V20.1818C7.03639 20.664 7.22795 21.1265 7.56892 21.4675C7.9099 21.8084 8.37236 22 8.85457 22H18.8546C19.3368 22 19.7992 21.8084 20.1402 21.4675C20.4812 21.1265 20.6728 20.664 20.6728 20.1818V7.45455C20.6728 6.97233 20.4812 6.50987 20.1402 6.1689C19.7992 5.82792 19.3368 5.63636 18.8546 5.63636ZM16.1273 2.90909C16.1273 2.40701 15.7203 2 15.2182 2H5.21821C4.73599 2 4.27353 2.19156 3.93256 2.53253C3.59158 2.87351 3.40002 3.33597 3.40002 3.81818V15.6364C3.40002 16.1384 3.80704 16.5455 4.30912 16.5455C4.81119 16.5455 5.21821 16.1384 5.21821 15.6364V3.81818H15.2182C15.7203 3.81818 16.1273 3.41117 16.1273 2.90909Z" fill="currentColor"/>
</svg>
