<svg width="24" height="24" viewBox="0 0 24 24" fill="none" xmlns="http://www.w3.org/2000/svg">
<g id="Icon / cross">
<path id="Vector" fill-rule="evenodd" clip-rule="evenodd" d="M22 12C22 17.5228 17.5228 22 12 22C6.47715 22 2 17.5228 2 12C2 6.47715 6.47715 2 12 2C17.5228 2 22 6.47715 22 12ZM16.9995 15.6935C16.9994 15.3471 16.8617 15.0149 16.6167 14.77L13.8467 12L16.6167 9.23001C16.7379 9.10875 16.8341 8.9648 16.8997 8.80638C16.9654 8.64795 16.9991 8.47815 16.9991 8.30667C16.9991 8.13519 16.9654 7.96539 16.8997 7.80697C16.8341 7.64854 16.7379 7.50459 16.6167 7.38334C16.4954 7.26208 16.3515 7.1659 16.193 7.10028C16.0346 7.03466 15.8648 7.00088 15.6933 7.00088C15.5219 7.00088 15.3521 7.03466 15.1936 7.10028C15.0352 7.1659 14.8913 7.26208 14.77 7.38334L12 10.1533L9.22889 7.38334C8.9811 7.15307 8.65367 7.02786 8.31546 7.03405C7.97725 7.04025 7.65463 7.17736 7.41544 7.41655C7.17625 7.65574 7.03914 7.97837 7.03294 8.31658C7.02675 8.65479 7.15195 8.98222 7.38223 9.23001L10.1522 12L7.38223 14.77C7.13722 15.015 6.99958 15.3474 6.99958 15.6939C6.99958 16.0404 7.13722 16.3727 7.38223 16.6178C7.50324 16.7395 7.64711 16.836 7.80557 16.9019C7.96403 16.9678 8.13395 17.0017 8.30556 17.0017C8.47717 17.0017 8.64709 16.9678 8.80555 16.9019C8.96401 16.836 9.10788 16.7395 9.22889 16.6178L12 13.8467L14.77 16.6178C15.015 16.8627 15.3473 17.0002 15.6937 17.0001C16.0402 17 16.3723 16.8623 16.6172 16.6172C16.8621 16.3722 16.9996 16.0399 16.9995 15.6935Z" fill="currentColor"/>
</g>
</svg>
