<svg width="24" height="24" viewBox="0 0 24 24" fill="none" xmlns="http://www.w3.org/2000/svg">
<path d="M9.07108 4.92894L12 2L14.9289 4.92894H19.0711V9.07106L22 12L19.0711 14.9289V19.0711H14.9289L12 22L9.07108 19.0711H4.92892V14.9289L2 12L4.92892 9.07106V4.92894H9.07108ZM11.7721 16.8865C14.5967 16.8865 16.8864 14.7095 16.8864 12.0242C16.8864 9.33882 14.5967 7.1619 11.7721 7.1619C11.228 7.1619 10.4707 7.33021 9.5001 7.66683C10.7768 8.98199 11.4151 10.4344 11.4151 12.0242C11.4151 13.6139 10.7041 15.03 9.28216 16.2723C10.3395 16.6817 11.1695 16.8865 11.7721 16.8865Z" fill="currentColor"/>
</svg>
