<svg width="24" height="24" viewBox="0 0 24 24" fill="none" xmlns="http://www.w3.org/2000/svg">
<path d="M20.5455 4H3.45456C2.6509 4 2 4.62652 2 5.40001V15.8C2 16.5735 2.6509 17.2 3.45456 17.2H10.5455V18.2935L8.74229 18.5187C8.37017 18.5652 8.0909 18.8815 8.0909 19.2565C8.0909 19.6671 8.42379 20 8.83442 20H15.1656C15.5762 20 15.9091 19.6671 15.9091 19.2565C15.9091 18.8814 15.6298 18.5651 15.2577 18.5186L13.4545 18.2935V17.2H20.5454C21.3491 17.2 22 16.5735 22 15.8V5.40001C22 4.62652 21.3491 4 20.5455 4ZM20 15.406H4V5.70599H20V15.406Z" fill="currentColor"/>
</svg>
