<svg width="24" height="24" viewBox="0 0 24 24" fill="none" xmlns="http://www.w3.org/2000/svg">
<path fill-rule="evenodd" clip-rule="evenodd" d="M3.45456 4H20.5455C21.3491 4 22 4.62652 22 5.40001V15.8C22 16.5735 21.3491 17.2 20.5454 17.2H13.4545V18.2935L15.2577 18.5186C15.6298 18.5651 15.9091 18.8814 15.9091 19.2565C15.9091 19.6671 15.5762 20 15.1656 20H8.83442C8.42379 20 8.0909 19.6671 8.0909 19.2565C8.0909 18.8815 8.37017 18.5652 8.74229 18.5187L10.5455 18.2935V17.2H3.45456C2.6509 17.2 2 16.5735 2 15.8V5.40001C2 4.62652 2.6509 4 3.45456 4ZM13 15.406H20V11.5698H13V15.406ZM11 15.406V11.5698H4V15.406H11ZM4 9.56982H11V5.70599H4V9.56982ZM13 5.70599H20V9.56982H13V5.70599Z" fill="currentColor"/>
</svg>
