<svg width="24" height="24" viewBox="0 0 24 24" fill="none" xmlns="http://www.w3.org/2000/svg">
<path d="M15.6436 7.13581C15.8744 7.32398 16.0316 7.55798 16.0625 7.85938C16.09 8.21681 15.9752 8.47648 15.7508 8.74774C15.5714 8.94833 15.3821 9.13477 15.178 9.3101C15.0072 9.45936 14.8466 9.61717 14.6868 9.77809C14.6564 9.80856 14.626 9.83902 14.5947 9.8704C14.5292 9.93605 14.4638 10.0017 14.3984 10.0675C14.2946 10.1717 14.1908 10.2758 14.0869 10.3798C13.8664 10.6008 13.6461 10.8219 13.4258 11.043C13.1703 11.2993 12.9148 11.5556 12.6592 11.8118C12.5572 11.914 12.4554 12.0163 12.3536 12.1186C12.2906 12.1817 12.2277 12.2448 12.1647 12.3078C12.1367 12.336 12.1088 12.3642 12.08 12.3932C11.9281 12.5451 11.7719 12.6888 11.6093 12.8292C11.4706 12.9522 11.3409 13.0841 11.2103 13.2156C11.1799 13.2461 11.1495 13.2765 11.1181 13.3079C11.0527 13.3735 10.9872 13.4392 10.9218 13.505C10.8181 13.6092 10.7142 13.7133 10.6103 13.8173C10.3899 14.0383 10.1695 14.2594 9.94922 14.4805C9.69377 14.7368 9.43826 14.9931 9.18259 15.2493C9.08064 15.3515 8.97881 15.4538 8.87699 15.5561C8.81405 15.6192 8.75111 15.6823 8.68816 15.7453C8.66018 15.7735 8.63221 15.8017 8.60339 15.8307C8.44911 15.985 8.29115 16.1321 8.12495 16.2735C8.02869 16.359 7.94231 16.4525 7.85459 16.5466C7.62297 16.7926 7.42341 16.9806 7.07812 17.0391C7.03809 17.0459 7.03809 17.0459 6.99725 17.0528C6.74227 17.0724 6.46881 16.9869 6.26869 16.8302C6.08951 16.6718 5.92511 16.4987 5.75977 16.3262C5.70952 16.2749 5.65922 16.2237 5.60886 16.1725C5.39835 15.9578 5.19207 15.7411 4.99664 15.5125C4.84554 15.3433 4.68099 15.1865 4.51953 15.0273C4.30778 14.8186 4.10025 14.6101 3.90681 14.3843C3.76068 14.2202 3.60178 14.0682 3.44531 13.9141C3.23817 13.71 3.03622 13.5056 2.84705 13.2848C2.75603 13.1826 2.65773 13.0893 2.55871 12.995C2.21661 12.6672 1.99647 12.4286 1.97803 11.9365C1.99237 11.5798 2.07117 11.4067 2.32959 11.165C2.53873 10.9825 2.70664 10.9331 2.98389 10.9282C3.03197 10.9267 3.08006 10.9251 3.12961 10.9235C3.48898 10.9498 3.74457 11.1794 3.97021 11.4385C4.0237 11.4976 4.07732 11.5567 4.13104 11.6156C4.15898 11.6464 4.18691 11.6772 4.21569 11.7089C4.40107 11.9084 4.59655 12.0982 4.79067 12.2892C4.92519 12.4223 5.05662 12.5556 5.17978 12.6993C5.35241 12.9002 5.54198 13.0837 5.73047 13.2695C5.94458 13.4806 6.15491 13.6914 6.35053 13.9198C6.45652 14.0406 6.57063 14.1529 6.68506 14.2656C6.70805 14.2884 6.73103 14.3112 6.75471 14.3347C6.81034 14.3899 6.8661 14.445 6.92188 14.5C7.22535 14.2529 7.49374 13.9696 7.76846 13.6917C7.83485 13.6246 7.90135 13.5576 7.96786 13.4906C7.98761 13.4706 8.00735 13.4505 8.0277 13.4298C8.13338 13.3234 8.24168 13.2225 8.35557 13.1249C8.5219 12.9799 8.67825 12.8267 8.83365 12.6702C8.86291 12.6409 8.89217 12.6115 8.92232 12.5813C8.98532 12.5182 9.04828 12.455 9.1112 12.3917C9.21098 12.2915 9.31088 12.1913 9.41082 12.0912C9.62295 11.8786 9.83492 11.6659 10.0469 11.4531C10.2926 11.2064 10.5385 10.9598 10.7845 10.7134C10.8825 10.615 10.9804 10.5166 11.0784 10.4182C11.1389 10.3575 11.1995 10.2968 11.2601 10.2361C11.287 10.209 11.3139 10.1819 11.3415 10.154C11.4921 10.0035 11.6472 9.86116 11.8083 9.72203C11.9234 9.62037 12.031 9.51193 12.1386 9.4024C12.1621 9.37867 12.1856 9.35494 12.2098 9.3305C12.2602 9.27956 12.3105 9.22858 12.3609 9.17756C12.4408 9.09661 12.5208 9.01585 12.601 8.93514C12.8286 8.70586 13.0561 8.47647 13.283 8.24645C13.4223 8.10523 13.562 7.9644 13.702 7.8238C13.7549 7.77047 13.8077 7.71699 13.8604 7.66336C14.3515 7.16337 14.9299 6.67301 15.6436 7.13581Z" fill="currentColor"/>
<path d="M21.6094 7.19531C21.7852 7.34718 21.9259 7.52002 22 7.74219C22.0235 8.06763 22.0418 8.36626 21.8438 8.64063C21.8212 8.67366 21.7986 8.70669 21.7754 8.74072C21.7016 8.82064 21.6283 8.88842 21.5458 8.95879C21.3745 9.10776 21.2139 9.26549 21.054 9.42653C21.0236 9.45699 20.9932 9.48745 20.9619 9.51884C20.8964 9.58448 20.8309 9.65017 20.7655 9.7159C20.6618 9.82012 20.558 9.92422 20.4541 10.0283C20.2336 10.2492 20.0133 10.4703 19.793 10.6914C19.5375 10.9478 19.282 11.2041 19.0263 11.4602C18.9244 11.5624 18.8226 11.6647 18.7207 11.7671C18.6578 11.8301 18.5949 11.8932 18.5319 11.9563C18.5039 11.9845 18.476 12.0126 18.4471 12.0417C18.2952 12.1936 18.1391 12.3373 17.9765 12.4776C17.8378 12.6006 17.7081 12.7325 17.5775 12.864C17.5471 12.8945 17.5167 12.925 17.4853 12.9563C17.4198 13.022 17.3544 13.0877 17.289 13.1534C17.1853 13.2576 17.0814 13.3617 16.9775 13.4658C16.757 13.6867 16.5367 13.9078 16.3164 14.1289C16.061 14.3853 15.8055 14.6416 15.5498 14.8977C15.4478 14.9999 15.346 15.1022 15.2442 15.2046C15.1812 15.2676 15.1183 15.3307 15.0553 15.3938C15.0274 15.422 14.9994 15.4501 14.9706 15.4792C14.8154 15.6344 14.6564 15.7824 14.4896 15.9252C14.3927 16.0098 14.3036 16.101 14.2144 16.1936C14.1776 16.2312 14.1409 16.2687 14.1042 16.3063C14.048 16.3639 13.9919 16.4217 13.9361 16.4798C13.632 16.7958 13.3814 17.0064 12.9326 17.0513C12.4315 17.0109 12.1635 16.7314 11.834 16.3872C11.7894 16.3419 11.7447 16.2967 11.7 16.2515C10.9521 15.4901 10.9521 15.4901 10.9282 15.0127C10.9376 14.7231 11.0485 14.4301 11.2578 14.2266C11.5737 13.9975 11.8439 13.9535 12.2344 13.9922C12.5321 14.0813 12.7348 14.2718 12.9375 14.5C13.2325 14.2592 13.4945 13.9846 13.7617 13.7141C13.8254 13.6497 13.8892 13.5854 13.953 13.5212C13.9719 13.5019 13.9908 13.4827 14.0102 13.4629C14.1136 13.3588 14.2198 13.2603 14.3312 13.1649C14.5017 13.0162 14.6617 12.8589 14.821 12.6985C14.8514 12.668 14.8818 12.6375 14.9131 12.6062C14.9786 12.5405 15.0441 12.4748 15.1095 12.4091C15.2132 12.3049 15.317 12.2008 15.4209 12.0967C15.6414 11.8758 15.8617 11.6547 16.082 11.4336C16.3375 11.1772 16.593 10.9209 16.8487 10.6648C16.9506 10.5626 17.0524 10.4603 17.1543 10.3579C17.2172 10.2949 17.2801 10.2318 17.3431 10.1687C17.3711 10.1405 17.399 10.1124 17.4279 10.0833C17.5813 9.92993 17.7389 9.78458 17.9031 9.64287C18.0141 9.54504 18.1176 9.44071 18.221 9.33503C18.2433 9.31245 18.2655 9.28986 18.2885 9.26659C18.3363 9.21815 18.384 9.16966 18.4317 9.12113C18.5337 9.01753 18.636 8.9143 18.7383 8.81105C18.9281 8.6195 19.1177 8.4278 19.3067 8.23545C19.4388 8.10097 19.5714 7.96699 19.7044 7.83331C19.7546 7.78263 19.8046 7.73177 19.8545 7.68072C20.3402 7.18381 20.9254 6.73931 21.6094 7.19531Z" fill="currentColor"/>
</svg>
