<svg width="21" height="20" viewBox="0 0 21 20" fill="none" xmlns="http://www.w3.org/2000/svg">
<path d="M10.8409 16.5258L14.7965 12.5982C14.888 12.5073 14.9385 12.3861 14.9385 12.2568C14.9385 12.1275 14.888 12.0062 14.7965 11.9153L14.5052 11.6261C14.3155 11.4379 14.007 11.4379 13.8175 11.6261L10.4959 14.9243L7.17052 11.6224C7.07896 11.5316 6.9569 11.4814 6.82675 11.4814C6.69645 11.4814 6.57439 11.5316 6.48275 11.6224L6.19159 11.9117C6.10003 12.0026 6.04959 12.1238 6.04959 12.2531C6.04959 12.3824 6.10003 12.5037 6.19159 12.5945L10.1508 16.5258C10.2427 16.6169 10.3653 16.6669 10.4957 16.6666C10.6265 16.6669 10.7491 16.6169 10.8409 16.5258Z" fill="currentColor"/>
<path d="M10.8409 3.47415L14.7965 7.40183C14.888 7.49267 14.9385 7.61394 14.9385 7.74324C14.9385 7.87254 14.888 7.99381 14.7965 8.08465L14.5052 8.3739C14.3155 8.56211 14.007 8.56211 13.8175 8.3739L10.4959 5.07573L7.17052 8.37756C7.07896 8.4684 6.9569 8.51855 6.82675 8.51855C6.69645 8.51855 6.57439 8.4684 6.48275 8.37756L6.19159 8.08831C6.10003 7.9974 6.04959 7.8762 6.04959 7.7469C6.04959 7.61759 6.10003 7.49633 6.19159 7.40549L10.1508 3.47415C10.2427 3.3831 10.3653 3.33308 10.4957 3.33337C10.6265 3.33308 10.7491 3.3831 10.8409 3.47415Z" fill="currentColor"/>
</svg>
