<svg width="24" height="24" viewBox="0 0 24 24" fill="none" xmlns="http://www.w3.org/2000/svg">
<path d="M11.6876 4.76397C9.50098 4.82645 7.31824 5.59177 5.57673 6.89986C4.08513 8.02051 2.85904 9.57459 2.14448 11.2458L2.00781 11.5699L2.14448 11.8901C3.51113 15.092 6.43187 17.4621 9.88755 18.1728C11.1566 18.4344 12.8434 18.4305 14.132 18.1689C17.5681 17.466 20.4889 15.092 21.8555 11.8901L21.9922 11.5699L21.8555 11.2458C21.1449 9.5785 19.9617 8.07127 18.4779 6.9389C16.5451 5.47073 14.1281 4.69369 11.6876 4.76397ZM12.7849 7.1029C13.7454 7.28252 14.5342 7.69642 15.2019 8.36803C16.0687 9.23098 16.5295 10.3438 16.5295 11.5699C16.5295 12.796 16.0687 13.9088 15.2019 14.7718C14.3389 15.6386 13.2261 16.0994 12 16.0994C10.7739 16.0994 9.66107 15.6386 8.79813 14.7718C7.93128 13.9088 7.47052 12.796 7.47052 11.5699C7.47052 10.3438 7.93128 9.23098 8.79813 8.36803C9.65717 7.50509 10.7466 7.04824 11.9649 7.04433C12.2655 7.04043 12.5896 7.06385 12.7849 7.1029Z" fill="currentColor"/>
<path d="M11.5119 8.89126C10.9145 9.01231 10.5006 9.23488 10.0672 9.67221C9.53613 10.2072 9.29013 10.8085 9.29013 11.5699C9.29013 12.343 9.53613 12.9366 10.0867 13.4832C10.6334 14.0338 11.2269 14.2798 12 14.2798C12.7732 14.2798 13.3667 14.0338 13.9133 13.4832C14.4639 12.9366 14.7099 12.343 14.7099 11.5699C14.7099 10.7968 14.4639 10.2033 13.9133 9.65659C13.4018 9.14117 12.8473 8.89517 12.1172 8.85612C11.918 8.84441 11.6759 8.86003 11.5119 8.89126Z" fill="currentColor"/>
</svg>
