<svg width="24" height="24" viewBox="0 0 24 24" fill="none" xmlns="http://www.w3.org/2000/svg">
<path d="M3.49551 3.9284C3.19094 4.23297 2.94104 4.50239 2.94104 4.52192C2.94104 4.54535 3.4916 5.11153 4.16712 5.78705L5.39321 7.01313L5.03397 7.3138C3.86255 8.3056 2.84342 9.66444 2.21086 11.078L2 11.5426L2.164 11.9175C3.11675 14.0885 4.75674 15.8769 6.86529 17.0444C9.15736 18.3095 12.0078 18.6844 14.5576 18.0479C14.8973 17.962 15.811 17.673 15.9047 17.6184C15.9477 17.5949 16.3264 17.9503 17.4861 19.1061L19.009 20.6289L19.5869 20.051L20.1609 19.477L12.1054 11.4216L4.05389 3.37002L3.49551 3.9284ZM8.64975 10.2697L9.33698 10.9647L9.29793 11.2185C9.22374 11.7183 9.30965 12.1947 9.55955 12.7218C9.89926 13.4247 10.4537 13.9089 11.1995 14.151C11.4299 14.2252 11.5588 14.2408 12.0508 14.2447H12.6248L13.3081 14.928L13.9914 15.6074L13.6868 15.7324C12.613 16.1775 11.4143 16.1892 10.3327 15.7675C8.87232 15.1935 7.79461 13.8659 7.52519 12.3079C7.43147 11.7652 7.46661 10.9725 7.60328 10.461C7.7009 10.094 7.90004 9.57854 7.93909 9.57854C7.9508 9.57854 8.27099 9.89091 8.64975 10.2697Z" fill="currentColor"/>
<path d="M10.8481 4.7952C10.2234 4.86549 9.50489 5.01387 8.9348 5.18958C8.67708 5.26767 8.45452 5.34577 8.4389 5.35748C8.42328 5.3731 8.84499 5.81824 9.37993 6.35319L10.3483 7.32156L10.6763 7.21613C11.7774 6.86861 12.9176 6.95452 13.9758 7.46994C15.5377 8.22746 16.5295 9.80496 16.5295 11.5348C16.5295 12.0111 16.4514 12.5148 16.3147 12.9131L16.221 13.1904L17.5369 14.5063C18.2593 15.2325 18.8723 15.826 18.8996 15.826C18.9777 15.826 20.0398 14.7444 20.36 14.3423C20.9574 13.5925 21.465 12.753 21.8516 11.8823L22 11.5465L21.8243 11.1521C21.465 10.3438 20.9301 9.46135 20.3717 8.7585C20.0125 8.30555 19.091 7.39184 18.638 7.04432C17.0996 5.84948 15.444 5.13882 13.5541 4.84987C12.8708 4.74444 11.508 4.71711 10.8481 4.7952Z" fill="currentColor"/>
<path d="M13.269 10.2424C14.0422 11.0155 14.6904 11.6481 14.7099 11.6481C14.745 11.6481 14.7177 11.2849 14.6513 10.9452C14.5966 10.6602 14.3467 10.133 14.1476 9.87923C13.6634 9.25838 12.8395 8.83667 12.1211 8.83667H11.8633L13.269 10.2424Z" fill="currentColor"/>
</svg>
