<svg width="24" height="24" viewBox="0 0 24 24" fill="none" xmlns="http://www.w3.org/2000/svg">
<path d="M11.2193 2.02332C9.78438 2.20318 8.50976 2.75447 7.40718 3.66938C5.05734 5.63214 4.23627 8.91252 5.38186 11.7785C6.02308 13.3854 7.26642 14.7304 8.81864 15.5046C9.4364 15.8134 10.0112 16.005 10.7814 16.1614C10.8674 16.1771 10.8674 16.1849 10.8674 16.8574V17.5377L10.2927 17.5533C9.77656 17.569 9.69054 17.5807 9.49896 17.6667C9.22527 17.7918 9.0415 17.9756 8.9203 18.2454C8.83819 18.4252 8.82646 18.4956 8.8421 18.7576C8.86165 19.1095 8.97113 19.3323 9.22918 19.5552C9.47941 19.7702 9.66317 19.8132 10.3083 19.8132H10.8674V20.4115C10.8674 21.1934 10.9104 21.3498 11.2154 21.6548C11.5477 21.9871 11.9035 22.0731 12.3532 21.9402C12.5135 21.8933 12.6151 21.8268 12.7872 21.6548C13.0921 21.3498 13.1351 21.1934 13.1351 20.4115V19.8132H13.6943C14.3394 19.8132 14.5231 19.7702 14.7734 19.5552C15.0275 19.3362 15.137 19.1134 15.1605 18.7732C15.1839 18.4096 15.1057 18.1867 14.8672 17.9326C14.5935 17.6394 14.398 17.5729 13.7138 17.5533L13.1351 17.5377V16.8574C13.1351 16.1849 13.1351 16.1771 13.2251 16.1614C14.8477 15.833 16.0988 15.1566 17.1662 14.0345C18.996 12.1108 19.6021 9.37779 18.7614 6.85593C17.9286 4.3497 15.7821 2.5277 13.1351 2.07415C12.7246 2.00377 11.6142 1.97641 11.2193 2.02332ZM12.7754 4.3106C14.8242 4.64294 16.4468 6.25381 16.8143 8.31822C16.8964 8.77567 16.8769 9.62802 16.7752 10.1168C16.568 11.0981 16.1106 11.9153 15.3559 12.6425C14.4254 13.5379 13.3072 13.9875 12.0013 13.9875C10.7032 13.9875 9.56934 13.5301 8.63488 12.6308C7.90373 11.927 7.46973 11.1607 7.24296 10.1793C7.11394 9.62802 7.0983 8.76785 7.20386 8.22829C7.60658 6.20689 9.1979 4.65076 11.1958 4.31451C11.6259 4.24022 12.3375 4.24022 12.7754 4.3106Z" fill="currentColor"/>
</svg>
