<svg width="24" height="24" viewBox="0 0 24 24" fill="none" xmlns="http://www.w3.org/2000/svg">
<path d="M10.1275 10.75C10.3737 10.75 10.6175 10.7015 10.845 10.6073C11.0725 10.513 11.2792 10.3749 11.4533 10.2008C11.6274 10.0267 11.7655 9.82002 11.8598 9.59253C11.954 9.36505 12.0025 9.12123 12.0025 8.875C12.0025 8.62877 11.954 8.38495 11.8598 8.15747C11.7655 7.92998 11.6274 7.72328 11.4533 7.54917C11.2792 7.37506 11.0725 7.23695 10.845 7.14273C10.6175 7.0485 10.3737 7 10.1275 7C9.63021 7 9.1533 7.19754 8.80167 7.54917C8.45004 7.9008 8.25249 8.37772 8.25249 8.875C8.25249 9.37228 8.45004 9.8492 8.80167 10.2008C9.1533 10.5525 9.63021 10.75 10.1275 10.75Z" fill="currentColor"/>
<path d="M19.5 19.5C19.5 20.163 19.2366 20.7989 18.7678 21.2678C18.2989 21.7366 17.663 22 17 22H7C6.33696 22 5.70107 21.7366 5.23223 21.2678C4.76339 20.7989 4.5 20.163 4.5 19.5V4.5C4.5 3.83696 4.76339 3.20107 5.23223 2.73223C5.70107 2.26339 6.33696 2 7 2H13.875L19.5 7.625V19.5ZM7 3.25C6.66848 3.25 6.35054 3.3817 6.11612 3.61612C5.8817 3.85054 5.75 4.16848 5.75 4.5V17L8.53 14.22C8.62852 14.1217 8.75702 14.0591 8.89515 14.0421C9.03327 14.0252 9.17311 14.0548 9.2925 14.1263L12 15.75L14.6962 11.975C14.749 11.9012 14.8172 11.8398 14.8961 11.795C14.9749 11.7502 15.0626 11.7232 15.153 11.7157C15.2434 11.7082 15.3344 11.7204 15.4195 11.7516C15.5047 11.7828 15.5821 11.8322 15.6462 11.8962L18.25 14.5V7.625H15.75C15.2527 7.625 14.7758 7.42746 14.4242 7.07583C14.0725 6.7242 13.875 6.24728 13.875 5.75V3.25H7Z" fill="currentColor"/>
</svg>
