<svg width="20" height="20" viewBox="0 0 20 20" fill="none" xmlns="http://www.w3.org/2000/svg">
    <path d="M9.49122 0.571474C9.41734 0.623863 8.73225 1.87718 6.9557 5.19385C4.22539 10.3079 4.38324 9.96534 4.61832 10.2756L4.73586 10.4288L6.60644 10.4409C8.08745 10.4489 8.47366 10.461 8.46022 10.5013C8.45015 10.5295 7.71468 12.4276 6.82473 14.7207C5.61909 17.8157 5.20266 18.924 5.20266 19.0328C5.20266 19.327 5.42767 19.5446 5.67283 19.4922C5.78701 19.468 6.29411 18.8756 10.5289 13.7978C13.1316 10.6827 15.2809 8.08334 15.3078 8.02289C15.3716 7.87378 15.3683 7.71258 15.2877 7.55944C15.1701 7.32571 15.1869 7.32571 13.7025 7.30556L12.3357 7.28541L13.9208 4.22263C15.4186 1.32105 15.5026 1.14776 15.506 0.97044C15.506 0.805212 15.4892 0.760881 15.3951 0.648043L15.2877 0.515055L12.4398 0.502964C9.70616 0.494904 9.59197 0.498934 9.49122 0.571474Z" fill="currentColor"/>
</svg>
