<svg width="20" height="20" viewBox="0 0 20 20" fill="none" xmlns="http://www.w3.org/2000/svg">
<path fill-rule="evenodd" clip-rule="evenodd" d="M2.85096 10.4099C2.11818 9.65896 1.66666 8.63229 1.66666 7.50016C1.66666 5.19898 3.53214 3.3335 5.83332 3.3335C7.1965 3.3335 8.40679 3.98812 9.16696 5.00016H10.833C11.5932 3.98812 12.8035 3.3335 14.1667 3.3335C16.4678 3.3335 18.3333 5.19898 18.3333 7.50016C18.3333 8.54273 17.9504 9.49586 17.3176 10.2266L18.1061 13.1694C18.392 14.2363 17.7588 15.333 16.6919 15.6189L15.7259 15.8777C14.659 16.1636 13.5623 15.5304 13.2765 14.4635L12.4252 11.2866C11.7932 10.9954 11.2465 10.5507 10.833 10.0002H9.16696C8.80937 10.4762 8.35217 10.8732 7.82631 11.1602L7.01393 14.192C6.72804 15.259 5.63137 15.8921 4.56444 15.6063L3.59851 15.3474C2.53158 15.0615 1.89842 13.9649 2.1843 12.8979L2.85096 10.4099ZM12.5 8.3335C12.9602 8.3335 13.3333 7.9604 13.3333 7.50016C13.3333 7.03993 12.9602 6.66683 12.5 6.66683C12.0398 6.66683 11.6667 7.03993 11.6667 7.50016C11.6667 7.9604 12.0398 8.3335 12.5 8.3335ZM7.49999 7.50016C7.49999 8.42064 6.7538 9.16683 5.83332 9.16683C4.91285 9.16683 4.16666 8.42064 4.16666 7.50016C4.16666 6.57969 4.91285 5.8335 5.83332 5.8335C6.7538 5.8335 7.49999 6.57969 7.49999 7.50016ZM14.1667 6.66683C14.6269 6.66683 15 6.29373 15 5.8335C15 5.37326 14.6269 5.00016 14.1667 5.00016C13.7064 5.00016 13.3333 5.37326 13.3333 5.8335C13.3333 6.29373 13.7064 6.66683 14.1667 6.66683ZM15 9.16683C15 9.62707 14.6269 10.0002 14.1667 10.0002C13.7064 10.0002 13.3333 9.62707 13.3333 9.16683C13.3333 8.70659 13.7064 8.3335 14.1667 8.3335C14.6269 8.3335 15 8.70659 15 9.16683ZM15.8333 8.3335C16.2936 8.3335 16.6667 7.9604 16.6667 7.50016C16.6667 7.03993 16.2936 6.66683 15.8333 6.66683C15.3731 6.66683 15 7.03993 15 7.50016C15 7.9604 15.3731 8.3335 15.8333 8.3335Z" fill="currentColor"/>
</svg>
