<svg width="24" height="24" viewBox="0 0 24 24" fill="none" xmlns="http://www.w3.org/2000/svg">
<path fill-rule="evenodd" clip-rule="evenodd" d="M19.9822 8.62403L19.9757 8.55439C19.7655 6.31484 18.2182 5.00037 16.5543 5.00037C15.3582 5.00037 14.2629 5.62316 13.6468 6.62162L12.7864 8.01577C12.3935 8.65251 11.466 8.64799 11.0793 8.00744L10.2326 6.60496C9.61485 5.58173 8.5886 5 7.44563 5C5.78194 5 4.23453 6.31457 4.02464 8.55372L4.01783 8.62639L4.00766 8.68693C4.00268 8.73079 3.96001 9.16874 4.14638 9.93258C4.45756 11.209 5.18353 12.4043 6.29118 13.3758L11.9514 18.3478L17.7141 13.3716C18.8189 12.4003 19.5429 11.2075 19.8535 9.93302C20.0392 9.17219 19.9978 8.73302 19.9921 8.68403L19.9822 8.62403ZM19.9916 8.67943L19.9918 8.68164L19.9916 8.67943ZM19.0276 14.8798L12.5993 20.4308C12.2215 20.7571 11.6609 20.7547 11.2858 20.4252L4.9724 14.8794C3.57578 13.6545 2.61803 12.1075 2.20338 10.4067C1.91567 9.22751 2.01029 8.50445 2.03337 8.36706C2.32493 5.25667 4.59968 3 7.44563 3C8.60308 3 9.68326 3.37236 10.5678 4.03789C11.1091 4.44524 11.5772 4.96242 11.9448 5.57128C12.313 4.97464 12.789 4.46257 13.3408 4.05605C14.2532 3.38391 15.3727 3.00037 16.5543 3.00037C19.4006 3.00037 21.6749 5.25704 21.9669 8.36745C21.9896 8.50482 22.0843 9.22788 21.7966 10.4067C21.3819 12.1078 20.4241 13.6545 19.0276 14.8798Z" fill="currentColor"/>
</svg>
