<svg width="24" height="24" viewBox="0 0 24 24" fill="none" xmlns="http://www.w3.org/2000/svg">
<path d="M21.9669 8.36745C21.6749 5.25704 19.4006 3.00037 16.5543 3.00037C14.658 3.00037 12.9218 3.98815 11.9448 5.57128C10.9766 3.96768 9.31152 3 7.44563 3C4.59968 3 2.32493 5.25667 2.03337 8.36706C2.01029 8.50445 1.91567 9.22751 2.20338 10.4067C2.61803 12.1075 3.57578 13.6545 4.9724 14.8794L11.2858 20.4252C11.6609 20.7547 12.2215 20.7571 12.5993 20.4308L19.0276 14.8798C20.4241 13.6545 21.3819 12.1078 21.7966 10.4067C22.0843 9.22788 21.9896 8.50482 21.9669 8.36745Z" fill="currentColor"/>
</svg>
