<svg width="24" height="24" viewBox="0 0 24 24" fill="none" xmlns="http://www.w3.org/2000/svg">
<path fill-rule="evenodd" clip-rule="evenodd" d="M3.62145 5.4191C3.64853 5.2336 3.79166 4.98761 3.94824 4.8679C4.53537 4.41425 5.33667 4.79158 5.41581 5.56441C5.43122 5.69443 5.45559 5.79598 5.47057 5.78818C5.48554 5.78037 5.60632 5.66504 5.74372 5.52677C6.312 4.96393 7.01907 4.45728 7.82017 4.03968C8.47902 3.69623 8.97232 3.50097 9.62069 3.32008C11.2934 2.85755 13.016 2.89266 14.7017 3.42311C16.3874 3.95355 17.8197 4.91122 18.9261 6.24827C21.5706 9.43999 21.6985 13.9959 19.2382 17.3494C17.8445 19.2422 15.7213 20.53 13.3785 20.8943C11.998 21.1045 10.6595 21.0025 9.30408 20.576C7.6184 20.0456 6.18608 19.0879 5.07968 17.7509C4.65172 17.2313 4.35913 16.7887 4.01568 16.1299C3.54734 15.2314 3.28482 14.4447 3.12065 13.4449C3.09558 13.2943 3.07362 13.175 3.05555 13.0768C2.99791 12.7635 2.97987 12.6655 3.02665 12.4563C3.17252 11.8137 3.97991 11.5452 4.48943 11.9746C4.6553 12.1144 4.7461 12.4563 4.80345 13.0154C4.97207 13.8601 4.98718 13.8958 5.24153 14.4961C5.28366 14.5956 5.33236 14.7106 5.3894 14.8472C6.22967 16.861 8.16442 18.4994 10.2818 18.9904C13.4761 19.739 16.6908 18.3441 18.2766 15.5322C20.2252 12.0646 18.9917 7.67086 15.5222 5.71852C12.9506 4.27404 9.74539 4.55475 7.43756 6.42905C7.26063 6.57365 7.06155 6.74884 6.99285 6.81798L6.87418 6.94649L7.10396 6.9124C7.57492 6.8478 7.927 7.01179 8.12019 7.38239C8.35436 7.8316 8.18412 8.37262 7.73865 8.60483C7.63384 8.65947 5.16009 8.98259 4.80517 8.98669C4.43138 8.99112 4.04517 8.70686 3.95628 8.36282C3.88364 8.08648 3.59959 5.57808 3.62145 5.4191ZM10.6345 8.12463C10.7274 7.93466 10.892 7.77424 11.0947 7.68136C11.31 7.58005 11.597 7.58005 11.8165 7.68136C12.0192 7.77424 12.1458 7.90088 12.2598 8.11618C12.3358 8.26394 12.34 8.38214 12.34 10.0919V11.9071H13.7458C14.6408 11.9071 15.2064 11.924 15.3162 11.9536C15.5737 12.0253 15.8608 12.3377 15.9241 12.6121C16.0212 13.0089 15.8228 13.4227 15.4471 13.6295C15.3289 13.6928 15.0967 13.7013 13.3532 13.7139C11.2213 13.7266 11.1538 13.7224 10.8836 13.4986C10.8224 13.4486 10.7731 13.411 10.7332 13.365C10.5614 13.167 10.567 12.815 10.567 10.6491C10.567 8.55522 10.5754 8.25127 10.6345 8.12463Z" fill="currentColor"/>
</svg>
