<svg width="24" height="24" viewBox="0 0 24 24" fill="none" xmlns="http://www.w3.org/2000/svg">
<path fill-rule="evenodd" clip-rule="evenodd" d="M6.59813 2.00794C6.08911 2.02399 5.54912 2.06412 5.31524 2.10424C5.05385 2.1501 4.63998 2.27163 4.40037 2.37366C3.95325 2.56397 3.55199 2.83683 3.19659 3.19338C2.69214 3.69668 2.35852 4.28596 2.17853 4.99332C2.09025 5.33955 2.07305 5.47828 2.01917 6.28882C2.00083 6.56397 1.99166 16.8959 2.01 17.4038C2.04554 18.4379 2.09942 18.8254 2.28056 19.3539C2.66807 20.4809 3.5795 21.3785 4.70418 21.742C5.10888 21.8738 5.38174 21.9231 5.9137 21.9598C6.4961 22.0011 6.69214 22.0022 12.225 21.9988C17.2212 21.9942 17.6878 21.993 17.9401 21.9747C18.4823 21.9357 18.6623 21.9128 18.9375 21.8463C19.4419 21.7248 19.818 21.5631 20.2215 21.2948C21.1995 20.6459 21.8151 19.605 21.9343 18.3954C21.9618 18.1226 21.9779 17.8784 21.9928 17.4897C22.0089 17.0931 22.0077 6.82881 21.9928 6.46079C21.9515 5.50235 21.8999 5.15612 21.7154 4.62302C21.431 3.801 20.8429 3.07988 20.0725 2.61327C19.7916 2.44245 19.4821 2.31061 19.1209 2.20742C18.7323 2.09622 18.5305 2.06985 17.6649 2.01597C17.4093 2.00106 7.08079 1.99304 6.59813 2.00794ZM15.1714 5.5012C15.4809 5.54477 15.6861 5.59063 15.9292 5.67088C16.5162 5.86234 17.0389 6.19137 17.4723 6.64308C18.0582 7.25185 18.417 8.02571 18.5018 8.86492C18.5179 9.01969 18.519 9.39573 18.5167 12.0842L18.5121 15.128L18.4881 15.2851C18.4044 15.8113 18.245 16.2561 17.9894 16.6872C17.4356 17.6147 16.468 18.2819 15.4121 18.4642C15.3981 18.4667 15.385 18.469 15.3724 18.4713C15.3448 18.4762 15.32 18.4806 15.2951 18.4846C15.0758 18.5197 14.851 18.52 12.6442 18.5232C12.5015 18.5234 12.3504 18.5236 12.1906 18.5238C9.25219 18.5284 9.00226 18.5261 8.71106 18.4826C7.91198 18.3633 7.20003 18.0125 6.63138 17.4565C5.98363 16.8225 5.6202 16.0842 5.50441 15.1682C5.49295 15.0707 5.48951 14.4642 5.48951 12.0039C5.48951 11.8749 5.4895 11.7513 5.4895 11.6328C5.48942 9.13473 5.48942 8.90668 5.52534 8.68443C5.52895 8.66211 5.53292 8.63984 5.53729 8.61534C5.53889 8.60638 5.54054 8.59714 5.54224 8.58748C5.71994 7.57171 6.32184 6.66601 7.20002 6.09163C7.74459 5.73508 8.34649 5.53675 9.02634 5.48745C9.055 5.4863 10.4273 5.48515 12.0759 5.4863C14.3402 5.48745 15.098 5.49089 15.1714 5.5012ZM8.88301 6.74282C8.43474 6.799 7.95552 7.00192 7.61617 7.28051C7.11517 7.6898 6.78957 8.28367 6.71047 8.93142C6.70244 8.99562 6.699 10.0504 6.699 12.0337C6.699 12.2167 6.69899 12.389 6.69898 12.5513C6.69878 14.9583 6.69877 15.1692 6.7467 15.3685C6.7513 15.3876 6.75634 15.4066 6.76187 15.4275C6.76554 15.4413 6.76942 15.456 6.77352 15.472C7.00052 16.3605 7.69872 17.0506 8.59181 17.2708C8.61066 17.2754 8.62743 17.2797 8.6431 17.2837C8.66187 17.2885 8.67906 17.2929 8.69634 17.297C8.88452 17.3409 9.08298 17.3409 11.4438 17.3407C11.6143 17.3407 11.7961 17.3407 11.9899 17.3407L12.1858 17.3407C14.8751 17.3407 15.0763 17.3407 15.2701 17.3027C15.2858 17.2997 15.3014 17.2964 15.3183 17.2928C15.3256 17.2912 15.3331 17.2896 15.341 17.288C16.2616 17.0908 16.9977 16.388 17.2292 15.4834C17.2353 15.4598 17.241 15.4392 17.2462 15.4201C17.2521 15.3985 17.2574 15.3789 17.2623 15.3592C17.31 15.1655 17.3099 14.96 17.3096 12.7369C17.3095 12.5265 17.3095 12.298 17.3095 12.0498C17.3095 9.61815 17.3061 9.00708 17.2946 8.91422C17.1593 7.88584 16.4325 7.0581 15.4419 6.80473C15.4254 6.80054 15.4104 6.79658 15.3962 6.79284C15.3754 6.78735 15.3564 6.78233 15.3372 6.77776C15.1377 6.73004 14.9266 6.73013 12.5138 6.73115C12.3486 6.73122 12.173 6.73129 11.9865 6.73136C10.323 6.7325 8.92772 6.73709 8.88301 6.74282ZM15.6907 7.75744C15.8948 7.80903 16.0702 7.94202 16.1802 8.12775C16.3235 8.37194 16.3224 8.68378 16.1779 8.92912C16.1229 9.02313 15.9819 9.16071 15.8902 9.2123C15.756 9.28682 15.6563 9.31319 15.5038 9.31319C15.3468 9.31433 15.2642 9.29484 15.1312 9.22606C15.0338 9.17561 14.9065 9.0644 14.848 8.98071C14.7517 8.83855 14.7093 8.70442 14.7082 8.53015C14.707 8.38341 14.7231 8.31577 14.7896 8.17475C14.8331 8.08303 14.8572 8.05208 14.9409 7.96839C15.1484 7.76317 15.4132 7.68751 15.6907 7.75744ZM12.2284 8.65626C12.9724 8.71015 13.6488 8.98759 14.2083 9.46796C14.9868 10.1375 15.419 11.1189 15.3857 12.1415C15.3605 12.8764 15.1094 13.562 14.6531 14.1386C14.5339 14.29 14.2588 14.5651 14.1074 14.6855C13.3519 15.2828 12.3946 15.5304 11.4453 15.3734C10.8847 15.2805 10.3413 15.0375 9.88616 14.6752C9.73942 14.5582 9.4872 14.3072 9.36796 14.1593C8.7099 13.3407 8.46799 12.2699 8.7099 11.2438C8.93804 10.2819 9.59726 9.4542 10.4949 9.00479C11.0361 8.73422 11.6345 8.61385 12.2284 8.65626ZM10.7725 10.2292C11.0843 10.0183 11.4271 9.89563 11.8123 9.85665C11.9969 9.83716 12.2721 9.85665 12.4761 9.90136C13.3257 10.0905 13.9642 10.7429 14.1477 11.6084C14.1763 11.746 14.1786 11.7781 14.1798 12.0212C14.1798 12.2906 14.1729 12.3594 14.127 12.5485C14.0858 12.7171 14.0342 12.8535 13.9493 13.0232C13.7361 13.4462 13.4185 13.7638 12.9932 13.9805C12.6447 14.157 12.3271 14.2258 11.9212 14.2132C11.7619 14.2086 11.6816 14.1994 11.5716 14.1765C11.1187 14.0825 10.7347 13.8693 10.4182 13.5368C10.0491 13.1493 9.84385 12.6586 9.82092 12.1129C9.78997 11.37 10.158 10.642 10.7725 10.2292Z" fill="currentColor"/>
</svg>
