<svg width="24" height="24" viewBox="0 0 24 24" fill="none" xmlns="http://www.w3.org/2000/svg">
    <path d="M12 0C5.36949 0 0 5.36949 0 12C0 18.6305 5.36949 24 12 24C18.6305 24 24 18.6305 24 12C24 5.36949 18.6305 0 12 0ZM14.9492 3.91525C15.1424 5.68475 13.5661 7.52542 11.9186 7.40339C11.7153 5.85763 13.1695 3.98644 14.9492 3.91525ZM14.7356 19.0169C13.7186 19.0373 13.4034 18.4169 12.2441 18.4169C11.0847 18.4169 10.7288 18.9966 9.76271 19.0373C8.14576 19.0983 5.78644 15.3661 5.78644 12.1119C5.78644 9.12203 7.72881 7.63729 9.54915 7.60678C10.5254 7.58644 11.4508 8.2678 12.0407 8.2678C12.6407 8.2678 13.7593 7.45424 14.939 7.57627C15.4271 7.59661 16.8102 7.77966 17.7051 9.07119C15.3458 10.6068 15.5695 13.8305 18.1017 15.0102C17.6034 16.4441 16.261 18.9864 14.7356 19.0169Z" fill="currentColor"/>
</svg>
