<svg width="24" height="24" viewBox="0 0 24 24" fill="none" xmlns="http://www.w3.org/2000/svg">
    <path fill-rule="evenodd" clip-rule="evenodd" d="M12 0C5.36949 0 0 5.36949 0 12C0 18.6305 5.36949 24 12 24C18.6305 24 24 18.6305 24 12C24 5.36949 18.6305 0 12 0ZM8.04881 19.3213C7.59957 19.1572 7.14321 18.9905 6.71384 18.9392C5.86661 18.8392 4.99885 18.6659 5.17221 18.0954C5.20424 17.99 5.23548 17.8955 5.26419 17.8087C5.39089 17.4257 5.46815 17.1921 5.34562 16.8279C5.19613 16.3803 5.19613 15.9806 5.81622 15.8534C6.44058 15.7329 6.78734 15.5561 6.96075 15.1863C7.13757 14.8121 7.36131 14.7353 7.36131 14.7353C7.36131 14.7353 7.13751 14.2152 7.45782 13.6446C7.60052 13.3942 7.74258 12.9883 7.89448 12.5542C8.09079 11.9933 8.30355 11.3853 8.55537 11.0054C8.77138 10.6818 9.04012 10.328 9.27121 10.0237C9.51891 9.6975 9.72337 9.42829 9.7733 9.3143C9.86981 9.09731 9.89713 8.49347 9.84674 7.64964C9.84027 7.54067 9.82934 7.4162 9.81743 7.28047C9.7366 6.35976 9.6103 4.92124 10.5207 4.29299C11.5652 3.57218 13.5032 3.47222 14.2506 5.16334C14.6127 5.98177 14.6357 6.71392 14.6566 7.38147C14.6788 8.09121 14.6988 8.72793 15.1217 9.3177C15.9425 10.4588 17.0101 11.9765 17.3338 12.9203C17.6575 13.8684 17.3099 15.0128 17.3099 15.0128C17.3099 15.0128 17.7071 15.3596 17.684 15.8797C17.6575 16.4042 18.0043 16.6775 18.4279 16.8508C18.8515 17.0243 18.9754 17.5948 18.3006 17.9689C18.1835 18.0341 18.0503 18.1062 17.9079 18.1832C17.2356 18.547 16.3579 19.022 15.9886 19.4132C15.5419 19.8838 14.8449 19.8599 14.5212 19.6831C14.1975 19.5097 14.0241 19.1125 14.0241 19.1125C14.0241 19.1125 13.1299 18.8896 12.1852 18.9161C11.2415 18.9392 10.3438 19.1399 10.3438 19.1399C10.3438 19.1399 10.097 19.7838 9.29924 19.6831C8.90952 19.6357 8.48248 19.4797 8.04881 19.3213ZM16.7598 16.0667C16.5659 16.2606 15.9288 16.5305 15.4855 16.3367C15.0413 16.1437 15.1183 15.4099 15.1183 15.4099C15.1183 15.4099 14.9645 15.3732 14.868 15.4492C14.7953 15.5071 14.8205 15.8171 14.8461 16.1319C14.8545 16.235 14.863 16.3386 14.868 16.434C14.8877 16.8209 14.7715 17.4982 14.634 18.1157C14.5007 18.7358 14.7715 19.1594 15.0815 19.2559C15.3881 19.3533 15.8921 19.0227 16.2755 18.6188C16.5071 18.3754 17.0639 18.0911 17.5239 17.8562C17.8324 17.6987 18.0973 17.5634 18.1913 17.4777C18.409 17.2753 18.0221 17.0729 17.7339 16.9222C17.7181 16.9139 17.7025 16.9058 17.6874 16.8978C17.397 16.744 17.2432 16.3008 17.2637 15.9898C17.2834 15.6833 17.0895 15.5868 17.0895 15.5868C17.0895 15.5868 16.9529 15.8737 16.7598 16.0667ZM13.3802 6.82881C13.3802 6.30782 13.0359 5.8842 12.6089 5.8842C12.1818 5.8842 11.8385 6.30787 11.8384 6.82886C11.8384 6.9817 11.8683 7.12519 11.9187 7.25248C12.0152 7.28921 12.1357 7.33527 12.2689 7.38912C12.2254 7.30541 12.1988 7.19869 12.1988 7.09187C12.1988 6.79889 12.3825 6.55808 12.6029 6.55808C12.8292 6.55808 13.0094 6.79895 13.0094 7.09187C13.0094 7.31567 12.9027 7.50955 12.7489 7.58554C12.7835 7.60004 12.8166 7.61435 12.8487 7.6282C12.8846 7.64374 12.9192 7.6587 12.9531 7.6727C13.2067 7.51894 13.3802 7.19864 13.3802 6.82881ZM12.2855 7.77191C12.0287 7.66944 11.6993 7.53797 11.5515 7.51214C11.3379 7.47282 10.9844 7.77261 10.8477 7.8999C10.711 8.02287 10.3976 8.26287 10.3976 8.26287C10.2968 8.43623 10.6973 8.76334 10.9109 8.90343C10.9492 8.9281 10.9843 8.95198 11.0173 8.9744C11.168 9.07691 11.2739 9.14894 11.4379 9.12722C11.6249 9.10257 12.1819 8.76504 12.4892 8.5788C12.5117 8.56514 12.5329 8.5523 12.5525 8.54046C12.6427 8.48553 12.7155 8.44767 12.7739 8.41735C12.9033 8.35005 12.9613 8.31987 12.9795 8.22274C13.0026 8.08606 12.7661 7.94942 12.5525 7.87597C12.4892 7.85318 12.3938 7.81512 12.2855 7.77191ZM11.2414 6.92877C11.2414 6.43511 10.9673 6.03455 10.6307 6.03455C10.2934 6.03455 10.0235 6.43171 10.0235 6.92877C10.0235 7.32933 10.2037 7.66924 10.4471 7.78287C10.5308 7.72308 10.6111 7.64964 10.6973 7.56593C10.6927 7.5675 10.6882 7.56906 10.6837 7.57061C10.6784 7.57247 10.673 7.57433 10.6674 7.57619C10.4872 7.60606 10.3104 7.40882 10.2635 7.1355C10.2207 6.86559 10.3266 6.62132 10.5043 6.5914C10.6811 6.56494 10.8613 6.76222 10.9075 7.02869C10.9314 7.17903 10.9109 7.32253 10.8579 7.42244C10.8854 7.39494 10.9152 7.3698 10.9469 7.34313C10.9536 7.33748 10.9604 7.33176 10.9673 7.32593C11.0476 7.25589 11.1313 7.2123 11.215 7.18584C11.2312 7.10213 11.2414 7.01848 11.2414 6.92877ZM9.18513 11.4577C9.0522 11.8473 8.91743 12.2422 8.756 12.4967C8.40497 13.0441 8.18203 14.1382 8.45525 14.7856C8.58988 15.1045 9.02663 15.4412 9.44399 15.763C9.87397 16.0945 10.2834 16.4102 10.3206 16.6741C10.3941 17.1977 9.87311 17.2745 9.87311 17.2745L10.5436 18.0424C10.5436 18.0424 11.1415 18.1688 12.3355 17.9954C13.5296 17.8186 14.3008 16.751 14.3008 16.751C14.3008 16.751 14.3008 15.4826 14.3743 15.1325C14.4478 14.7857 15.0183 14.936 15.0183 14.936C15.0183 14.936 15.2686 14.1383 15.1182 13.0946C14.9679 12.05 13.4767 8.77025 13.3033 8.61995C13.2057 8.53581 12.7921 8.77473 12.3562 9.0265C12.0176 9.22206 11.6657 9.42538 11.4379 9.49111C10.9177 9.638 10.1704 8.74378 10.1704 8.74378C10.2934 9.11701 10.0235 9.96171 9.67328 10.358C9.48795 10.5703 9.33775 11.0104 9.18513 11.4577ZM6.41289 16.1375C6.12416 16.2001 5.83875 16.262 5.80337 16.4136C5.7744 16.5365 5.79968 16.6547 5.8278 16.7862C5.8585 16.9298 5.89261 17.0893 5.8632 17.2881C5.84187 17.4153 5.80067 17.5449 5.76163 17.6676C5.68506 17.9083 5.61682 18.1228 5.72317 18.2422C5.80531 18.3351 6.17978 18.3957 6.58591 18.4614C6.95253 18.5208 7.34495 18.5843 7.57144 18.6795C7.59219 18.6882 7.61401 18.6973 7.63682 18.7069C8.13887 18.9177 9.11578 19.3278 9.47605 19.2167C9.47605 19.2167 9.89713 18.9562 9.97312 18.5992C10.0534 18.2422 9.79631 17.845 9.51618 17.5452C9.31406 17.3282 8.89823 16.6322 8.61981 16.1662C8.51703 15.9942 8.43298 15.8535 8.38531 15.7798C8.20509 15.4997 7.76776 15.0026 7.53122 15.1427C7.41684 15.2078 7.34341 15.3594 7.26571 15.5197C7.18033 15.696 7.08981 15.8828 6.93419 15.9771C6.81284 16.0507 6.61208 16.0943 6.41289 16.1375Z" fill="currentColor"/>
</svg>
