<svg width="24" height="24" viewBox="0 0 24 24" fill="none" xmlns="http://www.w3.org/2000/svg">
<path fill-rule="evenodd" clip-rule="evenodd" d="M5.10254 7.57974C6.23536 5.19692 8.53614 3.54458 11.1533 3.23989C11.8643 3.15786 12.8135 3.20474 13.5596 3.35708C15.794 3.81411 17.8213 5.40005 18.8135 7.46255L19.0127 7.88052L19.7041 7.88442C20.083 7.88442 20.4893 7.90396 20.6026 7.92739C21.2588 8.06802 21.8174 8.62661 21.958 9.28286C22.0166 9.56021 22.0166 12.0641 21.958 12.3454C21.8213 12.9977 21.2783 13.5524 20.6299 13.7008C20.5362 13.7243 20.1338 13.7438 19.7354 13.7438H19.0127L18.8096 14.1657C18.7002 14.4 18.4697 14.7985 18.2979 15.0563C17.2393 16.6305 15.7276 17.7008 13.8096 18.2204C13.7705 18.2282 13.7588 18.361 13.7588 18.7008C13.7588 19.4821 13.6338 19.8493 13.2354 20.2516C12.5322 20.9508 11.4697 20.9508 10.7666 20.2516C10.4893 19.9743 10.3408 19.6852 10.2744 19.2946C10.165 18.6461 10.4658 17.9352 11.0088 17.5758C11.3447 17.3532 11.5752 17.2946 12.2197 17.2555C12.5401 17.2399 12.9815 17.1891 13.1963 17.1461C15.958 16.6071 18.0205 14.4079 18.3877 11.6071C18.7432 8.89614 17.3174 6.25942 14.833 5.03286C14.0127 4.62661 13.2197 4.42349 12.2901 4.38052C10.5088 4.29849 8.75098 4.97427 7.49317 6.22427C5.90333 7.79849 5.25489 9.94692 5.69629 12.1618C5.73145 12.3336 5.84473 12.7477 5.9502 13.0836C6.05567 13.4196 6.14161 13.7047 6.14161 13.7204C6.14161 13.7321 5.55567 13.7438 4.84473 13.7438C3.46192 13.7438 3.33301 13.7282 2.9502 13.5446C2.84473 13.4938 2.65723 13.3493 2.52441 13.2204C2.27051 12.9625 2.11426 12.6852 2.04395 12.3454C1.98535 12.068 1.98535 9.56411 2.04395 9.28286C2.18066 8.62661 2.73926 8.06802 3.39942 7.92739C3.5127 7.90396 3.91114 7.88442 4.28223 7.88442H4.96192L5.10254 7.57974ZM8.18066 7.19693C9.03613 6.3024 10.1572 5.73209 11.3486 5.57974C11.7744 5.52506 12.665 5.56802 13.0752 5.65787C14.1533 5.90006 14.9307 6.32193 15.6963 7.08365C16.4971 7.88052 16.9424 8.70865 17.1846 9.84146C17.2783 10.2946 17.2822 11.3297 17.1846 11.7907C16.9072 13.1227 16.1963 14.2516 15.1299 15.0563C14.5713 15.4743 13.8408 15.8063 13.0752 15.9821C12.7393 16.0602 12.5947 16.0641 9.72754 16.0758L6.72754 16.0915V15.5094V14.9274L6.90332 14.904C7.25488 14.8532 7.59863 14.6071 7.75879 14.2868L7.85645 14.0915L7.6416 13.779C6.25488 11.736 6.48145 8.97037 8.18066 7.19693ZM10.2432 11.4001V10.8141V10.2282H9.65723H9.07129V10.8141V11.4001H9.65723H10.2432ZM12.5869 11.4001V10.8141V10.2282H12.001H11.415V10.8141V11.4001H12.001H12.5869ZM14.9307 11.4001V10.8141V10.2282H14.3447H13.7588V10.8141V11.4001H14.3447H14.9307Z" fill="currentColor"/>
</svg>
