<svg width="24" height="24" viewBox="0 0 24 24" fill="none" xmlns="http://www.w3.org/2000/svg">
<path fill-rule="evenodd" clip-rule="evenodd" d="M12 4.20159C12.6676 3.5566 14.6631 2.67055 15.5683 2.51081C17.0661 2.24649 17.2423 6.9161 15.5683 6.828C14.4324 6.76822 12.6266 5.65017 12 4.92062C11.3734 5.65017 9.56759 6.76822 8.43172 6.828C6.75771 6.9161 6.93392 2.24649 8.43172 2.51081C9.33687 2.67055 11.3324 3.5566 12 4.20159ZM20.9975 6.12314L22 20.4844C22 20.8074 21.9295 21.4535 21.6476 21.4535H14.4229C14.0705 21.3067 13.4538 20.8192 13.8062 20.0438C14.1586 19.2685 16.8899 10.4403 18.2115 6.12314C18.9163 4.88966 20.9975 4.97777 20.9975 6.12314ZM3.00247 6.12314L2 20.4844C2 20.8074 2.07048 21.4535 2.35242 21.4535H9.57709C9.92951 21.3067 10.5463 20.8192 10.1938 20.0438C9.84141 19.2685 7.11013 10.4403 5.78855 6.12314C5.0837 4.88966 3.00247 4.97777 3.00247 6.12314Z" fill="currentColor"/>
</svg>
