<svg width="24" height="24" viewBox="0 0 24 24" fill="none" xmlns="http://www.w3.org/2000/svg">
<path fill-rule="evenodd" clip-rule="evenodd" d="M5.2254 3.30686C5.38626 3.16459 5.56988 3.0849 5.75197 3.08953C5.86318 3.09418 6.27212 3.27078 7.66291 3.91489L9.43599 4.74207L9.41583 4.84604C9.3569 5.14452 9.60834 5.51694 9.92881 5.60975C10.1355 5.67309 10.4438 5.5996 10.6139 5.4475L10.7241 5.343L15.7252 7.67612C19.1744 9.28523 22.7423 10.9639 22.8054 11.0311C22.9334 11.1617 23.0018 11.3495 23 11.566C23.0008 11.7364 22.947 11.872 22.4528 12.9312C21.9985 13.905 21.8819 14.1246 21.7792 14.2232C21.5959 14.3833 21.4384 14.4373 21.1071 14.4387C20.3335 14.4463 19.6148 14.9944 19.403 15.7318C19.2474 16.2781 19.3654 16.8859 19.717 17.3475C19.9433 17.6421 20.0238 17.8544 20.001 18.0753C19.9884 18.1733 19.7975 18.6229 19.4373 19.395C18.9468 20.4464 18.8775 20.5747 18.7464 20.6836C18.5817 20.8241 18.3939 20.8924 18.2116 20.8782C18.1195 20.873 14.5407 19.2176 11.0916 17.6085L6.09044 15.2754L6.09973 15.1238C6.10695 14.8957 5.96518 14.6122 5.78386 14.4946C5.50683 14.3087 5.0599 14.3553 4.86905 14.5922L4.80234 14.6745L3.04477 13.8545C1.89246 13.3169 1.25564 13.001 1.1946 12.9394C1.06655 12.8088 0.99825 12.621 1.00003 12.4046C0.999238 12.2341 1.05302 12.0986 1.54353 11.0471C1.90373 10.2751 2.12559 9.83999 2.19257 9.76731C2.34541 9.61185 2.56162 9.53319 2.8888 9.52048C3.70404 9.49452 4.40981 8.96396 4.61198 8.22681C4.76476 7.64614 4.64572 7.07094 4.2683 6.57361C4.13841 6.40279 4.05101 6.28853 4.01648 6.16005C3.94592 5.89756 4.09605 5.57574 4.55541 4.59109C5.00611 3.62501 5.12273 3.40541 5.2254 3.30686ZM9.59825 7.61452C9.58943 7.43089 9.48543 7.19812 9.35558 7.0714C9.21408 6.93925 9.15796 6.91779 8.94664 6.8948C8.72007 6.87414 8.57576 6.92019 8.40171 7.07048C8.27628 7.17732 8.20672 7.29604 7.88454 7.98665C7.56235 8.67726 7.51607 8.80685 7.5148 8.9716C7.51327 9.19766 7.56062 9.31895 7.72436 9.49455C7.95743 9.75446 8.39272 9.77329 8.69867 9.5428C8.84866 9.42381 9.60732 7.80772 9.59825 7.61452ZM7.62682 11.4049C7.59578 11.3195 7.5161 11.2068 7.45505 11.1452C7.31356 11.0131 7.25743 10.9916 7.04612 10.9686C6.81955 10.948 6.67523 10.994 6.50118 11.1443C6.37576 11.2511 6.3062 11.3699 5.98401 12.0605C5.66183 12.7511 5.61555 12.8807 5.61427 13.0454C5.61275 13.2715 5.66009 13.3928 5.82203 13.5723C6.05095 13.8208 6.45987 13.8557 6.75288 13.6428C6.88814 13.5452 6.93029 13.4751 7.30135 12.6798C7.73575 11.7486 7.74971 11.6984 7.62682 11.4049Z" fill="currentColor"/>
</svg>
