<svg width="24" height="24" viewBox="0 0 24 24" fill="none" xmlns="http://www.w3.org/2000/svg">
<path fill-rule="evenodd" clip-rule="evenodd" d="M3.75782 4.93958H20.2422C20.5047 4.93958 20.7515 5.00129 20.9754 5.10489L14.5468 11.555L14.5461 11.5556L14.5454 11.556L14.5448 11.5567L14.5445 11.5573L12.4545 13.6543C12.2325 13.8763 11.7676 13.8763 11.5456 13.6543L9.4552 11.557L9.4551 11.5566L9.45469 11.556C9.45426 11.5556 9.45375 11.5555 9.45333 11.555L3.02454 5.10493C3.2484 5.00137 3.49532 4.93958 3.75782 4.93958ZM13.2842 14.4818L14.9592 12.8011L20.9754 18.837C20.7515 18.9406 20.5047 19.0023 20.2422 19.0023H3.7578C3.4953 19.0023 3.24839 18.9405 3.02444 18.8369L9.04069 12.8011L10.7158 14.4818C11.4098 15.1782 12.6049 15.1635 13.2842 14.4818ZM2.18695 5.92418C2.07109 6.15848 2 6.41856 2 6.69715V17.244C2 17.5226 2.07102 17.7827 2.18691 18.017L8.21359 11.9708L2.18695 5.92418ZM15.7864 11.9709L21.813 5.92418C21.9289 6.15848 22 6.41856 22 6.69723V17.2441C22 17.5228 21.9289 17.7829 21.813 18.0172L15.7864 11.9709Z" fill="currentColor"/>
</svg>
