<svg width="24" height="24" viewBox="0 0 24 24" fill="none" xmlns="http://www.w3.org/2000/svg">
<path d="M14.7931 2.0336C14.4952 2.0924 14.2183 2.30659 14.063 2.59637C13.9917 2.72656 13.9707 2.83996 13.9707 3.07935C13.9707 3.44893 14.063 3.65472 14.3106 3.87731C14.6295 4.1545 14.5875 4.1503 16.547 4.1629L18.3302 4.17549L16.3666 6.141L14.3987 8.1107L14.0169 7.85872C12.0112 6.53578 9.48112 6.204 7.21954 6.95996C4.36633 7.91751 2.36489 10.4374 2.02922 13.499C1.97048 14.0324 2.00405 15.053 2.09636 15.5737C2.38587 17.2243 3.09078 18.585 4.25724 19.7525C5.42789 20.9243 6.77897 21.6214 8.45313 21.9196C8.9902 22.0162 10.3413 22.0288 10.8658 21.9406C12.6658 21.6508 14.2435 20.8109 15.4477 19.5006C17.1008 17.6988 17.8016 15.1034 17.2897 12.6759C17.0925 11.7477 16.6813 10.7734 16.161 10.0048L15.8882 9.60163L17.8561 7.63193L19.8198 5.66642L19.8324 7.47233C19.845 9.45884 19.8408 9.41264 20.1177 9.73182C20.6128 10.2946 21.5485 10.1602 21.8884 9.47144L21.9849 9.27405L21.9974 6.1494C22.0058 4.0327 21.9933 2.95335 21.9639 2.80636C21.9009 2.49977 21.7163 2.26879 21.4268 2.12599L21.1876 2.0084L18.0827 2C16.375 2 14.8938 2.0126 14.7931 2.0336ZM10.593 8.72807C11.4574 8.85827 12.3385 9.21525 13.035 9.71503C13.4756 10.03 14.1008 10.6684 14.4029 11.1136C15.9008 13.2975 15.6365 16.3171 13.7861 18.1986C12.6952 19.3074 11.3063 19.8911 9.75385 19.8911C8.60837 19.8911 7.59717 19.5845 6.62792 18.9504C6.18735 18.6606 5.38174 17.8542 5.10061 17.4217C4.45445 16.4305 4.15654 15.4309 4.16073 14.2508C4.16493 13.3143 4.34955 12.5415 4.77333 11.7141C5.56216 10.1686 7.12303 9.01786 8.7888 8.74907C8.96083 8.72387 9.13286 8.69448 9.16643 8.68608C9.35944 8.64828 10.249 8.67348 10.593 8.72807Z" fill="currentColor"/>
</svg>
