<svg width="24" height="24" viewBox="0 0 24 24" fill="none" xmlns="http://www.w3.org/2000/svg">
  <path d="M14.2501 6.10527C14.2501 5.49484 13.7553 5 13.1449 5H3.10524C2.49482 5 1.99998 5.49484 1.99998 6.10527C1.99998 6.71569 2.49482 7.21053 3.10525 7.21053H13.1449C13.7553 7.21053 14.2501 6.71569 14.2501 6.10527ZM19.0445 11.0714C18.8718 10.9597 18.6659 10.8948 18.4449 10.8948H5.10525C4.49482 10.8948 3.99998 11.3896 3.99998 12.0001C3.99998 12.6105 4.49482 13.1053 5.10525 13.1053H18.4449C18.654 13.1053 18.8496 13.0472 19.0163 12.9463L17.4667 15.2616C17.4282 15.3191 17.3883 15.3778 17.3475 15.4377C16.8833 16.1201 16.3234 16.9431 16.8803 17.5L16.9502 17.5726C16.9656 17.588 16.9864 17.6047 17.011 17.6221C17.3257 17.8439 17.7686 17.8292 18.0869 17.6127C18.1468 17.5719 18.1874 17.5204 18.2296 17.4615L21.5092 12.888C21.5545 12.8248 21.6046 12.7624 21.6548 12.6997C21.8265 12.4856 22.0008 12.2682 22.0002 12.0022C22.0008 11.7377 21.8287 11.5209 21.659 11.3071C21.6083 11.2433 21.5579 11.1797 21.5123 11.1153L18.1609 6.37481C18.1205 6.31776 18.0754 6.26258 18.0166 6.22492C17.7327 6.04333 17.3628 6.06743 17.0742 6.24141C17.0091 6.28064 16.9539 6.31863 16.9228 6.35L16.8254 6.45C16.8012 6.47431 16.7741 6.51221 16.7459 6.55742C16.5603 6.85579 16.5605 7.24317 16.7464 7.54139C16.7716 7.58189 16.7995 7.62048 16.8275 7.65908C16.8516 7.69238 16.8757 7.72568 16.8981 7.76022L19.0445 11.0714ZM19.5374 11.8319L19.648 12.0025L19.5375 12.1676C19.5458 12.113 19.5501 12.057 19.5501 12.0001C19.5501 11.9429 19.5458 11.8867 19.5374 11.8319ZM13.1449 16.7895C13.7553 16.7895 14.2501 17.2843 14.2501 17.8947C14.2501 18.5052 13.7553 19 13.1449 19H3.10525C2.49482 19 1.99998 18.5052 1.99998 17.8947C1.99998 17.2843 2.49482 16.7895 3.10524 16.7895H13.1449Z" fill="currentColor"/>
</svg>
