<svg width="24" height="24" viewBox="0 0 24 24" fill="none" xmlns="http://www.w3.org/2000/svg">
<path d="M8.16281 2.0625C7.41672 2.24219 6.77609 2.85547 6.58469 3.58203C6.54172 3.74219 6.53 5.2539 6.53 12C6.53 17.5039 6.54562 20.2812 6.57297 20.3984C6.74094 21.1367 7.4675 21.8203 8.22531 21.957C8.38156 21.9844 9.63937 22 11.9948 22C15.8816 22 15.8425 22 16.3269 21.7617C16.6394 21.6094 17.0534 21.1992 17.2214 20.8828C17.4831 20.3906 17.4675 20.9844 17.4675 11.9609C17.4675 3.11328 17.4792 3.57812 17.2683 3.16015C17.0808 2.78906 16.7097 2.42187 16.3269 2.22656C15.8737 1.99609 15.9323 2 11.9909 2.0039C9.06125 2.00781 8.3425 2.01562 8.16281 2.0625ZM10.1902 3.28906C10.3112 3.33203 10.3972 3.46484 10.3972 3.60547C10.3972 3.72656 10.2253 3.875 10.0847 3.875C9.94406 3.875 9.77219 3.72656 9.77219 3.60547C9.77219 3.47265 9.85812 3.33203 9.96359 3.29297C10.0183 3.27344 10.0652 3.2539 10.0691 3.2539C10.073 3.25 10.1277 3.26953 10.1902 3.28906ZM13.1941 3.33984C13.2722 3.40625 13.2995 3.46875 13.2995 3.5625C13.2995 3.65625 13.2722 3.71875 13.1941 3.78515C13.0886 3.875 13.0847 3.875 12.0222 3.875C11.0027 3.875 10.9519 3.87109 10.8503 3.79297C10.7722 3.73047 10.7487 3.67969 10.7487 3.5625C10.7487 3.44531 10.7722 3.39453 10.8503 3.33203C10.9519 3.2539 11.0027 3.25 12.0222 3.25C13.0847 3.25 13.0886 3.25 13.1941 3.33984ZM16.53 11.9219V18.875H12.0769H7.62375V11.9219V4.96875H12.0769H16.53V11.9219ZM12.3308 19.5977C12.6706 19.7383 12.8737 20.0508 12.8737 20.4375C12.8737 21.0039 12.4167 21.4219 11.862 21.3633C11.6159 21.3398 11.4714 21.2695 11.3034 21.0977C11.112 20.9023 11.0417 20.7227 11.0417 20.4375C11.0456 19.9531 11.3112 19.6445 11.823 19.5273C11.9284 19.5 12.1862 19.5352 12.3308 19.5977Z" fill="currentColor"/>
</svg>
