<svg width="24" height="24" viewBox="0 0 24 24" fill="none" xmlns="http://www.w3.org/2000/svg">
<path fill-rule="evenodd" clip-rule="evenodd" d="M9.58001 21.7029C14.9384 23.039 20.3649 19.7783 21.7007 14.4206C23.0364 9.0625 19.7761 3.63505 14.418 2.29928C9.06121 0.963513 3.63469 4.22449 2.29955 9.58287C0.963159 14.9403 4.22382 20.3671 9.58001 21.7029ZM14.2098 8.05295C15.5953 8.53019 16.6085 9.24558 16.4094 10.5763C16.2654 11.5505 15.7253 12.0221 15.0084 12.1875C15.9928 12.7 16.4938 13.486 16.0166 14.8487C15.4243 16.541 14.0173 16.6839 12.1462 16.3298L11.6921 18.1496L10.5948 17.8762L11.0429 16.0807C10.7585 16.01 10.4679 15.935 10.1685 15.8538L9.71873 17.6577L8.62267 17.3843L9.07678 15.5609C8.97434 15.5347 8.87125 15.5078 8.76743 15.4807C8.61152 15.4401 8.45397 15.399 8.29451 15.359L6.86655 15.0031L7.41129 13.747C7.41129 13.747 8.21982 13.962 8.20888 13.9461C8.51954 14.023 8.65736 13.8204 8.71174 13.6854L9.42932 10.8086C9.45627 10.815 9.48266 10.8216 9.50812 10.828C9.52075 10.8312 9.53315 10.8343 9.54527 10.8373C9.50151 10.8198 9.46182 10.8086 9.43119 10.8007L9.94312 8.74709C9.95656 8.51394 9.87624 8.21984 9.43182 8.10889C9.44901 8.09733 8.63486 7.91075 8.63486 7.91075L8.92677 6.73875L10.4401 7.1166L10.4388 7.12223C10.6663 7.17879 10.9007 7.23255 11.1395 7.28693L11.5892 5.48486L12.6859 5.75833L12.2452 7.52508C12.5396 7.59228 12.8359 7.66009 13.1244 7.73198L13.5619 5.97679L14.6593 6.25026L14.2098 8.05295ZM10.739 14.5889C11.6343 14.8253 13.5912 15.3422 13.9023 14.092C14.2211 12.8138 12.3233 12.3879 11.3972 12.1801C11.2937 12.1569 11.2024 12.1364 11.1276 12.1178L10.5251 14.5333C10.5865 14.5486 10.6584 14.5676 10.739 14.5889ZM11.5833 11.0591C12.3298 11.2584 13.9581 11.6929 14.2417 10.5567C14.5313 9.39444 12.9488 9.04409 12.1759 8.87299C12.0889 8.85375 12.0122 8.83677 11.9496 8.82116L11.4033 11.012C11.4549 11.0249 11.5154 11.041 11.5833 11.0591Z" fill="currentColor"/>
</svg>
