<svg width="21" height="20" viewBox="0 0 21 20" fill="none" xmlns="http://www.w3.org/2000/svg">
<path d="M9.60799 2.34072C9.6941 2.34091 9.7802 2.34105 9.86631 2.34114C10.0684 2.34144 10.2705 2.34224 10.4725 2.34323C10.703 2.34433 10.9334 2.34486 11.1638 2.34535C11.637 2.34636 12.1103 2.34807 12.5835 2.35026C12.5836 2.38189 12.5836 2.38189 12.5838 2.41415C12.5864 2.92881 12.5894 3.44347 12.5928 3.95813C12.5944 4.20702 12.596 4.45592 12.5972 4.70481C12.5983 4.92192 12.5996 5.13903 12.6011 5.35614C12.6019 5.47094 12.6027 5.58574 12.6031 5.70054C12.6036 5.82916 12.6046 5.95778 12.6056 6.0864C12.6057 6.12384 12.6058 6.16128 12.6058 6.19985C12.6091 6.52101 12.6187 6.86396 12.7747 7.15169C12.7987 7.19752 12.7987 7.19752 12.8233 7.24426C13.0222 7.56783 13.3251 7.75801 13.6902 7.85156C13.9156 7.88707 14.1378 7.88968 14.3657 7.8908C14.4067 7.89112 14.4477 7.89144 14.4899 7.89178C14.6016 7.89265 14.7133 7.89334 14.825 7.89399C14.942 7.8947 15.059 7.89559 15.176 7.89646C15.3972 7.89808 15.6184 7.89955 15.8397 7.90096C16.0917 7.90257 16.3436 7.90435 16.5956 7.90616C17.1137 7.90985 17.6318 7.91333 18.1499 7.91667C18.1529 8.77125 18.1552 9.62584 18.1566 10.4804C18.1573 10.8773 18.1582 11.2741 18.1597 11.671C18.161 12.0172 18.1618 12.3633 18.1621 12.7095C18.1623 12.8925 18.1627 13.0756 18.1636 13.2586C18.1645 13.4315 18.1648 13.6043 18.1646 13.7771C18.1646 13.84 18.1649 13.9029 18.1654 13.9659C18.1735 15.0355 17.8424 15.9167 17.1001 16.6935C16.3403 17.4343 15.3983 17.6601 14.369 17.6587C14.2998 17.6588 14.2305 17.659 14.1613 17.6592C13.9741 17.6596 13.7869 17.6596 13.5997 17.6596C13.4429 17.6595 13.2861 17.6597 13.1292 17.6598C12.7588 17.6602 12.3884 17.6602 12.0179 17.66C11.6372 17.6598 11.2565 17.6602 10.8759 17.6609C10.5478 17.6615 10.2198 17.6617 9.89179 17.6616C9.69641 17.6615 9.50103 17.6616 9.30565 17.6621C9.1216 17.6625 8.93757 17.6624 8.75353 17.662C8.6865 17.6619 8.61948 17.662 8.55246 17.6623C7.3326 17.6668 6.19949 17.3387 5.19413 16.6406C5.1609 16.6178 5.12767 16.595 5.09342 16.5715C4.40292 16.0693 3.8579 15.4107 3.46887 14.6549C3.45202 14.623 3.45202 14.623 3.43483 14.5903C2.75625 13.2911 2.67904 11.7466 3.1108 10.3581C3.11745 10.3366 3.1241 10.315 3.13095 10.2929C3.3686 9.54863 3.78494 8.87858 4.31726 8.31098C4.38266 8.24134 4.38266 8.24134 4.4462 8.15877C4.54189 8.04076 4.65464 7.94867 4.77096 7.85156C4.80664 7.82135 4.80664 7.82135 4.84305 7.79053C4.86827 7.76971 4.89349 7.7489 4.91947 7.72746C4.94504 7.70613 4.97062 7.6848 4.99696 7.66283C5.07483 7.60674 5.13328 7.57271 5.21914 7.53574C5.36384 7.46822 5.48983 7.39716 5.58476 7.26562C5.66946 7.00278 5.63661 6.70951 5.62545 6.43758C5.62203 6.28912 5.61988 6.14064 5.61782 5.99215C5.61712 5.9562 5.61642 5.92025 5.61569 5.8832C5.60315 4.89554 5.98142 4.02861 6.65694 3.31665C7.00942 2.98068 7.41795 2.72635 7.87154 2.55371C7.89515 2.54454 7.91875 2.53536 7.94308 2.52591C8.48883 2.32802 9.03528 2.33713 9.60799 2.34072ZM5.68241 8.95833C5.65707 8.97936 5.63172 9.00038 5.60561 9.02204C4.87069 9.64419 4.40057 10.6137 4.28267 11.5625C4.27239 11.7247 4.27024 11.8863 4.27047 12.0487C4.2705 12.0709 4.27052 12.0931 4.27055 12.1159C4.27481 13.1217 4.6195 14.0131 5.25924 14.7852C5.29184 14.8252 5.29184 14.8252 5.3251 14.8662C5.48929 15.0602 5.67692 15.2162 5.87773 15.3711C5.90551 15.3932 5.93328 15.4154 5.9619 15.4382C6.8083 16.0889 7.91365 16.3353 8.96127 16.2105C9.78237 16.0973 10.5285 15.7515 11.1512 15.2083C11.1741 15.1897 11.1971 15.1711 11.2207 15.1519C11.4086 14.9968 11.5558 14.8145 11.7045 14.6224C11.7267 14.5946 11.7489 14.5668 11.7718 14.5381C12.0705 14.1493 12.2745 13.6889 12.4207 13.2227C12.4276 13.2008 12.4345 13.1789 12.4416 13.1564C12.6447 12.4744 12.6336 11.6217 12.4207 10.944C12.4128 10.9186 12.405 10.8932 12.3969 10.867C12.2192 10.3089 11.947 9.8312 11.5743 9.38151C11.5526 9.35478 11.5309 9.32805 11.5085 9.30051C11.3443 9.10654 11.1567 8.95032 10.9559 8.79557C10.9277 8.77342 10.8995 8.75126 10.8705 8.72843C9.33056 7.55687 7.11885 7.70033 5.68241 8.95833Z" fill="currentColor"/>
<path d="M13.9507 2.74088C14.0873 2.85797 14.2157 2.9693 14.3419 3.09539C14.3567 3.11016 14.3715 3.12493 14.3868 3.14014C14.4356 3.18886 14.4844 3.2377 14.5331 3.28654C14.5684 3.3218 14.6037 3.35706 14.6391 3.3923C14.7343 3.48745 14.8295 3.5827 14.9247 3.67797C15.0244 3.77775 15.1242 3.87746 15.224 3.97717C15.3912 4.14439 15.5584 4.31167 15.7256 4.47899C15.9191 4.67265 16.1127 4.8662 16.3063 5.05968C16.4727 5.22588 16.639 5.39215 16.8052 5.55846C16.9045 5.65778 17.0038 5.75707 17.1031 5.85631C17.1963 5.9494 17.2894 6.04258 17.3825 6.13581C17.4167 6.17011 17.451 6.20437 17.4853 6.2386C17.5319 6.28512 17.5784 6.33175 17.6249 6.37838C17.651 6.4045 17.6771 6.43062 17.704 6.45754C17.7593 6.51692 17.7593 6.51692 17.7593 6.54947C16.5024 6.54947 15.2456 6.54947 13.9507 6.54947C13.9507 5.29263 13.9507 4.0358 13.9507 2.74088Z" fill="currentColor"/>
<path d="M8.72667 12.113C8.89281 12.2118 9.02422 12.3445 9.1041 12.522C9.14508 12.685 9.14287 12.8423 9.14273 13.0098C9.14287 13.0458 9.14301 13.0817 9.14315 13.1188C9.14334 13.1946 9.14336 13.2705 9.14321 13.3464C9.14311 13.4621 9.14387 13.5777 9.1447 13.6934C9.14477 13.7673 9.1448 13.8412 9.14476 13.9152C9.14506 13.9495 9.14536 13.9839 9.14567 14.0193C9.14417 14.2613 9.12111 14.4552 8.96 14.6468C8.75812 14.8158 8.62091 14.8939 8.35665 14.8899C8.16611 14.8706 7.99852 14.7901 7.86341 14.6549C7.74607 14.4853 7.69719 14.3386 7.69488 14.1343C7.69447 14.1021 7.69405 14.0698 7.69362 14.0365C7.69338 14.0018 7.69314 13.9671 7.69289 13.9313C7.69263 13.8953 7.69236 13.8594 7.69209 13.8223C7.69164 13.7462 7.69129 13.67 7.69104 13.5939C7.69048 13.478 7.68905 13.3621 7.68761 13.2462C7.68728 13.1721 7.68701 13.098 7.68679 13.0239C7.68622 12.9895 7.68565 12.9551 7.68506 12.9197C7.68576 12.6795 7.71802 12.463 7.88878 12.2825C8.12515 12.0687 8.41654 12.0009 8.72667 12.113Z" fill="currentColor"/>
<path d="M8.97637 9.42234C9.20339 9.58074 9.37533 9.799 9.45829 10.0651C9.47199 10.1565 9.47385 10.2455 9.47253 10.3377C9.47213 10.3743 9.47213 10.3743 9.47172 10.4117C9.46276 10.7053 9.36222 10.8994 9.16291 11.1136C8.90986 11.3487 8.64468 11.4159 8.30397 11.4098C7.98469 11.382 7.7573 11.2225 7.55285 10.9832C7.34864 10.7141 7.33147 10.3913 7.37496 10.0651C7.4543 9.80143 7.59951 9.59683 7.83069 9.44663C8.19977 9.2484 8.60076 9.2078 8.97637 9.42234Z" fill="currentColor"/>
</svg>
