<svg width="24" height="24" viewBox="0 0 24 24" fill="none" xmlns="http://www.w3.org/2000/svg">
<path fill-rule="evenodd" clip-rule="evenodd" d="M4 2C2.89543 2 2 2.89543 2 4V9C2 10.1046 2.89543 11 4 11H9C10.1046 11 11 10.1046 11 9V4C11 2.89543 10.1046 2 9 2H4ZM17.5 2.25C17.8835 2.25 18.1944 2.56091 18.1944 2.94444V5.80566H21.0556C21.4391 5.80566 21.75 6.11658 21.75 6.50011C21.75 6.88364 21.4391 7.19455 21.0556 7.19455H18.1944V10.0556C18.1944 10.4391 17.8835 10.75 17.5 10.75C17.1165 10.75 16.8056 10.4391 16.8056 10.0556V7.19455H13.9444C13.5609 7.19455 13.25 6.88364 13.25 6.50011C13.25 6.11658 13.5609 5.80566 13.9444 5.80566H16.8056V2.94444C16.8056 2.56091 17.1165 2.25 17.5 2.25ZM2 15C2 13.8954 2.89543 13 4 13H9C10.1046 13 11 13.8954 11 15V20C11 21.1046 10.1046 22 9 22H4C2.89543 22 2 21.1046 2 20V15ZM15 13C13.8954 13 13 13.8954 13 15V20C13 21.1046 13.8954 22 15 22H20C21.1046 22 22 21.1046 22 20V15C22 13.8954 21.1046 13 20 13H15Z" fill="currentColor"/>
</svg>
