<svg width="24" height="24" viewBox="0 0 24 24" fill="none" xmlns="http://www.w3.org/2000/svg">
<path fill-rule="evenodd" clip-rule="evenodd" d="M12 2.5C11.4477 2.5 11 2.89797 11 3.38889V4.57443C7.6077 5.08392 5 8.14718 5 11.85V15.5C4.44772 15.5 4 15.9477 4 16.5C4 17.0523 4.44772 17.5 5 17.5H19C19.5523 17.5 20 17.0523 20 16.5C20 15.9477 19.5523 15.5 19 15.5H18.9999L18.9999 14.6374V14.6143V14.6064C18.9999 13.6766 18.9999 12.5232 19 11.85C19 8.14718 16.3923 5.08392 13 4.57443L13 3.38889C13 2.89797 12.5523 2.5 12 2.5ZM15 18.5C15 20.1569 13.6569 21.5 12 21.5C10.3431 21.5 9 20.1569 9 18.5L12 18.5L15 18.5Z" fill="currentColor"/>
</svg>
