<svg width="16" height="16" viewBox="0 0 16 16" fill="none" xmlns="http://www.w3.org/2000/svg">
<path d="M14.3533 7.24691L13.34 6.23358C13.1667 6.06025 13.0267 5.72025 13.0267 5.48025V4.04025C13.0267 3.45358 12.5467 2.97358 11.96 2.97358H10.5267C10.2867 2.97358 9.94667 2.83358 9.77334 2.66025L8.76 1.64691C8.34667 1.23358 7.66667 1.23358 7.25334 1.64691L6.22667 2.66025C6.06 2.83358 5.72 2.97358 5.47334 2.97358H4.04C3.45334 2.97358 2.97334 3.45358 2.97334 4.04025V5.47358C2.97334 5.71358 2.83334 6.05358 2.66 6.22691L1.64667 7.24025C1.23334 7.65358 1.23334 8.33358 1.64667 8.74691L2.66 9.76025C2.83334 9.93358 2.97334 10.2736 2.97334 10.5136V11.9469C2.97334 12.5336 3.45334 13.0136 4.04 13.0136H5.47334C5.71334 13.0136 6.05334 13.1536 6.22667 13.3269L7.24 14.3402C7.65334 14.7536 8.33334 14.7536 8.74667 14.3402L9.76 13.3269C9.93334 13.1536 10.2733 13.0136 10.5133 13.0136H11.9467C12.5333 13.0136 13.0133 12.5336 13.0133 11.9469V10.5136C13.0133 10.2736 13.1533 9.93358 13.3267 9.76025L14.34 8.74691C14.7733 8.34025 14.7733 7.66025 14.3533 7.24691ZM5.33334 6.00025C5.33334 5.63358 5.63334 5.33358 6 5.33358C6.36667 5.33358 6.66667 5.63358 6.66667 6.00025C6.66667 6.36691 6.37334 6.66691 6 6.66691C5.63334 6.66691 5.33334 6.36691 5.33334 6.00025ZM6.35334 10.3536C6.25334 10.4536 6.12667 10.5002 6 10.5002C5.87334 10.5002 5.74667 10.4536 5.64667 10.3536C5.45334 10.1602 5.45334 9.84025 5.64667 9.64691L9.64667 5.64691C9.84 5.45358 10.16 5.45358 10.3533 5.64691C10.5467 5.84025 10.5467 6.16025 10.3533 6.35358L6.35334 10.3536ZM10 10.6669C9.62667 10.6669 9.32667 10.3669 9.32667 10.0002C9.32667 9.63358 9.62667 9.33358 9.99334 9.33358C10.36 9.33358 10.66 9.63358 10.66 10.0002C10.66 10.3669 10.3667 10.6669 10 10.6669Z" fill="currentColor"/>
</svg>
