<svg width="24" height="24" viewBox="0 0 24 24" fill="none" xmlns="http://www.w3.org/2000/svg">
<path d="M12 1C5.92508 1 1 5.92508 1 12C1 18.0749 5.92508 23 12 23C18.0749 23 23 18.0749 23 12C23 5.92508 18.0749 1 12 1ZM18.0156 12.6278C18.0155 12.8358 17.9328 13.0353 17.7857 13.1824C17.6386 13.3296 17.4391 13.4123 17.231 13.4124H13.4124V17.231C13.4123 17.4391 13.3296 17.6386 13.1824 17.7857C13.0353 17.9328 12.8358 18.0155 12.6278 18.0156H11.3722C11.1642 18.0155 10.9647 17.9328 10.8175 17.7857C10.6704 17.6386 10.5877 17.4391 10.5876 17.231V13.4124H6.76898C6.56093 13.4123 6.36143 13.3296 6.21431 13.1824C6.06719 13.0353 5.98449 12.8358 5.98438 12.6278V11.3722C5.98449 11.1642 6.06719 10.9647 6.21431 10.8175C6.36143 10.6704 6.56093 10.5877 6.76898 10.5876H10.5876V6.76898C10.5877 6.56093 10.6704 6.36143 10.8175 6.21431C10.9647 6.06719 11.1642 5.98449 11.3722 5.98438H12.6278C12.8358 5.98449 13.0353 6.06719 13.1824 6.21431C13.3296 6.36143 13.4123 6.56093 13.4124 6.76898V10.5876H17.231C17.4391 10.5877 17.6386 10.6704 17.7857 10.8175C17.9328 10.9647 18.0155 11.1642 18.0156 11.3722V12.6278Z" fill="currentColor"/>
</svg>
