<svg width="20" height="20" viewBox="0 0 20 20" fill="none" xmlns="http://www.w3.org/2000/svg">
<path d="M10.0001 1.66663C5.39758 1.66663 1.66675 5.39746 1.66675 9.99996C1.66675 14.6025 5.39758 18.3333 10.0001 18.3333C14.6026 18.3333 18.3334 14.6025 18.3334 9.99996C18.3334 5.39746 14.6026 1.66663 10.0001 1.66663ZM13.3334 10.8333H10.8334V13.3333C10.8334 13.7933 10.4601 14.1666 10.0001 14.1666C9.54008 14.1666 9.16675 13.7933 9.16675 13.3333V10.8333H6.66675C6.20675 10.8333 5.83342 10.46 5.83342 9.99996C5.83342 9.53996 6.20675 9.16663 6.66675 9.16663H9.16675V6.66663C9.16675 6.20663 9.54008 5.83329 10.0001 5.83329C10.4601 5.83329 10.8334 6.20663 10.8334 6.66663V9.16663H13.3334C13.7934 9.16663 14.1667 9.53996 14.1667 9.99996C14.1667 10.46 13.7934 10.8333 13.3334 10.8333Z" fill="currentColor"/>
</svg>
