<svg width="24" height="24" viewBox="0 0 24 24" fill="none" xmlns="http://www.w3.org/2000/svg">
<path fill-rule="evenodd" clip-rule="evenodd" d="M11.735 2.05219C11.4957 2.17334 11.4329 2.31013 11.4212 2.76349C11.4201 2.79499 11.4192 2.8241 11.4184 2.85104C11.4136 3.01674 11.4112 3.09979 11.3687 3.14503C11.3259 3.19047 11.2426 3.19775 11.0756 3.21236L11.0755 3.21236C11.0469 3.21487 11.0157 3.21759 10.9818 3.22076C10.5543 3.25984 9.79334 3.4279 9.30695 3.58814C8.62444 3.81091 8.21258 4.00242 7.26335 4.52222C5.65906 5.40939 4.38425 5.99954 3.01923 6.48808C2.64268 6.62096 2.27789 6.77338 2.20728 6.82419C1.88956 7.05477 1.95625 7.61366 2.32888 7.78953C2.48578 7.86379 2.82703 7.8716 3.6939 7.81298C4.97655 7.727 5.91009 7.56676 7.49085 7.17202C9.47954 6.67567 11.1113 6.49589 12.8254 6.5936C14.2375 6.67567 15.0573 6.80465 16.6694 7.2072C18.1757 7.58239 19.0425 7.727 20.3095 7.81298C21.1763 7.8716 21.5176 7.86379 21.6745 7.78953C22.0471 7.61366 22.1138 7.05477 21.7961 6.82419C21.7255 6.77338 21.4313 6.64831 21.141 6.54279C19.6505 6.01517 18.411 5.44848 16.7793 4.54567C16.3635 4.31508 15.8614 4.04931 15.6614 3.95552C14.9278 3.6155 13.7629 3.29111 13.0215 3.22076L12.9363 3.21314C12.7522 3.19697 12.6654 3.18933 12.6247 3.142C12.5883 3.0997 12.5888 3.02568 12.5897 2.88551V2.8855C12.5899 2.86121 12.5901 2.83493 12.5901 2.80648C12.5901 2.40002 12.5312 2.23197 12.3429 2.09909C12.19 1.98966 11.9036 1.96621 11.735 2.05219ZM11.4133 13.1085V18.4824H12.0017H12.5901V13.1085V7.73464H12.0017H11.4133V13.1085ZM6.2945 8.67681C6.30626 8.66508 6.54946 8.59864 6.8358 8.5322L7.07592 8.47642C7.25058 8.43582 7.37899 8.40598 7.39279 8.40323C7.41632 8.40323 7.8831 9.41547 8.43224 10.6583L9.43247 12.9134L9.62859 12.9329C9.89532 12.9642 10.064 13.0619 10.1581 13.2456C10.3503 13.6247 10.1464 14.5158 9.73058 15.1098C8.25965 17.1968 4.79219 17.4431 2.90548 15.5905C2.47009 15.1645 2.17983 14.6408 2.05431 14.0663C1.90133 13.355 2.07 12.9915 2.57992 12.9368L2.79958 12.9134L3.68605 10.9202L4.57253 8.92694L5.16875 8.84486C5.49823 8.79796 5.80419 8.75106 5.84733 8.73934C5.88656 8.72761 5.92186 8.73543 5.92186 8.75106C5.92186 8.77061 5.51 9.71641 5.004 10.8498L4.08615 12.9134L5.10207 12.9251C5.66298 12.929 6.57299 12.929 7.1339 12.9251L8.1459 12.9134L7.21235 10.8068C6.69459 9.64606 6.28273 8.68853 6.2945 8.67681ZM15.5711 10.6542L14.567 12.9131L14.3512 12.9366C13.8413 12.9913 13.6844 13.3157 13.8217 14.0348C14.0061 14.9923 14.716 15.8483 15.7476 16.3642C16.0458 16.5127 16.642 16.7003 17.0224 16.7667C17.4422 16.841 18.4149 16.8331 18.8346 16.7511C20.0584 16.5088 21.0508 15.8639 21.6078 14.9494C21.9255 14.4256 22.0942 13.5815 21.9451 13.2727C21.851 13.0695 21.6863 12.964 21.4235 12.9366L21.2038 12.9131L20.3173 10.9199L19.4308 8.92671L18.8346 8.84464C18.5051 8.79774 18.1992 8.75084 18.156 8.73911C18.1168 8.72739 18.0815 8.73521 18.0815 8.75084C18.0815 8.77038 18.4934 9.71618 18.9994 10.8496L19.9172 12.9131L18.9013 12.9249C18.3404 12.9288 17.4304 12.9288 16.8695 12.9249L15.8575 12.9131L16.7949 10.8066C17.3088 9.64583 17.7167 8.6844 17.701 8.67267C17.6814 8.65704 17.4578 8.59842 17.199 8.53979C16.9401 8.48508 16.693 8.43036 16.6498 8.41864C16.5792 8.39909 16.4655 8.6375 15.5711 10.6542ZM8.40871 20.1787C8.65974 19.9286 8.91078 19.7879 9.23635 19.7097C9.48346 19.6511 14.3944 19.6355 14.7043 19.6941C15.4848 19.8426 16.1203 20.6047 16.1203 21.3981C16.1203 21.6052 15.9869 21.8319 15.8065 21.9218C15.6574 22 15.5829 22 12.0017 22C8.42047 22 8.34595 22 8.19689 21.9218C7.70266 21.6717 7.81641 20.7728 8.40871 20.1787Z" fill="currentColor"/>
</svg>
