<svg width="24" height="24" viewBox="0 0 24 24" fill="none" xmlns="http://www.w3.org/2000/svg">
<path d="M12.0004 2C6.47918 2 2 6.47336 2 11.9948C2 17.5214 6.47918 22 12.0004 22C17.5246 22 22 17.5214 22 11.9948C22 6.47336 17.5246 2 12.0004 2ZM12.7131 17.559C12.4808 17.7658 12.2116 17.8697 11.9067 17.8697C11.5912 17.8697 11.316 17.7675 11.0811 17.5632C10.8458 17.3592 10.728 17.0734 10.728 16.7063C10.728 16.3807 10.842 16.1066 11.0694 15.8846C11.2968 15.6625 11.5758 15.5514 11.9067 15.5514C12.2323 15.5514 12.5064 15.6625 12.7289 15.8846C12.951 16.1066 13.0624 16.3807 13.0624 16.7063C13.062 17.0682 12.9457 17.3524 12.7131 17.559ZM15.6091 10.3794C15.4307 10.7103 15.2188 10.9956 14.973 11.2362C14.7279 11.4768 14.2871 11.8811 13.6508 12.4495C13.4754 12.6099 13.3342 12.7507 13.2284 12.8719C13.1226 12.9935 13.0436 13.1045 12.992 13.2054C12.94 13.3063 12.9002 13.4072 12.8719 13.508C12.8436 13.6085 12.8011 13.7859 12.7435 14.0392C12.6457 14.5768 12.3381 14.8455 11.8212 14.8455C11.5524 14.8455 11.3265 14.7578 11.1424 14.582C10.9591 14.4062 10.8676 14.1453 10.8676 13.799C10.8676 13.365 10.935 12.9889 11.0694 12.6708C11.203 12.3527 11.3819 12.0738 11.604 11.8332C11.8265 11.5927 12.1261 11.3073 12.5037 10.9764C12.8346 10.6869 13.0737 10.4686 13.2209 10.3214C13.3684 10.1738 13.4923 10.0097 13.5928 9.82898C13.6941 9.6479 13.7438 9.45177 13.7438 9.23985C13.7438 8.82614 13.5906 8.47756 13.2826 8.19334C12.9751 7.90913 12.5783 7.76681 12.0923 7.76681C11.5234 7.76681 11.1048 7.91023 10.836 8.19709C10.5672 8.48394 10.3402 8.90632 10.1538 9.46461C9.97766 10.0489 9.64411 10.341 9.15356 10.341C8.86405 10.341 8.61975 10.2389 8.4206 10.0349C8.22182 9.83083 8.12244 9.60988 8.12244 9.37197C8.12244 8.88107 8.28017 8.3834 8.5953 7.87934C8.91079 7.37529 9.37082 6.95779 9.97576 6.62725C10.5803 6.29635 11.2863 6.13069 12.0923 6.13069C12.8418 6.13069 13.5032 6.26921 14.077 6.54593C14.6507 6.82223 15.0941 7.19833 15.407 7.67414C15.7195 8.14957 15.8761 8.66646 15.8761 9.22475C15.8769 9.66337 15.7876 10.0485 15.6091 10.3794Z" fill="currentColor"/>
</svg>
