<svg width="24" height="24" viewBox="0 0 24 24" fill="none" xmlns="http://www.w3.org/2000/svg">
<path fill-rule="evenodd" clip-rule="evenodd" d="M8.79688 4.04579L11.9922 3.08485C13.7461 2.5536 15.1875 2.12001 15.1953 2.12001C15.1992 2.1161 15.2031 2.89735 15.2031 3.85048V5.58095L14.9219 5.60829C14.7656 5.62001 14.4805 5.67079 14.293 5.71767C14.0195 5.78407 13.9297 5.82314 13.8516 5.91298C13.7227 6.06923 13.7305 6.23329 13.8711 6.37782C14.0078 6.51064 14.043 6.51454 14.4258 6.41689C14.5859 6.37782 14.8242 6.33095 14.9609 6.31532L15.2031 6.28798V13.12V19.952L12.4414 20.7802C11.8719 20.951 11.3138 21.1186 10.8257 21.2652L10.8192 21.2671L10.819 21.2672L10.8099 21.2699C10.0003 21.513 9.38651 21.6974 9.23828 21.7411L8.79688 21.8739V20.3192V18.7684L9.03516 18.7411C9.22656 18.7177 9.30078 18.6903 9.38672 18.6005C9.54297 18.4481 9.53906 18.2802 9.37891 18.1239C9.26562 18.0106 9.25 18.0067 9.02734 18.0263L8.79688 18.0536V11.0497V4.04579ZM13.2461 7.08485C13.457 6.83485 13.4805 6.66298 13.3281 6.51064C13.2148 6.40126 13.0703 6.3622 12.9531 6.40907C12.8242 6.46376 12.4375 6.91689 12.3281 7.13954C12.2148 7.37392 12.2305 7.50673 12.3789 7.62392C12.4883 7.70985 12.6641 7.72548 12.7852 7.66298C12.8281 7.63954 12.9062 7.54579 12.9648 7.45595C13.0195 7.3661 13.1484 7.19814 13.2461 7.08485ZM12.4219 9.28017C12.4922 8.75282 12.4844 8.65126 12.3711 8.54189C12.3047 8.47157 12.2344 8.44423 12.125 8.44423C11.8906 8.44423 11.8047 8.56532 11.7422 8.97939C11.6602 9.51064 11.668 9.60439 11.8008 9.7372C11.9531 9.88564 12.125 9.88954 12.2695 9.7411C12.3633 9.65126 12.3828 9.58095 12.4219 9.28017ZM12.3086 10.7411C12.2852 10.6981 12.207 10.6395 12.1367 10.6083C12.1194 10.6014 12.1044 10.5952 12.0912 10.5897L12.0911 10.5897C12.0447 10.5705 12.0204 10.5604 11.9961 10.5604C11.9693 10.5604 11.9426 10.5726 11.8863 10.5982L11.8555 10.6122C11.7891 10.6395 11.7148 10.6981 11.6914 10.745C11.668 10.788 11.6484 11.0302 11.6484 11.2958C11.6484 11.7684 11.6484 11.7724 11.7617 11.8856C11.8398 11.9638 11.9141 11.9989 12 11.9989C12.0859 11.9989 12.1602 11.9638 12.2383 11.8856C12.3516 11.7724 12.3516 11.7684 12.3516 11.2958C12.3516 11.0302 12.332 10.788 12.3086 10.7411ZM12.3242 13.5067C12.3672 12.995 12.3359 12.8544 12.1523 12.7606C12.0273 12.6942 11.9805 12.6903 11.8555 12.7411C11.6836 12.8114 11.6367 12.9481 11.6172 13.4599L11.5977 13.9364L11.7305 14.0458C11.8359 14.1356 11.8828 14.1513 11.9961 14.1317C12.2383 14.0927 12.2812 14.0106 12.3242 13.5067ZM12.0195 15.6942C12.1602 15.1395 12.1445 15.0263 11.9219 14.9091C11.7734 14.8349 11.7344 14.8349 11.582 14.9286C11.4922 14.9833 11.4453 15.0497 11.4141 15.1708C11.4066 15.2005 11.3961 15.2415 11.3839 15.2889C11.3576 15.3913 11.3236 15.5235 11.2969 15.6356C11.2031 15.9833 11.2383 16.1474 11.418 16.2372C11.5781 16.3231 11.6719 16.3114 11.8047 16.1864C11.9023 16.1005 11.9414 16.0067 12.0195 15.6942ZM11.2773 17.3505C11.3047 17.2216 11.2188 17.0224 11.1055 16.9599C11 16.9052 10.8164 16.9091 10.7422 16.9677C10.7109 16.995 10.5664 17.1434 10.4258 17.2997C10.2109 17.5341 10.1641 17.6044 10.1641 17.7138C10.1641 17.9872 10.4297 18.1591 10.6641 18.038C10.8281 17.952 11.25 17.4833 11.2773 17.3505ZM15.9453 5.58486V3.87002C15.9453 2.85049 15.9609 2.15518 15.9805 2.15518C16 2.15518 17.3242 2.56924 18.9219 3.07315C21.3711 3.84658 21.8398 4.00283 21.9141 4.08877L22 4.19033V12.8388V21.4833L21.8984 21.6044C21.8242 21.6942 21.7656 21.7255 21.6719 21.7255C21.6016 21.7255 20.293 21.3309 18.7617 20.8466C17.2305 20.3622 15.9727 19.9677 15.9609 19.9677C15.9531 19.9677 15.9453 16.8895 15.9453 13.1317V6.2958L16.0352 6.31143C16.4023 6.38955 16.5742 6.43252 16.7383 6.49502C16.9961 6.59658 17.1055 6.58877 17.2383 6.45596C17.3672 6.32314 17.3867 6.16689 17.2891 6.02627C17.1797 5.87002 16.6602 5.68643 16.1328 5.6083L15.9453 5.58486ZM18.875 7.73721C18.875 7.53408 18.4062 6.79189 18.2109 6.68643C17.9727 6.56143 17.7031 6.72158 17.7031 6.99111C17.7031 7.1083 17.7383 7.19033 17.8516 7.33486C17.9336 7.44033 18.0586 7.62393 18.1328 7.74111C18.293 8.00674 18.3477 8.04971 18.5352 8.05361C18.7266 8.05361 18.875 7.91689 18.875 7.73721ZM19.4609 9.59658C19.4336 9.37392 19.4062 9.30752 19.3242 9.23721C19.2148 9.14346 19.0234 9.12002 18.9023 9.19033C18.7617 9.27236 18.7266 9.4208 18.7617 9.77236C18.7773 9.95596 18.793 10.163 18.793 10.2333C18.7969 10.4169 18.9453 10.5536 19.1367 10.5536C19.4766 10.5497 19.5547 10.3153 19.4609 9.59658ZM19.5 12.0067C19.5 11.5575 19.4961 11.5302 19.3984 11.4169C19.2656 11.2567 19.0391 11.245 18.8945 11.3935C18.8008 11.4833 18.7969 11.5067 18.7969 11.9989C18.7969 12.4911 18.8008 12.5145 18.8945 12.6044C19.0312 12.745 19.2383 12.7372 19.3867 12.5888C19.5 12.4755 19.5 12.4716 19.5 12.0067ZM19.5 13.9911C19.5 13.7099 19.4609 13.581 19.3477 13.495C19.2383 13.4091 19 13.4325 18.8945 13.5419C18.8047 13.6278 18.7969 13.6669 18.7969 13.9677C18.7969 14.288 18.8008 14.2997 18.918 14.3974C19.0781 14.5341 19.2422 14.5302 19.3867 14.3856C19.4922 14.2802 19.5 14.2489 19.5 13.9911ZM18.5508 14.8231C18.2266 14.4989 17.918 14.2138 17.8711 14.1903C17.6836 14.0966 17.5078 14.1552 17.4062 14.3466C17.3008 14.5536 17.3555 14.6395 18.0156 15.2997L18.6406 15.9247L18.0078 16.5575L18.0061 16.5593L18.006 16.5593C17.3945 17.1747 17.3711 17.1983 17.3711 17.3544C17.3711 17.5614 17.5195 17.702 17.7305 17.702C17.8633 17.702 17.9219 17.6552 18.5117 17.0692L19.1484 16.4364L19.7852 17.0692C20.3633 17.6435 20.4375 17.702 20.5586 17.702C20.8203 17.702 20.9844 17.4911 20.9062 17.2567C20.8828 17.1825 20.6328 16.9013 20.2617 16.5302L19.6562 15.9286L20.2812 15.2997C20.8789 14.6981 20.9062 14.663 20.9062 14.5145C20.9023 14.3505 20.8555 14.2645 20.7227 14.1942C20.5117 14.081 20.457 14.1161 19.7852 14.7802L19.1484 15.413L18.5508 14.8231ZM2.10156 2.39346L2 2.51455V11.1591V19.8075L2.08984 19.9091C2.16016 19.9911 2.64062 20.1552 5.08203 20.9247C6.68359 21.4286 8.00391 21.8427 8.02344 21.8427C8.03906 21.8427 8.05469 21.1474 8.05469 20.2997C8.05469 18.8075 8.05078 18.7567 7.98047 18.7567C7.89062 18.7567 7.70312 18.5458 7.70312 18.4442C7.70312 18.2958 7.78516 18.1669 7.91797 18.1044L8.05469 18.038V11.038V4.03799L7.92969 3.99502C4.91797 3.03799 2.42969 2.27237 2.33203 2.27237C2.23438 2.27237 2.17578 2.30362 2.10156 2.39346ZM5.30078 4.90908C5.70703 4.99502 6.03906 5.17861 6.35547 5.49502C7.10938 6.24111 7.19922 7.32314 6.61719 8.53799C6.30078 9.19033 5.74219 9.92471 5.23047 10.3583C5.03906 10.5224 4.97266 10.5536 4.84766 10.5536C4.70312 10.5536 4.66016 10.5224 4.31641 10.1903C3.83984 9.7333 3.38672 9.12783 3.13672 8.62392C2.58984 7.51064 2.57812 6.57314 3.09766 5.78799C3.30859 5.47549 3.55859 5.26455 3.93359 5.08486C4.41406 4.8544 4.79688 4.80361 5.30078 4.90908ZM5.10547 11.3935C5.19922 11.4833 5.20312 11.5067 5.20312 11.9911C5.20312 12.4833 5.19922 12.4989 5.10156 12.6005C4.94922 12.7489 4.73828 12.7411 4.60156 12.581C4.50391 12.4677 4.5 12.4403 4.5 11.9989C4.5 11.5575 4.50391 11.5302 4.60156 11.4169C4.73438 11.2567 4.96094 11.245 5.10547 11.3935ZM5.08984 13.5185C5.16406 13.577 5.18359 13.6435 5.20703 13.8974C5.26562 14.5106 5.25391 14.6083 5.12891 14.7372C4.96484 14.8974 4.70312 14.8778 4.58594 14.6903C4.53125 14.6044 4.47656 13.8544 4.51562 13.706C4.57422 13.4638 4.89453 13.3583 5.08984 13.5185ZM5.29297 15.6317C5.35938 15.6825 5.41406 15.7919 5.45703 15.9364C5.48828 16.0575 5.55078 16.2528 5.59375 16.3661C5.63672 16.4833 5.67188 16.62 5.67188 16.6747C5.67188 16.8153 5.47266 16.9989 5.32031 16.9989C5.12109 16.9989 4.99609 16.8349 4.85547 16.4013C4.70312 15.9208 4.70312 15.8153 4.84766 15.6669C4.98438 15.5302 5.14844 15.5185 5.29297 15.6317ZM6.48828 17.5653C6.66797 17.6825 6.82812 17.7802 6.84766 17.7802C6.92188 17.7802 7.00781 18.0224 6.98047 18.1591C6.94922 18.327 6.76172 18.4559 6.58984 18.4247C6.35156 18.3817 5.8125 17.9989 5.74609 17.827C5.66797 17.62 5.85156 17.3583 6.08203 17.3505C6.12891 17.3505 6.30859 17.4481 6.48828 17.5653ZM3.60156 6.34267C3.8164 5.93642 4.20703 5.65517 4.6289 5.59267C5.10937 5.52626 5.51172 5.65907 5.85156 5.99892C6.16797 6.31532 6.27344 6.57704 6.26953 7.03798C6.26562 7.81142 5.86719 8.63563 5.07422 9.51454L4.86719 9.7411L4.5664 9.4247C3.8125 8.62001 3.41406 7.72938 3.45312 6.9286C3.46484 6.63563 3.48828 6.5536 3.60156 6.34267ZM5.19922 6.99892C5.19922 6.84657 5.14844 6.76063 5.01953 6.69423C4.79687 6.57313 4.5 6.74892 4.5 6.99892C4.5 7.15517 4.68359 7.35048 4.83203 7.35048C5.05078 7.35048 5.19922 7.20985 5.19922 6.99892Z" fill="currentColor"/>
</svg>
