<svg width="24" height="24" viewBox="0 0 24 24" fill="none" xmlns="http://www.w3.org/2000/svg">
<path fill-rule="evenodd" clip-rule="evenodd" d="M13.5 19.0002C17.0899 19.0002 20 16.0901 20 12.5002C20 8.91039 17.0899 6.00024 13.5 6.00024C10.4131 6.00024 7.82874 8.15211 7.16522 11.0376L9.42648 9.73209C9.90478 9.45595 10.5164 9.61982 10.7925 10.0981C11.0687 10.5764 10.9048 11.188 10.4265 11.4641L6.09636 13.9641C5.61807 14.2403 5.00647 14.0764 4.73033 13.5981L2.23033 9.26799C1.95419 8.7897 2.11807 8.17811 2.59636 7.90196C3.07465 7.62582 3.68624 7.7897 3.96238 8.26799L5.24093 10.4825C6.14669 6.76209 9.50082 4.00024 13.5 4.00024C18.1944 4.00024 22 7.80582 22 12.5002C22 17.1947 18.1944 21.0002 13.5 21.0002C10.0533 21.0002 7.08573 18.9488 5.75174 16.0002H8.02182C9.17689 17.8044 11.1988 19.0002 13.5 19.0002Z" fill="currentColor"/>
</svg>
