<svg width="21" height="20" viewBox="0 0 21 20" fill="none" xmlns="http://www.w3.org/2000/svg">
<path fill-rule="evenodd" clip-rule="evenodd" d="M15.7764 6.55531L12.7764 7.53382C12.312 7.68467 12 8.1146 12 8.60316V10.5598C12 10.8415 12.0095 11.1022 12.0227 11.3549C12.0286 11.4578 11.9912 11.5581 11.9209 11.6328C11.8499 11.7075 11.7517 11.75 11.6484 11.75H3.00001C2.1731 11.75 1.5 11.0773 1.5 10.25V6.49998C1.5 5.67271 2.1731 5 2.99998 5H16.5C17.3269 5 18 5.67275 18 6.50001C18 6.62014 17.9421 6.75124 17.8454 6.82155C17.7481 6.89221 17.6235 6.93032 17.5085 6.89295L16.4736 6.55566C16.2495 6.4817 16.0005 6.48208 15.7764 6.55531ZM5.09912 8.9375C5.20311 8.75806 5.14159 8.52881 4.96215 8.42517L4.87525 8.37497L4.96219 8.3248C5.14163 8.22116 5.20315 7.9919 5.09916 7.81247C4.99587 7.63229 4.76588 7.5715 4.58718 7.67514L4.50002 7.72545V7.62498C4.50002 7.4177 4.33229 7.24997 4.12501 7.24997C3.91773 7.24997 3.75 7.4177 3.75 7.62498V7.72545L3.66288 7.67518C3.48415 7.57263 3.25419 7.63306 3.1509 7.8125C3.04691 7.99194 3.10843 8.22119 3.28787 8.32483L3.37481 8.375L3.28787 8.42517C3.10843 8.52881 3.04691 8.75806 3.1509 8.9375C3.21974 9.05759 3.34644 9.12499 3.47536 9.12499C3.53906 9.12499 3.6035 9.10889 3.66285 9.07482L3.75 9.02451V9.12499C3.75 9.33227 3.91773 9.5 4.12501 9.5C4.33229 9.5 4.50002 9.33227 4.50002 9.12499V9.02451L4.58718 9.07482C4.64648 9.10889 4.71093 9.12499 4.77466 9.12499C4.90355 9.12499 5.03029 9.05763 5.09912 8.9375ZM8.09915 8.9375C8.20314 8.75806 8.14161 8.52881 7.96218 8.42517L7.87531 8.375L7.96225 8.32483C8.14168 8.22119 8.20321 7.99194 8.09922 7.8125C7.99666 7.63232 7.76593 7.57154 7.58723 7.67518L7.50008 7.72549V7.62501C7.50008 7.41773 7.33235 7.25 7.12507 7.25C6.91779 7.25 6.75006 7.41773 6.75006 7.62501V7.72549L6.66291 7.67518C6.48417 7.57263 6.25422 7.63306 6.15093 7.8125C6.04693 7.99194 6.10846 8.22119 6.28789 8.32483L6.37484 8.375L6.28789 8.42517C6.10846 8.52881 6.04693 8.75806 6.15093 8.9375C6.21976 9.05759 6.34647 9.12499 6.47538 9.12499C6.53909 9.12499 6.60353 9.10889 6.66287 9.07482L6.75002 9.02451V9.12499C6.75002 9.33227 6.91775 9.5 7.12504 9.5C7.33232 9.5 7.50005 9.33227 7.50005 9.12499V9.02451L7.5872 9.07482C7.64651 9.10889 7.71095 9.12499 7.77469 9.12499C7.90357 9.12499 8.03031 9.05763 8.09915 8.9375ZM11.0991 8.9375C11.2031 8.75806 11.1416 8.52881 10.9622 8.42517L10.8753 8.375L10.9622 8.32483C11.1416 8.22119 11.2032 7.99194 11.0992 7.8125C10.9966 7.63232 10.7666 7.57154 10.5872 7.67518L10.5 7.72549V7.62501C10.5 7.41773 10.3323 7.25 10.125 7.25C9.91774 7.25 9.75001 7.41773 9.75001 7.62501V7.72549L9.66286 7.67518C9.48413 7.57263 9.25417 7.63306 9.15088 7.8125C9.04689 7.99194 9.10841 8.22119 9.28785 8.32483L9.37479 8.375L9.28785 8.42517C9.10841 8.52881 9.04689 8.75806 9.15088 8.9375C9.21972 9.05759 9.34642 9.12499 9.47534 9.12499C9.53904 9.12499 9.60348 9.10889 9.66282 9.07482L9.74998 9.02451V9.12499C9.74998 9.33227 9.91771 9.5 10.125 9.5C10.3323 9.5 10.5 9.33227 10.5 9.12499V9.02451L10.5872 9.07482C10.6465 9.10889 10.7109 9.12499 10.7747 9.12499C10.9036 9.12499 11.0303 9.05763 11.0991 8.9375ZM16.2415 7.26814L19.2414 8.24629C19.3953 8.29685 19.5 8.44078 19.5 8.60302V10.5597C19.5 13.1989 19.0781 14.1632 16.2832 15.4647C16.2334 15.4881 16.1792 15.4998 16.125 15.4998C16.0708 15.4998 16.0166 15.4881 15.9668 15.4647C13.1719 14.1632 12.75 13.1989 12.75 10.5596V8.60299C12.75 8.44074 12.8548 8.29685 13.0086 8.24629L16.0086 7.26814C16.0847 7.24395 16.1653 7.24395 16.2415 7.26814ZM16.125 13.8329C16.1836 13.8329 16.2422 13.8193 16.2964 13.7915C17.5737 13.1363 17.9399 12.6207 17.9992 11.3931C18.0044 11.2906 17.967 11.1906 17.8967 11.1163C17.8256 11.0419 17.7275 10.9998 17.625 10.9998H16.5V9.20244C16.5 9.08234 16.4421 8.96953 16.3454 8.89886C16.248 8.82894 16.1235 8.80914 16.0085 8.84578L14.5085 9.33505C14.3547 9.3856 14.25 9.5295 14.25 9.69174V11.3748C14.25 11.5821 14.4177 11.7499 14.625 11.7499H15.75V13.4579C15.75 13.5886 15.8181 13.7098 15.9294 13.7779C15.9895 13.8146 16.0569 13.8329 16.125 13.8329Z" fill="currentColor"/>
</svg>
