<svg width="24" height="24" viewBox="0 0 24 24" fill="none" xmlns="http://www.w3.org/2000/svg">
<path d="M11.7066 2.07215C11.6205 2.11517 11.4013 2.28332 11.2174 2.44757C10.1296 3.43695 8.92441 4.10175 7.51572 4.50063C6.71356 4.72744 5.50443 4.88778 4.61227 4.89169C4.05662 4.8956 3.86097 4.98163 3.69271 5.3023C3.61054 5.45481 3.61054 5.49783 3.61054 8.19614C3.60662 11.1604 3.61836 11.4028 3.84532 12.8302C4.55357 17.2805 6.9679 20.1704 11.37 21.8285C12.0235 22.0748 12.0157 22.0748 12.9509 21.7033C14.2187 21.2028 15.4357 20.5106 16.3709 19.7559C16.8796 19.3452 17.6896 18.5084 18.0848 17.9844C19.1452 16.5765 19.8143 14.9028 20.1587 12.7911C20.3778 11.438 20.3934 11.1526 20.3895 8.19614C20.3895 5.46655 20.3895 5.45872 20.3034 5.29448C20.2017 5.09895 20.0608 4.98163 19.8691 4.93471C19.7908 4.91515 19.4387 4.88778 19.0826 4.87605C16.5509 4.79001 14.4652 3.98834 12.7826 2.44757C12.2935 2.00176 12.0431 1.91573 11.7066 2.07215ZM15.3535 9.41234C15.6078 9.68217 15.8191 9.92071 15.827 9.93636C15.8348 9.95591 14.8409 10.9062 13.6239 12.0559C11.374 14.1715 11.2018 14.3162 10.924 14.3162C10.6422 14.3123 10.5248 14.2106 9.39788 12.9632C8.79919 12.2984 8.27876 11.7196 8.23963 11.6766C8.1692 11.5984 8.18093 11.5866 8.68571 11.1408C8.97136 10.8905 9.21397 10.6794 9.22962 10.6715C9.24527 10.6676 9.63657 11.0822 10.1022 11.5984C10.5679 12.1146 10.9709 12.5408 10.9944 12.5447C11.0218 12.5486 11.8944 11.7352 12.9392 10.738C13.9839 9.74083 14.8487 8.92351 14.8644 8.92351C14.8761 8.9196 15.0952 9.14251 15.3535 9.41234Z" fill="currentColor"/>
</svg>
