<svg width="24" height="24" viewBox="0 0 24 24" fill="none" xmlns="http://www.w3.org/2000/svg">
<path fill-rule="evenodd" clip-rule="evenodd" d="M12 16C14.2091 16 16 14.2091 16 12C16 9.79086 14.2091 8 12 8C9.79086 8 8 9.79086 8 12C8 14.2091 9.79086 16 12 16ZM12 14C13.1046 14 14 13.1046 14 12C14 10.8954 13.1046 10 12 10C10.8954 10 10 10.8954 10 12C10 13.1046 10.8954 14 12 14Z" fill="currentColor"/>
<mask id="path-2-inside-1_112_4656" fill="currentColor">
<path fill-rule="evenodd" clip-rule="evenodd" d="M10.1 3.5C10.1 2.94772 10.5477 2.5 11.1 2.5H12.9C13.4523 2.5 13.9 2.94772 13.9 3.5V4.63934C14.5974 4.81882 15.256 5.0948 15.8608 5.45219L16.6669 4.64606C17.0574 4.25554 17.6906 4.25554 18.0811 4.64606L19.3539 5.91886C19.7444 6.30938 19.7444 6.94254 19.3539 7.33307L18.5478 8.13921C18.9051 8.744 19.1811 9.4026 19.3606 10.0999H20.5C21.0523 10.0999 21.5 10.5477 21.5 11.0999V12.8999C21.5 13.4522 21.0523 13.8999 20.5 13.8999H19.3606C19.1811 14.5973 18.9051 15.2559 18.5477 15.8607L19.3539 16.6668C19.7444 17.0574 19.7444 17.6905 19.3539 18.0811L18.0811 19.3539C17.6906 19.7444 17.0574 19.7444 16.6669 19.3539L15.8607 18.5477C15.2559 18.905 14.5973 19.181 13.9 19.3605V20.5001C13.9 21.0524 13.4523 21.5001 12.9 21.5001H11.1C10.5477 21.5001 10.1 21.0524 10.1 20.5001V19.3605C9.40268 19.181 8.74411 18.9051 8.13934 18.5477L7.3331 19.3539C6.94257 19.7445 6.30941 19.7445 5.91888 19.3539L4.64609 18.0812C4.25556 17.6906 4.25556 17.0575 4.64609 16.6669L5.4523 15.8607C5.0949 15.2559 4.81892 14.5973 4.63943 13.8999H3.5C2.94772 13.8999 2.5 13.4522 2.5 12.8999L2.5 11.0999C2.5 10.5477 2.94772 10.0999 3.5 10.0999H4.63941C4.81889 9.40263 5.09483 8.74406 5.45217 8.13929L4.6461 7.33322C4.25558 6.9427 4.25557 6.30953 4.6461 5.91901L5.91889 4.64621C6.30942 4.25569 6.94258 4.25569 7.33311 4.64621L8.13913 5.45223C8.74395 5.09482 9.4026 4.81883 10.1 4.63934V3.5ZM12 18C15.3137 18 18 15.3137 18 12C18 8.68629 15.3137 6 12 6C8.68629 6 6 8.68629 6 12C6 15.3137 8.68629 18 12 18Z"/>
</mask>
<path d="M13.9 4.63934H11.9V6.18975L13.4015 6.57621L13.9 4.63934ZM15.8608 5.45219L14.8433 7.17404L16.1784 7.96297L17.275 6.8664L15.8608 5.45219ZM16.6669 4.64606L18.0811 6.06028L18.0811 6.06028L16.6669 4.64606ZM18.0811 4.64606L16.6669 6.06027L16.6669 6.06028L18.0811 4.64606ZM19.3539 5.91886L20.7681 4.50464V4.50464L19.3539 5.91886ZM19.3539 7.33307L20.7681 8.74728L19.3539 7.33307ZM18.5478 8.13921L17.1336 6.725L16.037 7.82155L16.8259 9.15665L18.5478 8.13921ZM19.3606 10.0999L17.4237 10.5984L17.8101 12.0999H19.3606V10.0999ZM19.3606 13.8999V11.8999H17.8101L17.4237 13.4014L19.3606 13.8999ZM18.5477 15.8607L16.8259 14.8432L16.037 16.1783L17.1335 17.2749L18.5477 15.8607ZM19.3539 16.6668L20.7681 15.2526L20.7681 15.2526L19.3539 16.6668ZM19.3539 18.0811L17.9397 16.6668L17.9397 16.6668L19.3539 18.0811ZM16.6669 19.3539L15.2527 20.7681L15.2527 20.7681L16.6669 19.3539ZM15.8607 18.5477L17.2749 17.1334L16.1784 16.0369L14.8433 16.8258L15.8607 18.5477ZM13.9 19.3605L13.4015 17.4236L11.9 17.8101V19.3605H13.9ZM10.1 19.3605H12.1V17.8101L10.5985 17.4236L10.1 19.3605ZM8.13934 18.5477L9.15677 16.8258L7.82167 16.0369L6.72512 17.1335L8.13934 18.5477ZM7.3331 19.3539L8.74731 20.7682L7.3331 19.3539ZM5.91888 19.3539L7.3331 17.9397L7.3331 17.9397L5.91888 19.3539ZM4.64609 18.0812L6.0603 16.6669H6.0603L4.64609 18.0812ZM4.64609 16.6669L3.23188 15.2527L3.23187 15.2527L4.64609 16.6669ZM5.4523 15.8607L6.86651 17.2749L7.96308 16.1784L7.17414 14.8433L5.4523 15.8607ZM4.63943 13.8999L6.5763 13.4014L6.18984 11.8999H4.63943V13.8999ZM2.5 12.8999H0.5H2.5ZM2.5 11.0999H4.5H2.5ZM4.63941 10.0999V12.0999H6.18984L6.57629 10.5984L4.63941 10.0999ZM5.45217 8.13929L7.17405 9.15671L7.96292 7.82162L6.86638 6.72508L5.45217 8.13929ZM4.6461 7.33322L3.23189 8.74743L3.23189 8.74743L4.6461 7.33322ZM4.6461 5.91901L3.23189 4.50479H3.23189L4.6461 5.91901ZM5.91889 4.64621L4.50468 3.232L4.50468 3.232L5.91889 4.64621ZM7.33311 4.64621L8.74732 3.232L8.74732 3.232L7.33311 4.64621ZM8.13913 5.45223L6.72491 6.86645L7.82149 7.96303L9.15661 7.17407L8.13913 5.45223ZM10.1 4.63934L10.5985 6.57621L12.1 6.18975V4.63934H10.1ZM11.1 0.5C9.44313 0.5 8.09999 1.84315 8.09999 3.5H12.1C12.1 4.05228 11.6523 4.5 11.1 4.5V0.5ZM12.9 0.5H11.1V4.5H12.9V0.5ZM15.9 3.5C15.9 1.84315 14.5568 0.5 12.9 0.5V4.5C12.3477 4.5 11.9 4.05228 11.9 3.5H15.9ZM15.9 4.63934V3.5H11.9V4.63934H15.9ZM16.8782 3.73034C16.1141 3.27878 15.2811 2.92961 14.3985 2.70246L13.4015 6.57621C13.9136 6.70803 14.3979 6.91082 14.8433 7.17404L16.8782 3.73034ZM15.2527 3.23185L14.4466 4.03797L17.275 6.8664L18.0811 6.06028L15.2527 3.23185ZM19.4953 3.23185C18.3238 2.06027 16.4243 2.06028 15.2527 3.23185L18.0811 6.06028C17.6906 6.4508 17.0574 6.4508 16.6669 6.06027L19.4953 3.23185ZM20.7681 4.50464L19.4953 3.23185L16.6669 6.06028L17.9397 7.33307L20.7681 4.50464ZM20.7681 8.74728C21.9397 7.57571 21.9397 5.67622 20.7681 4.50464L17.9397 7.33307C17.5492 6.94254 17.5492 6.30938 17.9397 5.91886L20.7681 8.74728ZM19.962 9.55343L20.7681 8.74728L17.9397 5.91886L17.1336 6.725L19.962 9.55343ZM21.2974 9.60143C21.0703 8.71892 20.7212 7.88592 20.2696 7.12178L16.8259 9.15665C17.0891 9.60208 17.2919 10.0863 17.4237 10.5984L21.2974 9.60143ZM20.5 8.09994H19.3606V12.0999H20.5V8.09994ZM23.5 11.0999C23.5 9.44308 22.1568 8.09994 20.5 8.09994V12.0999C19.9477 12.0999 19.5 11.6522 19.5 11.0999H23.5ZM23.5 12.8999V11.0999H19.5V12.8999H23.5ZM20.5 15.8999C22.1568 15.8999 23.5 14.5568 23.5 12.8999H19.5C19.5 12.3477 19.9477 11.8999 20.5 11.8999V15.8999ZM19.3606 15.8999H20.5V11.8999H19.3606V15.8999ZM20.2696 16.8781C20.7211 16.114 21.0703 15.281 21.2974 14.3985L17.4237 13.4014C17.2919 13.9136 17.0891 14.3978 16.8259 14.8432L20.2696 16.8781ZM17.1335 17.2749L17.9397 18.0811L20.7681 15.2526L19.9619 14.4464L17.1335 17.2749ZM17.9397 18.0811C17.5492 17.6905 17.5492 17.0574 17.9397 16.6668L20.7681 19.4953C21.9397 18.3237 21.9397 16.4242 20.7681 15.2526L17.9397 18.0811ZM17.9397 16.6668L16.6669 17.9396L19.4953 20.7681L20.7681 19.4953L17.9397 16.6668ZM16.6669 17.9396C17.0574 17.5491 17.6906 17.5491 18.0811 17.9396L15.2527 20.7681C16.4243 21.9396 18.3238 21.9396 19.4953 20.7681L16.6669 17.9396ZM18.0811 17.9396L17.2749 17.1334L14.4465 19.9619L15.2527 20.7681L18.0811 17.9396ZM14.3985 21.2973C15.281 21.0702 16.114 20.7211 16.8782 20.2695L14.8433 16.8258C14.3978 17.089 13.9136 17.2918 13.4015 17.4236L14.3985 21.2973ZM15.9 20.5001V19.3605H11.9V20.5001H15.9ZM12.9 23.5001C14.5568 23.5001 15.9 22.1569 15.9 20.5001H11.9C11.9 19.9478 12.3477 19.5001 12.9 19.5001V23.5001ZM11.1 23.5001H12.9V19.5001H11.1V23.5001ZM8.09999 20.5001C8.09999 22.1569 9.44314 23.5001 11.1 23.5001V19.5001C11.6523 19.5001 12.1 19.9478 12.1 20.5001H8.09999ZM8.09999 19.3605V20.5001H12.1V19.3605H8.09999ZM7.12191 20.2696C7.88603 20.7211 8.719 21.0702 9.60148 21.2973L10.5985 17.4236C10.0864 17.2918 9.60218 17.089 9.15677 16.8258L7.12191 20.2696ZM8.74731 20.7682L9.55355 19.9619L6.72512 17.1335L5.91888 17.9397L8.74731 20.7682ZM4.50467 20.7682C5.67624 21.9397 7.57574 21.9397 8.74731 20.7682L5.91888 17.9397C6.3094 17.5492 6.94257 17.5492 7.3331 17.9397L4.50467 20.7682ZM3.23188 19.4954L4.50467 20.7682L7.3331 17.9397L6.0603 16.6669L3.23188 19.4954ZM3.23187 15.2527C2.0603 16.4243 2.0603 18.3238 3.23188 19.4954L6.0603 16.6669C6.45083 17.0575 6.45082 17.6906 6.0603 18.0811L3.23187 15.2527ZM4.03808 14.4465L3.23188 15.2527L6.0603 18.0812L6.86651 17.2749L4.03808 14.4465ZM2.70256 14.3985C2.92971 15.281 3.27889 16.114 3.73045 16.8782L7.17414 14.8433C6.91092 14.3978 6.70813 13.9136 6.5763 13.4014L2.70256 14.3985ZM3.5 15.8999H4.63943V11.8999H3.5V15.8999ZM0.5 12.8999C0.5 14.5568 1.84315 15.8999 3.5 15.8999V11.8999C4.05228 11.8999 4.5 12.3477 4.5 12.8999H0.5ZM0.5 11.0999L0.5 12.8999H4.5V11.0999H0.5ZM3.5 8.09994C1.84315 8.09994 0.5 9.44308 0.5 11.0999H4.5C4.5 11.6522 4.05228 12.0999 3.5 12.0999V8.09994ZM4.63941 8.09994H3.5V12.0999H4.63941V8.09994ZM3.73029 7.12188C3.27879 7.88599 2.92967 8.71895 2.70254 9.60143L6.57629 10.5984C6.7081 10.0863 6.91086 9.60212 7.17405 9.15671L3.73029 7.12188ZM3.23189 8.74743L4.03796 9.55351L6.86638 6.72508L6.06031 5.91901L3.23189 8.74743ZM3.23189 4.50479C2.06031 5.67637 2.06031 7.57586 3.23189 8.74743L6.06031 5.91901C6.45084 6.30953 6.45084 6.94269 6.06031 7.33322L3.23189 4.50479ZM4.50468 3.232L3.23189 4.50479L6.06031 7.33322L7.33311 6.06043L4.50468 3.232ZM8.74732 3.232C7.57575 2.06043 5.67625 2.06043 4.50468 3.232L7.33311 6.06043C6.94258 6.45095 6.30942 6.45095 5.91889 6.06043L8.74732 3.232ZM9.55334 4.03802L8.74732 3.232L5.91889 6.06043L6.72491 6.86645L9.55334 4.03802ZM9.60147 2.70246C8.71889 2.92962 7.88584 3.27881 7.12164 3.73039L9.15661 7.17407C9.60207 6.91084 10.0863 6.70804 10.5985 6.57621L9.60147 2.70246ZM8.09999 3.5V4.63934H12.1V3.5H8.09999ZM16 12C16 14.2091 14.2091 16 12 16V20C16.4183 20 20 16.4183 20 12H16ZM12 8C14.2091 8 16 9.79086 16 12H20C20 7.58172 16.4183 4 12 4V8ZM8 12C8 9.79086 9.79086 8 12 8V4C7.58172 4 4 7.58172 4 12H8ZM12 16C9.79086 16 8 14.2091 8 12H4C4 16.4183 7.58172 20 12 20V16Z" fill="currentColor" mask="url(#path-2-inside-1_112_4656)"/>
</svg>
