<svg width="24" height="24" viewBox="0 0 24 24" fill="none" xmlns="http://www.w3.org/2000/svg">
<path fill-rule="evenodd" clip-rule="evenodd" d="M11.5139 4.99474C11.8479 3.75852 12.8201 2.83414 14.0781 2.55943C14.49 2.46662 15.1506 2.48518 15.5811 2.59655C16.7463 2.90097 17.6629 3.81792 17.9783 4.99474C18.0488 5.24719 18.0637 5.42167 18.0785 6.15301L18.0934 7.01799H19.574C20.9879 7.01799 21.0658 7.0217 21.2031 7.09224C21.2996 7.1405 21.3775 7.21846 21.4258 7.31498C21.5 7.45976 21.5 7.51916 21.5 13.7151C21.5 18.2071 21.4889 20.0261 21.4592 20.1672C21.359 20.6387 21.0361 21.0656 20.6168 21.2846C20.2234 21.4925 20.1084 21.5 18.2121 21.4888L16.4977 21.4777L16.6424 21.2401C16.7203 21.1102 16.8205 20.9097 16.865 20.7946C16.8855 20.7398 16.9037 20.6913 16.9198 20.6421C17.0469 20.2546 17.0469 19.8255 17.0469 15.9648C17.0469 13.0617 17.0357 11.8292 17.0061 11.6882C16.8687 11.0496 16.3529 10.5336 15.7184 10.4C15.5811 10.3703 14.3824 10.3591 11.7588 10.3591H7.99219V8.9113C7.99219 7.5303 7.9959 7.45234 8.06641 7.31498C8.11465 7.21846 8.19258 7.1405 8.28906 7.09224C8.42637 7.0217 8.5043 7.01799 9.91816 7.01799H11.3988L11.4137 6.15301C11.4285 5.42167 11.4434 5.24719 11.5139 4.99474ZM16.3047 4.27083C15.9855 3.94786 15.6998 3.78451 15.2805 3.67685C14.7572 3.54321 14.1857 3.61003 13.6959 3.8699C13.3916 4.03324 12.9426 4.48244 12.7867 4.77943C12.5715 5.18779 12.5195 5.48849 12.5195 6.3015V7.01799H14.7461H16.9727V6.3015C16.9727 5.70752 16.9615 5.53304 16.8984 5.29545C16.7908 4.87595 16.6275 4.5901 16.3047 4.27083ZM2.57422 11.7699C2.61875 11.6808 2.7041 11.5954 2.78945 11.5508C2.92293 11.4767 3.02678 11.4766 9.1938 11.4729L9.20937 11.4729C15.4326 11.4729 15.492 11.4729 15.6367 11.5471C15.7332 11.5954 15.8111 11.6734 15.8594 11.7699C15.9336 11.9147 15.9336 11.9815 15.9336 15.9426C15.9336 18.7491 15.9225 20.0299 15.8928 20.1673C15.7592 20.7946 15.2359 21.3218 14.6051 21.4555C14.323 21.5148 4.10312 21.5148 3.82852 21.4555C3.19023 21.3181 2.67812 20.8058 2.54082 20.1673C2.51113 20.0262 2.5 18.8048 2.5 15.9426C2.5 11.9815 2.5 11.9147 2.57422 11.7699ZM6.95312 14.6024C6.95312 14.053 6.89746 13.8971 6.65625 13.7746C6.46328 13.6743 6.3 13.6817 6.11445 13.7931C5.86211 13.9453 5.825 14.0715 5.85098 14.7658C5.86582 15.1927 5.8918 15.434 5.94746 15.6493C6.26289 16.8447 7.20547 17.7654 8.42637 18.0698C8.80859 18.1663 9.625 18.1552 10.0146 18.0475C11.191 17.7319 12.1002 16.8187 12.4119 15.6493C12.4713 15.4303 12.4936 15.1964 12.5084 14.7583C12.527 14.2015 12.5232 14.1495 12.449 14.0047C12.36 13.8302 12.1521 13.7003 11.9592 13.7003C11.7885 13.7003 11.5584 13.8451 11.4768 14.0047C11.4174 14.1198 11.4062 14.2238 11.4062 14.6024C11.4062 15.4117 11.2281 15.8869 10.7383 16.3732C10.4191 16.6962 10.1334 16.8595 9.71406 16.9672C9.35039 17.06 9.00898 17.06 8.64531 16.9672C8.22598 16.8595 7.94023 16.6962 7.62109 16.3732C7.13125 15.8869 6.95312 15.4117 6.95312 14.6024Z" fill="currentColor"/>
</svg>
