<svg width="24" height="24" viewBox="0 0 24 24" fill="none" xmlns="http://www.w3.org/2000/svg">
<path fill-rule="evenodd" clip-rule="evenodd" d="M13.9244 11.7997C13.1573 13.2474 12.7045 14.9641 12.6992 16.7858V17.881H8.56956C8.57875 16.0744 8.98102 14.3636 9.69434 12.8274L9.66284 12.9022C10.4647 11.1453 11.4449 9.63088 12.6112 8.28236H6.48735V5.07996H17.2495V6.77762C16.0355 8.24495 14.9324 9.89077 14.0012 11.6416L13.9244 11.7997ZM19.6992 15.3525C19.0666 16.1485 18.6066 17.1106 18.394 18.1618L18.3868 18.2045L18.2555 18.8607L14.6246 18.196C15.0196 16.2174 16.0683 14.5316 17.5323 13.334L17.5474 13.3222L14.9225 12.8057L16.025 10.4781L22.5 11.7557L22.2985 12.7709C21.3404 13.5558 20.4893 14.4017 19.7248 15.3217L19.6999 15.3525H19.6992ZM6.70849 15.8205C6.70849 15.2634 6.77805 14.722 6.8988 14.2502L6.92505 14.1294C7.23413 12.9259 7.6679 11.7729 8.16729 10.7853L7.92252 9.77927L1.5 11.3194V13.8741L4.12253 13.2533C3.56794 14.3649 3.25607 15.6197 3.25607 16.9466C3.25607 17.6481 3.34335 18.3293 3.49494 18.9225L7.05629 18.0478L6.8988 17.3915L6.90864 17.4368C6.77805 16.9197 6.70849 16.3777 6.70849 15.8205Z" fill="currentColor"/>
</svg>
