<svg width="24" height="24" viewBox="0 0 24 24" fill="none" xmlns="http://www.w3.org/2000/svg">
<path fill-rule="evenodd" clip-rule="evenodd" d="M12.5896 5.22096V7.0718L12.8161 7.09913C13.8469 7.22408 14.9793 7.68484 15.8071 8.32131L16.0336 8.49702L17.3417 7.18894L18.6497 5.88086L18.3647 5.63876C17.8688 5.22486 17.0488 4.70163 16.3967 4.38144C15.2448 3.81916 14.1984 3.53021 12.8161 3.39355L12.5896 3.37012V5.22096ZM10.9496 3.41307C9.53222 3.55754 7.98985 4.08468 6.76377 4.8422C6.40063 5.06867 5.76416 5.52943 5.51035 5.75591L5.36197 5.88867L6.66615 7.19284L7.97033 8.49312L8.25928 8.28226C8.55994 8.05969 8.89966 7.84884 9.1847 7.70827C9.71574 7.43884 10.6255 7.16161 11.1761 7.09913L11.4182 7.0718V5.22096C11.4182 3.48335 11.4143 3.37012 11.3518 3.37402L11.3178 3.37754L11.3178 3.37754C11.2479 3.38484 11.1001 3.40026 10.9496 3.41307ZM2.60133 9.93386C2.95666 8.96159 3.62437 7.79798 4.25693 7.03656L4.51855 6.72028L5.82663 8.02836L7.13081 9.33253L6.877 9.67615C6.30301 10.4532 5.88911 11.4684 5.75244 12.4251L5.70168 12.7804H3.85084H2L2.02733 12.5149C2.11714 11.6129 2.31628 10.7031 2.60133 9.93386ZM18.1773 8.03226L16.877 9.33253L17.1308 9.67615C17.7009 10.4493 18.1226 11.4762 18.2593 12.4368L18.3061 12.7804H20.1531C21.6095 12.7804 22 12.7687 22 12.7296C22 12.5344 21.8633 11.5895 21.7813 11.2224C21.4572 9.75034 20.6841 8.15331 19.7548 7.04046L19.6773 6.94822L19.6772 6.94816L19.6769 6.94778C19.5703 6.82086 19.4924 6.72809 19.4893 6.72809C19.4854 6.72809 18.8958 7.31379 18.1773 8.03226ZM10.3639 14.2056C9.82506 13.0888 10.442 11.8393 11.672 11.5699C11.9024 11.5191 12.3397 11.5542 12.6208 11.6519C13.105 11.8159 13.4369 12.1478 14.3077 13.3465C15.0379 14.3539 17.3065 17.7784 17.4158 18.04C17.5759 18.4227 17.3026 18.8326 16.8848 18.8326C16.713 18.8326 16.6349 18.7897 15.8657 18.2977C15.4049 18.0048 14.499 17.4074 13.8469 16.9701C11.3713 15.3106 10.6021 14.7015 10.3639 14.2056ZM2.02733 14.2134C2.25771 16.5758 3.17142 18.6023 4.73721 20.2462C5.07302 20.6015 5.2253 20.6718 5.49082 20.5937C5.63139 20.5508 5.81492 20.3868 6.6271 19.5824C7.91175 18.3017 7.91566 18.2978 7.33776 17.6379C6.42796 16.5992 5.87739 15.4122 5.73292 14.1744L5.70558 13.9518H3.85474H2L2.02733 14.2134ZM17.7946 15.9118C18.025 15.4042 18.2085 14.7404 18.2749 14.1742L18.3022 13.9516H20.1492C21.6095 13.9516 22 13.9634 22 14.0024C22 14.1625 21.8751 15.084 21.8048 15.4081C21.4416 17.1848 20.5592 18.8794 19.3253 20.1875C18.7786 20.7693 18.5873 20.7732 18.0094 20.207C17.8181 20.0235 17.6658 19.8634 17.6658 19.8478C17.6658 19.8361 17.7282 19.7931 17.8024 19.7541C17.9821 19.6565 18.3374 19.2816 18.4428 19.0747C18.6693 18.6334 18.6966 18.079 18.5131 17.6299C18.4623 17.4971 18.2476 17.1262 18.0367 16.8021L17.658 16.2125L17.7946 15.9118Z" fill="currentColor"/>
</svg>
