<svg width="24" height="24" viewBox="0 0 24 24" fill="none" xmlns="http://www.w3.org/2000/svg">
<path fill-rule="evenodd" clip-rule="evenodd" d="M19.079 4.92475C20.9533 6.80155 21.9274 9.23801 22 11.6983C19.8503 11.4216 17.544 10.2822 15.6322 8.37035C13.719 6.45724 12.5784 4.14849 12.3017 2C14.762 2.07512 17.2022 3.04545 19.079 4.92475ZM4.9235 19.0778C3.0467 17.201 2.07262 14.7632 2 12.3042C4.14724 12.5834 6.45724 13.7228 8.3666 15.6347C10.2797 17.5478 11.4203 19.854 11.697 22C9.23676 21.9286 6.79905 20.9533 4.9235 19.0778ZM4.92317 4.92583C6.64096 3.21054 8.82451 2.24647 11.0606 2.03738V2.03864C11.3474 4.49513 12.6044 7.10938 14.7479 9.25411C16.8926 11.3988 19.5081 12.6546 21.9596 12.9388C21.7518 15.1787 20.7902 17.3635 19.0749 19.0788C17.3571 20.7929 15.1786 21.7557 12.9349 21.9635C12.652 19.5083 11.3949 16.8953 9.24895 14.7493C7.10547 12.6046 4.49372 11.35 2.03723 11.0646C2.24382 8.82341 3.20788 6.64111 4.92317 4.92583Z" fill="currentColor"/>
</svg>
