<svg width="24" height="24" viewBox="0 0 24 24" fill="none" xmlns="http://www.w3.org/2000/svg">
<path fill-rule="evenodd" clip-rule="evenodd" d="M15.7565 6.82704C16.8121 6.82704 17.6679 5.97131 17.6679 4.91572C17.6679 3.86012 16.8121 3.00439 15.7565 3.00439C14.7009 3.00439 13.8452 3.86012 13.8452 4.91572C13.8452 5.97131 14.7009 6.82704 15.7565 6.82704ZM10.9399 19.8458C10.9513 19.8443 10.9623 19.84 10.9717 19.8333C10.9812 19.8267 10.9889 19.8178 10.9942 19.8075C10.9994 19.7972 11.0021 19.7858 11.002 19.7742C11.0019 19.7626 10.999 19.7512 10.9935 19.741C10.7823 19.3339 10.7371 18.9966 10.8581 18.7292C11.3538 17.6508 11.824 16.627 12.2686 15.6578C12.3044 15.5811 12.2831 15.5257 12.2047 15.4917L10.5847 14.7915C10.5148 14.7609 10.4586 14.777 10.416 14.8401L8.33351 18.006C8.25283 18.1282 8.13744 18.2234 8.00219 18.2794C7.86694 18.3354 7.71802 18.3497 7.5746 18.3203L3.68041 17.5282C3.23409 17.4379 3.0416 17.1671 3.10292 16.7156L3.12337 16.5572C3.14307 16.4117 3.21656 16.2788 3.32922 16.1851C3.44188 16.0914 3.58548 16.0436 3.73151 16.0513L7.18876 16.2276C7.20955 16.2291 7.23019 16.2226 7.2467 16.2094C7.26321 16.1962 7.27443 16.1772 7.2782 16.156C7.31583 15.9244 7.34861 15.6283 7.38492 15.3003L7.38492 15.3003C7.50885 14.1807 7.67389 12.6896 8.21342 12.1264C9.45356 10.8352 10.7048 9.55327 11.9671 8.28076C13.0837 7.15901 14.0624 7.57551 15.2225 8.4494C16.9413 9.74066 18.6823 11.0532 20.4454 12.387C20.861 12.7005 20.8977 13.0531 20.5553 13.4449L20.4479 13.5676C20.3521 13.6768 20.2205 13.7485 20.0765 13.77C19.9325 13.7916 19.7853 13.7615 19.6609 13.6851L15.041 10.8462C14.9542 10.7934 14.8741 10.8028 14.8008 10.8743L12.8052 12.8649C12.7319 12.9381 12.7311 13.0122 12.8026 13.0872L14.4048 14.7506C14.5178 14.8682 14.5891 15.0197 14.6076 15.1818C14.626 15.3439 14.5907 15.5075 14.507 15.6475L12.5088 18.9719C12.4628 19.0486 12.4756 19.1124 12.5471 19.1636C13.6024 19.9199 13.8835 20.1039 14.9669 19.23C15.0845 19.1353 15.2312 19.084 15.3825 19.085C15.5338 19.0859 15.6803 19.1389 15.7974 19.2351C16.7888 20.0528 17.0162 19.9506 17.9821 19.2223C18.1049 19.1299 18.2556 19.0825 18.4092 19.0881C18.5627 19.0937 18.7097 19.1519 18.8254 19.253C19.2572 19.6261 19.873 20.0732 20.476 19.6618C20.5474 19.6135 20.6208 19.5586 20.6959 19.5024C20.9621 19.3033 21.2497 19.088 21.5467 19.092C22.1395 19.0997 22.5254 19.8356 22.0961 20.3134C21.0638 21.4701 19.873 21.683 18.5238 20.9522C18.4455 20.9096 18.3671 20.9088 18.2888 20.9497C17.2692 21.4812 16.4771 21.5961 15.478 20.9113C15.4462 20.8902 15.4088 20.879 15.3707 20.879C15.3325 20.879 15.2952 20.8902 15.2633 20.9113C14.3332 21.5399 13.3895 21.5502 12.4321 20.942C12.347 20.8875 12.2618 20.8875 12.1766 20.942C11.2295 21.5536 10.2857 21.5425 9.34539 20.9088C9.31361 20.8878 9.27635 20.8768 9.23851 20.8773C9.20066 20.8777 9.16399 20.8896 9.13331 20.9113C8.21853 21.5297 7.28757 21.5485 6.34042 20.9676C6.25525 20.9147 6.16752 20.9122 6.07723 20.9599C4.67184 21.7009 3.45299 21.4471 2.42067 20.1984C2.23499 19.9736 2.23158 19.7444 2.41045 19.5111L2.50755 19.3859C2.62154 19.2372 2.78945 19.1394 2.97498 19.1136C3.16051 19.0878 3.34874 19.136 3.49899 19.2479C4.60602 20.0684 4.8089 19.911 5.58024 19.3126C5.62076 19.2811 5.66285 19.2485 5.70672 19.2147C5.81421 19.1317 5.94548 19.0852 6.08148 19.082C6.21748 19.0788 6.35114 19.119 6.46307 19.1968C7.5005 19.9276 7.77391 20.0937 8.82923 19.2325C8.94328 19.1397 9.08539 19.0881 9.23246 19.0863C9.37952 19.0844 9.52289 19.1324 9.63925 19.2223C9.67116 19.247 9.70433 19.2732 9.73864 19.3002L9.73869 19.3003C10.0698 19.5613 10.5069 19.906 10.9399 19.8458ZM22.2673 10.2054C22.2673 11.0493 21.5831 11.7334 20.7392 11.7334C19.8953 11.7334 19.2112 11.0493 19.2112 10.2054C19.2112 9.36147 19.8953 8.67734 20.7392 8.67734C21.5831 8.67734 22.2673 9.36147 22.2673 10.2054Z" fill="currentColor"/>
</svg>
