<svg width="24" height="24" viewBox="0 0 24 24" fill="none" xmlns="http://www.w3.org/2000/svg">
<path fill-rule="evenodd" clip-rule="evenodd" d="M7.42374 15.7789C7.42374 15.7789 3.95568 10.981 8.02348 7.6172C12.0913 4.25344 15.8723 7.33037 15.8723 7.33037L18.0105 5.19216C18.0105 5.19216 12.326 0.368163 6.56324 4.56635C1.87015 7.9853 2.83223 12.5457 3.39332 15.2053C3.5212 15.8114 3.62825 16.3189 3.64277 16.6915C3.72099 18.6994 2 21.0983 2 21.0983L7.42374 15.7789ZM16.5762 8.16943C16.5762 8.16943 20.0443 12.9674 15.9765 16.3311C11.9087 19.6949 8.12769 16.6179 8.12769 16.6179L5.98949 18.7562C5.98949 18.7562 11.674 23.5802 17.4367 19.382C22.1298 15.963 21.1677 11.4027 20.6066 8.74306C20.4788 8.13689 20.3717 7.62946 20.3572 7.25678C20.279 5.24896 21.9999 2.85 21.9999 2.85L16.5762 8.16943ZM12.1956 13.3324C12.1956 13.3324 13.369 13.0977 13.369 11.9504C13.369 10.8031 12.1956 10.5945 12.1956 10.5945V6.88069C12.2059 6.99776 12.2714 7.26154 12.6128 7.62185C12.7174 7.73226 12.9514 7.83619 13.2515 7.96943C14.2981 8.43408 16.1475 9.25518 16.1069 11.9504C16.0548 15.4185 12.1956 16.0704 12.1956 16.0704V13.3324ZM12.1956 6.8135C12.1956 6.8135 12.1917 6.83678 12.1956 6.88069V6.8135ZM10.632 12.0808C10.632 10.9335 11.8054 10.6988 11.8054 10.6988V7.96086C11.8054 7.96086 7.94621 8.61275 7.89406 12.0808C7.85353 14.776 9.70289 15.5971 10.7494 16.0618C11.0495 16.195 11.2836 16.299 11.3882 16.4094C11.7296 16.7697 11.7951 17.0335 11.8054 17.1505V17.2177C11.8054 17.2177 11.8093 17.1945 11.8054 17.1505V13.4368C11.8054 13.4368 10.632 13.2281 10.632 12.0808Z" fill="currentColor"/>
</svg>
