<svg width="24" height="24" viewBox="0 0 24 24" fill="none" xmlns="http://www.w3.org/2000/svg">
<path fill-rule="evenodd" clip-rule="evenodd" d="M10.5935 4.50003H6.41852C6.41602 4.49315 6.41477 4.48596 6.41352 4.47878L6.41352 4.47877C6.41227 4.47158 6.41102 4.4644 6.40852 4.45753L6.20852 3.85503C7.89602 2.64378 9.92227 1.99503 11.9998 2.00003C12.5985 2.00003 13.196 2.05628 13.786 2.16503V2.82753L10.8523 4.29378C10.7523 4.34378 10.6648 4.41503 10.5935 4.50003ZM10.4576 5.2999L11.5664 8.25865H11.5676C11.6126 8.3699 11.6814 8.47115 11.7714 8.5524L9.63513 12.9911C9.60763 12.9824 9.57888 12.9761 9.55138 12.9724L5.72638 12.5899C5.66763 12.5836 5.60888 12.5849 5.55138 12.5924L4.20138 8.5424L4.23138 8.51365C4.26138 8.4824 4.28638 8.4474 4.30763 8.4099L6.30763 5.21365H10.4326C10.4401 5.24365 10.4476 5.2724 10.4576 5.2999ZM3.68004 8.05635C3.68629 8.0476 3.69254 8.0401 3.70129 8.0326L5.72629 4.79135L5.73254 4.7826C5.74629 4.76135 5.75004 4.7326 5.74129 4.70885L5.61004 4.31635C5.59172 4.33223 5.5725 4.34751 5.55312 4.36292L5.55311 4.36292L5.55311 4.36293C5.53282 4.37906 5.51235 4.39534 5.49254 4.4126C5.42754 4.4676 5.36379 4.5251 5.30004 4.5826C5.18504 4.68635 5.07254 4.7926 4.96254 4.90135C4.94292 4.92097 4.9233 4.9403 4.90373 4.9596L4.90372 4.95961L4.90371 4.95962L4.9037 4.95963L4.90369 4.95964C4.86466 4.99811 4.82582 5.0364 4.78754 5.07635C4.66754 5.20135 4.55004 5.33135 4.43629 5.46385C4.41949 5.48344 4.40194 5.50279 4.38432 5.52222L4.38431 5.52222L4.38431 5.52223L4.3843 5.52223C4.36258 5.54618 4.34074 5.57026 4.32004 5.5951C4.17129 5.7726 4.03004 5.9551 3.89504 6.14135C3.8745 6.169 3.85596 6.19665 3.8372 6.22461C3.82628 6.2409 3.81529 6.25729 3.80379 6.27385C3.70129 6.4201 3.60254 6.56885 3.50754 6.7201L3.38504 6.92635C3.30629 7.0601 3.23129 7.19385 3.16004 7.33135L3.04379 7.55635C2.97254 7.69885 2.90629 7.84385 2.84379 7.9901L2.83288 8.01407C2.80531 8.07458 2.77809 8.13435 2.75379 8.1951L2.72754 8.2651L3.63379 8.08385C3.65254 8.08135 3.66879 8.07135 3.68004 8.05635ZM12.1713 17.0001H16.7713L18.7463 13.4351L16.6138 9.1701H16.6C16.575 9.1701 16.55 9.1701 16.5263 9.1676L12.445 8.79635L10.2075 13.4426L12.1213 16.8863C12.1413 16.9238 12.1588 16.9613 12.1713 17.0001ZM17.7 4.31885C17.7102 4.32392 17.7199 4.33025 17.7297 4.33662C17.7368 4.34124 17.7439 4.34589 17.7513 4.3501L18.2325 4.18885C17.135 3.3076 15.8625 2.67135 14.5 2.32135V2.73385L14.5 2.73385C14.5375 2.74635 14.575 2.75885 14.6125 2.7751L17.7 4.31885ZM11.125 5.0501L12.235 8.0076C12.2475 8.04135 12.2788 8.0651 12.3138 8.0676L16.5913 8.45635C16.6388 8.46135 16.6813 8.4301 16.6913 8.38385L17.4288 5.06135C17.4388 5.01885 17.4188 4.97635 17.3788 4.9576L14.295 3.4126C14.2675 3.4001 14.2375 3.4001 14.2113 3.4126L11.1738 4.9326C11.13 4.95385 11.1113 5.00385 11.1275 5.0476L11.125 5.0501ZM19.3827 13.7625C19.3977 13.7337 19.4252 13.715 19.4565 13.7125L19.4915 13.7087H21.8477L21.8252 13.8387L21.7827 14.0575L21.7227 14.32L21.6702 14.5337C21.6477 14.6212 21.6227 14.7087 21.5977 14.7962L21.5977 14.7962L21.5977 14.7962L21.5977 14.7962C21.5894 14.8231 21.5815 14.8501 21.5736 14.877C21.5613 14.9192 21.5489 14.9613 21.5352 15.0025C21.5077 15.0925 21.4777 15.18 21.4465 15.2675L21.4373 15.2942L21.4258 15.328L21.4258 15.3282L21.4258 15.3283C21.4104 15.3736 21.395 15.4193 21.3777 15.465C21.344 15.5562 21.3077 15.6475 21.2702 15.74C21.2609 15.7625 21.2518 15.7853 21.2427 15.8083L21.2427 15.8083L21.2427 15.8083C21.2285 15.8441 21.2142 15.88 21.199 15.915C21.154 16.0212 21.1052 16.1262 21.0565 16.23C21.0437 16.2555 21.0323 16.2809 21.021 16.3064L21.0209 16.3065C21.0133 16.3235 21.0057 16.3405 20.9977 16.3575C20.9265 16.5025 20.8527 16.6475 20.7752 16.79L20.7315 16.865C20.6665 16.9812 20.6002 17.0975 20.5302 17.2112C20.5113 17.2431 20.4906 17.2743 20.4698 17.3057L20.4625 17.3168L20.4415 17.3487C20.3852 17.4387 20.3265 17.53 20.2665 17.62L20.159 17.7712L20.1265 17.8169L20.1265 17.817C20.0788 17.8842 20.0314 17.9511 19.9815 18.0162L19.8615 18.17C19.8015 18.2475 19.7402 18.3237 19.6777 18.3987L19.5465 18.5512C19.484 18.6237 19.4202 18.6962 19.3552 18.7662L19.2152 18.915C19.149 18.985 19.0827 19.0525 19.0152 19.12L18.8652 19.2637C18.7965 19.3287 18.7265 19.3925 18.6552 19.4562L18.499 19.5937C18.4265 19.655 18.354 19.715 18.279 19.775L18.1152 19.9062L18.0527 19.9525L17.359 17.5262L17.3477 17.4912C17.3415 17.4675 17.3415 17.4412 17.354 17.4187L19.3665 13.79L19.3827 13.7625ZM4.84125 13.3042C4.85375 13.2004 4.885 13.0992 4.935 13.0079L3.5425 8.83042L2.4525 9.04792C2.1525 10.0042 2 11.0004 2 12.0004C1.99875 13.5879 2.37625 15.1529 3.10375 16.5642C3.17875 16.7142 3.255 16.8542 3.34 16.9942L3.37125 17.0442L4.47125 16.6292L4.84125 13.3042ZM19.3825 5.26292C19.245 5.10667 19.11 4.96667 18.965 4.83042C18.9475 4.81355 18.9294 4.79762 18.9113 4.78168L18.9112 4.78163C18.8931 4.76571 18.875 4.74978 18.8575 4.73292L18.1412 4.97292C18.1487 5.05417 18.1437 5.13542 18.1262 5.21667L17.3887 8.53917C17.3637 8.64792 17.315 8.75167 17.2475 8.83917L19.3337 13.0117C19.3396 13.0111 19.3454 13.0094 19.3515 13.0077C19.3584 13.0057 19.3657 13.0036 19.3737 13.0029C19.4062 12.9967 19.4387 12.9942 19.4712 12.9942H21.9075C21.9137 12.9942 21.9197 12.9951 21.9256 12.996C21.9316 12.997 21.9375 12.9979 21.9437 12.9979C21.98 12.6667 21.9987 12.3342 22 12.0004C22.0037 9.50542 21.07 7.10042 19.3825 5.26292ZM16.6687 17.7142H12.0937C12.0437 17.7967 11.9775 17.8679 11.9 17.9267L8.90375 20.1729C8.86625 20.2004 8.8275 20.2242 8.78625 20.2454V21.4654L8.83458 21.4824L8.83461 21.4824C8.92194 21.5131 9.00865 21.5436 9.09625 21.5679C11.9162 22.4279 14.9725 21.9929 17.4412 20.3804C17.4275 20.3504 17.4162 20.3192 17.4062 20.2892L16.6687 17.7142ZM11.4975 17.2342L9.55 13.7304C9.535 13.7042 9.5075 13.6867 9.47625 13.6829L5.65125 13.3004H5.6425C5.595 13.3004 5.555 13.3367 5.55 13.3829L5.175 16.7592C5.17125 16.7892 5.1825 16.8192 5.20625 16.8404L8.35625 19.5967C8.39 19.6254 8.43875 19.6279 8.47375 19.6017L11.47 17.3542C11.5075 17.3267 11.5187 17.2754 11.495 17.2342H11.4975ZM4.68016 17.3139C4.69766 17.3364 4.71641 17.3576 4.73766 17.3776L7.88766 20.1339C7.94391 20.1814 8.00516 20.2201 8.07141 20.2514V21.1864C6.33016 20.4426 4.83641 19.2189 3.76391 17.6589L4.68016 17.3139Z" fill="currentColor"/>
</svg>
