<svg width="24" height="24" viewBox="0 0 24 24" fill="none" xmlns="http://www.w3.org/2000/svg">
<path fill-rule="evenodd" clip-rule="evenodd" d="M10.2915 8.78593C8.23316 8.78593 6.56447 7.11724 6.56447 5.05891C6.56447 4.21051 6.85111 3.43089 7.32885 2.80441C6.07115 1.81743 3.83189 1.69274 2.83746 2.68718C1.77255 3.75209 1.99041 6.24478 3.17628 7.43065C3.68044 7.93481 6.51162 10.3374 9.59996 12.9331C10.0076 11.6811 10.6486 10.455 11.643 9.46018C11.9083 9.19488 12.1906 8.95635 12.485 8.73883L12.3673 8.59906C12.2843 8.50045 12.2019 8.40247 12.1194 8.3048C11.5793 8.60974 10.9563 8.78593 10.2915 8.78593ZM20.6255 18.1036L20.4561 18.273L19.8418 17.5347C19.8324 17.5445 19.8232 17.5545 19.8141 17.5645L19.814 17.5645C19.8034 17.576 19.7929 17.5875 19.7818 17.5988C19.0307 18.3499 18.1477 18.8981 17.2146 19.3C17.9671 19.9268 18.4232 20.3059 18.4232 20.3059L18.2538 20.4753C17.9732 20.7559 17.9732 21.2113 18.2538 21.4918C18.5343 21.7723 18.9897 21.7723 19.2702 21.4918L21.642 19.1201C21.9225 18.8395 21.9225 18.3841 21.642 18.1036C21.3614 17.8231 20.906 17.8231 20.6255 18.1036ZM12.1225 9.93928C15.427 6.63478 21.6961 7.54587 21.6961 7.54587C21.6961 7.54587 22.6076 13.815 19.3027 17.1195C15.9982 20.424 9.72903 19.513 9.72903 19.513C9.72903 19.513 8.81795 13.2438 12.1225 9.93928ZM17.7455 11.9756L18.5224 12.7525L19.0015 12.2734L18.2246 11.4965L18.6627 11.0584L18.1836 10.5793L17.7455 11.0174L16.9686 10.2405L16.4895 10.7196L17.2664 11.4965L16.729 12.0339L15.9521 11.257L15.473 11.736L16.2499 12.513L15.7126 13.0503L14.9357 12.2734L14.4566 12.7525L15.2335 13.5294L14.6961 14.0668L13.9192 13.2899L13.4401 13.769L14.217 14.5459L13.6797 15.0832L12.9028 14.3063L12.4237 14.7854L13.2006 15.5623L12.7625 16.0004L13.2416 16.4795L13.6797 16.0414L14.4566 16.8183L14.9357 16.3392L14.1588 15.5623L14.6961 15.025L15.473 15.8019L15.9521 15.3228L15.1752 14.5459L15.7126 14.0085L16.4895 14.7854L16.9686 14.3063L16.1917 13.5294L16.729 12.992L17.506 13.769L17.985 13.2899L17.2081 12.513L17.7455 11.9756ZM6.90332 14.2072H4.19276V12.8519C4.19276 12.1034 4.79959 11.4966 5.54804 11.4966C6.29649 11.4966 6.90332 12.1034 6.90332 12.8519V14.2072ZM5.2092 14.9107V21.8643L4.17648 21.4513L5.2092 14.9107ZM7.60809 21.4687L8.93626 22L6.90335 14.8848H6.56893L7.60809 21.4687ZM5.88686 21.8643V14.9107L6.91958 21.4513L5.88686 21.8643ZM4.52718 14.8848H4.19276L2.15985 22L3.48802 21.4687L4.52718 14.8848ZM12.298 2.76946L12.2994 2.76777C12.9367 3.32682 13.3409 4.14473 13.3409 5.05886C13.3409 5.973 12.9367 6.79091 12.2994 7.34996L12.298 7.34827C11.8904 6.83597 11.6468 5.98011 11.6468 5.05886C11.6468 4.13761 11.8904 3.28176 12.298 2.76946ZM8.28367 7.34996L8.28502 7.34827C8.69262 6.83597 8.93623 5.98011 8.93623 5.05886C8.93623 4.13761 8.69262 3.28176 8.28502 2.76946L8.28367 2.76777C7.64635 3.32682 7.24214 4.14473 7.24214 5.05886C7.24214 5.973 7.64635 6.79091 8.28367 7.34996ZM11.7464 2.37863C11.2599 3.00884 10.9692 4.00598 10.9692 5.05903C10.9692 6.11208 11.2599 7.10923 11.7464 7.73943C11.3141 7.97491 10.8184 8.10841 10.2915 8.10841C9.76466 8.10841 9.26897 7.97491 8.83664 7.73943C9.32318 7.10923 9.61389 6.11208 9.61389 5.05903C9.61389 4.00598 9.32318 3.00884 8.83664 2.37863C9.26897 2.14315 9.76466 2.00966 10.2915 2.00966C10.8184 2.00966 11.3141 2.14315 11.7464 2.37863Z" fill="currentColor"/>
</svg>
