<svg width="24" height="24" viewBox="0 0 24 24" fill="none" xmlns="http://www.w3.org/2000/svg">
<path d="M18.8478 15H18.952V14.5178H18.9538L19.127 15H19.2171L19.3903 14.5178H19.3921V15H19.4963V14.3752H19.344L19.1759 14.8644H19.1742L19.0019 14.3752H18.8478V15ZM18.2712 14.4697H18.469V15H18.5783V14.4697H18.777V14.3752H18.2712V14.4697ZM17 15L22 10H18.9906L13.9907 15H17ZM16.2831 12.1775H10.2303C8.38562 12.1775 8.06281 12.2753 7.27271 13.0654C6.53375 13.8044 5.33344 15 5.33344 15H7.95542L8.58094 14.3745C8.99219 13.9632 9.20427 13.9206 10.0678 13.9206H14.5401L16.2831 12.1775ZM7.19198 12.7089C6.64625 13.2237 5.45885 14.3772 4.81885 15H2C2 15 4.25875 12.7478 5.51417 11.5121C6.8076 10.2808 7.4524 10 9.82479 10H18.4607L16.5908 11.8698H10.0002C8.33323 11.8698 7.95865 11.9853 7.19198 12.7089Z" fill="currentColor"/>
</svg>
