<svg width="24" height="24" viewBox="0 0 24 24" fill="none" xmlns="http://www.w3.org/2000/svg">
<path fill-rule="evenodd" clip-rule="evenodd" d="M11.8067 6.11978H7.16711C6.93044 5.14793 6.35217 4.46329 5.43006 4.06698C5.17887 3.95789 5.08398 3.70853 5.08398 3.51816C5.08398 3.32669 5.23581 3.15303 5.52606 3.02834C5.77836 2.91925 6.3064 2.73334 7.10794 2.4695L8.44533 2.05427C8.7434 1.98191 8.99458 1.98191 9.19888 2.05427C9.40205 2.12663 10.1321 2.48732 11.3881 3.1341C11.6671 3.32446 11.8067 3.58718 11.8067 3.92226V6.12089V6.11978Z" fill="currentColor"/>
<path fill-rule="evenodd" clip-rule="evenodd" d="M12.6186 6.11978H17.2571C17.4949 5.14793 18.0731 4.46329 18.9941 4.06698C19.2453 3.95789 19.3402 3.70853 19.3402 3.51816C19.3402 3.32669 19.1884 3.15303 18.8981 3.02834C18.6458 2.91925 18.1189 2.73334 17.3163 2.4695L15.9789 2.05427C15.6819 1.98191 15.4307 1.98191 15.2264 2.05427C15.0221 2.12663 14.292 2.48732 13.0361 3.1341C12.7571 3.32446 12.6186 3.58718 12.6186 3.92226V6.12089V6.11978Z" fill="currentColor"/>
<path fill-rule="evenodd" clip-rule="evenodd" d="M10.1561 10.0938L12.6188 6.97565H5.38259C4.94497 7.05023 4.64914 7.15822 4.4962 7.30071C4.26623 7.51445 3.8822 7.95195 3.8822 8.40058V9.4626H9.54436L10.1561 10.0938Z" fill="currentColor"/>
<path fill-rule="evenodd" clip-rule="evenodd" d="M3.88192 9.89679H7.60609L11.0244 14.4009C11.5457 15.2269 11.5457 15.9906 11.0244 16.6942C10.7654 17.0426 10.109 17.391 9.58874 17.391H3L5.47831 14.2629L6.09789 14.8618H7.60609L3.88192 9.89679Z" fill="currentColor"/>
<path fill-rule="evenodd" clip-rule="evenodd" d="M18.9259 10.0938L21.4444 6.97565H14.9584C14.5811 6.97565 14.2562 7.1315 13.9849 7.44654C13.5775 7.91632 13.3218 8.35828 13.1387 8.80134L12.873 9.45369H18.3142L18.9259 10.0938Z" fill="currentColor"/>
<path fill-rule="evenodd" clip-rule="evenodd" d="M12.7986 9.89687C12.2225 11.4008 12.1009 12.7879 12.4335 14.057C12.7651 15.3261 13.4539 16.2567 14.4999 16.8467C15.4265 17.3176 16.2861 17.4991 17.0753 17.3911C17.8657 17.2831 18.8236 16.8423 19.95 16.0697L20.4479 15.6756C19.3092 15.8215 18.5422 15.8582 18.1459 15.7847C17.5509 15.6756 16.9447 15.3539 16.5663 14.9988C16.189 14.6437 15.6687 13.9857 15.6687 12.7111C15.6687 11.8628 15.7045 11.1838 15.7781 10.675L15.9166 9.89575H12.7986V9.89687Z" fill="currentColor"/>
<path fill-rule="evenodd" clip-rule="evenodd" d="M11.8013 17.025C11.1896 17.8287 10.5376 18.2295 9.84547 18.2295H7.20752V18.5133C7.6228 19.3973 8.33504 20.1476 9.34423 20.7643C10.3523 21.3799 11.1717 21.7918 11.8002 22V17.025H11.8013Z" fill="currentColor"/>
<path fill-rule="evenodd" clip-rule="evenodd" d="M12.6691 16.3403C13.5287 17.1875 14.2163 17.7107 14.7343 17.91C15.5113 18.2083 16.1253 18.2328 16.583 18.2328H17.2305V18.5167C17.1032 18.8195 16.9882 19.0377 16.8855 19.1702C16.3977 19.8025 15.7446 20.3001 15.1239 20.712C14.3068 21.2552 13.4885 21.6838 12.6691 22V16.3403Z" fill="currentColor"/>
</svg>
