<svg width="24" height="24" viewBox="0 0 24 24" fill="none" xmlns="http://www.w3.org/2000/svg">
<path fill-rule="evenodd" clip-rule="evenodd" d="M9.09523 2.445C10.0265 2.15625 11.014 2 12.039 2H12.0378C14.8953 2 17.469 3.21626 19.2891 5.15002C18.6678 6.92254 17.6353 8.80005 15.939 10.0288C15.2578 6.57253 12.779 3.57626 9.09523 2.445ZM4.25893 5.65242C5.06268 4.67241 6.04894 3.85116 7.1652 3.2349H7.16645C11.0252 3.69741 14.2815 6.69743 14.8665 10.6662C14.1527 11.0087 13.3365 11.235 12.419 11.3275C11.1352 8.10994 7.71895 6.28867 4.25893 5.65242ZM20.1613 6.21367C18.6613 9.9762 15.9688 12.1987 12.4238 12.5112C11.7788 13.78 11.4613 14.9887 11.455 16.1087C16.2751 16.3912 20.2701 13.235 21.5563 9.02119C21.2426 8.00493 20.7638 7.06242 20.1613 6.21367ZM11.5374 17.2849C16.1762 17.4924 20.06 14.8674 21.9587 11.1549V11.1561C21.9812 11.4224 22 11.6899 22 11.9624C22 16.8624 18.4375 21.0162 13.7699 21.8387C12.5724 20.5987 11.7812 19.0062 11.5374 17.2849ZM10.2813 16.1414C10.2813 14.7951 10.6388 13.3926 11.4026 11.9126C11.0751 11.0226 10.5576 10.2588 9.91506 9.60259C6.24003 12.4814 5.67628 17.8552 8.6513 21.4089C9.70006 21.7839 10.8638 22.0002 12.0388 22.0002C12.0958 22.0002 12.1517 21.9963 12.2074 21.9925L12.2075 21.9925C12.252 21.9894 12.2964 21.9863 12.3413 21.9852C11.0351 20.3464 10.2813 18.2952 10.2813 16.1414ZM3.50501 6.72095C5.48127 7.00345 7.51629 7.68596 9.02755 8.82347C5.57753 11.656 4.55877 16.4885 6.53753 20.3823C3.81001 18.6035 2 15.4523 2 11.961C2 10.0372 2.5575 8.24596 3.50501 6.72095Z" fill="currentColor"/>
</svg>
