<svg width="24" height="24" viewBox="0 0 24 24" fill="none" xmlns="http://www.w3.org/2000/svg">
<path fill-rule="evenodd" clip-rule="evenodd" d="M4.58651 5.08897C6.1063 3.57139 8.03818 2.71845 10.0166 2.53345V2.53456C10.2702 4.70792 11.3824 7.02085 13.2789 8.91838C13.8018 9.44131 14.3564 9.90458 14.9309 10.3066C12.2845 10.696 10.1926 12.7896 9.80572 15.4369C9.40283 14.8609 8.93824 14.3047 8.4137 13.7802C6.51728 11.8826 4.20656 10.7727 2.0332 10.5201C2.21598 8.53733 3.06892 6.60656 4.58651 5.08897Z" fill="currentColor"/>
<path d="M19.6948 11.0804C19.6305 8.90376 18.7687 6.74812 17.1105 5.08764C15.45 3.42495 13.2911 2.56647 11.1144 2.5C11.3592 4.40085 12.3683 6.4435 14.0609 8.1361C15.7524 9.82764 17.7928 10.8356 19.6948 11.0804ZM2 11.6166C2.06424 13.7922 2.92606 15.9489 4.58654 17.6094C6.24591 19.2687 8.40265 20.1317 10.5793 20.1948C10.3345 18.2961 9.32543 16.2557 7.63279 14.5631C5.9435 12.8716 3.89975 11.8636 2 11.6166Z" fill="currentColor"/>
<path d="M21.4918 15.8041V14.2962C21.4918 13.7366 21.0376 13.2824 20.478 13.2824H17.4367V12.6174C17.5913 12.4785 17.6902 12.2788 17.6902 12.0547C17.6902 11.635 17.3496 11.2944 16.9299 11.2944C16.5102 11.2944 16.1695 11.635 16.1695 12.0547C16.1695 12.2788 16.2683 12.4785 16.4229 12.6174V13.2824H13.3816C12.822 13.2824 12.3679 13.7366 12.3679 14.2962V15.8158C12.3481 15.8174 12.3314 15.8184 12.3314 15.8184C12.0658 15.8371 11.861 16.0581 11.861 16.3237V17.3375C11.861 17.6178 12.0876 17.8443 12.3679 17.8443V20.3788C12.3679 20.9384 12.822 21.3926 13.3816 21.3926H20.478C21.0376 21.3926 21.4918 20.9384 21.4918 20.3788V17.8443C21.772 17.8443 21.9986 17.6178 21.9986 17.3375V16.3551C22.0042 16.2776 21.9926 16.198 21.9622 16.1245C21.8597 15.8771 21.6403 15.8178 21.4918 15.8041ZM14.3954 16.3237C14.3954 15.7641 14.736 15.31 15.1557 15.31C15.5754 15.31 15.9161 15.7641 15.9161 16.3237C15.9161 16.8833 15.5754 17.3375 15.1557 17.3375C14.736 17.3375 14.3954 16.8833 14.3954 16.3237ZM18.9564 19.365C18.449 19.3635 14.9028 19.365 14.9023 19.365V18.3513C14.9023 18.3513 18.4509 18.3502 18.9583 18.3513L18.9564 19.365ZM18.7039 17.3375C18.2842 17.3375 17.9435 16.8833 17.9435 16.3237C17.9435 15.7641 18.2842 15.31 18.7039 15.31C19.1236 15.31 19.4642 15.7641 19.4642 16.3237C19.4642 16.8833 19.1236 17.3375 18.7039 17.3375Z" fill="currentColor"/>
</svg>
