<svg width="24" height="24" viewBox="0 0 24 24" fill="none" xmlns="http://www.w3.org/2000/svg">
<path d="M21.3555 20.7387C21.3343 20.8981 21.209 21.0406 21.0455 21.0449C20.2896 21.0637 19.5187 20.9882 18.801 20.7429C18.285 20.5667 17.7966 20.2836 17.4462 19.8683C16.8325 19.1385 16.7455 18.1465 16.635 17.2405C16.6244 17.1545 16.5544 17.0853 16.4673 17.0769C16.376 17.0664 16.2868 17.0581 16.1976 17.0476C16.0999 17.0371 16.0086 17.1021 15.9916 17.1986C15.9534 17.4104 15.8982 17.6264 15.826 17.8466C15.1125 19.9669 12.7066 20.4304 10.7381 19.9333C9.91421 19.7257 9.24746 19.3608 8.57217 18.8575C7.99461 18.4275 7.39789 17.9808 6.69503 17.7774C6.48906 17.7166 6.29795 17.6872 6.12594 17.6872C5.9051 17.6872 5.77979 17.7606 5.70972 17.8424C5.58656 17.9829 5.40182 18.0605 5.21285 18.0605H4.53756C4.33583 18.0605 4.14471 17.9682 4.02155 17.8109C2.68376 16.087 2 13.9122 2 11.6766C2 6.34125 6.14293 2 11.235 2C13.4902 2 15.6476 2.88712 17.2806 4.4118C18.2977 5.36184 19.1535 6.52161 19.7247 7.78413C20.2322 8.90824 20.8013 10.5399 19.4869 11.3368C18.5865 11.8821 17.5141 11.9199 16.6817 12.6056C16.342 12.8846 16.1381 13.2327 15.9767 13.6354C15.93 13.7549 16.0001 13.887 16.1275 13.9143L21.691 15.3027C21.8928 15.353 22.0223 15.5418 21.9968 15.7452C21.999 15.7452 21.4957 19.6628 21.3555 20.7387ZM10.1945 13.2872C9.51714 13.2872 8.96928 13.8283 8.96928 14.4973C8.96928 15.1663 9.51714 15.7074 10.1945 15.7074C10.8719 15.7074 11.4198 15.1663 11.4198 14.4973C11.4198 13.8283 10.8719 13.2872 10.1945 13.2872ZM16.4673 15.8437C16.4354 15.569 16.4078 15.3446 16.3887 15.1684C16.3802 15.0887 16.3208 15.0237 16.2401 15.007C16.2103 15.0006 16.1785 14.9944 16.1488 14.986C16.066 14.9671 15.9874 15.0342 15.9959 15.1181C16.0235 15.3572 16.049 15.6088 16.0617 15.871C16.066 15.9633 16.1382 16.0388 16.2316 16.0493C16.2401 16.0493 16.2486 16.0514 16.2592 16.0514C16.3802 16.0639 16.4822 15.9633 16.4673 15.8437ZM17.6798 17.446C17.7116 17.704 17.7456 17.9787 17.7838 18.2744C17.9707 19.776 19.4211 20.0654 20.2471 20.1074C20.3448 20.1116 20.4318 20.0424 20.4446 19.9459L20.7397 17.769C20.7546 17.6662 20.6803 17.5719 20.5762 17.5593C20.005 17.488 19.0027 17.3663 17.8921 17.2384C17.769 17.2237 17.6649 17.3265 17.6798 17.446ZM20.8077 15.957C20.0071 15.7892 18.6078 15.4935 17.5842 15.2796C17.5014 15.2628 17.425 15.3299 17.4356 15.4138C17.4568 15.5942 17.4823 15.8039 17.5099 16.043C17.5205 16.129 17.5885 16.1982 17.6777 16.2065C18.9284 16.3492 20.0878 16.4897 20.7143 16.5673C20.8183 16.5799 20.9117 16.5085 20.9266 16.4058L20.9585 16.1625C20.9691 16.0681 20.9054 15.978 20.8077 15.957Z" fill="currentColor"/>
</svg>
