<svg width="24" height="24" viewBox="0 0 24 24" fill="none" xmlns="http://www.w3.org/2000/svg">
<path fill-rule="evenodd" clip-rule="evenodd" d="M11.9268 9.05644C11.5127 8.54164 11.0235 8.50487 11.0235 8.50487C11.2493 8.65195 11.5881 9.05644 11.5881 9.05644L11.7009 9.0932L11.9268 9.05644ZM10.0447 10.2331L10.2705 10.7847C10.2705 10.7847 9.85652 10.895 9.593 10.6743L9.96946 10.2331H10.0447ZM13.5455 7.62236L13.7337 7.54883C13.7337 7.54883 14.223 7.65914 14.5242 8.28424L13.7712 8.02685L13.5455 7.62236ZM12.0398 8.94612C12.0398 8.94612 11.8139 8.57841 11.5881 8.32102C11.5881 8.32102 12.7926 8.17393 14.223 8.46809C13.2066 8.43133 12.4162 8.5784 12.0398 8.94612ZM11.174 7.87976C10.6094 7.76945 10.1953 7.76945 10.1953 7.76945V7.47528C10.1953 7.47528 10.7976 7.62236 11.174 7.87976ZM13.0184 10.3434L13.6584 9.79187L13.7337 9.8654L13.9971 9.97569L13.5078 10.4905L13.0184 10.3434ZM9.70589 7.03403C9.66831 7.03403 9.40479 6.88695 9.40479 6.88695C9.40479 6.88695 10.3835 6.55601 10.4211 6.55601C10.4211 6.55601 10.9481 6.7031 11.5127 6.92372C11.5127 6.92372 10.8728 7.29143 10.8353 7.29143C10.8266 7.29143 10.814 7.29528 10.7976 7.30033C10.742 7.31738 10.6416 7.34815 10.4964 7.29143C10.4249 7.26815 10.3232 7.2338 10.2164 7.19774C9.98591 7.11989 9.73162 7.03403 9.70589 7.03403ZM12.8585 7.09939C13.1531 7.146 13.2123 7.15536 13.2443 7.21788C13.2443 7.21788 13.3572 7.58559 13.4325 7.73268C13.5078 7.91653 13.5455 8.06362 13.5078 8.06362H12.5291C12.1527 8.10038 11.5504 8.13716 11.5504 8.13716C11.5504 8.13716 11.4375 8.06362 11.3999 8.06362L11.0987 7.69591C11.0987 7.69591 10.9858 7.54883 11.0235 7.51205C11.061 7.43851 11.0987 7.40174 11.2869 7.29143C11.4751 7.18112 11.7009 7.03403 11.7009 7.03403C11.7009 7.03403 11.7386 6.99726 11.8139 6.99726C11.869 6.99726 12.0855 7.01697 12.36 7.04195C12.4604 7.0511 12.5688 7.06095 12.6797 7.0708C12.7474 7.08181 12.8065 7.09118 12.8585 7.09939ZM9.78126 7.65914C9.70589 7.62236 9.66831 7.62236 9.66831 7.62236C9.66831 7.62236 9.78126 7.62236 9.78126 7.47528C9.79474 7.42259 9.79371 7.38877 9.78687 7.36707C9.80964 7.37625 9.8941 7.41665 9.8941 7.51205C9.8941 7.58559 9.85652 7.65914 9.78126 7.65914ZM9.66422 7.37854C9.68914 7.35156 9.72233 7.3282 9.74357 7.3282C9.74357 7.3282 9.77462 7.3282 9.78687 7.36707C9.7833 7.36564 9.78126 7.36497 9.78126 7.36497H9.70589L9.66422 7.37854ZM9.66422 7.37854C9.64498 7.39942 9.63065 7.42246 9.63065 7.43851C9.63065 7.51205 9.63065 7.54883 9.66831 7.62236L9.593 7.65914H9.55536L9.593 7.40174L9.66422 7.37854ZM15.7687 10.8779L16.0299 10.5273C16.0299 10.5273 16.1354 10.6304 16.1568 10.7902C16.0259 10.8153 15.8965 10.8446 15.7687 10.8779ZM15.319 11.0139C15.3176 11.011 15.3161 11.0081 15.3146 11.0053C15.3126 11.0094 15.3104 11.0135 15.3084 11.0175C15.312 11.0163 15.3155 11.0151 15.319 11.0139ZM14.1564 11.5581C14.1101 11.385 14.1101 11.226 14.1101 11.226L13.3572 10.9685L12.4162 10.4537L12.2656 10.417C11.9645 10.564 11.5881 10.4537 11.2493 10.1964C11.2117 10.3434 11.0235 10.7112 10.7976 10.895C10.5717 11.0788 10.12 11.3363 9.78126 11.3363C9.44244 11.3363 8.6896 10.9685 8.46374 10.4537C8.23788 9.93893 8.46374 9.38737 8.46374 9.38737L8.08731 9.31384L7.93675 9.12997C7.93675 9.12997 7.48504 9.49766 6.9957 9.35061C6.50634 9.20355 6.09228 8.79904 5.97935 8.43133C5.90407 8.06362 6.01699 7.73268 6.05463 7.69591C5.97935 7.43851 5.97935 7.29143 5.97935 7.29143H5.94171V7.18112C5.45236 7.51205 4.88772 7.65914 4.28545 7.65914C3.60789 7.65914 2.96797 7.43851 2.44098 7.10757C2.51627 7.91653 2.74212 8.87258 3.04325 9.93893C3.45732 11.4098 4.81244 11.8878 6.84513 12.2187C8.63175 12.4974 10.3885 13.1972 11.8357 14.0686C12.3566 13.0281 13.1648 12.1566 14.1564 11.5581ZM11.5304 14.7915C9.83027 13.9828 7.7068 13.3959 5.64057 13.3219C5.15123 13.3219 4.58659 13.5057 4.92536 14.0205C7.52284 18.3751 10.2512 19.6283 11.615 20.2547C11.7137 20.3001 11.8053 20.3422 11.8891 20.3819C11.9054 20.3745 11.9218 20.367 11.9386 20.3594C12.0285 20.3185 12.1264 20.2738 12.2317 20.2249C11.5745 19.2487 11.1909 18.0729 11.1909 16.8076C11.1909 16.1014 11.3104 15.423 11.5304 14.7915ZM20.2273 11.4136C21.5895 8.0922 21.446 5.70345 21.3374 4.60715C20.2082 3.83496 17.4226 2.43766 11.8891 2.43766C9.96946 2.43766 8.35082 2.62152 7.07098 2.87892C7.37212 3.35694 7.52268 3.9085 7.52268 4.49683C7.52268 5.3058 7.22155 6.04122 6.7322 6.59278C6.84513 6.62955 6.9957 6.66632 7.18391 6.7031L7.25919 6.51924C7.25919 6.51924 7.33447 6.51924 7.37212 6.55601C7.37212 6.37215 7.48504 6.37215 7.48504 6.37215C7.48504 6.37215 7.48504 6.33539 7.52268 6.33539C7.71089 6.37215 8.23787 6.62954 8.46372 6.73986H8.46374C8.6896 6.85017 8.6896 6.88695 8.6896 6.88695C8.6896 6.88695 9.21658 6.88695 9.36715 6.85017C9.46754 6.85017 9.61811 6.80114 9.81884 6.73577C9.91922 6.7031 10.0322 6.66632 10.1577 6.62955C10.293 6.58988 10.3894 6.55972 10.4609 6.53736C10.5882 6.49755 10.6364 6.48246 10.6846 6.48246C10.7599 6.48246 11.4375 6.51924 12.0398 6.59278C12.642 6.66632 13.2066 6.88695 13.3196 6.96049L13.5078 6.99726L13.5455 6.88695L13.2443 6.77663C13.2443 6.77663 13.282 6.59277 13.282 6.55601C13.282 6.51924 13.3196 6.48246 13.3572 6.48246C13.3948 6.48246 13.7337 6.55601 13.8466 6.59278C13.9078 6.61272 14.0465 6.6975 14.1667 6.77096C14.2681 6.83299 14.3563 6.88695 14.3736 6.88695C14.4112 6.88695 14.4112 6.92372 14.4112 6.92372C14.4112 6.99726 14.336 7.14434 14.336 7.14434C14.336 7.14434 14.4488 7.18112 14.4865 7.21788C14.4939 7.22511 14.5042 7.23376 14.5168 7.24383C14.509 7.25222 14.5029 7.25654 14.499 7.2568C14.4858 7.25762 14.4858 7.27114 14.499 7.29736L14.5667 7.31701C14.5727 7.30963 14.5784 7.30257 14.5839 7.29586C14.6321 7.3334 14.6911 7.38095 14.75 7.43851C14.8629 7.51205 14.8252 7.62236 14.8252 7.62236L15.0888 7.87976V7.99007L15.1056 8.00649L15.0859 8.00835V8.06709L15.2932 8.25859H15.3244L15.3307 8.22644L15.7287 8.61518V8.65195L15.4276 8.8358C15.4276 8.8358 15.8417 8.79904 16.1427 8.94612C16.4439 9.0932 16.4816 9.16679 16.4816 9.24032C16.4063 9.27708 16.2933 9.31384 16.2933 9.31384C16.0675 9.38737 15.5028 9.75511 15.5028 9.75511V9.79187L15.804 9.8654C16.1427 9.57119 16.745 9.4609 17.1967 9.53443C18.4713 9.77737 19.4121 10.4968 19.8284 11.2165C19.964 11.2774 20.0971 11.3432 20.2273 11.4136ZM18.4568 10.7859C17.7124 10.0798 16.6232 9.6537 15.9169 9.97569C15.9357 9.99408 15.9545 10.0033 15.9734 10.0125C15.9922 10.0216 16.011 10.0308 16.0299 10.0492C16.2557 10.1964 16.3686 10.2699 16.4063 10.6008C16.4129 10.6461 16.416 10.6949 16.4157 10.7463C16.7102 10.7029 17.0116 10.6803 17.3182 10.6803C17.7073 10.6803 18.0879 10.7166 18.4568 10.7859ZM15.3307 8.22644L15.336 8.20019L15.7404 7.73865C15.748 7.68294 15.7553 7.64978 15.762 7.63917C15.7687 7.62856 15.9045 7.68668 16.1693 7.81354L16.1794 7.73865L16.1995 7.66205L15.636 7.41324C15.5744 7.34309 15.5364 7.30447 15.5219 7.29736C15.5074 7.29025 15.2979 7.21099 14.8932 7.05956H14.7563L14.499 6.9456H14.4745L14.4356 7.05956L14.601 7.12392C14.5629 7.18482 14.5348 7.22479 14.5168 7.24383C14.5278 7.25251 14.5404 7.26225 14.5544 7.27305C14.5637 7.28018 14.5735 7.28779 14.5839 7.29586C14.636 7.23192 14.663 7.19812 14.6648 7.19443C14.6669 7.19037 14.6747 7.17695 14.6882 7.15419C14.7474 7.15373 14.7874 7.15739 14.8081 7.16521C14.8288 7.17301 14.9906 7.23501 15.2932 7.3512C15.3181 7.39077 15.339 7.41807 15.356 7.4331C15.3687 7.44451 15.4431 7.47826 15.5143 7.51056C15.5836 7.54208 15.65 7.57221 15.6532 7.57888C15.6576 7.58789 15.6519 7.60799 15.636 7.63917L15.2806 7.99007L15.1056 8.00649L15.3307 8.22644ZM8.4261 8.61518H8.50139C8.50139 8.61518 8.72724 8.50487 8.80252 8.43133C8.87781 8.32102 8.87781 8.17393 8.80252 8.06362C8.91545 8.02685 9.40479 7.95331 9.93178 8.06362C9.8941 8.02685 9.85652 7.95331 9.85652 7.95331C9.82558 7.92307 9.69282 7.89284 9.29102 7.80131C9.20408 7.78151 9.10456 7.75884 8.99073 7.73268C8.99073 7.73268 8.99073 7.69591 9.21658 7.73268C9.27239 7.74176 9.33969 7.75085 9.41109 7.76049C9.62867 7.78986 9.8844 7.82439 9.96946 7.87976C10.0823 7.95331 10.1577 8.02685 10.1577 8.02685L10.2329 8.17393C10.3082 8.28424 10.3459 8.32102 10.3459 8.32102C10.3459 8.32102 10.4211 8.39456 10.5341 8.43133C10.647 8.43133 10.8353 8.46809 10.8353 8.46809C10.8353 8.46809 11.5504 9.12997 11.8516 9.8654L12.228 10.1227L11.3999 9.8654C11.3999 9.8654 11.5127 9.27708 11.0987 8.8358C10.647 8.39456 10.0823 8.32102 9.74357 8.32102C9.40479 8.35778 8.91545 8.68873 8.76488 8.90935C8.61431 8.90935 8.23788 8.87258 8.23788 8.87258L8.1626 9.01966L8.12496 9.05644H8.08731L7.86146 9.12997C7.86146 9.12997 7.82382 9.16679 7.67325 9.0932C7.64999 9.07048 7.62672 9.0618 7.59458 9.0498C7.5747 9.04238 7.55144 9.0337 7.52268 9.01966C7.4474 9.05644 7.25919 9.05644 7.10862 8.98289C6.92041 8.90935 6.84513 8.76227 6.80749 8.68873H6.76984V8.39456L7.29683 8.79904H7.33447L7.48504 8.72549C7.48504 8.72549 7.52268 8.68873 7.52268 8.65195C7.52268 8.61518 7.56033 8.54164 7.56033 8.54164L7.67325 8.43133C7.63561 8.35778 7.4474 8.06362 7.40976 8.02685L7.48504 7.73268C7.48504 7.73268 7.82382 8.13716 7.8991 8.28424L8.12331 8.21124C8.14562 8.06984 8.22939 7.93432 8.31317 7.87976C8.4261 7.80622 8.53903 7.95331 8.53903 7.95331C8.53903 7.95331 8.4261 7.84299 8.31317 7.99007C8.1626 8.17393 8.12496 8.46809 8.31317 8.54164C8.20024 8.54164 8.1626 8.54164 8.12496 8.35778C8.11697 8.31876 8.11576 8.27808 8.1199 8.23749C8.10674 8.31701 8.08244 8.54804 8.23788 8.57841L8.4261 8.61518ZM6.54398 8.32102L6.58162 7.91653C6.58162 7.91653 6.4687 7.87976 6.50634 7.80622C6.50634 7.73268 6.54398 7.21788 6.54398 7.21788C6.54398 7.21788 6.61927 6.92372 6.80749 6.7031C6.88277 6.73986 6.9957 6.77663 7.14626 6.81341V6.85017L7.18391 6.73986L7.8991 6.92372C7.8991 6.92372 7.73965 6.94597 7.65111 6.95586L7.67325 6.96049C7.67325 6.96049 7.10862 7.0708 7.03334 7.0708C7.03334 7.08919 7.02392 7.09838 7.01452 7.10757C7.0051 7.11677 6.9957 7.12596 6.9957 7.14434H6.95805V7.29143L6.92041 7.3282V7.36497C6.95805 7.38336 7.03334 7.42931 7.10862 7.47528C7.18391 7.52124 7.25919 7.56721 7.29683 7.5856H7.37212L7.40976 7.62236C7.40976 7.62236 7.25919 7.5856 7.22155 7.65914C7.18391 7.73268 7.14626 7.99007 7.14626 7.99007C7.14626 7.99007 7.14626 8.10038 7.37212 8.10038V8.13716L7.33447 8.17393H7.25919L7.18391 8.10038L7.14626 8.02685L6.80749 7.84299V7.99007H6.84513V8.2107H6.80749V8.06362L6.76984 8.32102H6.54398ZM7.25919 8.17393V8.46809L7.18391 8.50487V8.2107L7.25919 8.17393ZM15.5028 10.9318L15.4276 10.8215C15.4276 10.8215 15.691 10.4905 15.8417 10.4905V10.5273L15.5405 10.895L15.5028 10.9318ZM14.2983 10.086L14.5242 10.1595C14.5242 10.1595 14.223 10.4905 14.1478 10.7847L13.7712 10.6743L14.2983 10.086ZM15.0135 8.79904C15.0511 8.76226 15.1264 8.61518 15.1264 8.61518L15.4276 8.65195L15.3146 8.87258C14.5618 8.87258 14.0724 9.24032 14.0724 9.24032V9.35061C14.0724 9.35755 14.0765 9.3645 14.083 9.37124C14.0569 9.36133 14.0348 9.35061 14.0348 9.35061C14.0348 9.31384 14.0348 9.20355 14.0724 9.16679C14.1299 9.11056 14.2973 9.03293 14.4402 8.96661C14.4844 8.94612 14.5262 8.92671 14.5618 8.90935C14.612 8.8971 14.6747 8.88483 14.7374 8.87258C14.8629 8.84807 14.9884 8.82355 15.0135 8.79904ZM14.1308 9.40208C14.1126 9.39329 14.0943 9.38267 14.083 9.37124C14.1053 9.37961 14.1304 9.38737 14.1478 9.38737L14.1308 9.40208ZM14.1308 9.40208C14.1584 9.41535 14.1854 9.42414 14.1854 9.42414C14.3736 9.49766 15.0135 9.75511 15.1641 9.82864C15.1641 9.82864 14.9006 9.8654 14.7124 10.0125L13.8842 9.75511L13.8089 9.68158L14.1308 9.40208ZM10.0447 7.69591L9.93178 7.65914C9.96947 7.65914 10.0447 7.62236 10.007 7.58559C10.0447 7.47528 9.96946 7.43851 9.96946 7.43851C9.96946 7.40174 9.93178 7.40174 9.93178 7.43851H9.8941C9.8941 7.43851 9.8941 7.40174 9.85652 7.36497L10.007 7.40174L10.12 7.47528V7.62236C10.12 7.69591 10.0447 7.69591 10.0447 7.69591ZM9.51772 10.4905C9.51772 10.4905 9.32951 10.1595 9.593 9.68158L9.85652 9.93893V10.0125L9.51772 10.4905ZM8.12496 6.92372C8.12496 6.92372 8.01203 6.81341 7.40976 6.73986C7.40976 6.59278 7.4474 6.48246 7.4474 6.48246C7.4474 6.48246 8.27552 6.73986 8.46374 6.88695C8.35082 6.88695 8.12496 6.92372 8.12496 6.92372ZM6.12992 8.06362L6.16756 7.65914C6.16756 7.65914 6.09228 7.65914 6.09228 7.54883C6.09228 7.47528 6.12992 6.99726 6.12992 6.99726C6.12992 6.99726 6.2052 6.7031 6.39341 6.48246H6.50634C6.50634 6.48246 6.31813 6.73986 6.24284 7.03403L6.43106 7.14434L6.39341 7.58559L6.35577 7.62236V7.69591L6.39341 7.73268L6.35577 7.91653L6.31813 7.99007H6.35577V8.02685H6.39341V8.06362H6.12992ZM10.4964 10.7112L10.3082 10.1227L10.3459 10.086L10.9481 10.0492C10.9481 10.0492 10.8728 10.4537 10.4964 10.7112ZM10.3835 9.75511L10.3459 9.71835L10.647 9.20355C10.647 9.20355 10.9858 9.38737 10.9858 9.79187L10.3835 9.75511ZM6.84513 8.28424L6.88277 8.06362V8.28424H6.84513ZM10.0447 9.68158L9.74357 9.4609C9.74357 9.4609 10.0447 9.0932 10.4587 9.12997L10.12 9.64472L10.0447 9.68158ZM6.92041 8.06362L6.95805 8.10038V8.32102H6.92041V8.06362ZM7.03334 8.43133L7.07098 8.17393V8.43133H7.03334ZM7.10862 8.46809L7.14626 8.2107V8.46809H7.10862ZM6.9957 8.39456V8.13716L6.95805 8.39456H6.9957ZM17.095 7.64591C17.0613 7.64749 16.7877 7.64749 16.2742 7.64591C16.2575 7.67042 16.2479 7.68989 16.2454 7.70429C16.243 7.71868 16.243 7.76276 16.2454 7.8365C16.4172 7.86629 16.5228 7.88792 16.5622 7.9014C16.5754 7.9059 16.5976 7.9128 16.6247 7.92126C16.7197 7.95082 16.8764 7.99961 16.9301 8.03342C16.9761 8.06242 17.055 8.07912 17.1666 8.08352L17.5666 7.78387C17.5533 7.75928 17.5461 7.74415 17.5447 7.7385C17.5426 7.73001 17.1457 7.64355 17.095 7.64591ZM2 4.40715C2 5.73659 3.08588 6.81431 4.42539 6.81431C5.7649 6.81431 6.85077 5.73659 6.85077 4.40715C6.85077 3.07772 5.7649 2 4.42539 2C3.08588 2 2 3.07772 2 4.40715Z" fill="currentColor"/>
<path d="M21.5306 16.3276V14.9352C21.5306 14.4184 21.1112 13.999 20.5945 13.999H17.7861V13.3849C17.9289 13.2567 18.0202 13.0723 18.0202 12.8654C18.0202 12.4778 17.7056 12.1633 17.3181 12.1633C16.9305 12.1633 16.616 12.4778 16.616 12.8654C16.616 13.0723 16.7072 13.2567 16.85 13.3849V13.999H14.0416C13.5249 13.999 13.1056 14.4184 13.1056 14.9352V16.3384C13.0873 16.3398 13.0719 16.3408 13.0719 16.3408C12.8266 16.358 12.6375 16.5622 12.6375 16.8073V17.7435C12.6375 18.0024 12.8467 18.2115 13.1056 18.2115V20.5518C13.1056 21.0686 13.5249 21.488 14.0416 21.488H20.5945C21.1112 21.488 21.5306 21.0686 21.5306 20.5518V18.2115C21.7894 18.2115 21.9986 18.0024 21.9986 17.7435V16.8363C22.0037 16.7648 21.993 16.6913 21.9649 16.6234C21.8704 16.395 21.6678 16.3402 21.5306 16.3276ZM14.9778 16.8073C14.9778 16.2906 15.2923 15.8713 15.6799 15.8713C16.0674 15.8713 16.3819 16.2906 16.3819 16.8073C16.3819 17.3241 16.0674 17.7435 15.6799 17.7435C15.2923 17.7435 14.9778 17.3241 14.9778 16.8073ZM19.1894 19.6157C18.7208 19.6144 15.4463 19.6157 15.4458 19.6157V18.6796C15.4458 18.6796 18.7227 18.6786 19.1912 18.6796L19.1894 19.6157ZM18.9562 17.7435C18.5687 17.7435 18.2541 17.3241 18.2541 16.8073C18.2541 16.2906 18.5687 15.8713 18.9562 15.8713C19.3438 15.8713 19.6583 16.2906 19.6583 16.8073C19.6583 17.3241 19.3438 17.7435 18.9562 17.7435Z" fill="currentColor"/>
</svg>
