<svg width="24" height="24" viewBox="0 0 24 24" fill="none" xmlns="http://www.w3.org/2000/svg">
<path fill-rule="evenodd" clip-rule="evenodd" d="M3.12 6.98305L12.0014 2L20.8827 6.98305V16.9831L12.0014 22L3.12 16.9831V6.98305ZM9.49284 5.18641C9.49284 5.18641 5.35725 6.47455 4.78097 11.2203C4.56885 14.0385 5.81957 15.8544 6.06302 16.2079C6.091 16.2485 6.10567 16.2698 6.10329 16.2711L10.5776 15.2881C10.5776 15.2881 3.96741 11.0847 9.49284 5.18641ZM14.8488 18.7458C10.103 20.4746 7.32335 17.4576 7.32335 17.4576C15.0861 19.4237 15.6284 11.5593 15.6284 11.5593L18.6115 14.9831C18.6115 14.9831 17.764 17.4237 14.8488 18.7458ZM10.0353 9.2882C10.0353 9.2882 16.7132 5.59328 19.0861 13.356C19.0861 13.356 20.0353 9.35599 16.8827 6.61023C14.3065 4.40684 11.459 4.77972 11.459 4.77972L10.0353 9.2882Z" fill="currentColor"/>
</svg>
