<svg width="24" height="24" viewBox="0 0 24 24" fill="none" xmlns="http://www.w3.org/2000/svg">
<path fill-rule="evenodd" clip-rule="evenodd" d="M11.9633 2L11.0455 4.10325L14.3342 11.4455L15.7491 12.0191L14.3342 12.631L12.5369 16.5698L13.5694 18.7113C13.5694 18.7113 15.7874 13.8929 16.5139 13.1663C17.2405 12.4398 17.6994 12.1338 18.273 12.0191C17.6994 11.8662 16.9346 11.369 16.2845 10.6424C15.6344 9.91587 11.9633 2 11.9633 2ZM11.9633 9.49521L10.816 11.9426L11.9633 14.5812L13.187 11.9426L11.9633 9.49521ZM12.9575 19.8967L12.0397 22C12.0397 22 8.3686 14.0841 7.71851 13.3575C7.06841 12.631 6.30359 12.1338 5.72998 11.9809C6.30359 11.8661 6.76249 11.5602 7.48906 10.8336C8.21564 10.1071 10.4336 5.2887 10.4336 5.2887L11.4661 7.43019L9.66879 11.369L8.25388 11.9809L9.66879 12.5545L12.9575 19.8967Z" fill="currentColor"/>
</svg>
