<svg width="24" height="24" viewBox="0 0 24 24" fill="none" xmlns="http://www.w3.org/2000/svg">
<path fill-rule="evenodd" clip-rule="evenodd" d="M11.9707 17.6303C11.9707 18.6063 11.1821 19.3974 10.2094 19.3974C9.23658 19.3974 8.448 18.6063 8.448 17.6303C8.448 16.6544 9.23658 15.8633 10.2094 15.8633C11.1821 15.8633 11.9707 16.6544 11.9707 17.6303Z" fill="currentColor"/>
<mask id="mask0_7149_68" style="mask-type:alpha" maskUnits="userSpaceOnUse" x="5" y="2" width="13" height="14">
<path d="M5.33459 2.91699H17.0959V15.4726H5.33459V2.91699Z" fill="currentColor"/>
</mask>
<g mask="url(#mask0_7149_68)">
<path fill-rule="evenodd" clip-rule="evenodd" d="M16.8958 4.68007L15.1117 3.07206C14.8683 2.85263 14.495 2.86787 14.2701 3.10638L5.4906 12.4194C5.33237 12.5873 5.28909 12.825 5.38575 12.9953L5.64474 13.4515L7.61896 15.2309L8.09869 15.4406C8.27776 15.5188 8.50877 15.4503 8.65819 15.2745L16.9515 5.52325C17.1639 5.27351 17.1391 4.89944 16.8958 4.68007Z" fill="currentColor"/>
</g>
<mask id="mask1_7149_68" style="mask-type:alpha" maskUnits="userSpaceOnUse" x="3" y="2" width="7" height="8">
<path d="M3.32239 2.91699H9.67409V9.68053H3.32239V2.91699Z" fill="currentColor"/>
</mask>
<g mask="url(#mask1_7149_68)">
<path fill-rule="evenodd" clip-rule="evenodd" d="M9.67409 6.84652L6.14815 3.10633C5.92332 2.86782 5.54994 2.85258 5.3065 3.07196L3.52254 4.68001C3.2791 4.89934 3.25438 5.27345 3.46677 5.52314L7.00245 9.68051L9.67409 6.84652Z" fill="currentColor"/>
</g>
<path fill-rule="evenodd" clip-rule="evenodd" d="M13.4458 10.847L10.7203 14.0516L11.7603 15.2744C11.9098 15.4501 12.1408 15.5187 12.3199 15.4405L12.7996 15.2308L14.7738 13.4513L15.0328 12.9952C15.1294 12.8249 15.0862 12.5871 14.928 12.4193L13.4458 10.847Z" fill="currentColor"/>
<mask id="mask2_7149_68" style="mask-type:alpha" maskUnits="userSpaceOnUse" x="1" y="13" width="7" height="7">
<path d="M1.91663 13.9529H7.17007V19.5024H1.91663V13.9529Z" fill="currentColor"/>
</mask>
<g mask="url(#mask2_7149_68)">
<path fill-rule="evenodd" clip-rule="evenodd" d="M7.17008 15.7324L6.18564 16.1791C5.91421 16.3023 5.67569 16.4883 5.48957 16.7216L3.43377 19.3C3.24076 19.542 2.88459 19.5715 2.65478 19.3643L2.09492 18.8597C1.86604 18.6534 1.85614 18.2968 2.0732 18.0781L4.4009 15.7324C4.60838 15.5234 4.76428 15.2686 4.85622 14.9883L5.19586 13.9529L7.17008 15.7324Z" fill="currentColor"/>
</g>
<path fill-rule="evenodd" clip-rule="evenodd" d="M17.5263 13.1609C19.951 13.1609 21.9166 15.1265 21.9166 17.5511C21.9166 19.9758 19.951 21.9414 17.5263 21.9414C15.1017 21.9414 13.1361 19.9758 13.1361 17.5511C13.1361 15.1265 15.1017 13.1609 17.5263 13.1609ZM17.566 15.1121C16.1085 15.1121 15.0873 16.2325 15.0873 17.6205C15.0873 19.1573 16.1879 20.1389 17.6453 20.1389C18.3889 20.1389 19.1424 19.9108 19.6183 19.4746L19.0631 18.6616C18.7558 18.959 18.1906 19.1375 17.7841 19.1375C16.9711 19.1375 16.4853 18.6318 16.406 18.027H19.9654V17.7494C19.9654 16.1829 18.9937 15.1121 17.566 15.1121ZM17.566 16.1135C18.3988 16.1135 18.7161 16.7183 18.7459 17.1744H16.3862C16.4456 16.6985 16.7827 16.1135 17.566 16.1135Z" fill="currentColor"/>
</svg>
