<svg width="24" height="24" viewBox="0 0 24 24" fill="none" xmlns="http://www.w3.org/2000/svg">
<path d="M10.3012 14.9447V19.7773C8.28061 19.6444 6.29682 18.8263 4.7276 17.3224C6.28985 15.9106 8.24928 15.0785 10.3012 14.9447ZM10.3012 11.4758V13.7679C7.95512 13.9032 5.71399 14.8452 3.9341 16.456C2.83939 15.092 2.20477 13.4809 2.03033 11.8301L2 11.4758H10.3012ZM11.7974 13.7924L11.4759 13.7679V11.4758L14.3849 11.4751C13.3149 11.9825 12.4158 12.7915 11.7974 13.7924ZM3.93406 5.32116C5.6151 6.84262 7.70753 7.76745 9.91122 7.97945L10.3012 8.00944V10.3011H2C2.11653 8.52758 2.76127 6.78254 3.93406 5.32116ZM17.8432 5.32123C18.9378 6.68519 19.5724 8.29621 19.7469 9.94682L19.7772 10.301H11.4759V8.0094C13.8221 7.87415 16.0633 6.93212 17.8432 5.32123ZM11.4759 2C13.4967 2.13271 15.4805 2.95092 17.0497 4.45482C15.5794 5.78365 13.7571 6.59891 11.837 6.80185L11.4759 6.8327V2ZM10.3012 2.00004V6.83274C8.24928 6.69885 6.28981 5.86671 4.72756 4.45478C6.29678 2.95092 8.28061 2.13275 10.3012 2.00004Z" fill="currentColor"/>
<path fill-rule="evenodd" clip-rule="evenodd" d="M17 12C19.7614 12 22 14.2386 22 17C22 19.7614 19.7614 22 17 22C14.2386 22 12 19.7614 12 17C12 14.2386 14.2386 12 17 12ZM17.0452 14.2222C15.3853 14.2222 14.2222 15.4982 14.2222 17.079C14.2222 18.8293 15.4756 19.9472 17.1355 19.9472C17.9824 19.9472 18.8406 19.6874 19.3826 19.1906L18.7502 18.2647C18.4002 18.6034 17.7565 18.8067 17.2936 18.8067C16.3677 18.8067 15.8144 18.2308 15.724 17.542H19.7778V17.2258C19.7778 15.4417 18.6712 14.2222 17.0452 14.2222ZM17.0452 15.3627C17.9937 15.3627 18.355 16.0515 18.3889 16.5709H15.7014C15.7692 16.0289 16.1531 15.3627 17.0452 15.3627Z" fill="currentColor"/>
</svg>
