<svg width="24" height="24" viewBox="0 0 24 24" fill="none" xmlns="http://www.w3.org/2000/svg">
<g clip-path="url(#clip0_7156_559)">
<path d="M3.30328 6.24234C3.16238 6.28483 3.05727 6.34298 2.979 6.43914C2.86718 6.57332 2.86271 6.59345 2.87165 6.99376C2.87613 7.22411 2.87613 7.63113 2.87165 7.90621C2.86718 8.39821 2.86718 8.39821 2.77549 8.36914C2.59211 8.30652 2.15377 8.33559 2.07997 8.4161C2.01735 8.4832 2.01735 8.4832 2.08892 8.4586C2.14259 8.44294 2.16048 8.44965 2.14707 8.4832C2.13812 8.51227 2.10457 8.5324 2.07997 8.52569C2.0509 8.52121 2.03301 8.59725 2.03301 8.73367C2.03301 8.85444 2.01959 9.02217 2.00841 9.10044C1.99275 9.21673 2.00841 9.26817 2.09563 9.35986C2.19627 9.46721 2.22981 9.47615 2.52949 9.47615C2.80904 9.47615 2.85824 9.48957 2.87613 9.54772C2.90073 9.64388 2.87165 14.4029 2.84705 14.47C2.83364 14.508 2.73971 14.5237 2.55856 14.5237C2.37741 14.5237 2.24547 14.5483 2.16272 14.5952C2.03748 14.6713 2.03301 14.678 2.02854 15.0045C2.01959 15.6687 2.03748 15.6933 2.56303 15.6933H2.91415L2.90073 16.4939C2.88507 17.6211 2.91638 17.6703 3.72595 17.715C4.92689 17.7776 8.44249 17.8022 9.01948 17.753C9.22075 17.7374 9.39967 17.7329 9.59423 17.7374C9.86483 17.7418 9.93193 17.7374 9.98113 17.6904C10.0236 17.6569 10.0393 17.6569 10.0393 17.6904C10.0393 17.715 10.0594 17.7374 10.0818 17.7374C10.1064 17.7374 10.1243 17.6993 10.1243 17.6501C10.1243 17.6032 10.1086 17.5786 10.0818 17.592C10.0616 17.6054 10.0393 17.5965 10.0393 17.5719C10.0393 17.4958 10.1399 17.5473 10.1846 17.6479C10.2271 17.7396 10.2383 17.7396 11.1642 17.7396C11.6808 17.7396 12.3897 17.753 12.7408 17.7642C13.6868 17.8022 15.1695 17.7485 15.1695 17.6725C15.1695 17.639 15.1897 17.6144 15.2165 17.6144C15.2411 17.6144 15.2545 17.6434 15.2366 17.677C15.221 17.7307 15.2657 17.7396 15.5363 17.7396C15.7107 17.7441 16.6746 17.7485 17.681 17.753C18.6829 17.7575 19.4902 17.7485 19.4791 17.7284C19.4701 17.7128 19.4925 17.6993 19.5283 17.6993C19.5707 17.6993 19.5819 17.7195 19.5663 17.7485C19.5171 17.8268 20.6084 17.762 20.7918 17.6703C21.096 17.5204 21.1139 17.4578 21.1161 16.5521C21.1206 16.1048 21.1317 15.7134 21.1496 15.6754C21.1653 15.6262 21.1988 15.6173 21.2659 15.6374C21.3867 15.6799 21.8407 15.6575 21.9257 15.6128C21.9793 15.5792 21.9749 15.5748 21.9122 15.5703C21.8653 15.5703 21.8407 15.5502 21.8541 15.5166C21.863 15.492 21.8921 15.4697 21.9122 15.4741C21.9659 15.4876 22.0084 14.8189 21.9614 14.7361C21.8608 14.5572 21.8452 14.5483 21.465 14.5281L21.0848 14.508L21.0758 11.9921L21.0624 9.48062H21.4337C21.7758 9.48062 21.8049 9.47168 21.9055 9.36433C21.9928 9.27264 22.0106 9.22344 21.9928 9.10491C21.9793 9.02664 21.9682 8.85891 21.9682 8.74262C21.9682 8.60172 21.9525 8.52569 21.9212 8.53463C21.8966 8.53911 21.863 8.51898 21.8541 8.48767C21.8407 8.45412 21.8586 8.44518 21.9122 8.46307C21.9793 8.48767 21.9793 8.4832 21.9257 8.42505C21.8586 8.35349 21.4471 8.31994 21.2592 8.37138C21.0714 8.42058 21.0557 8.37585 21.0289 7.62442C20.9819 6.46374 20.8947 6.29825 20.3244 6.3139C20.1567 6.31837 20.0001 6.30943 19.9733 6.29825C19.9286 6.25799 19.2196 6.20879 18.8618 6.20879C18.7232 6.21326 18.4816 6.21326 18.3206 6.21326C18.1618 6.21326 17.3366 6.22221 16.4845 6.22668C15.6369 6.23116 14.7826 6.2401 14.5858 6.24681C14.389 6.25352 14.1475 6.26247 14.0446 6.26023C12.4255 6.23563 11.0837 6.22668 11.0121 6.24457C10.9584 6.25799 10.9204 6.28259 10.9294 6.29825C10.9338 6.3139 10.9204 6.33179 10.8958 6.33627C10.8757 6.34521 10.8533 6.32285 10.8533 6.29377C10.8533 6.25576 10.652 6.24457 9.99902 6.24457C9.33481 6.24457 9.14919 6.25799 9.15143 6.29377C9.16037 6.32285 9.13577 6.34745 9.09775 6.34745C9.06421 6.34745 9.04408 6.33179 9.05526 6.30943C9.10446 6.23339 8.83386 6.22221 6.93293 6.22221C5.87736 6.22221 4.67642 6.21326 4.26269 6.20656C3.71477 6.19314 3.45311 6.20432 3.30328 6.24234ZM11.7814 7.37171C17.4909 7.38066 19.3807 7.36724 19.3807 7.33369C19.3807 7.29568 19.3941 7.30015 19.4142 7.33369C19.4299 7.36277 19.5394 7.39184 19.6513 7.39631L19.8592 7.40973L19.8637 7.61772C19.8727 7.95094 19.9263 11.3212 19.9219 11.3927C19.9084 11.7483 19.9219 14.4297 19.942 15.3646C19.9621 16.2994 19.9576 16.5655 19.9174 16.5901C19.8883 16.6057 19.7295 16.6147 19.5707 16.6102C19.2621 16.5968 18.135 16.5968 13.8143 16.6013C11.5734 16.6057 11.2827 16.6147 11.3028 16.6684C11.3185 16.7109 11.2984 16.731 11.2447 16.731C11.191 16.731 11.1686 16.7109 11.1865 16.6684C11.2067 16.6147 10.945 16.6102 9.08881 16.6102C7.92589 16.6147 6.62878 16.6259 6.20611 16.6393C5.7879 16.655 5.44797 16.655 5.44797 16.6348C5.44797 16.5856 5.30261 16.6013 5.2467 16.655C5.20868 16.693 5.18408 16.6974 5.16395 16.6639C5.1483 16.6303 4.94702 16.6147 4.61827 16.6102C4.33425 16.6057 4.08378 16.5946 4.06812 16.5811C4.04799 16.5677 4.0301 16.4112 4.0301 16.2233C4.0301 15.9438 4.02116 15.8946 3.96748 15.9147C3.92499 15.9304 3.90486 15.9102 3.90486 15.8566C3.90486 15.8029 3.92499 15.7805 3.96748 15.7984C4.02116 15.8185 4.0301 15.6352 4.03457 14.309C4.05023 9.3196 4.05023 9.37775 3.99208 9.35762C3.95854 9.3442 3.94959 9.32855 3.97867 9.31066C4.04128 9.27264 4.05023 8.76945 3.99208 8.58383C3.96301 8.50109 3.95407 8.4094 3.97643 8.38032C3.99208 8.35125 4.00997 8.11643 4.01892 7.86819C4.02339 7.61324 4.02787 7.38513 4.02787 7.35159C4.03234 7.31357 4.05694 7.30462 4.10614 7.33146C4.14416 7.34711 7.59937 7.36724 11.7814 7.37171Z" fill="currentColor"/>
<path d="M17.2678 8.42293L16.38 8.43188L16.2167 8.59066C16.0781 8.72485 16.049 8.77852 16.0289 8.97532C15.9819 9.37116 15.9819 9.92579 16.0199 10.8114C16.0401 11.2833 16.0535 11.7417 16.0445 11.8334C16.0356 11.9251 16.0289 12.6922 16.0289 13.5443L16.0244 15.0874L16.125 15.2506C16.1787 15.3378 16.2838 15.434 16.3576 15.4675C16.5253 15.5391 18.2004 15.5548 18.4218 15.4877C18.6253 15.4251 18.7886 15.2171 18.8132 14.9867C18.8557 14.5819 18.8378 11.5002 18.793 11.3839L18.7461 11.2721H18.1736C17.7867 11.2721 17.5854 11.2877 17.5518 11.3213C17.5183 11.3548 17.5026 11.5181 17.5026 11.7708V12.1711L17.6279 12.2427L17.7531 12.3187L17.7576 12.7861C17.7576 13.0455 17.7576 13.4615 17.7531 13.7209C17.7487 14.0005 17.7665 14.2174 17.7956 14.2621C17.8292 14.3158 17.8336 14.3695 17.8001 14.45C17.7576 14.5618 17.7531 14.5618 17.4423 14.5462C17.0867 14.5305 17.0218 14.5037 17.0867 14.4209C17.1336 14.3628 17.1538 11.4465 17.1158 10.0756L17.0956 9.40471L17.3953 9.38905C17.8426 9.36893 17.8381 9.36445 17.8381 9.66413C17.8381 9.80949 17.8582 9.94368 17.8873 9.97275C17.9253 10.0108 17.9253 10.0219 17.8873 10.0219C17.7956 10.0219 17.8336 10.1382 17.9343 10.1606C18.0841 10.1897 18.6723 10.1651 18.7148 10.1226C18.7304 10.1025 18.7573 9.78042 18.7684 9.40471L18.7841 8.72037L18.6678 8.60408C18.5672 8.50344 18.4799 8.4699 18.2004 8.42517C18.1736 8.41623 17.7509 8.41623 17.2678 8.42293ZM5.34789 8.50344C5.30987 8.54146 5.29869 8.77852 5.30987 9.35774C5.32329 10.2926 5.31882 10.221 5.36802 10.1427C5.40156 10.0935 5.41051 10.1047 5.41051 10.1919C5.41051 10.2501 5.39038 10.3082 5.36131 10.3172C5.32329 10.3306 5.31211 10.5095 5.31211 10.9389C5.30764 11.4599 5.29869 11.5561 5.23607 11.6187C5.17345 11.6769 5.16003 11.7686 5.16003 12.1532C5.16003 12.4082 5.17345 12.6027 5.18911 12.5916C5.22713 12.5535 5.36802 12.6832 5.36802 12.7593C5.36802 12.7884 5.3546 12.813 5.33895 12.813C5.31882 12.813 5.30093 13.3855 5.29198 14.0855C5.28751 14.7855 5.30093 15.358 5.31658 15.358C5.33671 15.358 5.37473 15.4049 5.39933 15.4631C5.44629 15.5637 5.46195 15.5682 5.86226 15.5682C6.4795 15.5682 6.44596 15.6442 6.43477 14.1257C6.42583 13.4615 6.41912 12.9002 6.41017 12.8778C6.36321 12.6989 6.38557 12.69 6.97822 12.69C7.62006 12.69 7.86159 12.643 8.00472 12.4932L8.10088 12.388L8.1143 10.5788C8.12325 9.35998 8.10983 8.73826 8.08075 8.68459C7.97564 8.49226 7.86382 8.47661 6.59132 8.46319C5.71019 8.45648 5.3792 8.46543 5.34789 8.50344ZM6.99387 9.50311C6.99834 9.5456 6.99834 9.99064 7.00282 10.4961C7.00282 11.0015 7.01623 11.3794 7.02294 11.3392C7.05649 11.2139 7.11911 11.2631 7.11911 11.4175C7.11911 11.5382 7.10569 11.5628 7.05202 11.5427C7.00505 11.527 6.99387 11.5382 7.00953 11.5919C7.02965 11.6545 7.00505 11.6635 6.75458 11.65C6.59579 11.6411 6.4549 11.6075 6.42136 11.5785C6.35426 11.5114 6.34979 11.3906 6.41241 11.3906C6.44148 11.3906 6.45043 11.0977 6.43254 10.4357C6.42359 9.91013 6.42359 9.46733 6.43701 9.45614C6.45266 9.44273 6.58238 9.43154 6.72998 9.43154C6.95362 9.43378 6.99387 9.44496 6.99387 9.50311ZM8.91716 8.49003C8.8456 8.57277 8.8702 9.49864 8.94624 9.48298C8.97084 9.47851 8.99544 9.50311 8.99544 9.53665C8.99544 9.5702 8.97084 9.5948 8.94624 9.58585C8.90822 9.58138 8.88809 9.64847 8.87914 9.79831C8.8702 9.97275 8.87914 10.0152 8.92164 9.99064C8.96413 9.96604 8.96413 9.97051 8.93058 10.0197C8.86349 10.1069 8.81876 14.8324 8.88138 15.112C8.9194 15.2618 8.96413 15.3423 9.06924 15.4161L9.20789 15.5235L10.3015 15.5078C11.5203 15.4921 11.6075 15.4698 11.7395 15.2148C11.8312 15.0359 11.8692 13.6292 11.8468 11.1804C11.8379 10.183 11.8312 9.19001 11.8312 8.98203C11.8312 8.7405 11.8155 8.58619 11.7842 8.56383C11.7551 8.55041 11.7261 8.55935 11.7171 8.58395C11.697 8.65552 11.6254 8.64657 11.6254 8.57054C11.6254 8.52134 11.5583 8.50792 11.2698 8.50792C10.6973 8.50792 10.7398 8.36926 10.7443 10.2926C10.7488 11.1804 10.7599 12.1577 10.7734 12.4574C10.7935 12.8532 10.7868 13.012 10.7532 13.012C10.6772 13.012 10.6996 13.1708 10.7823 13.2155C10.8315 13.2491 10.8405 13.2692 10.8024 13.2915C10.7734 13.3161 10.7488 13.5219 10.7398 13.8954C10.7264 14.3784 10.7152 14.4791 10.6526 14.5417C10.581 14.6132 10.5743 14.6132 10.5229 14.5417C10.4603 14.4634 10.2858 14.45 10.1606 14.5171C10.0354 14.5797 9.90564 14.4589 9.93919 14.3091C9.96826 14.1839 9.98839 10.7219 9.96826 9.46733L9.95261 8.60855L9.7737 8.51239C9.65293 8.4453 9.56571 8.4207 9.51428 8.4453C9.436 8.47884 9.15646 8.47884 9.03569 8.44083C8.99767 8.44083 8.94623 8.45648 8.91716 8.49003ZM12.634 8.48555C12.5871 8.54817 12.5714 10.0622 12.6184 10.2657C12.6385 10.344 12.6385 10.5408 12.6273 10.704C12.6117 10.8673 12.6139 11.0171 12.6363 11.0462C12.6899 11.1133 12.6363 11.2676 12.5602 11.2676C12.5267 11.2676 12.511 11.2877 12.5222 11.3101C12.5356 11.3347 12.5177 11.3817 12.4842 11.4175C12.4082 11.4935 12.388 12.0772 12.4596 12.1219C12.4842 12.1353 12.5021 12.1845 12.5021 12.227C12.5021 12.2695 12.5222 12.3098 12.5491 12.3187C12.5871 12.3321 12.5983 12.7056 12.5983 13.6874C12.5938 14.4724 12.6117 15.0628 12.6363 15.0941C12.6564 15.1187 12.6564 15.1522 12.6407 15.1612C12.6206 15.1746 12.6117 15.2618 12.6206 15.3535L12.6363 15.5235L13.75 15.51C15.4094 15.4966 15.3132 15.6151 15.3177 13.5621C15.3177 12.1823 15.3132 12.1197 15.235 12.0347C14.9845 11.7641 14.9554 11.7127 15.0225 11.6769C15.1902 11.5852 15.2305 11.3929 15.2394 10.7667C15.2439 10.4334 15.2528 9.82738 15.2596 9.42036C15.273 8.72037 15.2685 8.67341 15.1835 8.59514C15.0538 8.46543 14.8592 8.44083 13.7276 8.43635C12.9382 8.43635 12.6676 8.4453 12.634 8.48555ZM14.195 9.43825C14.2196 9.48074 14.2196 9.79607 14.195 11.0194C14.1906 11.3235 14.1704 11.3414 13.8573 11.29L13.6784 11.2654L13.6538 10.9031C13.6404 10.7018 13.6292 10.5117 13.6248 10.4782C13.6248 10.4446 13.6382 10.1852 13.6538 9.90342L13.6829 9.39353H13.9244C14.0564 9.39129 14.1771 9.41142 14.195 9.43825ZM14.1771 12.3702C14.1928 12.3948 14.2107 12.7168 14.2107 13.0836C14.2107 13.4503 14.2152 13.9222 14.2152 14.1347C14.2196 14.3426 14.2107 14.535 14.195 14.5551C14.1615 14.6088 13.7276 14.5886 13.6561 14.526C13.6091 14.488 13.6024 14.4388 13.627 14.3248C13.6471 14.242 13.665 13.7701 13.665 13.2737C13.665 12.4976 13.674 12.3679 13.7321 12.3277C13.8104 12.2695 14.1324 12.2986 14.1771 12.3702Z" fill="currentColor"/>
</g>
<defs>
<clipPath id="clip0_7156_559">
<rect width="20" height="11.5778" fill="currentColor" transform="translate(2 6.20001)"/>
</clipPath>
</defs>
</svg>
