<svg width="24" height="24" viewBox="0 0 24 24" fill="none" xmlns="http://www.w3.org/2000/svg">
<path d="M5.8319 2C5.65394 2 5.49053 2.09777 5.41106 2.2511C5.33047 2.40553 5.34838 2.58997 5.45583 2.72774L6.77657 4.4232V19.5768L4.9835 21.2723C4.87605 21.41 4.85814 21.5945 4.93873 21.7489C5.0182 21.9022 5.18161 22 5.36069 22H19.055C19.1982 22 19.3337 21.9378 19.4243 21.83L21.7849 19.5568C21.8968 19.4201 21.9192 19.2346 21.8408 19.0768C21.7625 18.9191 21.5968 18.8191 21.4155 18.818H11.4988V2.45553C11.4999 2.20332 11.2895 2 11.0287 2H5.8319ZM12.4434 3.81768V4.72763C17.1309 4.72763 20.9432 8.39742 20.9432 12.9083C20.9432 14.7915 20.2716 16.5236 19.1568 17.908H20.3231C21.345 16.4259 21.889 14.686 21.8878 12.9083C21.8878 7.89634 17.6514 3.81768 12.4434 3.81768ZM12.4434 5.63646V17.908H17.9167C19.2038 16.6036 19.9985 14.846 19.9985 12.9083C19.9985 8.89851 16.6094 5.63646 12.4434 5.63646ZM5.83302 6.42753C4.20113 7.96967 3.14454 10.0751 3.01358 12.4139C2.99008 12.8438 2.99679 13.276 3.03597 13.7049C3.23744 15.9226 4.27164 17.9136 5.83302 19.3901V18.0391C4.60966 16.5881 3.9437 14.7771 3.9437 12.9083C3.9437 11.0406 4.60966 9.22849 5.83302 7.77857V6.42753ZM5.83302 9.39514C5.21295 10.4695 4.88724 11.6795 4.88836 12.9083C4.88836 14.1815 5.2331 15.3793 5.83302 16.4214V9.39514Z" fill="currentColor"/>
</svg>
