<svg width="24" height="24" viewBox="0 0 24 24" fill="none" xmlns="http://www.w3.org/2000/svg">
<path fill-rule="evenodd" clip-rule="evenodd" d="M17.3245 4.49873C17.3245 5.43692 16.5639 6.19748 15.6257 6.19748C14.6876 6.19748 13.927 5.43692 13.927 4.49873C13.927 3.56054 14.6876 2.79999 15.6257 2.79999C16.5639 2.79999 17.3245 3.56054 17.3245 4.49873ZM12.9809 7.92787C12.9809 8.86606 12.2203 9.62662 11.2821 9.62662C10.3439 9.62662 9.58337 8.86606 9.58337 7.92787C9.58337 6.98968 10.3439 6.22913 11.2821 6.22913C12.2203 6.22913 12.9809 6.98968 12.9809 7.92787ZM22 8.57851V11.8087C21.8367 12.8732 20.3124 12.7911 20.306 11.719C20.3018 11.0473 20.299 10.3757 20.2977 9.70397C20.2977 9.68936 20.2908 9.6794 20.277 9.67409L18.7846 9.09323C18.7832 9.09268 18.7818 9.09252 18.7803 9.09275C18.7796 9.09287 18.7789 9.09309 18.7782 9.0934C18.7776 9.0937 18.777 9.09409 18.7764 9.09455C18.7753 9.0955 18.7745 9.09673 18.774 9.09811C18.7736 9.09949 18.7735 9.10097 18.7738 9.10239C19.4861 12.6731 20.1963 16.2428 20.9044 19.8116C20.9514 20.0485 20.9674 20.219 20.9522 20.3231C20.861 20.951 20.1734 21.2518 19.6236 20.9494C19.3316 20.7888 19.2423 20.5187 19.1638 20.1701C18.723 18.2124 18.2811 16.2517 17.8384 14.2879L17.8377 14.2859C17.8376 14.2855 17.8373 14.2852 17.8371 14.2848C17.8369 14.2845 17.8367 14.2842 17.8364 14.284C17.8358 14.2833 17.8352 14.2828 17.8344 14.2823L17.8327 14.2816C17.832 14.2813 17.8312 14.2812 17.8304 14.2812C17.8297 14.2812 17.829 14.2813 17.8283 14.2814C17.8269 14.2817 17.8255 14.2825 17.8245 14.2835L16.0584 15.9655C16.0564 15.9675 16.0548 15.9699 16.0537 15.9724C16.0526 15.9749 16.052 15.9776 16.052 15.9802C16.0512 17.3842 16.0488 18.789 16.0448 20.1948C16.0438 20.547 15.8969 20.8052 15.6042 20.9693C15.1556 21.2211 14.5815 20.9928 14.4066 20.5187C14.3695 20.4183 14.3509 20.2664 14.3509 20.063C14.3506 18.2816 14.3507 16.5004 14.3513 14.7193C14.3513 14.7053 14.3563 14.6933 14.3664 14.6835L16.1197 13.0226C16.1246 13.018 16.1282 13.0122 16.1303 13.0059C16.1323 12.9995 16.1326 12.9928 16.1313 12.9863L15.6305 10.482C15.6271 10.4658 15.6199 10.464 15.609 10.4764C15.1113 11.0366 14.5304 11.4909 13.8664 11.8394C13.8537 11.846 13.8404 11.8485 13.8266 11.8469C12.999 11.7534 12.2965 11.4096 11.7191 10.8155C11.7186 10.815 11.7182 10.8144 11.7178 10.8137C11.7175 10.8131 11.7172 10.8124 11.717 10.8116C11.7167 10.8102 11.7167 10.8086 11.7172 10.8072C11.7176 10.8058 11.7184 10.8045 11.7196 10.8035C11.7207 10.8025 11.722 10.8018 11.7235 10.8015C12.7179 10.6251 13.6154 10.1223 14.2501 9.3474C14.3582 9.21514 14.5073 8.99562 14.6975 8.68886C14.8749 8.40255 15.053 8.11664 15.2317 7.83112C15.4354 7.5063 15.5899 7.29104 15.695 7.18533C16.1106 6.76821 16.7368 6.56702 17.3213 6.66144C17.4713 6.68561 17.7102 6.76662 18.038 6.90446C19.3604 7.46062 20.6811 8.01863 22 8.57851ZM6.45439 17.5347V15.7001C6.45439 15.6764 6.46289 15.6727 6.47989 15.6889L7.53364 16.6941C7.54426 16.7042 7.54957 16.7165 7.54957 16.7311C7.55196 17.8721 7.55223 19.0132 7.55037 20.1545C7.54878 21.3596 9.23796 21.3572 9.24274 20.2143C9.24832 18.8039 9.25177 17.3978 9.2531 15.9957C9.2531 15.9805 9.24765 15.9675 9.23677 15.9566L7.46233 14.183C7.4607 14.1814 7.45941 14.1795 7.45852 14.1774C7.45764 14.1752 7.45719 14.173 7.45719 14.1707C7.45719 14.1685 7.45764 14.1662 7.45852 14.1642C7.45941 14.1621 7.4607 14.1602 7.46233 14.1587L9.44273 12.1783C9.4447 12.1763 9.44706 12.1747 9.44966 12.1736C9.45226 12.1725 9.45505 12.1719 9.45787 12.1719C9.4607 12.1719 9.46349 12.1725 9.46609 12.1736C9.46869 12.1747 9.47104 12.1763 9.47301 12.1783C9.84312 12.5663 10.2483 12.9747 10.6499 13.281C11.3497 13.8149 12.1329 14.176 12.9996 14.3643C13.2399 14.4163 13.4249 14.4321 13.5545 14.4117C14.3573 14.2838 14.529 13.1492 13.8091 12.7775C13.739 12.7413 13.5977 12.7016 13.3852 12.6583C12.5231 12.4828 11.7786 12.0804 11.1518 11.4512C10.5922 10.889 10.0332 10.3259 9.47461 9.76203C8.92443 9.20707 8.04119 9.1007 7.39181 9.50029C7.26432 9.57891 7.06539 9.75353 6.79502 10.0242C6.02665 10.7928 5.25802 11.5612 4.48912 12.3293C4.21954 12.5986 4.04545 12.7981 3.96683 12.9277C3.77507 13.2435 3.69659 13.5926 3.73138 13.975C3.7436 14.11 3.78755 14.2819 3.86325 14.491C4.14982 15.2835 4.43667 16.0746 4.72378 16.8642C4.72567 16.8694 4.72604 16.8751 4.72484 16.8806C4.72364 16.886 4.72092 16.891 4.717 16.8949C3.94811 17.6648 3.18 18.4326 2.4127 19.1984C2.2382 19.3726 2.12639 19.5119 2.07725 19.6163C1.91033 19.9692 2.02267 20.3951 2.32983 20.635C2.67405 20.9035 3.15252 20.8545 3.45968 20.5473C4.45247 19.5556 5.44593 18.5629 6.44005 17.5693C6.44961 17.5598 6.45439 17.5482 6.45439 17.5347Z" fill="currentColor"/>
</svg>
