<svg width="24" height="24" viewBox="0 0 24 24" fill="none" xmlns="http://www.w3.org/2000/svg">
<path d="M21.6279 2.37225C19.6915 1.95009 17.6926 1.8871 15.7374 2.18279L21.8173 8.26268C22.113 6.30757 22.05 4.30868 21.6279 2.37225Z" fill="currentColor"/>
<path d="M2.37222 21.6278C4.3086 22.05 6.30754 22.1129 8.26265 21.8172L2.18281 15.7374C1.88711 17.6925 1.95006 19.6914 2.37222 21.6278Z" fill="currentColor"/>
<path d="M6.73536 6.7353C4.59968 8.87099 3.18664 11.4556 2.49573 14.1853L9.81458 21.5041C12.5443 20.8132 15.1289 19.4002 17.2646 17.2645C19.4002 15.1288 20.8132 12.5442 21.5042 9.81452L14.1854 2.49567C11.4556 3.18658 8.87105 4.59961 6.73536 6.7353ZM15.808 11.2552L14.7426 10.1897L13.0025 11.9297L14.068 12.9951L13.1355 13.9276L12.0701 12.8622L10.1898 14.7425L11.2552 15.8079L10.3228 16.7404L7.25946 13.677L8.19191 12.7446L9.25734 13.81L11.1376 11.9297L10.0722 10.8643L11.0047 9.93184L12.0701 10.9973L13.8101 9.25723L12.7447 8.19181L13.6772 7.25935L16.7405 10.3227L15.808 11.2552Z" fill="currentColor"/>
</svg>
