<svg width="24" height="24" viewBox="0 0 24 24" fill="none" xmlns="http://www.w3.org/2000/svg">
<path d="M10.2624 14.8842V19.6942C8.25126 19.562 6.27674 18.7476 4.71485 17.2508C6.2698 15.8456 8.22008 15.0174 10.2624 14.8842ZM10.2624 11.4315V13.7129C7.92729 13.8476 5.69663 14.7852 3.92506 16.3885C2.83547 15.0308 2.20381 13.4272 2.03019 11.7842L2 11.4315H10.2624ZM11.7516 13.7372L11.4317 13.713V11.4315L14.327 11.4308C13.262 11.9358 12.3671 12.7411 11.7516 13.7372ZM3.92502 5.30564C5.59821 6.81999 7.68086 7.74049 9.87425 7.9515L10.2624 7.98135V10.2623H2C2.11599 8.49708 2.75772 6.76019 3.92502 5.30564ZM17.7692 5.30571C18.8586 6.6633 19.4902 8.26679 19.664 9.90964L19.6942 10.2622H11.4317V7.98132C13.7669 7.8467 15.9976 6.90908 17.7692 5.30571ZM11.4317 2C13.4429 2.13209 15.4176 2.94647 16.9793 4.44335C15.5159 5.76598 13.7022 6.57742 11.791 6.77941L11.4317 6.81012V2ZM10.2624 2.00004V6.81015C8.22008 6.6769 6.26977 5.84864 4.71481 4.44331C6.2767 2.94647 8.25126 2.13212 10.2624 2.00004Z" fill="currentColor"/>
<path d="M21.4917 16.41V14.9021C21.4917 14.3425 21.0375 13.8883 20.478 13.8883H17.4367V13.2233C17.5913 13.0844 17.6902 12.8846 17.6902 12.6606C17.6902 12.2409 17.3495 11.9003 16.9298 11.9003C16.5101 11.9003 16.1695 12.2409 16.1695 12.6606C16.1695 12.8846 16.2683 13.0844 16.4229 13.2233V13.8883H13.3816C12.822 13.8883 12.3679 14.3425 12.3679 14.9021V16.4217C12.3481 16.4233 12.3314 16.4243 12.3314 16.4243C12.0658 16.4429 11.861 16.664 11.861 16.9295V17.9433C11.861 18.2237 12.0876 18.4502 12.3679 18.4502V20.9846C12.3679 21.5442 12.822 21.9984 13.3816 21.9984H20.478C21.0375 21.9984 21.4917 21.5442 21.4917 20.9846V18.4502C21.772 18.4502 21.9986 18.2237 21.9986 17.9433V16.961C22.0041 16.8834 21.9925 16.8039 21.9621 16.7304C21.8597 16.483 21.6403 16.4237 21.4917 16.41ZM14.3954 16.9295C14.3954 16.37 14.736 15.9159 15.1557 15.9159C15.5754 15.9159 15.916 16.37 15.916 16.9295C15.916 17.4891 15.5754 17.9433 15.1557 17.9433C14.736 17.9433 14.3954 17.4891 14.3954 16.9295ZM18.9563 19.9708C18.4489 19.9694 14.9028 19.9708 14.9022 19.9708V18.9571C14.9022 18.9571 18.4509 18.956 18.9583 18.9571L18.9563 19.9708ZM18.7038 17.9433C18.2841 17.9433 17.9435 17.4891 17.9435 16.9295C17.9435 16.37 18.2841 15.9159 18.7038 15.9159C19.1235 15.9159 19.4642 16.37 19.4642 16.9295C19.4642 17.4891 19.1235 17.9433 18.7038 17.9433Z" fill="currentColor"/>
</svg>
