<svg width="24" height="24" viewBox="0 0 24 24" fill="none" xmlns="http://www.w3.org/2000/svg">
<path d="M2.24964 18.0845C1.91679 18.4174 1.91679 18.9556 2.24964 19.2886L3.45795 20.4951C3.7908 20.8281 4.33215 20.8281 4.66501 20.4951L7.68578 17.4887L5.27042 15.0793L2.24964 18.0845ZM5.87332 14.4785L8.28868 16.8841C9.30985 15.8678 11.0959 16.759 13.2161 16.9805L5.77786 9.567C5.99892 11.6823 6.89322 13.4621 5.87332 14.4785ZM18.5518 15.0768C21.5537 12.1279 21.5877 7.31152 18.6272 4.32008L18.6259 4.31758C15.6704 1.28859 10.8108 1.21975 7.7712 4.16363L7.68578 4.24874C6.53399 5.30889 5.84066 6.77332 5.75023 8.33287L14.4533 17.0055C16.0184 16.9154 17.4867 16.2233 18.5518 15.078V15.0768Z" fill="currentColor"/>
<path d="M19.437 22C20.8521 22 21.9993 20.8568 21.9993 19.4466C21.9993 18.0364 20.8521 16.8932 19.437 16.8932C18.0218 16.8932 16.8746 18.0364 16.8746 19.4466C16.8746 20.8568 18.0218 22 19.437 22Z" fill="currentColor"/>
</svg>
