<svg width="24" height="24" viewBox="0 0 24 24" fill="none" xmlns="http://www.w3.org/2000/svg">
<path fill-rule="evenodd" clip-rule="evenodd" d="M11.3175 2.03069C11.2703 2.03581 11.0717 2.05258 10.8761 2.06794C4.85523 2.5413 0.979283 8.18234 2.23686 14.6415C2.66906 16.8612 2.36709 16.5901 5.71489 17.7641C8.32198 18.6784 8.67775 18.8033 9.06174 18.9396C9.28425 19.0185 10.8014 19.5531 12.4331 20.1274C14.0648 20.7018 15.8964 21.3466 16.5033 21.5603C17.7905 22.0137 17.7716 22.0084 18.0525 21.9967C18.5285 21.9769 18.5038 21.9989 19.8992 20.3476C20.0947 20.1162 20.4312 19.7199 20.647 19.467C21.4697 18.5024 21.4822 18.4855 21.5076 18.3005C21.5608 17.913 21.3575 17.758 20.6429 17.6411C17.0516 17.0539 13.2273 15.2646 10.3417 12.8213C10.0427 12.5681 9.93584 12.4925 9.81457 12.4481C7.68387 11.6687 7.89731 8.8325 10.1212 8.37426C10.2901 8.33944 10.8184 8.33533 15.1124 8.33533C20.4971 8.33533 20.0814 8.34982 20.2606 8.15569C20.5999 7.78802 20.0638 6.70643 18.8565 5.32306C17.0062 3.20275 13.7241 1.76943 11.3175 2.03069ZM12.6736 10.4662C12.5948 10.4979 12.5505 10.5811 12.5192 10.7559C12.4825 10.9613 12.4045 11.2101 12.3322 11.3529C12.2043 11.6054 12.2293 11.6472 12.7334 12.0239C15.1614 13.8379 18.2249 15.1816 20.9657 15.6344C21.7695 15.7672 22.0769 15.573 21.984 14.991C21.8684 14.2671 21.2211 11.094 21.1333 10.8211C21.0813 10.6592 20.9269 10.5081 20.7745 10.4697C20.6372 10.4352 12.7592 10.4317 12.6736 10.4662Z" fill="currentColor"/>
</svg>
