<svg width="24" height="24" viewBox="0 0 24 24" fill="none" xmlns="http://www.w3.org/2000/svg">
<path d="M21.89 11.7196C21.89 14.133 20.8364 16.4475 18.9611 18.1539C17.0857 19.8604 14.5422 20.8191 11.89 20.8191C10.5768 20.8191 9.27644 20.5838 8.06318 20.1265C6.84992 19.6692 5.74753 18.9989 4.81895 18.1539C2.94358 16.4475 1.89001 14.133 1.89001 11.7196C1.89001 9.30628 2.94358 6.99179 4.81895 5.2853C6.69431 3.57881 9.23785 2.62012 11.89 2.62012C14.5422 2.62012 17.0857 3.57881 18.9611 5.2853C20.8364 6.99179 21.89 9.30628 21.89 11.7196ZM13.3949 3.68582C13.3946 3.65937 13.3555 3.63357 13.2799 3.60992C13.2042 3.58626 13.0934 3.56521 12.9539 3.54795C12.8143 3.5307 12.6487 3.51759 12.4665 3.50937C12.2843 3.50116 12.0891 3.49799 11.892 3.50005C11.6949 3.50211 11.4998 3.50937 11.3179 3.5214C11.1359 3.53343 10.9706 3.55001 10.8315 3.57017C10.6923 3.59034 10.582 3.61371 10.5068 3.63894C10.4317 3.66418 10.3931 3.69078 10.3934 3.71724C10.3936 3.7437 10.4327 3.76949 10.5084 3.79315C10.5841 3.8168 10.6948 3.83786 10.8344 3.85511C10.9739 3.87236 11.1395 3.88547 11.3217 3.89369C11.5039 3.90191 11.6991 3.90508 11.8962 3.90301C12.0933 3.90095 12.2884 3.89369 12.4704 3.88166C12.6524 3.86963 12.8176 3.85306 12.9568 3.83289C13.096 3.81272 13.2063 3.78935 13.2814 3.76412C13.3566 3.73889 13.3951 3.71228 13.3949 3.68582ZM7.04215 4.65137L6.779 4.79939C6.51035 4.95564 6.52406 5.08037 6.82011 5.17357C10.2028 6.24539 13.5855 6.24539 16.9681 5.17357C17.0071 5.16178 17.0417 5.13869 17.0675 5.10722C17.0933 5.07575 17.1092 5.03732 17.1132 4.99681C17.1172 4.95629 17.109 4.91551 17.0898 4.87963C17.0705 4.84376 17.0411 4.8144 17.0051 4.79528L16.7872 4.68015C16.5679 4.56228 16.3363 4.53486 16.0923 4.59791C13.2634 5.34079 10.4372 5.33393 7.6137 4.57735C7.51868 4.55125 7.41925 4.54435 7.32114 4.55706C7.22304 4.56976 7.12822 4.60182 7.04215 4.65137ZM4.41057 6.88821C4.40353 6.90424 4.39998 6.92158 4.40014 6.93916C4.4003 6.95674 4.40416 6.97417 4.41149 6.99037C4.41882 7.00658 4.42946 7.0212 4.44274 7.03334C4.45603 7.04547 4.47167 7.05486 4.4887 7.06091C4.85054 7.17878 5.09725 7.07598 5.22883 6.75252C5.25679 6.68851 5.26187 6.61683 5.24323 6.54952C5.22458 6.48221 5.18335 6.42336 5.12645 6.38285C5.06955 6.34234 5.00044 6.32265 4.93073 6.32707C4.86103 6.33149 4.79496 6.35975 4.74363 6.40712C4.59287 6.54418 4.48185 6.70455 4.41057 6.88821ZM18.6005 6.62916C18.6334 6.9773 18.8226 7.13081 19.168 7.08969C19.3407 7.0705 19.3941 6.98004 19.3283 6.81831C19.2653 6.66206 19.1707 6.525 19.0446 6.40712C19.0058 6.37008 18.9565 6.34603 18.9036 6.33818C18.8506 6.33032 18.7963 6.33904 18.7481 6.36317C18.6998 6.3873 18.6598 6.42569 18.6335 6.47322C18.6071 6.52075 18.5956 6.57515 18.6005 6.62916ZM7.71201 7.11514C7.72209 7.06378 7.71135 7.01052 7.68215 6.96707C7.65296 6.92363 7.6077 6.89356 7.55634 6.88348L6.25708 6.62859C6.20571 6.61851 6.15245 6.62925 6.10901 6.65845C6.06556 6.68764 6.0355 6.7329 6.02542 6.78426L5.94466 7.19582C5.93459 7.24718 5.94533 7.30044 5.97452 7.34388C6.00372 7.38733 6.04897 7.4174 6.10034 7.42748L7.39959 7.68237C7.45096 7.69244 7.50422 7.6817 7.54766 7.65251C7.59111 7.62331 7.62118 7.57806 7.63126 7.5267L7.71201 7.11514ZM17.807 6.75568C17.7975 6.70865 17.7697 6.66731 17.7298 6.64076C17.6898 6.61421 17.6409 6.60463 17.5939 6.61411L16.2637 6.88233C16.2404 6.88702 16.2183 6.89626 16.1986 6.90951C16.1789 6.92276 16.1619 6.93977 16.1488 6.95956C16.1356 6.97935 16.1265 7.00153 16.1219 7.02485C16.1174 7.04816 16.1174 7.07215 16.1221 7.09545L16.2115 7.53883C16.221 7.58586 16.2488 7.6272 16.2888 7.65375C16.3287 7.6803 16.3776 7.68988 16.4246 7.6804L17.7548 7.41218C17.7781 7.40749 17.8002 7.39825 17.8199 7.385C17.8397 7.37175 17.8566 7.35474 17.8697 7.33495C17.8829 7.31516 17.892 7.29298 17.8966 7.26966C17.9011 7.24635 17.9011 7.22236 17.8964 7.19906L17.807 6.75568ZM10.2586 7.38212C10.2613 7.35254 10.2581 7.32273 10.2492 7.29439C10.2403 7.26605 10.2259 7.23973 10.2069 7.21695C10.1878 7.19417 10.1645 7.17536 10.1381 7.1616C10.1118 7.14784 10.083 7.13941 10.0535 7.13677L8.75926 7.02123C8.72967 7.01859 8.69986 7.0218 8.67152 7.03068C8.64318 7.03957 8.61687 7.05395 8.59408 7.073C8.5713 7.09205 8.55249 7.11541 8.53874 7.14173C8.52498 7.16805 8.51654 7.19682 8.5139 7.22641L8.48027 7.60318C8.47763 7.63276 8.48084 7.66257 8.48973 7.69091C8.49861 7.71925 8.51299 7.74557 8.53204 7.76835C8.5511 7.79113 8.57445 7.80994 8.60077 7.8237C8.62709 7.83745 8.65587 7.84589 8.68545 7.84853L9.97965 7.96407C10.0092 7.96671 10.039 7.9635 10.0674 7.95461C10.0957 7.94573 10.122 7.93135 10.1448 7.9123C10.1676 7.89325 10.1864 7.86989 10.2002 7.84357C10.2139 7.81725 10.2224 7.78847 10.225 7.75889L10.2586 7.38212ZM15.3359 7.26366C15.3298 7.19414 15.2964 7.12987 15.2429 7.08501C15.1894 7.04015 15.1204 7.01836 15.0508 7.02443L13.8056 7.1334C13.736 7.13948 13.6718 7.17293 13.6269 7.22639C13.582 7.27985 13.5603 7.34895 13.5663 7.41847L13.5922 7.71341C13.5982 7.78294 13.6317 7.8472 13.6851 7.89207C13.7386 7.93693 13.8077 7.95872 13.8772 7.95264L15.1225 7.84368C15.192 7.8376 15.2563 7.80415 15.3012 7.75068C15.346 7.69722 15.3678 7.62813 15.3617 7.5586L15.3359 7.26366ZM12.7827 7.38315C12.7827 7.35939 12.7781 7.33585 12.769 7.31388C12.76 7.29191 12.7467 7.27194 12.7299 7.25511C12.7131 7.23828 12.6932 7.22492 12.6713 7.21579C12.6493 7.20666 12.6258 7.20194 12.6021 7.2019L11.2369 7.19952C11.189 7.19944 11.1429 7.21842 11.1089 7.25229C11.0749 7.28615 11.0558 7.33213 11.0557 7.38011L11.0549 7.84063C11.0549 7.8644 11.0595 7.88793 11.0685 7.9099C11.0776 7.93187 11.0909 7.95184 11.1077 7.96868C11.1244 7.98551 11.1444 7.99887 11.1663 8.008C11.1882 8.01713 11.2118 8.02185 11.2355 8.02188L12.6007 8.02427C12.6486 8.02435 12.6947 8.00536 12.7287 7.9715C12.7626 7.93763 12.7818 7.89165 12.7819 7.84368L12.7827 7.38315ZM7.71349 17.8142C7.72412 17.7585 7.71218 17.7009 7.68031 17.654C7.64844 17.6071 7.59925 17.5747 7.54355 17.5641L6.26723 17.3206C6.23965 17.3154 6.2113 17.3156 6.18381 17.3213C6.15631 17.327 6.1302 17.338 6.10698 17.3538C6.08375 17.3696 6.06386 17.3898 6.04844 17.4133C6.03302 17.4367 6.02238 17.463 6.01711 17.4906L5.94318 17.8783C5.93256 17.934 5.94449 17.9917 5.97636 18.0386C6.00823 18.0855 6.05743 18.1178 6.11312 18.1284L7.38944 18.3719C7.41702 18.3771 7.44537 18.3769 7.47287 18.3712C7.50036 18.3655 7.52647 18.3545 7.5497 18.3387C7.57293 18.3229 7.59282 18.3027 7.60823 18.2793C7.62365 18.2558 7.6343 18.2295 7.63956 18.2019L7.71349 17.8142ZM17.8118 17.4548C17.8072 17.4304 17.7977 17.4071 17.7841 17.3864C17.7705 17.3656 17.7529 17.3477 17.7323 17.3338C17.7118 17.3198 17.6887 17.3101 17.6643 17.305C17.64 17.3 17.6149 17.2998 17.5905 17.3044L16.2739 17.5556C16.2495 17.5603 16.2262 17.5697 16.2054 17.5833C16.1847 17.5969 16.1668 17.6145 16.1528 17.6351C16.1389 17.6556 16.1291 17.6787 16.1241 17.703C16.119 17.7274 16.1188 17.7525 16.1235 17.7769L16.2067 18.2131C16.2114 18.2375 16.2208 18.2607 16.2344 18.2815C16.2481 18.3022 16.2657 18.3201 16.2862 18.3341C16.3067 18.348 16.3298 18.3578 16.3542 18.3628C16.3785 18.3679 16.4036 18.3681 16.428 18.3634L17.7447 18.1123C17.7691 18.1076 17.7923 18.0982 17.8131 18.0846C17.8338 18.0709 17.8517 18.0533 17.8657 18.0328C17.8796 18.0122 17.8894 17.9891 17.8945 17.9648C17.8995 17.9405 17.8997 17.9154 17.895 17.891L17.8118 17.4548ZM10.2543 18.0785C10.2571 18.0484 10.2539 18.0181 10.2449 17.9892C10.2359 17.9603 10.2213 17.9335 10.2019 17.9103C10.1826 17.887 10.1588 17.8678 10.1321 17.8538C10.1053 17.8397 10.076 17.8311 10.0459 17.8283L8.76008 17.7114C8.69927 17.7058 8.63875 17.7247 8.59184 17.7638C8.54492 17.8029 8.51545 17.859 8.50992 17.9198L8.47636 18.2883C8.47362 18.3184 8.47683 18.3488 8.48582 18.3777C8.49481 18.4065 8.5094 18.4334 8.52876 18.4566C8.54811 18.4798 8.57185 18.499 8.59863 18.5131C8.6254 18.5271 8.65468 18.5358 8.68479 18.5385L9.97061 18.6555C10.0314 18.661 10.0919 18.6422 10.1389 18.6031C10.1858 18.564 10.2152 18.5079 10.2208 18.4471L10.2543 18.0785ZM15.3314 17.9533C15.3284 17.9189 15.3185 17.8854 15.3025 17.8548C15.2865 17.8241 15.2646 17.797 15.2381 17.7748C15.2116 17.7526 15.181 17.7359 15.148 17.7256C15.115 17.7152 15.0803 17.7115 15.0459 17.7146L13.8091 17.825C13.7395 17.8312 13.6753 17.8647 13.6306 17.9183C13.5858 17.9718 13.5641 18.0409 13.5703 18.1105L13.5966 18.4054C13.5997 18.4398 13.6095 18.4733 13.6255 18.5039C13.6415 18.5345 13.6634 18.5617 13.6899 18.5839C13.7165 18.606 13.7471 18.6228 13.7801 18.6331C13.813 18.6434 13.8477 18.6472 13.8822 18.6441L15.119 18.5337C15.1885 18.5275 15.2527 18.4939 15.2975 18.4404C15.3423 18.3868 15.3639 18.3177 15.3577 18.2482L15.3314 17.9533ZM12.7868 18.0781C12.7868 18.0537 12.7821 18.0297 12.7728 18.0072C12.7636 17.9847 12.75 17.9643 12.7328 17.9471C12.7157 17.9299 12.6953 17.9162 12.6729 17.9069C12.6504 17.8975 12.6264 17.8927 12.6021 17.8927L11.2369 17.8903C11.1879 17.8902 11.1408 17.9096 11.106 17.9443C11.0713 17.9789 11.0517 18.0259 11.0516 18.075L11.0508 18.5273C11.0507 18.5516 11.0555 18.5757 11.0647 18.5982C11.074 18.6206 11.0876 18.641 11.1048 18.6583C11.1219 18.6755 11.1423 18.6891 11.1647 18.6985C11.1872 18.7078 11.2112 18.7126 11.2355 18.7127L12.6007 18.7151C12.6497 18.7151 12.6968 18.6957 12.7316 18.6611C12.7663 18.6264 12.7859 18.5794 12.786 18.5304L12.7868 18.0781Z" fill="currentColor"/>
</svg>
