<svg width="24" height="24" viewBox="0 0 24 24" fill="none" xmlns="http://www.w3.org/2000/svg">
<path fill-rule="evenodd" clip-rule="evenodd" d="M14.493 4.51105C14.5121 4.50674 14.5387 4.50027 14.5727 4.48948L16.3974 4.07424C17.332 3.83696 17.4692 3.77979 18.2688 3.39799C18.6378 3.52741 19.6501 4.09581 19.9063 4.42261C20.0765 4.63832 20.0658 4.68578 20.0116 4.91767C20.001 4.96081 19.9903 5.01258 19.9776 5.07298L19.9754 5.08485L19.5746 8.26766C19.1769 8.28276 19.1439 8.25148 19.0344 8.14902C18.9897 8.10695 18.9334 8.05411 18.8334 7.98724C18.2305 7.57631 16.2559 6.09437 15.6328 5.58422L14.4068 4.58547L14.4164 4.57469C14.4292 4.56175 14.4409 4.54341 14.4483 4.52723C14.4557 4.52184 14.4802 4.51645 14.494 4.51213L14.493 4.51105ZM17.3341 20.5373C17.2991 20.5006 2.0117 4.06238 2 4.03973L3.33553 3L22 15.536C21.8448 15.9836 21.7841 16.4981 21.6916 16.9252C21.3631 18.4352 20.9409 19.0942 20.2817 20.5276C19.3385 20.5664 17.4001 20.5599 17.3341 20.5373ZM3.42804 16.0893C3.59923 15.6709 3.83635 14.9968 4.03413 14.6549C5.01026 15.2739 8.82439 19.1611 9.15615 19.6852C8.97219 19.7543 8.18321 19.874 6.87214 20.4046C6.04168 20.7411 5.25695 21.0593 4.49987 20.7994C4.42437 20.7735 4.2234 20.5998 3.92461 20.3378C3.37913 19.861 2.88468 19.517 2.59759 19.3455C2.10846 19.051 2.18395 19.1125 3.42698 16.0893H3.42804Z" fill="currentColor"/>
</svg>
