<svg width="20" height="20" viewBox="0 0 20 20" fill="none" xmlns="http://www.w3.org/2000/svg">
<path fill-rule="evenodd" clip-rule="evenodd" d="M15.0958 2.90674C15.3023 2.59034 15.6849 2.43728 16.0525 2.52399L17.0584 2.76122C17.275 2.8123 17.4577 2.95687 17.5572 3.15588L17.5884 3.21826C17.6678 3.37718 17.8037 3.50073 17.9694 3.56477L19.0379 3.97758C19.1778 4.03164 19.2116 4.21425 19.1002 4.31474L18.7825 4.60148C18.643 4.72736 18.4613 4.79631 18.2735 4.79471L16.747 4.78166C16.5489 4.77997 16.3643 4.8817 16.26 5.05006L15.9068 5.61999C15.7226 5.91719 15.5747 6.2354 15.4663 6.56782L15.2255 7.30629C15.1306 7.59751 15.0822 7.9019 15.0822 8.20821V8.53314C15.0822 8.9079 15.0107 9.27922 14.8715 9.62718L14.4527 10.6743C14.3363 10.9653 14.2677 11.2731 14.2495 11.586L14.0554 14.9264C14.033 15.313 14.1081 15.6989 14.2738 16.0489C14.321 16.1485 14.3964 16.2321 14.4907 16.2894L14.8072 16.4815C14.9812 16.5872 14.9063 16.8548 14.7027 16.8548H13.829C13.682 16.8548 13.5479 16.771 13.4835 16.6388L12.9985 15.6425C12.937 15.5162 12.9122 15.3752 12.9269 15.2356L13.059 13.9803C13.0781 13.7989 13.0801 13.616 13.065 13.4342L12.9329 11.8492C12.9179 11.669 12.7672 11.5304 12.5864 11.5304H12.1803C11.7628 11.5304 11.3501 11.4417 10.9696 11.2701L7.82807 9.85388C7.36164 9.6436 6.82348 9.66495 6.37519 9.91152C6.13643 10.0428 5.95622 10.2596 5.87077 10.5184L5.66899 11.1293C5.45943 11.7638 5.04036 12.3082 4.48058 12.6732L4.24609 12.826C4.39216 13.186 4.4654 13.5726 4.46019 13.9633L4.45634 14.2518C4.45596 14.2808 4.45231 14.3091 4.44574 14.3364C4.37682 14.6219 3.86663 14.6229 3.86663 14.3291V13.8393C3.86663 13.6021 3.8306 13.3673 3.76058 13.1426L2.57244 13.9172C2.23022 14.1403 1.99839 14.4978 1.93429 14.9012L1.78899 15.8157C1.75031 16.0592 1.84007 16.3054 2.02639 16.4669L2.18376 16.6033C2.32293 16.7239 2.24043 16.9526 2.05632 16.9566L1.22593 16.9747C1.00871 16.9794 0.830785 16.8032 0.833371 16.586L0.862572 14.1331C0.864444 13.9759 0.947003 13.8306 1.08117 13.7484L2.33746 12.9795C2.74478 12.7302 3.00267 12.2958 3.02652 11.8188L3.031 11.7293L2.17308 10.1866C1.97675 9.83361 1.88689 9.43125 1.91437 9.02823C1.9848 7.99512 2.80084 7.1692 3.83302 7.08632L4.24601 7.05316C4.44362 7.03729 4.64245 7.04645 4.83777 7.08042L5.1453 7.13391C5.17054 7.1383 5.19432 7.14623 5.2162 7.15713C5.38737 7.08238 5.56621 7.02047 5.75169 6.97275L6.41879 6.80112C6.72704 6.72181 7.04297 6.67611 7.36105 6.66482L9.97595 6.57198L12.2584 6.30428C12.6845 6.25432 13.0663 6.01771 13.3007 5.65845L15.0958 2.90674ZM4.43049 7.6306L3.92696 7.61898C3.33617 7.60534 2.79486 7.94748 2.55368 8.48697C2.36645 8.90576 2.38588 9.38802 2.60618 9.79039L3.08428 10.6636L3.09769 10.3956C3.09783 9.29282 3.60832 8.28574 4.43049 7.6306Z" fill="currentColor"/>
</svg>
