<svg width="24" height="24" viewBox="0 0 24 24" fill="none" xmlns="http://www.w3.org/2000/svg">
<path d="M6.93232 17.183L4.35237 6.32003C4.11861 5.33577 3.65518 4.42083 3 3.65002H8.27687C7.97093 4.41489 7.89653 5.2528 8.06294 6.0596L9.74267 14.2038L12.2052 4.29498L14.6091 14.2038L15.9695 6.1423C16.1137 5.2877 15.9649 4.40943 15.5472 3.65002H21C20.2003 4.41165 19.666 5.40971 19.4756 6.49753L17.5774 17.3446C17.4013 18.3511 17.5528 19.3876 18.0098 20.3015H12.8502C13.0053 19.3706 12.9957 18.4197 12.8218 17.4922L12.2052 14.2038L11.5131 17.4605C11.3131 18.4017 11.3495 19.3778 11.6189 20.3015H6.28339C6.95206 19.4099 7.18984 18.2673 6.93232 17.183Z" fill="currentColor"/>
</svg>
