<svg width="24" height="24" viewBox="0 0 24 24" fill="none" xmlns="http://www.w3.org/2000/svg">
<path d="M10.3838 16.6476C10.3838 17.5813 10.6059 18.4637 11.001 19.2445C10.0882 19.3126 9.16183 19.2309 8.25953 18.993L7.94933 18.9049L7.81938 18.8641L7.68944 18.819V17.7962L7.73974 17.7679L7.78794 17.7354L10.2999 15.8511C10.3429 15.8197 10.3817 15.7809 10.4152 15.7401L10.4634 15.674C10.411 15.9905 10.3838 16.3154 10.3838 16.6476ZM4.24685 15.3387L4.26991 15.3659L4.29401 15.3921L6.93594 17.7029L7.0093 17.7574L7.09 17.8014V18.5853C5.73392 18.0068 4.5581 17.0804 3.67676 15.9035L3.47764 15.6279L4.24685 15.3387ZM5.05379 11.9737H5.06217L8.26896 12.2943C8.28678 12.2964 8.3025 12.3038 8.31507 12.3153L8.33079 12.3342L9.96248 15.2716C9.97506 15.2947 9.97506 15.3209 9.96458 15.3429L9.94048 15.3722L7.42849 17.2565C7.40858 17.2711 7.38448 17.2753 7.36142 17.2691L7.32998 17.2523L4.6891 14.9415C4.67652 14.93 4.66814 14.9153 4.66394 14.8996L4.6629 14.8734L4.97729 12.0439C4.98148 12.004 5.01501 11.9737 5.05484 11.9737H5.05379ZM3.2932 8.22614L4.46273 11.7284C4.43339 11.7798 4.41243 11.8343 4.39881 11.8909L4.38309 11.9768L4.07289 14.7644L3.15067 15.1113L3.12448 15.0694C3.05321 14.953 2.98824 14.8357 2.92641 14.7099C2.31544 13.5268 1.99895 12.2157 2 10.8838C2 10.1638 2.09432 9.44807 2.27981 8.75431L2.37937 8.40848L3.2932 8.22614ZM10.7568 8.19784L14.1785 8.50909L14.2099 8.51118H14.2518L15.4591 10.9246C13.1295 11.2013 11.2242 12.8707 10.6007 15.0757H10.5273L10.5085 15.0274L10.4854 14.9803L8.88203 12.0931L10.7568 8.19784ZM9.06961 5.19436L9.08009 5.23104L9.09057 5.26667L10.0201 7.74721C10.0453 7.81009 10.0799 7.86773 10.1218 7.92013L10.1909 7.99349L8.39891 11.7138L8.36433 11.7054L8.32975 11.6991L5.12296 11.3784L5.0496 11.3753L4.97624 11.3805L3.84443 7.9851L3.86958 7.961L3.90417 7.91908L3.93351 7.87402L5.61026 5.19436H9.07066H9.06961ZM16.1329 4.79089C16.1623 4.81918 16.1937 4.84433 16.2231 4.87263C16.3446 4.98791 16.4578 5.10423 16.5731 5.23418C17.9878 6.77574 18.7707 8.79204 18.7675 10.8838C18.7675 11.0892 18.7571 11.2946 18.7413 11.5C17.9606 11.1059 17.0803 10.8838 16.1476 10.8838H16.1078L14.7831 8.23452C14.8209 8.18422 14.8513 8.12972 14.8733 8.07104L14.9005 7.98196L15.5199 5.19645L15.5335 5.0948L15.5324 4.9921L16.1329 4.79089ZM12.2712 3.6769L12.3068 3.68528L14.8942 4.97952C14.9152 4.99 14.9299 5.00991 14.9362 5.03192V5.0665L14.3168 7.85201C14.3116 7.87821 14.2937 7.89812 14.2707 7.90755L14.233 7.91279L10.6468 7.58687C10.6269 7.58478 10.6091 7.57639 10.5965 7.56172L10.5808 7.53657L9.65124 5.05602C9.64076 5.03192 9.646 5.00363 9.65962 4.98371L9.68896 4.95961L12.2355 3.68528L12.2712 3.6769ZM5.02654 4.44191L5.13658 4.77098L5.13972 4.80242L5.12924 4.83385L5.12505 4.84014L3.42524 7.55753L3.40743 7.57744L3.39066 7.59316L3.36865 7.6005L2.60887 7.75245L2.62983 7.69377C2.65394 7.63613 2.68014 7.57849 2.70529 7.5219C2.75873 7.39929 2.81428 7.27772 2.87401 7.15721C2.90545 7.09433 2.93689 7.03145 2.97042 6.96857C3.03121 6.85434 3.09408 6.74221 3.15906 6.63008L3.26386 6.45716C3.34245 6.32931 3.42524 6.20565 3.51118 6.08304C3.53738 6.04636 3.56043 6.00863 3.58663 5.97195C3.70086 5.81476 3.81928 5.6628 3.94399 5.51399C3.97543 5.47626 4.00896 5.44063 4.04145 5.40395C4.13681 5.29287 4.23532 5.18388 4.33698 5.07908C4.38414 5.02878 4.43339 4.98162 4.48265 4.93236C4.57487 4.84119 4.66918 4.75211 4.7656 4.66513C4.818 4.61692 4.87249 4.56872 4.92698 4.52261C4.95842 4.49431 4.99301 4.47021 5.02549 4.44191H5.02654ZM10.3838 2.50002C10.761 2.50002 11.1362 2.52622 11.5093 2.57862L11.8813 2.63836V3.19378L9.42173 4.42305C9.36619 4.45135 9.31484 4.48593 9.26978 4.52785L9.20585 4.59597H5.70458L5.70039 4.57815L5.69619 4.56033L5.52852 4.05521C6.94328 3.03973 8.64204 2.49583 10.3838 2.50002ZM12.4797 2.76935C13.4962 3.0303 14.4509 3.48092 15.2967 4.09713L15.6089 4.33502L15.2055 4.47126L15.1615 4.44401L12.574 3.14977L12.5279 3.1309L12.4797 3.11623V2.7704V2.76935Z" fill="currentColor"/>
<path d="M21.5184 16.1549V14.726C21.5184 14.1958 21.088 13.7654 20.5577 13.7654H17.6758V13.1352C17.8223 13.0036 17.916 12.8143 17.916 12.602C17.916 12.2043 17.5932 11.8815 17.1955 11.8815C16.7978 11.8815 16.475 12.2043 16.475 12.602C16.475 12.8143 16.5686 13.0036 16.7151 13.1352V13.7654H13.8332C13.3029 13.7654 12.8726 14.1958 12.8726 14.726V16.1661C12.8538 16.1675 12.838 16.1685 12.838 16.1685C12.5863 16.1862 12.3922 16.3957 12.3922 16.6473V17.608C12.3922 17.8736 12.6069 18.0882 12.8726 18.0882V20.4899C12.8726 21.0201 13.3029 21.4505 13.8332 21.4505H20.5577C21.088 21.4505 21.5184 21.0201 21.5184 20.4899V18.0882C21.7839 18.0882 21.9986 17.8736 21.9986 17.608V16.677C22.0039 16.6036 21.9929 16.5282 21.9641 16.4585C21.867 16.2241 21.6591 16.1679 21.5184 16.1549ZM14.7938 16.6473C14.7938 16.117 15.1166 15.6867 15.5143 15.6867C15.912 15.6867 16.2348 16.117 16.2348 16.6473C16.2348 17.1776 15.912 17.608 15.5143 17.608C15.1166 17.608 14.7938 17.1776 14.7938 16.6473ZM19.1158 19.5292C18.635 19.5278 15.2747 19.5292 15.2741 19.5292V18.5686C15.2741 18.5686 18.6369 18.5676 19.1177 18.5686L19.1158 19.5292ZM18.8765 17.608C18.4788 17.608 18.156 17.1776 18.156 16.6473C18.156 16.117 18.4788 15.6867 18.8765 15.6867C19.2742 15.6867 19.597 16.117 19.597 16.6473C19.597 17.1776 19.2742 17.608 18.8765 17.608Z" fill="currentColor"/>
</svg>
