<svg width="24" height="24" viewBox="0 0 24 24" fill="none" xmlns="http://www.w3.org/2000/svg">
<path fill-rule="evenodd" clip-rule="evenodd" d="M8.43303 4.14161C8.43303 4.66468 8.20428 5.1343 7.84135 5.45591H7.84058C9.5281 6.60524 11.5429 7.27958 13.7386 7.27958L13.7722 7.27953L13.769 7.28047L13.7752 7.27984C12.7223 7.71544 11.568 7.95579 10.3576 7.95579C10.0036 7.95579 9.65441 7.93521 9.31112 7.89524C9.59167 8.31324 9.82262 8.76731 9.99551 9.24906C10.8993 9.04938 11.8385 8.94408 12.8023 8.94408C13.6724 8.94408 14.5223 9.02987 15.3443 9.19344C12.4415 9.58382 9.71825 10.5406 7.28934 11.9488C6.1272 10.959 5.39012 9.48494 5.39012 7.83875C5.39012 6.79372 5.68716 5.81807 6.20143 4.99161C5.71697 4.71675 5.39012 4.19629 5.39012 3.59948C5.39012 2.7161 6.10623 2 6.9896 2C7.53133 2 8.01018 2.26932 8.29951 2.68138C8.5059 2.97529 8.9203 3.48244 9.44733 3.48244L9.46034 3.48247L8.35084 3.60806L8.35051 3.60812C8.40411 3.77635 8.43303 3.95561 8.43303 4.14161ZM21.0956 10.1684L21.0748 10.1814C17.9501 10.3316 15.1205 11.6072 12.9825 13.6117C13.9728 14.4907 14.5969 15.7733 14.5969 17.2016C14.5969 19.8517 12.4485 22 9.79844 22C7.14834 22 5 19.8517 5 17.2016C5 15.3438 6.05577 13.7326 7.60004 12.9352C10.7368 11.0711 14.3894 9.9844 18.303 9.9844C18.4789 9.9844 18.6542 9.98656 18.8291 9.99086L21.055 10.1631C21.0685 10.1649 21.0821 10.1666 21.0956 10.1684ZM9.89401 16.2036C10.3685 15.3505 10.9355 14.5559 11.5815 13.8335C11.0495 13.5513 10.4426 13.3914 9.79844 13.3914C9.21494 13.3914 8.66207 13.5226 8.16772 13.757L8.16089 13.7619L8.16006 13.7607C8.12383 13.778 8.08792 13.7958 8.05234 13.8142L9.70304 16.206C9.73865 16.2022 9.77482 16.2003 9.81144 16.2003C9.83923 16.2003 9.86679 16.2014 9.89401 16.2036ZM8.96768 16.6514L7.33894 14.2915C6.51282 14.9904 5.9883 16.0347 5.9883 17.2016C5.9883 19.3059 7.69416 21.0117 9.79844 21.0117C11.9027 21.0117 13.6086 19.3059 13.6086 17.2016C13.6086 16.0484 13.0963 15.0149 12.2869 14.3162C11.651 15.0122 11.0912 15.7789 10.6209 16.6032C10.7495 16.7732 10.8257 16.985 10.8257 17.2146C10.8257 17.7747 10.3716 18.2289 9.81144 18.2289C9.25126 18.2289 8.79714 17.7747 8.79714 17.2146C8.79714 17.0062 8.85995 16.8125 8.96768 16.6514ZM14.4961 11.3965C13.7006 11.8857 12.9613 12.4575 12.2903 13.1001C11.744 12.7674 11.126 12.5409 10.4648 12.449C11.7177 11.8952 13.0737 11.532 14.4961 11.3965Z" fill="currentColor"/>
</svg>
