<svg width="24" height="24" viewBox="0 0 24 24" fill="none" xmlns="http://www.w3.org/2000/svg">
<path d="M11.6553 2.00373C11.3999 2.0163 11.1446 2.03391 10.8881 2.06283C6.03212 7.75575 6.05853 16.2832 10.9547 21.9497C11.2012 21.9698 11.4565 21.9874 11.7131 21.9937L11.7207 22C11.4641 21.9925 11.2075 21.9786 10.9535 21.9497C10.5208 21.8994 10.1007 21.8265 9.68822 21.7284L9.62031 21.7032L9.50209 21.663C9.63289 21.6919 9.72847 21.6127 9.72721 21.4706C9.72218 21.3197 9.60899 21.1587 9.46561 21.1084C9.30589 21.0518 9.14364 20.9914 8.98392 20.9286C9.1122 20.9625 9.21659 20.8871 9.22162 20.75C9.2254 20.5966 9.12101 20.4318 8.9814 20.374C8.82671 20.3086 8.66824 20.2407 8.51354 20.1703C8.63931 20.2118 8.74621 20.1451 8.76131 20.003C8.77388 19.8559 8.6783 19.6861 8.54247 19.6207C8.39029 19.5478 8.24062 19.4698 8.08719 19.3944C8.21044 19.4396 8.32237 19.3793 8.34375 19.2409C8.36639 19.0925 8.28087 18.919 8.15007 18.8486C8.00292 18.7656 7.85451 18.6838 7.70988 18.5983C7.8281 18.6486 7.94255 18.5946 7.97148 18.4587C8.00292 18.3129 7.92746 18.1368 7.79917 18.0588C7.6558 17.9696 7.51619 17.8803 7.37533 17.7847C7.49104 17.8463 7.60801 17.7948 7.64448 17.6615C7.68221 17.5194 7.61807 17.337 7.49607 17.2553C7.35773 17.1584 7.21938 17.0616 7.08481 16.9623C7.198 17.0251 7.31748 16.9811 7.3615 16.8503C7.40929 16.7095 7.35395 16.5284 7.23573 16.4353C7.10367 16.3347 6.97287 16.2304 6.84207 16.1235C6.95149 16.1939 7.07223 16.1574 7.12379 16.0292C7.17913 15.8908 7.1326 15.7047 7.02192 15.6104C6.89364 15.501 6.77038 15.3903 6.64461 15.2759C6.75026 15.3539 6.87351 15.3224 6.93263 15.1967C6.99299 15.0634 6.95652 14.876 6.84962 14.7729C6.72888 14.6597 6.61066 14.5427 6.49369 14.4208C6.59431 14.5038 6.72008 14.4799 6.78296 14.3579C6.85213 14.2271 6.82572 14.0385 6.72385 13.9303C6.61066 13.8108 6.49746 13.6876 6.38679 13.5619C6.48363 13.6499 6.60814 13.6298 6.67983 13.5128C6.75529 13.3845 6.73894 13.1959 6.64336 13.0852C6.5352 12.9557 6.43081 12.8274 6.3239 12.6967C6.41823 12.7885 6.54526 12.7771 6.61946 12.6627C6.70247 12.542 6.69744 12.3508 6.60688 12.2351C6.50627 12.1006 6.40565 11.9685 6.31007 11.8302C6.39685 11.927 6.52388 11.922 6.60563 11.8126C6.69366 11.6944 6.69995 11.5058 6.61443 11.3825C6.52262 11.2467 6.43081 11.1059 6.33774 10.9625C6.42075 11.0644 6.54903 11.0669 6.63707 10.9625C6.7314 10.8493 6.74523 10.6607 6.66851 10.5349C6.58299 10.3916 6.49872 10.2457 6.41697 10.1011C6.49243 10.208 6.61946 10.2143 6.71127 10.1149C6.81189 10.0068 6.83704 9.81687 6.76787 9.6886C6.68738 9.54147 6.6094 9.39308 6.53771 9.24092C6.60814 9.35032 6.73391 9.36667 6.83327 9.27236C6.9364 9.16798 6.97161 8.98186 6.90999 8.84856C6.8383 8.6964 6.77038 8.54298 6.70247 8.3883C6.76787 8.50148 6.89364 8.52411 6.99803 8.43483C7.1087 8.338 7.15272 8.15062 7.09738 8.01606C7.0345 7.86013 6.97287 7.70294 6.91502 7.54323C6.97287 7.66144 7.09738 7.69162 7.20554 7.6061C7.32251 7.5143 7.37533 7.33322 7.3288 7.19111C7.27346 7.03266 7.22315 6.87295 7.17159 6.71073L7.17284 6.71199L7.20429 6.76355C7.25334 6.82517 7.32628 6.84654 7.403 6.81762L7.4596 6.78744C7.58159 6.70318 7.64699 6.52084 7.60549 6.37874C7.55896 6.21903 7.51619 6.05429 7.47721 5.88829C7.52374 6.01279 7.64071 6.05429 7.75767 5.98135C7.88344 5.90338 7.9589 5.72481 7.92746 5.57894C7.89099 5.41671 7.85703 5.24946 7.82684 5.0822C7.86457 5.20796 7.98154 5.25826 8.10228 5.1891C8.23308 5.11867 8.31734 4.94513 8.29345 4.79674L8.25446 4.54523L8.2205 4.29372L8.24314 4.35157C8.28087 4.41948 8.35004 4.45217 8.42928 4.43582L8.48965 4.41445C8.62548 4.34905 8.7198 4.17929 8.70345 4.02964C8.68585 3.86238 8.67075 3.69261 8.65943 3.52033C8.68333 3.65111 8.79526 3.71148 8.92355 3.65866C9.0619 3.60081 9.16503 3.43356 9.15748 3.28391C9.15119 3.11414 9.1449 2.94186 9.1449 2.76957C9.16 2.90287 9.27067 2.97078 9.40021 2.92299C9.54359 2.86892 9.65678 2.70921 9.6593 2.55705L9.66559 2.27536C9.87436 2.22757 10.0857 2.18481 10.3007 2.14709C10.4969 2.11313 10.6931 2.08547 10.8893 2.06283C10.8881 2.06283 10.8893 2.06283 10.8893 2.06283C11.1409 2.03265 11.3999 2.01379 11.6565 2.00498L11.6553 2.00373ZM11.654 2.00624C12.015 1.99367 12.3734 1.99995 12.7281 2.02636L12.7092 2.15966L12.6966 2.29548C12.6928 2.17224 12.601 2.08421 12.4702 2.10182C12.3294 2.12068 12.2011 2.25272 12.1898 2.39482C12.1772 2.55202 12.1671 2.71173 12.1621 2.8664C12.1558 2.74568 12.0577 2.66394 11.9294 2.68532C11.7886 2.71173 11.6703 2.8488 11.6678 2.9909C11.6653 3.15061 11.6653 3.3078 11.6678 3.46248C11.6502 3.34176 11.5509 3.26379 11.4226 3.29523C11.2867 3.32667 11.1786 3.47003 11.1836 3.60962C11.1899 3.76807 11.2 3.924 11.2125 4.07742C11.1874 3.95921 11.083 3.88628 10.961 3.92526C10.8239 3.96299 10.7246 4.11138 10.7397 4.24971C10.7547 4.4069 10.7736 4.56158 10.795 4.715C10.7635 4.59553 10.6554 4.53014 10.5334 4.57416C10.4026 4.62068 10.3108 4.77285 10.3322 4.90866C10.3598 5.06334 10.3862 5.2155 10.4177 5.36893C10.38 5.25197 10.2668 5.19287 10.1485 5.24317C10.0203 5.29347 9.93851 5.45067 9.96995 5.58648C10.0014 5.73864 10.0379 5.88829 10.0781 6.03668C10.0328 5.92602 9.91838 5.8732 9.80142 5.92602C9.67565 5.98387 9.60396 6.14358 9.64295 6.27688C9.68319 6.42778 9.72973 6.57491 9.77626 6.72205C9.72721 6.61138 9.60899 6.56485 9.49454 6.62522C9.3738 6.69061 9.31092 6.85283 9.35619 6.98362C9.40524 7.12949 9.45807 7.27411 9.51466 7.41747C9.45807 7.31058 9.33733 7.26908 9.22791 7.33699C9.1122 7.40741 9.05686 7.57215 9.10969 7.70168C9.16754 7.84378 9.22791 7.98714 9.29079 8.12421C9.22791 8.01984 9.10717 7.98588 9.00153 8.05882C8.88708 8.13679 8.84306 8.30404 8.90091 8.42728C8.96631 8.56813 9.03423 8.7052 9.10466 8.84227C9.03926 8.74167 8.91349 8.71275 8.81413 8.79071C8.7022 8.87245 8.66698 9.04222 8.73364 9.16295C8.80658 9.29876 8.88205 9.43458 8.96002 9.56536C8.88708 9.46853 8.76131 9.44967 8.66447 9.53141C8.56008 9.61944 8.53367 9.79046 8.60284 9.90742C8.68585 10.0382 8.7676 10.169 8.85312 10.2947C8.77514 10.2029 8.64937 10.1878 8.55505 10.2746C8.45569 10.3702 8.43808 10.5412 8.51732 10.6557C8.60284 10.7814 8.69339 10.9047 8.78269 11.0279C8.69968 10.9411 8.57391 10.9336 8.48713 11.0254C8.3928 11.1222 8.38274 11.297 8.46575 11.4026C8.56008 11.5284 8.65692 11.6453 8.75376 11.7648C8.66572 11.6793 8.53995 11.6793 8.45569 11.7774C8.36639 11.8805 8.36639 12.0528 8.45569 12.1572C8.5563 12.2729 8.65943 12.3873 8.76131 12.5005C8.67075 12.4213 8.54247 12.4275 8.46575 12.5269C8.38274 12.6363 8.39029 12.8086 8.48713 12.9079C8.59152 13.0186 8.70094 13.128 8.8091 13.2349C8.71477 13.162 8.58649 13.1745 8.51606 13.2776C8.43682 13.3908 8.45569 13.5644 8.55379 13.6587C8.66698 13.7631 8.78017 13.8662 8.89336 13.9655C8.79778 13.8976 8.67075 13.9177 8.6041 14.0271C8.53367 14.1428 8.56008 14.3151 8.66447 14.4019C8.78017 14.5025 8.8984 14.6006 9.02039 14.6949C8.91852 14.632 8.79275 14.6572 8.73112 14.7704C8.66698 14.8886 8.7022 15.0596 8.81161 15.1426C8.93487 15.2344 9.05812 15.3274 9.18263 15.4142C9.07825 15.3564 8.95499 15.3891 8.8984 15.506C8.84054 15.6293 8.88582 15.7965 9.00027 15.8745C9.12604 15.9625 9.25558 16.0468 9.38512 16.126C9.27696 16.0757 9.15622 16.1134 9.10717 16.2329C9.05435 16.3612 9.10969 16.5259 9.22791 16.5963C9.35871 16.6781 9.49203 16.756 9.62534 16.8315C9.51466 16.7824 9.39518 16.829 9.35368 16.9497C9.3084 17.0805 9.3738 17.2427 9.49454 17.3081C9.63037 17.3835 9.76872 17.454 9.90455 17.5219C9.79136 17.4804 9.67691 17.5344 9.64043 17.6564C9.6027 17.7897 9.67691 17.9494 9.80016 18.0085C9.93976 18.0739 10.0806 18.1393 10.224 18.1997C10.107 18.162 9.99384 18.2211 9.96743 18.3468C9.93599 18.4826 10.0177 18.6398 10.146 18.6914C10.2919 18.7518 10.4353 18.8071 10.5799 18.8599C10.4617 18.8348 10.3523 18.8976 10.3322 19.0246L10.3284 19.0687C10.3284 19.1919 10.4152 19.3176 10.5309 19.3591C10.6793 19.4132 10.8264 19.461 10.9748 19.5075C10.8554 19.4849 10.7485 19.5553 10.7371 19.6836C10.7233 19.8219 10.8227 19.9691 10.9572 20.0106C11.1082 20.0546 11.2591 20.0961 11.41 20.1338C11.2893 20.1175 11.1874 20.1929 11.1811 20.3224C11.1761 20.4633 11.2842 20.6066 11.4201 20.6406C11.5748 20.6771 11.7282 20.711 11.8829 20.7412C11.7596 20.7299 11.6628 20.8129 11.6653 20.9424C11.6678 21.0832 11.7861 21.2216 11.9244 21.248C12.0816 21.2769 12.2388 21.3046 12.3935 21.326C12.2703 21.3209 12.1785 21.4077 12.1885 21.5397C12.2011 21.6818 12.3269 21.8151 12.469 21.8315C12.6287 21.8541 12.7859 21.8705 12.9444 21.8881C12.8714 21.8906 12.8111 21.922 12.7771 21.9736C12.4237 21.995 12.0665 22.0038 11.7131 21.9937C6.51256 16.4001 6.49118 7.61994 11.6553 2.00498L11.654 2.00624ZM12.7268 2.02259C12.8941 2.03265 13.0639 2.05151 13.2286 2.07163C17.4872 2.5998 21.0854 5.85057 21.8526 10.2985C22.7921 15.7399 19.1423 20.9122 13.7003 21.8504C13.5657 21.8742 13.4311 21.8944 13.2978 21.912L13.3355 21.9145C13.1519 21.9396 12.9632 21.9585 12.7771 21.9736C12.9532 21.9522 13.1255 21.9346 13.2965 21.912C13.2223 21.9044 13.1456 21.8994 13.0702 21.8931C13.1934 21.8906 13.2777 21.7925 13.2613 21.6667C13.2437 21.5284 13.1205 21.4102 12.9821 21.3964C12.8299 21.3788 12.6752 21.3587 12.5218 21.3385C12.6438 21.3385 12.7306 21.248 12.7205 21.1222C12.7142 20.9864 12.5998 20.8607 12.4639 20.8393C12.3118 20.8141 12.1571 20.789 12.0036 20.7588C12.1281 20.7689 12.22 20.6833 12.22 20.5563C12.22 20.4205 12.1156 20.2897 11.9823 20.2633C11.8313 20.2306 11.6804 20.1954 11.5295 20.1589C11.6502 20.1728 11.7496 20.0936 11.7559 19.9678C11.7647 19.832 11.6678 19.6987 11.537 19.6622C11.3886 19.6245 11.2415 19.5817 11.0931 19.5365C11.2125 19.5578 11.3157 19.4862 11.3308 19.3604C11.3471 19.2258 11.2578 19.0875 11.1295 19.0448C10.9849 18.9982 10.839 18.9504 10.6956 18.8964C10.8126 18.9253 10.922 18.8561 10.9434 18.7341C10.9673 18.6008 10.8881 18.4575 10.761 18.4097C10.6189 18.3569 10.4781 18.3015 10.3347 18.2399C10.4516 18.2739 10.5623 18.211 10.5925 18.0903C10.6239 17.9595 10.551 17.8136 10.429 17.7583C10.2907 17.6979 10.1536 17.635 10.0152 17.5697C10.1284 17.6074 10.2429 17.5533 10.2793 17.4313C10.3171 17.3031 10.2542 17.1547 10.1347 17.0956C10.0014 17.0277 9.86556 16.9572 9.73224 16.8843C9.84292 16.9283 9.95863 16.8793 10.0039 16.7611C10.0492 16.6353 9.99384 16.4844 9.87814 16.4165C9.74859 16.3448 9.61779 16.2656 9.48825 16.1864C9.59893 16.2367 9.71715 16.1939 9.76494 16.0807C9.81903 15.9562 9.77123 15.8015 9.6593 15.7311C9.53353 15.6494 9.40776 15.5639 9.28451 15.4796C9.38764 15.5349 9.51089 15.4985 9.56497 15.3878C9.62534 15.2671 9.58635 15.1112 9.47693 15.0344C9.35619 14.9464 9.23546 14.8546 9.11723 14.7628C9.21785 14.8257 9.34236 14.7942 9.40273 14.6874C9.46813 14.5717 9.4392 14.4145 9.33481 14.329C9.21911 14.2372 9.10214 14.1403 8.98895 14.041C9.08831 14.1089 9.21156 14.085 9.27822 13.9806C9.34991 13.8674 9.32853 13.709 9.22791 13.6197C9.11723 13.5204 9.00781 13.4185 8.8984 13.3141C8.99398 13.3845 9.11975 13.3682 9.19144 13.2688C9.26941 13.1594 9.25432 13.0022 9.16 12.9079C9.05435 12.801 8.94996 12.6941 8.84557 12.5835C8.93738 12.6602 9.06315 12.6514 9.14113 12.5546C9.22288 12.4502 9.21911 12.2905 9.13107 12.1899C9.03045 12.0817 8.92984 11.9685 8.833 11.8516C8.92103 11.9346 9.0468 11.9296 9.12855 11.8378C9.21911 11.7371 9.22162 11.5787 9.13861 11.4768C9.04429 11.3599 8.94996 11.2417 8.85815 11.121C8.94241 11.2077 9.06818 11.209 9.15622 11.1222C9.24803 11.0279 9.25935 10.8682 9.18138 10.7625C9.09459 10.6406 9.00781 10.5173 8.92355 10.3916C9.00027 10.4809 9.12604 10.4909 9.21911 10.4079C9.31846 10.3199 9.33733 10.1614 9.26438 10.0495C9.18263 9.92377 9.10214 9.7955 9.02542 9.66471C9.09711 9.75903 9.22288 9.77663 9.31972 9.69866C9.42159 9.61441 9.45052 9.45596 9.38512 9.34026C9.30966 9.21199 9.23546 9.07869 9.16503 8.94539C9.23294 9.04222 9.35871 9.06612 9.45807 8.99444C9.56497 8.91395 9.60396 8.75927 9.54359 8.63981C9.47568 8.50525 9.40776 8.36944 9.34488 8.23111C9.40776 8.33171 9.53101 8.36441 9.63414 8.2965C9.74734 8.22356 9.7901 8.06888 9.73727 7.94438C9.67691 7.80983 9.61779 7.66898 9.56246 7.52688C9.62031 7.63251 9.74231 7.66898 9.84795 7.6061C9.96492 7.54071 10.0177 7.38855 9.97246 7.26279C9.91838 7.12195 9.86807 6.97859 9.81902 6.83397C9.86933 6.94212 9.98881 6.98613 10.1007 6.92829C10.219 6.86792 10.2819 6.71702 10.2404 6.58875C10.1976 6.44664 10.1536 6.29951 10.1121 6.15112C10.1586 6.2643 10.2756 6.31334 10.3888 6.26179C10.512 6.20645 10.5824 6.06058 10.551 5.92979C10.512 5.78266 10.4781 5.63553 10.4466 5.48462C10.4843 5.5978 10.5988 5.65439 10.7158 5.61037C10.8415 5.56007 10.9208 5.41671 10.8944 5.28593C10.8692 5.13502 10.8415 4.98537 10.8176 4.83321C10.8516 4.95016 10.9623 5.01304 11.0817 4.97406C11.21 4.93004 11.2968 4.79171 11.2792 4.65715C11.2603 4.50625 11.244 4.35408 11.2289 4.19941C11.254 4.31762 11.3622 4.38552 11.4829 4.35408C11.6137 4.31636 11.7093 4.1818 11.7018 4.04598C11.6892 3.89382 11.6817 3.73914 11.6766 3.58321C11.6942 3.70519 11.7986 3.77687 11.9219 3.75046C12.0552 3.72154 12.1596 3.59075 12.1596 3.45494C12.1571 3.30026 12.1596 3.14558 12.1634 2.98964C12.1734 3.11163 12.2728 3.19085 12.3985 3.17199C12.5344 3.14684 12.6488 3.02108 12.6551 2.88653C12.6627 2.73059 12.6752 2.57591 12.6891 2.41872L12.7017 2.48788C12.723 2.55076 12.7746 2.59603 12.8425 2.60987L12.9142 2.61238C13.0525 2.59603 13.1733 2.47656 13.1884 2.33823C13.201 2.25146 13.2135 2.16218 13.2286 2.07163C13.0613 2.05403 12.8953 2.03768 12.7281 2.02636V2.02259H12.7268ZM8.97889 2.46902L8.81287 2.52309L8.75376 2.57214C8.67327 2.65136 8.62045 2.7658 8.62296 2.87018C8.62799 3.04498 8.63554 3.21978 8.64434 3.3908C8.62296 3.26002 8.51354 3.19462 8.38274 3.25247C8.24062 3.31409 8.13372 3.49518 8.14504 3.64734C8.16013 3.8234 8.17774 3.99191 8.19535 4.16294C8.16768 4.03592 8.057 3.9743 7.92746 4.0397C7.78911 4.1076 7.69227 4.29121 7.71365 4.44463L7.75264 4.70117L7.79666 4.95268V4.95393L7.77151 4.8986C7.73 4.83069 7.65957 4.80051 7.58034 4.82189L7.51745 4.84704C7.38539 4.9225 7.29987 5.11113 7.33131 5.26078C7.36527 5.43055 7.40174 5.5978 7.44073 5.7638C7.3942 5.64056 7.27849 5.59277 7.15775 5.66948C7.02947 5.75248 6.95401 5.94363 6.99299 6.09202C7.03576 6.25801 7.08229 6.42275 7.13134 6.58749C7.07726 6.46676 6.95904 6.42527 6.84207 6.50826C6.71882 6.59755 6.65593 6.79373 6.70247 6.9396C6.75278 7.10183 6.80811 7.26405 6.86471 7.42376L6.8622 7.41999L6.83075 7.3722C6.78045 7.31184 6.70498 7.29423 6.63204 7.32693L6.5767 7.36088C6.45722 7.45771 6.40062 7.65389 6.45722 7.79599C6.51759 7.9557 6.58047 8.11667 6.64587 8.27135L6.64461 8.26757L6.61066 8.22105C6.55658 8.16571 6.48111 8.15062 6.40817 8.18583L6.35283 8.22356C6.23964 8.32416 6.19813 8.52537 6.2585 8.6637C6.32893 8.8209 6.39936 8.97557 6.47483 9.12899C6.4044 9.01707 6.27863 8.99569 6.17927 9.09504C6.06985 9.20319 6.03841 9.4044 6.10884 9.54021C6.18556 9.69238 6.26605 9.84202 6.34654 9.99041C6.27108 9.88352 6.14531 9.86969 6.05098 9.97407C5.94911 10.0872 5.92647 10.2885 6.00194 10.4192C6.08997 10.5701 6.17675 10.7148 6.26605 10.8581C6.1843 10.7563 6.05727 10.7487 5.96798 10.8581C5.87113 10.9763 5.86107 11.1775 5.94282 11.3058C6.03841 11.4492 6.13273 11.5888 6.22958 11.7271L6.22832 11.7246L6.17298 11.6806C6.11387 11.6466 6.04721 11.6479 5.9881 11.6894L5.93402 11.7434C5.84221 11.8654 5.84221 12.0691 5.9315 12.1924C6.03338 12.3307 6.13525 12.4653 6.23964 12.5986C6.14783 12.5043 6.02206 12.5118 5.94408 12.63C5.86107 12.7558 5.87113 12.9595 5.96923 13.079C6.07488 13.2097 6.18304 13.3405 6.29623 13.4688C6.19813 13.3782 6.07237 13.3933 6.00194 13.5141C5.92647 13.6448 5.9466 13.8486 6.05098 13.9605C6.16418 14.0888 6.28114 14.212 6.39685 14.3327C6.29749 14.251 6.17046 14.2699 6.10632 14.3956C6.03841 14.5314 6.06985 14.7326 6.17675 14.8395C6.29749 14.9602 6.42075 15.0785 6.54526 15.1916C6.44087 15.1162 6.3151 15.1413 6.2585 15.2696C6.19562 15.4104 6.23964 15.6091 6.35283 15.711C6.4786 15.8242 6.60814 15.9374 6.73894 16.0455C6.62952 15.9726 6.50627 16.0065 6.4547 16.1398C6.40188 16.2819 6.4547 16.4794 6.57418 16.5737C6.7075 16.6818 6.84207 16.7862 6.97664 16.8881C6.86345 16.8227 6.74271 16.8617 6.69995 16.9975C6.65342 17.1421 6.7163 17.337 6.84207 17.425C6.98042 17.5269 7.12128 17.6237 7.26214 17.718C7.14517 17.6577 7.02695 17.7042 6.99048 17.8425C6.95401 17.9897 7.02695 18.1821 7.15775 18.2663C7.29987 18.3581 7.44576 18.4499 7.59291 18.5367C7.47217 18.4814 7.35647 18.5342 7.3288 18.675C7.29736 18.8259 7.38539 19.0121 7.51745 19.09C7.66586 19.1743 7.8193 19.2585 7.96896 19.339C7.84571 19.29 7.73377 19.3491 7.71239 19.4899C7.68976 19.6408 7.78786 19.8257 7.9262 19.8961C8.07964 19.9728 8.23559 20.0483 8.39029 20.1212C8.26452 20.0797 8.1551 20.1464 8.14378 20.2885V20.3124L8.1551 20.4017C8.18529 20.5211 8.27207 20.6343 8.38148 20.6833C8.53744 20.7538 8.69842 20.8217 8.85815 20.8858C8.72987 20.8506 8.62548 20.9198 8.61919 21.0656C8.61793 21.2203 8.73364 21.3951 8.87953 21.4479C9.04303 21.5108 9.20904 21.5712 9.37003 21.6278C9.33984 21.6202 9.30211 21.6215 9.2757 21.6265H9.28954C9.42159 21.663 9.55365 21.6969 9.68822 21.7296L9.73853 21.746C9.58384 21.712 9.42663 21.6705 9.2757 21.6265H9.28954C5.70009 20.6104 2.82501 17.6187 2.14711 13.6989C1.29692 8.76934 4.21224 4.06233 8.81287 2.52184L8.81916 2.51806L8.97889 2.46776V2.46902Z" fill="currentColor"/>
</svg>
