<svg width="24" height="24" viewBox="0 0 24 24" fill="none" xmlns="http://www.w3.org/2000/svg">
<path d="M11.2952 1.89352C11.2208 1.90139 10.9898 1.92895 10.7862 1.94863C9.49413 2.09034 8.065 2.57843 6.90995 3.27122C5.44166 4.15294 4.24745 5.35351 3.3704 6.82961C2.6852 7.979 2.23101 9.31733 2.04699 10.7265C1.98434 11.2107 1.98434 12.6828 2.04699 13.167C2.36805 15.6193 3.44088 17.6937 5.25764 19.3903C6.25998 20.331 7.50901 21.0632 8.86766 21.5119C9.94049 21.8701 10.7901 22 12 22C12.8927 22 13.2882 21.9646 14.0752 21.8032C16.7729 21.2482 19.1809 19.5083 20.6296 17.0639C21.3148 15.9145 21.769 14.5762 21.953 13.167C22.0157 12.6828 22.0157 11.2107 21.953 10.7265C21.769 9.31733 21.3148 7.979 20.6296 6.82961C19.7525 5.35351 18.5583 4.15294 17.0901 3.27122C15.9585 2.59024 14.6077 2.12576 13.2529 1.94863C12.9084 1.90139 11.538 1.86597 11.2952 1.89352ZM10.3555 4.67647L11.3931 5.43223L11.4009 6.9477L11.4088 8.46316L10.195 9.34882C9.52545 9.83692 8.94988 10.2502 8.91464 10.266C8.87157 10.2857 8.37823 10.1439 7.46202 9.84479C6.69851 9.59681 6.06421 9.37638 6.04855 9.36063C6.02897 9.34489 5.80579 8.67572 5.54738 7.87272L5.07753 6.42023L5.23806 6.21949C5.51214 5.88097 6.24041 5.18425 6.63195 4.88903C7.26625 4.4088 7.79875 4.0939 8.51527 3.779L8.88724 3.61367L9.10258 3.76325C9.22005 3.84985 9.78387 4.25922 10.3555 4.67647ZM15.9898 4.01517C16.4088 4.2238 16.9295 4.55838 17.3681 4.88903C17.7596 5.18425 18.4879 5.88097 18.7619 6.21949L18.9225 6.42023L18.4526 7.87272C18.1942 8.67572 17.971 9.34489 17.9514 9.36063C17.9358 9.37638 17.3015 9.59681 16.538 9.84479C15.6218 10.1439 15.1284 10.2857 15.0854 10.266C15.0501 10.2502 14.4745 9.83692 13.805 9.34882L12.5912 8.46316L12.5991 6.9477L12.6069 5.43223L13.8559 4.52295L15.101 3.61367L15.4025 3.73963C15.567 3.81049 15.8293 3.93251 15.9898 4.01517ZM7.69303 11.1556C8.11198 11.2933 8.47612 11.4232 8.49961 11.4508C8.53876 11.4902 9.46672 14.3203 9.46672 14.4069C9.46672 14.4305 9.07518 14.9934 8.59358 15.6587L7.71652 16.8671H6.17776H4.63508L4.47847 16.6191C4.2083 16.2019 3.78935 15.2965 3.60532 14.7336C3.32341 13.8755 3.08457 12.4388 3.20204 12.3128C3.22944 12.2853 3.79327 11.868 4.45889 11.3839L5.66875 10.5021L6.29914 10.7068C6.64761 10.821 7.27408 11.0217 7.69303 11.1556ZM19.5568 11.3957C20.1911 11.8562 20.7392 12.2617 20.7784 12.2971C20.8332 12.3522 20.8371 12.4112 20.8058 12.7616C20.7549 13.3559 20.5944 14.1275 20.3947 14.7336C20.2106 15.2965 19.7917 16.2019 19.5215 16.6191L19.3649 16.8671H17.8222H16.2835L15.4064 15.6587C14.9248 14.9934 14.5333 14.4305 14.5333 14.4069C14.5333 14.3518 15.4377 11.5453 15.4769 11.4744C15.52 11.4036 18.3078 10.4903 18.3626 10.5297C18.3861 10.5454 18.9225 10.9351 19.5568 11.3957ZM14.3688 16.2255C14.7995 16.8238 15.1911 17.367 15.2381 17.4339L15.3242 17.5559L14.8465 19.0321L14.3649 20.5082L14.0478 20.5948C12.8614 20.9057 11.1386 20.9057 9.95223 20.5948L9.63508 20.5082L9.15348 19.0321L8.6758 17.5559L8.76194 17.4339C8.80893 17.367 9.20047 16.8238 9.63117 16.2255L10.4143 15.1391H12H13.5857L14.3688 16.2255Z" fill="currentColor"/>
</svg>
