<svg width="24" height="25" viewBox="0 0 24 25" fill="none" xmlns="http://www.w3.org/2000/svg">
<path d="M16.5996 17.3004C16.9296 16.8604 17.5502 16.7605 17.9902 17.0905C18.5101 17.4804 19.0697 17.9006 19.5996 18.3004C20.0396 18.6204 20.1298 19.2403 19.7998 19.6803C19.7996 19.69 19.7901 19.6901 19.79 19.6999C19.4701 20.1398 18.8501 20.2299 18.4102 19.9001C17.8802 19.5001 17.32 19.0801 16.79 18.6901C16.3501 18.3701 16.2599 17.76 16.5898 17.32C16.5898 17.32 16.5993 17.3103 16.5996 17.3004ZM13 18.4997L8 15.4997H7V18.4997C7 19.0497 6.55 19.4997 6 19.4997C5.45 19.4997 5 19.0497 5 18.4997V15.4997H4C2.9 15.4997 2 14.5997 2 13.4997V11.4997C2.00018 10.3998 2.90011 9.49966 4 9.49966H8L13 6.49966V18.4997ZM14 9.15005C14.9199 9.96999 15.4999 11.1698 15.5 12.4997C15.5 13.8295 14.9199 15.0295 14 15.8395V9.15005ZM21 11.4997C21.5499 11.4997 21.9998 11.9498 22 12.4997C22 13.0497 21.55 13.4997 21 13.4997H19C18.45 13.4997 18 13.0497 18 12.4997C18.0002 11.9498 18.4501 11.4997 19 11.4997H21ZM18.4199 5.09048C18.8498 4.76056 19.4697 4.84996 19.7998 5.2897C19.7998 5.2997 19.8096 5.30021 19.8096 5.31021C20.1296 5.7502 20.0501 6.37009 19.6201 6.69009C19.0901 7.09007 18.53 7.51984 18 7.90982C17.56 8.23982 16.9501 8.14963 16.6201 7.70963C16.6199 7.70003 16.6104 7.69988 16.6104 7.69009C16.2804 7.26017 16.36 6.64025 16.7998 6.31021C17.3197 5.91028 17.89 5.49042 18.4199 5.09048Z" fill="currentColor"/>
</svg>
