<svg width="24" height="25" viewBox="0 0 24 25" fill="none" xmlns="http://www.w3.org/2000/svg">
<path d="M19 5.5H17V4.5C17 3.95 16.55 3.5 16 3.5H8C7.45 3.5 7 3.95 7 4.5V5.5H5C3.9 5.5 3 6.4 3 7.5V8.5C3 11.05 4.92 13.13 7.39 13.44C8.02 14.94 9.37 16.07 11 16.4V19.5H8C7.45 19.5 7 19.95 7 20.5C7 21.05 7.45 21.5 8 21.5H16C16.55 21.5 17 21.05 17 20.5C17 19.95 16.55 19.5 16 19.5H13V16.4C14.63 16.07 15.98 14.94 16.61 13.44C19.08 13.13 21 11.05 21 8.5V7.5C21 6.4 20.1 5.5 19 5.5ZM5 8.5V7.5H7V11.32C5.84 10.9 5 9.8 5 8.5ZM19 8.5C19 9.8 18.16 10.9 17 11.32V7.5H19V8.5Z" fill="currentColor"/>
</svg>
