<svg width="24" height="24" viewBox="0 0 24 24" fill="none" xmlns="http://www.w3.org/2000/svg">
<path d="M16.0454 9.8835C18.7495 9.81682 20.3897 6.92191 19.1352 4.54708C18.3325 3.02906 16.7921 2 15.0252 2H9.50703C6.91725 2 4.81067 4.21369 4.81067 6.93413C4.81067 8.01319 5.15037 9.05225 5.75465 9.89683L16.0465 9.8835H16.0454Z" fill="currentColor"/>
<path d="M13.6127 18.6172V19.6062H13.8088C14.1362 19.6062 14.4008 19.8674 14.4008 20.1919C14.4008 20.5141 14.1362 20.7775 13.8088 20.7775H13.6127V21.9988H16.2529C16.5791 21.9988 16.8437 21.7355 16.8437 21.4121V17.8037C15.9065 18.2849 14.8235 18.5572 13.6127 18.6172ZM12.116 19.6062H12.4299V18.6283H9.55197C8.65171 18.6283 7.76603 18.4605 6.9364 18.1371V21.4132C6.9364 21.7366 7.20099 21.9999 7.52723 21.9999H12.4299V20.7775H12.116C11.7908 20.7775 11.5251 20.5153 11.5251 20.1919C11.5251 19.8674 11.7897 19.6051 12.1171 19.6051L12.116 19.6062Z" fill="currentColor"/>
<path d="M18.5844 14.5908C18.9712 13.8484 19.1528 13.1128 19.2369 12.6271C19.2862 12.3493 19.3075 12.1226 19.3176 11.9804C19.3254 11.877 19.3311 11.7948 19.3288 11.7325V9.76556C18.4319 10.5679 17.2458 11.0569 15.9475 11.0569H12.4272C12.6234 11.3958 12.7366 11.7892 12.7366 12.2082C12.7366 13.4806 11.6951 14.5163 10.4159 14.5163H9.13785C8.82058 14.5163 8.5459 14.273 8.53133 13.9585C8.51563 13.6217 8.78582 13.3439 9.12216 13.3439H10.4159C11.0438 13.3439 11.555 12.8338 11.555 12.2082C11.555 11.5814 11.0438 11.0713 10.4159 11.0713H5.99873C5.38211 11.3958 4.90452 11.9526 4.64554 12.6538C4.44374 13.2028 4.39665 13.7895 4.511 14.3507C4.63321 14.9553 4.94151 15.5009 5.40229 15.9277C5.73638 16.2366 6.09738 16.5044 6.47856 16.73L6.48417 16.7322C6.74315 16.8734 7.01782 16.9878 7.29922 17.0801C7.85081 17.2601 8.90242 17.5746 9.55267 17.5746H13.0988C16.3478 17.5746 17.8747 15.9521 18.5844 14.5908Z" fill="currentColor"/>
</svg>
