<svg width="24" height="25" viewBox="0 0 24 25" fill="none" xmlns="http://www.w3.org/2000/svg">
<path d="M3.96875 2.5C3.43375 2.5 3 2.93375 3 3.46875V19C3 20.93 4.346 22.5 6 22.5H19C20.654 22.5 22 20.93 22 19C22 17.07 20.654 15.5 19 15.5V3.46875C19 2.93375 18.5662 2.5 18.0312 2.5H16.7109C16.3799 2.5 16.0426 2.65322 15.8926 2.94922C15.7286 3.27522 15.39 3.5 15 3.5C14.61 3.5 14.2714 3.27522 14.1074 2.94922C13.9574 2.65322 13.6201 2.5 13.2891 2.5H12.7109C12.3799 2.5 12.0426 2.65322 11.8926 2.94922C11.7286 3.27522 11.39 3.5 11 3.5C10.61 3.5 10.2714 3.27522 10.1074 2.94922C9.95742 2.65322 9.62006 2.5 9.28906 2.5H8.71094C8.37994 2.5 8.04258 2.65322 7.89258 2.94922C7.72858 3.27522 7.39 3.5 7 3.5C6.61 3.5 6.27142 3.27522 6.10742 2.94922C5.95742 2.65322 5.62006 2.5 5.28906 2.5H3.96875ZM7 6.5H15C15.552 6.5 16 6.948 16 7.5C16 8.052 15.552 8.5 15 8.5H7C6.448 8.5 6 8.052 6 7.5C6 6.948 6.448 6.5 7 6.5ZM7 10.5H12C12.552 10.5 13 10.948 13 11.5C13 12.052 12.552 12.5 12 12.5H7C6.448 12.5 6 12.052 6 11.5C6 10.948 6.448 10.5 7 10.5ZM6 17.5C6.532 17.5 7 18.201 7 19C7 19.799 6.532 20.5 6 20.5C5.468 20.5 5 19.799 5 19C5 18.201 5.468 17.5 6 17.5ZM8.69922 17.5H19C19.532 17.5 20 18.201 20 19C20 19.799 19.532 20.5 19 20.5H8.69922C8.88644 20.0436 9 19.5388 9 19C9 18.461 8.88622 17.956 8.69922 17.5Z" fill="currentColor"/>
</svg>
