<svg width="24" height="24" viewBox="0 0 24 24" fill="none" xmlns="http://www.w3.org/2000/svg">
<path fill-rule="evenodd" clip-rule="evenodd" d="M2.22086 17.7962C1.92638 17.5015 1.92638 17.0254 2.22086 16.7308L4.89352 14.072L7.03053 16.2037L4.35788 18.8637C4.06339 19.1582 3.58443 19.1582 3.28993 18.8637L2.22086 17.7962ZM7.56395 15.6688L5.42694 13.5404C6.06077 12.9087 5.85902 11.9439 5.61503 10.777C5.51166 10.2826 5.40069 9.75188 5.34248 9.19494L10.3223 14.1581C10.1455 14.5513 10.0059 14.9647 9.90781 15.394C8.92995 15.201 8.11916 15.1163 7.56395 15.6688ZM18.5257 10.5971C18.9479 8.48266 18.3448 6.20359 16.711 4.55271L16.7099 4.5505C14.0951 1.87057 9.79544 1.80967 7.1061 4.41429L7.03053 4.48959C6.01148 5.42756 5.39805 6.72322 5.31804 8.10305L10.69 13.4563C11.8512 11.5298 13.9637 10.2415 16.377 10.2415C17.1291 10.2415 17.8519 10.3666 18.5257 10.5971Z" fill="currentColor"/>
<path d="M21.4918 15.8042V14.2962C21.4918 13.7366 21.0376 13.2824 20.478 13.2824H17.4367V12.6175C17.5913 12.4785 17.6902 12.2788 17.6902 12.0548C17.6902 11.6351 17.3496 11.2944 16.9299 11.2944C16.5102 11.2944 16.1695 11.6351 16.1695 12.0548C16.1695 12.2788 16.2683 12.4785 16.4229 12.6175V13.2824H13.3816C12.822 13.2824 12.3679 13.7366 12.3679 14.2962V15.8159C12.3481 15.8174 12.3314 15.8184 12.3314 15.8184C12.0658 15.8371 11.861 16.0582 11.861 16.3237V17.3375C11.861 17.6179 12.0876 17.8444 12.3679 17.8444V20.3788C12.3679 20.9384 12.822 21.3926 13.3816 21.3926H20.478C21.0376 21.3926 21.4918 20.9384 21.4918 20.3788V17.8444C21.772 17.8444 21.9986 17.6179 21.9986 17.3375V16.3551C22.0042 16.2776 21.9926 16.1981 21.9622 16.1246C21.8597 15.8772 21.6403 15.8179 21.4918 15.8042ZM14.3954 16.3237C14.3954 15.7641 14.736 15.31 15.1557 15.31C15.5754 15.31 15.9161 15.7641 15.9161 16.3237C15.9161 16.8833 15.5754 17.3375 15.1557 17.3375C14.736 17.3375 14.3954 16.8833 14.3954 16.3237ZM18.9564 19.365C18.449 19.3636 14.9028 19.365 14.9023 19.365V18.3513C14.9023 18.3513 18.4509 18.3502 18.9583 18.3513L18.9564 19.365ZM18.7039 17.3375C18.2842 17.3375 17.9435 16.8833 17.9435 16.3237C17.9435 15.7641 18.2842 15.31 18.7039 15.31C19.1236 15.31 19.4642 15.7641 19.4642 16.3237C19.4642 16.8833 19.1236 17.3375 18.7039 17.3375Z" fill="currentColor"/>
</svg>
