<svg width="24" height="24" viewBox="0 0 24 24" fill="none" xmlns="http://www.w3.org/2000/svg">
<path fill-rule="evenodd" clip-rule="evenodd" d="M9.08983 5.87855C9.08983 7.02651 8.15923 7.95711 7.01127 7.95711C5.86331 7.95711 4.93271 7.02651 4.93271 5.87855C4.93271 4.73059 5.86331 3.79999 7.01127 3.79999C8.15923 3.79999 9.08983 4.73059 9.08983 5.87855ZM10.3762 17.106C11.2135 18.368 12.8574 18.361 13.69 17.1192C13.7003 17.1035 13.7114 17.1032 13.7233 17.1183C13.8372 17.2644 13.9212 17.366 13.9753 17.4233C14.775 18.269 16.0295 18.2652 16.8104 17.3998C16.827 17.3817 16.8268 17.3637 16.8099 17.3459C15.9849 16.4839 15.1267 15.657 14.2353 14.8651C13.9685 14.6278 13.4986 14.5429 13.1047 14.4717L13.01 14.4545C12.2048 14.3059 11.5177 14.2024 10.5471 14.0563L10.5468 14.0563L10.5468 14.0563L10.5457 14.0561L10.545 14.056C10.3666 14.0292 10.1787 14.0009 9.97871 13.9706C9.34045 13.8744 8.73786 13.5327 8.18642 13.1826C7.571 12.7919 6.97702 12.3704 6.40446 11.9183C6.39801 11.9133 6.39297 11.9067 6.38985 11.8992C6.38672 11.8916 6.38561 11.8833 6.38663 11.8751C6.52179 10.8167 6.61221 9.75435 6.65789 8.68808C6.6583 8.67925 6.65532 8.67059 6.64956 8.66387C6.64381 8.65716 6.63571 8.65289 6.62691 8.65195C5.97411 8.58061 5.4344 8.39805 4.96134 7.92921C4.95983 7.92776 4.95798 7.9267 4.95595 7.92614C4.95393 7.92558 4.9518 7.92553 4.94975 7.92599C4.9477 7.92646 4.9458 7.92742 4.94422 7.9288C4.94264 7.93019 4.94143 7.93194 4.94069 7.93391C4.67444 8.75613 4.42883 9.58618 4.20388 10.4241C4.03727 11.0431 3.8824 11.7146 3.90587 12.359C3.91713 12.6819 4.095 12.91 4.30619 13.1779C4.62907 13.588 5.00271 13.9916 5.38367 14.4031C6.03814 15.1101 6.71419 15.8403 7.19149 16.6668C7.31665 16.8839 7.38308 17.1407 7.44792 17.3914L7.44792 17.3914L7.44793 17.3914C7.46648 17.4632 7.48489 17.5344 7.50452 17.604C7.5089 17.619 7.51703 17.6314 7.52892 17.6411C8.46237 18.414 9.73373 18.0442 10.3546 17.106C10.3558 17.1043 10.3574 17.1029 10.3593 17.1019C10.3612 17.1009 10.3633 17.1004 10.3654 17.1004C10.3675 17.1004 10.3696 17.1009 10.3715 17.1019C10.3734 17.1029 10.375 17.1043 10.3762 17.106ZM13.2958 13.2015C12.03 14.2682 10.2007 13.5501 9.62765 12.1375C9.0978 10.8319 9.71165 9.3353 11.0135 8.80686C11.9254 8.43657 13.0405 8.59896 13.7378 9.32216C14.7914 10.4161 14.37 12.2957 13.2958 13.2015ZM20.1387 19.4761C20.2057 19.4157 20.2711 19.3542 20.3349 19.2916C20.3493 19.2776 20.3632 19.278 20.3767 19.2931C20.799 19.7627 21.3284 20.0156 21.9648 20.0519C21.9693 20.0522 21.9739 20.0515 21.9781 20.0499C21.9824 20.0484 21.9863 20.046 21.9896 20.0429C21.9929 20.0397 21.9955 20.036 21.9973 20.0318C21.9991 20.0276 22 20.0231 22 20.0186V19.2119C22 19.1953 21.9919 19.1865 21.9756 19.1856C21.4087 19.1471 20.9671 18.8688 20.6343 18.4154C20.4621 18.1808 20.25 18.1517 20.0758 18.4004C19.3494 19.4404 18.0076 19.4376 17.2844 18.4061C17.1835 18.262 17.0727 18.1906 16.9052 18.2479C16.8137 18.279 16.7452 18.3713 16.6819 18.4567C16.666 18.4782 16.6504 18.4992 16.6349 18.5187C15.8981 19.446 14.6342 19.386 13.9561 18.4262C13.8941 18.3386 13.84 18.2834 13.7937 18.2606C13.5703 18.1508 13.4478 18.3141 13.3281 18.4736C12.5707 19.4817 11.3092 19.3761 10.5921 18.4009C10.4034 18.1447 10.1965 18.1855 10.0242 18.4258C9.29726 19.4418 7.97851 19.4277 7.2539 18.4093C7.15112 18.2648 7.03332 18.1902 6.86484 18.2545C6.81009 18.2754 6.74939 18.3316 6.68275 18.423C5.93373 19.4498 4.64455 19.4202 3.91477 18.4154C3.73925 18.1733 3.53557 18.1569 3.35114 18.4061C3.01558 18.8594 2.58382 19.141 2.01408 19.1846C2.00469 19.1853 2 19.1901 2 19.1992V20.0266C1.99999 20.0296 2.00061 20.0326 2.0018 20.0354C2.003 20.0381 2.00475 20.0406 2.00695 20.0427C2.00915 20.0448 2.01175 20.0464 2.01459 20.0474C2.01743 20.0484 2.02045 20.0488 2.02347 20.0486C2.5688 20.0214 3.04155 19.8218 3.44171 19.4498C3.49803 19.3975 3.55591 19.3442 3.61536 19.2898C3.6285 19.2779 3.64101 19.2785 3.6529 19.2916C4.58354 20.3175 6.0107 20.2908 6.95776 19.287C6.96996 19.2738 6.98201 19.274 6.9939 19.2874C7.90905 20.3025 9.38408 20.303 10.2978 19.2888C10.3106 19.2747 10.3235 19.2747 10.3363 19.2888C10.9459 19.966 11.8766 20.2387 12.7363 19.9163C13.0944 19.7821 13.3737 19.5685 13.6459 19.2902C13.6584 19.2777 13.6706 19.2779 13.6825 19.2907C14.6169 20.2969 16.0745 20.3086 16.9901 19.287C16.9926 19.2843 16.9955 19.2822 16.9988 19.2808C17.0021 19.2794 17.0057 19.2786 17.0093 19.2787C17.013 19.2787 17.0165 19.2795 17.0199 19.281C17.0232 19.2825 17.0262 19.2847 17.0286 19.2874C17.8626 20.2171 19.2076 20.3166 20.1387 19.4761Z" fill="currentColor"/>
</svg>
