<svg width="24" height="24" viewBox="0 0 24 24" fill="none" xmlns="http://www.w3.org/2000/svg">
<path d="M11.301 9.20498C11.301 9.20498 11.8054 9.24288 12.2322 9.77351L11.9994 9.81141L11.883 9.77351C11.883 9.77351 11.5338 9.35659 11.301 9.20498ZM10.525 11.5549L10.2922 10.9864H10.2146L9.82659 11.4412C10.0982 11.6686 10.525 11.5549 10.525 11.5549ZM14.0946 8.21952L13.9006 8.29533L14.1334 8.71225L14.9094 8.97757C14.599 8.33323 14.0946 8.21952 14.0946 8.21952ZM11.883 9.01547C12.1158 9.28078 12.3486 9.65981 12.3486 9.65981C12.7366 9.28078 13.5514 9.12918 14.599 9.16708C13.1246 8.86386 11.883 9.01547 11.883 9.01547ZM10.4474 8.44694C10.4474 8.44694 10.8742 8.44694 11.4562 8.56064C11.0682 8.29533 10.4474 8.14372 10.4474 8.14372V8.44694ZM14.017 10.5316L13.3574 11.1001L13.8618 11.2517L14.3662 10.7211L14.0946 10.6074L14.017 10.5316ZM9.63259 7.53729C9.63259 7.53729 9.90419 7.68889 9.94299 7.68889C9.98179 7.68889 10.525 7.8784 10.7578 7.95421C10.9518 8.03001 11.0682 7.95421 11.107 7.95421C11.1458 7.95421 11.8054 7.57519 11.8054 7.57519C11.2234 7.34777 10.6802 7.19617 10.6802 7.19617C10.6414 7.19617 9.63259 7.53729 9.63259 7.53729ZM13.5902 7.8784C13.5514 7.8026 13.4738 7.8026 13.0082 7.7268C12.5814 7.68889 12.1934 7.65099 12.1158 7.65099C12.0382 7.65099 11.9994 7.68889 11.9994 7.68889C11.9994 7.68889 11.7666 7.8405 11.5726 7.95421C11.3786 8.06792 11.3398 8.10582 11.301 8.18162C11.2622 8.21952 11.3786 8.37113 11.3786 8.37113L11.689 8.75015C11.7278 8.75015 11.8442 8.82596 11.8442 8.82596C11.8442 8.82596 12.465 8.78806 12.853 8.75015H13.8618C13.9006 8.75015 13.8618 8.59855 13.7842 8.40903C13.7066 8.25743 13.5902 7.8784 13.5902 7.8784ZM9.90419 8.29533C9.90419 8.29533 9.94299 8.29533 10.0206 8.33323C10.0982 8.33323 10.137 8.25743 10.137 8.18162C10.137 8.06792 10.0206 8.03001 10.0206 8.03001H9.94299L9.82659 8.06792L9.78779 8.33323H9.82659L9.90419 8.29533C9.86539 8.21952 9.86539 8.18162 9.86539 8.10582C9.86539 8.06792 9.94299 7.99211 9.98179 7.99211C9.98179 7.99211 10.0594 7.99211 10.0206 8.14372C10.0206 8.29533 9.90419 8.29533 9.90419 8.29533ZM16.4614 11.2896L16.151 11.7065V11.7444H16.5778C16.6554 11.4791 16.4614 11.2896 16.4614 11.2896ZM8.70139 9.31869H8.62379L8.42978 9.28078C8.23578 9.24288 8.31338 8.90176 8.31338 8.90176L8.08058 8.97757C8.00298 8.82596 7.65378 8.40903 7.65378 8.40903L7.57618 8.71225C7.61498 8.75015 7.80898 9.05337 7.84778 9.12918L7.73138 9.24288C7.73138 9.24288 7.69258 9.31869 7.69258 9.35659C7.69258 9.39449 7.65378 9.43239 7.65378 9.43239L7.49858 9.5082H7.45978L6.91657 9.09127V9.39449H6.95537C6.99417 9.47029 7.07177 9.6219 7.26578 9.69771C7.42098 9.77351 7.61498 9.77351 7.69258 9.73561C7.77018 9.77351 7.80898 9.77351 7.84778 9.81141C8.00298 9.88722 8.04178 9.84932 8.04178 9.84932L8.27458 9.77351H8.31338L8.35218 9.73561L8.42978 9.584C8.42978 9.584 8.81779 9.6219 8.97299 9.6219C9.12819 9.39449 9.63259 9.05337 9.98179 9.01547C10.331 9.01547 10.913 9.09127 11.3786 9.5461C11.8054 10.0009 11.689 10.6074 11.689 10.6074L12.5426 10.8727L12.1546 10.6074C11.8442 9.84932 11.107 9.16708 11.107 9.16708C11.107 9.16708 10.913 9.12918 10.7966 9.12918C10.6802 9.09127 10.6026 9.01547 10.6026 9.01547C10.6026 9.01547 10.5638 8.97757 10.4862 8.86386L10.4086 8.71225C10.4086 8.71225 10.331 8.63645 10.2146 8.56064C10.0982 8.48484 9.67139 8.44694 9.43859 8.40903C9.20579 8.37113 9.20579 8.40903 9.20579 8.40903C9.86539 8.56064 10.0594 8.59855 10.0982 8.63645C10.0982 8.63645 10.137 8.71225 10.1758 8.75015C9.63259 8.63645 9.12819 8.71225 9.01179 8.75015C9.08939 8.86386 9.08939 9.01547 9.01179 9.12918C8.93419 9.20498 8.70139 9.31869 8.70139 9.31869ZM16.0734 12.0476L16.1898 12.5404C16.1898 12.5404 16.3062 12.4267 16.4226 12.2751C16.539 12.1234 16.5778 11.9718 16.5778 11.9718L16.1122 12.0097L16.0734 12.0476ZM6.72257 8.59855L6.68377 9.01547H6.91657L6.95537 8.75015V8.90176H6.99417V8.67435H6.95537V8.52274L7.30458 8.71225L7.34338 8.78806L7.42098 8.86386H7.49858L7.53738 8.82596V8.78806C7.30458 8.78806 7.30458 8.67435 7.30458 8.67435C7.30458 8.67435 7.34338 8.40904 7.38218 8.33323C7.42098 8.25743 7.57618 8.29533 7.57618 8.29533L7.53738 8.25743H7.45978C7.38218 8.21952 7.14938 8.06792 7.07178 8.03001V7.99211L7.11058 7.95421V7.8026H7.14938C7.14938 7.7647 7.18818 7.7647 7.18818 7.7268C7.26578 7.7268 7.84778 7.61309 7.84778 7.61309L7.30458 7.49938V7.46148C7.14938 7.42358 7.03298 7.38568 6.95537 7.34777C6.76137 7.57519 6.68377 7.8784 6.68377 7.8784C6.68377 7.8784 6.64497 8.40904 6.64497 8.48484C6.60617 8.56064 6.72257 8.59855 6.72257 8.59855ZM15.8406 11.5928L15.9182 11.7065L15.957 11.6686L16.2674 11.2896V11.2517C16.1122 11.2517 15.8406 11.5928 15.8406 11.5928ZM14.9094 10.9106L14.6766 10.8348L14.1334 11.4412L14.5214 11.5549C14.599 11.2517 14.9094 10.9106 14.9094 10.9106ZM15.7242 11.7823C15.5302 12.1613 15.569 12.4267 15.569 12.4267L15.763 12.0097V11.9339C15.8018 11.9339 15.763 11.8581 15.7242 11.7823ZM15.5302 9.31869C15.5302 9.31869 15.4526 9.47029 15.4138 9.5082C15.375 9.5461 15.1034 9.584 14.9482 9.6219C14.793 9.69771 14.5214 9.81141 14.4438 9.88722C14.405 9.92512 14.405 10.0388 14.405 10.0767C14.405 10.0767 14.4826 10.1146 14.5214 10.1146L14.1722 10.4178L14.2498 10.4937L15.1034 10.759C15.2974 10.6074 15.569 10.5695 15.569 10.5695C15.4138 10.4937 14.7542 10.2283 14.5602 10.1525C14.5602 10.1525 14.4438 10.1146 14.4438 10.0767V9.96302C14.4438 9.96302 14.9482 9.584 15.7242 9.584L15.8406 9.35659L15.5302 9.31869ZM16.0346 12.6541L15.8794 12.1992H15.8406L15.6078 12.6162L15.6466 12.6541C15.8406 12.7299 16.0346 12.6541 16.0346 12.6541ZM10.1758 8.33323L10.2922 8.37113C10.2922 8.37113 10.3698 8.37113 10.3698 8.29533V8.14372L10.2534 8.06792L10.0982 8.03001C10.137 8.06792 10.137 8.10582 10.137 8.10582H10.1758C10.1758 8.06792 10.2146 8.06792 10.2146 8.10582C10.2146 8.10582 10.2922 8.14372 10.2534 8.25743C10.2922 8.29533 10.2146 8.33323 10.1758 8.33323ZM9.82659 10.4178C9.55499 10.9106 9.74899 11.2517 9.74899 11.2517L10.0982 10.759V10.6832L9.82659 10.4178ZM7.30458 7.49938L7.77018 7.61309C7.80898 7.61309 8.08058 7.57519 8.08058 7.57519L7.34338 7.38568L7.30458 7.49938ZM7.57618 7.38568C8.19698 7.46148 8.31338 7.57519 8.31338 7.57519C8.31338 7.57519 8.54618 7.53729 8.66259 7.53729C8.46858 7.38568 7.61498 7.12036 7.61498 7.12036C7.61498 7.12036 7.57618 7.23407 7.57618 7.38568ZM8.50738 8.56064C8.39098 8.63645 8.27458 8.86386 8.31338 9.05337C8.35218 9.24288 8.39098 9.24288 8.50738 9.24288C8.31338 9.16708 8.35218 8.86386 8.50738 8.67435C8.62379 8.52274 8.74019 8.63645 8.74019 8.63645C8.74019 8.63645 8.62379 8.48484 8.50738 8.56064ZM5.75257 14.1702C5.24816 14.1702 4.66616 14.3597 5.01536 14.8903C7.88658 19.7039 10.913 20.8409 12.1934 21.4474C12.7754 21.1821 13.7066 20.7651 14.8318 20.0071C15.4914 19.5902 15.4138 18.9458 15.2586 18.5289C14.4438 16.558 9.98179 14.3218 5.75257 14.1702ZM21.9323 5.18735C20.7683 4.39141 17.897 2.95113 12.1934 2.95113C10.2146 2.95113 8.54619 3.14064 7.22698 3.40595C7.53738 3.89868 7.69258 4.46721 7.69258 5.07365C7.69258 5.90749 7.38218 6.66554 6.87777 7.23407C6.99417 7.27197 7.14938 7.30987 7.34338 7.34777L7.42098 7.15826C7.42098 7.15826 7.49858 7.15826 7.53738 7.19617C7.53738 7.00666 7.65378 7.00666 7.65378 7.00666C7.65378 7.00666 7.65378 6.96875 7.69258 6.96875C7.88658 7.00666 8.42978 7.27197 8.66259 7.38568C8.89539 7.49938 8.89539 7.53729 8.89539 7.53729C8.89539 7.53729 9.43859 7.53729 9.59379 7.49938C9.74899 7.49938 10.0206 7.38568 10.4086 7.27197C10.7966 7.15826 10.8742 7.12036 10.9518 7.12036C11.0294 7.12036 11.7278 7.15826 12.3486 7.23407C12.9694 7.30987 13.5514 7.53729 13.6678 7.61309L13.8618 7.65099L13.9006 7.53729L13.5902 7.42358C13.5902 7.42358 13.629 7.23407 13.629 7.19617C13.629 7.15826 13.6678 7.12036 13.7066 7.12036C13.7454 7.12036 14.0946 7.19617 14.211 7.23407C14.3274 7.27197 14.7154 7.53729 14.7542 7.53729C14.793 7.53729 14.793 7.57519 14.793 7.57519C14.793 7.65099 14.7154 7.8026 14.7154 7.8026L14.599 7.7647L14.7154 7.8026C14.7154 7.8026 14.8318 7.8405 14.8706 7.8784C14.9094 7.91631 15.0258 7.99211 15.1422 8.10582C15.2586 8.18162 15.2198 8.29533 15.2198 8.29533L15.4914 8.56064V8.67435L16.151 9.31869V9.35659L15.8406 9.5461C15.8406 9.5461 16.2674 9.5082 16.5778 9.65981C16.8882 9.81141 16.927 9.88722 16.927 9.96302C16.8494 10.0009 16.733 10.0388 16.733 10.0388C16.5002 10.1146 15.9182 10.4937 15.9182 10.4937V10.5316L16.2286 10.6074C16.5778 10.3041 17.1986 10.1904 17.6642 10.2662C19.2551 10.5695 20.3415 11.5928 20.5743 12.4646C20.5743 12.5025 20.6131 12.5783 20.6131 12.6162C22.2039 8.97757 22.0487 6.36232 21.9323 5.18735ZM16.345 10.7211C16.3838 10.759 16.4226 10.759 16.4614 10.7969C16.6942 10.9485 16.8106 11.0243 16.8494 11.3654C16.8882 11.6307 16.8106 12.0097 16.6166 12.3509C17.703 13.071 19.2163 12.5025 19.7983 13.071C19.6819 11.6307 17.509 10.1904 16.345 10.7211ZM7.42098 8.86386L7.34338 8.90176V9.20498L7.42098 9.16708V8.86386ZM18.6343 13.5637C17.8194 13.5637 17.0046 13.2984 16.4226 12.6162V12.6541C16.0734 13.1089 15.6854 13.1089 15.5302 13.1089C15.375 13.1089 14.8706 12.8815 14.6766 12.6541C14.4826 12.4267 14.4826 12.0097 14.4826 12.0097L13.7066 11.7444L12.7366 11.2138L12.5814 11.1759C12.271 11.3275 11.883 11.2138 11.5338 10.9485C11.495 11.1001 11.301 11.4791 11.0682 11.6686C10.8354 11.8581 10.3698 12.1234 10.0206 12.1234C9.67139 12.1234 8.89539 11.7444 8.66259 11.2138C8.42978 10.6832 8.66259 10.1146 8.66259 10.1146L8.27458 10.0388L8.11938 9.84932C8.11938 9.84932 7.65378 10.2283 7.14938 10.0767C6.64497 9.92512 6.21817 9.5082 6.10177 9.12918C6.02417 8.75015 6.14057 8.40903 6.17937 8.37113C6.10177 8.10582 6.10177 7.95421 6.10177 7.95421H6.06297V7.8405C5.55857 8.18162 4.97656 8.33323 4.35576 8.33323C3.65735 8.33323 2.99775 8.10582 2.45455 7.7647C2.53215 8.59855 2.76495 9.584 3.07535 10.6832C3.50215 12.1992 4.89896 12.692 6.99417 13.0331C11.6114 13.7532 16.0346 17.2023 15.7242 19.3248C16.8882 18.3773 18.1298 16.9749 19.3715 14.8903C19.8759 14.0944 19.4103 13.5637 18.6343 13.5637ZM6.29577 8.33323L6.25697 8.75015H6.52857V8.71225H6.48977V8.67435H6.45097L6.48977 8.59855L6.52857 8.40903L6.48977 8.37113V8.29533L6.52857 8.25743L6.56737 7.8026L6.37337 7.68889C6.45097 7.38568 6.64497 7.12036 6.64497 7.12036H6.52857C6.33457 7.34777 6.25697 7.65099 6.25697 7.65099C6.25697 7.65099 6.21817 8.14372 6.21817 8.21952C6.21817 8.33323 6.29577 8.33323 6.29577 8.33323ZM10.5638 10.8727L10.7578 11.4791C11.1458 11.2138 11.2234 10.7969 11.2234 10.7969L10.6026 10.8348L10.5638 10.8727ZM10.913 9.92512L10.6026 10.4557L10.6414 10.4937L11.2622 10.5316C11.2622 10.1146 10.913 9.92512 10.913 9.92512ZM7.03298 8.75015L6.99417 8.97757H7.03298V8.75015ZM9.98179 10.1904L10.2922 10.4178L10.3698 10.3799L10.719 9.84932C10.2922 9.81141 9.98179 10.1904 9.98179 10.1904ZM7.11058 8.78806L7.07178 8.75015V9.01547H7.11058V8.78806ZM7.22698 8.86386L7.18818 9.12918H7.22698V8.86386ZM7.30458 8.90176L7.26578 9.16708H7.30458V8.90176ZM7.14938 8.82596V9.09127H7.11058L7.14938 8.82596ZM14.8583 7.59774H14.8834L15.1487 7.71522H15.2898C15.7069 7.8713 15.9229 7.953 15.9379 7.96033C15.9529 7.96765 15.992 8.00747 16.0554 8.07976L16.6364 8.33623L16.6156 8.41519L16.6051 8.49238C16.3322 8.36162 16.1923 8.30171 16.1854 8.31265C16.1784 8.32359 16.171 8.35777 16.163 8.41519L15.7462 8.89092L15.7343 8.95113H15.7022L15.4884 8.75373V8.69319L15.6892 8.67434L16.0554 8.31265C16.0719 8.2805 16.0778 8.25979 16.0733 8.25051C16.0664 8.23659 15.7929 8.12347 15.7668 8.10024C15.7494 8.08475 15.7278 8.05661 15.7022 8.01582C15.3902 7.89606 15.2235 7.83215 15.2021 7.8241C15.1808 7.81606 15.1396 7.81227 15.0786 7.81275C15.0646 7.83621 15.0565 7.85004 15.0544 7.85423C15.0523 7.85843 15.0186 7.90054 14.9533 7.98058L14.8834 7.96033C14.8699 7.93329 14.8699 7.91936 14.8834 7.91851C14.897 7.91767 14.932 7.87202 14.9886 7.78155L14.8182 7.71522L14.8583 7.59774ZM16.7133 8.3196C17.2426 8.32122 17.5246 8.32122 17.5594 8.3196C17.6116 8.31717 18.0208 8.40628 18.0229 8.41503C18.0243 8.42086 18.0318 8.43645 18.0455 8.4618L17.6332 8.77068C17.5181 8.76614 17.4368 8.74892 17.3894 8.71903C17.3182 8.67419 17.0712 8.60379 17.0103 8.58295C16.9696 8.56906 16.8608 8.54676 16.6837 8.51605C16.6812 8.44004 16.6812 8.39461 16.6837 8.37977C16.6862 8.36492 16.6961 8.34487 16.7133 8.3196ZM4.5 7.46241C3.11929 7.46241 2 6.35153 2 4.9812C2 3.61087 3.11929 2.5 4.5 2.5C5.88071 2.5 7 3.61087 7 4.9812C7 6.35153 5.88071 7.46241 4.5 7.46241Z" fill="currentColor"/>
</svg>
