<svg width="20" height="20" viewBox="0 0 20 20" fill="none" xmlns="http://www.w3.org/2000/svg">
<path d="M14.0264 1.88721C11.4749 1.88721 8.06441 2.96143 5.51283 5.51301C1.67669 9.34915 1.1859 15.0958 2.66827 16.9914C2.68079 17.0114 2.69331 17.0314 2.70834 17.0515C2.71084 17.0565 2.70583 17.0665 2.70834 17.0715C2.72587 17.099 2.7459 17.1266 2.76843 17.1516C2.78095 17.1641 2.79598 17.1792 2.8085 17.1917C2.84355 17.2293 2.88362 17.2643 2.92869 17.2919C2.9337 17.2944 2.94371 17.2894 2.94872 17.2919C3.57472 17.8177 4.64894 18.1132 5.97356 18.1132C8.52515 18.1132 11.9356 17.0389 14.4872 14.4874C18.3083 10.6663 18.8041 4.93709 17.3518 3.02903C17.3518 3.02152 17.3518 3.01651 17.3518 3.009C17.3418 2.99648 17.3418 2.98146 17.3317 2.96894C17.2591 2.83122 17.1364 2.72355 16.9912 2.66846C16.3602 2.17266 15.311 1.88721 14.0264 1.88721ZM14.0264 3.16926C14.7526 3.16926 15.281 3.27693 15.6691 3.40964L13.7059 5.37278C13.4505 5.62819 13.4505 6.03885 13.7059 6.29426C13.9613 6.54967 14.372 6.54967 14.6274 6.29426L16.6106 4.31109C17.214 6.07391 16.6932 10.4785 13.5857 13.5859C11.1844 15.9873 8.07442 16.8311 5.97356 16.8311C5.2474 16.8311 4.71906 16.7234 4.33093 16.5907L6.29408 14.6276C6.50191 14.4348 6.557 14.1293 6.4318 13.8764C6.3091 13.621 6.03115 13.4808 5.75321 13.5258C5.61048 13.5409 5.47527 13.606 5.3726 13.7061L3.38943 15.6893C2.78596 13.9265 3.3068 9.52192 6.41427 6.41445C8.8106 4.01812 11.9231 3.16926 14.0264 3.16926ZM10.5409 5.97375C10.3781 5.97375 10.2028 6.03134 10.0801 6.15403L10 6.23416C9.75211 6.48206 9.75211 6.88771 10 7.1356L10.9615 8.11718L10.0401 9.03865L9.0585 8.07711C8.8106 7.82921 8.40245 7.82921 8.15706 8.07711L8.07693 8.15724C7.82903 8.40514 7.82903 8.81078 8.07693 9.05868L9.03847 10.0403L8.11699 10.9617L7.13542 10.0002C6.88752 9.75229 6.47937 9.75229 6.23398 10.0002L6.15385 10.0803C5.90595 10.3282 5.90595 10.7339 6.15385 10.9818L7.11539 11.9633L6.65465 12.4241C6.39924 12.6795 6.39924 13.0901 6.65465 13.3455C6.91006 13.6009 7.32072 13.6009 7.57613 13.3455L8.03686 12.8848L9.01843 13.8463C9.26383 14.0942 9.67198 14.0942 9.91988 13.8463L10 13.7662C10.2479 13.5183 10.2479 13.1102 10 12.8648L9.03847 11.8832L9.95994 10.9617L10.9415 11.9233C11.1869 12.1712 11.5951 12.1712 11.843 11.9233L11.9231 11.8431C12.171 11.5952 12.171 11.1871 11.9231 10.9417L10.9615 9.96012L11.883 9.03865L12.8646 10.0002C13.11 10.2481 13.5181 10.2481 13.766 10.0002L13.8462 9.92006C14.0941 9.67216 14.0941 9.26401 13.8462 9.01862L12.8846 8.03705L13.3454 7.57631C13.5532 7.3835 13.6083 7.07801 13.4831 6.82511C13.3604 6.5697 13.0824 6.42947 12.8045 6.47455C12.6618 6.48957 12.5265 6.55468 12.4239 6.65484L11.9631 7.11557L10.9816 6.15403C10.8589 6.03134 10.7036 5.97375 10.5409 5.97375Z" fill="currentColor"/>
</svg>
