<svg width="24" height="24" viewBox="0 0 24 24" fill="none" xmlns="http://www.w3.org/2000/svg">
<path d="M14.5908 2.33848C13.7503 2.11356 12.8828 2 12 2C11.1173 2 10.2498 2.11356 9.4093 2.33848L12 4.21846L14.5908 2.33848Z" fill="currentColor"/>
<path d="M3.60096 6.55353C2.3272 8.51335 2.05441 10.4392 2 11.4756L4.59058 9.59566L3.60096 6.55353Z" fill="currentColor"/>
<path d="M4.21875 18.2954C4.76633 18.9707 5.40141 19.5719 6.11578 20.0901C6.8301 20.6087 7.59865 21.0262 8.41057 21.3376L7.42087 18.2954H4.21875Z" fill="currentColor"/>
<path d="M15.5898 21.3376C16.4016 21.0263 17.1701 20.6087 17.8846 20.0901C18.5991 19.5718 19.2342 18.9707 19.7818 18.2954H16.5793L15.5898 21.3376Z" fill="currentColor"/>
<path d="M18.1619 9.6381L19.5337 5.42111C18.553 4.30208 17.3272 3.40277 15.9406 2.8075L12.3451 5.41654C12.1255 5.57588 11.8467 5.55541 11.6553 5.41654L8.05992 2.8075C6.67335 3.40277 5.44747 4.30208 4.46677 5.42115L5.83855 9.63806C5.91709 9.87947 5.83108 10.1439 5.62545 10.2931L2.02991 12.9023C2.16775 14.4342 2.65267 15.8676 3.4058 17.1233H7.84717C8.10134 17.1233 8.32665 17.2868 8.40519 17.5282L9.77916 21.7515C10.4938 21.9139 11.2372 22 12.0003 22C12.7635 22 13.5069 21.9138 14.2216 21.7515L15.5952 17.5282C15.6738 17.2868 15.8991 17.1233 16.1533 17.1233H20.5948C21.3479 15.8677 21.8328 14.4343 21.9706 12.9023L18.375 10.2931C18.1694 10.144 18.0834 9.87951 18.1619 9.6381ZM16.5903 10.8725L15.05 15.6066C14.9714 15.848 14.7461 16.0115 14.492 16.0115H9.50864C9.25447 16.0115 9.02916 15.848 8.95062 15.6066L7.41033 10.8725C7.33178 10.6311 7.4178 10.3667 7.62343 10.2174L11.6554 7.29148C11.861 7.14222 12.1395 7.14222 12.3452 7.29148L16.3771 10.2174C16.5828 10.3667 16.6688 10.6311 16.5903 10.8725Z" fill="currentColor"/>
<path d="M8.65771 10.9151L9.93456 14.8395H14.0653L15.3422 10.9151L11.9999 8.48969L8.65771 10.9151Z" fill="currentColor"/>
<path d="M22.0002 11.4757C21.9458 10.44 21.6728 8.51339 20.399 6.55353L19.4093 9.59566L22.0002 11.4757Z" fill="currentColor"/>
</svg>
