<svg width="24" height="24" viewBox="0 0 24 24" fill="none" xmlns="http://www.w3.org/2000/svg">
<path d="M5.70448 6.37C5.01499 6.37 4.4072 6.47568 3.87625 6.68192C3.34529 6.88818 2.93058 7.16932 2.63113 7.52859C2.33169 7.88787 2.14957 8.26138 2.08918 8.64947C2.02879 9.03758 2 9.62144 2 10.3976V13.5443C2 14.6 2.09871 15.3908 2.29499 15.9164C2.49126 16.442 2.89158 16.8532 3.49551 17.1504C4.09943 17.4475 4.86603 17.596 5.79709 17.596C6.69291 17.596 7.44602 17.4185 8.0575 17.0681C8.66897 16.7177 9.06564 16.3101 9.24431 15.8444C9.42296 15.3787 9.51185 14.5891 9.51185 13.4758V13.0576H6.33218V14.4081C6.33217 14.9981 6.29539 15.3728 6.22242 15.5325C6.14944 15.6921 5.99589 15.7724 5.75936 15.7724C5.51275 15.7724 5.35303 15.6921 5.28258 15.5325C5.21212 15.3728 5.17624 15.0309 5.17625 14.5075V9.50299C5.17624 8.95744 5.21212 8.60449 5.28258 8.44037C5.35303 8.27627 5.51823 8.19358 5.77994 8.19357C6.01144 8.19358 6.16133 8.26054 6.22928 8.39581C6.29721 8.5311 6.33217 8.87174 6.33218 9.41729V11.2957H9.51185V10.2708C9.51185 9.26397 9.41496 8.51957 9.22373 8.04275C9.03248 7.56595 8.63216 7.16925 8.0232 6.84988C7.41424 6.53054 6.64056 6.37 5.70448 6.37ZM14.7317 6.5928V17.3663H18.69C19.4403 17.3663 20.0015 17.3298 20.3741 17.2566C20.7468 17.1834 21.0606 17.0534 21.314 16.8693C21.5674 16.6852 21.7472 16.4309 21.8491 16.1049C21.9509 15.7789 22 15.1317 22 14.1648V10.3942C22 9.37407 21.9667 8.68916 21.8971 8.34097C21.8275 7.9928 21.654 7.67535 21.3757 7.39147C21.0974 7.10761 20.6888 6.90553 20.1546 6.78133C19.6204 6.65715 18.5968 6.5928 17.0813 6.5928H14.7317ZM17.8702 8.43694C18.2131 8.43694 18.4491 8.46862 18.5734 8.53292C18.6976 8.59724 18.7752 8.69708 18.81 8.83457C18.8448 8.97207 18.8615 9.28589 18.8615 9.77378V13.9591C18.8615 14.6776 18.8115 15.1169 18.7071 15.2788C18.6028 15.4407 18.3224 15.5222 17.8702 15.5222V8.43694ZM10.3035 12.9348C10.3035 13.1304 10.3371 13.3018 10.4064 13.4489C10.4756 13.596 10.5755 13.7121 10.7048 13.7986C10.834 13.885 10.9774 13.9364 11.1335 13.9528C11.2897 13.9692 11.5539 13.9802 11.9293 13.9802H12.5707C12.9554 13.9802 13.2229 13.9699 13.3768 13.9528C13.5307 13.9357 13.6748 13.8817 13.8056 13.7917C13.9364 13.7017 14.0351 13.583 14.1005 13.4352C14.1659 13.2874 14.1966 13.1204 14.1966 12.9348C14.1966 12.7391 14.1629 12.5677 14.0937 12.4206C14.0244 12.2735 13.9245 12.1574 13.7953 12.071C13.666 11.9845 13.5227 11.9331 13.3665 11.9167C13.2103 11.9003 12.9462 11.8927 12.5707 11.8927H11.9293C11.5446 11.8927 11.2771 11.8996 11.1232 11.9167C10.9694 11.9338 10.8253 11.9878 10.6945 12.0778C10.5637 12.1678 10.4683 12.2865 10.4029 12.4343C10.3375 12.5821 10.3035 12.7491 10.3035 12.9348ZM10.3755 11.663H14.0697V10.7615H12.5193V10.2062H11.8161V10.7615H11.1164V10.1377H10.3755V11.663ZM10.9346 12.9313C10.9346 12.8756 10.9616 12.8395 11.0101 12.8216C11.0585 12.8038 11.1689 12.7942 11.3428 12.7942H13.0578C13.2778 12.7942 13.4178 12.8045 13.4763 12.8216C13.5347 12.8388 13.5655 12.8768 13.5655 12.9382C13.5655 12.9982 13.5408 13.0349 13.49 13.0513C13.4392 13.0677 13.3056 13.0787 13.0887 13.0787H11.3428C11.1504 13.0787 11.0356 13.066 10.9963 13.041C10.9571 13.016 10.9346 12.9785 10.9346 12.9313Z" fill="currentColor"/>
</svg>
