<svg width="24" height="24" viewBox="0 0 24 24" fill="none" xmlns="http://www.w3.org/2000/svg">
<path fill-rule="evenodd" clip-rule="evenodd" d="M17.5591 4.44371C17.7843 4.09855 18.2017 3.93157 18.6028 4.02618L19.7001 4.28497C19.9363 4.34069 20.1356 4.4984 20.2442 4.7155L20.2782 4.78356C20.3649 4.95692 20.5131 5.09171 20.6939 5.16156L21.8595 5.61191C22.0121 5.67088 22.049 5.87009 21.9275 5.97972L21.5808 6.29253C21.4287 6.42985 21.2305 6.50507 21.0256 6.50331L19.3603 6.48908C19.1442 6.48723 18.9429 6.59822 18.8291 6.78188L18.4437 7.40363C18.2428 7.72784 18.0815 8.07499 17.9633 8.43762L17.7006 9.24322C17.597 9.56092 17.5442 9.89298 17.5442 10.2271V10.5816C17.5442 10.9904 17.4662 11.3955 17.3143 11.7751L16.8574 12.9174C16.7305 13.2348 16.6556 13.5707 16.6358 13.912L16.4241 17.5561C16.3996 17.9778 16.4815 18.3989 16.6624 18.7806C16.7138 18.8893 16.7961 18.9805 16.8989 19.0429L17.2442 19.2526C17.434 19.3678 17.3523 19.6598 17.1302 19.6598H16.1771C16.0167 19.6598 15.8704 19.5683 15.8002 19.4241L15.271 18.3372C15.204 18.1995 15.1769 18.0457 15.193 17.8933L15.3371 16.524C15.3579 16.3261 15.3601 16.1266 15.3436 15.9282L15.1995 14.1991C15.1831 14.0026 15.0188 13.8514 14.8216 13.8514H14.3785C13.9231 13.8514 13.4729 13.7546 13.0577 13.5674L9.6306 12.0224C9.12178 11.793 8.5347 11.8163 8.04565 12.0853C7.78519 12.2285 7.5886 12.4651 7.49537 12.7473L7.27526 13.4138C7.04664 14.106 6.58947 14.6999 5.97881 15.098L5.72299 15.2648C5.88235 15.6575 5.96224 16.0792 5.95656 16.5054L5.95236 16.8201C5.95194 16.8518 5.94797 16.8827 5.94079 16.9124C5.86561 17.2239 5.30904 17.225 5.30904 16.9045V16.3702C5.30904 16.1114 5.26974 15.8552 5.19335 15.6101L3.89719 16.4551C3.52387 16.6985 3.27096 17.0885 3.20103 17.5286L3.04253 18.5262C3.00032 18.7919 3.09824 19.0605 3.3015 19.2366L3.47318 19.3854C3.625 19.517 3.53501 19.7665 3.33415 19.7709L2.42828 19.7906C2.19131 19.7957 1.99721 19.6035 2.00003 19.3665L2.03189 16.6907C2.03393 16.5191 2.12399 16.3606 2.27035 16.271L3.64086 15.4322C4.0852 15.1602 4.36654 14.6863 4.39256 14.166L4.39744 14.0684L3.46153 12.3854C3.24735 12.0003 3.14932 11.5614 3.1793 11.1217C3.25614 9.99467 4.14636 9.09367 5.27238 9.00326L5.72291 8.96708C5.93849 8.94978 6.15539 8.95977 6.36846 8.99682L6.70395 9.05517C6.73149 9.05996 6.75743 9.06862 6.7813 9.08051C6.96803 8.99896 7.16313 8.93142 7.36546 8.87936L8.09321 8.69213C8.42948 8.60561 8.77413 8.55576 9.12113 8.54344L11.9737 8.44216L14.4637 8.15013C14.9285 8.09562 15.3451 7.8375 15.6007 7.44558L17.5591 4.44371ZM5.92416 9.59701L5.37486 9.58434C4.73035 9.56946 4.13984 9.9427 3.87673 10.5312C3.67248 10.9881 3.69367 11.5142 3.93401 11.9532L4.45557 12.9058L4.47019 12.6133C4.47035 11.4103 5.02725 10.3117 5.92416 9.59701Z" fill="currentColor"/>
</svg>
