<svg width="24" height="24" viewBox="0 0 24 24" fill="none" xmlns="http://www.w3.org/2000/svg">
<path d="M2 10.2982C2.58934 10.9883 3.39805 11.5932 4.40669 12.0977C6.13821 12.9638 8.35958 13.475 10.7232 13.5584C10.4089 14.3177 10.2353 15.1522 10.2353 16.0274C10.2353 16.6279 10.3171 17.2094 10.47 17.7613C8.37331 17.6545 6.42274 17.1908 4.89996 16.4291C3.12339 15.5405 2.10509 14.3334 2.0077 13.0115L2 12.8019V10.2982ZM11.4118 2.5C13.8624 2.5 16.175 2.98169 17.9236 3.8563C19.7936 4.7917 20.8235 6.07985 20.8235 7.48356C20.8235 8.45262 20.3327 9.36663 19.4134 10.1475C18.5888 9.7661 17.6721 9.55425 16.7059 9.55425C14.4478 9.55425 12.46 10.7113 11.3023 12.4651L11.4118 12.4671C8.96114 12.4671 6.64853 11.9854 4.89996 11.1108C3.02989 10.1754 2 8.88726 2 7.48356C2 6.07985 3.02989 4.7917 4.89996 3.8563C6.64853 2.98169 8.96114 2.5 11.4118 2.5ZM20.8235 10.2982L20.8242 11.0344C20.6931 10.9261 20.5578 10.8229 20.4183 10.725C20.5636 10.5872 20.6985 10.4446 20.8235 10.2982Z" fill="currentColor"/>
<path fill-rule="evenodd" clip-rule="evenodd" d="M16.7059 10.7316C19.6297 10.7316 22 13.1027 22 16.0277C22 18.9527 19.6297 21.3239 16.7059 21.3239C13.782 21.3239 11.4117 18.9527 11.4117 16.0277C11.4117 13.1027 13.782 10.7316 16.7059 10.7316ZM16.7537 13.0854C14.9962 13.0854 13.7647 14.437 13.7647 16.1115C13.7647 17.9654 15.0918 19.1495 16.8493 19.1495C17.746 19.1495 18.6547 18.8744 19.2286 18.3481L18.559 17.3673C18.1884 17.7262 17.5069 17.9415 17.0167 17.9415C16.0363 17.9415 15.4505 17.3315 15.3548 16.6019H19.647V16.267C19.647 14.3772 18.4753 13.0854 16.7537 13.0854ZM16.7537 14.2935C17.758 14.2935 18.1406 15.0231 18.1764 15.5732H15.3309C15.4027 14.9991 15.8092 14.2935 16.7537 14.2935Z" fill="currentColor"/>
</svg>
