<svg width="24" height="24" viewBox="0 0 24 24" fill="none" xmlns="http://www.w3.org/2000/svg">
<path d="M10.1637 2.04854C10.4948 1.93853 10.8559 2.03054 11.16 2.17454C11.3717 2.30554 11.5834 2.43854 11.8211 2.52454L11.8958 2.65455L11.8585 2.74255C12.0276 3.11255 12.1356 3.55256 11.9716 3.94257C11.8595 4.07257 11.6654 4.09357 11.5077 4.14457C11.5077 4.33257 11.5388 4.51858 11.5544 4.70558C11.8917 4.75758 12.1771 4.53258 12.5102 4.55458C12.5549 4.37457 12.5912 4.19257 12.6503 4.01557C12.7199 4.13257 12.723 4.26757 12.723 4.39857C12.8102 4.42257 12.8994 4.44357 12.9887 4.46457L12.9897 4.59458C14.451 4.60158 15.9112 4.58758 17.3725 4.60158L17.359 4.79458H17.5115V4.02657L17.6568 4.02257L17.661 4.62658L17.7886 4.77758L17.8841 4.66958C17.9952 4.76958 17.9319 4.90658 17.9277 5.02958C18.3366 5.02458 18.7497 5.05158 19.1565 5.01958L19.279 4.93358L19.4471 4.99658C19.6308 4.99258 19.8155 4.99258 20.0003 4.99158L19.9899 5.26659C19.7512 5.26259 19.5135 5.25759 19.28 5.29659C19.1295 5.17159 18.9271 5.21159 18.7445 5.20659C18.4643 5.21959 18.1747 5.17159 17.9038 5.25759C17.7419 5.30159 17.5645 5.29059 17.4223 5.20259C17.388 5.28459 17.441 5.46759 17.2977 5.46059C16.7342 5.46759 16.1707 5.45559 15.6082 5.46459C15.5314 5.50359 15.4535 5.54059 15.3767 5.57659C15.2958 5.8106 15.0623 5.9666 14.864 6.1086C14.8391 6.46761 14.9865 6.80261 15.0436 7.15062C14.9325 7.18062 14.8215 7.21262 14.7115 7.24762C14.5537 7.60563 14.6502 8.09463 14.286 8.34464C14.0057 8.50064 13.821 8.84164 13.4443 8.78764C13.6363 8.94165 13.3924 8.89365 13.4173 8.77064C12.7354 8.71264 12.1615 8.32664 11.5679 8.03363C11.5409 8.19363 11.4973 8.35264 11.4527 8.50964C11.6768 8.55064 11.8637 8.70964 11.9031 8.93265C11.9757 9.41765 11.8304 9.89866 11.8336 10.3847C11.8491 10.6697 11.7225 10.9307 11.5637 11.1647C11.4257 11.3147 11.2067 11.1597 11.0407 11.1377C11.0023 11.2077 10.9659 11.2787 10.9296 11.3497C10.9763 11.5397 10.9971 11.7377 11.0625 11.9237C11.434 12.3187 11.7713 12.7467 12.0307 13.2187C12.2975 13.7537 12.5351 14.3017 12.7437 14.8587C12.7645 14.9687 12.8693 15.0067 12.9627 15.0467L12.999 15.3837C13.0354 15.4338 13.0717 15.4858 13.1101 15.5368C13.1329 16.2268 13.0447 16.9138 12.9337 17.5938C12.8652 17.9008 13.0509 18.2008 12.9752 18.5098C12.9845 18.6678 12.8714 18.7878 12.8185 18.9278C12.8081 19.2538 12.7915 19.5848 12.8288 19.9108C12.8548 20.1498 13.0644 20.3038 13.2066 20.4818C13.3623 20.6408 13.492 20.8538 13.7276 20.9108C13.9487 20.9738 14.1604 21.0668 14.3555 21.1878C14.4146 21.3298 14.4043 21.4798 14.3762 21.6278C13.9507 21.7029 13.5159 21.6649 13.0862 21.6719C12.7541 21.6878 12.4594 21.5168 12.1376 21.4818C11.8263 21.4738 11.4464 21.6218 11.2067 21.3538C11.3084 20.9818 11.3167 20.5808 11.5025 20.2338C11.5616 19.8398 11.4485 19.4408 11.4724 19.0438L11.3302 18.9288C11.3551 18.6688 11.2223 18.4388 11.1787 18.1898C11.1496 17.8278 11.1154 17.4658 11.0718 17.1048C11.0375 16.9298 11.132 16.7688 11.2607 16.6518C11.2711 16.4488 11.3001 16.2488 11.3209 16.0468C11.2897 15.9168 11.1808 15.8188 11.1112 15.7068C10.8788 15.8018 10.5643 15.7568 10.4252 15.5368C10.0962 15.0667 9.76828 14.5947 9.43513 14.1267C9.30436 14.1167 9.16633 14.1307 9.04491 14.0807C8.90376 13.9407 8.83008 13.7557 8.74082 13.5867C8.61213 13.7267 8.62147 13.9397 8.46891 14.0667C8.14718 14.3637 8.06104 14.8017 7.89188 15.1837C7.76319 15.4307 7.83583 15.7298 7.69158 15.9708C7.61478 16.1008 7.42174 16.1268 7.37089 16.2748C7.30446 16.4348 7.22559 16.6008 7.06991 16.6978C6.90075 16.8048 6.85508 17.0078 6.77932 17.1758C6.71082 17.3298 6.81357 17.4928 6.7897 17.6508C6.68177 18.1558 6.34862 18.5768 6.20851 19.0708C6.14417 19.2928 6.05284 19.5438 5.78404 19.5908C5.47892 20.1168 5.30975 20.7608 5.48307 21.3528C5.58893 21.5388 5.5827 21.7478 5.55053 21.9529C5.06482 21.9889 4.56666 22.0519 4.08926 21.9209C3.97718 21.7078 3.99378 21.4568 4.01661 21.2258C4.16399 20.6198 4.3591 20.0238 4.47949 19.4108C4.33004 19.2838 4.36533 19.0878 4.3674 18.9158C4.36221 18.5958 4.58846 18.3408 4.74517 18.0788C4.80433 17.8088 4.77631 17.5198 4.9216 17.2728C5.09077 16.9638 5.23503 16.6298 5.49656 16.3798C5.54638 16.1598 5.71451 15.9928 5.78404 15.7808C5.85669 15.5938 5.72904 15.4037 5.75498 15.2117C5.81725 14.6307 5.92622 14.0557 6.0217 13.4787C5.84216 13.3337 5.90028 13.1037 5.84216 12.9087C5.87122 12.8317 5.9065 12.7587 5.94906 12.6867L5.81414 12.5667C5.85876 12.3617 5.84527 11.9947 6.17323 12.0607C6.19398 11.3817 5.94802 10.7247 6.03104 10.0447L6.16077 10.1937L6.1369 9.96366C6.2739 9.89366 6.41919 9.83966 6.57175 9.81166C6.32268 9.78066 6.0819 9.71966 5.83801 9.66566C5.77885 9.51566 5.81206 9.35765 5.83386 9.20565C5.92726 8.69064 5.96255 8.16863 5.98227 7.64663C6.25729 7.55462 6.56138 7.63363 6.83017 7.50962C6.74715 6.85761 6.72639 6.1766 6.96613 5.55059C7.16021 5.01758 7.53071 4.50358 8.10878 4.31657C8.38173 4.25357 8.72525 4.18257 8.91829 4.43757L9.07708 4.29657C8.63704 3.45356 9.16322 2.22154 10.1647 2.04854H10.1637ZM13.6902 5.70459C13.574 5.7726 13.4598 5.8516 13.5823 5.9756C13.5231 6.0096 13.463 6.0426 13.4028 6.0746C13.3094 6.1446 13.0966 6.1846 13.1215 6.3246C13.2274 6.48961 13.3187 6.66161 13.3945 6.84061C13.6259 6.65761 13.8096 6.41061 13.9352 6.1506L14.04 6.0476C14.0296 5.9276 14.0016 5.8116 13.9528 5.70059L13.6902 5.70459Z" fill="currentColor"/>
</svg>
