<svg width="24" height="24" viewBox="0 0 24 24" fill="none" xmlns="http://www.w3.org/2000/svg">
<path d="M5.30369 9.1661C3.48666 6.07295 2 3.53106 2 3.51747C2 3.50388 3.34937 3.49737 4.99859 3.503L7.99719 3.51325L9.27533 8.19814L10.5535 12.883L9.58042 13.8365L8.60737 14.79L5.30369 9.1661Z" fill="currentColor"/>
<path d="M10.4793 17.9658L8.98462 15.4219L12.4961 11.9782L16.0076 8.53448L17.3087 8.88171C18.0244 9.07268 18.6068 9.24562 18.6029 9.26602C18.5925 9.32161 12.0821 20.3963 12.0241 20.4572C11.9838 20.4994 11.683 20.0144 10.4793 17.9658Z" fill="currentColor"/>
<path d="M10.3885 9.57311C9.98232 8.08533 9.65328 6.8657 9.65726 6.86282C9.66807 6.85502 15.1507 8.29752 15.1723 8.31386C15.1922 8.32896 11.1834 12.2782 11.1481 12.2782C11.1364 12.2782 10.7946 11.0609 10.3885 9.57311Z" fill="currentColor"/>
<path d="M14.2024 7.34481C11.5994 6.65709 9.45732 6.07473 9.44218 6.05067C9.39759 5.97981 8.73833 3.53043 8.75851 3.51061C8.76865 3.50065 11.7521 3.49706 15.3884 3.50261L21.9999 3.51272L20.5082 6.05684C19.6877 7.4561 18.9981 8.59967 18.9758 8.59809C18.9534 8.59651 16.8054 8.03254 14.2024 7.34481Z" fill="currentColor"/>
</svg>
