<svg width="24" height="24" viewBox="0 0 24 24" fill="none" xmlns="http://www.w3.org/2000/svg">
<path fill-rule="evenodd" clip-rule="evenodd" d="M12.6606 7.43781V2C14.9344 2.15001 17.1658 3.06881 18.9322 4.76266C17.1733 6.35025 14.9694 7.28655 12.6606 7.43781ZM11.3393 11.3392H2C2.13126 9.34404 2.8563 7.38017 4.17638 5.73633C6.17899 7.54768 8.70039 8.609 11.3393 8.76025V11.3392ZM12.6606 15.2394V12.6605H12.6631H21.9999C21.8699 14.6568 21.1449 16.6195 19.8248 18.2646C17.8234 16.4519 15.3008 15.3919 12.6606 15.2394ZM11.3393 15.2394C8.70039 15.3919 6.17899 16.4507 4.17513 18.2633C2.8563 16.6195 2.13126 14.6568 2 12.6605H11.3393V15.2394ZM11.3394 22.0009V16.5631C9.0305 16.7131 6.82663 17.6506 5.06902 19.2382C6.83413 20.9308 9.06676 21.8509 11.3381 22.0009H11.3394ZM11.3394 2V7.43781H11.3381C9.03175 7.28531 6.82538 6.35025 5.06902 4.76266C6.83413 3.07006 9.06676 2.15001 11.3394 2ZM12.662 8.76039C15.2996 8.60913 17.8223 7.54907 19.8249 5.73772V5.73647C21.1437 7.38031 21.87 9.34417 22 11.3393H12.662V8.76039ZM18.9323 19.2385C17.1672 20.9311 14.9346 21.8511 12.6607 22.0012V16.5633C14.9696 16.7133 17.1747 17.6509 18.9323 19.2385Z" fill="currentColor"/>
</svg>
