<svg width="24" height="24" viewBox="0 0 24 24" fill="none" xmlns="http://www.w3.org/2000/svg">
<path d="M20.6725 10.9744V8.10734C20.6725 7.04335 19.8089 6.17976 18.7449 6.17976H12.9624V4.9154C13.2564 4.65129 13.4444 4.27154 13.4444 3.84553C13.4444 3.04754 12.7967 2.3999 11.9987 2.3999C11.2007 2.3999 10.5531 3.04754 10.5531 3.84553C10.5531 4.27154 10.7409 4.65129 11.0348 4.9154V6.17976H5.25233C4.18835 6.17976 3.32497 7.04335 3.32497 8.10734V10.9967C3.28734 10.9996 3.25558 11.0015 3.25558 11.0015C2.75051 11.0371 2.36108 11.4574 2.36108 11.9623V13.8898C2.36108 14.4229 2.79193 14.8535 3.32497 14.8535V19.6723C3.32497 20.7363 4.18835 21.5999 5.25233 21.5999H18.7449C19.8089 21.5999 20.6725 20.7363 20.6725 19.6723V14.8535C21.2053 14.8535 21.6362 14.4229 21.6362 13.8898V12.022C21.6467 11.8746 21.6246 11.7234 21.5668 11.5836C21.3721 11.1132 20.9549 11.0005 20.6725 10.9744ZM7.1799 11.9623C7.1799 10.8983 7.82754 10.0349 8.62553 10.0349C9.42351 10.0349 10.0712 10.8983 10.0712 11.9623C10.0712 13.0262 9.42351 13.8898 8.62553 13.8898C7.82754 13.8898 7.1799 13.0262 7.1799 11.9623ZM15.8518 17.7448C14.887 17.742 8.14464 17.7448 8.14358 17.7448V15.8174C8.14358 15.8174 14.8908 15.8153 15.8555 15.8174L15.8518 17.7448ZM15.3717 13.8898C14.5737 13.8898 13.9261 13.0262 13.9261 11.9623C13.9261 10.8983 14.5737 10.0349 15.3717 10.0349C16.1697 10.0349 16.8173 10.8983 16.8173 11.9623C16.8173 13.0262 16.1697 13.8898 15.3717 13.8898Z" fill="currentColor"/>
</svg>
