<svg width="24" height="24" viewBox="0 0 24 24" fill="none" xmlns="http://www.w3.org/2000/svg">
<path fill-rule="evenodd" clip-rule="evenodd" d="M12 3.79999C14.6038 3.79999 17.0612 4.31167 18.9188 5.24246V5.24121C20.9062 6.23455 22 7.60446 22 9.09697C22 10.5895 20.9062 11.9594 18.9188 12.954C17.0612 13.8823 14.6038 14.3952 12 14.3952C9.39625 14.3952 6.93875 13.8835 5.08125 12.9527C3.09375 11.9581 2 10.5882 2 9.09697C2 7.60571 3.09375 6.2358 5.08125 5.24371C6.93875 4.31292 9.39625 3.79999 12 3.79999ZM12 15.5673C14.7825 15.5673 17.425 15.0118 19.4425 14.0022V14.0035C20.515 13.4655 21.375 12.8237 22 12.0894V14.7516C22 16.2429 20.9062 17.6128 18.9188 18.6074C17.0612 19.5369 14.6038 20.0498 12 20.0498C9.39625 20.0498 6.93875 19.5369 5.08125 18.6074C3.09375 17.614 2 16.2441 2 14.7516V12.0881C2.625 12.8212 3.485 13.4643 4.5575 14.0035C6.575 15.0118 9.2175 15.5673 12 15.5673Z" fill="currentColor"/>
</svg>
