<svg width="24" height="24" viewBox="0 0 24 24" fill="none" xmlns="http://www.w3.org/2000/svg">
<path d="M16.9692 2C13.8209 2 9.61293 3.32407 6.46465 6.46914C1.7314 11.1975 1.12584 18.2809 2.95488 20.6173C2.97032 20.642 2.98577 20.6667 3.00431 20.6914C3.0074 20.6975 3.00122 20.7099 3.00431 20.716C3.02594 20.75 3.05065 20.784 3.07846 20.8148C3.09391 20.8302 3.11245 20.8488 3.12789 20.8642C3.17115 20.9105 3.22058 20.9537 3.27619 20.9877C3.28237 20.9907 3.29473 20.9846 3.30091 20.9877C4.07331 21.6358 5.39874 22 7.03313 22C10.1814 22 14.3894 20.6759 17.5377 17.5309C22.2524 12.821 22.8642 5.75926 21.0722 3.40741C21.0722 3.39815 21.0722 3.39198 21.0722 3.38272C21.0598 3.36728 21.0599 3.34877 21.0475 3.33333C20.9579 3.16358 20.8065 3.03086 20.6273 2.96296C19.8487 2.35185 18.5542 2 16.9692 2ZM16.9692 3.58025C17.8652 3.58025 18.5171 3.71296 18.996 3.87654L16.5738 6.2963C16.2586 6.61111 16.2586 7.11728 16.5738 7.4321C16.8889 7.74691 17.3956 7.74691 17.7107 7.4321L20.1577 4.98765C20.9023 7.16049 20.2596 12.5895 16.4255 16.4198C13.4626 19.3796 9.62529 20.4198 7.03313 20.4198C6.13715 20.4198 5.48525 20.287 5.00636 20.1235L7.4286 17.7037C7.68503 17.466 7.753 17.0895 7.59852 16.7778C7.44713 16.463 7.10419 16.2901 6.76125 16.3457C6.58514 16.3642 6.4183 16.4444 6.29163 16.5679L3.84468 19.0123C3.10009 16.8395 3.74272 11.4105 7.5769 7.58025C10.5336 4.62654 14.374 3.58025 16.9692 3.58025ZM12.6685 7.03704C12.4677 7.03704 12.2514 7.10802 12.1 7.25926L12.0012 7.35802C11.6953 7.66358 11.6953 8.16358 12.0012 8.46914L13.1876 9.67901L12.0506 10.8148L10.8395 9.62963C10.5336 9.32407 10.03 9.32407 9.72725 9.62963L9.62838 9.72839C9.32251 10.034 9.32251 10.534 9.62838 10.8395L10.8148 12.0494L9.67781 13.1852L8.4667 12C8.16083 11.6944 7.65723 11.6944 7.35445 12L7.25558 12.0988C6.94971 12.4043 6.94971 12.9043 7.25558 13.2099L8.44198 14.4198L7.8735 14.9877C7.55836 15.3025 7.55836 15.8086 7.8735 16.1235C8.18863 16.4383 8.69533 16.4383 9.01046 16.1235L9.57895 15.5556L10.7901 16.7407C11.0928 17.0463 11.5964 17.0463 11.9023 16.7407L12.0012 16.642C12.3071 16.3364 12.3071 15.8333 12.0012 15.5309L10.8148 14.321L11.9517 13.1852L13.1629 14.3704C13.4656 14.6759 13.9692 14.6759 14.2751 14.3704L14.374 14.2716C14.6799 13.966 14.6799 13.463 14.374 13.1605L13.1876 11.9506L14.3246 10.8148L15.5357 12C15.8385 12.3056 16.3421 12.3056 16.6479 12L16.7468 11.9012C17.0527 11.5957 17.0527 11.0926 16.7468 10.7901L15.5604 9.58025L16.1289 9.01235C16.3853 8.77469 16.4533 8.39815 16.2988 8.08642C16.1474 7.77161 15.8045 7.59877 15.4615 7.65432C15.2854 7.67284 15.1186 7.75309 14.9919 7.87654L14.4234 8.44444L13.2123 7.25926C13.0609 7.10802 12.8694 7.03704 12.6685 7.03704Z" fill="currentColor"/>
</svg>
