<svg width="24" height="24" viewBox="0 0 24 24" fill="none" xmlns="http://www.w3.org/2000/svg">
<path fill-rule="evenodd" clip-rule="evenodd" d="M4.75146 4.75412C6.3682 3.13974 8.4233 2.23238 10.528 2.03558V2.03677C10.7977 4.34876 11.9809 6.80923 13.9983 8.82781C14.5545 9.38409 15.1445 9.87691 15.7557 10.3046C12.9405 10.7188 10.7151 12.946 10.3036 15.7621C9.87501 15.1494 9.38077 14.5577 8.82277 13.9997C6.80539 11.9811 4.34727 10.8004 2.03528 10.5317C2.22971 8.42244 3.13707 6.36851 4.75146 4.75412Z" fill="currentColor"/>
<path d="M20.8235 11.1278C20.7552 8.81225 19.8384 6.51911 18.0744 4.75271C16.308 2.98395 14.0113 2.07071 11.6958 2C11.9562 4.02211 13.0296 6.19505 14.8302 7.99562C16.6296 9.79506 18.8002 10.8673 20.8235 11.1278ZM2 11.6981C2.06834 14.0125 2.98513 16.3068 4.75153 18.0732C6.51675 19.8384 8.81107 20.7564 11.1266 20.8235C10.8661 18.8038 9.79271 16.6332 7.99209 14.8326C6.19505 13.0332 4.02093 11.9609 2 11.6981Z" fill="currentColor"/>
<path fill-rule="evenodd" clip-rule="evenodd" d="M16.7059 11.4118C19.6297 11.4118 22 13.7821 22 16.7059C22 19.6298 19.6297 22 16.7059 22C13.782 22 11.4117 19.6298 11.4117 16.7059C11.4117 13.7821 13.782 11.4118 16.7059 11.4118ZM16.7537 13.7647C14.9962 13.7647 13.7647 15.1158 13.7647 16.7896C13.7647 18.6428 15.0918 19.8264 16.8493 19.8264C17.746 19.8264 18.6547 19.5515 19.2286 19.0254L18.559 18.045C18.1884 18.4037 17.5069 18.6189 17.0167 18.6189C16.0363 18.6189 15.4505 18.0091 15.3548 17.2798H19.647V16.945C19.647 15.056 18.4753 13.7647 16.7537 13.7647ZM16.7537 14.9723C17.758 14.9723 18.1406 15.7016 18.1764 16.2516H15.3309C15.4027 15.6777 15.8092 14.9723 16.7537 14.9723Z" fill="currentColor"/>
</svg>
