<svg width="24" height="25" viewBox="0 0 24 25" fill="none" xmlns="http://www.w3.org/2000/svg">
<path d="M12 2.5C11.8678 2.50002 11.7368 2.52626 11.6148 2.57722C11.4928 2.62818 11.382 2.70284 11.2891 2.79688L1.20312 11.5977C1.14013 11.6441 1.08894 11.7048 1.05366 11.7746C1.01838 11.8445 0.999997 11.9217 1 12C1 12.1326 1.05268 12.2598 1.14645 12.3536C1.24021 12.4473 1.36739 12.5 1.5 12.5H4V20.5C4 21.052 4.448 21.5 5 21.5H9C9.552 21.5 10 21.052 10 20.5V14.5H14V20.5C14 21.052 14.448 21.5 15 21.5H19C19.552 21.5 20 21.052 20 20.5V12.5H22.5C22.6326 12.5 22.7598 12.4473 22.8536 12.3536C22.9473 12.2598 23 12.1326 23 12C23 11.9217 22.9816 11.8445 22.9463 11.7746C22.9111 11.7048 22.8599 11.6441 22.7969 11.5977L12.7168 2.80273C12.7149 2.80077 12.7129 2.79882 12.7109 2.79688C12.618 2.70284 12.5072 2.62818 12.3852 2.57722C12.2632 2.52626 12.1322 2.50002 12 2.5Z" fill="currentColor"/>
</svg>
