<svg width="24" height="24" viewBox="0 0 24 24" fill="none" xmlns="http://www.w3.org/2000/svg">
<path d="M11.4879 4.48127L10.2236 5.74375C9.93411 6.03566 9.67936 6.36024 9.4625 6.70905C9.16774 7.17906 8.94878 7.69332 8.81614 8.23288L8.80877 8.26133L6.63281 7.54579L7.2476 5.31801C7.36866 4.82482 7.81185 4.47916 8.31926 4.48127H11.4879Z" fill="currentColor"/>
<path fill-rule="evenodd" clip-rule="evenodd" d="M11.8104 14.3301C12.3009 13.3786 13.0427 12.5779 13.9482 12.0156L13.3029 10.8182C13.2934 10.8077 13.285 10.7951 13.2776 10.7824L10.7953 6.18774L10.73 6.25203C10.1363 6.84638 9.71417 7.59249 9.5089 8.40815L9.43731 8.68741L11.8104 14.3301ZM5.52649 11.5517L11.009 14.2727L8.79832 9.00883L6.44024 8.23638L5.52649 11.5517Z" fill="currentColor"/>
<path fill-rule="evenodd" clip-rule="evenodd" d="M11.4237 15.2742L5.32551 12.2513C5.2034 12.6528 4.98654 13.0174 4.69389 13.3167L4.33281 13.6782L10.0343 18.8841C10.3364 18.6364 10.6912 18.4604 11.0702 18.3698L11.3 18.3168C11.2074 17.9018 11.1586 17.4704 11.1586 17.0275C11.1586 16.4169 11.2514 15.8281 11.4237 15.2742ZM17.8663 11.1878L12.8913 4.08734L12.6019 4.37714L11.3197 5.65754L13.8851 10.4019C13.8946 10.4145 13.9041 10.4271 13.9093 10.4419L14.5758 11.6768C15.3292 11.3273 16.1687 11.1323 17.0538 11.1323C17.3294 11.1323 17.6007 11.1512 17.8663 11.1878ZM7.42988 21.448L9.51215 19.3773L3.8254 14.1819L2 16.0092L7.42988 21.448Z" fill="currentColor"/>
<path fill-rule="evenodd" clip-rule="evenodd" d="M20.3664 12.1503L21.6855 10.8284H21.6865C22.1045 10.4089 22.1045 9.73133 21.6865 9.31297L21.6402 9.26554C21.216 8.86193 20.5507 8.86193 20.1264 9.26554C20.0359 9.35617 19.9032 9.392 19.779 9.35828C19.6559 9.32667 19.559 9.22866 19.5264 9.10536C19.4927 8.98101 19.5285 8.84928 19.619 8.75866L20.3938 7.98199C20.5949 7.78176 20.7075 7.50988 20.7075 7.2264C20.7075 6.94186 20.5938 6.66998 20.3938 6.46975L20.3475 6.42338C19.9296 6.00502 19.2516 6.00502 18.8326 6.42338L18.7863 6.46237C18.641 6.59726 18.4147 6.58778 18.281 6.44341C18.1473 6.29798 18.1557 6.07141 18.301 5.93757C18.5095 5.73102 18.6253 5.4507 18.6253 5.15774C18.6253 4.86478 18.5084 4.58341 18.301 4.37791C17.8652 3.95744 17.1757 3.95744 16.7399 4.37791L16.2219 4.89218H16.2177C16.1303 4.9944 15.9924 5.03655 15.8629 5.00494C15.7324 4.97227 15.6313 4.87005 15.6008 4.73937C15.5703 4.6087 15.6156 4.4717 15.7177 4.38424C15.924 4.17769 16.0398 3.89737 16.0398 3.60441C16.0387 3.31144 15.9219 3.03218 15.7145 2.82669C15.5082 2.61803 15.2271 2.5 14.9345 2.5C14.6407 2.5 14.3597 2.61803 14.1533 2.82563L13.4038 3.57279L18.9125 11.4312C19.4331 11.6041 19.9216 11.8475 20.3664 12.1503Z" fill="currentColor"/>
<path fill-rule="evenodd" clip-rule="evenodd" d="M16.7379 11.9744C19.3542 11.9744 21.4751 14.0953 21.4751 16.7116C21.4751 19.3279 19.3542 21.4488 16.7379 21.4488C14.1216 21.4488 12.0007 19.3279 12.0007 16.7116C12.0007 14.0953 14.1216 11.9744 16.7379 11.9744ZM16.7807 14.0798C15.2081 14.0798 14.1062 15.2888 14.1062 16.7865C14.1062 18.4447 15.2937 19.5039 16.8663 19.5039C17.6687 19.5039 18.4818 19.2578 18.9953 18.7871L18.3962 17.9098C18.0645 18.2308 17.4547 18.4234 17.0161 18.4234C16.1388 18.4234 15.6146 17.8777 15.529 17.2251H19.3697V16.9256C19.3697 15.2353 18.3213 14.0798 16.7807 14.0798ZM16.7807 15.1604C17.6794 15.1604 18.0217 15.813 18.0538 16.3051H15.5076C15.5718 15.7916 15.9356 15.1604 16.7807 15.1604Z" fill="currentColor"/>
</svg>
