<svg width="24" height="24" viewBox="0 0 24 24" fill="none" xmlns="http://www.w3.org/2000/svg">
<path fill-rule="evenodd" clip-rule="evenodd" d="M1 9.68816V11.3763L1.21334 11.5864L1.42668 11.7965L1.65377 11.5827C2.22238 11.0474 2.9204 10.7292 3.65766 10.6693L3.98633 10.6426L3.99767 9.32129L4.00906 8H2.50451H1V9.68816ZM10.3027 9.53368C9.61962 9.5947 8.66683 9.86549 7.97477 10.1953C7.71713 10.3181 6.31313 11.1994 6.16235 11.3329C6.15389 11.3404 6.27979 11.4782 6.44212 11.6391C6.94954 12.142 7.28805 12.7593 7.4283 13.4374C7.52141 13.8874 7.49236 14.6932 7.36922 15.0771C7.32216 15.2236 7.29428 15.3542 7.30721 15.3671C7.33634 15.3962 14.9219 15.3987 14.9219 15.3696C14.9219 15.3581 14.8792 15.1986 14.8272 15.0151C14.7541 14.7578 14.732 14.5638 14.7306 14.166C14.7283 13.5301 14.8123 13.1428 15.0638 12.6292L15.247 12.2549L13.6343 12.2437L12.0215 12.2324L12.0101 10.8682L11.9988 9.50391L11.2367 9.51112C10.8175 9.51512 10.3973 9.52526 10.3027 9.53368ZM3.74905 11.9548C2.21361 12.1349 1.33941 13.8477 2.09416 15.1974C2.24549 15.4679 2.62723 15.8624 2.89703 16.0271C3.14745 16.1799 3.5312 16.2946 3.87891 16.3208C5.11735 16.4138 6.19922 15.3996 6.19922 14.1458C6.19922 12.8127 5.06704 11.8003 3.74905 11.9548ZM17.9297 11.9594C16.5443 12.1012 15.6474 13.5749 16.1439 14.8937C16.7769 16.5756 19.0345 16.8359 20.0321 15.3421C20.2719 14.9829 20.3838 14.6009 20.3845 14.139C20.3851 13.6967 20.3347 13.4877 20.1357 13.1071C19.9255 12.7054 19.5833 12.3756 19.1581 12.165C18.767 11.9714 18.4051 11.9108 17.9297 11.9594ZM21.4894 12.9736C21.5111 13.015 21.5621 13.1938 21.6029 13.3711C21.7073 13.8249 21.6992 14.5375 21.5845 14.9786C21.5359 15.1655 21.4961 15.3347 21.4961 15.3545C21.4961 15.3744 21.8345 15.3906 22.248 15.3906H23V14.6242V13.8578L22.2533 13.3781C21.8426 13.1143 21.4939 12.8984 21.4783 12.8984C21.4628 12.8984 21.4678 12.9323 21.4894 12.9736Z" fill="currentColor"/>
</svg>
