<svg width="24" height="24" viewBox="0 0 24 24" fill="none" xmlns="http://www.w3.org/2000/svg">
<path d="M6.09558 17.9192L7.89954 17.2704L7.91351 17.2658L7.94329 16.1693L6.09558 17.9192Z" fill="currentColor"/>
<path d="M18.3391 9.88863C18.0971 9.18492 17.7415 8.52588 17.2854 7.93852L17.9435 6.10943L16.1842 7.98227L17.2761 7.94783L16.0418 8.09956H15.9841V8.02509H15.9096V7.9711L16.0949 6.7424C15.5085 6.28442 14.8494 5.92884 14.1448 5.68962C12.7737 5.23351 11.2927 5.23351 9.92249 5.68962C9.21599 5.92977 8.55602 6.28908 7.97146 6.75264L6.1377 6.08895L8.05523 7.8985L8.02079 6.7424L8.19113 7.94225V8.02044H8.11294V8.09863H8.0301L6.84049 7.91805L7.88396 7.95714L6.13863 6.10849L6.79674 7.93759C6.33318 8.52216 5.97388 9.18119 5.73372 9.8877C5.27854 11.2579 5.27854 12.7398 5.73372 14.11C5.97388 14.8165 6.33318 15.4755 6.79674 16.0601L6.14329 17.8641L7.9035 16.021L6.80605 16.0554L7.96215 15.8991H8.02079V15.9726H8.09898V16.0312L7.91281 17.2553C8.5011 17.7114 9.16014 18.067 9.86385 18.3081C11.235 18.7567 12.7141 18.7567 14.0861 18.3081C14.7898 18.0688 15.448 17.7142 16.0362 17.2599H15.9878C16.0604 17.2599 16.0604 17.2255 16.0558 17.2115V16.9137C16.0558 16.802 16.0558 16.6893 16.0316 16.5776C16.0074 16.4659 15.9878 16.2407 15.9636 16.0899L15.8994 16.0312L15.9441 15.9921V15.9242H16.0269V15.8507H16.0707C16.2559 15.8991 16.4458 15.9437 16.631 15.9828L16.9382 16.0312L17.09 16.0554H17.2063C17.2063 16.0554 17.2305 16.0554 17.2556 15.9875V16.0703C17.7183 15.4858 18.0785 14.8258 18.3187 14.1202C18.7738 12.7491 18.7738 11.2681 18.3187 9.89701L18.3373 9.8877L18.3391 9.88863ZM13.6337 10.7124C13.6337 10.4397 13.0287 9.84488 13.0287 9.84488L11.732 9.88398L10.8496 10.4052C10.4103 11.5856 11.1661 11.9709 11.1661 11.9709L11.625 11.6731C11.4435 11.6014 11.3234 11.4292 11.3178 11.2346C11.3178 10.8735 11.8046 10.8539 12.2487 10.9712C12.6927 11.0876 12.9468 11.9802 12.931 12.4335C12.917 12.8869 12.2487 13.2089 12.2487 13.2089H11.9229C11.383 13.5636 10.6662 13.464 10.2446 12.9753L9.26998 11.5604L9.13314 10.381L9.20668 9.82534L9.71864 9.65406L10.1524 9.07415L11.639 8.19171L11.7274 8.33785L12.0094 8.47469L12.3855 8.25501L14.0238 8.87402L14.9984 10.1809L15.3893 11.4143L15.2618 12.8776L14.6968 14.1109L14.209 14.3995L14.1355 14.7206L12.9756 15.2568H12.2291L11.3709 15.4904L9.7959 15.0036L9.56226 14.662C9.56226 14.662 11.8195 13.7888 12.6098 13.4286C13.0566 13.2424 13.3992 12.8701 13.5453 12.4093L13.7361 12.3116C13.7361 12.3116 13.6626 10.9898 13.6384 10.7124H13.6337Z" fill="currentColor"/>
<path d="M16.1003 6.72948H16.1105L16.0668 7.83625L17.9294 6.07045L17.934 6.0658L16.1003 6.72948Z" fill="currentColor"/>
<path d="M17.8074 17.8121L17.6855 17.6901L17.436 17.4463L16.9492 16.9585C16.6755 16.6951 16.3934 16.4419 16.1105 16.1934V17.2173C16.1105 17.2173 16.1105 17.2461 16.1887 17.2564H16.1105L17.8949 17.8996C17.8949 17.8745 17.8763 17.853 17.8511 17.8512L17.8074 17.8121Z" fill="currentColor"/>
<path d="M17.2265 16.0865H16.9538C16.8514 16.0865 16.749 16.0613 16.6466 16.0567C16.4679 16.0474 16.2892 16.0474 16.1105 16.0567C16.3934 16.3731 16.6755 16.6859 16.9687 16.9931L17.4555 17.4808L17.6994 17.7294L17.8214 17.8504H17.8511C17.866 17.8578 17.8837 17.8578 17.8995 17.8504L17.3634 16.389L17.2656 16.1097V16.1888C17.2507 16.0865 17.2368 16.0865 17.2265 16.0865Z" fill="currentColor"/>
<path d="M17.9294 6.06996L17.9336 6.0658L17.9294 6.06996Z" fill="currentColor"/>
<path d="M18.9338 11.9218L22 12L18.6602 10.0499C18.8342 10.6587 18.9254 11.2879 18.9338 11.9218Z" fill="currentColor"/>
<path d="M18.9338 12.0782C18.9245 12.7046 18.8314 13.3283 18.6602 13.9306L22 11.9805L18.9338 12.0782ZM11.9218 5.07177L12 2L10.0499 5.3445C10.6838 5.16299 11.34 5.07084 12 5.07177H11.9218ZM12 5.07177C12.6469 5.07456 13.2901 5.16671 13.911 5.3445L12 2L12.0782 5.07177H12ZM12 22L13.9501 18.6602C13.3469 18.8314 12.7242 18.9236 12.0977 18.9338L12 22ZM10.0499 18.6602L12 22L11.9218 18.9338C11.2888 18.9245 10.6587 18.8333 10.0499 18.6602ZM5.33985 10.0499L2 12L5.06618 11.9218C5.07456 11.2888 5.16578 10.6587 5.33985 10.0499ZM2 12L5.33985 13.9501C5.16764 13.3469 5.07642 12.7242 5.06618 12.0977L2 12Z" fill="currentColor"/>
<path d="M16.1002 17.2703H16.1049H16.1002ZM6.0658 6.0658L6.07045 6.07045L6.0658 6.0658Z" fill="currentColor"/>
</svg>
