<svg width="24" height="24" viewBox="0 0 24 24" fill="none" xmlns="http://www.w3.org/2000/svg">
<path d="M2.06331 3.52051C2.18642 3.44526 2.26487 3.59735 2.33128 3.67737C6.60457 9.15754 10.8829 14.6337 15.1558 20.1139C15.2436 20.1919 15.1772 20.3587 15.0587 20.3408C13.0128 20.3432 10.9664 20.3416 8.92045 20.3416C8.75655 20.3436 8.59965 20.26 8.49906 20.129C6.37621 17.4102 4.25451 14.6903 2.13166 11.9711C2.04156 11.8612 1.99495 11.7191 2.00078 11.5761C2.00078 8.94932 2.00155 6.3221 2 3.69528C2.00117 3.63318 1.99883 3.55276 2.06331 3.52051Z" fill="currentColor"/>
<path d="M21.8269 3.50772C21.9142 3.47388 22.0106 3.55669 21.9977 3.65065C22.0008 6.27866 21.9974 8.90667 21.9993 11.5347C22.0051 11.6836 21.9733 11.8377 21.8789 11.9547C21.2338 12.782 20.5879 13.6089 19.9429 14.4358C19.8353 14.5791 19.6593 14.6584 19.4834 14.6492C17.451 14.6472 15.4183 14.6504 13.3859 14.6476C13.2659 14.6667 13.1976 14.5007 13.2861 14.4207C16.1045 10.8061 18.9253 7.19275 21.7453 3.57899C21.7667 3.54793 21.7938 3.52404 21.8269 3.50772Z" fill="currentColor"/>
</svg>
