<svg width="24" height="24" viewBox="0 0 24 24" fill="none" xmlns="http://www.w3.org/2000/svg">
<path d="M13.3262 20.9306L12.4661 20.9545H12.4561C12.2611 20.9545 12.1024 20.7964 12.0999 20.6007C12.0974 20.405 12.2524 20.2431 12.4474 20.2369L13.0274 20.2218C12.9049 19.9546 12.7799 19.6886 12.6437 19.4314L11.7874 19.5443L11.7398 19.5481C11.5523 19.5481 11.3961 19.4013 11.3836 19.2119C11.3711 19.0237 11.5073 18.8581 11.6936 18.8343L12.2649 18.7577C12.1149 18.5043 11.9574 18.2559 11.7949 18.0125L10.9648 18.2132C10.7735 18.2597 10.5798 18.1417 10.5335 17.9498C10.4873 17.7566 10.606 17.5634 10.7973 17.517L11.3511 17.3827C11.1761 17.1469 10.996 16.916 10.8098 16.6914L10.0085 16.9775C9.82222 17.0427 9.61846 16.9461 9.5522 16.7592C9.48595 16.5723 9.58345 16.3678 9.76847 16.3013L10.3085 16.1093C10.1085 15.8935 9.90598 15.6828 9.69596 15.4783L8.92841 15.8471C8.74965 15.9324 8.53713 15.8572 8.45088 15.6778C8.36587 15.4996 8.44213 15.2851 8.61964 15.201L9.12842 14.9564C8.90966 14.7619 8.68464 14.575 8.45588 14.3918L7.73583 14.8359C7.62707 14.9049 7.49081 14.9087 7.37705 14.8485C7.26455 14.787 7.19329 14.6703 7.18954 14.5411C7.18704 14.4131 7.25205 14.2927 7.36205 14.2262L7.84334 13.9289C7.60582 13.7595 7.36455 13.5939 7.11829 13.4371L6.44574 13.9565C6.34448 14.0343 6.20822 14.0531 6.09072 14.0042C5.97321 13.954 5.8907 13.8461 5.8732 13.7194C5.85695 13.5927 5.90945 13.4659 6.01071 13.3882L6.46324 13.0381C6.20947 12.8939 5.95071 12.7584 5.68819 12.6279L5.07065 13.2175C4.97814 13.3054 4.84563 13.338 4.72312 13.3016C4.59937 13.2652 4.50561 13.1661 4.47561 13.0419C4.4456 12.9164 4.48561 12.786 4.57811 12.6969L4.99064 12.3042C4.72312 12.1863 4.45311 12.0771 4.17809 11.9743L3.62555 12.6266C3.54304 12.7245 3.41428 12.7709 3.28803 12.7483C3.16302 12.7245 3.05801 12.6354 3.01551 12.5137C2.973 12.3933 2.99801 12.2578 3.08176 12.1612L3.45679 11.7196C2.98676 11.569 2.50672 11.4448 2.02169 11.3395C1.70917 16.1093 4.80313 20.4351 9.40594 21.6621C9.72221 21.7524 10.0435 21.8214 10.3685 21.8716C10.5273 21.9004 10.6798 21.918 10.831 21.9368C10.881 21.9443 10.9285 21.9493 10.9773 21.9493L11.0248 21.9531C11.2261 21.9782 11.4298 21.9933 11.6323 21.9945H11.6411L11.6486 21.9933L11.6986 21.9945C12.3574 22.0196 13.0174 21.9757 13.6662 21.8628C13.6137 21.6972 13.5562 21.5278 13.4962 21.3547C13.4437 21.2104 13.3812 21.0724 13.325 20.9306H13.3262ZM21.9955 11.7234L21.9943 11.7008L21.9968 11.6782L21.9893 11.6456L21.9918 11.6167C21.988 11.416 21.9743 11.2165 21.9493 11.0183L21.9468 10.9744C21.9468 10.933 21.943 10.8903 21.9343 10.8489C21.918 10.6821 21.8968 10.5303 21.8705 10.3835C21.818 10.0535 21.7468 9.72608 21.6555 9.40491C21.2055 7.71124 20.3154 6.16812 19.0766 4.93362C16.6389 2.47968 13.1049 1.47101 9.74471 2.26766C9.92223 2.7582 10.1197 3.23995 10.341 3.70665L10.7248 3.27257C10.856 3.12704 11.0798 3.11449 11.2273 3.24497C11.3736 3.37545 11.3886 3.60001 11.2598 3.74805L10.6935 4.38914C10.8323 4.64758 10.9785 4.901 11.1311 5.14941L11.4623 4.68522C11.5373 4.57983 11.6611 4.52212 11.7874 4.53467C11.9161 4.54721 12.0274 4.62751 12.0799 4.74418C12.1324 4.86086 12.1186 4.9976 12.0436 5.10173L11.5486 5.79802C11.7136 6.04015 11.8836 6.27852 12.0611 6.51187L12.3436 6.01255C12.4411 5.83942 12.6587 5.7792 12.8312 5.87706C13.0024 5.97491 13.0624 6.19321 12.9649 6.36634L12.5449 7.10904C12.7337 7.33236 12.9312 7.54814 13.1324 7.76017L13.3575 7.23952C13.4387 7.06012 13.6475 6.97857 13.8262 7.05761C14.0063 7.13664 14.0888 7.34616 14.0138 7.52556L13.675 8.30339C13.885 8.50663 14.1013 8.70486 14.325 8.89304L14.4938 8.35358C14.5538 8.16539 14.7551 8.06001 14.9438 8.12023C15.1313 8.17919 15.2351 8.38118 15.1751 8.57062L14.9188 9.38609C15.1501 9.56549 15.3851 9.73988 15.6264 9.90673L15.7414 9.34218C15.7801 9.14897 15.9689 9.02352 16.1626 9.06366C16.3552 9.10255 16.4802 9.292 16.4402 9.48645L16.2702 10.3233C16.5177 10.4776 16.7714 10.6243 17.0277 10.7636L17.084 10.1953C17.1027 9.99832 17.2777 9.8553 17.474 9.87411C17.669 9.89293 17.8128 10.0686 17.794 10.2643L17.7115 11.1174C17.974 11.2454 18.2415 11.3683 18.5116 11.4812L18.5078 10.9029C18.5066 10.7046 18.6653 10.5428 18.8616 10.5415H18.8641C19.0603 10.5415 19.2204 10.7009 19.2216 10.8978L19.2279 11.7635C19.5029 11.8626 19.7816 11.9504 20.0617 12.0345L19.9979 11.4574C19.9817 11.3294 20.0354 11.2027 20.1392 11.1262C20.2417 11.0496 20.3779 11.0346 20.4954 11.086C20.613 11.1375 20.6942 11.2491 20.708 11.3758L20.803 12.2315C20.953 12.2691 21.0992 12.3105 21.2505 12.3431C21.4818 12.3933 21.7293 12.4372 21.988 12.4786C21.9993 12.2239 22.0043 11.9718 21.9955 11.7234Z" fill="currentColor"/>
<path d="M20.6644 12.9356L20.2144 13.7021C20.1144 13.8727 19.8956 13.9279 19.7268 13.8288C19.5568 13.7285 19.4993 13.5102 19.5993 13.3395L19.9444 12.7499C19.6306 12.6571 19.3193 12.5592 19.0118 12.4488L18.4905 13.1589C18.373 13.3182 18.1492 13.3521 17.9905 13.2342C17.8317 13.1162 17.798 12.8929 17.9155 12.7323L18.3242 12.1766C18.023 12.0511 17.7242 11.9194 17.4317 11.7776L16.8316 12.4375C16.6979 12.583 16.4729 12.5931 16.3266 12.4588C16.1816 12.3259 16.1716 12.1 16.3041 11.9532L16.7716 11.4401C16.4841 11.2858 16.2016 11.1227 15.9241 10.9508L15.2565 11.5455C15.1615 11.6321 15.0265 11.6609 14.9053 11.6208C14.7828 11.5794 14.6927 11.4765 14.6677 11.3511C14.6415 11.2243 14.6852 11.0939 14.7828 11.0098L15.299 10.5494C15.029 10.3662 14.7678 10.173 14.509 9.97228L13.7839 10.4942C13.6789 10.5695 13.5439 10.582 13.4264 10.5293C13.3102 10.4766 13.2301 10.3662 13.2189 10.237C13.2064 10.109 13.2627 9.98483 13.3689 9.91081L13.9364 9.50307C13.6864 9.29231 13.4452 9.07401 13.2089 8.84819L12.4276 9.29356C12.3163 9.35629 12.1801 9.35629 12.0688 9.29231C11.9588 9.22707 11.8913 9.10788 11.8926 8.97866C11.8926 8.8507 11.9638 8.73277 12.0751 8.67004L12.6801 8.32503C12.4551 8.08917 12.2338 7.8483 12.0226 7.59864L11.205 7.95619C11.0875 8.01014 10.9512 7.99508 10.8475 7.91855C10.7437 7.84328 10.6887 7.71657 10.7037 7.5886C10.7187 7.46063 10.8012 7.35023 10.9187 7.30005L11.555 7.02153C11.355 6.76309 11.1638 6.49963 10.9787 6.22865L10.1287 6.49963C10.0924 6.51093 10.0562 6.51594 10.0199 6.51594C9.84367 6.51594 9.69491 6.38672 9.66741 6.21234C9.63991 6.03795 9.74366 5.86984 9.91242 5.81589L10.5737 5.60638C10.4012 5.32912 10.2362 5.04684 10.0799 4.75829L9.20863 4.93769C9.18362 4.94271 9.15987 4.94522 9.13612 4.94397C8.95361 4.94397 8.7986 4.80597 8.7811 4.62154C8.7636 4.43963 8.8861 4.27152 9.06487 4.23514L9.73366 4.09713C9.47739 3.56143 9.24863 3.01193 9.05112 2.45239L9.01736 2.46117L9.00361 2.47623L8.89486 2.50383C8.82735 2.52014 8.7611 2.54147 8.69734 2.5653C8.62234 2.5904 8.54733 2.618 8.47733 2.64811C8.39857 2.67696 8.33482 2.69954 8.27356 2.72589C5.74839 3.73833 3.74451 5.74062 2.72444 8.26983C2.69944 8.32252 2.67943 8.37772 2.66193 8.43418L2.64318 8.48436C2.61318 8.55462 2.58818 8.62487 2.56318 8.69513C2.54317 8.7541 2.52317 8.81431 2.50567 8.87704C2.43442 9.08781 2.38566 9.24714 2.34941 9.40271C2.32441 9.48049 2.31191 9.53067 2.29816 9.58211C2.21315 9.92461 2.14815 10.2721 2.09814 10.6234C2.65943 10.7401 3.21322 10.8869 3.75701 11.0625L3.80076 10.3775C3.80826 10.2495 3.88327 10.1354 3.99827 10.0789C4.11203 10.0212 4.24829 10.03 4.35455 10.1002C4.4608 10.1718 4.52081 10.2935 4.51331 10.4214L4.4583 11.3134C4.76333 11.4288 5.0646 11.553 5.36337 11.686L5.47837 10.9985C5.51088 10.8041 5.69589 10.6723 5.8909 10.705C6.08466 10.7388 6.21592 10.9232 6.18217 11.119L6.03466 12.0022C6.32593 12.1477 6.61345 12.302 6.89597 12.4651L7.08348 11.7939C7.13599 11.6045 7.3335 11.4941 7.52101 11.5468C7.71102 11.5995 7.82103 11.7964 7.77103 11.9859L7.53101 12.8515C7.80603 13.0272 8.07355 13.2116 8.33857 13.4035L8.59484 12.7512C8.64109 12.632 8.7486 12.5467 8.87485 12.5278C9.00111 12.509 9.12862 12.5592 9.20738 12.6608C9.28738 12.7612 9.30738 12.8967 9.25863 13.0159L8.92861 13.8564C9.18362 14.0584 9.43239 14.2692 9.67491 14.4875L9.99993 13.864C10.0587 13.751 10.1737 13.677 10.3 13.672C10.4287 13.667 10.55 13.7297 10.6175 13.8376C10.6862 13.9455 10.6925 14.0823 10.6325 14.1964L10.2199 14.9906C10.4512 15.2189 10.6787 15.4535 10.8975 15.6956L11.28 15.1173C11.35 15.0106 11.4725 14.9492 11.6 14.9567C11.7275 14.9655 11.8413 15.0407 11.8976 15.1549C11.9551 15.2703 11.9463 15.4058 11.8751 15.5137L11.3813 16.2614C11.5888 16.5124 11.7888 16.7708 11.9813 17.0343L12.4238 16.4973C12.5489 16.3455 12.7739 16.3242 12.9264 16.4496C13.0789 16.5751 13.1001 16.8009 12.9739 16.954L12.4063 17.644C12.5876 17.915 12.7601 18.1922 12.9251 18.4745L13.4164 17.9915C13.5077 17.9012 13.6389 17.866 13.7627 17.9012C13.8852 17.935 13.9815 18.0329 14.0127 18.1571C14.0452 18.2813 14.0077 18.413 13.9164 18.5021L13.2889 19.1206C13.4402 19.4092 13.5814 19.7052 13.7152 20.0051L14.249 19.5798C14.404 19.4581 14.6277 19.4832 14.749 19.6387C14.8715 19.7931 14.8465 20.0176 14.6927 20.1406L14.0002 20.6926C14.0552 20.8331 14.1165 20.9711 14.1677 21.1129C14.2427 21.3224 14.3077 21.5244 14.3715 21.7213C14.444 21.7038 14.5127 21.6887 14.589 21.6686C14.869 21.5959 15.1465 21.5093 15.4178 21.4089C15.6978 21.3098 15.9716 21.1957 16.2379 21.0664C18.3592 20.0803 20.0669 18.3741 21.0594 16.2489C21.1907 15.9804 21.3057 15.7044 21.4045 15.4234C21.5057 15.1511 21.592 14.8739 21.667 14.5916C21.7482 14.2755 21.8082 13.9957 21.8495 13.7347C21.882 13.5541 21.907 13.3747 21.9295 13.1953C21.6382 13.1489 21.3607 13.0999 21.1007 13.0447C20.9532 13.0121 20.8094 12.9707 20.6632 12.9356H20.6644Z" fill="currentColor"/>
</svg>
