<svg width="24" height="24" viewBox="0 0 24 24" fill="none" xmlns="http://www.w3.org/2000/svg">
<path fill-rule="evenodd" clip-rule="evenodd" d="M12.9395 3.35444L21.8639 19.4756C22.1532 19.9968 21.9661 20.6539 21.4467 20.9431C21.2876 21.0326 21.107 21.079 20.9242 21.079H3.07524C2.48063 21.079 2 20.5956 2 20C2 19.8166 2.04624 19.6364 2.1344 19.4756L11.0589 3.35552C11.3492 2.83436 12.0029 2.64662 12.5212 2.93579C12.6975 3.0329 12.8416 3.17856 12.9405 3.35444H12.9395Z" stroke="white"/>
<path d="M11.9998 9.2098C12.5936 9.2098 13.075 8.72672 13.075 8.13081C13.075 7.5349 12.5936 7.05182 11.9998 7.05182C11.406 7.05182 10.9246 7.5349 10.9246 8.13081C10.9246 8.72672 11.406 9.2098 11.9998 9.2098Z" fill="currentColor"/>
<path d="M9.84941 12.4473C10.4432 12.4473 10.9246 11.9642 10.9246 11.3683C10.9246 10.7724 10.4432 10.2893 9.84941 10.2893C9.25557 10.2893 8.77417 10.7724 8.77417 11.3683C8.77417 11.9642 9.25557 12.4473 9.84941 12.4473Z" fill="currentColor"/>
<path d="M14.1504 12.4473C14.7443 12.4473 15.2257 11.9642 15.2257 11.3683C15.2257 10.7724 14.7443 10.2893 14.1504 10.2893C13.5566 10.2893 13.0752 10.7724 13.0752 11.3683C13.0752 11.9642 13.5566 12.4473 14.1504 12.4473Z" fill="currentColor"/>
<path d="M11.9998 15.6841C12.5936 15.6841 13.075 15.201 13.075 14.6051C13.075 14.0092 12.5936 13.5261 11.9998 13.5261C11.406 13.5261 10.9246 14.0092 10.9246 14.6051C10.9246 15.201 11.406 15.6841 11.9998 15.6841Z" fill="currentColor"/>
<path d="M8.77409 15.6841C9.36793 15.6841 9.84933 15.201 9.84933 14.6051C9.84933 14.0092 9.36793 13.5261 8.77409 13.5261C8.18025 13.5261 7.69885 14.0092 7.69885 14.6051C7.69885 15.201 8.18025 15.6841 8.77409 15.6841Z" fill="currentColor"/>
<path d="M9.84941 18.9209C10.4432 18.9209 10.9246 18.4378 10.9246 17.8419C10.9246 17.246 10.4432 16.7629 9.84941 16.7629C9.25557 16.7629 8.77417 17.246 8.77417 17.8419C8.77417 18.4378 9.25557 18.9209 9.84941 18.9209Z" fill="currentColor"/>
<path d="M6.6237 18.9209C7.21754 18.9209 7.69894 18.4378 7.69894 17.8419C7.69894 17.246 7.21754 16.7629 6.6237 16.7629C6.02986 16.7629 5.54846 17.246 5.54846 17.8419C5.54846 18.4378 6.02986 18.9209 6.6237 18.9209Z" fill="currentColor"/>
<path d="M17.3761 18.9209C17.97 18.9209 18.4514 18.4378 18.4514 17.8419C18.4514 17.246 17.97 16.7629 17.3761 16.7629C16.7823 16.7629 16.3009 17.246 16.3009 17.8419C16.3009 18.4378 16.7823 18.9209 17.3761 18.9209Z" fill="currentColor"/>
<path d="M14.1504 18.9209C14.7443 18.9209 15.2257 18.4378 15.2257 17.8419C15.2257 17.246 14.7443 16.7629 14.1504 16.7629C13.5566 16.7629 13.0752 17.246 13.0752 17.8419C13.0752 18.4378 13.5566 18.9209 14.1504 18.9209Z" fill="currentColor"/>
<path d="M15.2255 15.6841C15.8193 15.6841 16.3007 15.201 16.3007 14.6051C16.3007 14.0092 15.8193 13.5261 15.2255 13.5261C14.6317 13.5261 14.1503 14.0092 14.1503 14.6051C14.1503 15.201 14.6317 15.6841 15.2255 15.6841Z" fill="currentColor"/>
</svg>
