<svg width="24" height="24" viewBox="0 0 24 24" fill="none" xmlns="http://www.w3.org/2000/svg">
<path d="M9.15 11.05L8.3 13L6.35 13.85L8.3 14.7L9.15 16.65L10 14.7L11.95 13.85L10 13L9.15 11.05ZM15.8 10.75L15.175 12.1L13.825 12.725L15.175 13.35L15.8 14.7L16.425 13.35L17.775 12.725L16.425 12.1L15.8 10.75ZM3.5 4L5.35 7.8H8.6L6.75 4H8.975L10.825 7.8H14.075L12.225 4H14.45L16.3 7.8H19.55L17.7 4H20.5C20.9 4 21.25 4.15 21.55 4.45C21.85 4.75 22 5.1 22 5.5V18.5C22 18.9 21.85 19.25 21.55 19.55C21.25 19.85 20.9 20 20.5 20H3.5C3.1 20 2.75 19.85 2.45 19.55C2.15 19.25 2 18.9 2 18.5V5.5C2 5.1 2.15 4.75 2.45 4.45C2.75 4.15 3.1 4 3.5 4ZM3.5 9.3V18.5H20.5V9.3H3.5Z" fill="currentColor"/>
</svg>
