<svg width="24" height="24" viewBox="0 0 24 24" fill="none" xmlns="http://www.w3.org/2000/svg">
<path fill-rule="evenodd" clip-rule="evenodd" d="M11.1645 2C10.5262 2 10.0087 2.51746 10.0087 3.15578C10.0087 3.7941 10.5262 4.31156 11.1645 4.31156H11.6168C12.2551 4.31156 12.7725 3.7941 12.7725 3.15578C12.7725 2.51746 12.2551 2 11.6168 2H11.1645ZM9.9952 9.84747C9.78846 9.15756 9.63183 8.14937 9.63183 8.03015C9.63183 7.97427 9.71388 8.05467 9.84965 8.18769C10.0036 8.33853 10.2266 8.55703 10.4774 8.72129C11.191 9.24388 11.3128 9.18363 11.9074 8.88947C11.9273 8.87967 11.9476 8.8696 11.9685 8.85929C12.5772 8.47916 12.5917 8.6843 12.5917 14.4707C12.5917 19.9798 12.5468 20.4339 12.0137 20.3318C11.515 20.2367 11.413 19.701 11.2707 16.4272C11.1914 14.606 11.1502 13.6589 10.8914 13.5951C10.611 13.526 10.0752 14.4937 8.95886 16.5097L8.95886 16.5097C7.49449 19.1548 6.62856 20.388 6.23423 20.3903C5.91619 20.3923 5.65628 20.2284 5.65628 20.026C5.65628 19.8236 6.71707 17.733 8.01366 15.3799C10.3023 11.2263 10.3601 11.0655 9.9952 9.84747ZM9.61078 21.1307C16.7334 21.0435 16.8761 21.028 17.2751 20.3051C17.6601 19.6076 17.7835 19.9069 17.8157 20.2123C17.8479 20.5176 17.6549 21.095 17.2077 21.457C16.5336 22.0033 15.8163 22.0498 9.32742 21.9689C4.77747 21.9124 2.2183 21.7602 2.27081 21.5498C2.32167 21.3457 5.12226 21.1855 9.61078 21.1307ZM15.0841 4.96482C15.0841 4.71505 15.2866 4.61307 15.5364 4.61307L21.265 4.51256C21.5148 4.51256 21.7173 4.71505 21.7173 4.96482C21.7173 5.2146 21.5148 5.41709 21.265 5.41709L15.5364 5.31658C15.2866 5.31658 15.0841 5.2146 15.0841 4.96482ZM9.4057 4.96482C9.4057 4.71505 9.62125 4.71357 9.76317 4.71357L12.8171 4.61307C12.959 4.61307 13.1745 4.71505 13.1745 4.96482C13.1745 5.01311 13.1665 5.05588 13.1525 5.09345C13.1353 5.17131 13.0896 5.22814 13.043 5.25499L11.1234 6.25307C11.0319 6.30583 10.7916 6.43494 10.6669 6.21854C10.5445 6.00632 10.7718 5.87558 10.867 5.82085L10.8725 5.8177L11.7069 5.28005L9.76317 5.21608C9.62125 5.21608 9.4057 5.2146 9.4057 4.96482ZM14.6951 4.94834C14.4716 4.70139 14.0903 4.68234 13.8433 4.90579L11.298 7.20891L8.75244 4.90584C8.50548 4.68241 8.12415 4.70148 7.90072 4.94844C7.67728 5.1954 7.69635 5.57673 7.94331 5.80016L10.8786 8.45585C10.9976 8.56352 11.1478 8.61488 11.2965 8.61155C11.4462 8.61561 11.5976 8.56428 11.7174 8.4559L14.6525 5.80007C14.8995 5.57662 14.9185 5.19529 14.6951 4.94834ZM14.3987 9.32403L12.8948 7.96337L13.7845 7.14196L14.8181 8.07709L17.3635 5.77397C17.6104 5.55052 17.9918 5.56957 18.2152 5.81652C18.4387 6.06347 18.4196 6.4448 18.1727 6.66825L15.2375 9.32408C15.1177 9.43246 14.9663 9.48379 14.8167 9.47974C14.6679 9.48306 14.5177 9.4317 14.3987 9.32403Z" fill="currentColor"/>
</svg>
