<svg width="24" height="24" viewBox="0 0 24 24" fill="none" xmlns="http://www.w3.org/2000/svg">
<path d="M17.5 14.5H16V11.5H17.5V14.5ZM16 3C15.45 3 15 3.45 15 4V5H9V4C9 3.45 8.55 3 8 3C7.45 3 7 3.45 7 4V5H4C2.9 5 2 5.9 2 7V19C2 20.1 2.9 21 4 21H20C21.1 21 22 20.1 22 19V7C22 5.9 21.1 5 20 5H17V4C17 3.45 16.55 3 16 3ZM9.5 15.25C9.5 15.66 9.16 16 8.75 16H6C5.45 16 5 15.55 5 15V13.5C5 12.95 5.45 12.5 6 12.5H8V11.5H5.75C5.34 11.5 5 11.16 5 10.75C5 10.34 5.34 10 5.75 10H8.5C9.05 10 9.5 10.45 9.5 11V12.5C9.5 13.05 9.05 13.5 8.5 13.5H6.5V14.5H8.75C9.16 14.5 9.5 14.84 9.5 15.25ZM19 15C19 15.55 18.55 16 18 16H15.5C14.95 16 14.5 15.55 14.5 15V11C14.5 10.45 14.95 10 15.5 10H18C18.55 10 19 10.45 19 11V15ZM12.75 7.75C12.75 8.16 12.41 8.5 12 8.5C11.59 8.5 11.25 8.16 11.25 7.75C11.25 7.34 11.59 7 12 7C12.41 7 12.75 7.34 12.75 7.75ZM12.75 11.25C12.75 11.66 12.41 12 12 12C11.59 12 11.25 11.66 11.25 11.25C11.25 10.84 11.59 10.5 12 10.5C12.41 10.5 12.75 10.84 12.75 11.25ZM12.75 14.75C12.75 15.16 12.41 15.5 12 15.5C11.59 15.5 11.25 15.16 11.25 14.75C11.25 14.34 11.59 14 12 14C12.41 14 12.75 14.34 12.75 14.75ZM12.75 18.25C12.75 18.66 12.41 19 12 19C11.59 19 11.25 18.66 11.25 18.25C11.25 17.84 11.59 17.5 12 17.5C12.41 17.5 12.75 17.84 12.75 18.25Z" fill="currentColor"/>
</svg>
