<svg width="24" height="24" viewBox="0 0 24 24" fill="none" xmlns="http://www.w3.org/2000/svg">
<path fill-rule="evenodd" clip-rule="evenodd" d="M20.3803 3.20022C19.8628 3.55803 18.6453 4.85255 15.6846 8.19208C12.159 12.1692 12.4502 12.0603 10.1311 10.2684C8.05682 8.66568 7.53978 8.47802 6.795 9.05706C5.91798 9.73883 6.12904 10.2147 8.95256 13.9244C11.4824 17.248 12.2741 17.7585 13.6316 16.9404C14.5312 16.3981 22.2046 5.16388 22.336 4.19675C22.4878 3.07741 21.3767 2.51113 20.3803 3.20022ZM4.45571 5.25871C2.49397 5.96845 2.35505 6.47447 2.3523 12.9203C2.34852 21.3273 2.04443 21.0017 9.96877 21.0738C17.8282 21.1451 18.4573 20.826 18.4594 16.7674C18.4607 14.5217 18.1223 13.9862 17.2749 14.893C16.7923 15.4092 16.7069 15.6559 16.5747 16.9153C16.3481 19.0724 16.3131 19.0847 10.4768 19.0871C3.72486 19.0899 4.2358 19.587 4.23551 13.0137C4.23508 6.54362 3.7687 7.03802 9.87239 7.03802C12.5053 7.03802 14.2401 6.98063 14.4954 6.88494C15.5251 6.49943 15.9447 5.45498 15.1849 5.16933C14.5478 4.92988 5.14809 5.00821 4.45571 5.25871Z" fill="currentColor"/>
</svg>
