<svg width="24" height="24" viewBox="0 0 24 24" fill="none" xmlns="http://www.w3.org/2000/svg">
<path fill-rule="evenodd" clip-rule="evenodd" d="M13.3094 3H4.68232L11.9834 10.0058L15.5304 6.39775L18.2652 9.14831V15.9034L21 18.5973V10.653C21 9.99775 20.7348 9.36674 20.2541 8.89752L14.8343 3.60674C14.4282 3.22652 13.8812 3.00809 13.3094 3ZM10.6823 20.9998H19.6575L15.5138 16.9144V10.4587L12.0331 13.727L8.61049 10.4587V17.5616L5.87569 14.714V7.78093L3 4.98992V13.1364C3 13.8079 3.26519 14.4632 3.74586 14.9486L9.15746 20.3688C9.56353 20.7652 10.1105 20.9917 10.6823 20.9998ZM16.7072 3L20.9917 7.18247V3H16.7072ZM3 16.8256L7.28453 21H3V16.8256Z" fill="currentColor"/>
</svg>
