<svg width="20" height="20" viewBox="0 0 20 20" fill="none" xmlns="http://www.w3.org/2000/svg">
<path fill-rule="evenodd" clip-rule="evenodd" d="M4.45834 11.7056C5.56573 11.9876 6.37826 12.0909 6.53628 11.9329L6.59809 11.871L6.60924 11.2587C6.6182 10.7668 6.61979 10.6208 6.6899 10.5707C6.72061 10.5488 6.76445 10.5453 6.82782 10.5392C7.05585 10.5173 7.14681 10.5943 7.17696 10.8348C7.20723 11.0764 7.25585 11.4505 7.29207 11.7205C7.32778 11.9869 7.32785 12.0673 7.29321 13.0476C7.27292 13.6216 7.24113 14.578 7.22255 15.173C7.204 15.7679 7.17803 16.5783 7.1649 16.9737L7.14101 17.6928L7.24037 17.9774C7.50832 18.7449 7.58302 19.0194 7.75665 19.1159C7.87498 19.1817 8.03924 19.1649 8.34192 19.165C8.73833 19.1653 8.93873 19.1731 8.98312 19.0937C9.03001 19.0098 8.90279 18.8286 8.64863 18.4383C8.0939 17.5864 8.02869 17.4213 8.08748 17.0179C8.10755 16.8803 8.13972 16.6472 8.15896 16.5C8.17823 16.3528 8.20841 16.127 8.22603 15.9982C8.24367 15.8694 8.27379 15.6436 8.29294 15.4964C8.31213 15.3492 8.34224 15.1233 8.35986 14.9945C8.3775 14.8657 8.40761 14.6399 8.42677 14.4927C8.44595 14.3455 8.47613 14.1196 8.49384 13.9908C8.51155 13.862 8.54215 13.6312 8.56182 13.4778C8.58151 13.3245 8.61122 13.1037 8.62784 12.9872C8.64448 12.8706 8.67501 12.6398 8.69571 12.4742C8.74659 12.0668 8.77616 11.9694 8.89952 11.8021C9.83694 10.5314 10.2661 9.28617 10.216 7.98217C10.1922 7.36223 10.6216 6.31336 11.3512 5.20942C11.459 5.04637 11.5086 4.93635 11.5924 4.8946C11.7503 4.81579 12.0296 4.98011 13.0496 5.48983C14.3291 6.12923 14.4577 6.19645 14.5602 6.16841C14.5757 6.16418 14.5906 6.15778 14.6087 6.15085C14.9348 6.02628 15.5308 5.36584 15.5308 5.12899C15.5308 5.02354 15.4811 4.95777 14.3486 3.56372C13.2376 2.19617 12.982 1.92271 13.0173 1.69408C13.0316 1.60109 13.094 1.51552 13.1666 1.36676C13.365 0.96011 13.3773 0.895741 13.2649 0.853006C13.1801 0.820755 13.1414 0.82613 13.0204 0.886931C12.9598 0.917442 12.74 1.0688 12.5322 1.22327C12.0757 1.56245 12.0451 1.57876 11.7558 1.63621C10.5374 1.87816 9.58847 2.34432 7.53485 3.70968C6.07589 4.67968 5.23955 5.19516 4.45834 5.39337V11.7056ZM10.5491 10.0653C10.5792 9.9856 10.6186 9.89777 10.6367 9.87018C10.673 9.81482 10.7516 9.80456 10.8077 9.84787C10.8604 9.88865 12.6293 12.551 12.6577 12.6324C12.6956 12.7412 12.6713 12.7967 11.97 14.1979C11.4468 15.2433 11.3319 15.4891 11.1494 15.6644C11.0762 15.7347 10.9922 15.7936 10.8665 15.8883C10.7147 16.0027 10.3962 16.2523 10.1587 16.4431C9.77908 16.7481 9.6065 16.8968 9.52826 16.8575C9.45639 16.8214 9.46415 16.6267 9.46415 16.249C9.46415 15.8699 9.45647 15.7068 9.53158 15.6044C9.59685 15.5155 9.72465 15.4725 9.97435 15.3734C10.361 15.2201 10.3803 15.2003 10.5334 14.8035C10.7699 14.19 10.9562 13.7061 11.09 13.3574C11.172 13.1439 11.2275 13.0337 11.2199 12.928C11.2087 12.7707 11.0577 12.6234 10.6463 12.1603C10.0435 11.4818 9.98366 11.4152 9.97777 11.3442C9.97705 11.3355 9.97714 11.3267 9.97714 11.3167C9.97714 11.2636 10.0278 11.1475 10.1429 10.9371C10.308 10.6351 10.4453 10.3405 10.5491 10.0653Z" fill="currentColor"/>
</svg>
