<svg width="24" height="24" viewBox="0 0 24 24" fill="none" xmlns="http://www.w3.org/2000/svg">
<path d="M11.891 2.00108C9.66481 2.01557 7.46534 2.80818 5.73743 4.20387L7.62475 6.39663C9.21889 5.13917 11.3671 4.62637 13.3592 5.02212C14.4539 5.23281 15.4951 5.71328 16.3747 6.39663L18.2631 4.20387C16.475 2.76136 14.1931 1.96652 11.891 2.00108Z" fill="currentColor"/>
<path d="M5.12219 4.74359C3.13119 6.61083 1.96512 9.32865 2.0008 12.0699C2.00303 14.9159 3.30063 17.7106 5.45662 19.56C7.44874 21.3024 10.1599 22.1909 12.8053 21.9657C15.6725 21.7528 18.3937 20.2211 20.0759 17.8946C21.7124 15.684 22.3545 12.7677 21.8105 10.0644C21.4114 7.99538 20.3267 6.07686 18.7827 4.65106L16.8943 6.84494C18.416 8.27965 19.2465 10.3966 19.0904 12.4857C19.0224 13.5202 18.7214 14.5424 18.2131 15.451L14.3649 11.7332L12.4229 7.54724L12.4196 13.8858L16.3101 17.6504C14.5755 18.9971 12.1966 19.4441 10.0897 18.8466C9.23128 18.608 8.41972 18.2056 7.71294 17.6672L11.6292 13.8858C11.6225 11.8257 11.6537 9.60066 11.6292 7.54055L9.68499 11.7332L5.80221 15.4822C4.61831 13.4143 4.59044 10.7422 5.72974 8.65087C6.08647 7.982 6.55803 7.36999 7.10539 6.84494L5.21694 4.65218L5.12219 4.74359Z" fill="currentColor"/>
</svg>
