<svg width="24" height="24" viewBox="0 0 24 24" fill="none" xmlns="http://www.w3.org/2000/svg">
<path d="M19.6124 2C18.5323 2 17.6559 2.87634 17.6559 3.95648C17.6559 5.03661 18.5323 5.91295 19.6124 5.91295C20.6925 5.91295 21.5689 5.03661 21.5689 3.95648C21.5689 2.87634 20.6925 2 19.6124 2ZM5.9952 3.31111C5.82876 3.28054 5.65213 3.35017 5.55363 3.50132C5.42116 3.70173 5.4789 3.97176 5.67931 4.10253L10.2054 7.06612L10.1357 7.11367V7.11707C9.43262 7.53316 8.96048 8.29741 8.96048 9.17375C8.96048 9.9312 9.31543 10.6071 9.86739 11.047L9.86569 11.0572L13.1418 13.3703L11.0341 15.7837C10.8286 15.9807 10.6996 16.2575 10.6996 16.5649C10.6996 16.7296 10.7403 16.8859 10.8066 17.0268L2.64948 12.4889C2.58665 12.4532 2.51532 12.4328 2.44229 12.4328C2.24189 12.4277 2.06526 12.5619 2.01431 12.7555C1.96336 12.9491 2.05167 13.1529 2.2283 13.2497L17.3553 21.665C17.3672 21.6718 17.3774 21.6769 17.3893 21.682C17.3893 21.682 17.965 21.9418 18.7021 21.9927C19.4392 22.042 20.4174 21.8552 21.0662 20.9737C21.163 20.8481 21.1851 20.6799 21.1239 20.5339C21.0611 20.3895 20.9252 20.2876 20.7673 20.2723C20.6093 20.2571 20.4548 20.3284 20.3665 20.4575C19.9215 21.0621 19.3237 21.1623 18.7598 21.1232C18.1994 21.0858 17.7561 20.8922 17.751 20.8905L11.9088 17.6399C12.2162 17.606 12.4828 17.4446 12.6577 17.2085L12.6594 17.2102L15.6553 13.7949L15.6536 13.7864C15.8166 13.5979 15.9168 13.355 15.9168 13.0867C15.9168 12.708 15.7232 12.3768 15.4294 12.1815L12.6255 9.98725L13.6886 9.34528L10.2054 7.06612L10.9917 6.54134L14.5157 8.84767L15.0473 8.52838V9.64079C15.0473 10.0637 15.2613 10.4594 15.6162 10.6904L18.0092 12.2647L18.0109 12.263C18.1552 12.3683 18.3319 12.4345 18.5255 12.4345C19.0044 12.4345 19.395 12.0439 19.395 11.565C19.395 11.2321 19.2065 10.9468 18.9314 10.8007L18.9331 10.7974L16.7864 9.45737V5.91295C16.7864 4.9534 16.0086 4.17386 15.0473 4.17386C14.6652 4.17386 14.3153 4.30124 14.0283 4.51013L10.9917 6.53964L6.15484 3.37565C6.10559 3.34168 6.05124 3.3213 5.9952 3.31111Z" fill="currentColor"/>
</svg>
