<svg width="24" height="24" viewBox="0 0 24 24" fill="none" xmlns="http://www.w3.org/2000/svg">
<path fill-rule="evenodd" clip-rule="evenodd" d="M4.38492 5.13612L7.50497 5.1178L8.79075 2.27494L11.502 3.8191L14.0369 2L15.6128 4.69288L18.7177 4.38498L18.736 7.50502L21.5789 8.79081L20.0347 11.502L21.8538 14.037L21.5681 14.2041C20.5972 13.4612 19.3834 13.0198 18.0664 13.0198C14.8811 13.0198 12.2989 15.602 12.2989 18.7873C12.2989 19.2348 12.3499 19.6704 12.4463 20.0886L12.3518 20.0348L9.81684 21.8538L8.24094 19.161L5.13607 19.4689L5.11774 16.3488L2.65987 15.2372L4.99345 15.3341L5.04489 14.8757L2.28036 15.0534L2.73913 14.2479L5.10186 14.3461L5.1533 13.8877L2.86035 14.0351L3.28576 13.2882L5.21093 13.3682L5.26236 12.9097L3.43436 13.0273L3.81904 12.3518L3.8013 12.3271L5.31999 12.3902L5.37143 11.9318L3.59937 12.0457L3.07459 11.3144L5.42905 11.4123L5.48049 10.9538L2.93334 11.1176L2.34788 10.3017L5.53812 10.4343L5.57948 9.97654L2.26732 10.1895L1.99995 9.81689L2.8164 9.3391L5.63711 9.45702L5.68855 8.99859L3.1156 9.16401L4.69283 8.241L4.38492 5.13612ZM7.59137 12.6386L7.58914 12.4466L7.50856 12.4518L7.2113 15.2219L5.29756 15.3449L6.00079 8.97851L7.91452 8.85548L7.87199 9.23896L8.77072 9.20905L8.99226 8.78619L11.0571 8.65344L10.7877 9.14194L11.5091 9.11793L11.4856 9.32069C11.4739 9.37493 11.4629 9.44936 11.4526 9.54395L10.6004 9.48146L10.243 10.1295L11.4001 10.091C11.3851 10.2464 11.3797 10.3879 11.384 10.5157L10.0825 10.4206L9.69834 11.1171L11.4122 11.0601C11.4453 11.2475 11.4736 11.3879 11.4969 11.4814L9.57626 11.3385L9.28171 11.8726L9.36569 12.1078L11.7474 12.0285C11.8399 12.1803 11.945 12.3013 12.0624 12.3917L9.39721 12.1961L10.014 13.9236L10.5093 13.8918C10.4777 14.0287 10.4572 14.1817 10.4478 14.3509L10.1521 14.3105L10.3564 14.8827L10.4412 14.8772C10.4672 15.0711 10.5138 15.2198 10.5811 15.3233L8.98388 15.1079L8.33939 15.1494L8.29711 15.0151L7.64036 12.9288C7.6159 12.8629 7.59957 12.7662 7.59137 12.6386ZM7.76822 11.1814C7.79489 11.0895 7.82455 11.0133 7.8572 10.9527L8.20774 10.2836L7.75974 10.2509L7.65612 11.1851L7.76822 11.1814ZM7.65497 11.1955L7.76195 11.2035C7.74187 11.2757 7.72355 11.3572 7.70698 11.4479L7.6264 11.4531L7.65497 11.1955ZM7.76406 10.212L8.2538 10.1957L8.70098 9.34217L7.86732 9.28103L7.76406 10.212ZM11.0494 13.4828C10.8919 13.6548 10.7923 13.941 10.7506 14.3415C10.7328 14.4842 10.73 14.6496 10.7421 14.8376C10.7537 15.0189 10.8266 15.1559 10.9606 15.2484C11.101 15.3337 11.3558 15.3646 11.7251 15.3408C12.1012 15.3166 12.3682 15.2219 12.5261 15.0567C12.6908 14.891 12.7939 14.608 12.8356 14.2075C12.8534 14.0647 12.8563 13.8993 12.8442 13.7113C12.8321 13.5233 12.7556 13.3833 12.6149 13.2912C12.4808 13.1987 12.2258 13.1645 11.8497 13.1887C11.4804 13.2124 11.2136 13.3105 11.0494 13.4828ZM12.5836 6.50701C12.6878 6.40255 12.8355 6.28656 13.0265 6.15902L9.48575 6.27684L12.5836 6.50701ZM11.9121 7.56952C11.9493 7.47403 12.012 7.33729 12.1004 7.15931L8.12589 7.29156L11.9121 7.56952ZM11.6117 8.55909L11.719 8.14147L7.68401 8.27574L11.6117 8.55909ZM16.9017 6.38352C16.5274 6.05935 15.9132 5.91148 15.0591 5.9399C13.9697 5.97615 13.182 6.28176 12.6962 6.85672C12.4436 7.15462 12.2465 7.50453 12.105 7.90646C11.9633 8.30165 11.8545 8.77318 11.7785 9.32104C11.7022 9.86217 11.6696 10.2975 11.6805 10.627C11.7036 11.3197 11.9023 11.8281 12.2766 12.1523C12.6507 12.4697 13.2917 12.6133 14.1996 12.5831C15.1142 12.5527 15.7999 12.3212 16.2568 11.8886C16.3388 11.8108 16.4164 11.7281 16.4898 11.6403L17.0695 11.7185C17.0022 11.615 16.9555 11.4662 16.9296 11.2724L16.7473 11.2841C16.9598 10.9434 17.123 10.5449 17.2371 10.0887C17.4337 9.32137 17.5205 8.59137 17.4975 7.8987C17.4744 7.20602 17.2758 6.70096 16.9017 6.38352ZM14.9764 10.7395C14.8507 10.8043 14.6567 10.8411 14.3944 10.8498L13.5975 10.8763L13.9742 8.23811C14.007 8.00811 14.0862 7.86073 14.212 7.79595C14.3375 7.72445 14.5281 7.68445 14.7836 7.67594L15.5906 7.64909L15.2139 10.2873C15.208 10.3284 15.2007 10.367 15.1919 10.403L14.671 10.4365L15.161 10.5035C15.1186 10.6149 15.0571 10.6936 14.9764 10.7395ZM17.239 10.7367C17.2807 10.3362 17.3803 10.05 17.5378 9.878C17.702 9.70562 17.9688 9.60756 18.3381 9.58381C18.7141 9.55964 18.9692 9.59381 19.1032 9.68633C19.244 9.77842 19.3204 9.91847 19.3325 10.1065C19.3446 10.2945 19.3418 10.4599 19.324 10.6026C19.2823 11.0031 19.1791 11.2862 19.0145 11.4519C18.8565 11.6171 18.5895 11.7118 18.2135 11.736C17.8442 11.7597 17.5894 11.7289 17.449 11.6435C17.315 11.551 17.2421 11.4141 17.2304 11.2328C17.2184 11.0448 17.2212 10.8794 17.239 10.7367ZM21.586 16.186V17.4144C21.707 17.4255 21.8857 17.4738 21.9692 17.6754C21.9939 17.7353 22.0034 17.8 21.9989 17.8632V18.6634C21.9989 18.8918 21.8143 19.0763 21.586 19.0763V21.1408C21.586 21.5967 21.216 21.9667 20.7602 21.9667H14.9796C14.5237 21.9667 14.1538 21.5967 14.1538 21.1408V19.0763C13.9254 19.0763 13.7409 18.8918 13.7409 18.6634V17.8376C13.7409 17.6213 13.9077 17.4412 14.1241 17.426C14.1241 17.426 14.1377 17.4252 14.1538 17.4239V16.186C14.1538 15.7302 14.5237 15.3602 14.9796 15.3602H17.457V14.8185C17.331 14.7054 17.2506 14.5427 17.2506 14.3601C17.2506 14.0183 17.528 13.7408 17.8699 13.7408C18.2118 13.7408 18.4893 14.0183 18.4893 14.3601C18.4893 14.5427 18.4087 14.7054 18.2828 14.8185V15.3602H20.7602C21.216 15.3602 21.586 15.7302 21.586 16.186ZM16.4247 17.0119C16.0829 17.0119 15.8054 17.3818 15.8054 17.8376C15.8054 18.2934 16.0829 18.6634 16.4247 18.6634C16.7666 18.6634 17.0441 18.2934 17.0441 17.8376C17.0441 17.3818 16.7666 17.0119 16.4247 17.0119ZM16.2183 20.315C16.2187 20.315 19.1074 20.3138 19.5207 20.315L19.5223 19.4893C19.109 19.4884 16.2183 19.4893 16.2183 19.4893V20.315ZM18.6957 17.8376C18.6957 18.2934 18.9731 18.6634 19.315 18.6634C19.6569 18.6634 19.9344 18.2934 19.9344 17.8376C19.9344 17.3818 19.6569 17.0119 19.315 17.0119C18.9731 17.0119 18.6957 17.3818 18.6957 17.8376Z" fill="currentColor"/>
</svg>
