<svg width="24" height="24" viewBox="0 0 24 24" fill="none" xmlns="http://www.w3.org/2000/svg">
<path fill-rule="evenodd" clip-rule="evenodd" d="M20.5894 13.2303L22.6541 11.1611H22.6552C23.115 10.6997 23.115 9.95439 22.6552 9.49419L22.6043 9.44202C22.1376 8.99805 21.4058 8.99805 20.9391 9.44202C20.8395 9.54171 20.6936 9.58113 20.557 9.54403C20.4215 9.50926 20.315 9.40145 20.2791 9.26583C20.242 9.12904 20.2814 8.98414 20.381 8.88445L21.2332 8.03012C21.4544 7.80988 21.5783 7.51081 21.5783 7.19898C21.5783 6.886 21.4533 6.58693 21.2332 6.36668L21.1823 6.31568C20.7226 5.85548 19.9768 5.85548 19.516 6.31568L19.465 6.35857C19.3052 6.50694 19.0563 6.49651 18.9092 6.3377C18.7621 6.17773 18.7714 5.92851 18.9312 5.78129C19.1605 5.55409 19.2879 5.24574 19.2879 4.92349C19.2879 4.60123 19.1593 4.29173 18.9312 4.06568C18.4518 3.60316 17.6933 3.60316 17.2139 4.06568L16.6442 4.63137H16.6396C16.5435 4.74381 16.3918 4.79018 16.2493 4.7554C16.1058 4.71947 15.9946 4.60703 15.961 4.46329C15.9274 4.31955 15.9772 4.16885 16.0895 4.07264C16.3165 3.84544 16.4439 3.53709 16.4439 3.21483C16.4427 2.89258 16.3142 2.58539 16.0861 2.35935C15.8591 2.12983 15.5499 2 15.228 2C14.9049 2 14.5958 2.12983 14.3688 2.35819L13.5443 3.18006L20.5894 13.2303ZM20.0215 13.7962L20.022 13.7957V13.7969L20.0215 13.7962ZM12.9804 3.74668L20.0215 13.7962L19.48 14.3394L17.2359 16.5465L14.1001 10.7366C14.0943 10.7204 14.0839 10.7065 14.0735 10.6926L11.2515 5.47388L12.6619 4.06546L12.9804 3.74668ZM6.97281 22.8432L9.26328 20.5654L3.00792 14.8506L1 16.8606L6.97281 22.8432ZM12.5223 19.0993C12.5643 19.0891 12.6052 19.0792 12.6457 19.0677H12.6469L11.3858 16.062L4.65803 12.727C4.5237 13.1686 4.28516 13.5697 3.96325 13.8989L3.56606 14.2965L9.83763 20.0229C10.17 19.7505 10.5602 19.5569 10.9771 19.4572L12.4303 19.1222C12.4617 19.114 12.4922 19.1066 12.5222 19.0993L12.5223 19.0993ZM11.4367 4.17933L10.0459 5.56805C9.72749 5.88914 9.44726 6.24617 9.20872 6.62987C8.88449 7.14687 8.64363 7.71255 8.49773 8.30606L8.48962 8.33736L6.09609 7.55027L6.77235 5.09973C6.90552 4.55723 7.39302 4.17701 7.95116 4.17933H11.4367ZM16.0456 17.7185L16.6512 17.1203L13.4332 11.1493C13.4228 11.1378 13.4135 11.1238 13.4054 11.1099L10.6749 6.05585L10.6031 6.12656C9.95002 6.78034 9.48568 7.60105 9.25987 8.49827L9.18113 8.80545L12.0263 15.5705C12.0367 15.5879 12.046 15.6064 12.0541 15.625L13.417 18.8707C15.1574 18.3908 15.8059 17.9538 16.0421 17.7185H16.0456ZM4.87927 11.9561L10.91 14.9492L8.47824 9.15901L5.88439 8.30932L4.87927 11.9561Z" fill="currentColor"/>
</svg>
