<svg width="24" height="24" viewBox="0 0 24 24" fill="none" xmlns="http://www.w3.org/2000/svg">
<path fill-rule="evenodd" clip-rule="evenodd" d="M16.8988 3.33422C15.3344 4.88584 15.4926 4.5693 15.4926 6.14689C15.4926 7.7406 15.7646 7.29302 13.3162 9.72843C11.0817 11.951 11.1275 11.8964 11.1905 12.266C11.2392 12.5518 11.5484 12.805 11.8463 12.803C12.1581 12.801 12.2537 12.7186 14.3529 10.643C16.7665 8.25669 16.3186 8.52184 17.9378 8.52075C19.5305 8.51966 19.2335 8.66113 20.6858 7.21197C22.0393 5.86126 22.1159 5.74701 21.9196 5.37098C21.7494 5.04487 21.6576 5.02334 20.2785 4.98651C18.9594 4.95132 19.0963 5.08796 19.063 3.77397C19.0058 1.51184 18.7821 1.46637 16.8988 3.33422ZM10.9142 2.70881C1.78566 3.49792 -1.31201 15.2996 6.28623 20.3406C13.6923 25.254 23.3448 18.5033 21.154 9.94254C20.9629 9.19548 20.8492 9.11968 20.4443 9.46943C20.0107 9.84401 19.6564 9.96201 18.9653 9.96201C18.3468 9.96201 18.2989 10.0254 18.4539 10.6381C20.1596 17.3809 11.7822 22.0978 6.82401 17.1864C1.97068 12.3788 6.48387 4.12192 13.1543 5.60511C14.0048 5.79423 14.0384 5.77718 14.0388 5.15524C14.0392 4.43029 14.14 4.10674 14.5056 3.65656C14.8316 3.25511 14.7609 3.13692 14.0975 2.97536C13.0952 2.73128 11.8555 2.62745 10.9142 2.70881ZM10.9142 6.94573C6.12023 7.71249 4.53887 13.7866 8.38568 16.658C12.5118 19.7378 18.2272 16.0435 17.061 11.0504C16.8696 10.2311 16.8086 10.2409 15.7767 11.2564C14.8823 12.1366 14.8522 12.1791 14.7885 12.657C14.4685 15.0577 11.7755 16.1953 9.83727 14.7485C7.69655 13.1507 8.55408 9.81501 11.2335 9.31764C11.741 9.22343 11.7138 9.24227 12.5972 8.37313C13.462 7.5222 13.5578 7.40436 13.4884 7.27589C13.3346 6.9914 11.8329 6.79877 10.9142 6.94573Z" fill="currentColor"/>
</svg>
