<svg width="24" height="24" viewBox="0 0 24 24" fill="none" xmlns="http://www.w3.org/2000/svg">
<path fill-rule="evenodd" clip-rule="evenodd" d="M18.0449 5.83867C18.0449 6.85414 17.2217 7.67734 16.2063 7.67734C15.1908 7.67734 14.3676 6.85414 14.3676 5.83867C14.3676 4.8232 15.1908 4 16.2063 4C17.2217 4 18.0449 4.8232 18.0449 5.83867ZM11.4696 10.3408L11.2973 10.2092C11.2941 10.2068 11.2915 10.2035 11.2899 10.1998C11.2883 10.1961 11.2877 10.1921 11.2881 10.188C11.2885 10.184 11.2899 10.1802 11.2922 10.1768C11.2944 10.1735 11.2976 10.1708 11.3012 10.169L13.5059 9.04127C13.5117 9.03826 13.5184 9.03705 13.525 9.03782C13.5316 9.03858 13.5379 9.04128 13.543 9.04557C14.1378 9.54349 14.7326 10.0397 15.3273 10.5342C15.4957 10.6741 15.6527 10.7827 15.8477 10.7979C16.081 10.8164 16.5625 10.8423 17.2922 10.8756C17.6232 10.8908 17.8039 10.8967 17.8344 10.8936C18.2516 10.8483 18.584 10.5178 18.6113 10.094C18.6414 9.6233 18.2648 9.38619 17.8492 9.3233C17.2547 9.23346 16.6598 9.14453 16.0645 9.05651C16.0583 9.05564 16.0524 9.05353 16.0471 9.05031C16.0418 9.04708 16.0372 9.04281 16.0336 9.03776C15.606 8.44609 15.1693 7.86106 14.7234 7.28268C14.3638 6.81653 13.953 6.40104 13.491 6.03619C12.9527 5.61158 12.4469 5.62291 11.8648 5.90494C11.3659 6.14661 10.4085 6.61992 8.99258 7.32487C8.67409 7.48346 8.45 7.61458 8.32031 7.71822C7.30039 8.53229 7.14375 10.0206 8.21094 10.8866C8.43984 11.0725 8.70586 11.2586 9.00898 11.4448C9.58607 11.7992 10.1648 12.1527 10.7453 12.5053C10.7506 12.5086 10.7551 12.5131 10.7582 12.5184C10.7614 12.5237 10.7633 12.5296 10.7637 12.5358C10.8353 13.6863 10.9068 14.8376 10.9781 15.9897C11.0098 16.5003 11.3598 16.928 11.8918 16.9342C12.3207 16.9393 12.6719 16.678 12.7961 16.2991C12.8341 16.1827 12.852 15.9891 12.8496 15.7182C12.84 14.5117 12.8313 13.3051 12.8234 12.0983C12.8195 11.4905 12.6984 11.3089 12.2422 10.9413C11.9896 10.7373 11.7304 10.5397 11.4696 10.3408ZM2 15.5115V15.3455C2.05339 14.0924 2.54258 13.0719 3.46758 12.2842C4.9668 11.0072 7.17695 11.0142 8.69649 12.2455C11.0703 14.1697 10.5477 17.9205 7.78399 19.1662C6.53203 19.7307 5.04375 19.6271 3.88398 18.8678C2.70859 18.0982 2.08789 16.9369 2 15.5115ZM8.98047 15.4236C8.98047 14.6613 8.67765 13.9303 8.13863 13.3912C7.59961 12.8522 6.86854 12.5494 6.10625 12.5494C5.34396 12.5494 4.61289 12.8522 4.07387 13.3912C3.53485 13.9303 3.23203 14.6613 3.23203 15.4236C3.23203 16.1859 3.53485 16.917 4.07387 17.456C4.61289 17.995 5.34396 18.2978 6.10625 18.2978C6.86854 18.2978 7.59961 17.995 8.13863 17.456C8.67765 16.917 8.98047 16.1859 8.98047 15.4236ZM22 15.4966V15.3599C21.966 14.2951 21.5621 13.3041 20.8168 12.5525C19.1914 10.9134 16.5453 10.9049 14.9328 12.5865C13.0594 14.5404 13.5699 17.7545 15.9492 19.0334C18.6684 20.4951 21.902 18.5662 22 15.4966ZM19.9259 13.3919C20.4648 13.9308 20.7676 14.6618 20.7676 15.424C20.7676 16.1862 20.4648 16.9171 19.9259 17.4561C19.3869 17.995 18.6559 18.2978 17.8938 18.2978C17.1316 18.2978 16.4006 17.995 15.8616 17.4561C15.3227 16.9171 15.0199 16.1862 15.0199 15.424C15.0199 14.6618 15.3227 13.9308 15.8616 13.3919C16.4006 12.8529 17.1316 12.5502 17.8938 12.5502C18.6559 12.5502 19.3869 12.8529 19.9259 13.3919Z" fill="currentColor"/>
</svg>
