<svg width="24" height="24" viewBox="0 0 24 24" fill="none" xmlns="http://www.w3.org/2000/svg">
<path d="M10.8889 17C10.8889 17.99 11.1244 18.9256 11.5433 19.7534C10.5756 19.8256 9.59333 19.7389 8.63667 19.4867L8.30778 19.3934L8.17 19.35L8.03222 19.3022V18.2178L8.08556 18.1878L8.13667 18.1534L10.8 16.1556C10.8456 16.1222 10.8867 16.0811 10.9222 16.0378L10.9733 15.9678C10.9178 16.3034 10.8889 16.6478 10.8889 17ZM4.38222 15.6122L4.40667 15.6411L4.43222 15.6689L7.23334 18.1189L7.31111 18.1767L7.39667 18.2234V19.0545C5.95889 18.4411 4.71222 17.4589 3.77778 16.2111L3.56667 15.9189L4.38222 15.6122ZM5.23778 12.0445H5.24667L8.64667 12.3845C8.66556 12.3867 8.68222 12.3945 8.69556 12.4067L8.71222 12.4267L10.4422 15.5411C10.4556 15.5656 10.4556 15.5934 10.4444 15.6167L10.4189 15.6478L7.75556 17.6456C7.73445 17.6611 7.70889 17.6656 7.68445 17.6589L7.65111 17.6411L4.85111 15.1911C4.83778 15.1789 4.82889 15.1634 4.82445 15.1467L4.82334 15.1189L5.15667 12.1189C5.16111 12.0767 5.19667 12.0445 5.23889 12.0445H5.23778ZM3.37111 8.07114L4.61111 11.7845C4.58 11.8389 4.55778 11.8967 4.54334 11.9567L4.52667 12.0478L4.19778 15.0034L3.22 15.3711L3.19222 15.3267C3.11667 15.2034 3.04778 15.0789 2.98222 14.9456C2.33445 13.6911 1.99889 12.3011 2 10.8889C2 10.1256 2.1 9.36669 2.29667 8.63114L2.40222 8.26447L3.37111 8.07114ZM11.2844 8.04114L14.9122 8.37114L14.9456 8.37336H14.99L16.27 10.9322C13.8 11.2256 11.78 12.9956 11.1189 15.3334H11.0411L11.0211 15.2822L10.9967 15.2322L9.29667 12.1711L11.2844 8.04114ZM9.49556 4.85669L9.50667 4.89558L9.51778 4.93336L10.5033 7.56336C10.53 7.63002 10.5667 7.69114 10.6111 7.74669L10.6844 7.82447L8.78445 11.7689L8.74778 11.76L8.71111 11.7534L5.31111 11.4134L5.23334 11.41L5.15556 11.4156L3.95556 7.81558L3.98222 7.79003L4.01889 7.74558L4.05 7.6978L5.82778 4.85669H9.49667H9.49556ZM16.9844 4.42891C17.0156 4.45891 17.0489 4.48558 17.08 4.51558C17.2089 4.6378 17.3289 4.76114 17.4511 4.89891C18.9511 6.53336 19.7811 8.67114 19.7778 10.8889C19.7778 11.1067 19.7667 11.3245 19.75 11.5422C18.9222 11.1245 17.9889 10.8889 17 10.8889H16.9578L15.5533 8.08003C15.5933 8.02669 15.6256 7.96891 15.6489 7.90669L15.6778 7.81225L16.3344 4.85891L16.3489 4.75114L16.3478 4.64225L16.9844 4.42891ZM12.89 3.2478L12.9278 3.25669L15.6711 4.62891C15.6933 4.64003 15.7089 4.66114 15.7156 4.68447V4.72114L15.0589 7.67447C15.0533 7.70225 15.0344 7.72336 15.01 7.73336L14.97 7.73891L11.1678 7.39336C11.1467 7.39114 11.1278 7.38225 11.1144 7.36669L11.0978 7.34003L10.1122 4.71003C10.1011 4.68447 10.1067 4.65447 10.1211 4.63336L10.1522 4.6078L12.8522 3.25669L12.89 3.2478ZM5.20889 4.05891L5.32556 4.4078L5.32889 4.44114L5.31778 4.47447L5.31334 4.48114L3.51111 7.36225L3.49222 7.38336L3.47445 7.40003L3.45111 7.4078L2.64556 7.56891L2.66778 7.50669C2.69334 7.44558 2.72111 7.38447 2.74778 7.32447C2.80445 7.19447 2.86334 7.06558 2.92667 6.9378C2.96 6.87114 2.99334 6.80447 3.02889 6.7378C3.09334 6.61669 3.16 6.4978 3.22889 6.37891L3.34 6.19558C3.42334 6.06003 3.51111 5.92891 3.60222 5.79891C3.63 5.76003 3.65445 5.72003 3.68222 5.68114C3.80334 5.51447 3.92889 5.35336 4.06111 5.19558C4.09445 5.15558 4.13 5.1178 4.16445 5.07891C4.26556 4.96114 4.37 4.84558 4.47778 4.73447C4.52778 4.68114 4.58 4.63114 4.63222 4.57891C4.73 4.48225 4.83 4.3878 4.93222 4.29558C4.98778 4.24447 5.04556 4.19336 5.10334 4.14447C5.13667 4.11447 5.17334 4.08891 5.20778 4.05891H5.20889ZM10.8889 2.00003C11.2889 2.00003 11.6867 2.0278 12.0822 2.08336L12.4767 2.14669V2.73558L9.86889 4.03891C9.81 4.06891 9.75556 4.10558 9.70778 4.15003L9.64 4.22225H5.92778L5.92334 4.20336L5.91889 4.18447L5.74111 3.64891C7.24111 2.57225 9.04222 1.99558 10.8889 2.00003ZM13.1111 2.28558C14.1889 2.56225 15.2011 3.04003 16.0978 3.69336L16.4289 3.94558L16.0011 4.09003L15.9544 4.06114L13.2111 2.68891L13.1622 2.66891L13.1111 2.65336V2.28669V2.28558Z" fill="currentColor"/>
<path fill-rule="evenodd" clip-rule="evenodd" d="M17 12C19.7611 12 22 14.2389 22 17C22 19.7611 19.7611 22 17 22C14.2389 22 12 19.7611 12 17C12 14.2389 14.2389 12 17 12ZM17.0444 14.2222C15.3867 14.2222 14.2222 15.4978 14.2222 17.0789C14.2222 18.8289 15.4756 19.9467 17.1356 19.9467C17.9822 19.9467 18.8411 19.6878 19.3822 19.1911L18.75 18.2644C18.4 18.6033 17.7567 18.8067 17.2944 18.8067C16.3678 18.8067 15.8144 18.2311 15.7244 17.5422H19.7778V17.2256C19.7778 15.4422 18.6711 14.2222 17.0444 14.2222ZM17.0444 15.3622C17.9933 15.3622 18.3556 16.0511 18.3889 16.5711H15.7011C15.7689 16.0289 16.1533 15.3622 17.0456 15.3622H17.0444Z" fill="currentColor"/>
</svg>
