<svg width="16" height="16" viewBox="0 0 16 16" fill="none" xmlns="http://www.w3.org/2000/svg">
<path fill-rule="evenodd" clip-rule="evenodd" d="M6.184 2.92122L4.90467 6.16455L1.66267 7.44255C1.56585 7.48098 1.48279 7.54759 1.42428 7.63377C1.36576 7.71995 1.33447 7.82172 1.33447 7.92589C1.33447 8.03006 1.36576 8.13182 1.42428 8.218C1.48279 8.30418 1.56585 8.3708 1.66267 8.40922L4.90467 9.68789L6.184 12.9299C6.22242 13.0267 6.28904 13.1098 6.37522 13.1683C6.4614 13.2268 6.56317 13.2581 6.66734 13.2581C6.7715 13.2581 6.87327 13.2268 6.95945 13.1683C7.04563 13.1098 7.11225 13.0267 7.15067 12.9299H7.15L8.42867 9.68789L11.6713 8.40855C11.7679 8.36988 11.8507 8.30316 11.9089 8.21702C11.9672 8.13087 11.9984 8.02924 11.9984 7.92522C11.9984 7.8212 11.9672 7.71957 11.9089 7.63342C11.8507 7.54728 11.7679 7.48056 11.6713 7.44189L8.42867 6.16455L7.15 2.92122C7.12384 2.85498 7.08428 2.79485 7.03381 2.74461C6.98334 2.69436 6.92303 2.65508 6.85667 2.62922C6.79329 2.60414 6.72559 2.5918 6.65743 2.59291C6.58928 2.59401 6.52201 2.60854 6.45948 2.63566C6.39694 2.66278 6.34037 2.70195 6.29298 2.75095C6.2456 2.79995 6.20834 2.85781 6.18334 2.92122H6.184ZM11.7153 1.56789L11.22 2.82522L9.964 3.32055C9.89512 3.34847 9.83613 3.39631 9.7946 3.45795C9.75307 3.51959 9.73089 3.59223 9.73089 3.66655C9.73089 3.74088 9.75307 3.81351 9.7946 3.87515C9.83613 3.9368 9.89512 3.98464 9.964 4.01255L11.22 4.50789L11.7153 5.76522C11.7427 5.83463 11.7904 5.8942 11.8521 5.93617C11.9138 5.97814 11.9867 6.00059 12.0613 6.00059C12.136 6.00059 12.2089 5.97814 12.2706 5.93617C12.3323 5.8942 12.3799 5.83463 12.4073 5.76522L12.904 4.50789L14.1593 4.01255C14.229 3.98541 14.2889 3.93785 14.3311 3.87611C14.3733 3.81438 14.3959 3.74134 14.3959 3.66655C14.3959 3.59177 14.3733 3.51873 14.3311 3.45699C14.2889 3.39526 14.229 3.3477 14.1593 3.32055L12.904 2.82522L12.4073 1.56855C12.3888 1.52107 12.3607 1.47794 12.3246 1.44191C12.2886 1.40587 12.2455 1.37772 12.198 1.35922C12.1062 1.3237 12.0041 1.32575 11.9137 1.36492C11.8234 1.40409 11.7521 1.47724 11.7153 1.56855V1.56789ZM11.246 10.2366L10.75 11.4919L9.49467 11.9879C9.44696 12.0063 9.40359 12.0344 9.36732 12.0704C9.33106 12.1064 9.30268 12.1496 9.284 12.1972C9.24819 12.2892 9.25025 12.3916 9.28973 12.482C9.32921 12.5725 9.40289 12.6436 9.49467 12.6799L10.75 13.1752L11.246 14.4312C11.284 14.5272 11.3593 14.6032 11.4553 14.6412C11.5472 14.6771 11.6495 14.6751 11.74 14.6358C11.8304 14.5964 11.9016 14.5229 11.938 14.4312L12.434 13.1752L13.6893 12.6799C13.759 12.6527 13.8189 12.6052 13.8611 12.5434C13.9033 12.4817 13.9259 12.4087 13.9259 12.3339C13.9259 12.2591 13.9033 12.1861 13.8611 12.1243C13.8189 12.0626 13.759 12.015 13.6893 11.9879L12.434 11.4919L11.938 10.2366C11.9196 10.1887 11.8914 10.1453 11.8553 10.109C11.8191 10.0727 11.7758 10.0444 11.728 10.0259C11.6361 9.99028 11.5339 9.99245 11.4436 10.0319C11.3533 10.0714 11.2823 10.1449 11.246 10.2366Z" fill="currentColor"/>
</svg>
