<svg width="24" height="24" viewBox="0 0 24 24" fill="none" xmlns="http://www.w3.org/2000/svg">
<g id="icn / main">
<path id="Vector" d="M17 3.65002C14.288 3.65002 12.0789 5.82018 12.0065 8.51493L8.94824 12.8867C8.72161 12.8437 8.48892 12.8167 8.25 12.8167C7.45973 12.8167 6.72803 13.0648 6.12272 13.484L2 11.8531V16.3339L4.58789 17.3577C4.95245 19.0463 6.45413 20.3167 8.25 20.3167C10.0864 20.3167 11.6119 18.9876 11.9316 17.2421L16.7428 13.637C16.8285 13.6414 16.9133 13.65 17 13.65C19.7575 13.65 22 11.4075 22 8.65002C22 5.89252 19.7575 3.65002 17 3.65002ZM17 5.31669C18.8383 5.31669 20.3333 6.81169 20.3333 8.65002C20.3333 10.4884 18.8383 11.9834 17 11.9834C15.1617 11.9834 13.6667 10.4884 13.6667 8.65002C13.6667 6.81169 15.1617 5.31669 17 5.31669ZM17 6.15002C16.337 6.15002 15.7011 6.41342 15.2322 6.88226C14.7634 7.3511 14.5 7.98698 14.5 8.65002C14.5 9.31307 14.7634 9.94895 15.2322 10.4178C15.7011 10.8866 16.337 11.15 17 11.15C17.663 11.15 18.2989 10.8866 18.7678 10.4178C19.2366 9.94895 19.5 9.31307 19.5 8.65002C19.5 7.98698 19.2366 7.3511 18.7678 6.88226C18.2989 6.41342 17.663 6.15002 17 6.15002ZM8.25 13.65C9.85833 13.65 11.1667 14.9584 11.1667 16.5667C11.1667 18.175 9.85833 19.4834 8.25 19.4834C7.0656 19.4834 6.04845 18.7712 5.59212 17.7548L7.4834 18.5035C7.73506 18.6035 7.99337 18.6517 8.24837 18.6517C9.07837 18.6517 9.86352 18.1533 10.1868 17.3349C10.611 16.2649 10.0866 15.0532 9.0166 14.6298L7.11881 13.8779C7.46676 13.731 7.84918 13.65 8.25 13.65Z" fill="currentColor"/>
</g>
</svg>
