<svg width="24" height="24" viewBox="0 0 24 24" fill="none" xmlns="http://www.w3.org/2000/svg">
<path d="M6.65293 2.03924C6.5904 2.06269 6.49659 2.10959 6.4536 2.13304C6.4067 2.1604 5.79306 2.87175 5.08562 3.71599C4.38209 4.56023 3.75673 5.29893 3.6981 5.35365C3.36588 5.67024 3.20172 6.48712 3.36197 7.02259C3.58084 7.73785 4.12804 8.29285 4.83548 8.51955C5.2146 8.64071 5.77352 8.6329 6.1761 8.50001C6.34416 8.44529 6.48878 8.39838 6.49659 8.39838C6.50832 8.39838 6.51614 8.73061 6.51614 9.141V9.87971L6.15655 9.89144L5.79306 9.90316V10.294V10.6849L6.91871 10.6966L8.04046 10.7044V10.294V9.88362H7.68869H7.33692V9.13709C7.33692 8.44138 7.34083 8.39057 7.40728 8.41793C7.82158 8.59381 8.46258 8.65635 8.86124 8.55863C9.44752 8.41402 10.0494 7.94109 10.2996 7.42126C10.6201 6.76853 10.5966 6.13926 10.2253 5.52563C10.0807 5.29112 7.62225 2.32847 7.45809 2.19167C7.24312 2.01969 6.87181 1.94934 6.65293 2.03924Z" fill="currentColor"/>
<path d="M15.0093 3.06326C14.3644 3.24305 13.8602 3.65735 13.5866 4.23191C13.4381 4.54849 13.3834 4.83772 13.4029 5.21294C13.4264 5.57643 13.5241 5.87348 13.7234 6.18616C13.8016 6.31123 14.4504 7.09684 15.1618 7.93718C16.3148 9.29343 16.4828 9.47322 16.6548 9.5553C17.0496 9.739 17.3623 9.64129 17.7297 9.22308C18.6169 8.2225 20.2858 6.2057 20.3874 6.01028C20.5477 5.71714 20.6415 5.2833 20.6102 4.99797C20.5203 4.19282 19.9731 3.47756 19.2305 3.20006C18.613 2.96946 17.7336 3.04763 17.1629 3.37985L17.0027 3.47365L16.7721 3.33686C16.647 3.25869 16.4281 3.16097 16.2874 3.11407C15.9552 3.00854 15.2947 2.98118 15.0093 3.06326Z" fill="currentColor"/>
<path d="M16.4829 13.3192C15.9357 13.4951 15.4901 13.8664 15.2556 14.3354C15.0992 14.6481 15.0523 14.8396 15.0172 15.2813L14.9898 15.6174L14.8256 15.6682C14.5169 15.7581 14.2745 15.9144 13.997 16.192C13.5984 16.5945 13.3951 17.0714 13.3951 17.6029C13.3951 18.7716 14.3957 19.7213 15.5448 19.6432C15.8692 19.6197 16.2288 19.5064 16.4516 19.3618L16.6001 19.264V20.2021V21.1401H16.2483H15.8966V21.5701V22H17.0105H18.1244V21.5701V21.1401H17.7727H17.4209V20.2021V19.264L17.5694 19.3618C17.929 19.6002 18.5583 19.7096 19.0312 19.6197C19.8285 19.4634 20.4813 18.8185 20.6493 18.0055C20.79 17.3332 20.5282 16.5554 20.0044 16.0903C19.809 15.9184 19.3947 15.6956 19.1915 15.6487L19.0625 15.6213V15.3008C19.0625 15.1249 19.0351 14.8748 18.9999 14.7497C18.828 14.0774 18.2651 13.5107 17.5811 13.3075C17.2958 13.2215 16.7604 13.2293 16.4829 13.3192Z" fill="currentColor"/>
<path d="M6.71156 13.3466C6.63339 13.3974 4.08505 16.7821 3.69419 17.3606C3.62775 17.4505 3.58476 17.5678 3.58476 17.6459C3.58476 17.7788 3.51831 17.685 5.96113 20.9916C6.43015 21.6287 6.6803 21.9297 6.75456 21.9648C6.9109 22.0274 7.11023 21.9805 7.22749 21.8515C7.49327 21.5701 10.2644 17.814 10.2879 17.7085C10.3035 17.6264 10.2918 17.5482 10.2409 17.4544C10.0885 17.1652 7.27439 13.3935 7.17277 13.3387C7.03206 13.2684 6.83273 13.2723 6.71156 13.3466Z" fill="currentColor"/>
</svg>
