<svg width="24" height="24" viewBox="0 0 24 24" fill="none" xmlns="http://www.w3.org/2000/svg">
<g id="icn / main">
<path id="telegram-1" fill-rule="evenodd" clip-rule="evenodd" d="M16.256 18.3565C16.4706 18.5047 16.7473 18.5417 16.994 18.4507C17.2406 18.3591 17.422 18.1537 17.4766 17.9047C18.0559 15.2501 19.4612 8.53105 19.9886 6.1163C20.0286 5.9343 19.9619 5.74515 19.8152 5.6236C19.6686 5.50205 19.4652 5.46695 19.2839 5.5326C16.4886 6.5414 7.88018 9.69065 4.36159 10.9601C4.13826 11.0407 3.99293 11.25 4.00027 11.4795C4.00827 11.7096 4.16693 11.9091 4.39559 11.9761C5.97355 12.4363 8.04484 13.0765 8.04484 13.0765C8.04484 13.0765 9.01282 15.9268 9.51747 17.3763C9.5808 17.5583 9.7268 17.7013 9.91946 17.7507C10.1115 17.7994 10.3168 17.7481 10.4601 17.6161C11.2708 16.8699 12.5241 15.7162 12.5241 15.7162C12.5241 15.7162 14.9054 17.4185 16.256 18.3565ZM8.91615 12.7164L10.0355 16.3161L10.2841 14.0366C10.2841 14.0366 14.6087 10.2334 17.074 8.06565C17.146 8.00195 17.156 7.89535 17.096 7.8206C17.0366 7.74585 16.9273 7.7283 16.8453 7.779C13.988 9.55805 8.91615 12.7164 8.91615 12.7164Z" fill="currentColor"/>
</g>
</svg>
