<svg width="24" height="24" viewBox="0 0 24 24" fill="none" xmlns="http://www.w3.org/2000/svg">
<path fill-rule="evenodd" clip-rule="evenodd" d="M12 22C17.5228 22 22 17.5228 22 12C22 6.47715 17.5228 2 12 2C6.47715 2 2 6.47715 2 12C2 17.5228 6.47715 22 12 22ZM12 20C16.4183 20 20 16.4183 20 12C20 7.58172 16.4183 4 12 4C7.58172 4 4 7.58172 4 12C4 16.4183 7.58172 20 12 20Z" fill="currentColor"/>
<path fill-rule="evenodd" clip-rule="evenodd" d="M12 19C15.866 19 19 15.866 19 12C19 8.13401 15.866 5 12 5C9.2707 5 6.90622 6.562 5.75175 8.84082H5.75V8.84427C5.27028 9.7925 5 10.8647 5 12C5 15.866 8.13401 19 12 19ZM5.75 8.84427V10.2377H7.19V15.1635H8.7918V10.2377H10.2318V8.84082H5.75175C5.75116 8.84197 5.75058 8.84312 5.75 8.84427ZM18.0073 14.2164C18.1691 13.9137 18.25 13.5893 18.25 13.2433C18.25 12.9176 18.1961 12.6422 18.0882 12.4173C17.9803 12.1924 17.8266 12.0007 17.6271 11.8421C17.5273 11.7614 17.4154 11.685 17.2913 11.6129C17.1673 11.538 17.0338 11.4645 16.8909 11.3924C16.6644 11.2799 16.45 11.1704 16.2478 11.0637C16.0482 10.957 15.912 10.8648 15.8392 10.7869C15.7664 10.712 15.73 10.624 15.73 10.5231C15.73 10.4049 15.7772 10.3083 15.8716 10.2334C15.966 10.1555 16.1183 10.1166 16.3287 10.1166C16.539 10.1166 16.7669 10.1541 17.0122 10.229C17.2576 10.3011 17.5071 10.3991 17.7606 10.5231L18.25 9.20409C18.0073 9.09165 17.7309 8.98786 17.4208 8.89271C17.1134 8.79757 16.7655 8.75 16.3772 8.75C15.9349 8.75 15.5466 8.82064 15.2122 8.96191C14.8806 9.1003 14.6203 9.30644 14.4316 9.58034C14.2428 9.85135 14.1484 10.1916 14.1484 10.601C14.1484 10.9614 14.2064 11.2598 14.3224 11.4962C14.4383 11.7326 14.6042 11.933 14.8199 12.0973C14.9278 12.1809 15.0451 12.2616 15.1718 12.3395C15.2985 12.4144 15.4361 12.488 15.5844 12.56C15.7758 12.6523 15.9403 12.7359 16.0779 12.8109C16.2154 12.883 16.326 12.9435 16.4096 12.9925C16.5713 13.0905 16.6522 13.2232 16.6522 13.3904C16.6522 13.5288 16.597 13.6427 16.4864 13.732C16.3758 13.8185 16.2019 13.8618 15.9646 13.8618C15.6976 13.8618 15.401 13.8156 15.0747 13.7234C14.7511 13.6311 14.4289 13.4999 14.108 13.3298V14.8521C14.2967 14.9473 14.4788 15.0251 14.654 15.0857C14.832 15.1433 15.0221 15.1851 15.2244 15.2111C15.4239 15.237 15.6599 15.25 15.9322 15.25C16.4716 15.25 16.9111 15.1549 17.2509 14.9646C17.5907 14.7714 17.8428 14.522 18.0073 14.2164ZM13.8384 12.7893H12.0667V15.1635H10.4933V8.84082H13.9881V10.2117H12.0667V11.4183H13.8384V12.7893Z" fill="currentColor"/>
</svg>
