<svg width="24" height="24" viewBox="0 0 24 24" fill="none" xmlns="http://www.w3.org/2000/svg">
<path fill-rule="evenodd" clip-rule="evenodd" d="M20.9435 4.37132H18.5053C18.5141 4.10126 18.5191 3.8296 18.5191 3.55664C18.5191 3.24919 18.2697 3 17.9624 3H6.03788C5.73042 3 5.48124 3.24919 5.48124 3.55664C5.48124 3.8296 5.48602 4.10126 5.49487 4.37132H3.05664C2.74919 4.37132 2.5 4.6205 2.5 4.92796C2.5 7.42214 3.15188 9.77527 4.33548 11.5541C5.50545 13.3126 7.06391 14.3212 8.74732 14.4193C9.129 14.8346 9.53257 15.1733 9.95281 15.4316V17.7401L9.65887 17.7401C9.32817 17.7401 9.04058 17.9408 8.97333 18.218L8.27386 19.2374H8.04878C7.67664 19.2374 7.5 19.4968 7.5 19.8156V20.4251C7.5 20.7439 7.6767 21.0033 8.04878 21.0033H15.9402C16.3124 21.0033 16.5 20.7439 16.5 20.4251V19.8156C16.5 19.4968 16.3123 19.2374 15.9402 19.2374H15.7203L15.0209 18.218C14.9537 17.9408 14.666 17.7401 14.3353 17.7401L14.0473 17.7401V15.4316C14.4676 15.1733 14.871 14.8346 15.2527 14.4193C16.9362 14.3212 18.4946 13.3126 19.6647 11.5541C20.8483 9.77527 21.5001 7.42214 21.5001 4.92796C21.5001 4.6205 21.2508 4.37132 20.9435 4.37132ZM5.26235 10.9374C4.28605 9.47013 3.71244 7.5513 3.62503 5.48461H5.55705C5.75782 8.02517 6.35419 10.3734 7.28628 12.2376C7.43471 12.5344 7.58997 12.8148 7.75102 13.079C6.82516 12.7294 5.9683 11.9985 5.26235 10.9374ZM18.7378 10.9374C18.0318 11.9985 17.175 12.7294 16.2491 13.079C16.4103 12.8148 16.5654 12.5344 16.7139 12.2376C17.646 10.3734 18.2422 8.02517 18.4431 5.48461H20.3751C20.2877 7.5513 19.7141 9.47013 18.7378 10.9374ZM12.9554 7.50566L12.1498 5.63117C12.0939 5.50077 11.9063 5.50077 11.8504 5.63117L11.0448 7.50534L8.98237 7.67952C8.839 7.69167 8.78113 7.86713 8.88972 7.9595L10.4544 9.29225L9.98563 11.2744C9.95312 11.4119 10.1046 11.5202 10.2278 11.4473L12.0003 10.3965L13.7727 11.4473C13.8956 11.5205 14.0474 11.4122 14.0149 11.2744L13.5461 9.29225L15.1105 7.95982C15.2191 7.86745 15.1609 7.69199 15.0179 7.67984L12.9554 7.50566Z" fill="currentColor"/>
</svg>
