<svg width="24" height="24" viewBox="0 0 24 24" fill="none" xmlns="http://www.w3.org/2000/svg">
<path fill-rule="evenodd" clip-rule="evenodd" d="M12.5185 5.19556C14.9544 3.35722 17.7812 2.2464 20.612 2.01954C20.9834 1.98825 21.652 1.99607 21.7419 2.03127C21.9296 2.10168 22 2.2816 22 2.70403C22 5.21121 21.0303 8.17992 19.4116 10.6089C18.7743 11.5711 18.2934 12.1578 17.4254 13.0417L16.8468 13.6284L16.8233 14.0978C16.7373 15.7914 16.1078 17.6806 15.1264 19.163C14.5556 20.0274 13.8557 20.8449 13.6133 20.9231C13.4374 20.9818 13.2262 20.9153 13.1324 20.7745C13.0855 20.7041 12.9994 20.2034 12.8313 19.0378L12.5967 17.4068L12.3348 17.6376C12.0493 17.884 11.9125 17.9388 11.7326 17.8723C11.588 17.8175 6.22754 12.4629 6.14152 12.2868C6.05159 12.0952 6.10242 11.9583 6.36438 11.661L6.59507 11.399L4.92555 11.1565L3.25212 10.914L3.14656 10.7927C3.06445 10.7027 3.03708 10.6323 3.03708 10.5072C3.03708 10.3507 3.05272 10.3273 3.37724 10.0143C5.08194 8.37549 7.57645 7.28814 9.89891 7.17079L10.3681 7.14733L10.9546 6.56845C11.6193 5.91525 11.9555 5.61799 12.5185 5.19556ZM18.3052 7.29987C18.1331 6.49022 17.5036 5.86049 16.6943 5.68839C15.9983 5.53976 15.318 5.74315 14.8058 6.25554C14.4226 6.63885 14.1802 7.206 14.1802 7.7223C14.1802 7.98044 14.2858 8.39505 14.4226 8.67276C14.7433 9.32204 15.537 9.81487 16.272 9.81487C16.5301 9.81487 16.9445 9.70926 17.2221 9.57237C17.8751 9.25164 18.3638 8.46154 18.3638 7.7223C18.3638 7.63625 18.3364 7.44459 18.3052 7.29987ZM4.386 15.9792C4.78872 15.6468 5.23836 15.4434 5.71536 15.373C6.03988 15.326 6.10635 15.326 6.41523 15.3691C7.00953 15.4551 7.53736 15.725 7.93226 16.1435C8.85499 17.1174 8.89018 18.549 8.01828 19.6129C7.58819 20.1409 6.20801 20.7824 3.70568 21.6155C2.38024 22.0575 2.29422 22.0731 2.11045 21.8893C1.92669 21.7055 1.94233 21.6233 2.38806 20.2856C3.22086 17.7863 3.85817 16.4095 4.386 15.9792Z" fill="currentColor"/>
</svg>
