<svg width="24" height="24" viewBox="0 0 24 24" fill="none" xmlns="http://www.w3.org/2000/svg">
<path d="M12.1406 10.8142C12.1239 10.7929 12.1026 10.7756 12.0782 10.7638C12.0538 10.7519 12.0271 10.7457 12 10.7457C11.9729 10.7457 11.9461 10.7519 11.9218 10.7638C11.8974 10.7756 11.8761 10.7929 11.8594 10.8142L9.35938 13.9772C9.33877 14.0035 9.32598 14.0351 9.32247 14.0683C9.31897 14.1016 9.32489 14.1351 9.33956 14.1652C9.35423 14.1952 9.37705 14.2205 9.40543 14.2382C9.4338 14.2559 9.46657 14.2652 9.5 14.2651H11.1496V19.6759C11.1496 19.7741 11.2299 19.8544 11.3281 19.8544H12.6674C12.7656 19.8544 12.846 19.7741 12.846 19.6759V14.2674H14.5C14.6496 14.2674 14.7321 14.0955 14.6406 13.9794L12.1406 10.8142Z" fill="currentColor"/>
<path d="M18.683 8.75398C17.6607 6.05755 15.0558 4.14014 12.0045 4.14014C8.95313 4.14014 6.34821 6.05532 5.32589 8.75174C3.41295 9.25398 2 10.9973 2 13.0687C2 15.5352 3.99777 17.533 6.46205 17.533H7.35714C7.45536 17.533 7.53571 17.4526 7.53571 17.3544V16.0151C7.53571 15.9169 7.45536 15.8366 7.35714 15.8366H6.46205C5.70982 15.8366 5.00223 15.5375 4.47545 14.995C3.95089 14.4549 3.67188 13.7272 3.69643 12.9727C3.71652 12.3834 3.91741 11.8299 4.28125 11.3634C4.65402 10.8879 5.17634 10.5419 5.7567 10.3879L6.60268 10.1669L6.91295 9.34996C7.10491 8.84103 7.37277 8.36558 7.70982 7.93478C8.04257 7.50779 8.43673 7.13244 8.87947 6.82094C9.79688 6.17585 10.8772 5.83433 12.0045 5.83433C13.1317 5.83433 14.2121 6.17585 15.1295 6.82094C15.5737 7.13344 15.9665 7.50844 16.2991 7.93478C16.6362 8.36558 16.904 8.84326 17.096 9.34996L17.404 10.1647L18.2478 10.3879C19.4576 10.7138 20.3036 11.8142 20.3036 13.0687C20.3036 13.8075 20.0156 14.504 19.4933 15.0263C19.2372 15.2839 18.9324 15.4882 18.5968 15.6273C18.2612 15.7664 17.9013 15.8375 17.5379 15.8366H16.6429C16.5446 15.8366 16.4643 15.9169 16.4643 16.0151V17.3544C16.4643 17.4526 16.5446 17.533 16.6429 17.533H17.5379C20.0022 17.533 22 15.5352 22 13.0687C22 10.9995 20.5915 9.25844 18.683 8.75398Z" fill="currentColor"/>
</svg>
