<svg width="24" height="24" viewBox="0 0 24 24" fill="none" xmlns="http://www.w3.org/2000/svg">
<path d="M12 11.9688C14.7614 11.9688 17 9.73017 17 6.96875C17 4.20733 14.7614 1.96875 12 1.96875C9.23858 1.96875 7 4.20733 7 6.96875C7 9.73017 9.23858 11.9688 12 11.9688Z" fill="currentColor"/>
<path d="M4.8209 14.3701C4.26429 14.4804 3.90571 15.0132 4.02184 15.5575L5.00586 21.1715C5.10497 21.636 5.52319 21.9688 6.00783 21.9688H13.2782C13.0787 21.8128 12.8882 21.6443 12.7079 21.464C11.8327 20.5888 11.2367 19.4738 10.9952 18.2599C10.7538 17.046 10.8777 15.7878 11.3514 14.6443C11.5971 14.051 11.9313 13.5024 12.3398 13.0157L12.2029 12.9886C12.069 12.9621 11.931 12.9621 11.7971 12.9886L4.8209 14.3701Z" fill="currentColor"/>
<path fill-rule="evenodd" clip-rule="evenodd" d="M14.3853 12.9272C15.1986 12.3838 16.1547 12.0938 17.1328 12.0938C18.4439 12.0952 19.7009 12.6167 20.628 13.5438C21.5552 14.4709 22.0767 15.7279 22.0781 17.0391C22.0781 18.0172 21.7881 18.9733 21.2447 19.7865C20.7013 20.5998 19.9289 21.2336 19.0253 21.6079C18.1217 21.9822 17.1273 22.0802 16.168 21.8894C15.2087 21.6985 14.3276 21.2275 13.636 20.5359C12.9443 19.8443 12.4733 18.9631 12.2825 18.0038C12.0917 17.0445 12.1896 16.0502 12.5639 15.1466C12.9382 14.2429 13.5721 13.4706 14.3853 12.9272ZM17.751 17.6572H19.6055C19.7694 17.6572 19.9266 17.5921 20.0426 17.4762C20.1585 17.3602 20.2236 17.203 20.2236 17.0391C20.2236 16.8751 20.1585 16.7179 20.0426 16.602C19.9266 16.486 19.7694 16.4209 19.6055 16.4209H17.751V14.5664C17.751 14.4025 17.6859 14.2452 17.5699 14.1293C17.454 14.0134 17.2968 13.9482 17.1328 13.9482C16.9689 13.9482 16.8116 14.0134 16.6957 14.1293C16.5798 14.2452 16.5146 14.4025 16.5146 14.5664V16.4209H14.6602C14.4962 16.4209 14.339 16.486 14.223 16.602C14.1071 16.7179 14.042 16.8751 14.042 17.0391C14.042 17.203 14.1071 17.3602 14.223 17.4762C14.339 17.5921 14.4962 17.6572 14.6602 17.6572H16.5146V19.5117C16.5146 19.6757 16.5798 19.8329 16.6957 19.9488C16.8116 20.0648 16.9689 20.1299 17.1328 20.1299C17.2968 20.1299 17.454 20.0648 17.5699 19.9488C17.6859 19.8329 17.751 19.6757 17.751 19.5117V17.6572Z" fill="currentColor"/>
</svg>
