<svg width="24" height="24" viewBox="0 0 24 24" fill="none" xmlns="http://www.w3.org/2000/svg">
    <path id="Union" fill-rule="evenodd" clip-rule="evenodd" d="M10.0707 5.10092C10.2467 4.4207 10.8487 3.81866 11.5172 3.65837C13.163 3.25962 14.543 4.97973 13.7846 6.48092C13.5618 6.92268 13.1396 7.29798 12.7017 7.45435C12.5962 7.49345 12.5102 7.54036 12.5102 7.56381C12.5102 7.58727 12.5805 7.86092 12.6626 8.16976C13.4054 10.8985 14.6056 12.3919 16.0599 12.3919C16.7831 12.3919 17.4203 12.0596 18.1435 11.3051C18.5814 10.8516 18.9919 10.2613 19.3085 9.62013C19.5048 9.22767 19.5823 9.094 19.5516 8.99344C19.5315 8.92772 19.4651 8.87614 19.3554 8.77571C18.9528 8.40042 18.769 7.95866 18.8199 7.4739C18.945 6.25027 20.278 5.60523 21.2906 6.27764C22.135 6.84058 22.2444 8.03294 21.5173 8.73271C21.3179 8.92036 21.0638 9.0611 20.798 9.13146C20.7042 9.15492 20.6103 9.19792 20.5947 9.2292C20.5791 9.26047 20.2272 11.0353 19.8207 13.1737C19.4102 15.3121 19.0661 17.0948 19.0544 17.13C19.0349 17.1965 18.6635 17.2004 12.002 17.2004C5.34042 17.2004 4.96903 17.1965 4.94948 17.13C4.93776 17.0948 4.59373 15.3121 4.18325 13.1737C3.77668 11.0353 3.42484 9.26047 3.4092 9.2292C3.39356 9.19792 3.29974 9.15492 3.20591 9.13146C2.94008 9.0611 2.68597 8.92036 2.48659 8.73271C1.45452 7.74364 2.17384 6.00789 3.6164 6.0118C4.62501 6.01571 5.39515 7.00087 5.14495 7.96648C5.06285 8.29877 4.92603 8.51379 4.64846 8.77571C4.53876 8.87614 4.47242 8.92772 4.45233 8.99344C4.42159 9.094 4.49914 9.22767 4.69538 9.62013C5.2896 10.8086 6.16138 11.7781 6.97062 12.1612C7.33028 12.3293 7.5922 12.3919 7.93623 12.3919C8.5109 12.3919 9.02303 12.1729 9.51951 11.7195C10.2897 11.008 10.8839 9.84688 11.3413 8.16976C11.4234 7.86092 11.4937 7.58727 11.4937 7.56381C11.4937 7.54036 11.4077 7.49345 11.3022 7.45435C10.3718 7.12597 9.81662 6.06262 10.0707 5.10092ZM4.57419 18.5882C4.69147 18.3966 4.98467 18.1542 5.17232 18.0839C5.31305 18.037 6.22002 18.0252 11.9863 18.0252C18.4397 18.0218 18.8457 18.0037 19.0657 18.197C19.0986 18.226 19.1274 18.2597 19.1717 18.2989C19.4806 18.5686 19.5861 18.811 19.59 19.2254C19.59 19.6672 19.3359 20.0776 18.9293 20.277L18.7065 20.3865H12.002H5.29742L5.07458 20.277C4.66801 20.0776 4.4139 19.6672 4.4139 19.2254C4.4139 18.9439 4.45691 18.7797 4.57419 18.5882Z" fill="currentColor"/>
</svg>
