<svg width="24" height="24" viewBox="0 0 24 24" fill="none" xmlns="http://www.w3.org/2000/svg">
<path fill-rule="evenodd" clip-rule="evenodd" d="M2.7626 3.99987C3.1888 3.56976 3.59153 3.36253 4.17022 3.27651C4.2797 3.26087 7.04019 3.24523 10.309 3.24132C16.1264 3.23775 16.52 3.23419 16.8411 3.38496C16.872 3.39947 16.9022 3.41541 16.9365 3.43291C17.1437 3.53848 17.4644 3.83173 17.5895 4.03506C17.8006 4.3635 17.8123 4.43779 17.8358 5.54433L17.8554 6.58049L18.4849 6.60004L19.1105 6.61959L19.4037 6.76427C19.7674 6.94413 20.0215 7.20219 20.1936 7.56973L20.3187 7.83171L20.3304 8.87569L20.3421 9.91576L19.001 9.93531C17.5269 9.95095 17.4018 9.9705 16.7801 10.2325C15.916 10.6 15.1379 11.3977 14.7899 12.2735C14.5827 12.7896 14.5357 13.0516 14.5357 13.6772C14.5357 14.3028 14.5827 14.5648 14.7899 15.0809C15.1535 15.992 15.9082 16.7544 16.8505 17.1493C17.394 17.3839 17.5582 17.4035 19.001 17.4191L20.3421 17.4387L20.3304 18.4787L20.3187 19.5227L20.1936 19.7847C20.0215 20.1522 19.7674 20.4103 19.4037 20.5902L19.1105 20.7348L11.6501 20.7466C4.42275 20.7534 3.94147 20.7691 3.55593 20.5846C3.49866 20.5572 3.44351 20.5254 3.36866 20.4885C2.93856 20.2774 2.49672 19.8316 2.27776 19.3859C2.23795 19.3041 2.20383 19.2422 2.17459 19.178C1.98846 18.7696 2.00015 18.2711 2.00015 11.9959C2.00015 5.64208 2.00406 5.47786 2.07835 5.1807C2.19565 4.70758 2.39506 4.3635 2.7626 3.99987ZM16.174 6.58049L16.1858 5.74765L16.1936 4.91873H10.2621C4.52448 4.92218 4.18875 4.91036 4.01523 5.07232C3.99245 5.09358 3.97247 5.11784 3.94344 5.14551C3.74402 5.33319 3.66973 5.52478 3.68928 5.8024C3.70883 6.10738 3.84959 6.33416 4.11157 6.48274L4.28752 6.58049H10.2308H16.174ZM15.8221 13.1491C16.0098 12.2381 16.8114 11.4287 17.7185 11.2332C17.9179 11.1902 18.3558 11.1824 19.7986 11.1863C21.5738 11.1941 21.6246 11.198 21.7302 11.2762C21.7889 11.3192 21.8749 11.4053 21.9179 11.4639C22 11.5695 22 11.6125 22 13.677C22 15.7415 22 15.7845 21.9179 15.8901C21.8749 15.9487 21.7889 16.0347 21.7302 16.0778C21.6246 16.1599 21.5816 16.1599 19.7204 16.1599C17.8632 16.1599 17.8084 16.156 17.5426 16.0738C16.2992 15.6789 15.5563 14.416 15.8221 13.1491ZM18.9619 13.2234C18.9032 13.1413 18.7899 13.0279 18.7117 12.9732C18.6022 12.9028 18.5044 12.8754 18.3089 12.8637C17.9883 12.8481 17.7576 12.9536 17.5817 13.2039C17.4761 13.3564 17.4644 13.3994 17.4644 13.6731C17.4644 13.939 17.4761 13.9937 17.5699 14.1306C17.6286 14.2127 17.742 14.3261 17.8241 14.3808C17.9453 14.4629 18.0118 14.4785 18.2659 14.4785C18.5201 14.4785 18.5865 14.4629 18.7077 14.3808C18.7899 14.3261 18.9032 14.2127 18.9619 14.1306C19.0557 13.9937 19.0675 13.939 19.0675 13.677C19.0675 13.415 19.0557 13.3603 18.9619 13.2234Z" fill="currentColor"/>
</svg>
