<svg width="24" height="24" viewBox="0 0 24 24" fill="none" xmlns="http://www.w3.org/2000/svg">
<path fill-rule="evenodd" clip-rule="evenodd" d="M12 22C17.5228 22 22 17.5228 22 12C22 6.47715 17.5228 2 12 2C6.47715 2 2 6.47715 2 12C2 17.5228 6.47715 22 12 22ZM10.4999 5.99978C10.4999 5.44749 10.9477 4.99978 11.4999 4.99978H12.4999C13.0522 4.99978 13.4999 5.44749 13.4999 5.99978V12.9998C13.4999 13.5521 13.0522 13.9998 12.4999 13.9998H11.4999C10.9477 13.9998 10.4999 13.5521 10.4999 12.9998V5.99978ZM13.4999 17.4998C13.4999 18.3282 12.8284 18.9998 11.9999 18.9998C11.1715 18.9998 10.4999 18.3282 10.4999 17.4998C10.4999 16.6714 11.1715 15.9998 11.9999 15.9998C12.8284 15.9998 13.4999 16.6714 13.4999 17.4998Z" fill="currentColor"/>
</svg>
