<svg width="24" height="24" viewBox="0 0 24 24" fill="none" xmlns="http://www.w3.org/2000/svg">
<path fill-rule="evenodd" clip-rule="evenodd" d="M12 3L12.9443 5.67376H16L13.5279 7.32624L14.4721 10L12 8.34752L9.52786 10L10.4721 7.32624L8 5.67376H11.0557L12 3ZM11 11C10.4477 11 10 11.4477 10 12V20C10 20.5523 10.4477 21 11 21H13C13.5523 21 14 20.5523 14 20V12C14 11.4477 13.5523 11 13 11H11ZM4 15C3.44772 15 3 15.4477 3 16V20C3 20.5523 3.44772 21 4 21H6C6.55228 21 7 20.5523 7 20V16C7 15.4477 6.55228 15 6 15H4ZM18 13C17.4477 13 17 13.4477 17 14V20C17 20.5523 17.4477 21 18 21H20C20.5523 21 21 20.5523 21 20V14C21 13.4477 20.5523 13 20 13H18Z" fill="currentColor"/>
</svg>
