<svg width="20" height="20" viewBox="0 0 20 20" fill="none" xmlns="http://www.w3.org/2000/svg">
<path d="M16.3703 2.20654H14.0192C13.801 2.18635 13.581 2.21447 13.3749 2.28891C13.1688 2.36335 12.9816 2.48228 12.8266 2.63725C12.6716 2.79222 12.5527 2.97942 12.4783 3.18555C12.4038 3.39167 12.3757 3.61167 12.3959 3.82989V6.18095C12.3757 6.39918 12.4038 6.61917 12.4783 6.8253C12.5527 7.03142 12.6716 7.21862 12.8266 7.37359C12.9816 7.52856 13.1688 7.64749 13.3749 7.72193C13.581 7.79637 13.801 7.82449 14.0192 7.8043H16.3703C16.5885 7.82449 16.8085 7.79637 17.0147 7.72193C17.2208 7.64749 17.408 7.52856 17.5629 7.37359C17.7179 7.21862 17.8368 7.03142 17.9113 6.8253C17.9857 6.61917 18.0138 6.39918 17.9937 6.18095V3.82989C18.0138 3.61167 17.9857 3.39167 17.9113 3.18555C17.8368 2.97942 17.7179 2.79222 17.5629 2.63725C17.408 2.48228 17.2208 2.36335 17.0147 2.28891C16.8085 2.21447 16.5885 2.18635 16.3703 2.20654ZM16.5486 5.86108L15.5482 6.86468C15.5482 6.86947 15.5378 6.87027 15.533 6.87507C15.4903 6.91608 15.4408 6.94936 15.3867 6.97343H15.3739C15.3228 6.99287 15.2687 7.00342 15.214 7.00462C15.198 7.00462 15.1828 7.00462 15.166 7.00462C15.0461 6.99696 14.9328 6.9471 14.8461 6.86388L13.8409 5.86108C13.7471 5.76734 13.6943 5.64015 13.6942 5.5075C13.6942 5.37486 13.7468 5.24761 13.8405 5.15376C13.9343 5.05991 14.0614 5.00715 14.1941 5.00707C14.3267 5.007 14.454 5.05962 14.5478 5.15336L14.695 5.3005V3.50602C14.6923 3.43865 14.7032 3.37143 14.7271 3.3084C14.7511 3.24536 14.7875 3.18781 14.8342 3.13919C14.8809 3.09057 14.937 3.05189 14.999 3.02546C15.061 2.99904 15.1278 2.98542 15.1952 2.98542C15.2626 2.98542 15.3293 2.99904 15.3914 3.02546C15.4534 3.05189 15.5094 3.09057 15.5562 3.13919C15.6029 3.18781 15.6393 3.24536 15.6632 3.3084C15.6871 3.37143 15.6981 3.43865 15.6954 3.50602V5.3005L15.8417 5.15336C15.9356 5.05962 16.0628 5.007 16.1955 5.00707C16.3281 5.00715 16.4553 5.05991 16.549 5.15376C16.6428 5.24761 16.6954 5.37486 16.6953 5.5075C16.6952 5.64015 16.6425 5.76734 16.5486 5.86108ZM17.0284 9.00382H2.96768C2.71105 9.00382 2.46493 9.10576 2.28347 9.28723C2.10201 9.46869 2.00006 9.7148 2.00006 9.97143V13.9698C2.00028 14.8478 2.34915 15.6898 2.96997 16.3106C3.5908 16.9314 4.43276 17.2803 5.31074 17.2805H14.675C15.5551 17.2805 16.3993 16.9309 17.0216 16.3085C17.644 15.6861 17.9937 14.842 17.9937 13.9618V9.97143C17.9937 9.7148 17.8917 9.46869 17.7102 9.28723C17.5288 9.10576 17.2827 9.00382 17.026 9.00382H17.0284ZM6.79814 14.6016H5.19878C5.03972 14.6016 4.88716 14.5384 4.77469 14.4259C4.66221 14.3134 4.59902 14.1609 4.59902 14.0018C4.59902 13.8427 4.66221 13.6902 4.77469 13.5777C4.88716 13.4652 5.03972 13.4021 5.19878 13.4021H6.79814C6.95721 13.4021 7.10976 13.4652 7.22223 13.5777C7.33471 13.6902 7.3979 13.8427 7.3979 14.0018C7.3979 14.1609 7.33471 14.3134 7.22223 14.4259C7.10976 14.5384 6.95721 14.6016 6.79814 14.6016ZM11.9961 14.6016H8.79734C8.63827 14.6016 8.48572 14.5384 8.37325 14.4259C8.26077 14.3134 8.19758 14.1609 8.19758 14.0018C8.19758 13.8427 8.26077 13.6902 8.37325 13.5777C8.48572 13.4652 8.63827 13.4021 8.79734 13.4021H11.9961C12.1551 13.4021 12.3077 13.4652 12.4202 13.5777C12.5326 13.6902 12.5958 13.8427 12.5958 14.0018C12.5958 14.1609 12.5326 14.3134 12.4202 14.4259C12.3077 14.5384 12.1551 14.6016 11.9961 14.6016ZM2.00006 6.81909C2.00282 5.94351 2.35307 5.10484 2.97385 4.48736C3.59463 3.86988 4.43515 3.5241 5.31074 3.52601H10.2288C10.3558 3.52601 10.4817 3.55104 10.5991 3.59967C10.7165 3.6483 10.8231 3.71957 10.913 3.80942C11.0028 3.89927 11.0741 4.00594 11.1227 4.12334C11.1713 4.24073 11.1964 4.36656 11.1964 4.49363V6.83669C11.1964 6.96376 11.1713 7.08958 11.1227 7.20698C11.0741 7.32437 11.0028 7.43104 10.913 7.52089C10.8231 7.61074 10.7165 7.68202 10.5991 7.73064C10.4817 7.77927 10.3558 7.8043 10.2288 7.8043H2.96768C2.83936 7.80346 2.71247 7.77728 2.5943 7.72726C2.47614 7.67724 2.36902 7.60436 2.2791 7.51281C2.18919 7.42126 2.11825 7.31284 2.07036 7.19379C2.02248 7.07474 1.99859 6.94741 2.00006 6.81909Z" fill="currentColor"/>
</svg>
