<svg width="24" height="24" viewBox="0 0 24 24" fill="none" xmlns="http://www.w3.org/2000/svg">
<path fill-rule="evenodd" clip-rule="evenodd" d="M19.8136 5.41818C20.6746 5.64867 21.3513 6.32532 21.5818 7.18637C21.9983 8.74547 22 12.0003 22 12.0003C22 12.0003 22 15.2552 21.5818 16.8143C21.3513 17.6753 20.6746 18.352 19.8136 18.5825C18.2545 19.0007 12 19.0007 12 19.0007C12 19.0007 5.74547 19.0007 4.18636 18.5825C3.32532 18.352 2.64867 17.6753 2.41818 16.8143C2 15.2552 2 12.0003 2 12.0003C2 12.0003 2 8.74547 2.41818 7.18637C2.64867 6.32532 3.32532 5.64867 4.18636 5.41818C5.74547 5 12 5 12 5C12 5 18.2545 5 19.8136 5.41818ZM15.194 12.0006L9.99808 15.0002V9.00092L15.194 12.0006Z" fill="currentColor"/>
</svg>
