<svg xmlns="http://www.w3.org/2000/svg" fill="none" viewBox="0 0 105 104"><path fill="url(#a)" d="M66.538 97.127c24.923-7.753 38.842-34.242 31.089-59.165C89.874 13.039 63.385-.88 38.462 6.873 13.539 14.626-.38 41.115 7.373 66.038c7.753 24.923 34.242 38.842 59.165 31.089Z"/><path fill="url(#b)" d="M66.538 97.127c24.923-7.753 38.842-34.242 31.089-59.165C89.874 13.039 63.385-.88 38.462 6.873 13.539 14.626-.38 41.115 7.373 66.038c7.753 24.923 34.242 38.842 59.165 31.089Z"/><path fill="#fff" fill-rule="evenodd" d="M15.244 23.276a12.36 12.36 0 0 0 10.406-3.609c5.067-4.746 4.202-9.207 4.202-9.207a45 45 0 0 0-14.608 12.816Z" clip-rule="evenodd"/><path fill="#F0FFF4" fill-rule="evenodd" d="M89.607 75.801s.086-5.685 4.795-8.552a9.158 9.158 0 0 1-4.795 8.552Z" clip-rule="evenodd" style="mix-blend-mode:soft-light"/><g fill-rule="evenodd" clip-path="url(#c)" clip-rule="evenodd"><path fill="#7F3E4F" d="M60.794 55.19v4.33a8.442 8.442 0 0 1-2.622 5.547 8.237 8.237 0 0 1-5.65 2.25 8.237 8.237 0 0 1-5.651-2.25 8.442 8.442 0 0 1-2.622-5.546v-4.33a8.442 8.442 0 0 0 2.622 5.546 8.237 8.237 0 0 0 5.65 2.25 8.237 8.237 0 0 0 5.651-2.25 8.442 8.442 0 0 0 2.622-5.546Zm0 19.788v4.72a8.442 8.442 0 0 1-2.622 5.546 8.238 8.238 0 0 1-5.65 2.25 8.237 8.237 0 0 1-5.651-2.25 8.442 8.442 0 0 1-2.622-5.547v-4.72a8.498 8.498 0 0 0 .45 3.396 8.421 8.421 0 0 0 1.75 2.93 8.296 8.296 0 0 0 2.761 1.979 8.205 8.205 0 0 0 6.623 0 8.296 8.296 0 0 0 2.76-1.979 8.421 8.421 0 0 0 1.751-2.93 8.498 8.498 0 0 0 .45-3.395Z"/><path fill="url(#d)" d="M60.794 55.19v4.33a8.442 8.442 0 0 1-2.622 5.547 8.237 8.237 0 0 1-5.65 2.25 8.237 8.237 0 0 1-5.651-2.25 8.442 8.442 0 0 1-2.622-5.546v-4.33a8.442 8.442 0 0 0 2.622 5.546 8.237 8.237 0 0 0 5.65 2.25 8.237 8.237 0 0 0 5.651-2.25 8.442 8.442 0 0 0 2.622-5.546Zm0 19.788v4.72a8.442 8.442 0 0 1-2.622 5.546 8.238 8.238 0 0 1-5.65 2.25 8.237 8.237 0 0 1-5.651-2.25 8.442 8.442 0 0 1-2.622-5.547v-4.72a8.498 8.498 0 0 0 .45 3.396 8.421 8.421 0 0 0 1.75 2.93 8.296 8.296 0 0 0 2.761 1.979 8.205 8.205 0 0 0 6.623 0 8.296 8.296 0 0 0 2.76-1.979 8.421 8.421 0 0 0 1.751-2.93 8.498 8.498 0 0 0 .45-3.395Z"/><path fill="url(#e)" d="M52.479 67.204a8.219 8.219 0 0 1 4.624 1.397 8.376 8.376 0 0 1 3.073 3.768 8.5 8.5 0 0 1 .482 4.863 8.434 8.434 0 0 1-2.272 4.311 8.262 8.262 0 0 1-4.257 2.301 8.198 8.198 0 0 1-4.801-.488 8.319 8.319 0 0 1-3.72-3.113 8.477 8.477 0 0 1-1.38-4.683 8.454 8.454 0 0 1 2.428-5.896 8.242 8.242 0 0 1 5.823-2.46Zm0-50.659c2.2 0 4.309.885 5.864 2.46a8.455 8.455 0 0 1 2.43 5.94V55.6a8.443 8.443 0 0 1-2.622 5.546 8.238 8.238 0 0 1-5.651 2.251 8.237 8.237 0 0 1-5.65-2.25 8.443 8.443 0 0 1-2.623-5.547V24.772c0-2.22.868-4.35 2.415-5.924a8.242 8.242 0 0 1 5.837-2.476v.173Z"/></g><defs><radialGradient id="d" cx="0" cy="0" r="1" gradientTransform="matrix(8.76937 -.4678 .8299 15.55738 51.94 79.764)" gradientUnits="userSpaceOnUse"><stop stop-color="#0E091E"/><stop offset="1" stop-color="#944301"/></radialGradient><radialGradient id="e" cx="0" cy="0" r="1" gradientTransform="matrix(8.99608 0 0 35.5361 52.52 65.196)" gradientUnits="userSpaceOnUse"><stop stop-color="#FB8C32"/><stop offset=".99" stop-color="#D16004"/></radialGradient><linearGradient id="a" x1="57.88" x2="46.611" y1="98.734" y2="5.231" gradientUnits="userSpaceOnUse"><stop stop-color="#FFB070"/><stop offset=".21" stop-color="#FFD1AC"/><stop offset="1" stop-color="#FFEBDA"/></linearGradient><linearGradient id="b" x1="57.88" x2="46.611" y1="98.734" y2="5.231" gradientUnits="userSpaceOnUse"><stop stop-color="#FFB070"/><stop offset=".21" stop-color="#FFD1AC"/><stop offset="1" stop-color="#FFEBDA"/></linearGradient><clipPath id="c"><path fill="#fff" d="M0 0h16.546v72.091H0z" transform="translate(44.227 16.545)"/></clipPath></defs></svg>