<svg width="48" height="48" viewBox="0 0 48 48" fill="none" xmlns="http://www.w3.org/2000/svg">
<path d="M26.6166 44.7273C26.6166 44.7273 9.8516 42.5693 9.4649 41.7585C9.39609 41.4432 9.36676 41.1205 9.37759 40.798V40.798C9.29027 37.4965 9.73933 27.0766 9.73933 27.0766L26.5334 28.7689L26.6124 43.8582L26.6166 44.7273Z" fill="url(#paint0_linear_2_487)"/>
<path d="M39.5978 40.4487C39.5978 41.1597 39.5271 41.6337 39.4066 41.7585C38.4835 42.7481 26.6166 44.7273 26.6166 44.7273V43.8624L26.5376 28.7731L38.6831 27.035C38.6831 27.035 39.6935 36.8105 39.5978 40.4487Z" fill="url(#paint1_linear_2_487)"/>
<path d="M28.3546 31.4051C28.2964 31.8625 28.234 32.1618 28.155 32.2076C27.7392 32.4612 9.02831 30.6691 8.55015 30.3697L8.50441 30.324C8.2302 29.6581 8.04429 28.9592 7.95139 28.245C7.46907 25.7253 6.95348 21.7877 7.00337 21.3511C7.00337 21.2887 7.20711 21.2513 7.56054 21.243C10.8869 21.1473 27.7143 23.164 28.155 23.6629C28.2086 23.7353 28.2442 23.8194 28.259 23.9082C28.259 23.9457 28.2798 23.9872 28.2881 24.0371C28.5625 25.3802 28.5584 29.6172 28.3546 31.4051Z" fill="url(#paint2_linear_2_487)"/>
<path d="M39.8016 29.1265C39.7582 29.4053 39.6726 29.6759 39.5479 29.929C39.2278 30.1743 28.3713 32.3905 28.1592 32.2034C28.09 31.953 28.0578 31.6939 28.0636 31.4342C27.9596 29.7086 27.9596 25.559 28.259 23.9207C28.3255 23.5506 28.4045 23.3136 28.5043 23.2513C29.0407 22.9103 40.9783 20.7565 41.1321 21.0683C41.286 21.3802 40.313 26.9851 39.8016 29.1265Z" fill="url(#paint3_linear_2_487)"/>
<path d="M41.1446 21.0767C41.1446 21.4924 30.7496 23.8084 28.3047 24.0538L28.0178 24.0746C26.3546 24.1161 9.92229 22.2825 7.34849 21.5132C7.22824 21.494 7.11504 21.4439 7.02001 21.3677C6.77053 21.0018 9.21958 20.3698 12.4254 19.7503L12.5876 19.717C16.8911 18.8854 22.4836 18.0871 24.7954 17.9748C28.8619 17.7711 41.1155 20.6567 41.1446 21.0767Z" fill="url(#paint4_linear_2_487)"/>
<g style="mix-blend-mode:multiply" opacity="0.3">
<path d="M39.8016 29.1307C39.7581 29.4095 39.6726 29.6801 39.5479 29.9332C39.2278 30.1785 28.3713 32.3947 28.1592 32.2076C27.7434 32.4654 9.03247 30.6691 8.54599 30.3698C8.39215 30.2783 8.17592 29.4176 7.95555 28.2658C9.61875 30.5569 13.5065 30.8022 19.3027 31.4384C25.0989 32.0745 27.6852 31.4675 28.0636 31.4384L28.3546 31.4051C29.9596 31.2097 37.4149 30.2325 38.4752 29.9955C39.5355 29.7585 39.7849 29.1889 39.8016 29.1307Z" fill="#900055"/>
</g>
<g style="mix-blend-mode:multiply" opacity="0.2">
<path d="M7.95555 23.0267C8.71231 22.0912 26.1176 24.2035 27.0823 25.2762C28.0469 26.349 27.8889 30.1244 27.0823 31.1348C26.2756 32.1452 10.8661 29.9248 9.36512 28.823C7.86408 27.7211 7.95555 23.0267 7.95555 23.0267Z" fill="#DA0553"/>
</g>
<g style="mix-blend-mode:multiply" opacity="0.2">
<path d="M29.2819 24.0746C28.2548 24.27 28.4503 30.0246 28.9076 30.8687C29.365 31.7128 37.5978 30.2658 38.9242 29.534C40.2506 28.8022 40.9492 22.2658 40.6706 21.8376C40.392 21.4093 33.4523 23.2804 29.2819 24.0746Z" fill="#DA0553"/>
</g>
<path d="M40.7288 20.8646C41.1446 21.0725 32.6498 23.534 27.7434 23.7752C22.837 24.0163 7.22375 21.4841 7.22375 21.4841C7.22375 21.4841 10.1135 22.2741 18.4753 23.2804C26.837 24.2866 27.9555 24.6567 28.4128 24.6193C28.8702 24.5818 30.8494 23.613 35.207 22.8147C39.5646 22.0164 41.1446 21.4384 41.1446 21.2554C41.1446 21.0725 40.7288 20.8646 40.7288 20.8646Z" fill="#8981FF"/>
<path d="M24.7289 18.6401C23.6228 15.8251 22.6998 10.2368 20.5459 7.5133C18.3921 4.78982 12.6042 12.5029 9.81417 12.0122C7.02417 11.5216 6.24246 9.51744 7.63123 7.82514C9.02 6.13284 10.6208 8.65674 10.2965 9.30955L11.3859 9.47171C11.3859 9.47171 10.2341 7.1765 8.83289 6.92702C7.43165 6.67754 6.59589 8.73159 6.546 10.295C6.4961 11.8584 9.91397 13.0517 10.7705 13.2056C11.6271 13.3594 16.1759 6.9686 19.2778 7.86257C22.3796 8.75653 21.8474 17.2056 24.7289 18.6401Z" fill="url(#paint5_linear_2_487)"/>
<g style="mix-blend-mode:multiply" opacity="0.3">
<path d="M39.5978 40.4487C39.5978 41.1597 39.5271 41.6337 39.4066 41.7585C38.4835 42.7481 26.6166 44.7273 26.6166 44.7273C26.6166 44.7273 9.85159 42.5693 9.4649 41.7585C9.39608 41.4432 9.36675 41.1205 9.37758 40.798C9.45659 41.588 18.6748 43.1098 21.943 43.484C25.2112 43.8583 26.5168 43.8666 26.5168 43.8666H26.5958C27.2153 43.825 31.4107 43.5256 35.207 42.9061C39.3359 42.2366 39.5978 40.4487 39.5978 40.4487Z" fill="#900055"/>
</g>
<g style="mix-blend-mode:multiply" opacity="0.2">
<path d="M9.60211 30.5569C9.43579 30.5569 13.1156 40.2325 18.5626 41.7585C24.0095 43.2844 26.3671 32.956 26.3671 32.4279C26.3671 31.8999 9.60211 30.5569 9.60211 30.5569Z" fill="#DA0553"/>
</g>
<g style="mix-blend-mode:multiply" opacity="0.2">
<path d="M27.049 32.2076C26.3671 32.4279 27.9471 42.1452 28.5002 42.9061C29.0532 43.667 37.6228 42.3032 38.8411 41.0391C40.0594 39.7751 39.5687 31.06 38.4253 30.7772C37.2818 30.4945 27.049 32.2076 27.049 32.2076Z" fill="#DA0553"/>
</g>
<path d="M27.074 24.4405C27.5771 24.5236 27.8307 32.2325 28.1592 32.2076C28.4877 32.1826 28.5085 25.9124 28.9908 24.4405C28.361 24.5932 27.7038 24.5932 27.074 24.4405V24.4405Z" fill="#665CFF"/>
<path d="M26.6166 32.2076C26.3255 32.166 26.4087 43.0765 26.5334 43.7086C26.6582 44.3406 26.97 35.2803 26.6166 32.2076Z" fill="#5D52FF"/>
<g style="mix-blend-mode:multiply" opacity="0.5">
<path d="M9.5439 31.7793C10.7123 30.3531 23.6353 32.7065 27.3027 33.3926C30.97 34.0787 39.0906 31.5465 39.0906 31.5465L38.9741 30.0953C38.9741 30.0953 30.3006 31.9623 27.997 32.2076C25.6935 32.4529 9.60212 30.5444 9.60212 30.5444L9.5439 31.7793Z" fill="#6E3B66"/>
</g>
<g style="mix-blend-mode:multiply" opacity="0.3">
<path d="M10.3755 42.1535C10.3755 42.1535 11.4607 41.7377 17.257 42.6067C23.0532 43.4757 25.7808 44.6358 25.7808 44.6358C25.7808 44.6358 14.7747 43.2179 10.3755 42.1535Z" fill="#900055"/>
</g>
<g style="mix-blend-mode:multiply" opacity="0.3">
<path d="M26.8785 44.6192C26.8785 44.6192 32.1467 43.0558 34.1966 42.5901C35.7624 42.2804 37.3501 42.0941 38.945 42.0329C38.945 42.0329 37.3317 42.5651 33.7891 43.3842C30.2465 44.2034 26.8785 44.6192 26.8785 44.6192Z" fill="#900055"/>
</g>
<g style="mix-blend-mode:soft-light">
<path d="M27.2902 23.7835C26.3089 24.1702 27.8182 24.7856 28.417 24.6151C29.0157 24.4446 30.1717 24.0496 30.2673 23.8625C30.3629 23.6754 27.2902 23.7835 27.2902 23.7835Z" fill="white"/>
</g>
<path d="M21.0033 43.9705C20.8879 44.1572 20.7106 44.2974 20.5024 44.3665C20.2941 44.4357 20.0682 44.4295 19.864 44.3489C19.0324 44.1327 15.0823 43.6005 14.4295 43.4217C13.7767 43.2429 12.9701 23.2139 13.0449 22.3573C13.1198 21.5008 24.3172 20.0912 24.7829 20.0455C25.2486 19.9997 26.0968 20.611 26.1883 20.8189C26.2798 21.0268 19.864 22.7149 19.3942 23.1848C18.9243 23.6546 19.3651 43.7252 19.6145 43.7418C19.864 43.7585 21.0033 43.9705 21.0033 43.9705Z" fill="url(#paint6_linear_2_487)"/>
<path d="M24.995 20.0621C24.5043 20.1037 25.4399 20.5652 26.1883 20.8189C26.9368 21.0725 34.2839 21.9789 34.9201 22.8646C35.5563 23.7502 33.7891 43.4009 33.7891 43.4009L32.6748 43.6462C32.941 43.8474 33.2472 43.9892 33.5729 44.062C33.9887 44.1077 37.365 43.193 37.577 43.0059C37.7891 42.8188 39.4523 22.3407 39.3359 21.85C39.2195 21.3594 29.1696 19.7004 24.995 20.0621Z" fill="url(#paint7_linear_2_487)"/>
<path d="M24.9284 18.9394C24.9284 18.9394 24.8328 10.6692 27.1031 7.13492C29.3733 3.60063 31.0241 6.46133 32.4544 6.83555C33.8848 7.20977 35.1945 3.94991 33.5147 2.16197C31.8349 0.374038 31.997 2.23682 31.997 2.23682L30.9783 1.68796C30.9783 1.68796 31.8515 0.319984 33.5729 1.72538C35.2943 3.13078 34.575 6.1079 33.39 7.34698C32.2049 8.58606 31.0074 5.63389 28.9825 7.18066C26.9575 8.72743 24.9742 18.823 25.3027 19.5548C25.6311 20.2866 24.9284 18.9394 24.9284 18.9394Z" fill="url(#paint8_linear_2_487)"/>
<g style="mix-blend-mode:multiply" opacity="0.5">
<path d="M14.3006 22.2492C13.6977 22.5112 18.1551 23.139 19.8807 22.7398C22.1683 22.1504 24.5166 21.8281 26.8785 21.7793C30.1717 21.7003 34.7787 22.744 34.7787 22.744C33.3307 22.0861 31.8151 21.5884 30.259 21.2596C28.18 20.902 32.6082 20.4987 32.6082 20.4987L30.8245 20.2451L22.3505 20.7399C22.3505 20.7399 14.9035 21.3178 14.3006 22.2492Z" fill="#811166"/>
</g>
<path d="M24.3297 20.1162C23.9596 20.1619 14.941 19.2846 14.5792 19.3677C14.2175 19.4509 12.0844 19.8334 12.0844 19.8334C12.1646 19.5178 12.2804 19.2123 12.4295 18.9228C12.5709 18.7482 16.783 18.1245 18.2133 17.9914C19.6437 17.8584 27.2361 19.8001 27.2361 20.1162C27.2361 20.4322 24.3297 20.1162 24.3297 20.1162Z" fill="url(#paint9_linear_2_487)"/>
<path d="M12.8162 14.7108C12.1052 15.0143 13.4524 21.1099 16.9493 21.6047C20.4461 22.0995 24.7247 20.4322 24.8494 20.2492C24.9742 20.0663 20.1052 14.4862 19.3276 13.8085C18.5501 13.1307 12.8162 14.7108 12.8162 14.7108Z" fill="url(#paint10_linear_2_487)"/>
<path d="M35.3234 19.4675C35.3234 19.4675 35.5604 18.7773 35.3234 18.6609C33.7318 18.3972 32.1274 18.2181 30.5168 18.1245C29.7933 18.1245 25.5272 20.1203 25.6395 20.2035C25.7517 20.2866 26.7455 20.3698 28.2216 20.2035C29.6977 20.0371 34.3338 19.2513 34.3338 19.2513L35.3234 19.4675Z" fill="url(#paint11_linear_2_487)"/>
<path d="M25.4773 20.532L25.4191 20.4945C25.5005 20.4113 25.5704 20.3176 25.627 20.2159C25.4607 19.613 23.2653 15.3719 21.8848 13.2721C21.6449 12.8611 21.3466 12.4871 20.9992 12.1619C18.2965 10.3116 13.3235 13.4634 12.0678 14.7108C11.9171 14.8616 11.8119 15.0518 11.7643 15.2596C11.7643 15.2846 11.7643 15.3137 11.7435 15.3386C11.6021 16.0538 11.8932 17.0725 12.4919 18.1203C12.7779 18.6113 13.1047 19.0772 13.469 19.5132C13.8109 19.921 14.1849 20.3006 14.5875 20.6484C15.0717 21.0715 15.6033 21.4371 16.1717 21.7378C18.8162 23.1141 23.5563 21.3594 25.0407 20.744C25.3276 20.6276 25.4939 20.5527 25.4939 20.5527L25.4773 20.532ZM16.6832 21.2596C16.3033 21.1421 15.9521 20.9467 15.652 20.6858C15.3671 20.4508 15.1053 20.189 14.8703 19.9041C13.5896 18.3947 12.6582 16.1245 13.0408 15.4301C13.5605 14.4821 22.0678 19.2846 23.8515 20.4197C23.8597 20.4216 23.8683 20.4216 23.8765 20.4197C22.0179 20.8064 18.2341 21.6712 16.6832 21.2554V21.2596Z" fill="url(#paint12_linear_2_487)"/>
<path d="M29.9388 10.2742C32.5875 9.54656 31.602 16.7856 30.97 17.9623C30.338 19.139 28.5002 19.8999 28.5002 19.8999C28.5002 19.8999 36.5916 19.401 38.0635 16.6234C38.6244 15.5453 38.9541 14.3619 39.0314 13.149C39.1088 11.9361 38.932 10.7205 38.5126 9.57982C37.9804 8.35321 29.9388 10.2742 29.9388 10.2742Z" fill="url(#paint13_linear_2_487)"/>
<path d="M38.7454 8.94365C38.7167 8.92052 38.6844 8.90226 38.6498 8.8896C37.5895 8.4738 31.9513 8.6027 29.602 10.0746C29.3864 10.2093 29.1881 10.3699 29.0116 10.5528C27.2486 12.4779 25.1904 19.9457 26.1925 20.1162C26.4776 20.1687 26.7676 20.1896 27.0573 20.1785C26.5126 20.4488 26.3255 20.4779 27.3484 20.6775C27.7481 20.7078 28.1501 20.691 28.5459 20.6276C28.8453 20.5902 29.1821 20.5403 29.548 20.4737L30.1758 20.3615L30.4586 20.3033C30.7704 20.2409 31.0989 20.1661 31.4357 20.0912L32.1176 19.929L32.6498 19.7918C33.232 19.638 33.8141 19.4634 34.3712 19.2804L35.103 19.0268H35.1529L35.4274 18.9228L35.4939 18.8979L35.7642 18.7898H35.7891C35.9554 18.7232 36.1217 18.6525 36.2756 18.5819C36.5001 18.4779 36.6914 18.374 36.9035 18.2659C36.9691 18.2332 37.0329 18.1971 37.0947 18.1577C37.1737 18.1162 37.2444 18.0704 37.3193 18.0247C37.3941 17.979 37.5812 17.8459 37.6976 17.7586C37.7571 17.7148 37.814 17.6676 37.8681 17.6172V17.6172L38.0012 17.4841C38.0584 17.4258 38.1112 17.3633 38.1592 17.297L38.2257 17.1972C38.2539 17.1519 38.2789 17.1047 38.3005 17.0559C38.6141 16.2509 38.8399 15.4145 38.9741 14.5611V14.5611C38.9741 14.4821 39.0074 14.3989 39.0199 14.3158C39.0199 14.3158 39.0199 14.2867 39.0199 14.27C39.0448 14.1453 39.0614 14.0164 39.0822 13.8833C39.0822 13.8833 39.0822 13.8625 39.0822 13.8501L39.1072 13.6838C39.1072 13.5549 39.1363 13.426 39.1529 13.2929C39.1529 13.1973 39.1737 13.1058 39.182 13.0143C39.1903 12.9228 39.182 12.9686 39.182 12.9478V12.8688C39.182 12.7399 39.2028 12.611 39.2111 12.4863C39.2195 12.3615 39.2111 12.2409 39.2111 12.1204C39.2111 12.0372 39.2111 11.954 39.2111 11.875C39.2111 11.7129 39.2111 11.5507 39.2111 11.3969C39.3109 10.1578 39.1488 9.21392 38.7454 8.94365ZM37.261 17.0185C35.8099 18.453 31.5812 19.1848 29.1155 19.6338C30.1582 19.0765 31.0809 18.3192 31.8307 17.4051C34.5791 14.2451 37.0864 9.67546 38.0344 10.0788C38.9824 10.4821 39.2402 15.06 37.261 17.0185Z" fill="url(#paint14_linear_2_487)"/>
<g style="mix-blend-mode:multiply" opacity="0.5">
<path d="M33.5729 44.062C33.5729 44.062 34.3712 43.6462 34.9326 36.9352C35.4939 30.2242 35.3484 22.9228 35.5895 22.7398C35.8307 22.5569 39.3317 21.85 39.3317 21.85C39.3317 21.85 37.8182 41.5298 37.3691 42.5319C36.9201 43.5339 33.5729 44.062 33.5729 44.062Z" fill="#811166"/>
</g>
<g style="mix-blend-mode:multiply" opacity="0.5">
<path d="M20.0428 44.3822C20.0428 44.3822 19.3069 44.4445 19.1156 43.326C18.9243 42.2075 18.3796 24.2284 18.6665 23.4425C18.9534 22.6567 24.7746 21.3636 24.7746 21.3636C24.7746 21.3636 19.889 22.8895 19.5231 23.5049C19.1572 24.1203 19.1821 31.4675 19.232 31.5797C19.2819 31.692 19.864 31.6712 19.864 31.6712C19.864 31.6712 20.1093 43.6919 20.1967 43.8208C20.284 43.9497 21.0283 43.9705 21.0283 43.9705C20.914 44.1189 20.763 44.2349 20.5902 44.3071C20.4173 44.3793 20.2287 44.4052 20.0428 44.3822V44.3822Z" fill="#811166"/>
</g>
<g style="mix-blend-mode:multiply" opacity="0.3">
<path d="M13.7019 23.0517C13.3485 23.1141 13.5273 30.5901 14.2632 33.218C14.9992 35.8458 17.8599 38.3655 18.3713 38.4113C18.8827 38.457 18.4337 24.7149 18.3713 24.1827C18.3089 23.6504 13.7019 23.0517 13.7019 23.0517Z" fill="#912774"/>
</g>
<g style="mix-blend-mode:multiply" opacity="0.5">
<path d="M34.9076 22.8646C35.1862 23.243 34.7829 30.1203 34.1758 31.1265C34.1758 31.1265 33.5729 42.8562 33.1987 43.5007L33.7725 43.3842C33.7725 43.3842 35.4814 25.875 34.9076 22.8646Z" fill="#811166"/>
</g>
<path d="M13.1364 22.5361C13.2237 21.9748 15.4316 22.7523 16.9243 22.8105C18.417 22.8687 18.5875 22.848 18.6083 23.0891C18.6291 23.3303 18.3339 23.7253 16.5293 23.5257C14.7248 23.3261 13.0241 22.9228 13.1364 22.5361Z" fill="#FF4F90"/>
<path d="M35.0365 22.4904C34.891 22.5444 35.9471 22.7648 37.1737 22.4031C38.4003 22.0413 39.0656 21.9873 39.103 21.85C39.1404 21.7128 35.7392 22.2243 35.0365 22.4904Z" fill="#FF4F90"/>
<g style="mix-blend-mode:multiply" opacity="0.5">
<path d="M25.4731 20.532L25.3858 20.4821L25.0282 20.2825C22.6208 18.9311 14.363 14.6484 12.1925 15.0393C12.0301 15.0575 11.8811 15.138 11.7767 15.2638C11.7625 15.2834 11.7499 15.3043 11.7393 15.3262C11.5896 16.0621 11.9056 17.1266 12.546 18.2076C13.0955 19.1175 13.7844 19.9355 14.5875 20.6317C15.0664 21.0481 15.5925 21.4068 16.1551 21.7003C18.7954 23.0766 23.5355 21.322 25.0199 20.7066L25.4773 20.5153L25.4731 20.532ZM14.8703 19.9083C13.5771 18.3989 12.6374 16.112 13.02 15.4135C13.5439 14.4613 22.1343 19.3178 23.8307 20.4031C21.9929 20.7981 18.2133 21.6504 16.6665 21.2346C16.2935 21.1231 15.9479 20.9348 15.652 20.6816C15.3671 20.4466 15.1053 20.1849 14.8703 19.8999V19.9083Z" fill="#811166"/>
</g>
<g style="mix-blend-mode:multiply" opacity="0.5">
<path d="M38.7454 8.94365C38.2455 8.8345 37.7228 8.92237 37.286 9.18897C35.207 10.3574 33.4773 14.7524 31.2819 17.0226L28.6706 19.7004L28.4919 19.8875C28.2507 20.1411 28.1966 20.191 28.1966 20.191L28.5376 20.6276C28.837 20.5902 29.1738 20.5403 29.5397 20.4737L30.1675 20.3615L30.4503 20.3033C30.7621 20.2409 31.0906 20.166 31.4274 20.0912L32.1093 19.929L32.6415 19.7918C33.2236 19.638 33.8058 19.4633 34.3629 19.2804L35.0947 19.0268H35.1446L35.4191 18.9228L35.4856 18.8979L35.7558 18.7898H35.7808C35.9471 18.7232 36.1134 18.6525 36.2673 18.5819C36.4918 18.4779 36.6831 18.374 36.8951 18.2658C36.9608 18.2332 37.0246 18.1971 37.0864 18.1577C37.1654 18.1162 37.2361 18.0704 37.3109 18.0247C37.3858 17.9789 37.5729 17.8459 37.6893 17.7586C37.7488 17.7148 37.8057 17.6676 37.8598 17.6172L37.9928 17.4841C38.0501 17.4258 38.1029 17.3633 38.1508 17.297L38.2174 17.1972C38.2456 17.1519 38.2706 17.1047 38.2922 17.0559C38.6058 16.2509 38.8316 15.4145 38.9658 14.5611V14.5611C38.9658 14.4821 38.9991 14.3989 39.0115 14.3158C39.0115 14.3158 39.0115 14.2867 39.0115 14.27C39.0365 14.1453 39.0531 14.0164 39.0739 13.8833C39.0739 13.8833 39.0739 13.8625 39.0739 13.8501L39.0989 13.6838C39.0989 13.5549 39.128 13.426 39.1446 13.2929C39.1446 13.1973 39.1654 13.1058 39.1737 13.0143C39.182 12.9228 39.1737 12.9686 39.1737 12.9478V12.8688C39.1737 12.7399 39.1945 12.611 39.2028 12.4863C39.2111 12.3615 39.2028 12.2409 39.2028 12.1203C39.2028 12.0372 39.2028 11.954 39.2028 11.875C39.2028 11.7129 39.2028 11.5507 39.2028 11.3969C39.3109 10.1578 39.1488 9.21392 38.7454 8.94365ZM37.261 17.0185C35.8099 18.453 31.5812 19.1848 29.1155 19.6338C30.1582 19.0765 31.0809 18.3192 31.8307 17.4051C34.5791 14.2451 37.0864 9.67545 38.0344 10.0788C38.9824 10.4821 39.2402 15.06 37.261 17.0185Z" fill="#811166"/>
</g>
<g style="mix-blend-mode:multiply" opacity="0.3">
<path d="M26.5334 18.9478C26.5334 18.9478 26.4752 15.2347 28.1966 13.2305C29.918 11.2264 27.7393 17.2056 27.6311 17.9665C27.523 18.7274 30.8868 12.69 32.6207 11.8709C34.3546 11.0517 31.2943 16.5112 30.2715 17.6588C29.4862 18.4402 28.5417 19.0429 27.5022 19.4259L26.5334 18.9478Z" fill="#912774"/>
</g>
<g style="mix-blend-mode:multiply" opacity="0.3">
<path d="M25.3068 19.5548C25.3068 19.5548 22.2258 15.5257 21.1073 15.0226C19.9888 14.5195 19.1073 15.6879 20.7705 17.2887C22.4337 18.8895 25.3068 19.5548 25.3068 19.5548Z" fill="#912774"/>
</g>
<path d="M24.0553 20.8646C23.5314 21.7419 28.1384 21.376 28.5002 20.9893L28.8661 20.5985C28.8661 20.5985 27.5563 19.2056 26.5334 18.9353C26.0258 18.7678 25.4777 18.7678 24.97 18.9353C24.97 18.9353 25.6478 19.8043 25.3526 20.5319C25.0574 21.2596 24.0553 20.8646 24.0553 20.8646Z" fill="url(#paint15_linear_2_487)"/>
<g style="mix-blend-mode:multiply" opacity="0.5">
<path d="M32.313 16.8355C31.8307 17.9041 38.1633 16.216 38.4461 14.0497C38.7288 11.8833 38.6165 10.191 37.7558 10.3075C36.8951 10.4239 34.5833 13.9623 33.7559 15.0309C32.9284 16.0995 32.313 16.8355 32.313 16.8355Z" fill="#9D1166"/>
</g>
<g style="mix-blend-mode:multiply" opacity="0.5">
<path d="M13.1406 15.3386C12.6374 15.4551 13.2196 18.3989 14.8329 19.3344C16.4462 20.27 21.4233 19.8209 21.7476 19.3344C22.0719 18.848 14.309 15.0725 13.1406 15.3386Z" fill="#9D1166"/>
</g>
<g style="mix-blend-mode:multiply" opacity="0.5">
<path d="M24.0553 21.1058C24.4336 21.4675 25.8141 20.9394 27.128 20.4987C28.4419 20.0579 28.8661 20.5985 28.8661 20.5985C28.8661 20.5985 28.6291 21.1265 28.2049 21.2263C27.1614 21.3983 26.1065 21.4928 25.049 21.5091C24.6807 21.4957 24.3288 21.3529 24.0553 21.1058V21.1058Z" fill="#811166"/>
</g>
<g style="mix-blend-mode:soft-light">
<path d="M29.4191 10.5528C28.1052 11.9499 31.8681 10.794 33.5563 11.0393C35.2444 11.2846 36.8037 9.23886 37.1529 8.96028C37.5022 8.6817 30.8411 8.96444 29.4191 10.5528Z" fill="white"/>
</g>
<g style="mix-blend-mode:soft-light">
<path d="M13.5688 14.1786C13.39 14.5944 15.8516 14.6526 19.4274 14.349C23.0033 14.0455 21.2154 12.3906 20.0096 12.0455C18.8037 11.7004 14.1177 12.9312 13.5688 14.1786Z" fill="white"/>
</g>
<path d="M9.39006 41.114L9.5938 30.719C9.34146 34.1779 9.27346 37.6478 9.39006 41.114V41.114Z" fill="#8981FF"/>
<path d="M7.88071 21.6546C7.58965 21.1972 10.7165 20.0912 10.7165 20.0912C10.7165 20.0912 6.97427 20.9727 6.97427 21.3636C6.97427 21.7544 7.88071 21.6546 7.88071 21.6546Z" fill="#8981FF"/>
<path d="M15.6561 15.3012C15.2819 15.3012 20.2549 17.8708 21.6769 18.5652C23.0989 19.2596 23.943 19.7669 23.943 19.7669C23.943 19.7669 17.0283 15.3178 15.6561 15.3012Z" fill="#FF4F90"/>
<path d="M30.5168 17.8085C30.5168 17.8085 34.5417 12.0954 35.6727 10.7149C35.6727 10.7149 32.97 15.5756 30.5168 17.8085Z" fill="#FF4F90"/>
<g style="mix-blend-mode:multiply" opacity="0.5">
<path d="M27.1613 19.218C27.1613 19.218 28.8245 16.2201 29.4773 15.4758C30.1301 14.7316 30.0178 16.8022 29.5979 17.8251C29.1779 18.848 27.4316 19.3927 27.3401 19.3386C27.2486 19.2846 27.1613 19.218 27.1613 19.218Z" fill="#9D1166"/>
</g>
<g style="mix-blend-mode:multiply" opacity="0.5">
<path d="M25.3068 19.4633C25.3068 19.4633 23.8432 17.6837 23.1405 16.9145C22.4378 16.1453 22.4586 17.3677 22.7663 18.191C23.074 19.0143 25.3068 19.4633 25.3068 19.4633Z" fill="#9D1166"/>
</g>
<g style="mix-blend-mode:multiply" opacity="0.3">
<path d="M26.6291 18.9769C26.5266 17.9904 26.6562 16.9937 27.0074 16.0663C27.3318 15.5257 27.469 17.8209 27.3858 18.2617C27.3027 18.7024 26.6291 18.9769 26.6291 18.9769Z" fill="#9D1166"/>
</g>
<path d="M35.9679 9.45924C36.7205 9.09334 36.2174 10.5112 35.4357 10.7066C34.654 10.9021 33.9014 10.137 32.4128 10.191C30.9243 10.2451 31.3775 10.7108 29.9596 10.9686C28.5417 11.2264 28.6873 11.1391 29.0324 10.5528C29.3775 9.96651 29.9804 10.5528 30.837 10.3449C31.6935 10.137 31.4108 9.99146 33.1613 10.1204C34.1442 10.217 35.1315 9.98449 35.9679 9.45924V9.45924Z" fill="#FF5CA2"/>
<path d="M13.5605 14.507C13.5605 14.7648 14.1759 14.9228 15.5189 14.7025C16.862 14.4821 17.3443 14.0497 18.4046 13.4551C19.7434 12.6858 20.7538 13.1224 20.9617 12.5445C21.1696 11.9665 20.7455 12.3033 20.5044 12.4613C20.2632 12.6193 20.3256 12.5445 18.259 13.2721C16.1925 13.9998 13.5231 13.8792 13.5605 14.507Z" fill="#FF5CA2"/>
<g style="mix-blend-mode:multiply" opacity="0.5">
<path d="M27.8141 6.19522C28.4378 5.67547 29.1114 6.64844 29.1779 6.82723C29.2444 7.00603 28.3879 7.62557 27.5147 9.22639C26.6415 10.8272 26.0677 9.64219 26.0677 9.64219C26.0677 9.64219 27.1322 6.74823 27.8141 6.19522Z" fill="#D42F55"/>
</g>
<g style="mix-blend-mode:multiply" opacity="0.5">
<path d="M20.2008 7.42598C19.785 7.5923 20.9992 9.5715 21.232 10.2201C21.4107 10.6397 21.7317 10.9827 22.1384 11.189C22.1384 11.189 21.3526 8.11621 20.2008 7.42598Z" fill="#D42F55"/>
</g>
<path d="M28.8577 5.47588C28.4711 5.75863 29.3401 6.59854 29.4357 6.62349C29.5313 6.64844 30.5833 6.56944 30.5833 6.56944C30.3625 6.24168 30.1164 5.93166 29.8473 5.6422C29.5854 5.39688 28.8577 5.47588 28.8577 5.47588Z" fill="#FFF455"/>
<path d="M31.0989 1.57985C31.434 1.3103 31.8396 1.14287 32.2673 1.09753C32.55 1.15158 32.5376 1.24306 32.5376 1.24306C32.5376 1.24306 31.997 1.75449 31.997 1.99565C31.997 2.23681 31.0989 1.57985 31.0989 1.57985Z" fill="#FFF455"/>
<path d="M19.7809 7.05176C19.5563 6.9395 19.1405 7.53409 19.2902 7.68378C19.602 7.87975 19.9304 8.0481 20.2715 8.1869C20.2715 8.1869 20.5459 7.60893 20.4337 7.3844C20.3214 7.15987 19.7809 7.05176 19.7809 7.05176Z" fill="#FFF455"/>
<path d="M10.1676 7.93741C9.98881 7.89168 10.4212 8.97691 10.4961 9.09749C10.5709 9.21807 11.1489 9.22639 11.1489 9.22639C11.1489 9.22639 10.6499 8.09126 10.1676 7.93741Z" fill="#FFF455"/>
<path d="M6.63332 10.7274C6.7539 10.4364 8.13435 11.5341 8.40878 11.821C8.6832 12.1079 8.09277 12.1536 7.9514 12.0621C7.81002 11.9707 6.68321 11.3262 6.63332 10.7274Z" fill="#FFF455"/>
<g style="mix-blend-mode:multiply" opacity="0.5">
<path d="M8.20919 12.216C8.15098 12.0954 8.59173 12.0247 8.71231 12.0122C9.42793 12.1598 10.1251 12.3857 10.7913 12.6858C11.0241 12.8771 10.9202 13.1016 10.7497 13.1016C9.85476 12.9686 8.99288 12.6682 8.20919 12.216V12.216Z" fill="#D42F55"/>
</g>
<path d="M18.6291 29.7377C17.864 29.2928 17.7268 30.6899 18.0802 31.6296C18.4337 32.5693 18.8412 31.9623 18.8412 31.1265C18.8412 30.2907 18.7913 29.8334 18.6291 29.7377Z" fill="#920066"/>
<path d="M35.602 38.4113C36.2756 37.4134 37.3692 38.2824 36.4544 39.2969C35.5396 40.3115 34.9783 39.3552 35.602 38.4113Z" fill="#920066"/>
<g style="mix-blend-mode:multiply" opacity="0.5">
<path d="M35.602 38.4113C35.1862 38.8604 35.7766 39.5755 36.4544 38.9934C37.1321 38.4113 36.4419 37.4799 35.602 38.4113Z" fill="#9A1166"/>
</g>
<g style="mix-blend-mode:multiply" opacity="0.5">
<path d="M17.8599 30.5111C17.9555 31.1057 18.417 31.6088 18.6208 31.5423C18.8245 31.4758 19.0615 29.8791 18.6208 29.6504C18.18 29.4217 17.7518 29.8749 17.8599 30.5111Z" fill="#9A1166"/>
</g>
<path d="M17.9472 31.139C17.9472 31.139 18.1218 31.9248 18.442 31.9706C18.7622 32.0163 18.8245 31.3926 18.8245 31.3926C18.8245 31.3926 18.7746 32.2533 18.4836 32.2866C18.1925 32.3198 17.9472 31.139 17.9472 31.139Z" fill="#FF4F90"/>
<path d="M35.3234 39.1514C35.3816 39.8832 36.4377 39.3136 36.4377 39.3136C36.4377 39.3136 36.1134 39.8416 35.6602 39.8624C35.207 39.8832 35.3234 39.1514 35.3234 39.1514Z" fill="#FF4F90"/>
<g style="mix-blend-mode:multiply" opacity="0.3">
<path d="M14.6499 43.4716C14.2923 43.1181 14.9451 41.746 16.6582 41.9123C18.3713 42.0786 19.2985 44.2325 19.2985 44.2325L14.6499 43.4716Z" fill="#912774"/>
</g>
<g style="mix-blend-mode:multiply" opacity="0.3">
<path d="M35.7933 23.1598C35.5438 23.6172 35.3775 25.8084 36.2465 26.9477C37.1155 28.087 39.024 23.6504 38.9616 22.7398C38.8993 21.8292 35.7933 23.1598 35.7933 23.1598Z" fill="#811166"/>
</g>
<g style="mix-blend-mode:multiply" opacity="0.2">
<path d="M25.9264 24.4405C24.1634 23.85 26.1925 27.3802 27.074 28.6941C27.9555 30.008 27.4191 25.1141 27.2445 24.7773C27.0698 24.4405 25.9264 24.4405 25.9264 24.4405Z" fill="#DA0553"/>
</g>
<g style="mix-blend-mode:multiply" opacity="0.5">
<path d="M39.1238 13.8002C38.9911 14.9009 38.7259 15.9815 38.3338 17.0185C37.6644 18.5694 32.6249 19.9623 29.5646 20.4862C29.9471 20.3947 36.0802 18.9394 37.5438 17.6047C38.5375 16.6983 38.9533 14.9187 39.1238 13.8002Z" fill="#9D1166"/>
</g>
<g style="mix-blend-mode:multiply" opacity="0.5">
<path d="M39.2402 12.8189V12.8979C39.2421 12.8688 39.2421 12.8396 39.2402 12.8106V12.8189Z" fill="#9D1166"/>
</g>
<g style="mix-blend-mode:multiply" opacity="0.5">
<path d="M8.55015 30.3697L8.50441 30.324C8.23021 29.6581 8.04429 28.9592 7.9514 28.245C7.46907 25.7253 6.95348 21.7877 7.00338 21.3511C6.7539 20.9852 9.20295 20.3532 12.4088 19.7336C11.5522 19.9166 8.4462 20.6151 7.55639 21.243C7.45805 21.3046 7.37885 21.3924 7.3277 21.4966C7.09901 22.2908 8.16761 29.9124 8.55015 30.3697Z" fill="#6E3B66"/>
</g>
<g style="mix-blend-mode:multiply" opacity="0.5">
<path d="M39.3109 11.3387C39.3109 11.4925 39.3109 11.6547 39.3109 11.8168C39.3109 11.8958 39.3109 11.979 39.3109 12.0621C39.3109 12.1827 39.3109 12.3033 39.3109 12.428C39.3109 12.5528 39.3109 12.6817 39.2818 12.8106V12.8896C39.2818 12.9104 39.2818 12.927 39.2818 12.9561C39.2818 12.9852 39.2818 13.1391 39.2527 13.2347C39.2527 13.3677 39.2194 13.4966 39.207 13.6255L39.182 13.7919C39.182 13.7919 39.182 13.8168 39.182 13.8251C39.182 13.9582 39.1446 14.0871 39.1197 14.2118C39.1197 14.2118 39.1197 14.2451 39.1197 14.2576C39.1197 14.3407 39.0906 14.4239 39.0739 14.5029C39.1197 14.1619 39.5687 10.1412 37.3525 9.1765C37.1612 9.09296 36.96 9.03427 36.7538 9.00186C33.7392 8.52369 29.6852 10.0746 29.6852 10.0746C31.9596 8.61101 37.5978 8.4738 38.6498 8.8896C38.6808 8.89918 38.7102 8.91319 38.7371 8.93118V8.93118C39.1488 9.21392 39.3109 10.1578 39.3109 11.3387Z" fill="#9D1166"/>
</g>
<g style="mix-blend-mode:multiply" opacity="0.5">
<path d="M21.864 13.2472C21.731 13.0808 20.6166 11.717 19.1821 11.7877C17.6478 11.8626 13.1156 13.5174 12.2882 14.8563C12.2549 14.9145 12.2216 14.9727 12.1925 15.0309C11.6395 16.1744 12.2965 17.7045 12.4919 18.1162L12.5335 18.1993C11.8932 17.1182 11.5772 16.0538 11.7268 15.3178C11.7375 15.296 11.75 15.2751 11.7643 15.2555C11.8119 15.0476 11.9171 14.8574 12.0678 14.7066C13.3152 13.4592 18.3048 10.3116 20.9784 12.137C21.3258 12.4622 21.6242 12.8361 21.864 13.2472V13.2472Z" fill="#9D1166"/>
</g>
<defs>
<linearGradient id="paint0_linear_2_487" x1="22.2299" y1="45.2969" x2="12.388" y2="21.9623" gradientUnits="userSpaceOnUse">
<stop stop-color="#512EFF"/>
<stop offset="1" stop-color="#6B2ED8"/>
</linearGradient>
<linearGradient id="paint1_linear_2_487" x1="26.5334" y1="35.8832" x2="39.6061" y2="35.8832" gradientUnits="userSpaceOnUse">
<stop stop-color="#3D069A"/>
<stop offset="1" stop-color="#6509BA"/>
</linearGradient>
<linearGradient id="paint2_linear_2_487" x1="25.469" y1="43.9289" x2="15.6312" y2="20.5943" gradientUnits="userSpaceOnUse">
<stop stop-color="#512EFF"/>
<stop offset="1" stop-color="#6B2ED8"/>
</linearGradient>
<linearGradient id="paint3_linear_2_487" x1="27.997" y1="26.6317" x2="41.1404" y2="26.6317" gradientUnits="userSpaceOnUse">
<stop stop-color="#3D069A"/>
<stop offset="1" stop-color="#6509BA"/>
</linearGradient>
<linearGradient id="paint4_linear_2_487" x1="6.98259" y1="21.0184" x2="41.128" y2="21.0184" gradientUnits="userSpaceOnUse">
<stop offset="0.04" stop-color="#9190FF"/>
<stop offset="1" stop-color="#6B59FF"/>
</linearGradient>
<linearGradient id="paint5_linear_2_487" x1="15.2473" y1="17.4126" x2="16.6385" y2="6.55573" gradientUnits="userSpaceOnUse">
<stop stop-color="#FFAC15"/>
<stop offset="0.63" stop-color="#FF8100"/>
<stop offset="0.7" stop-color="#FFA400"/>
<stop offset="1" stop-color="#FFBA00"/>
</linearGradient>
<linearGradient id="paint6_linear_2_487" x1="19.6145" y1="44.3946" x2="19.6145" y2="20.0413" gradientUnits="userSpaceOnUse">
<stop stop-color="#DE0086"/>
<stop offset="1" stop-color="#FF003B"/>
</linearGradient>
<linearGradient id="paint7_linear_2_487" x1="32.101" y1="44.062" x2="32.101" y2="20.0122" gradientUnits="userSpaceOnUse">
<stop stop-color="#DE0086"/>
<stop offset="1" stop-color="#FF003B"/>
</linearGradient>
<linearGradient id="paint8_linear_2_487" x1="24.7781" y1="19.4978" x2="32.9956" y2="1.32014" gradientUnits="userSpaceOnUse">
<stop stop-color="#FFAC15"/>
<stop offset="0.63" stop-color="#FF8100"/>
<stop offset="0.7" stop-color="#FFA400"/>
<stop offset="1" stop-color="#FFBA00"/>
</linearGradient>
<linearGradient id="paint9_linear_2_487" x1="19.6436" y1="20.2409" x2="19.6436" y2="17.9665" gradientUnits="userSpaceOnUse">
<stop stop-color="#DE0086"/>
<stop offset="1" stop-color="#FF003B"/>
</linearGradient>
<linearGradient id="paint10_linear_2_487" x1="18.7455" y1="21.6879" x2="18.7455" y2="13.6339" gradientUnits="userSpaceOnUse">
<stop stop-color="#DE0057"/>
<stop offset="1" stop-color="#83003B"/>
</linearGradient>
<linearGradient id="paint11_linear_2_487" x1="30.5168" y1="20.3074" x2="30.5168" y2="18.1245" gradientUnits="userSpaceOnUse">
<stop stop-color="#DE0086"/>
<stop offset="1" stop-color="#FF003B"/>
</linearGradient>
<linearGradient id="paint12_linear_2_487" x1="18.6665" y1="22.2492" x2="18.6665" y2="11.5798" gradientUnits="userSpaceOnUse">
<stop stop-color="#DE0086"/>
<stop offset="1" stop-color="#FF003B"/>
</linearGradient>
<linearGradient id="paint13_linear_2_487" x1="33.785" y1="19.8999" x2="33.785" y2="9.16818" gradientUnits="userSpaceOnUse">
<stop stop-color="#DE0057"/>
<stop offset="1" stop-color="#83003B"/>
</linearGradient>
<linearGradient id="paint14_linear_2_487" x1="32.6207" y1="20.7107" x2="32.6207" y2="8.69001" gradientUnits="userSpaceOnUse">
<stop stop-color="#DE0086"/>
<stop offset="1" stop-color="#FF003B"/>
</linearGradient>
<linearGradient id="paint15_linear_2_487" x1="26.442" y1="21.4051" x2="26.442" y2="18.8313" gradientUnits="userSpaceOnUse">
<stop stop-color="#FF0086"/>
<stop offset="0.99" stop-color="#FF4A77"/>
</linearGradient>
</defs>
</svg>
