<svg width="88" height="88" viewBox="0 0 88 88" fill="none" xmlns="http://www.w3.org/2000/svg">
<path d="M80.9777 37.7158H78.9495L7.52615 42.5542L5.9884 43.8136L33.9454 52.7879C33.9454 52.7879 63.3074 52.0986 80.9777 37.7158Z" fill="#404C29"/>
<path d="M82.29 29.1391C69.8824 41.6926 39.2345 44.6354 32.9776 43.8135C23.5659 42.5675 14.5253 37.6628 9.05053 34.1632C7.12841 32.9304 5.67026 31.8964 4.83513 31.2866L4.29167 30.8757C4.19888 30.8757 4.11933 30.7431 4.02654 30.6768L4.82186 30.8094H4.91467C17.8393 32.5459 46.7109 21.0132 46.7109 21.0132C52.0133 23.5849 60.7622 25.5998 68.2651 26.9917C68.2625 27.0358 68.2625 27.0801 68.2651 27.1242C68.2167 27.3021 68.2167 27.4898 68.2651 27.6677C68.3119 27.8624 68.397 28.0459 68.5153 28.2075C68.6336 28.3691 68.7829 28.5055 68.9545 28.6089C69.4494 28.8489 70.0148 28.9007 70.5452 28.7547C71.2396 28.6124 71.9187 28.4037 72.5733 28.1317C72.8036 28.0464 73.0293 27.949 73.2494 27.84C78.459 28.6884 82.29 29.1391 82.29 29.1391Z" fill="url(#paint0_linear_733_37025)"/>
<path d="M82.3033 29.1391L81.1368 35.8599C81.1368 35.8599 61.2527 51.555 33.826 50.3752L32.9909 43.8135C32.9909 43.8135 69.2991 41.9577 82.3033 29.1391Z" fill="url(#paint1_linear_733_37025)"/>
<path d="M33.9454 52.7879C33.9454 52.7879 67.9205 46.1599 80.9777 37.7158L78.9627 57.5998C78.9627 57.5998 55.884 64.7581 34.6214 66.5079L33.9454 52.7879Z" fill="url(#paint2_linear_733_37025)"/>
<path d="M33.826 50.3753C20.7423 49.1159 5.49794 41.6131 5.49794 41.6131L5.02074 38.087L4 30.6503L4.26514 30.8492L4.8086 31.2866C6.1598 32.3077 7.56241 33.2589 9.01081 34.1367V34.1367C19.5096 40.473 32.9512 43.787 32.9512 43.787L33.826 50.3753Z" fill="url(#paint3_linear_733_37025)"/>
<path d="M33.9454 52.7879C33.9454 52.7879 15.0688 45.7358 5.9884 43.8136L8.94447 61.7357C8.94447 61.7357 27.7813 66.3621 34.6214 66.4417L33.9454 52.7879Z" fill="url(#paint4_linear_733_37025)"/>
<path d="M31.4267 55.7175L34.0779 56.6454C34.0779 56.6454 60.6959 51.2104 80.2883 43.9462C80.2883 43.9462 57.0638 53.5435 34.0116 55.3065L31.4267 55.7175Z" fill="#404C29"/>
<path d="M50.701 34.6139C42.7473 37.6495 32.3282 33.0099 37.0208 30.6371C45.3721 26.3289 58.8799 31.4987 50.701 34.6139Z" fill="url(#paint5_linear_733_37025)"/>
<path d="M71.4466 32.8906C64.8981 31.7241 68.6231 29.5898 70.4922 28.7414C69.9618 28.8875 69.3964 28.8356 68.9015 28.5956C68.7299 28.4923 68.5806 28.3558 68.4623 28.1942C68.3439 28.0327 68.2589 27.8492 68.2121 27.6545L50.754 23.6777C48.5208 24.3349 46.2228 24.7483 43.9006 24.9105C42.6715 25.0062 41.4357 24.9662 40.2154 24.7912C36.2386 26.3289 15.9304 31.4192 15.9304 31.4192C22.3463 33.9378 13.9686 35.396 13.9686 35.396L26.8534 40.884C37.9354 38.763 39.5792 41.8119 39.5792 41.8119C54.3861 42.4217 72.3347 32.9701 72.3347 32.9701L71.4466 32.8906ZM53.1268 35.5418C42.0713 39.7174 27.5692 33.3148 34.0646 29.961C37.3938 28.3462 41.0637 27.5595 44.7622 27.6677C53.1135 27.7738 60.0332 31.6445 54.9694 34.6802C54.3671 35.0049 53.7372 35.2755 53.087 35.4888L53.1268 35.5418Z" fill="#D8EC38"/>
<path d="M50.701 34.6139C42.7473 37.6495 32.3282 33.0099 37.0208 30.6371C45.3721 26.3289 58.8799 31.4987 50.701 34.6139Z" fill="url(#paint6_linear_733_37025)"/>
<path d="M50.701 34.6139C42.7473 37.6495 32.3282 33.0099 37.0208 30.6371C45.3721 26.3289 58.8799 31.4987 50.701 34.6139Z" fill="#D8EC38"/>
<path d="M34.1309 56.6454C34.1309 56.6454 69.7498 50.6006 84 43.9726L80.4474 42.9254L80.3414 43.9726C80.3414 43.9726 68.3049 49.9776 34.1309 56.6454Z" fill="url(#paint7_linear_733_37025)"/>
<g style="mix-blend-mode:multiply" opacity="0.3">
<path d="M35.271 63.9362C34.0514 63.7373 38.2403 55.9826 52.053 52.0058C66.396 47.8169 78.5651 45.5766 78.5651 45.5766C78.5651 45.5766 79.2146 51.5551 72.3214 56.7779C65.6802 61.7357 43.1185 65.1822 35.271 63.9362Z" fill="#91A674"/>
</g>
<g style="mix-blend-mode:multiply" opacity="0.3">
<path d="M9.3952 58.4217C10.575 60.768 31.6256 66.2957 33.1235 66.3753C34.6214 66.4548 33.7067 58.6205 33.7465 57.2286C33.7863 55.8367 10.0315 51.8599 9.22287 51.555C8.41425 51.2502 32.3149 55.3065 33.1765 54.9221C34.0381 54.5377 23.1947 49.6197 16.3546 47.4987C9.51451 45.3777 6.38606 44.7149 6.38606 44.7149C6.38606 44.7149 7.91053 55.4523 9.3952 58.4217Z" fill="#8E909F"/>
</g>
<g style="mix-blend-mode:multiply" opacity="0.5">
<path d="M6.39934 35.6214C6.83679 32.5858 30.3264 43.3629 32.0762 44.2776C33.4018 44.9801 33.9188 50.1102 31.9702 49.9909C30.0215 49.8716 9.48799 47.6578 6.39934 35.6214Z" fill="#8E909F"/>
</g>
<g style="mix-blend-mode:multiply" opacity="0.3">
<path d="M38.6512 54.8558C38.1078 53.5965 71.9106 43.2568 77.0009 40.5923C82.0912 37.9279 79.0025 43.9726 79.0025 43.9726C66.0479 49.2373 52.4962 52.8923 38.6512 54.8558V54.8558Z" fill="#91A674"/>
</g>
<g style="mix-blend-mode:multiply" opacity="0.3">
<path d="M35.1251 43.6678C35.1251 43.6678 45.6106 49.0763 55.3803 46.8493C65.15 44.6222 75.2644 41.4275 77.5311 38.3521C79.2473 35.7337 80.586 32.8867 81.5079 29.8948C67.714 38.8956 51.5959 43.6817 35.1251 43.6678V43.6678Z" fill="#91A674"/>
</g>
<g style="mix-blend-mode:multiply" opacity="0.5">
<path d="M25.0505 48.7846C25.0505 48.7846 33.0041 52.0323 34.3297 52.324C35.6553 52.6156 46.2602 50.0572 46.2602 50.0572C39.1836 51.2151 31.9379 50.7804 25.0505 48.7846Z" fill="#780DAA"/>
</g>
<g style="mix-blend-mode:multiply" opacity="0.5">
<path d="M7.52612 42.5542C5.98842 43.8135 15.1615 46.3322 15.1615 46.3322L17.9055 46.6503L7.52612 42.5542Z" fill="#780DAA"/>
</g>
<g style="mix-blend-mode:multiply" opacity="0.5">
<path d="M4 30.7167L4.79533 30.8492V31.353L5.00747 38.1533L4 30.7167Z" fill="#8E909F"/>
</g>
<g style="mix-blend-mode:multiply" opacity="0.5">
<path d="M46.6844 21C46.6844 21 45.7697 22.6835 29.6769 27.8931C15.0953 32.6123 5.90885 30.995 4.88814 30.7962C17.826 32.5327 46.6844 21 46.6844 21Z" fill="#8E909F"/>
</g>
<g style="mix-blend-mode:multiply" opacity="0.5">
<path d="M79.0158 30.7167C76.5833 31.7791 74.0269 32.5317 71.4068 32.9569C65.9983 34.1607 60.4701 34.7433 54.9296 34.6935C52.9483 34.7627 50.9901 34.2513 49.2958 33.2221C47.4261 31.6894 45.8729 29.8074 44.7225 27.6811C44.278 26.8564 43.9861 25.9582 43.8608 25.0299C43.7423 24.5155 43.8262 23.9753 44.0952 23.5212C44.3642 23.0671 44.7977 22.7339 45.3058 22.5907C45.3058 22.5907 58.3098 24.9503 68.1856 27.1773C68.1371 27.3552 68.1371 27.5429 68.1856 27.7208C68.2324 27.9155 68.3174 28.099 68.4357 28.2606C68.5541 28.4222 68.7034 28.5586 68.8749 28.662C69.3699 28.902 69.9353 28.9538 70.4656 28.8078C71.1601 28.6655 71.8392 28.4568 72.4938 28.1848C76.749 29.2055 79.6786 30.1599 79.0158 30.7167Z" fill="#91A674"/>
</g>
<g style="mix-blend-mode:multiply" opacity="0.5">
<path d="M78.9627 57.5336C78.9627 57.5336 72.6529 58.7134 61.0538 61.4308C50.1309 64.0025 34.6214 66.4416 34.6214 66.4416C34.6214 66.4416 61.1732 63.353 78.9627 57.5336Z" fill="#780DAA"/>
</g>
<g style="mix-blend-mode:multiply" opacity="0.5">
<path d="M8.94447 61.7357L34.6214 66.5079C25.9768 65.4181 17.4033 63.8247 8.94447 61.7357V61.7357Z" fill="#780DAA"/>
</g>
<g style="mix-blend-mode:multiply" opacity="0.5">
<path d="M34.8335 56.6454C34.8335 56.6454 67.3637 51.0646 73.8327 50.5874C80.3016 50.1102 80.0763 46.6106 80.0763 46.6106L80.2751 45.4706C80.2751 45.4706 66.9661 50.6007 34.8335 56.6454Z" fill="#CB76F4"/>
</g>
<path d="M84 43.9727V44.7415C71.0349 49.2826 57.6907 52.6585 44.126 54.8294C44.126 54.8294 69.7763 49.4872 84 43.9727Z" fill="url(#paint8_linear_733_37025)"/>
<g style="mix-blend-mode:multiply" opacity="0.5">
<path d="M23.725 28.1229C23.725 28.1229 35.2179 38.4228 47.8509 41.5247C47.8509 41.5247 48.4739 50.7112 48.0497 64.3118C48.0497 64.3118 48.9246 44.9713 48.2088 40.5836C47.4929 36.1958 31.6786 28.229 23.725 28.1229Z" fill="#563F0B"/>
</g>
<path d="M12.3911 36.0191C12.3911 36.0191 25.7797 41.7059 32.0498 42.8857C38.3199 44.0655 47.8376 42.1301 47.8376 42.1301C47.8376 42.1301 37.4847 44.2643 32.9909 43.8004C28.4971 43.3364 12.3911 36.0191 12.3911 36.0191Z" fill="#C2E238"/>
<path d="M30.1144 55.5452C31.3894 56.075 32.7252 56.4446 34.0912 56.6454C35.1384 56.6454 43.1053 54.8028 43.1053 54.8028C43.1053 54.8028 34.4358 56.6056 30.1144 55.5452Z" fill="#A7B138"/>
<path d="M66.4226 48.7846C66.4226 48.7846 71.0887 47.6181 74.1243 47.0878C77.3488 46.2512 80.5006 45.1562 83.5493 43.8136L80.8186 43.005C80.4474 42.8989 80.3414 43.9461 80.3414 43.9461C80.3414 43.9461 70.8501 47.9495 66.4226 48.7846Z" fill="#C2D138"/>
<path d="M7.52615 42.5542L4.50374 43.8798C9.93903 44.9464 15.3079 46.3274 20.5833 48.0157L7.32728 43.2038L7.52615 42.5542Z" fill="#91A622"/>
<path d="M4.50374 43.9727L4.88813 45.2983C4.88813 45.2983 24.5336 48.7714 33.9454 52.8277C33.9454 52.7879 17.1765 45.8418 4.50374 43.9727Z" fill="url(#paint9_linear_733_37025)"/>
<g style="mix-blend-mode:multiply" opacity="0.5">
<path d="M7.35381 50.6007C7.35381 50.6007 19.5626 53.5701 25.5013 54.0473C31.44 54.5245 10.628 50.1235 7.35381 50.6007Z" fill="#8E909F"/>
</g>
<path d="M68.1856 27.111C68.4237 27.7384 68.8999 28.2463 69.5106 28.5244C70.1213 28.8024 70.8171 28.8281 71.4466 28.5957C71.4466 28.5957 67.8409 29.749 68.1856 27.111Z" fill="url(#paint10_linear_733_37025)"/>
<path d="M67.4698 37.4242C66.237 37.5302 68.9147 35.7009 71.0887 36.0986C69.9069 36.6046 68.6989 37.0471 67.4698 37.4242V37.4242Z" fill="#526800"/>
<path d="M9.46146 34.3621C9.46146 34.3621 14.6048 34.5609 12.3911 36.0323L9.46146 34.3621Z" fill="#526800"/>
<path d="M12.9478 33.1955C11.9403 33.9644 13.531 33.7788 13.9287 33.4474C14.3264 33.116 13.6503 32.6653 12.9478 33.1955Z" fill="#526800"/>
<path d="M72.6528 48.3737C72.6528 48.3737 72.8384 47.4192 74.3894 46.836C75.4014 46.505 76.4926 46.505 77.5046 46.836C75.9546 47.5405 74.3257 48.0567 72.6528 48.3737Z" fill="#526100"/>
<g style="mix-blend-mode:multiply" opacity="0.5">
<path d="M28.4175 43.3099C26.5617 43.1243 32.3944 48.6123 33.1102 49.0365C33.826 49.4607 33.4018 45.8815 32.4076 44.609C31.4134 43.3364 28.4175 43.3099 28.4175 43.3099Z" fill="#8E909F"/>
</g>
<g style="mix-blend-mode:multiply" opacity="0.5">
<path d="M23.4201 54.3123C20.8749 54.0207 28.7225 60.3836 30.5518 61.7357C32.3811 63.0878 33.773 58.5012 33.5874 57.5335C33.4018 56.5658 26.9594 54.71 23.4201 54.3123Z" fill="#8E909F"/>
</g>
<g style="mix-blend-mode:multiply" opacity="0.5">
<path d="M82.3033 29.1391C81.0148 30.4034 79.5924 31.5235 78.0614 32.4796C76.0464 33.5932 79.6918 32.652 80.4607 32.811C81.2295 32.9701 81.1368 35.8599 81.1368 35.8599C81.1368 35.8599 82.0514 31.3264 82.3033 29.1391Z" fill="#8E909F"/>
</g>
<g style="mix-blend-mode:color" opacity="0.24">
<path d="M80.9776 37.7158H78.9494L7.52611 42.5542L5.98837 43.8136L33.9453 52.7879C33.9453 52.7879 63.3074 52.0986 80.9776 37.7158Z" fill="#0E091E"/>
<path d="M82.29 29.1391C69.8823 41.6926 39.2344 44.6354 32.9776 43.8135C23.5658 42.5675 14.5252 37.6628 9.05051 34.1632C7.12839 32.9304 5.67024 31.8964 4.83511 31.2866L4.29165 30.8757C4.19886 30.8757 4.1193 30.7431 4.02651 30.6768L4.82184 30.8094H4.91464C17.8393 32.5459 46.7109 21.0132 46.7109 21.0132C52.0133 23.5849 60.7622 25.5998 68.2651 26.9917C68.2625 27.0358 68.2625 27.0801 68.2651 27.1242C68.2166 27.3021 68.2166 27.4898 68.2651 27.6677C68.3119 27.8624 68.3969 28.0459 68.5153 28.2075C68.6336 28.3691 68.7829 28.5055 68.9544 28.6089C69.4494 28.8489 70.0148 28.9007 70.5452 28.7547C71.2396 28.6124 71.9187 28.4037 72.5733 28.1317C72.8036 28.0464 73.0293 27.949 73.2494 27.84C78.459 28.6884 82.29 29.1391 82.29 29.1391Z" fill="#0E091E"/>
<path d="M82.3032 29.1391L81.1367 35.8599C81.1367 35.8599 61.2527 51.555 33.826 50.3752L32.9909 43.8135C32.9909 43.8135 69.2991 41.9577 82.3032 29.1391Z" fill="#0E091E"/>
<path d="M33.9453 52.7879C33.9453 52.7879 67.9205 46.1599 80.9776 37.7158L78.9627 57.5998C78.9627 57.5998 55.884 64.7581 34.6213 66.5079L33.9453 52.7879Z" fill="#0E091E"/>
<path d="M33.826 50.3752C20.7423 49.1159 5.49791 41.6131 5.49791 41.6131L5.02071 38.087L3.99997 30.6503L4.26511 30.8492L4.80857 31.2866C6.15977 32.3077 7.56238 33.2589 9.01078 34.1367C19.5095 40.473 32.9511 43.7871 32.9511 43.7871L33.826 50.3752Z" fill="#0E091E"/>
<path d="M33.9453 52.7879C33.9453 52.7879 15.0687 45.7357 5.98837 43.8136L8.94444 61.7357C8.94444 61.7357 27.7812 66.3621 34.6213 66.4417L33.9453 52.7879Z" fill="#0E091E"/>
<path d="M31.4267 55.7175L34.0779 56.6454C34.0779 56.6454 60.6959 51.2104 80.2883 43.9462C80.2883 43.9462 57.0638 53.5435 34.0116 55.3065L31.4267 55.7175Z" fill="#0E091E"/>
<path d="M50.7009 34.6139C42.7473 37.6495 32.3282 33.0099 37.0208 30.6371C45.3721 26.3289 58.8799 31.4987 50.7009 34.6139Z" fill="#0E091E"/>
<path d="M71.4466 32.8906C64.8981 31.7241 68.6231 29.5898 70.4922 28.7414C69.9618 28.8875 69.3964 28.8356 68.9014 28.5956C68.7299 28.4923 68.5806 28.3558 68.4623 28.1942C68.3439 28.0327 68.2589 27.8492 68.2121 27.6545L50.754 23.6777C48.5207 24.3349 46.2228 24.7483 43.9005 24.9105C42.6715 25.0062 41.4357 24.9662 40.2154 24.7912C36.2386 26.3289 15.9304 31.4192 15.9304 31.4192C22.3463 33.9378 13.9685 35.396 13.9685 35.396L26.8533 40.884C37.9353 38.763 39.5791 41.8119 39.5791 41.8119C54.3861 42.4217 72.3347 32.9701 72.3347 32.9701L71.4466 32.8906ZM53.1267 35.5418C42.0712 39.7174 27.5691 33.3148 34.0646 29.961C37.3937 28.3462 41.0637 27.5595 44.7622 27.6677C53.1135 27.7738 60.0331 31.6445 54.9694 34.6802C54.3671 35.0049 53.7372 35.2755 53.087 35.4888L53.1267 35.5418Z" fill="#0E091E"/>
<path d="M50.7009 34.6139C42.7473 37.6495 32.3282 33.0099 37.0208 30.6371C45.3721 26.3289 58.8799 31.4987 50.7009 34.6139Z" fill="#0E091E"/>
<path d="M50.7009 34.6139C42.7473 37.6495 32.3282 33.0099 37.0208 30.6371C45.3721 26.3289 58.8799 31.4987 50.7009 34.6139Z" fill="#0E091E"/>
<path d="M34.1309 56.6454C34.1309 56.6454 69.7498 50.6006 84 43.9726L80.4474 42.9254L80.3414 43.9726C80.3414 43.9726 68.3049 49.9776 34.1309 56.6454Z" fill="#0E091E"/>
<path d="M35.2709 63.9362C34.0514 63.7373 38.2402 55.9826 52.053 52.0058C66.396 47.8169 78.565 45.5766 78.565 45.5766C78.565 45.5766 79.2145 51.5551 72.3214 56.7779C65.6802 61.7357 43.1185 65.1822 35.2709 63.9362Z" fill="#0E091E"/>
<path d="M9.39517 58.4217C10.575 60.768 31.6255 66.2957 33.1235 66.3753C34.6214 66.4548 33.7067 58.6205 33.7465 57.2286C33.7862 55.8367 10.0315 51.8599 9.22284 51.5551C8.41422 51.2502 32.3148 55.3065 33.1765 54.9221C34.0381 54.5377 23.1947 49.6197 16.3546 47.4987C9.51448 45.3778 6.38603 44.7149 6.38603 44.7149C6.38603 44.7149 7.9105 55.4523 9.39517 58.4217Z" fill="#0E091E"/>
<path d="M6.3993 35.6214C6.83675 32.5858 30.3264 43.3629 32.0762 44.2776C33.4018 44.9801 33.9188 50.1102 31.9701 49.9909C30.0215 49.8716 9.48795 47.6579 6.3993 35.6214Z" fill="#0E091E"/>
<path d="M38.6512 54.8558C38.1077 53.5965 71.9105 43.2568 77.0008 40.5923C82.0912 37.9279 79.0025 43.9726 79.0025 43.9726C66.0479 49.2373 52.4962 52.8923 38.6512 54.8558Z" fill="#0E091E"/>
<path d="M35.1251 43.6678C35.1251 43.6678 45.6106 49.0763 55.3803 46.8493C65.15 44.6223 75.2643 41.4275 77.5311 38.3521C79.2472 35.7337 80.586 32.8867 81.5079 29.8948C67.7139 38.8957 51.5959 43.6818 35.1251 43.6678Z" fill="#0E091E"/>
<path d="M25.0505 48.7846C25.0505 48.7846 33.0041 52.0323 34.3297 52.324C35.6553 52.6156 46.2601 50.0572 46.2601 50.0572C39.1836 51.2151 31.9379 50.7804 25.0505 48.7846Z" fill="#0E091E"/>
<path d="M7.52611 42.5542C5.98842 43.8136 15.1615 46.3322 15.1615 46.3322L17.9055 46.6503L7.52611 42.5542Z" fill="#0E091E"/>
<path d="M3.99997 30.7167L4.7953 30.8492V31.353L5.00744 38.1533L3.99997 30.7167Z" fill="#0E091E"/>
<path d="M46.6843 21C46.6843 21 45.7697 22.6835 29.6769 27.8931C15.0952 32.6123 5.90882 30.995 4.8881 30.7962C17.826 32.5327 46.6843 21 46.6843 21Z" fill="#0E091E"/>
<path d="M79.0158 30.7167C76.5833 31.7791 74.0269 32.5318 71.4067 32.9569C65.9983 34.1607 60.4701 34.7433 54.9295 34.6935C52.9483 34.7627 50.9901 34.2513 49.2957 33.2221C47.4261 31.6894 45.8728 29.8074 44.7225 27.6811C44.278 26.8564 43.9861 25.9583 43.8608 25.0299C43.7423 24.5155 43.8262 23.9753 44.0952 23.5212C44.3642 23.0671 44.7977 22.7339 45.3057 22.5907C45.3057 22.5907 58.3098 24.9503 68.1855 27.1773C68.1371 27.3552 68.1371 27.5429 68.1855 27.7208C68.2323 27.9156 68.3174 28.099 68.4357 28.2606C68.554 28.4222 68.7034 28.5586 68.8749 28.662C69.3699 28.902 69.9352 28.9538 70.4656 28.8078C71.16 28.6655 71.8392 28.4568 72.4937 28.1848C76.7489 29.2055 79.6786 30.1599 79.0158 30.7167Z" fill="#0E091E"/>
<path d="M78.9627 57.5336C78.9627 57.5336 72.6528 58.7134 61.0538 61.4308C50.1308 64.0025 34.6213 66.4417 34.6213 66.4417C34.6213 66.4417 61.1731 63.353 78.9627 57.5336Z" fill="#0E091E"/>
<path d="M8.94444 61.7357L34.6213 66.5079C25.9768 65.4181 17.4033 63.8247 8.94444 61.7357Z" fill="#0E091E"/>
<path d="M34.8335 56.6454C34.8335 56.6454 67.3637 51.0646 73.8326 50.5874C80.3016 50.1102 80.0762 46.6106 80.0762 46.6106L80.275 45.4706C80.275 45.4706 66.966 50.6007 34.8335 56.6454Z" fill="#0E091E"/>
<path d="M84 43.9726L84 44.7415C71.0348 49.2826 57.6907 52.6585 44.1259 54.8294C44.1259 54.8294 69.7763 49.4871 84 43.9726Z" fill="#0E091E"/>
<path d="M23.7249 28.1229C23.7249 28.1229 35.2179 38.4228 47.8509 41.5247C47.8509 41.5247 48.4739 50.7112 48.0497 64.3118C48.0497 64.3118 48.9246 44.9713 48.2087 40.5836C47.4929 36.1958 31.6785 28.229 23.7249 28.1229Z" fill="#0E091E"/>
<path d="M12.391 36.0191C12.391 36.0191 25.7796 41.7059 32.0497 42.8857C38.3198 44.0655 47.8376 42.1301 47.8376 42.1301C47.8376 42.1301 37.4846 44.2643 32.9909 43.8004C28.4971 43.3364 12.391 36.0191 12.391 36.0191Z" fill="#0E091E"/>
<path d="M30.1143 55.5452C31.3893 56.075 32.7251 56.4446 34.0911 56.6454C35.1384 56.6454 43.1052 54.8028 43.1052 54.8028C43.1052 54.8028 34.4358 56.6056 30.1143 55.5452Z" fill="#0E091E"/>
<path d="M66.4226 48.7846C66.4226 48.7846 71.0887 47.6181 74.1243 47.0878C77.3488 46.2512 80.5006 45.1562 83.5493 43.8136L80.8186 43.005C80.4474 42.8989 80.3414 43.9461 80.3414 43.9461C80.3414 43.9461 70.8501 47.9495 66.4226 48.7846Z" fill="#0E091E"/>
<path d="M7.52611 42.5542L4.50371 43.8798C9.93901 44.9464 15.3079 46.3274 20.5833 48.0157L7.32725 43.2038L7.52611 42.5542Z" fill="#0E091E"/>
<path d="M4.50371 43.9727L4.88811 45.2983C4.88811 45.2983 24.5336 48.7714 33.9453 52.8277C33.9453 52.7879 17.1765 45.8418 4.50371 43.9727Z" fill="#0E091E"/>
<path d="M7.35377 50.6007C7.35377 50.6007 19.5626 53.5701 25.5013 54.0473C31.4399 54.5245 10.628 50.1235 7.35377 50.6007Z" fill="#0E091E"/>
<path d="M68.1856 27.111C68.4236 27.7384 68.8999 28.2463 69.5106 28.5244C70.1213 28.8024 70.8171 28.828 71.4466 28.5957C71.4466 28.5957 67.8409 29.7489 68.1856 27.111Z" fill="#0E091E"/>
<path d="M67.4698 37.4242C66.237 37.5302 68.9147 35.7009 71.0887 36.0986C69.9068 36.6046 68.6988 37.0471 67.4698 37.4242Z" fill="#0E091E"/>
<path d="M9.46143 34.3621C9.46143 34.3621 14.6048 34.5609 12.391 36.0323L9.46143 34.3621Z" fill="#0E091E"/>
<path d="M12.9477 33.1955C11.9403 33.9644 13.531 33.7788 13.9287 33.4474C14.3263 33.116 13.6503 32.6653 12.9477 33.1955Z" fill="#0E091E"/>
<path d="M72.6528 48.3737C72.6528 48.3737 72.8384 47.4192 74.3893 46.836C75.4014 46.505 76.4925 46.505 77.5046 46.836C75.9545 47.5405 74.3257 48.0567 72.6528 48.3737Z" fill="#0E091E"/>
<path d="M28.4175 43.3099C26.5617 43.1243 32.3944 48.6123 33.1102 49.0365C33.826 49.4607 33.4018 45.8815 32.4076 44.609C31.4134 43.3364 28.4175 43.3099 28.4175 43.3099Z" fill="#0E091E"/>
<path d="M23.42 54.3123C20.8749 54.0207 28.7224 60.3836 30.5518 61.7357C32.3811 63.0878 33.773 58.5012 33.5874 57.5335C33.4018 56.5658 26.9594 54.71 23.42 54.3123Z" fill="#0E091E"/>
<path d="M82.3032 29.1391C81.0148 30.4034 79.5924 31.5235 78.0613 32.4796C76.0464 33.5932 79.6918 32.652 80.4607 32.811C81.2295 32.9701 81.1367 35.8599 81.1367 35.8599C81.1367 35.8599 82.0514 31.3264 82.3032 29.1391Z" fill="#0E091E"/>
</g>
<path d="M43.7946 65.3679L49.5609 64.4664C49.5609 64.4664 48.6065 66.6935 46.9097 66.8393C46.3143 66.8377 45.7265 66.705 45.1881 66.4507C44.6498 66.1964 44.174 65.8267 43.7946 65.3679Z" fill="#E2B3F9"/>
<path d="M60.3115 63.6313C60.2865 63.811 60.2466 63.9884 60.1923 64.1615C60.1127 64.4532 59.7945 64.705 59.3173 64.9569C58.4668 65.341 57.5782 65.6343 56.6661 65.8318V65.8318C55.5526 66.0969 54.3066 66.309 53.0871 66.4814C52.2387 66.6139 51.4168 66.7199 50.6479 66.7995C48.8584 66.9983 47.4532 67.1176 47.1086 67.1442H47.0291C47.0291 67.1442 47.8509 66.7465 48.3547 62.9022C48.8584 59.058 49.309 42.594 48.4739 40.473C45.6371 33.3015 24.1889 27.5749 24.1889 27.5749C25.0992 27.1468 26.0331 26.7706 26.986 26.4482C29.4119 25.5851 31.9374 25.0328 34.5021 24.8044V24.8044H34.966C35.9016 24.7381 36.8407 24.7381 37.7763 24.8044C41.4763 25.4251 45.0955 26.4566 48.5667 27.8798C54.5982 30.0406 61.0141 32.8243 61.8227 35.0778C62.9097 38.7498 61.0671 59.5484 60.3115 63.6313Z" fill="url(#paint11_linear_733_37025)"/>
<path d="M52.9677 66.5079C52.1193 66.6404 51.2974 66.7465 50.5286 66.826C52.4905 66.4018 52.5436 39.9428 51.9338 37.6628C51.324 35.3828 33.0307 26.5278 26.8534 26.435L29.1069 26.0505C29.1069 26.0505 50.8335 33.7788 53.5377 37.0928C56.2419 40.4068 53.3256 66.0042 52.9677 66.5079Z" fill="url(#paint12_linear_733_37025)"/>
<path d="M59.3041 64.9702C58.4537 65.3543 57.565 65.6476 56.6529 65.8451H56.4938C58.4689 65.5269 58.5088 38.9619 57.899 36.6818C57.2892 34.4018 38.7573 25.1756 32.58 25.0828L34.4226 24.7779H34.807H34.8865C36.3712 25.3214 56.865 32.9569 59.4764 36.1516C62.0878 39.3463 59.8344 62.2924 59.3041 64.9702Z" fill="url(#paint13_linear_733_37025)"/>
<path d="M23.725 28.4897C23.725 28.4897 41.8061 31.0348 48.2088 40.9503C48.2088 40.9503 48.8318 60.5825 48.0497 64.6786C47.2676 68.7747 43.821 65.3679 43.821 65.3679L42.4954 65.6065C42.4954 65.6065 47.0953 68.8144 48.0232 66.3753C48.9512 63.9362 48.7523 44.0787 48.7125 40.8177C48.6727 37.5568 34.1309 28.662 24.0564 27.5617L23.725 28.4897Z" fill="#E2B3F9"/>
<path opacity="0.3" d="M23.725 28.4897C23.725 28.4897 41.8061 31.0348 48.2088 40.9503C48.2088 40.9503 48.8318 60.5825 48.0497 64.6786C47.2676 68.7747 43.821 65.3679 43.821 65.3679L42.4954 65.6065C42.4954 65.6065 47.0953 68.8144 48.0232 66.3753C48.9512 63.9362 48.7523 44.0787 48.7125 40.8177C48.6727 37.5568 34.1309 28.662 24.0564 27.5617L23.725 28.4897Z" fill="#8E909F"/>
<g style="mix-blend-mode:multiply" opacity="0.4">
<path d="M48.7125 40.8177C48.4872 37.1988 60.643 35.2236 61.6769 36.3636C62.7109 37.5037 61.5841 62.0936 59.8476 64.2013C58.416 65.9246 49.5476 66.8525 48.7125 66.4018C47.5858 65.7257 49.4018 51.9262 48.7125 40.8177Z" fill="#640B8E"/>
</g>
<g style="mix-blend-mode:multiply" opacity="0.1">
<path d="M49.0307 40.5129C48.063 42.9785 53.8029 43.4292 57.4615 40.6852C61.1202 37.9412 62.353 36.4168 60.6694 36.0721C58.9859 35.7274 50.237 37.6496 49.0307 40.5129Z" fill="#640B8E"/>
</g>
<g style="mix-blend-mode:multiply" opacity="0.2">
<path d="M46.6049 27.2568C39.6322 25.0828 34.9793 27.6014 34.8335 29.1391C34.6877 30.6768 43.8609 34.7332 46.1277 36.8541C48.3944 38.9751 59.6355 34.4548 59.7151 33.7787C59.7946 33.1027 52.7159 29.1524 46.6049 27.2568Z" fill="#CB76F4"/>
</g>
<g style="mix-blend-mode:multiply" opacity="0.8">
<path d="M60.2983 63.6446C60.2733 63.8243 60.2333 64.0017 60.179 64.1748C59.5692 66.15 48.063 67.0911 46.923 67.1707C50.6284 66.8155 54.3019 66.1819 57.9122 65.2751C58.8839 65.05 59.7356 64.4681 60.2983 63.6446V63.6446Z" fill="#640B8E"/>
</g>
<defs>
<linearGradient id="paint0_linear_733_37025" x1="4.00002" y1="32.4796" x2="82.29" y2="32.4796" gradientUnits="userSpaceOnUse">
<stop stop-color="#84A61D"/>
<stop offset="1" stop-color="#B5CE45"/>
</linearGradient>
<linearGradient id="paint1_linear_733_37025" x1="32.9909" y1="39.797" x2="82.3033" y2="39.797" gradientUnits="userSpaceOnUse">
<stop stop-color="#848D04"/>
<stop offset="1" stop-color="#829A45"/>
</linearGradient>
<linearGradient id="paint2_linear_733_37025" x1="33.9454" y1="52.0853" x2="80.9777" y2="52.0853" gradientUnits="userSpaceOnUse">
<stop stop-color="#848D04"/>
<stop offset="1" stop-color="#829A45"/>
</linearGradient>
<linearGradient id="paint3_linear_733_37025" x1="4" y1="40.5128" x2="33.826" y2="40.5128" gradientUnits="userSpaceOnUse">
<stop stop-color="#427038"/>
<stop offset="0.99" stop-color="#635C06"/>
</linearGradient>
<linearGradient id="paint4_linear_733_37025" x1="5.9884" y1="55.1343" x2="34.6214" y2="55.1343" gradientUnits="userSpaceOnUse">
<stop stop-color="#427038"/>
<stop offset="0.99" stop-color="#635C06"/>
</linearGradient>
<linearGradient id="paint5_linear_733_37025" x1="35.8543" y1="32.2941" x2="53.2329" y2="32.2941" gradientUnits="userSpaceOnUse">
<stop stop-color="#D8EC38"/>
<stop offset="0.99" stop-color="#FFF47C"/>
</linearGradient>
<linearGradient id="paint6_linear_733_37025" x1="35.8543" y1="32.2941" x2="53.2329" y2="32.2941" gradientUnits="userSpaceOnUse">
<stop stop-color="#84A61D"/>
<stop offset="1" stop-color="#B5CE45"/>
</linearGradient>
<linearGradient id="paint7_linear_733_37025" x1="34.1309" y1="49.7788" x2="84" y2="49.7788" gradientUnits="userSpaceOnUse">
<stop stop-color="#84A61D"/>
<stop offset="1" stop-color="#B5CE45"/>
</linearGradient>
<linearGradient id="paint8_linear_733_37025" x1="44.126" y1="49.3679" x2="84" y2="49.3679" gradientUnits="userSpaceOnUse">
<stop stop-color="#848D04"/>
<stop offset="1" stop-color="#829A45"/>
</linearGradient>
<linearGradient id="paint9_linear_733_37025" x1="4.50374" y1="48.3737" x2="33.9454" y2="48.3737" gradientUnits="userSpaceOnUse">
<stop stop-color="#427038"/>
<stop offset="0.99" stop-color="#635C06"/>
</linearGradient>
<linearGradient id="paint10_linear_733_37025" x1="68.1591" y1="27.9726" x2="71.3803" y2="27.9726" gradientUnits="userSpaceOnUse">
<stop stop-color="#427038"/>
<stop offset="0.99" stop-color="#635C06"/>
</linearGradient>
<linearGradient id="paint11_linear_733_37025" x1="43.0655" y1="67.1839" x2="43.0655" y2="24.7779" gradientUnits="userSpaceOnUse">
<stop stop-color="#F8E1F2"/>
<stop offset="1" stop-color="white"/>
</linearGradient>
<linearGradient id="paint12_linear_733_37025" x1="40.7589" y1="66.8128" x2="40.7589" y2="26.1036" gradientUnits="userSpaceOnUse">
<stop stop-color="#9210D0"/>
<stop offset="1" stop-color="#FF0D49"/>
</linearGradient>
<linearGradient id="paint13_linear_733_37025" x1="46.6048" y1="65.8583" x2="46.6048" y2="24.7779" gradientUnits="userSpaceOnUse">
<stop stop-color="#9210D0"/>
<stop offset="1" stop-color="#FF0D49"/>
</linearGradient>
</defs>
</svg>
