<svg xmlns="http://www.w3.org/2000/svg" fill="none" viewBox="0 0 105 104"><path fill="url(#a)" d="M66.538 97.127c24.923-7.753 38.842-34.242 31.089-59.165C89.874 13.039 63.385-.88 38.462 6.873 13.539 14.626-.38 41.115 7.373 66.038c7.753 24.923 34.242 38.842 59.165 31.089Z"/><path fill="url(#b)" d="M66.538 97.127c24.923-7.753 38.842-34.242 31.089-59.165C89.874 13.039 63.385-.88 38.462 6.873 13.539 14.626-.38 41.115 7.373 66.038c7.753 24.923 34.242 38.842 59.165 31.089Z"/><path fill="#fff" fill-rule="evenodd" d="M15.244 23.276a12.359 12.359 0 0 0 10.406-3.609c5.067-4.746 4.202-9.207 4.202-9.207a44.998 44.998 0 0 0-14.608 12.816Z" clip-rule="evenodd"/><path fill="#F0FFF4" fill-rule="evenodd" d="M89.607 75.801s.086-5.685 4.795-8.552a9.158 9.158 0 0 1-4.795 8.552Z" clip-rule="evenodd" style="mix-blend-mode:soft-light"/><path fill="url(#c)" fill-rule="evenodd" d="m18.26 60.019 5.24-13.335 19.353 11.963 37.361-37.942 6.5 9.504-42.069 58.037L18.26 60.02Z" clip-rule="evenodd"/><path fill="url(#d)" fill-rule="evenodd" d="M83.217 25.093 48.514 64.418l-5.66-5.771-11.667-7.205-5.66 16.338 19.118 20.466 42.07-58.037-3.498-5.116Z" clip-rule="evenodd"/><defs><radialGradient id="c" cx="0" cy="0" r="1" gradientTransform="matrix(36.18889 -.97808 .88099 32.5964 50.088 72.083)" gradientUnits="userSpaceOnUse"><stop stop-color="#0E091E"/><stop offset="1" stop-color="#038322"/></radialGradient><radialGradient id="d" cx="0" cy="0" r="1" gradientTransform="translate(56.114 70.684) scale(33.1834)" gradientUnits="userSpaceOnUse"><stop stop-color="#6EFF91"/><stop offset=".99" stop-color="#00A828"/></radialGradient><linearGradient id="a" x1="57.88" x2="46.611" y1="98.734" y2="5.231" gradientUnits="userSpaceOnUse"><stop stop-color="#DCFFE4"/><stop offset=".21" stop-color="#B4FFC6"/><stop offset="1" stop-color="#F0FFF4"/></linearGradient><linearGradient id="b" x1="57.88" x2="46.611" y1="98.734" y2="5.231" gradientUnits="userSpaceOnUse"><stop stop-color="#DCFFE4"/><stop offset=".21" stop-color="#B4FFC6"/><stop offset="1" stop-color="#F0FFF4"/></linearGradient></defs></svg>