<svg width="20" height="20" viewBox="0 0 20 20" fill="none" xmlns="http://www.w3.org/2000/svg">
<path d="M18.9999 9.99746C18.9999 13.0668 16.5118 15.5549 13.4425 15.5549C10.3732 15.5549 7.88501 13.0668 7.88501 9.99746C7.88501 6.92816 10.3732 4.44 13.4425 4.44C16.5118 4.44 18.9999 6.92816 18.9999 9.99746Z" fill="#F79F1A"/>
<path d="M12.1149 9.99746C12.1149 13.0668 9.62676 15.5549 6.55746 15.5549C3.48816 15.5549 1 13.0668 1 9.99746C1 6.92816 3.48816 4.44 6.55746 4.44C8.03139 4.44 9.44495 5.02552 10.4872 6.06774C11.5294 7.10997 12.1149 8.52353 12.1149 9.99746Z" fill="#EA001B"/>
<path d="M9.97845 5.59488C8.62811 6.65549 7.8396 8.27746 7.8396 9.99453C7.8396 11.7116 8.62811 13.3336 9.97845 14.3942C11.3288 13.3336 12.1173 11.7116 12.1173 9.99453C12.1173 8.27746 11.3288 6.65549 9.97845 5.59488Z" fill="#FF5F01"/>
</svg>
