<svg width="116" height="40" viewBox="0 0 116 40" fill="none" xmlns="http://www.w3.org/2000/svg">
<path d="M16.5489 36.2278C25.6886 36.2278 33.0978 28.8186 33.0978 19.6789C33.0978 10.5392 25.6886 3.13 16.5489 3.13C7.40922 3.13 0 10.5392 0 19.6789C0 28.8186 7.40922 36.2278 16.5489 36.2278Z" fill="white"/>
<path d="M28.8423 24.817L23.5467 19.5213L28.8423 14.2257C29.5043 13.5637 29.5043 12.5235 28.8423 11.8616L24.1456 7.16482C23.4836 6.50286 22.4434 6.50286 21.7815 7.16482L16.4858 12.4605L11.1902 7.16482C10.5282 6.50286 9.48798 6.50286 8.82602 7.16482L4.12928 11.8616C3.46732 12.5235 3.46732 13.5637 4.12928 14.2257L9.42493 19.5213L4.12928 24.817C3.46732 25.479 3.46732 26.5192 4.12928 27.1811L8.82602 31.8779C9.48798 32.5398 10.5282 32.5398 11.1902 31.8779L16.4858 26.5822L21.7815 31.8779C22.4434 32.5398 23.4836 32.5398 24.1456 31.8779L28.8423 27.1811C29.5043 26.5192 29.5043 25.479 28.8423 24.817Z" fill="#FF003A"/>
<path d="M108.12 3.13C103.77 3.13 100.239 6.66043 100.239 11.0104C100.239 15.3604 103.77 18.8909 108.12 18.8909C112.47 18.8909 116 15.3604 116 11.0104C116 6.66043 112.47 3.13 108.12 3.13ZM111.745 12.5865C111.934 12.7757 111.934 13.0909 111.745 13.28L110.358 14.667C110.169 14.8561 109.853 14.8561 109.664 14.667L108.12 13.1224L106.575 14.667C106.386 14.8561 106.071 14.8561 105.882 14.667L104.495 13.28C104.306 13.0909 104.306 12.7757 104.495 12.5865L106.039 11.042L104.495 9.49739C104.306 9.30826 104.306 8.99304 104.495 8.80391L105.882 7.41695C106.071 7.22782 106.386 7.22782 106.575 7.41695L108.12 8.96152L109.664 7.41695C109.853 7.22782 110.169 7.22782 110.358 7.41695L111.745 8.80391C111.934 8.99304 111.934 9.30826 111.745 9.49739L110.2 11.042L111.745 12.5865Z" fill="white"/>
<path d="M58.7563 22.6735H63.1694C63.3585 22.6735 63.5476 22.7996 63.6107 22.9887L68.5281 36.1333C68.6542 36.4485 68.402 36.7637 68.0868 36.7637H63.9889C63.7998 36.7637 63.6107 36.6376 63.5476 36.4485L63.1378 35.3137C63.0748 35.1246 62.8857 34.9985 62.6965 34.9985H59.2292C59.04 34.9985 58.8509 35.1246 58.7878 35.3137L58.3781 36.4485C58.315 36.6376 58.1259 36.7637 57.9368 36.7637H53.8705C53.5552 36.7637 53.3031 36.4485 53.4292 36.1333L58.315 22.9572C58.3781 22.7996 58.5672 22.6735 58.7563 22.6735ZM61.9085 31.7833C62.2237 31.7833 62.4444 31.468 62.3498 31.1843L60.9944 26.992H60.8998L59.5759 31.1843C59.4813 31.4996 59.702 31.7833 60.0172 31.7833H61.9085Z" fill="white"/>
<path d="M70.6086 22.6735H73.8553C74.0129 22.6735 74.139 22.7365 74.2336 22.8626L78.1107 28.0952C78.2999 28.3474 78.6781 28.3474 78.8673 28.0952L82.7444 22.8626C82.839 22.7365 82.9651 22.6735 83.1227 22.6735H86.3379C86.5901 22.6735 86.8107 22.8941 86.8107 23.1463V36.2909C86.8107 36.543 86.5901 36.7637 86.3379 36.7637H82.5238C82.2716 36.7637 82.051 36.543 82.051 36.2909V33.517L82.0825 30.617H82.0194L79.939 33.4539C79.8444 33.58 79.7183 33.643 79.5607 33.643H77.3542C77.1966 33.643 77.0705 33.58 76.976 33.4539L74.8955 30.5854L74.8325 30.617L74.864 33.517V36.2909C74.864 36.543 74.6434 36.7637 74.3912 36.7637H70.6086C70.3564 36.7637 70.1357 36.543 70.1357 36.2909V23.1463C70.1357 22.8626 70.3249 22.6735 70.6086 22.6735Z" fill="white"/>
<path d="M111.366 28.2528H106.859C106.859 28.2528 105.881 28.3158 105.881 27.4647C105.881 26.6137 106.859 26.6137 106.859 26.6137H115.527C115.779 26.6137 116 26.393 116 26.1408V23.1147C116 22.8626 115.779 22.6419 115.527 22.6419H106.575C104.274 22.6419 101.91 22.6419 101.91 27.3071C101.91 31.5311 104.179 31.1528 106.512 31.1528H111.02C111.02 31.1528 112.028 31.1528 112.028 31.9408C112.028 32.7289 111.051 32.7604 111.051 32.7604H99.7348C99.7348 32.7604 99.7348 32.7604 99.7032 32.7604H92.3587V31.6256C92.3587 31.3734 92.5793 31.1528 92.8315 31.1528H97.3706C97.6228 31.1528 97.8435 30.9321 97.8435 30.68V28.6626C97.8435 28.4104 97.6228 28.1897 97.3706 28.1897H92.3587V27.0865C92.3587 26.8343 92.5793 26.6137 92.8315 26.6137H99.7032C99.9554 26.6137 100.176 26.393 100.176 26.1408V23.1147C100.176 22.8626 99.9554 22.6419 99.7032 22.6419H88.8913C88.6391 22.6419 88.4185 22.8626 88.4185 23.1147V36.2593C88.4185 36.5115 88.6391 36.7322 88.8913 36.7322H98.8837H99.7348H111.335C113.73 36.7322 115.968 36.7322 115.968 32.0669C116 27.8745 113.604 28.2528 111.366 28.2528Z" fill="white"/>
<path d="M79.3089 18.5442L76.6611 14.1311C76.535 13.942 76.3459 13.8159 76.1252 13.8159H74.7067C74.36 13.8159 74.0763 14.0996 74.0763 14.4463V18.1974C74.0763 18.5442 73.7926 18.8279 73.4459 18.8279H69.8209C69.4741 18.8279 69.1904 18.5442 69.1904 18.1974V3.79199C69.1904 3.44525 69.4741 3.16155 69.8209 3.16155H78.8361C82.4611 3.16155 84.2893 5.8409 84.2893 8.48873C84.2893 10.317 83.4383 12.1452 81.7361 13.1224C81.7046 13.1539 81.673 13.217 81.7046 13.2485L84.3839 17.9137C84.6361 18.3235 84.3209 18.8594 83.8165 18.8594H79.8448C79.6241 18.8594 79.435 18.7648 79.3089 18.5442ZM74.0763 10.1279C74.0763 10.1594 74.1078 10.1909 74.1393 10.1909H77.7013C78.8991 10.1909 79.498 9.33981 79.498 8.48873C79.498 7.63764 78.8991 6.78655 77.7013 6.78655H74.7067C74.36 6.78655 74.0763 7.07025 74.0763 7.41699V10.1279Z" fill="white"/>
<path d="M97.8435 10.7898C97.812 10.7583 97.812 10.7583 97.812 10.7267C97.812 10.6952 97.812 10.6952 97.8435 10.6637C98.6001 9.87565 99.0414 8.61478 99.0414 7.35391C99.0414 4.42239 97.1501 3.13 95.2588 3.13H86.5903C86.149 3.13 85.8022 3.47674 85.8022 3.91804V18.1028C85.8022 18.5441 86.149 18.8909 86.5903 18.8909H95.2588C98.1272 18.8909 99.4196 16.5583 99.4196 14.4148C99.4196 12.9333 98.8207 11.6093 97.8435 10.7898ZM93.5566 9.74956H90.1522V7.1963C90.1522 6.94413 90.3729 6.72348 90.6251 6.72348H93.5566C94.6598 6.72348 95.1642 7.48 95.1642 8.23652C95.1642 8.99304 94.6598 9.74956 93.5566 9.74956ZM90.6251 12.5235H93.5566C94.6598 12.5235 95.1642 13.28 95.1642 14.0365C95.1642 14.7615 94.6598 15.5496 93.5566 15.5496H90.1522V12.9963C90.1522 12.7441 90.3729 12.5235 90.6251 12.5235Z" fill="white"/>
<path d="M52.0738 28.3159H46.9673C46.5575 28.3159 46.2423 28.6312 46.2423 29.0409V30.8062C46.2423 31.2159 46.5575 31.5312 46.9673 31.5312H48.6694C48.7325 31.5312 48.7955 31.5942 48.7955 31.6572V32.5714C48.7955 32.6029 48.764 32.6659 48.7325 32.6975C48.2597 32.9496 47.7238 33.0757 47.0303 33.0757H46.9357C45.4542 33.0757 44.6977 33.0442 44.0042 33.0127C42.5542 32.9181 41.4825 31.5627 41.4825 29.7975V29.7659C41.4825 28.2529 42.4281 26.992 43.8781 26.5822C44.2249 26.4877 49.8042 26.4562 51.9162 26.4877C52.2629 26.4877 52.5151 26.204 52.5151 25.8888C52.5151 24.9746 52.5151 23.3355 52.5151 23.3355C52.5151 22.9888 52.2314 22.7366 51.9162 22.7366C49.7727 22.7366 43.9727 22.7366 43.8466 22.7681C40.001 23.0518 37.2271 26.0148 37.2271 29.7659V29.7975C37.2271 33.9268 39.3075 36.48 42.9325 36.7637C43.0901 36.7637 44.2879 36.7952 46.1162 36.7952C46.8412 36.7952 47.4086 36.7952 47.5031 36.7952C47.5662 36.7952 47.6292 36.7952 47.7238 36.7952C49.6466 36.7952 52.6097 34.8724 52.8303 34.3051C52.8618 34.242 52.8303 29.104 52.8303 29.104C52.7988 28.6312 52.4836 28.3159 52.0738 28.3159Z" fill="white"/>
<path d="M50.1197 3.13H38.1099C37.7632 3.13 37.4795 3.41369 37.4795 3.76043V7.35391C37.4795 7.70065 37.7632 7.98434 38.1099 7.98434H41.0414C41.3882 7.98434 41.6719 8.26804 41.6719 8.61478V18.2604C41.6719 18.6072 41.9556 18.8909 42.3023 18.8909H45.8958C46.2425 18.8909 46.5262 18.6072 46.5262 18.2604V8.6463C46.5262 8.29956 46.8099 8.01587 47.1567 8.01587H50.0882C50.4349 8.01587 50.7186 7.73217 50.7186 7.38543V3.76043C50.7501 3.41369 50.4664 3.13 50.1197 3.13Z" fill="white"/>
<path d="M63.2642 3.16155C62.9175 3.16155 62.6338 3.44525 62.6338 3.79199V13.4376C62.6338 14.0996 62.3816 14.3518 61.6881 14.3518H58.2523C57.5588 14.3518 57.3066 14.0996 57.3066 13.4376V3.79199C57.3066 3.44525 57.0229 3.16155 56.6762 3.16155H52.9566C52.6099 3.16155 52.3262 3.44525 52.3262 3.79199V14.0681C52.3262 15.7387 52.736 16.9681 53.524 17.7246C54.312 18.5126 55.6044 18.8909 57.3066 18.8909H62.5707C64.2729 18.8909 65.5653 18.4811 66.3533 17.7246C67.1414 16.9366 67.5512 15.7072 67.5512 14.0681V3.79199C67.5512 3.44525 67.2675 3.16155 66.9207 3.16155H63.2642Z" fill="white"/>
</svg>
