<svg width="116" height="40" viewBox="0 0 116 40" fill="none" xmlns="http://www.w3.org/2000/svg">
<g clip-path="url(#clip0_192_7067)">
<path fill-rule="evenodd" clip-rule="evenodd" d="M32.6279 11.9287C32.6279 12.0261 32.6279 12.1235 32.7253 12.2209H33.0175H34.7707H36.0368C36.2316 12.2209 36.2316 12.2209 36.2316 12.0261V11.6365C36.1342 11.1495 36.0368 10.7599 35.9394 10.3703C35.5499 9.10418 34.9655 8.03281 34.0889 7.05884C33.0175 5.89007 31.654 5.20829 30.193 4.81871C29.1216 4.52651 27.9529 4.42912 26.7841 4.52651C25.9075 4.52651 25.1284 4.62391 24.2518 4.9161C22.4986 5.50049 21.1351 6.37706 20.0637 7.83802C19.2845 8.81199 18.7975 9.98075 18.5054 11.2469C18.5054 11.393 18.481 11.5148 18.4567 11.6365C18.4323 11.7583 18.408 11.88 18.408 12.0261C18.408 12.1235 18.408 12.1722 18.4323 12.1965C18.4567 12.2209 18.5054 12.2209 18.6028 12.2209H21.7195C21.8169 12.2209 21.8656 12.2209 21.8899 12.1965C21.9143 12.1722 21.9143 12.1235 21.9143 12.0261C22.0117 11.4417 22.2064 10.8573 22.4986 10.3703C23.1804 9.39637 24.057 8.71459 25.2258 8.4224C26.1023 8.13021 26.9789 8.13021 27.8555 8.13021C28.5373 8.13021 29.219 8.325 29.8034 8.5198C31.3618 9.20158 32.3357 10.2729 32.6279 11.9287ZM88.729 12.2209H90.1899H90.8717H91.7483C91.8944 12.2209 91.9674 12.2209 92.0039 12.1844C92.0405 12.1479 92.0405 12.0748 92.0405 11.9287C92.0405 11.8313 92.0161 11.7096 91.9918 11.5878C91.9674 11.4661 91.943 11.3443 91.943 11.247C91.6509 9.98079 91.2613 8.81202 90.5795 7.74066C89.7029 6.3771 88.6315 5.40312 87.0732 4.91614C86.0992 4.62395 85.2227 4.52655 84.2487 4.52655C82.6903 4.62395 81.3268 5.11093 80.158 5.98751C79.5736 6.3771 79.0866 6.96148 78.7944 7.44846L78.5023 7.74066C78.4536 7.78935 78.4292 7.8137 78.4049 7.8137C78.3805 7.8137 78.3562 7.78935 78.3075 7.74066C78.3075 7.64326 78.2101 7.54586 78.1127 7.44846C77.9503 7.28614 77.7988 7.11299 77.6473 6.93984C77.3443 6.59354 77.0413 6.24723 76.6517 5.98751C75.3855 5.01354 74.1194 4.52655 72.561 4.52655C71.8792 4.52655 71.2949 4.62395 70.7105 4.72134C68.7625 5.11093 67.2042 6.0849 66.1328 7.74066C65.3536 8.90942 64.8667 10.0782 64.6719 11.4417C64.5745 11.6365 64.5745 11.8313 64.5745 12.0261C64.5745 12.2209 64.5745 12.2209 64.7693 12.2209H65.0614H67.7886C68.002 12.2209 68.0985 12.2209 68.1421 12.1729C68.1782 12.1332 68.1782 12.0609 68.1782 11.9287L68.1782 11.9286C68.2756 11.4417 68.373 10.9547 68.5677 10.5652C69.0547 9.29901 70.0287 8.51983 71.2949 8.22764C71.7819 8.13024 72.3662 8.13024 72.8532 8.13024C74.022 8.13024 74.996 8.71463 75.6777 9.6886C76.0673 10.1756 76.2621 10.76 76.4569 11.4417C76.4569 11.5391 76.4813 11.6365 76.5056 11.7339C76.53 11.8313 76.5543 11.9287 76.5543 12.0261C76.5543 12.1235 76.6517 12.2209 76.7491 12.2209H76.9439H79.7684H79.9632C80.0606 12.2209 80.158 12.1235 80.158 12.0261V11.8313C80.2554 11.3444 80.3528 10.8574 80.5476 10.3704C81.0346 9.39641 81.7164 8.71463 82.7877 8.32504C83.4695 8.13024 84.2487 8.03285 85.0279 8.13024C86.3914 8.32504 87.3654 9.00682 87.9498 10.273C88.242 10.76 88.3394 11.3444 88.4368 11.9287C88.4368 12.2209 88.4368 12.2209 88.729 12.2209ZM27.6607 30.0446C27.1737 30.0446 26.7841 30.2394 26.4919 30.629C26.1997 31.0186 26.1023 31.5056 26.1023 32.1874C26.1023 33.5509 26.5893 34.3301 27.6607 34.3301C28.1477 34.3301 28.6347 34.2327 29.3164 34.0379V35.2067C28.8294 35.4015 28.2451 35.4989 27.5633 35.4989C26.6867 35.4989 25.9075 35.2067 25.4205 34.6223C24.9336 34.0379 24.7388 33.2587 24.7388 32.1874C24.7388 31.5056 24.8362 30.9212 25.1284 30.4342C25.3232 29.9472 25.7127 29.5576 26.1997 29.2654C26.6867 28.9733 27.1737 28.8759 27.7581 28.8759C28.3425 28.8759 29.0242 29.0706 29.6086 29.3628L29.219 30.4342C29.1216 30.3855 28.9999 30.3368 28.8781 30.2881C28.7564 30.2394 28.6347 30.1907 28.5373 30.142C28.3285 30.142 28.1756 30.114 28.0338 30.0881L28.0338 30.0881C27.9109 30.0656 27.7963 30.0446 27.6607 30.0446ZM46.166 35.304V28.9732H47.4322V35.304H46.166ZM65.6457 35.304H66.9119V30.142H68.665V29.0706H63.8926V30.142H65.6457V35.304ZM87.1702 31.6029L88.5338 28.9732H89.9947L87.852 32.8691V35.304H86.4884V32.8691L84.3457 28.9732H85.8067L87.1702 31.6029ZM20.0638 13.1949H21.6221C21.8169 13.1949 21.8169 13.1949 21.8169 13.3897V14.2663C21.8169 14.948 21.9143 15.5324 22.2065 16.1168C22.5961 17.1882 23.2779 18.0647 24.3492 18.5517C24.9336 18.9413 25.6154 19.1361 26.2972 19.1361C27.1738 19.2335 27.9529 19.2335 28.8295 19.0387C30.7775 18.5517 31.9462 17.383 32.5306 15.5324C32.5446 15.4764 32.5586 15.4224 32.5723 15.3696L32.5727 15.368L32.5729 15.3672C32.6544 15.0534 32.7254 14.7796 32.7254 14.3637V13.3897C32.7254 13.2923 32.7254 13.1949 32.9202 13.1949H36.1343C36.2317 13.1949 36.3291 13.1949 36.3291 13.3897C36.3291 14.461 36.3291 15.5324 36.0369 16.5064C35.7447 17.6752 35.2577 18.7465 34.4785 19.7205C33.5046 20.9867 32.2384 21.8632 30.7775 22.3502C29.8035 22.6424 28.8295 22.8372 27.7581 22.8372C26.6868 22.8372 25.6154 22.7398 24.544 22.545C21.9143 21.8632 20.1612 20.3049 19.0898 17.8699C18.7002 16.9934 18.408 16.0194 18.3106 15.0454C18.2463 14.6596 18.2669 14.3162 18.2884 13.9592C18.2994 13.7755 18.3106 13.5882 18.3106 13.3897C18.3106 13.2923 18.408 13.1949 18.5054 13.1949H19.2846H20.0638ZM3.89589 4.62396H6.8178C7.49958 4.62396 8.08396 4.72136 8.76574 4.91615C9.93451 5.20835 11.0059 5.69533 11.9798 6.47451C13.3434 7.54588 14.1226 8.90944 14.5122 10.6626C14.6096 11.0522 14.6096 11.4418 14.6096 11.8314V12.1235C14.6096 12.2167 14.6096 12.2653 14.5883 12.3013C14.565 12.3406 14.5164 12.3649 14.4148 12.4157H14.3174H11.4929H11.2981C11.2007 12.4157 11.1033 12.3183 11.1033 12.2209V12.2209C11.1033 11.9287 11.1033 11.6366 11.0059 11.4418C10.9085 10.8574 10.7137 10.273 10.3241 9.78601C9.73971 9.00683 8.96054 8.61725 7.98657 8.42245C7.69437 8.32505 7.30479 8.32505 7.01259 8.32505H3.99328H3.79849C3.70109 8.13026 3.60369 8.22766 3.60369 8.32505V8.61725V11.9287C3.60369 12.1235 3.60369 12.2209 3.555 12.2696C3.5063 12.3183 3.4089 12.3183 3.21411 12.3183H3.21411H0.389589H0.0973971C0.0486986 12.3183 0.0243493 12.3183 0.0121747 12.3062C0 12.294 0 12.2696 0 12.2209V11.9287V5.11095C0 4.86949 0 4.7717 0.047486 4.73446C0.0798114 4.70912 0.134142 4.71183 0.225456 4.7164C0.270548 4.71865 0.324657 4.72136 0.389589 4.72136C1.55835 4.62396 2.72712 4.62396 3.89588 4.62396H3.89589ZM40.8095 22.8372H45.7767H45.7768C47.4325 22.8372 49.1857 22.8372 50.9388 22.6424H51.3284C51.3284 22.6424 51.4258 22.6424 51.4258 22.545V22.2528V19.6231C51.4258 19.3796 51.4258 19.2579 51.3649 19.197C51.304 19.1361 51.1823 19.1361 50.9388 19.1361H44.3158C44.0252 19.1361 43.9032 19.1361 43.854 19.0763C43.8183 19.0329 43.8208 18.9582 43.8251 18.8294C43.8268 18.7783 43.8288 18.7187 43.8288 18.6491V13.6819V13.2923C43.8288 13.2436 43.8288 13.2192 43.8166 13.2071C43.8045 13.1949 43.7801 13.1949 43.7314 13.1949H43.4392H40.8095C40.566 13.1949 40.4443 13.1949 40.3834 13.2558C40.3225 13.3166 40.3225 13.4384 40.3225 13.6819V22.4476V22.7398C40.3225 22.7885 40.3225 22.8129 40.3347 22.825C40.3469 22.8372 40.3712 22.8372 40.4199 22.8372H40.8095ZM110.059 4.52655H115.513H115.903C115.951 4.52655 115.976 4.52655 115.988 4.53872C116 4.55089 116 4.57522 116 4.62386V4.62395V4.91614V7.74066V8.03285C116 8.13024 115.903 8.13024 115.903 8.13024H115.61H112.299C111.909 8.13024 111.909 8.13024 111.909 8.51983V11.7339V12.0261C111.909 12.1235 111.909 12.1722 111.885 12.1966C111.861 12.2209 111.812 12.2209 111.715 12.2209H109.669H108.5C108.403 12.2209 108.306 12.2209 108.306 12.1235V11.7339V8.71463V8.42244C108.306 8.13024 108.306 8.13024 108.013 8.13024H104.605C104.518 8.13024 104.444 8.13182 104.38 8.13317C104.195 8.13712 104.102 8.13909 104.057 8.09372C104.011 8.04835 104.013 7.95564 104.017 7.77021C104.019 7.70685 104.02 7.63267 104.02 7.54586V5.01354V4.72134C104.02 4.62395 104.118 4.62395 104.118 4.62395H104.507C106.358 4.52655 108.208 4.52655 110.059 4.52655ZM96.3257 13.5845V18.0647V22.3502V22.6424C96.3257 22.8372 96.3257 22.8372 96.5205 22.8372H96.6179H99.5398C99.832 22.8372 99.832 22.8372 99.832 22.545V13.6819V13.3897C99.832 13.2923 99.832 13.1949 99.7346 13.1949H99.5398H96.7153C96.3257 13.1949 96.3257 13.1949 96.3257 13.5845ZM88.4368 17.9673V13.5845C88.4368 13.1949 88.4368 13.1949 88.8264 13.1949H91.6509H91.9431C92.0405 13.1949 92.0405 13.1949 92.0405 13.2923V13.6819V20.6945V22.4476V22.6424C92.0405 22.7398 92.0405 22.8372 91.8457 22.8372H91.6509H88.8264H88.5342C88.4855 22.8372 88.4611 22.8372 88.4489 22.825C88.4368 22.8129 88.4368 22.7885 88.4368 22.7398V22.3502V17.9673ZM80.0605 22.4476V18.0647V13.6819V13.2923C80.0605 13.2436 80.0605 13.2192 80.0483 13.2071C80.0361 13.1949 80.0118 13.1949 79.9631 13.1949H79.6709H76.8464C76.4568 13.1949 76.4568 13.1949 76.4568 13.5845V22.4476V22.7398C76.4568 22.7885 76.4568 22.8129 76.469 22.825C76.4811 22.8372 76.5055 22.8372 76.5542 22.8372H76.8464H79.6709C80.0605 22.8372 80.0605 22.8372 80.0605 22.4476ZM56.0032 18.0648V13.7793V13.5845C56.0032 13.4384 56.0032 13.3653 56.0397 13.3288C56.0762 13.2923 56.1493 13.2923 56.2954 13.2923H59.2173H59.4121C59.5095 13.2923 59.5095 13.3897 59.5095 13.4871V13.6819V22.545V22.6424C59.5095 22.8372 59.5095 22.8372 59.3147 22.8372H56.198C56.1006 22.8372 56.0519 22.8372 56.0275 22.8129C56.0032 22.7885 56.0032 22.7398 56.0032 22.6424V22.3502V18.0648ZM3.3115 22.7398C3.4089 22.7398 3.5063 22.7398 3.60369 22.6424C3.60369 22.545 3.60369 22.4476 3.5063 22.1554V13.5845V13.2923C3.5063 13.1949 3.5063 13.1949 3.4089 13.1949H3.11671H0.389589H0.194794C0 13.1949 0 13.1949 0 13.3897V13.7793V22.2528V22.545C0 22.7398 0.0973971 22.7398 0.194794 22.7398H0.389589H3.3115ZM14.6096 18.0647V22.2528V22.545C14.6096 22.6424 14.6096 22.6911 14.5852 22.7155C14.5609 22.7398 14.5122 22.7398 14.4148 22.7398H11.2981H11.2007C11.1033 22.7398 11.1033 22.6424 11.1033 22.6424V22.3502V13.6819V13.5845C11.1033 13.1949 11.1033 13.1949 11.4929 13.1949H14.3174H14.5122C14.707 13.1949 14.707 13.1949 14.707 13.3897V13.7793C14.6096 15.3376 14.6096 16.7012 14.6096 18.0647V18.0647ZM64.5745 13.7793V18.0648V22.4476V22.7398C64.5745 22.9346 64.5745 22.9346 64.7693 22.9346H64.8667H67.7886H67.9834C68.0321 22.9346 68.0564 22.9346 68.0686 22.9224C68.0808 22.9103 68.0808 22.8859 68.0808 22.8372V22.545V13.7793V13.4871C68.0808 13.2923 67.9834 13.2923 67.886 13.2923H67.6912H64.8667H64.6719C64.6232 13.2923 64.5988 13.2923 64.5866 13.3045C64.5745 13.3166 64.5745 13.341 64.5745 13.3897V13.7793ZM111.909 18.0647V22.4476C111.909 22.6424 111.909 22.7398 111.861 22.7885C111.812 22.8372 111.715 22.8372 111.52 22.8372H108.695H108.403C108.306 22.8372 108.306 22.7398 108.306 22.7398V22.4476V13.7793C108.306 13.6937 108.304 13.6227 108.302 13.5639C108.298 13.422 108.296 13.3511 108.33 13.3166C108.364 13.2822 108.435 13.2843 108.577 13.2885C108.636 13.2902 108.707 13.2923 108.793 13.2923H111.422H111.715C111.812 13.2923 111.812 13.3897 111.812 13.3897V13.7793C111.909 15.1428 111.909 16.6038 111.909 18.0647ZM99.9294 11.7339V8.42244C99.9294 7.25367 99.9294 6.1823 99.832 5.01354V4.72134C99.832 4.52655 99.832 4.52655 99.6372 4.52655H96.5205C96.3257 4.52655 96.3257 4.52655 96.3257 4.72134V5.01354V11.7339V12.0261C96.3257 12.2209 96.3257 12.2209 96.5205 12.2209H99.6372C99.9294 12.2209 99.9294 12.2209 99.9294 12.0261V11.7339ZM56.0032 8.42244V4.91614C56.0032 4.52655 56.0032 4.52655 56.3928 4.52655H59.2173H59.5095C59.5582 4.52655 59.5825 4.52655 59.5947 4.53872C59.6069 4.5509 59.6069 4.57525 59.6069 4.62395V4.91614V11.8313C59.6069 12.0261 59.6069 12.1235 59.5582 12.1722C59.5095 12.2209 59.4121 12.2209 59.2173 12.2209H56.3928H56.1006C56.0032 12.2209 56.0032 12.1235 56.0032 12.1235V11.8313V8.42244ZM43.8288 11.9287V8.42241C43.8288 7.25364 43.8288 6.18227 43.9262 5.2083V4.91611C43.9262 4.81871 43.9262 4.72131 43.8288 4.72131H43.5366H40.8095C40.566 4.72131 40.4443 4.72131 40.3834 4.78219C40.3225 4.84306 40.3225 4.96481 40.3225 5.2083V11.9287V12.2209C40.3225 12.2209 40.3225 12.3183 40.4199 12.3183H40.6147H43.4392C43.634 12.3183 43.7314 12.3183 43.7801 12.2696C43.8288 12.2209 43.8288 12.1235 43.8288 11.9287Z" fill="white"/>
</g>
<defs>
<clipPath id="clip0_192_7067">
<rect width="116" height="40" fill="white"/>
</clipPath>
</defs>
</svg>
