<svg width="116" height="40" viewBox="0 0 116 40" fill="none" xmlns="http://www.w3.org/2000/svg">
<path d="M33.1429 8.02928C33.1429 8.02928 28.0642 0.5 16.5714 0.5C7.08282 0.5 0 5.74437 0 8.97092C0 12.601 7.08282 14.4834 7.08282 19.9958H19.3788C19.3788 16.7692 8.68733 15.0214 8.68733 8.02928C8.68733 1.57617 25.2588 2.11328 33.1438 8.02928H33.1429Z" fill="#00ADEE"/>
<path d="M33.1429 31.9623C33.1429 31.9623 28.0642 39.4916 16.5714 39.4916C7.08282 39.4916 0 34.2472 0 31.0207C0 27.3905 7.08282 25.3737 7.08282 19.9958H19.3788C19.3788 23.2223 8.68733 24.9711 8.68733 31.9623C8.68733 38.4154 25.2588 37.8783 33.1438 31.9623H33.1429Z" fill="#FAA41B"/>
<path d="M0.133546 7.89477C0 8.29834 0 8.7019 0 8.97094C0 12.6011 7.08282 14.4834 7.08282 19.9958C7.08282 25.5083 0 27.5251 0 31.0207C0 31.2897 0 31.6933 0.133546 31.9623C-0.802252 28.4667 11.6263 25.5092 17.3737 22.4162C18.5756 21.6091 19.3778 20.8029 19.3778 19.8613C19.3778 18.9206 18.5756 18.1135 17.3737 17.3073C11.6263 14.3479 -0.802252 11.3894 0.133546 7.8938V7.89477Z" fill="#DA1A23"/>
<path d="M32.6681 21.7504H34.2561C34.0572 22.5302 33.6605 23.1151 32.867 23.505C32.2724 23.8949 31.4779 24.2848 30.2877 24.2848C29.0975 24.2848 28.1042 23.8949 27.5096 23.1151C26.7161 22.5302 26.3193 21.5554 26.3193 20.1907C26.3193 19.021 26.7161 18.0462 27.5096 17.2664C28.1042 16.6815 29.0975 16.2916 30.2877 16.2916C31.6768 16.2916 32.6681 16.6815 33.4616 17.2664C34.0572 18.0462 34.454 19.021 34.454 20.1907V20.7756H28.7007C28.7007 21.3605 28.8986 21.7504 29.2954 22.1403C29.4942 22.3353 29.89 22.5302 30.4856 22.5302C30.8823 22.5302 31.0812 22.5302 31.4779 22.3353H31.6768C31.6768 22.1403 31.6768 22.1403 31.8747 22.1403C31.8747 21.9454 31.8747 21.9454 32.0735 21.9454C32.2714 21.7504 32.4703 21.7504 32.6681 21.7504ZM28.7007 19.4109H32.0735C32.0735 19.021 31.8747 18.6311 31.6768 18.4361C31.28 18.0462 30.8823 18.0462 30.4856 18.0462C29.891 18.0462 29.4942 18.0462 29.2963 18.4361C28.8986 18.6311 28.7007 19.021 28.7007 19.4109ZM44.1765 24.0899H42.9853C42.7874 24.0899 42.3907 23.8949 42.1918 23.7C41.994 23.7 41.994 23.3101 41.994 23.1151V19.2159C41.994 18.826 41.7951 18.4361 41.3984 18.2412C41.2005 18.0462 40.8037 17.8512 40.406 17.8512C40.0093 17.8512 39.6125 18.0462 39.4147 18.2412C39.0179 18.4361 39.0179 18.826 39.0179 19.2159V24.0899H36.6365V19.6059C36.6365 18.2412 37.0333 17.4613 37.8267 17.0714C38.6212 16.4865 39.4147 16.2916 40.406 16.2916C41.3984 16.2916 42.1918 16.4865 42.9853 16.8764C43.7788 17.4613 44.1765 18.2412 44.1765 19.6059V24.0899ZM52.1123 14.147H53.3025C53.7002 14.147 53.8981 14.342 54.0969 14.5369C54.2948 14.7319 54.4937 14.9269 54.4937 15.1218V20.7756C54.4937 22.1403 53.8981 23.1151 53.1046 23.505C52.1123 23.8949 51.3188 24.2848 50.1286 24.2848C49.534 24.2848 49.1362 24.0899 48.5416 23.8949C47.946 23.8949 47.5493 23.505 47.1525 23.1151C46.5579 22.5302 46.3581 21.5554 46.3581 20.3857C46.3581 19.021 46.557 18.0462 47.1525 17.4613C47.946 16.6815 48.7395 16.2916 49.7318 16.2916C50.3265 16.2916 50.7232 16.4865 51.1209 16.6815C51.5177 16.8764 51.9144 17.0714 52.1123 17.4613V14.147ZM48.5416 20.1907C48.5416 20.9706 48.7395 21.5554 48.9384 21.9454C49.3351 22.3353 49.7318 22.5302 50.3265 22.5302C50.9211 22.5302 51.5177 22.3353 51.7155 21.9454C52.1123 21.5554 52.1123 20.9706 52.1123 20.1907C52.1123 19.6059 52.1123 19.021 51.7155 18.6311C51.3188 18.2412 50.9221 18.0462 50.3265 18.0462C49.7318 18.0462 49.3351 18.2412 48.9374 18.6311C48.7395 19.021 48.5406 19.6059 48.5406 20.1907H48.5416ZM57.8665 23.3101C57.2718 23.1151 57.073 22.5302 56.8741 21.9454C56.6762 21.3605 56.4774 20.7756 56.4774 20.1907C56.4774 19.6059 56.6762 19.2159 56.6762 18.6311C56.8741 18.0462 57.073 17.6563 57.4697 17.2664C58.0643 16.8764 58.8578 16.4865 59.6523 16.2916C60.6436 16.2916 61.4371 16.2916 62.0327 16.4865C63.0251 16.8764 63.6206 17.2664 64.0174 18.0462C64.4141 18.6311 64.4141 19.4109 64.4141 20.1907C64.4141 20.7756 64.4141 21.3605 64.2153 21.7504C64.2153 22.1403 64.0174 22.5302 63.6206 22.9201C63.2229 23.505 62.4295 23.8949 61.636 24.0899C61.0414 24.2848 60.2469 24.2848 59.4534 24.0899C58.8588 23.8949 58.2632 23.7 57.8665 23.3101ZM59.2555 18.4361C58.8588 18.826 58.6599 19.4109 58.6599 20.3857C58.8578 21.1655 58.8578 21.7504 59.2546 22.1403C59.4534 22.3353 59.6523 22.3353 60.049 22.5302H61.0414C61.2392 22.5302 61.636 22.3353 61.8348 21.9454C62.0327 21.5554 62.2316 20.9706 62.2316 20.1907C62.2316 19.6059 62.2316 19.021 61.8348 18.6311C61.636 18.4361 61.4381 18.0462 61.0414 18.0462C60.6436 17.8512 60.4458 17.8512 60.049 18.0462C59.6523 18.0462 59.4544 18.2412 59.2555 18.4361ZM66.7946 24.0899V20.3857C66.7946 19.6059 66.7946 19.021 67.1913 18.4361C67.3902 18.0462 67.7859 17.6563 68.1836 17.2664C68.5804 17.0714 68.9771 16.8764 69.5727 16.6815C70.1673 16.4865 70.762 16.4865 71.3585 16.4865H71.5564V18.4361H70.9618C70.1673 18.4361 69.7706 18.6311 69.5727 18.826C69.176 19.2159 68.9781 19.6059 68.9781 20.1907V24.0899H66.7946ZM75.9215 25.8445C75.9215 26.2344 75.9215 26.4294 75.7227 26.6243C75.3259 26.8193 75.128 26.8193 74.9292 26.8193H73.739V19.8008C73.739 18.4361 74.1357 17.4613 75.128 17.0714C75.9215 16.4865 76.9139 16.2916 77.9062 16.2916C78.5008 16.2916 79.0954 16.4865 79.691 16.4865C80.2857 16.6815 80.6834 17.0714 80.8813 17.2664C81.6757 18.0462 81.8736 19.021 81.8736 20.1907C81.8736 21.3605 81.6757 22.3353 80.8813 23.1151C80.2866 23.8949 79.4931 24.2848 78.5008 24.2848C77.9062 24.2848 77.5085 24.0899 76.9139 23.8949C76.5171 23.7 76.3183 23.505 75.9215 23.1151V25.8445ZM79.691 20.3857C79.691 19.6059 79.4932 19.021 79.2943 18.6311C78.8976 18.2412 78.5008 18.0462 77.7073 18.0462C77.1127 18.0462 76.715 18.2412 76.5171 18.6311C76.1204 19.021 75.9215 19.6059 75.9215 20.3857C75.9215 20.9706 76.1194 21.5554 76.5161 21.9454C76.715 22.3353 77.3106 22.5302 77.9052 22.5302C78.5008 22.5302 78.8976 22.3353 79.2943 21.9454C79.4932 21.5554 79.691 20.9706 79.691 20.3857ZM89.6115 18.6311C89.4136 18.2412 88.818 18.0462 88.4213 18.0462C87.6278 18.0462 87.231 18.2412 86.8343 18.6311C86.6354 19.021 86.4375 19.4109 86.4375 20.1907V24.0899H84.254V14.342H85.2464C85.6431 14.342 85.841 14.342 86.0408 14.5369C86.2387 14.7319 86.4375 14.9269 86.4375 15.1218V17.4613C86.8343 16.8764 87.4289 16.4865 88.0245 16.4865C88.818 16.2916 89.4136 16.2916 90.2071 16.4865C90.8017 16.6815 91.1984 17.0714 91.5961 17.6563C92.1908 18.0462 92.3896 18.826 92.3896 19.6059V24.0899H90.2061V20.1907C90.2061 19.8008 90.0082 19.6059 90.0082 19.4109C90.0082 19.021 89.8103 18.826 89.6115 18.6311ZM94.7701 16.4865H95.9603C96.1591 16.4865 96.5559 16.4865 96.7547 16.6815C96.9526 16.8764 97.1515 17.2664 97.1515 17.4613V24.0899H94.7691V16.4865H94.7701ZM94.7701 14.342H95.9603C96.1591 14.342 96.5559 14.342 96.7547 14.5369C96.9526 14.7319 97.1515 14.9269 97.1515 15.1218V15.9017H94.7691V14.342H94.7701ZM106.675 24.0899H105.484C105.087 24.0899 104.889 23.8949 104.69 23.7C104.493 23.7 104.294 23.3101 104.294 23.1151V19.2159C104.294 18.826 104.294 18.4361 103.897 18.2412C103.5 18.0462 103.301 17.8512 102.905 17.8512C102.508 17.8512 102.111 18.0462 101.714 18.2412C101.517 18.4361 101.318 18.826 101.318 19.2159V24.0899H99.1352V19.6059C99.1352 18.2412 99.334 17.4613 100.128 17.0714C100.921 16.4865 101.913 16.2916 102.707 16.2916C103.699 16.2916 104.69 16.4865 105.484 16.8764C106.278 17.4613 106.675 18.2412 106.675 19.6059V24.0899ZM113.817 20.1907C113.62 20.3857 113.222 20.5806 112.627 20.5806C112.032 20.7756 111.834 20.7756 111.834 20.7756C111.437 20.7756 111.238 20.9706 111.039 21.1655C110.841 21.3605 110.841 21.5554 110.841 21.7504C110.841 21.9454 110.841 22.3353 111.039 22.5302C111.238 22.5302 111.635 22.7252 111.834 22.7252C112.627 22.7252 113.024 22.5302 113.421 22.1403C113.62 21.9454 113.817 21.5554 113.817 20.9706V20.1907ZM114.413 23.7C114.016 23.8949 113.421 24.0899 113.024 24.0899C112.428 24.0899 112.032 24.2848 111.635 24.2848C110.841 24.2848 110.048 24.0899 109.452 23.7C108.858 23.3101 108.659 22.7252 108.659 21.7504C108.659 20.9706 108.858 20.3857 109.452 20.1907C110.048 19.8008 110.643 19.6059 111.437 19.4109H111.834C112.032 19.4109 112.23 19.4109 112.428 19.2159C113.421 19.2159 113.817 19.021 113.817 18.6311C113.817 18.2412 113.62 18.0462 113.421 18.0462C113.024 17.8512 112.627 17.8512 112.428 17.8512C112.032 17.8512 111.834 17.8512 111.635 18.0462C111.437 18.0462 111.238 18.2412 111.039 18.4361H108.858C109.056 17.8512 109.254 17.2664 109.849 16.8764C110.445 16.4865 111.238 16.2916 112.23 16.2916C113.62 16.2916 114.413 16.4865 115.008 16.8764C115.603 17.2664 116 17.8512 116 18.4361V20.9706C116 21.7504 115.801 22.3353 115.603 22.9201C115.207 23.3101 114.81 23.505 114.413 23.7Z" fill="white"/>
</svg>
