<svg width="116" height="40" viewBox="0 0 116 40" fill="none" xmlns="http://www.w3.org/2000/svg">
<path d="M89.4536 15.5837C85.1241 15.8528 87.0681 21.4915 91.8545 21.1939C96.5365 20.9028 94.0664 15.2971 89.4536 15.5837Z" fill="#F19021"/>
<path d="M87.6261 12.101C84.8674 12.101 82.1706 12.9191 79.8768 14.4518C77.583 15.9844 75.7952 18.1629 74.7395 20.7116C73.6838 23.2603 73.4076 26.0649 73.9458 28.7706C74.484 31.4763 75.8124 33.9617 77.7631 35.9124C79.7138 37.8631 82.1992 39.1916 84.9049 39.7298C87.6106 40.268 90.4152 39.9918 92.9639 38.936C95.5127 37.8803 97.6911 36.0925 99.2238 33.7987C100.756 31.5049 101.574 28.8081 101.574 26.0494C101.574 22.3501 100.105 18.8023 97.4891 16.1864C94.8733 13.5706 91.3255 12.101 87.6261 12.101ZM87.6261 38.536C85.1571 38.5364 82.7433 37.8046 80.6902 36.4332C78.637 35.0618 77.0367 33.1124 76.0915 30.8314C75.1464 28.5504 74.8988 26.0404 75.3803 23.6187C75.8617 21.197 77.0504 18.9725 78.7962 17.2265C80.5419 15.4805 82.7662 14.2913 85.1878 13.8095C87.6093 13.3276 90.1194 13.5747 92.4005 14.5195C94.6817 15.4642 96.6314 17.0643 98.0032 19.1172C99.375 21.1701 100.107 23.5837 100.107 26.0527C100.107 29.3631 98.7923 32.5379 96.4517 34.8789C94.1111 37.2199 90.9365 38.5354 87.6261 38.536ZM87.2055 2.36354C83.8941 4.86656 84.4696 8.70511 84.4696 8.70511C84.4696 8.70511 82.3883 3.30258 79.6854 0C79.3208 4.25151 80.653 9.88468 80.653 9.88468C80.653 9.88468 78.9606 6.39209 74.8134 6.19659C78.2532 8.17353 79.5877 11.7353 79.893 12.6908C81.9429 11.4255 84.2872 10.7161 86.6948 10.6326C86.4235 9.743 85.4592 5.99451 87.2055 2.36354Z" fill="#F19021"/>
<path d="M15.6547 27.4168V30.3361H14.4399V22.815H16.9968C17.8637 22.815 18.5154 23.0211 18.9517 23.4333C19.3881 23.8455 19.6078 24.4101 19.6107 25.1269C19.6107 25.8378 19.387 26.3972 18.9397 26.8051C18.4923 27.2129 17.8461 27.4168 17.0012 27.4168H15.6547ZM18.3707 25.1269C18.3707 24.7007 18.2518 24.3756 18.0138 24.1516C17.7758 23.9275 17.3944 23.8159 16.8694 23.8166H15.6547V26.4262H16.8694C17.8696 26.4262 18.37 25.9931 18.3707 25.1269ZM24.6245 30.3361L22.7497 27.3323H21.8864V30.3361H20.6717V22.815H23.3252C24.184 22.815 24.8357 23.0244 25.2801 23.4432C25.7246 23.862 25.9464 24.4163 25.9457 25.106C25.9457 25.6918 25.7806 26.1747 25.4504 26.5547C25.1202 26.9347 24.6442 27.1759 24.0226 27.2784L25.9995 30.3361H24.6245ZM21.8864 26.469H23.2263C24.2075 26.469 24.6977 26.0359 24.6969 25.1697C24.6969 24.7582 24.578 24.4368 24.34 24.2054C24.1017 23.9748 23.7315 23.8594 23.2263 23.8594H21.8864V26.469ZM31.5284 28.7062H28.3532L27.7777 30.3361H26.4784L29.2483 22.9325H30.6442L33.4031 30.3361H32.1028L31.5284 28.7062ZM31.1868 27.7694L29.9402 24.2548L28.6936 27.7694H31.1868ZM39.5393 23.4113C40.1356 23.8517 40.555 24.4904 40.7222 25.2126H39.4438C39.2845 24.8124 39.0027 24.473 38.6387 24.2428C38.242 23.9944 37.781 23.8683 37.3131 23.8803C36.8699 23.8731 36.4332 23.987 36.05 24.2098C35.6752 24.4319 35.3721 24.7571 35.1769 25.1467C34.9598 25.5921 34.8539 26.0835 34.8683 26.5788C34.854 27.0912 34.9637 27.5995 35.1879 28.0604C35.3867 28.4574 35.7 28.7857 36.0874 29.0028C36.5005 29.2273 36.9649 29.3408 37.435 29.3323C38.0252 29.3426 38.598 29.1327 39.0418 28.7436C39.4884 28.357 39.7583 27.8261 39.8513 27.151H37.089V26.2559H40.8705V27.4168C40.7907 27.9579 40.5886 28.4736 40.2796 28.9248C39.9661 29.3802 39.5456 29.7517 39.055 30.0066C38.5166 30.2831 37.9182 30.4219 37.3131 30.4108C36.6343 30.4247 35.9643 30.2555 35.3735 29.921C34.8194 29.6016 34.3685 29.1301 34.0742 28.5624C33.7728 27.9434 33.6162 27.264 33.6162 26.5755C33.6162 25.8871 33.7728 25.2077 34.0742 24.5887C34.3673 24.0233 34.8163 23.5537 35.368 23.2356C35.9579 22.9045 36.6257 22.7373 37.3021 22.7513C38.1976 22.7513 38.9433 22.9713 39.5393 23.4113ZM49.4471 22.9325V30.3361H48.2214V24.7864L46.0808 30.3361H45.0154L42.8628 24.7864V30.3361H41.6492V22.9325H43.1187L45.569 28.8446L47.9765 22.9325H49.4471ZM55.3911 28.7062H52.2214L51.6459 30.3361H50.3422L53.1121 22.9325H54.5069L57.267 30.3361H55.9666L55.3911 28.7062ZM55.0506 27.7694L53.804 24.2548L52.5575 27.7694H55.0506ZM62.4652 22.815V23.7946H60.3664V30.3361H59.1407V23.7946H57.0539V22.815H62.4652ZM64.329 22.815V30.3361H63.1154V22.815H64.329ZM71.2011 23.4432C71.8173 23.9206 72.253 24.5933 72.4366 25.3509H71.1472C70.9826 24.912 70.687 24.5343 70.3004 24.2691C69.8787 23.9928 69.3821 23.8532 68.8782 23.8693C68.4555 23.8626 68.0397 23.9769 67.6799 24.1988C67.3202 24.4291 67.0321 24.7555 66.8485 25.1412C66.6487 25.5906 66.5454 26.0771 66.5454 26.5689C66.5454 27.0608 66.6487 27.5473 66.8485 27.9967C67.0318 28.3829 67.3199 28.7098 67.6799 28.9402C68.0397 29.1621 68.4555 29.2765 68.8782 29.2697C69.382 29.2862 69.8786 29.1469 70.3004 28.871C70.6849 28.6083 70.9802 28.2348 71.1472 27.8001H72.4366C72.2541 28.5564 71.818 29.2274 71.2011 29.7013C70.5904 30.167 69.8234 30.3998 68.9001 30.3998C68.2391 30.4123 67.5872 30.2445 67.0143 29.9144C66.4704 29.5947 66.0303 29.1249 65.7469 28.5613C65.4518 27.9405 65.2988 27.2618 65.2988 26.5744C65.2988 25.8871 65.4518 25.2084 65.7469 24.5876C66.0314 24.0233 66.4711 23.5519 67.0143 23.229C67.5862 22.896 68.2385 22.7265 68.9001 22.7392C69.8227 22.7399 70.5897 22.9746 71.2011 23.4432ZM78.1665 27.4168V30.3361H76.9528V22.815H79.5097C80.3751 22.815 81.0268 23.0211 81.4646 23.4333C81.9025 23.8455 82.1222 24.4101 82.1236 25.1269C82.1236 25.8378 81.8999 26.3972 81.4526 26.8051C81.0052 27.2129 80.359 27.4168 79.5141 27.4168H78.1665ZM80.8869 25.1269C80.8869 24.7007 80.768 24.3756 80.53 24.1516C80.292 23.9275 79.9102 23.8159 79.3845 23.8166H78.1665V26.4262H79.3812C80.385 26.4262 80.8869 25.9931 80.8869 25.1269ZM84.2071 29.3883H86.8068V30.3361H82.9924V22.815H84.2071V29.3883ZM92.3674 28.7062H89.1934L88.6179 30.3361H87.3175L90.0885 22.9325H91.4833L94.2433 30.3361H92.943L92.3674 28.7062ZM92.027 27.7694L90.7804 24.2548L89.5338 27.7694H92.027ZM99.1187 22.815L96.6157 27.5981V30.3361H95.3933V27.5981L92.8793 22.815H94.2862L96.0127 26.2988L97.7381 22.815H99.1187Z" fill="white"/>
</svg>
