<svg width="116" height="40" viewBox="0 0 116 40" fill="none" xmlns="http://www.w3.org/2000/svg">
<path fill-rule="evenodd" clip-rule="evenodd" d="M4.55102 8.79845C4.74377 8.73684 4.81753 8.63534 4.88356 8.54448L4.88356 8.54447C4.90202 8.51907 4.91988 8.49449 4.93957 8.47185C6.02974 7.13616 7.41724 6.41764 9.12908 6.32529C10.7362 6.24645 12.2149 6.6136 13.4988 7.63395C14.3018 8.27476 14.937 9.07212 15.4426 9.97534C16.1172 11.1917 16.4934 12.5127 16.6477 13.9002C16.8166 15.4037 16.8042 16.9083 16.5317 18.3994C16.2985 19.7081 15.8447 20.9379 15.1183 22.0483C14.4998 23.0465 13.5708 23.814 12.4739 24.2332C11.0087 24.8222 9.4782 25.0441 7.90939 24.954C6.05564 24.8357 4.3438 24.2602 2.74908 23.3052C1.80307 22.7421 1.15437 21.9188 0.726407 20.9109C0.208349 19.7092 0.0135146 18.4253 0.0135146 17.1189C0 14.9983 0 12.8922 0 10.7738C0 7.90874 0 5.04366 0.0135146 2.17857C0.0135146 1.99613 0.0135146 1.79904 0.0259029 1.61547C0.0259029 1.49834 0.104738 1.43302 0.220738 1.42063H0.400932C0.618169 1.42063 0.833645 1.42202 1.04849 1.4234C1.47633 1.42615 1.90168 1.42888 2.33351 1.42063C3.30656 1.3936 4.44741 2.23151 4.53864 3.55255C4.55102 3.73499 4.55102 3.93207 4.55102 4.11564V4.11566V8.79733V8.79845ZM4.58744 16.0188V16.0188V16.0188C4.58444 16.2542 4.58143 16.4897 4.59044 16.7247C4.64225 17.4568 4.77064 18.1775 5.05669 18.8578C5.49817 19.8905 6.22345 20.6237 7.32601 20.9244C7.76636 21.0426 8.23374 21.0426 8.6876 21.0156C9.80256 20.9368 10.6585 20.4142 11.2554 19.4727C11.6698 18.8049 11.9029 18.0728 12.0201 17.3014C12.1361 16.5288 12.1755 15.7573 12.1361 14.9859C12.0978 14.1615 11.9671 13.3641 11.6304 12.6051C11.0605 11.3358 10.1663 10.472 8.72589 10.3673C7.50733 10.2772 6.43067 10.6162 5.62768 11.623C5.36866 11.9496 5.17382 12.3167 5.0184 12.7087C4.64225 13.6648 4.53864 14.6581 4.59044 15.6661C4.59044 15.7836 4.58894 15.9011 4.58744 16.0188ZM50.5028 16.9083H45.4089C44.693 16.9083 44.693 16.9083 44.7626 17.5507L44.7737 17.6539C44.8773 18.5177 45.1363 19.315 45.7197 19.9964C46.1342 20.4671 46.641 20.7802 47.2367 20.9244C47.9441 21.0944 48.6816 21.0944 49.3889 20.9244C49.9723 20.7802 50.4915 20.5325 50.8676 20.0482C51.451 19.2891 52.2033 19.0537 53.1111 19.1056C53.6397 19.1338 54.1747 19.1285 54.7119 19.1233H54.712H54.7121C54.9256 19.1212 55.1394 19.1191 55.3534 19.1191C55.5223 19.1191 55.6912 19.1191 55.8466 19.1326C55.9626 19.145 56.0156 19.2373 55.9885 19.3544C55.9786 19.4177 55.9599 19.481 55.9396 19.5501L55.9395 19.5502L55.9243 19.6022C55.1585 22.0236 53.6032 23.6847 51.2168 24.4956C49.3889 25.124 47.5093 25.1623 45.642 24.6916C43.3085 24.0902 41.7262 22.5991 40.7925 20.3883C40.3781 19.4198 40.1574 18.3994 40.0537 17.3532C39.9197 16.105 39.9284 14.8457 40.0797 13.5995C40.261 12.1996 40.6495 10.8651 41.4153 9.66113C42.5427 7.88171 44.1768 6.86249 46.213 6.49647C47.6065 6.24742 49.0363 6.28729 50.4138 6.6136C51.7495 6.92781 52.9545 7.52921 53.9276 8.51014C54.6934 9.2816 55.2114 10.1972 55.5865 11.2052C56.0403 12.3956 56.2352 13.6254 56.287 14.8811C56.3065 15.3059 56.3043 15.7301 56.302 16.1599V16.1601C56.3012 16.3 56.3005 16.4404 56.3005 16.5817C56.3005 16.843 56.2217 16.9083 55.9626 16.9342C55.8689 16.9431 55.7748 16.9403 55.6768 16.9373L55.6768 16.9373C55.6264 16.9358 55.5751 16.9342 55.5223 16.9342C53.8623 16.9083 52.1776 16.9083 50.5041 16.9083H50.5039H50.5028ZM45.1653 13.8609C45.008 13.8662 44.8479 13.8715 44.6938 13.755C44.7592 12.7091 45.0184 11.7545 45.8357 11.034C46.2614 10.6656 46.775 10.4135 47.3268 10.3019C48.0219 10.1616 48.7416 10.2067 49.4137 10.4326C50.1007 10.6556 50.6075 11.1004 50.9566 11.7277C51.1558 12.0951 51.2917 12.4933 51.3587 12.9058C51.3807 13.0577 51.4027 13.1858 51.4213 13.2937C51.4698 13.5756 51.4946 13.7198 51.4338 13.7927C51.3702 13.869 51.2127 13.867 50.8903 13.863C50.807 13.862 50.7128 13.8608 50.6064 13.8608H45.3301C45.2758 13.8573 45.2207 13.8591 45.1653 13.8609ZM23.5985 12.8663V7.5292V7.08434C23.6109 6.78364 23.6503 6.73184 23.9747 6.73184H27.8905C28.2014 6.73184 28.2273 6.78364 28.2397 7.11137V7.48978C28.2467 9.29187 28.2501 11.0937 28.2535 12.8955V12.8955C28.2565 14.5472 28.2596 16.1989 28.2656 17.8509C28.2656 18.1651 28.2791 18.4782 28.3185 18.7924C28.4086 19.8263 28.9661 20.546 29.8997 20.9379C31.1701 21.474 32.3774 21.3174 33.4923 20.5065C34.1264 20.0482 34.373 19.3544 34.4507 18.61C34.4766 18.3217 34.4766 18.021 34.4766 17.7327C34.4766 16.3411 34.48 14.9529 34.4834 13.5648L34.4834 13.5601L34.4834 13.5554C34.4868 12.1672 34.4901 10.779 34.4901 9.38745C34.4901 9.33396 34.4893 9.28048 34.4884 9.22699C34.4858 9.071 34.4832 8.91501 34.5025 8.75902C34.5926 7.68687 35.4103 6.82306 36.4734 6.75774C37.0109 6.72138 37.5477 6.7294 38.0845 6.73742C38.3125 6.74082 38.5406 6.74423 38.7686 6.74423C38.9894 6.74423 39.0412 6.80955 39.0536 7.05957V7.37265C39.0536 10.695 39.0536 14.0308 39.0671 17.3531C39.0671 18.2305 38.9882 19.1067 38.8204 19.9693C38.6515 20.7937 38.3666 21.5798 37.8868 22.2724C37.5489 22.7567 37.148 23.1745 36.6288 23.4752C34.1658 24.9145 31.5597 25.3594 28.7847 24.6015C27.8622 24.3483 26.9772 23.9742 26.1528 23.4888C25.102 22.8874 24.4669 21.9582 24.0783 20.8467C23.7145 19.8128 23.585 18.7271 23.585 17.6415C23.585 16.0591 23.585 14.4622 23.5985 12.8663ZM17.7896 2.16505V12.9575C17.7761 12.9575 17.7637 12.9575 17.7502 12.944V23.8672C17.7502 24.0507 17.7502 24.2467 17.7637 24.4303C17.7687 24.4735 17.7881 24.5137 17.8187 24.5446C17.8494 24.5754 17.8895 24.5951 17.9327 24.6003C18.087 24.6262 18.2559 24.6262 18.4248 24.6262H21.7179C22.1084 24.6262 22.2904 24.6358 22.3745 24.5497C22.4611 24.4613 22.4443 24.2718 22.4443 23.8672C22.4443 17.2878 22.4443 10.6939 22.4319 4.10101C22.4319 4.05013 22.4326 3.99918 22.4334 3.94818C22.4357 3.79035 22.438 3.63203 22.4184 3.47371C22.3407 2.66284 21.9262 2.07383 21.1998 1.70668C20.8619 1.53775 20.4993 1.45892 20.1243 1.45892H18.5025C18.1008 1.45892 17.9226 1.45582 17.8449 1.54266C17.7671 1.62942 17.7896 1.80596 17.7896 2.16505Z" fill="#23AEE5"/>
<path fill-rule="evenodd" clip-rule="evenodd" d="M74.6069 15.835V19.4198C74.6069 20.1259 74.6069 20.8455 74.5946 21.5517V24.3132C74.5946 24.6003 74.6329 24.6398 74.9178 24.6398H78.8989C79.158 24.6398 79.2875 24.6262 79.2616 24.2861V15.4949C79.253 15.0122 79.2968 14.53 79.3922 14.0567C79.6636 12.7751 80.4283 11.9507 81.7122 11.65C82.1796 11.5453 82.6594 11.5059 83.1391 11.5059C83.2681 11.5059 83.3987 11.5072 83.5297 11.5086C83.7932 11.5114 84.0588 11.5141 84.3183 11.5059C84.5784 11.5059 84.6167 11.4664 84.6167 11.2176V7.07084C84.6167 6.77014 84.5908 6.73185 84.3059 6.73185C82.7754 6.70482 81.2854 6.88839 79.8326 7.38505C78.9767 7.68575 78.1601 8.1047 77.4473 8.69371C76.0992 9.81767 75.3074 11.2705 74.9054 12.9711C74.6858 13.9126 74.6069 14.8676 74.6069 15.835ZM85.9918 7.30735V15.6526V23.8672C85.9918 23.9188 85.9904 23.9718 85.9889 24.0257C85.9859 24.1363 85.9827 24.2506 85.9918 24.365C85.9918 24.5609 86.056 24.6262 86.2632 24.6262H90.3739C90.607 24.6262 90.66 24.5744 90.6712 24.3391V9.39872C90.6712 9.34796 90.6727 9.29551 90.6742 9.24201C90.6772 9.13172 90.6803 9.01694 90.6712 8.90319C90.6465 8.49775 90.5552 8.11822 90.3221 7.77698C89.8547 7.08436 89.2072 6.73072 88.3771 6.71834H86.5752C85.9875 6.71834 85.9878 6.75196 85.9912 7.19012C85.9915 7.22636 85.9918 7.26536 85.9918 7.30735ZM88.3479 35.1662C88.3184 35.2556 88.2891 35.3441 88.1564 35.421V35.4199C88.1348 35.3676 88.1131 35.3181 88.0914 35.2684C88.0483 35.1701 88.0049 35.071 87.9616 34.9491C87.5353 33.6828 87.1032 32.4184 86.6653 31.156C86.5991 30.9644 86.5329 30.7722 86.4667 30.5796C86.2342 29.9041 86.0003 29.2244 85.7576 28.5522C85.6416 28.2256 85.6281 28.2121 85.2654 28.2121H83.709C83.3597 28.2121 83.1913 28.1927 83.1103 28.2677C83.029 28.3429 83.0355 28.5129 83.0355 28.8923V37.6836V38.0642C83.0479 38.2737 83.0997 38.339 83.2945 38.339H84.539C84.5777 38.339 84.6195 38.3357 84.6615 38.3323C84.7037 38.3289 84.7461 38.3255 84.7856 38.3255C84.9016 38.3131 84.9805 38.2467 84.9805 38.1295C84.9887 38.0422 84.986 37.9612 84.9833 37.8785C84.9819 37.8365 84.9805 37.794 84.9805 37.75C84.9737 36.9452 84.9639 36.1407 84.954 35.3362C84.9442 34.5319 84.9343 33.7276 84.9276 32.923C84.9276 32.7417 84.9245 32.557 84.9214 32.3707C84.9183 32.1809 84.9152 31.9895 84.9152 31.798C84.9204 31.7383 84.9381 31.6804 84.967 31.6279C84.9805 31.602 85.0582 31.602 85.0706 31.6155C85.0848 31.6439 85.1 31.6723 85.1153 31.7011C85.1561 31.7775 85.1982 31.8562 85.226 31.9421L86.7047 36.206C86.9119 36.8209 87.1192 37.4234 87.3399 38.0372C87.4435 38.339 87.4694 38.3514 87.7938 38.3514H88.5979C88.9087 38.3514 88.9346 38.339 89.0382 38.0248L90.205 34.6495C90.361 34.2047 90.5132 33.7599 90.6656 33.3151C90.8179 32.8702 90.9702 32.4253 91.1262 31.9804C91.1521 31.8903 91.2039 31.7721 91.3335 31.8115C91.4247 31.8498 91.4371 31.9421 91.4371 32.021V32.5176C91.4306 33.3374 91.4213 34.1568 91.412 34.9763C91.4019 35.8704 91.3917 36.7644 91.3853 37.6588C91.3717 37.8152 91.3717 37.9593 91.3717 38.1023V38.1025C91.3717 38.2602 91.4506 38.339 91.5936 38.339H92.9676C93.2908 38.339 93.3178 38.2996 93.3291 37.9854V28.711L93.3291 28.71C93.3178 28.2526 93.3175 28.2403 92.8899 28.2403H91.1521C91.1131 28.2403 91.0779 28.2397 91.0461 28.2392C90.7619 28.2349 90.7466 28.2347 90.5947 28.6581C90.5737 28.7138 90.5566 28.766 90.5394 28.8184C90.5242 28.8645 90.509 28.9109 90.491 28.9599C89.7905 31.013 89.0776 33.0672 88.3636 35.1203C88.358 35.1356 88.353 35.1509 88.3479 35.1662ZM73.6868 32.9872H70.8206V32.9884C70.0435 32.9884 69.2518 32.9884 68.4353 32.9749C68.3845 32.9749 68.3322 32.9734 68.2789 32.9719C68.1694 32.9689 68.0557 32.9658 67.942 32.9749C67.7224 32.9749 67.6571 33.0267 67.6571 33.2237C67.6488 33.5023 67.6516 33.7813 67.6543 34.0604C67.6557 34.2001 67.6571 34.3398 67.6571 34.4795C67.6571 34.5966 67.7483 34.6619 67.8643 34.6619H68.6684C69.5502 34.6754 70.4186 34.6754 71.288 34.6754C71.4828 34.6754 71.547 34.7937 71.4569 34.9626C71.4535 34.9826 71.4441 35.0011 71.4299 35.0156C70.3803 36.7679 68.4218 36.7679 67.3068 36.1147C66.1401 35.4345 65.5443 34.1258 65.7639 32.7519C66.1007 30.6458 68.2664 29.4825 70.1471 30.3846C70.448 30.531 70.72 30.7306 70.9501 30.9736C71.0113 31.0442 71.0871 31.1007 71.1723 31.1392C71.2575 31.1777 71.35 31.1973 71.4434 31.1966H73.2454C73.4143 31.1966 73.4796 31.0907 73.4143 30.9601C72.9987 30.0839 72.4412 29.3124 71.5988 28.7887C70.2125 27.9384 68.7337 27.8866 67.2167 28.3045C66.6593 28.4621 66.1401 28.7369 65.6862 29.1153C64.0656 30.4634 63.3527 32.1764 63.7289 34.2824C64.0656 36.1406 65.1287 37.4876 66.8654 38.1937C68.9669 39.044 71.8838 38.5597 73.3749 35.8005C73.8028 35.002 73.9718 34.1517 73.9459 33.262C73.9323 33.0661 73.8805 33.0008 73.6868 32.9872ZM115.723 32.9872H112.858V32.9884C112.028 32.9884 111.198 32.9884 110.381 33.0143C110.328 33.0143 110.277 33.0127 110.227 33.0112C110.129 33.0082 110.034 33.0053 109.94 33.0143C109.824 33.0143 109.745 33.092 109.745 33.2102V34.466C109.745 34.6754 109.784 34.7013 110.017 34.7013H111.95C112.183 34.7081 112.42 34.7081 112.658 34.7081C112.896 34.7081 113.136 34.7081 113.376 34.7149C113.571 34.7149 113.609 34.8196 113.519 35.002C113.512 35.009 113.508 35.0193 113.505 35.0295C113.502 35.039 113.499 35.0484 113.493 35.055C112.442 36.7815 110.459 36.795 109.356 36.1271C108.639 35.7006 108.113 35.015 107.886 34.2118C107.659 33.4086 107.749 32.549 108.138 31.8104C108.708 30.7112 109.629 30.0974 110.899 30.1098C111.703 30.1098 112.404 30.3846 112.974 30.9612L112.976 30.9632C113.118 31.0919 113.247 31.209 113.453 31.209C114.076 31.1954 114.699 31.1954 115.321 31.1954C115.476 31.1954 115.541 31.0907 115.476 30.9477C115.074 30.1098 114.542 29.3642 113.752 28.854C112.34 27.9519 110.835 27.8866 109.265 28.318C108.682 28.4824 108.142 28.7727 107.684 29.1683C106.115 30.5028 105.414 32.1899 105.778 34.2441C106.115 36.1924 107.216 37.5923 109.058 38.259C111.56 39.1623 114.504 38.1937 115.697 35.225C115.943 34.5966 116.021 33.9299 115.995 33.2497C115.995 33.0537 115.93 33.0008 115.723 32.9872ZM104.909 28.2526H103.328H103.326C103.214 28.4395 103.223 28.6178 103.232 28.782C103.234 28.8247 103.236 28.8663 103.236 28.907V34.1788C103.236 34.1966 103.238 34.2159 103.24 34.2357C103.249 34.3171 103.258 34.4059 103.133 34.4277C103.049 34.4367 103.016 34.3713 102.986 34.3114C102.979 34.2969 102.972 34.2827 102.964 34.27C102.874 34.1394 102.783 33.9952 102.691 33.8511C102.31 33.2568 101.928 32.661 101.545 32.0641C100.85 30.9791 100.153 29.8906 99.4501 28.8022C99.2238 28.4527 99.148 28.3205 99.0362 28.2729C98.9305 28.228 98.7925 28.2587 98.4646 28.2526H97.5963C97.2461 28.2526 97.2326 28.2786 97.2202 28.6581V28.9059V37.7489V38.1284C97.2202 38.2985 97.3103 38.3649 97.4533 38.3649H98.6336C98.8942 38.3649 99.0271 38.3649 99.0948 38.2985C99.1651 38.2295 99.1651 38.0888 99.1651 37.8018V32.1516C99.1651 32.1449 99.1649 32.138 99.1647 32.1309C99.1632 32.0825 99.1615 32.0283 99.2293 31.9939C99.318 31.9556 99.3577 32.0163 99.3837 32.0559L99.3859 32.0592C99.7542 32.6463 100.123 33.236 100.492 33.826C100.952 34.5635 101.414 35.3014 101.875 36.0348C102.082 36.3686 102.292 36.7055 102.503 37.0424C102.714 37.3795 102.924 37.7167 103.132 38.0507L103.133 38.0531C103.237 38.2088 103.341 38.3638 103.56 38.3638H104.922C105.052 38.3638 105.155 38.2996 105.155 38.1419V28.4745C105.142 28.318 105.052 28.2526 104.909 28.2526ZM80.7009 38.3649H81.4532C81.5446 38.3649 81.6359 38.3663 81.7266 38.3677C81.9064 38.3704 82.084 38.3731 82.2562 38.3649C82.4251 38.3649 82.4769 38.2996 82.4251 38.1419C82.4003 38.0507 82.3609 37.946 82.3215 37.8547C81.4138 35.4345 80.4937 33.0154 79.5724 30.594C79.4679 30.3146 79.3612 30.0372 79.255 29.7609C79.0979 29.3525 78.9418 28.9467 78.7953 28.541C78.7176 28.3315 78.6005 28.2538 78.3798 28.2538C78.0171 28.265 77.6669 28.265 77.3166 28.2538C77.0711 28.2403 76.954 28.3574 76.8627 28.5804C76.5136 29.5095 76.1499 30.451 75.7872 31.379C75.2393 32.7788 74.7023 34.1794 74.1655 35.5793C74.1054 35.736 74.0454 35.8927 73.9853 36.0494C73.8609 36.3747 73.7336 36.7001 73.6063 37.0254C73.4675 37.3803 73.3287 37.7352 73.1935 38.0901C73.117 38.2861 73.1676 38.3649 73.376 38.3649H74.75C75.1261 38.3649 75.1385 38.3514 75.2804 37.9854L75.7872 36.5731C75.8649 36.376 75.9685 36.2589 76.1893 36.2589H79.3652C79.5735 36.2589 79.6772 36.3501 79.7278 36.5326L79.8067 36.7691C79.8751 36.9493 79.9454 37.1296 80.0161 37.3107C80.1198 37.5767 80.2242 37.8445 80.3247 38.1171C80.39 38.2996 80.5196 38.3649 80.7009 38.3649ZM78.8974 34.3082C78.8933 34.3288 78.889 34.3509 78.8854 34.3747H76.8368C76.6949 34.3747 76.6431 34.2711 76.6949 34.1135L76.9675 33.4073C77.0841 33.0931 77.2006 32.7822 77.3172 32.4714C77.4338 32.1606 77.5503 31.8497 77.6669 31.5356C77.6939 31.4455 77.7322 31.3396 77.8741 31.2878C78.043 31.7652 78.2147 32.2458 78.3864 32.7263C78.5582 33.207 78.73 33.6877 78.8989 34.1653C78.9181 34.2035 78.9089 34.2498 78.8974 34.3082ZM96.0534 28.2526H94.3022C94.3022 28.5151 94.3022 28.6716 94.3157 28.8417V37.8153V38.1284C94.3022 38.2861 94.3934 38.3649 94.5364 38.3649H96.0275C96.0405 38.3649 96.05 38.3615 96.0596 38.3581C96.0692 38.3548 96.0788 38.3514 96.0917 38.3514C96.2077 38.339 96.2865 38.2861 96.2865 38.1554V28.4892C96.2865 28.345 96.1953 28.2526 96.0534 28.2526ZM86.3286 5.1743H88.3118H88.313C88.688 5.1743 89.0641 5.1743 89.4279 5.16078H90.4257C90.5688 5.16078 90.6848 5.10898 90.6848 4.95131C90.6848 4.82757 90.6864 4.70299 90.688 4.57799C90.6928 4.20127 90.6978 3.82073 90.6589 3.44782C90.5293 2.36215 89.6734 1.53776 88.5844 1.47244C88.0369 1.44422 87.4894 1.44948 86.9415 1.45474C86.7241 1.45683 86.5067 1.45892 86.2892 1.45892C86.056 1.47244 86.0042 1.52537 86.0042 1.77314V4.8477C86.0042 5.12137 86.0436 5.1743 86.3286 5.1743ZM108.657 11.7142V2.04792C108.657 1.9872 108.656 1.93273 108.655 1.88386C108.648 1.47953 108.648 1.45891 109.227 1.45891C109.422 1.45891 109.617 1.46042 109.811 1.46192C110.199 1.46492 110.584 1.46791 110.965 1.45891C112.249 1.41949 113.286 2.57048 113.26 3.76089C113.251 4.29418 113.254 4.82697 113.257 5.3559V5.35676C113.258 5.61949 113.26 5.88128 113.26 6.1417V6.58655C113.26 6.70481 113.338 6.78252 113.454 6.78252C113.726 6.79603 113.999 6.79603 114.258 6.79603H115.749C115.892 6.79603 115.982 6.86135 115.982 7.01902V7.82989C115.97 9.07211 114.971 9.9483 113.907 10.0147C113.829 10.0206 113.75 10.0236 113.672 10.0267C113.584 10.0301 113.498 10.0335 113.415 10.0406C113.324 10.053 113.26 10.106 113.26 10.1972C113.246 10.3278 113.246 10.445 113.246 10.5767V19.877C113.26 20.7149 113.622 21.0933 114.465 21.1203C114.66 21.1265 114.858 21.1265 115.055 21.1265C115.253 21.1265 115.451 21.1265 115.645 21.1327C115.944 21.1327 115.982 21.1721 115.982 21.4481V24.3379C115.982 24.6262 115.956 24.6521 115.658 24.6645C114.167 24.7297 112.673 24.7034 111.185 24.5857C111.042 24.5749 110.899 24.5576 110.757 24.5339C109.811 24.3255 109.162 23.7759 108.864 22.8333C108.695 22.2713 108.643 21.6823 108.643 21.0944C108.656 17.9565 108.656 14.8455 108.656 11.72V11.7142H108.657ZM57.0382 14.88V21.9706C57.0382 24.8357 57.0382 27.7132 57.0505 30.5648V31.0096C57.0505 31.1662 57.1418 31.245 57.2848 31.245C57.4935 31.245 57.7023 31.2479 57.9113 31.2509C58.4669 31.2587 59.0235 31.2666 59.58 31.2191C60.6037 31.1414 61.4203 30.317 61.5633 29.2831C61.5892 29.0478 61.5892 28.8248 61.5892 28.5905V28.5905V22.625C61.5892 22.572 61.6151 22.5461 61.6669 22.5461C61.7053 22.5452 61.7425 22.5593 61.7705 22.5855C61.8015 22.6293 61.8326 22.6738 61.8638 22.7187L61.8639 22.7187C61.9629 22.8609 62.0638 23.0059 62.1726 23.1351C62.7285 23.8148 63.4658 24.3229 64.2988 24.6003C64.8893 24.8017 65.5048 24.9203 66.1278 24.9528C68.4219 25.097 70.3151 24.2726 71.7544 22.4673C72.5979 21.4086 73.1295 20.1912 73.4403 18.8702C73.7963 17.3405 73.9013 15.7631 73.7512 14.1998C73.6228 12.8145 73.2973 11.4788 72.688 10.2242C72.0922 8.99441 71.2487 7.98645 70.0166 7.35915C69.2801 6.97609 68.4951 6.69424 67.6831 6.52125C64.9735 5.98517 62.4575 6.48183 60.0722 7.84229C59.5124 8.16388 59.0124 8.57996 58.5946 9.07212C57.8547 9.96182 57.4661 11.0081 57.2454 12.1332C57.0641 13.0364 57.0382 13.9644 57.0382 14.88ZM68.7857 12.9057C69.0965 13.8078 69.2001 14.7494 69.1877 15.692C69.2001 16.6076 69.0965 17.4973 68.8116 18.3341C68.6945 18.7001 68.5255 19.0267 68.3318 19.3533C67.3205 21.0156 65.5827 21.2116 64.2606 20.8061C63.2492 20.5054 62.6129 19.7993 62.1602 18.8837C61.9518 18.4523 61.8099 17.9805 61.7322 17.5097C61.5007 16.1031 61.5359 14.6654 61.8358 13.2718C61.9653 12.6963 62.1861 12.1602 62.5363 11.6759C63.1321 10.8515 63.9362 10.3943 64.9475 10.3155C65.621 10.2625 66.2697 10.3278 66.8925 10.6162C67.878 11.0734 68.4478 11.8978 68.7857 12.9057ZM96.5728 23.9325V18.6618H96.5705C96.5705 18.2151 96.5714 17.7684 96.5723 17.3215V17.3208V17.3201C96.5749 16.0142 96.5774 14.7064 96.5581 13.3911C96.5581 12.9981 96.584 12.6062 96.6741 12.2143C96.7365 11.9063 96.859 11.6137 97.0347 11.3531C97.2104 11.0926 97.4357 10.8694 97.6979 10.6961C98.8793 9.89876 100.409 9.91115 101.628 10.722C102.156 11.0695 102.528 11.6093 102.664 12.2266C102.769 12.6321 102.782 13.051 102.782 13.47V21.9965C102.782 22.1801 102.782 22.3772 102.795 22.5596C102.846 23.0304 102.963 23.4629 103.274 23.8289C103.467 24.075 103.713 24.2745 103.994 24.4125C104.274 24.5506 104.583 24.6236 104.895 24.6262C105.439 24.6465 105.984 24.644 106.529 24.6414C106.71 24.6406 106.892 24.6398 107.074 24.6398C107.101 24.6398 107.124 24.6359 107.147 24.6324C107.166 24.6292 107.185 24.6262 107.203 24.6262C107.319 24.6003 107.398 24.535 107.398 24.4179V17.8374C107.398 16.5029 107.398 15.1559 107.384 13.8214C107.372 12.7233 107.255 11.6511 106.917 10.6038C106.503 9.29511 105.764 8.24886 104.518 7.62156C104.156 7.42447 103.779 7.22963 103.403 7.07196C102.146 6.54828 100.824 6.27348 99.4615 6.32641C97.6078 6.39173 95.8835 6.95371 94.3147 7.97406C93.8557 8.26922 93.4589 8.65145 93.1468 9.09915C92.5905 9.8706 92.2797 10.7479 92.1107 11.6894C91.9553 12.5791 91.89 13.4689 91.89 14.3709V23.973V24.4179C91.89 24.5361 91.9553 24.6139 92.0713 24.6262C92.1749 24.6398 92.2785 24.6398 92.3832 24.6398H92.3833H96.0536H96.0536C96.1572 24.6398 96.2608 24.6398 96.3644 24.6262C96.4804 24.6139 96.5457 24.5485 96.5593 24.4303C96.5728 24.2737 96.5728 24.1037 96.5728 23.9325Z" fill="#F2F4F8"/>
</svg>
