<svg width="116" height="40" viewBox="0 0 116 40" fill="none" xmlns="http://www.w3.org/2000/svg">
<g clip-path="url(#clip0_192_7073)">
<path fill-rule="evenodd" clip-rule="evenodd" d="M37.9174 15.44C37.9174 15.44 37.9175 15.44 37.9175 15.44V15.439C37.6286 15.395 37.3373 15.3943 37.0331 15.3936C36.7703 15.3929 36.498 15.3923 36.2094 15.3636C39.6255 13.2691 43.015 11.193 46.3958 9.12214C48.4355 7.8728 50.472 6.62538 52.5093 5.377C52.5061 5.36793 52.5015 5.35695 52.4967 5.34575C52.4913 5.33307 52.4858 5.32011 52.4823 5.30933H41.4381C41.2767 5.30933 41.1152 5.30858 40.9538 5.30783C40.6309 5.30633 40.3081 5.30482 39.9852 5.30933C39.4178 5.3161 39.149 5.522 38.9828 6.0643C38.4086 7.95317 37.8353 9.84203 37.2679 11.7377C37.1608 12.0925 37.0508 12.4461 36.9409 12.7996C36.668 13.6775 36.3954 14.5542 36.168 15.4451C36.1657 15.4453 36.1633 15.4456 36.161 15.4458C36.1535 15.4636 36.1441 15.4814 36.1345 15.4995L36.1344 15.4996C36.1179 15.5307 36.1009 15.5628 36.0923 15.5976C35.4622 17.6814 34.8311 19.7666 34.1999 21.8521C33.2857 24.8727 32.3712 27.8941 31.4591 30.9134L31.2791 31.5058L31.2791 31.5059C30.9932 32.4463 30.7083 33.3838 30.4286 34.3258C30.3175 34.7037 30.4625 34.9164 30.8288 34.958C30.9226 34.9682 31.0201 34.9669 31.1158 34.9656C31.1292 34.9654 31.1426 34.9652 31.156 34.9651C31.174 34.9649 31.1919 34.9647 31.2097 34.9647H44.3496C45.5657 34.9647 46.0084 34.6283 46.3197 33.4886L46.4687 32.9464C47.0211 30.9359 47.5734 28.9261 48.1322 26.9163C49.0379 23.6538 49.9437 20.398 50.8495 17.1433C50.9809 16.6754 50.8156 16.2085 50.4 15.9059C50.0684 15.6662 49.6875 15.6043 49.2873 15.5966C48.0423 15.5797 46.7974 15.5592 45.5526 15.5386C44.3078 15.5181 43.063 15.4975 41.8179 15.4806C40.8892 15.4654 39.9605 15.4576 39.0318 15.4498C38.6603 15.4467 38.2889 15.4436 37.9174 15.44ZM87.8413 8.76983C87.9808 8.67926 88.113 8.58364 88.2427 8.48975C88.6143 8.22091 88.9663 7.9662 89.4176 7.88453C90.0334 7.78207 90.6356 7.78787 91.2224 8.00053C91.8178 8.21417 92.2258 8.6192 92.4597 9.23787C92.5709 9.1209 92.654 9.03197 92.7371 8.94207C93.408 8.23447 94.2161 7.8362 95.206 7.8304C96.8928 7.82267 97.9378 8.97687 97.6884 10.6318C97.5177 11.7525 97.2677 12.8585 97.0174 13.9655C96.8921 14.5199 96.7667 15.0746 96.6512 15.6314C96.5816 15.9755 96.133 16.1466 95.8286 15.9678C95.641 15.8634 95.6811 15.7053 95.7192 15.5557C95.7262 15.528 95.7332 15.5006 95.7386 15.4738C95.8739 14.8228 96.0154 14.1747 96.1571 13.5254C96.2321 13.1816 96.3072 12.8376 96.3815 12.4926C96.3976 12.4165 96.4138 12.3403 96.43 12.264C96.5395 11.75 96.6493 11.2342 96.7276 10.714C96.9557 9.1963 96.0635 8.40653 94.57 8.8251C93.352 9.16923 92.7439 10.075 92.4819 11.2427C92.2751 12.1517 92.0804 13.0659 91.8861 13.9785C91.7807 14.4733 91.6755 14.9676 91.5685 15.4603C91.465 15.9475 91.3606 16.0229 90.9044 16.0094C90.6143 15.9958 90.5245 15.8721 90.5863 15.5908C90.7352 14.904 90.8821 14.2172 91.0291 13.5304C91.176 12.8435 91.3229 12.1567 91.4718 11.4699C91.5472 11.1122 91.6032 10.7488 91.6236 10.3843C91.6786 9.2166 90.9179 8.55733 89.7637 8.75647C88.5534 8.96913 87.6612 9.8488 87.3634 11.1538C87.1481 12.1236 86.9387 13.0938 86.7293 14.0639C86.6229 14.5568 86.5165 15.0497 86.4093 15.5425C86.3127 15.9678 86.0845 16.1051 85.6553 16.0026C85.4137 15.9407 85.4069 15.7687 85.4485 15.5773C85.5864 14.9375 85.723 14.2977 85.8597 13.658C86.0239 12.8895 86.1881 12.1211 86.3542 11.3529C86.4568 10.8783 86.5575 10.4037 86.6581 9.92921C86.7614 9.44211 86.8647 8.95513 86.97 8.4684C87.0667 8.02857 87.1566 7.95993 87.6061 7.9667C87.9512 7.97347 88.014 8.04983 87.9444 8.38623C87.9106 8.46498 87.8908 8.55206 87.8622 8.67831C87.8557 8.70671 87.8489 8.73711 87.8413 8.76983ZM80.0961 26.2976C79.141 26.2154 78.3522 26.5721 77.6755 27.2527C77.6542 27.2246 77.6407 27.1976 77.6127 27.1628C77.6254 27.1127 77.6366 27.0629 77.6475 27.0137C77.6607 26.9546 77.6737 26.8964 77.689 26.8399C77.7654 26.5654 77.6755 26.4291 77.371 26.4291C76.9003 26.4291 76.8036 26.49 76.6992 26.9704C76.607 27.4029 76.5157 27.8352 76.4245 28.267C76.2912 28.8987 76.158 29.5293 76.0225 30.1575L75.1922 34.0445C75.1226 34.3615 75.2134 34.464 75.5382 34.4775C75.9664 34.4911 76.0641 34.4292 76.154 34.0039C76.3155 33.2759 76.4721 32.5481 76.6286 31.8205C76.7867 31.0853 76.9448 30.3503 77.1081 29.6152C77.3981 28.3034 78.2971 27.4238 79.5073 27.2188C80.6693 27.0187 81.4233 27.6848 81.3682 28.8525C81.3469 29.3194 81.2503 29.7795 81.1536 30.2395L81.1536 30.2397C81.0171 30.8671 80.8823 31.496 80.7475 32.1248C80.6092 32.7698 80.4709 33.4148 80.3309 34.058C80.2691 34.3403 80.3725 34.464 80.6557 34.4708C81.112 34.4843 81.2087 34.4021 81.3131 33.914C81.4167 33.4359 81.5187 32.9562 81.6209 32.476C81.818 31.5493 82.0155 30.6206 82.2256 29.6974C82.4885 28.5364 83.1033 27.6297 84.3204 27.2875C85.8139 26.8679 86.7071 27.6645 86.4712 29.1821C86.3892 29.7324 86.272 30.2821 86.1546 30.8321C86.124 30.9758 86.0933 31.1196 86.0633 31.2634C85.9982 31.5642 85.9323 31.865 85.8664 32.1657C85.7367 32.7578 85.607 33.3497 85.4833 33.942C85.4785 33.9648 85.4726 33.9882 85.4666 34.012C85.4293 34.1601 85.3884 34.3226 85.5799 34.4292C85.898 34.608 86.3262 34.436 86.4026 34.086C86.5174 33.5369 86.6413 32.9893 86.7652 32.4416C87.0146 31.3387 87.2641 30.2358 87.4398 29.1203C87.7028 27.445 86.6588 26.2773 84.9574 26.2908C83.9676 26.2986 83.1594 26.7026 82.4885 27.4102C82.466 27.4346 82.4455 27.4613 82.4247 27.4885C82.3685 27.5616 82.3101 27.6378 82.2044 27.678C81.8312 26.7162 81.0569 26.373 80.0961 26.2976ZM63.8147 28.7025C63.638 28.7016 63.4612 28.7007 63.2838 28.7007C63.2064 28.7007 63.129 28.7006 63.0516 28.7005C62.5759 28.6997 62.0995 28.6988 61.6173 28.7288C61.307 28.7288 61.1194 29.0033 61.133 29.388C61.1392 29.6877 61.3479 29.6859 61.5556 29.6841C61.5717 29.684 61.5878 29.6838 61.6037 29.6838H63.3669C63.7453 29.6838 63.9338 29.6838 64.0075 29.7758C64.0807 29.8671 64.0409 30.0491 63.9614 30.4117C63.4849 32.5606 61.8386 33.7902 59.6259 33.653C58.4572 33.5776 57.7583 33.0759 57.5437 32.1421C57.4538 31.737 57.4403 31.3252 57.4954 30.9125C57.6549 29.7863 57.8898 28.6814 58.1798 27.5891C58.7472 25.4595 60.2688 24.3478 62.4399 24.4638C63.7749 24.5392 64.4592 25.0815 64.5975 26.3179C64.6187 26.5103 64.6942 26.6688 64.9233 26.7026C65.483 26.7916 65.6695 26.6205 65.6077 26.0569C65.4694 24.7664 64.7019 23.9766 63.5052 23.6673C61.3611 23.1173 58.6573 23.6741 57.5234 26.5451C57.2054 27.3551 57.0324 28.2068 56.8593 29.0584C56.8286 29.2066 56.7962 29.3548 56.7637 29.5032C56.5916 30.2897 56.4184 31.081 56.4997 31.9023C56.5906 32.8429 56.9976 33.5979 57.8279 34.1063C58.2774 34.3809 58.7753 34.5181 59.2934 34.5732C61.4375 34.7859 63.4085 34.0512 64.4389 31.9294C64.821 31.147 64.9813 30.3085 65.1423 29.4667C65.1679 29.3329 65.1935 29.1989 65.22 29.0652C65.2751 28.7906 65.1369 28.694 64.8749 28.7007C64.52 28.7059 64.1676 28.7042 63.8147 28.7025ZM62.4341 6.3601C61.1678 7.34223 59.8956 8.33113 58.5674 9.36837C58.5776 9.31899 58.5872 9.27331 58.5962 9.23055C58.6298 9.07073 58.6548 8.9516 58.6709 8.83187C58.7854 8.28945 58.8978 7.7468 59.0102 7.20414C59.1226 6.66172 59.2349 6.11929 59.3495 5.5771C59.3833 5.3915 59.4046 5.2262 59.1832 5.15757C58.7269 5.0203 58.4427 5.1856 58.3461 5.64573C58.2901 5.91053 58.2342 6.17545 58.1783 6.44046C57.8194 8.14129 57.4597 9.84583 57.0942 11.5453C56.9526 12.2113 56.8091 12.8757 56.6655 13.54C56.522 14.2044 56.3784 14.8687 56.2368 15.5347C56.1952 15.7213 56.1614 15.9059 56.4031 15.9891C56.8245 16.1331 57.1426 15.961 57.2325 15.5357C57.4055 14.7392 57.5718 13.9494 57.738 13.1519C57.8209 12.7486 57.9086 12.3453 57.9983 11.9331C58.0582 11.6576 58.119 11.3781 58.1798 11.0919C58.2172 11.1316 58.2494 11.164 58.2775 11.1923C58.3228 11.238 58.3578 11.2732 58.3876 11.3114C59.3449 12.4272 60.3066 13.5424 61.2652 14.6541C61.5049 14.9321 61.7444 15.2099 61.9836 15.4874C62.0846 15.6127 62.1931 15.7318 62.3084 15.8441C62.5163 16.0364 63.0837 16.0848 63.2422 15.9059C63.462 15.6556 63.2975 15.4951 63.1466 15.3478C63.1117 15.3137 63.0774 15.2803 63.0489 15.2467C61.7146 13.6837 60.3728 12.127 59.0237 10.5767C58.8507 10.3853 58.8584 10.3022 59.0653 10.1436C60.2551 9.23799 61.4304 8.31785 62.6057 7.3977L62.6062 7.39733C63.1531 6.96926 63.6967 6.54577 64.2394 6.12289C64.4027 5.99572 64.5658 5.8686 64.729 5.74143C64.8469 5.64573 64.9503 5.54907 64.8952 5.3712C64.8334 5.17883 64.6942 5.15757 64.5221 5.145C64.1828 5.12373 63.8928 5.2059 63.6299 5.42533C63.3252 5.67476 63.0164 5.91206 62.7073 6.14973C62.6162 6.21972 62.5251 6.28973 62.4341 6.3601ZM97.7435 34.0039C98.3728 34.4572 99.092 34.6283 99.8943 34.608C100.199 34.6283 100.53 34.58 100.842 34.5259C102.198 34.3267 103.082 33.5292 103.325 32.3006C103.47 31.5853 103.221 31.0362 102.633 30.6379C102.267 30.3914 101.852 30.2397 101.429 30.1304C101.329 30.1035 101.228 30.0775 101.127 30.0515C100.686 29.9377 100.242 29.8234 99.8257 29.622C98.9615 29.2092 98.8368 28.4339 99.556 27.7882C100.212 27.1908 101.021 27.1086 101.859 27.2246C102.37 27.3 102.751 27.561 102.972 28.0424C103.11 28.3373 103.345 28.4127 103.657 28.3034C103.975 28.1932 103.981 27.9467 103.906 27.6857C103.781 27.2382 103.477 26.9221 103.082 26.7094C102.032 26.1323 100.946 26.1671 99.846 26.5518C99.3952 26.7016 99.0015 26.9869 98.7189 27.3687C97.9513 28.4127 97.6952 29.9864 99.7078 30.6244C99.8468 30.6676 99.9877 30.7041 100.128 30.7406C100.233 30.7677 100.337 30.7948 100.441 30.8245C100.497 30.8404 100.554 30.856 100.611 30.8717C101.067 30.9969 101.522 31.1218 101.928 31.3658C102.391 31.6413 102.509 31.9777 102.336 32.4727C102.253 32.7047 102.122 32.9048 101.928 33.0623C101.223 33.6394 100.392 33.7429 99.5212 33.6945C98.8088 33.653 98.2974 33.2895 97.9514 32.6708C97.7919 32.3963 97.5154 32.4514 97.2737 32.5403C97.0243 32.637 96.9827 32.8419 97.0524 33.0836C97.1703 33.4751 97.4187 33.7699 97.7435 34.0039ZM6.60891 16.0403C6.3658 16.0422 6.1224 16.0442 5.87829 16.0442C5.87829 16.0442 5.87829 16.0374 5.88505 16.0297C5.67006 16.0297 5.45507 16.0287 5.24007 16.0277C4.6943 16.0251 4.14853 16.0226 3.60275 16.0364C2.81395 16.0645 2.28229 16.6068 2.28229 17.3347C2.27552 18.0693 2.82845 18.6397 3.62402 18.6464C5.12005 18.6624 6.61619 18.6647 8.11225 18.6532C8.52019 18.6532 8.87882 18.5092 9.14949 18.1931C9.48105 17.8025 9.57095 17.3482 9.38439 16.8745C9.19782 16.3873 8.83049 16.0712 8.29882 16.0509C7.73386 16.0314 7.1722 16.0358 6.60891 16.0403ZM10.7186 5.1841C10.4767 5.18485 10.2349 5.1856 9.99339 5.1856H9.99242H7.85609C7.66179 5.1856 7.46169 5.1856 7.27512 5.25423C6.68739 5.46013 6.29975 6.0643 6.38965 6.64817C6.49309 7.33547 7.01895 7.7956 7.75942 7.80237C9.23226 7.8159 10.7041 7.80914 12.177 7.80237L12.1781 7.80237C13.0084 7.7956 13.5817 7.2388 13.5749 6.46933C13.5681 5.71437 13.0017 5.19237 12.1713 5.1856C11.6872 5.18109 11.2027 5.18259 10.7186 5.1841ZM105.019 7.9116C106.112 8.14553 106.817 8.98363 106.879 10.2606C106.963 11.8885 106.575 13.4342 105.538 14.7324C104.535 16.0026 103.159 16.3458 101.602 16.0229C101.008 15.9001 100.662 15.6246 100.157 14.9721C100.131 15.0757 100.109 15.1755 100.087 15.2728C100.057 15.4079 100.028 15.538 99.992 15.6662C99.9089 15.961 99.383 16.1331 99.1336 15.9475C99.0094 15.8546 99.0358 15.7344 99.0628 15.6114C99.0658 15.5975 99.0689 15.5835 99.0717 15.5695C99.3698 14.1964 99.6612 12.8202 99.9529 11.4431C100.095 10.7745 100.236 10.1058 100.379 9.437C100.523 8.74662 100.67 8.058 100.816 7.37032C100.936 6.80625 101.056 6.24281 101.174 5.67957C101.178 5.66081 101.183 5.64209 101.187 5.62341C101.236 5.39672 101.285 5.17773 101.451 5H102.142C102.225 5.1653 102.205 5.32287 102.17 5.49493C102.04 6.09832 101.913 6.70364 101.783 7.31938C101.67 7.85287 101.556 8.39419 101.437 8.94883C101.602 8.81833 101.72 8.72263 101.838 8.62693C102.771 7.84393 103.858 7.6651 105.019 7.9116ZM105.171 13.6188C105.69 12.7063 105.925 11.7106 105.946 10.6666V10.6656C105.946 10.6052 105.947 10.5445 105.949 10.4829C105.951 10.4194 105.952 10.3549 105.952 10.2886C105.897 9.3471 105.323 8.76323 104.369 8.72263C103.076 8.66077 102.08 9.2311 101.402 10.2819C100.766 11.2698 100.58 12.4172 100.648 13.5705C100.711 14.6009 101.451 15.2196 102.488 15.2331C103.719 15.2534 104.584 14.6493 105.171 13.6188ZM71.6964 7.92382C71.785 7.92769 71.8714 7.95196 71.949 7.99473C72.1338 8.1071 72.0928 8.27035 72.0556 8.41845C72.0496 8.44235 72.0437 8.46586 72.0389 8.4887C71.8388 9.45827 71.631 10.4327 71.4231 11.4013C71.3903 11.5532 71.3575 11.7051 71.3246 11.8571C71.0606 13.0788 70.7965 14.3005 70.5386 15.5222C70.4903 15.7416 70.4352 15.9407 70.1645 15.9881C69.6396 16.078 69.4937 15.9272 69.6116 15.3984C69.6262 15.3306 69.6386 15.2609 69.6522 15.1855C69.6646 15.1158 69.678 15.0412 69.6947 14.9586C69.6358 15.0176 69.5834 15.0652 69.5364 15.108C69.5009 15.1403 69.4685 15.1698 69.4386 15.1993C68.498 16.1399 67.3506 16.3052 66.119 16.0094C65.0886 15.7551 64.4738 14.918 64.4109 13.6613C64.3287 12.1653 64.734 10.683 65.5661 9.437C66.4583 8.09043 67.9799 7.54137 69.5565 7.90483C70.1645 8.04983 70.5869 8.4336 70.9465 8.9556C71.0246 8.81449 71.0508 8.67387 71.0766 8.53511C71.0872 8.47805 71.0978 8.4213 71.1119 8.36497C71.1324 8.27878 71.1726 8.19851 71.2293 8.13042C71.286 8.06233 71.3577 8.00826 71.4387 7.97242C71.5197 7.93658 71.6079 7.91995 71.6964 7.92382ZM67.0461 15.2409C68.2699 15.2264 69.1418 14.629 69.7566 13.6265C70.2487 12.8231 70.3874 11.9195 70.5059 11.1466C70.5192 11.0602 70.5322 10.9755 70.5454 10.8928C70.5521 9.28523 69.6116 8.50997 68.1799 8.76323C67.5382 8.86806 66.9588 9.20865 66.555 9.7183C65.6009 10.9131 65.2684 12.307 65.3795 13.7976C65.4482 14.7865 66.0436 15.2467 67.0461 15.2409ZM83.4977 8.3176C83.5876 7.98797 84.0516 7.8159 84.3349 8.0015C84.5211 8.1251 84.4668 8.29885 84.4189 8.4522C84.4136 8.46916 84.4083 8.48587 84.4035 8.50223C84.2572 9.21378 84.1041 9.9249 83.951 10.6362C83.8734 10.9965 83.7958 11.3569 83.7191 11.7174C83.5868 12.3403 83.4529 12.9649 83.319 13.5897C83.1799 14.2387 83.0407 14.888 82.9033 15.5357C82.8482 15.7687 82.7785 15.9678 82.4818 15.9958C81.9627 16.0432 81.8515 15.9204 81.9627 15.4187L82.0661 14.9238C81.5548 15.4738 81.0434 15.8721 80.3793 16.0229C79.7635 16.1602 79.1478 16.1814 78.5329 16.0297C77.488 15.7754 76.8452 14.9518 76.7765 13.6807C76.7002 12.1011 77.1081 10.6183 78.0206 9.31327C78.9128 8.04983 80.4692 7.5346 81.9694 7.91933C82.5639 8.07013 82.9651 8.45487 83.346 8.9904C83.3703 8.88524 83.3904 8.78963 83.4092 8.70021C83.4383 8.56195 83.4643 8.43853 83.4977 8.3176ZM79.2106 15.2331C80.0816 15.295 80.8559 15.034 81.4784 14.4298C82.6616 13.2621 82.9728 11.7715 82.882 10.2123C82.8269 9.28523 82.1077 8.75647 81.1603 8.72263C80.213 8.68783 79.4522 9.0658 78.8781 9.78693C78.0622 10.8164 77.7992 12.0325 77.7374 13.3104C77.7374 13.3514 77.7366 13.3932 77.7359 13.4352C77.7344 13.5199 77.7329 13.6057 77.7374 13.6884C77.807 14.6357 78.3251 15.1713 79.2106 15.2331ZM115.054 8.26927C115.144 7.98797 115.655 7.8362 115.89 8.01503C116.038 8.1268 116.004 8.27898 115.974 8.4151C115.968 8.43792 115.963 8.46028 115.959 8.48193L115.337 11.3945C115.039 12.7681 114.742 14.1418 114.451 15.5144C114.403 15.7348 114.348 15.9407 114.078 15.9881C113.546 16.078 113.401 15.9272 113.519 15.3984C113.533 15.3299 113.545 15.2594 113.559 15.183C113.571 15.1141 113.585 15.0403 113.601 14.9586C113.544 15.0156 113.493 15.062 113.447 15.1037C113.41 15.1377 113.376 15.1685 113.346 15.1993C112.405 16.1399 111.257 16.3052 110.026 16.0094C108.996 15.7551 108.38 14.918 108.318 13.6613C108.232 12.1649 108.638 10.6815 109.473 9.437C110.364 8.09043 111.886 7.54137 113.462 7.90483C113.968 8.02277 114.355 8.3176 114.673 8.7091C114.691 8.73027 114.705 8.75495 114.72 8.78006C114.757 8.84325 114.795 8.90916 114.894 8.92853C114.913 8.8509 114.93 8.77394 114.946 8.69775C114.977 8.55195 115.008 8.40894 115.054 8.26927ZM110.932 15.2331C111.769 15.2476 112.502 14.9586 113.076 14.368C114.196 13.2138 114.5 11.758 114.424 10.2268C114.376 9.29973 113.657 8.7497 112.716 8.71587C111.769 8.68107 111.008 9.0455 110.427 9.76663C109.59 10.8039 109.334 12.0325 109.272 13.3172C109.272 13.3582 109.271 13.3999 109.27 13.4419C109.269 13.5267 109.267 13.6124 109.272 13.6952C109.355 14.7044 109.923 15.2196 110.932 15.2331ZM73.2356 26.9366C73.3323 26.3865 73.5536 26.4001 74.0032 26.4484C74.2864 26.4801 74.243 26.6991 74.2067 26.8825C74.2031 26.9006 74.1996 26.9184 74.1965 26.9356C74.0618 27.6133 73.9157 28.2833 73.7683 28.9593C73.7496 29.0451 73.7309 29.1309 73.7122 29.2169C73.5458 30.0005 73.3775 30.7857 73.2092 31.5711C73.0353 32.3824 72.8614 33.1939 72.6895 34.0039C72.6334 34.2504 72.558 34.4572 72.24 34.4708C71.7344 34.4978 71.6377 34.3954 71.7489 33.9004L71.8456 33.4335C71.7551 33.5145 71.6853 33.5806 71.6227 33.6399C71.5897 33.6712 71.5586 33.7006 71.5275 33.7293C70.5183 34.6767 69.3216 34.8275 68.063 34.4157C66.9977 34.0725 66.6033 33.1725 66.555 32.1353C66.473 30.6365 66.8808 29.1517 67.7169 27.9052C68.6024 26.5654 70.1375 26.0095 71.7064 26.3798C72.3154 26.5248 72.7378 26.9163 73.1177 27.4721C73.1409 27.3595 73.1626 27.2662 73.182 27.1828C73.2029 27.093 73.2211 27.0148 73.2356 26.9366ZM69.1901 33.7148C70.0263 33.7216 70.7523 33.4268 71.3265 32.8284V32.8294C72.4333 31.6752 72.7233 30.2261 72.6479 28.7152C72.6063 27.7872 71.8871 27.2382 70.9465 27.1976C69.9924 27.157 69.2172 27.534 68.6362 28.2686C67.8213 29.2981 67.5642 30.5142 67.5023 31.7921C67.5023 31.8314 67.5016 31.8699 67.5008 31.9082C67.4993 31.9838 67.4978 32.0583 67.5023 32.1353C67.5652 33.1725 68.1384 33.7081 69.1901 33.7148ZM94.0856 26.3527C95.3307 26.5451 96.077 27.3619 96.1881 28.6253V28.6263C96.2432 29.2372 96.1737 29.8424 96.0432 30.432C95.9803 30.7278 95.7792 30.8438 95.4893 30.8303H92.8966C92.6553 30.8303 92.4145 30.8314 92.174 30.8325C91.5734 30.8353 90.9743 30.838 90.3717 30.8235C90.102 30.8168 90.0189 30.9134 89.9986 31.1599V31.16C89.9638 31.5583 89.929 31.9565 90.0121 32.3547C90.1852 33.1861 90.711 33.653 91.5617 33.7013C92.6337 33.7564 93.5946 33.5089 94.3283 32.6573C94.396 32.5819 94.48 32.4997 94.57 32.4717C94.7981 32.404 95.0746 32.3344 95.2543 32.52C95.4151 32.6916 95.2889 32.8731 95.1797 33.0302C95.1622 33.0554 95.1451 33.0801 95.1297 33.1039C94.57 33.9623 93.7057 34.3267 92.7439 34.5259C92.2461 34.6283 91.7347 34.6496 91.2301 34.5529C89.9706 34.319 89.0783 33.4132 89.0164 32.1421C88.941 30.5828 89.2861 29.1067 90.275 27.8568C91.2359 26.6475 92.5158 26.1052 94.0856 26.3527ZM95.1798 29.9032C95.2333 29.8533 95.223 29.7349 95.2679 29.4567C95.5105 27.9255 94.4868 26.9569 92.9372 27.2314C91.61 27.4653 90.538 28.5364 90.2615 29.9236C90.272 29.9255 90.2816 29.9274 90.2904 29.9291C90.3164 29.9343 90.3355 29.9381 90.3514 29.9381H94.7072C95.0085 29.9342 95.1262 29.9531 95.1798 29.9032ZM76.0708 5.00677C76.1955 5.13051 76.2225 5.26778 76.1877 5.43984L75.955 6.51784L75.9534 6.52493C75.3063 9.52152 74.6591 12.5188 74.0234 15.5222C73.9547 15.8653 73.7952 16.0161 73.4434 15.9958C73.0693 15.9755 72.9929 15.8924 73.0693 15.5289C73.2061 14.897 73.3405 14.2651 73.4749 13.6331C73.6063 13.015 73.7378 12.3967 73.8716 11.7783L74.019 11.09L74.0191 11.0896C74.4127 9.25229 74.8062 7.41503 75.1998 5.58388C75.2481 5.37121 75.3032 5.16531 75.455 5.00677H76.0708ZM27.6968 5.28807H36.4104C36.9285 5.30257 37.0948 5.52201 36.9498 6.00921L35.7463 10.1233C33.3808 18.1525 31.0096 26.1874 28.6374 34.2165C28.4847 34.7385 28.2082 34.9512 27.662 34.9512H16.0437C15.4907 34.9512 15.3312 34.7453 15.483 34.2233C15.6915 33.5145 15.9006 32.8055 16.1098 32.0964L16.1098 32.0961C16.6018 30.4283 17.0941 28.7593 17.5797 27.0874C17.6416 26.8679 17.7315 26.7645 17.9799 26.7848C18.3743 26.8196 18.7619 26.7655 19.1148 26.5654C19.688 26.2425 19.9993 25.6519 19.8755 25.1163C19.7373 24.5257 19.2047 24.1004 18.527 24.0926C17.8267 24.0825 17.1263 24.0838 16.4259 24.085L16.4228 24.085C16.1904 24.0855 15.958 24.0859 15.7256 24.0859C14.7851 24.0859 14.1983 23.6054 14.1838 22.836C14.1703 22.0462 14.8614 21.3734 15.7324 21.3599C16.5986 21.3497 17.4609 21.351 18.3248 21.3523H18.3248C18.613 21.3527 18.9014 21.3531 19.1902 21.3531H21.7151C22.386 21.3531 22.9737 20.8234 23.0491 20.1641C23.1187 19.5193 22.6547 18.9355 21.95 18.805C21.7442 18.7716 21.536 18.7554 21.3275 18.7566H13.6512L13.5857 18.7568C13.3863 18.7574 13.188 18.758 13.0016 18.7083C12.1026 18.4541 11.7836 17.3762 12.3926 16.628C12.7241 16.2153 13.1601 16.0442 13.6927 16.0442C14.9755 16.0465 16.2582 16.0456 17.5409 16.0446H17.5409C20.0619 16.0429 22.5828 16.0411 25.1033 16.0635C25.8157 16.0712 26.5484 15.3704 26.5484 14.7392C26.5484 14.0528 25.9539 13.4825 25.1584 13.4477C25.0662 13.4432 24.974 13.4447 24.8819 13.4462C24.8358 13.447 24.7897 13.4477 24.7437 13.4477H8.49206C8.46578 13.4477 8.43929 13.4479 8.41265 13.4481H8.41264C8.27861 13.449 8.14097 13.45 8.00872 13.4274C7.37846 13.3104 6.95699 12.83 6.95022 12.2113C6.93669 11.5385 7.42679 10.9266 8.10539 10.7691C8.31903 10.7207 8.54039 10.714 8.75499 10.714H25.1448C25.546 10.714 25.9259 10.6656 26.272 10.453C26.8326 10.1098 27.1014 9.52594 26.9564 8.97011C26.8181 8.45488 26.272 8.04211 25.6494 8.02278C25.2358 8.00746 24.8192 8.01019 24.4039 8.01292H24.4037C24.2425 8.01398 24.0815 8.01504 23.921 8.01504H18.9756C18.8016 8.01504 18.6295 8.00151 18.4632 7.97348C17.8968 7.86424 17.4888 7.54814 17.3574 6.97781C17.2394 6.44904 17.5091 5.90674 18.0282 5.58388C18.3878 5.35768 18.7958 5.28807 19.2172 5.29581C22.0457 5.28807 24.8742 5.28807 27.6949 5.28807H27.6968ZM0 11.7377C0.2349 11.2708 0.525867 10.8648 1.0991 10.7613C1.798 10.6318 2.48917 11.0368 2.68347 11.7096C2.8768 12.3766 2.53073 13.0833 1.89467 13.3443C1.23733 13.612 0.483333 13.3443 0.1595 12.7198C0.135332 12.6715 0.109231 12.6217 0.0831292 12.5719C0.0570306 12.5221 0.0309321 12.4723 0.00676667 12.424C0 12.1978 0 11.9639 0 11.7377Z" fill="#C80EA4"/>
</g>
<defs>
<clipPath id="clip0_192_7073">
<rect width="116" height="40" fill="white"/>
</clipPath>
</defs>
</svg>
