<svg width="24" height="24" viewBox="0 0 24 24" fill="none" xmlns="http://www.w3.org/2000/svg">
<path fill-rule="evenodd" clip-rule="evenodd" d="M9.58001 21.7029C14.9384 23.039 20.3649 19.7783 21.7007 14.4206C23.0364 9.0625 19.7761 3.63505 14.418 2.29928C9.06121 0.963513 3.63469 4.22449 2.29955 9.58287C0.963158 14.9403 4.22382 20.3671 9.58001 21.7029ZM12.2351 4.57981C12.1502 4.62995 12.0522 4.65371 11.9537 4.6481C11.8218 4.64057 11.6982 4.58087 11.6102 4.48212C11.5221 4.38337 11.4768 4.25365 11.4842 4.12146C11.4898 4.02282 11.5244 3.92804 11.5837 3.8491C11.643 3.77017 11.7244 3.71063 11.8175 3.67802C11.9106 3.64541 12.0113 3.64119 12.1068 3.66589C12.2023 3.6906 12.2883 3.74312 12.354 3.81681C12.4197 3.8905 12.4621 3.98206 12.4759 4.07989C12.4896 4.17772 12.4741 4.27744 12.4312 4.36643C12.3884 4.45542 12.3201 4.52968 12.2351 4.57981ZM16.0727 4.83114C16.1375 4.87373 16.2136 4.89608 16.2911 4.89539C16.3687 4.89469 16.4443 4.87096 16.5084 4.82722C16.5725 4.78347 16.6222 4.72166 16.6512 4.64962C16.6802 4.57758 16.6872 4.49854 16.6713 4.4225C16.6555 4.34645 16.6175 4.27683 16.5621 4.22243C16.5067 4.16804 16.4365 4.13131 16.3603 4.1169C16.2841 4.1025 16.2053 4.11106 16.134 4.1415C16.0626 4.17194 16.0019 4.2229 15.9594 4.28792C15.9026 4.37502 15.8826 4.48115 15.9038 4.583C15.9251 4.68485 15.9858 4.7741 16.0727 4.83114ZM7.8554 4.87225C7.92421 4.83685 7.98103 4.78186 8.0187 4.7142C8.05638 4.64653 8.07322 4.56922 8.06712 4.49198C8.06102 4.41475 8.03225 4.34105 7.98442 4.28016C7.93659 4.21927 7.87184 4.17392 7.79833 4.1498C7.72482 4.12569 7.64583 4.1239 7.57131 4.14465C7.49678 4.16541 7.43005 4.20778 7.37952 4.26643C7.32898 4.32509 7.2969 4.39741 7.28732 4.47429C7.27773 4.55116 7.29106 4.62917 7.32564 4.69847C7.34888 4.74486 7.38106 4.78618 7.42032 4.82006C7.45958 4.85393 7.50515 4.87969 7.55439 4.89584C7.60364 4.912 7.65559 4.91823 7.70725 4.91418C7.75891 4.91013 7.80926 4.89588 7.8554 4.87225ZM7.93202 11.9168C7.91357 12.2387 8.02344 12.5547 8.23751 12.7955C8.45158 13.0363 8.75232 13.1821 9.07366 13.2009H9.13988C9.37654 13.2006 9.60794 13.131 9.80553 13.0005C10.0031 12.8701 10.1582 12.6845 10.2518 12.4668C10.3453 12.249 10.3731 12.0086 10.3318 11.7752C10.2904 11.5418 10.1818 11.3256 10.0192 11.1534C9.85666 10.9811 9.64729 10.8603 9.41696 10.8058C9.18663 10.7514 8.94542 10.7656 8.7231 10.8469C8.50078 10.9282 8.30709 11.0729 8.16592 11.2631C8.02475 11.4534 7.94228 11.6808 7.9287 11.9175L7.93202 11.9168ZM3.19252 11.6629C3.25917 11.6235 3.33598 11.6048 3.41323 11.6091C3.46463 11.6119 3.51496 11.6248 3.56135 11.6472C3.60774 11.6695 3.64926 11.7008 3.68354 11.7393C3.71781 11.7777 3.74416 11.8226 3.76107 11.8713C3.77798 11.92 3.78512 11.9715 3.78208 12.023C3.77764 12.1004 3.7504 12.1747 3.7038 12.2365C3.6572 12.2984 3.59333 12.3451 3.52027 12.3706C3.44721 12.3961 3.36823 12.3994 3.29332 12.38C3.21841 12.3606 3.15093 12.3193 3.0994 12.2615C3.04787 12.2037 3.01461 12.1319 3.00382 12.0551C2.99303 11.9784 3.0052 11.9002 3.03879 11.8303C3.07238 11.7605 3.12587 11.7022 3.19252 11.6629ZM9.08494 7.01992C9.1918 6.96593 9.28028 6.88142 9.33919 6.77706C9.39811 6.67271 9.42481 6.55321 9.41593 6.43366C9.40704 6.31411 9.36296 6.19988 9.28927 6.10541C9.21558 6.01095 9.11558 5.94049 9.00191 5.90294C8.88824 5.86539 8.76601 5.86244 8.65067 5.89446C8.53533 5.92648 8.43206 5.99204 8.35391 6.08284C8.27576 6.17364 8.22624 6.28561 8.21162 6.40459C8.19699 6.52357 8.21792 6.64423 8.27175 6.7513C8.30751 6.82244 8.35692 6.88582 8.41715 6.93783C8.47738 6.98983 8.54725 7.02944 8.62277 7.05439C8.69829 7.07933 8.77797 7.08913 8.85727 7.08322C8.93658 7.0773 9.01394 7.0558 9.08494 7.01992ZM4.94697 8.49702C5.0294 8.55131 5.12605 8.57989 5.2247 8.57915C5.32335 8.5784 5.41956 8.54837 5.50116 8.49284C5.58276 8.43732 5.64609 8.35879 5.68312 8.26721C5.72016 8.17563 5.72923 8.0751 5.70921 7.97835C5.68919 7.88159 5.64096 7.79296 5.57063 7.72367C5.5003 7.65438 5.41103 7.60754 5.31412 7.58908C5.2172 7.57061 5.117 7.58136 5.02618 7.61996C4.93537 7.65855 4.85802 7.72326 4.80393 7.80589C4.73149 7.91657 4.70587 8.05151 4.73269 8.1811C4.75951 8.31068 4.83658 8.4243 4.94697 8.49702ZM5.68399 11.3882C5.5645 11.3815 5.4457 11.4104 5.34259 11.4712C5.23948 11.5321 5.1567 11.6222 5.10472 11.7302C5.05273 11.8381 5.03387 11.9591 5.05053 12.0778C5.06718 12.1965 5.11859 12.3076 5.19827 12.3971C5.27795 12.4865 5.38231 12.5503 5.49817 12.5804C5.61403 12.6104 5.73619 12.6054 5.8492 12.5659C5.9622 12.5264 6.06099 12.4543 6.13307 12.3586C6.20515 12.2629 6.24729 12.148 6.25415 12.0283C6.26319 11.8677 6.20822 11.7101 6.10132 11.5901C5.99441 11.4701 5.84431 11.3975 5.68399 11.3882ZM5.01321 15.464C4.9252 15.5085 4.85236 15.5782 4.80389 15.6642C4.75542 15.7502 4.7335 15.8487 4.74089 15.9472C4.74828 16.0457 4.78465 16.1397 4.84542 16.2175C4.90618 16.2953 4.9886 16.3533 5.08227 16.3841C5.17593 16.415 5.27663 16.4174 5.37163 16.3909C5.46663 16.3645 5.55168 16.3104 5.61601 16.2356C5.68034 16.1607 5.72108 16.0685 5.73307 15.9705C5.74505 15.8724 5.72776 15.773 5.68336 15.6849C5.65386 15.6263 5.61312 15.5741 5.56346 15.5312C5.51381 15.4884 5.45622 15.4558 5.39398 15.4353C5.33175 15.4148 5.26608 15.4068 5.20075 15.4117C5.13541 15.4166 5.07168 15.4344 5.01321 15.464ZM7.36603 10.1353C7.48389 10.2127 7.62201 10.2533 7.76292 10.252C7.90384 10.2508 8.04121 10.2077 8.15768 10.1283C8.27416 10.0488 8.36449 9.93655 8.41727 9.80568C8.47005 9.6748 8.48289 9.5312 8.45419 9.39301C8.42549 9.25483 8.35652 9.12827 8.25601 9.02935C8.1555 8.93042 8.02796 8.86357 7.88951 8.83724C7.75107 8.81091 7.60794 8.82629 7.47822 8.88143C7.3485 8.93657 7.23802 9.029 7.16075 9.14703C7.10934 9.22539 7.07387 9.31313 7.05636 9.40524C7.03886 9.49735 7.03966 9.59201 7.05873 9.68381C7.0778 9.77561 7.11476 9.86274 7.16749 9.94021C7.22022 10.0177 7.28769 10.084 7.36603 10.1353ZM14.8304 6.97217C14.9307 7.03773 15.0482 7.07202 15.168 7.07071C15.2878 7.06939 15.4046 7.03253 15.5035 6.96478C15.6023 6.89704 15.679 6.80144 15.7236 6.69008C15.7683 6.57873 15.779 6.45661 15.7544 6.33916C15.7298 6.22171 15.6709 6.11421 15.5853 6.03025C15.4997 5.94629 15.3912 5.88963 15.2734 5.86743C15.1557 5.84524 15.034 5.85851 14.9238 5.90557C14.8136 5.95262 14.7198 6.03135 14.6542 6.13181C14.6106 6.19853 14.5805 6.27323 14.5657 6.35161C14.5509 6.43 14.5518 6.51054 14.5681 6.58861C14.5845 6.66668 14.6161 6.74074 14.6611 6.80656C14.7061 6.87238 14.7636 6.92866 14.8304 6.97217ZM14.4573 10.827C14.6077 10.7745 14.7668 10.7523 14.9258 10.7614C15.0845 10.7696 15.24 10.8093 15.3833 10.8783C15.5266 10.9473 15.6547 11.0442 15.7601 11.1633C15.9159 11.338 16.0179 11.5541 16.0538 11.7855C16.0897 12.0169 16.058 12.2537 15.9625 12.4675C15.867 12.6813 15.7118 12.8628 15.5156 12.9902C15.3195 13.1177 15.0907 13.1855 14.8569 13.1856H14.7867C14.4657 13.1672 14.1652 13.0217 13.9513 12.7814C13.7374 12.541 13.6276 12.2253 13.646 11.9039C13.6645 11.5824 13.8097 11.2814 14.0497 11.0672C14.1685 10.9611 14.307 10.8795 14.4573 10.827ZM9.92981 10.5395C9.7384 10.4215 9.58369 10.2523 9.48309 10.051C9.39057 9.86605 9.34678 9.66044 9.35587 9.45373C9.36496 9.24703 9.42662 9.04607 9.53502 8.86994C9.64341 8.6938 9.79493 8.54832 9.97521 8.4473C10.1555 8.34628 10.3586 8.29308 10.5651 8.29272C10.7894 8.29165 11.0095 8.35313 11.2008 8.47027C11.3922 8.58742 11.5472 8.7556 11.6485 8.95599C11.7421 9.14116 11.7867 9.34726 11.7782 9.55463C11.7696 9.762 11.7082 9.96371 11.5997 10.1405C11.4911 10.3173 11.3392 10.4633 11.1583 10.5646C10.9774 10.6659 10.7737 10.719 10.5665 10.719C10.3417 10.7197 10.1212 10.6575 9.92981 10.5395ZM19.195 8.29566C19.1465 8.38162 19.0736 8.45124 18.9856 8.49573C18.8674 8.55528 18.7304 8.5654 18.6047 8.52387C18.4791 8.48233 18.375 8.39253 18.3154 8.2742C18.2711 8.18598 18.254 8.08658 18.2661 7.98858C18.2781 7.89058 18.319 7.79836 18.3834 7.7236C18.4478 7.64883 18.5329 7.59486 18.6279 7.56852C18.7229 7.54217 18.8236 7.54462 18.9172 7.57557C19.0108 7.60652 19.0932 7.66457 19.1539 7.74239C19.2146 7.82021 19.2509 7.91431 19.2582 8.01278C19.2655 8.11126 19.2435 8.2097 19.195 8.29566ZM15.6129 9.16816C15.6824 9.04533 15.7866 8.94589 15.9125 8.88239C15.996 8.84015 16.0871 8.81482 16.1804 8.80786C16.2737 8.8009 16.3675 8.81244 16.4564 8.84183C16.5453 8.87121 16.6275 8.91786 16.6984 8.97911C16.7692 9.04036 16.8273 9.11501 16.8694 9.19877C16.9327 9.32484 16.9574 9.4669 16.9402 9.60699C16.923 9.74709 16.8646 9.87892 16.7726 9.98582C16.6806 10.0927 16.559 10.1699 16.4232 10.2076C16.2874 10.2453 16.1434 10.2417 16.0096 10.1975C15.8758 10.1533 15.7581 10.0703 15.6714 9.959C15.5846 9.84774 15.5328 9.71322 15.5224 9.57245C15.512 9.43169 15.5435 9.29099 15.6129 9.16816ZM11.9484 7.79132C12.0891 7.79922 12.2289 7.76518 12.3503 7.69349C12.4716 7.62181 12.569 7.5157 12.6302 7.38858C12.6914 7.26146 12.7135 7.11903 12.6939 6.9793C12.6742 6.83956 12.6137 6.7088 12.5199 6.60352C12.4261 6.49825 12.3032 6.4232 12.1668 6.38785C12.0304 6.3525 11.8866 6.35844 11.7536 6.40493C11.6206 6.45141 11.5043 6.53635 11.4195 6.649C11.3346 6.76166 11.285 6.89698 11.2769 7.03785C11.2663 7.22694 11.331 7.41254 11.4569 7.55383C11.5829 7.69512 11.7596 7.78055 11.9484 7.79132ZM8.08772 15.0766C8.21357 15.0131 8.31778 14.9136 8.38716 14.7907C8.45654 14.6678 8.48799 14.5271 8.47751 14.3863C8.46704 14.2456 8.41512 14.1111 8.32832 13.9998C8.24152 13.8886 8.12375 13.8057 7.98988 13.7615C7.85602 13.7174 7.71209 13.7139 7.57629 13.7517C7.44049 13.7895 7.31892 13.8667 7.22697 13.9737C7.13501 14.0807 7.0768 14.2126 7.05969 14.3527C7.04258 14.4928 7.06734 14.6349 7.13084 14.7609C7.21596 14.9298 7.36458 15.058 7.54402 15.1172C7.72346 15.1764 7.91903 15.1618 8.08772 15.0766ZM12.4087 8.83264C12.2609 9.05853 12.1926 9.32733 12.2145 9.5965C12.2364 9.86567 12.3473 10.1198 12.5296 10.3188C12.712 10.5177 12.9554 10.65 13.2213 10.6949C13.4871 10.7397 13.7604 10.6944 13.9977 10.5661C14.235 10.4379 14.4228 10.2341 14.5314 9.98693C14.6401 9.73975 14.6633 9.46335 14.5975 9.20147C14.5316 8.93958 14.3804 8.70717 14.1679 8.54102C13.9553 8.37487 13.6935 8.28447 13.4239 8.28412C13.2225 8.28398 13.0243 8.33405 12.847 8.42981C12.6698 8.52557 12.5192 8.66401 12.4087 8.83264ZM14.5157 13.9086C14.4186 13.7158 14.2719 13.5524 14.0907 13.4353C13.9096 13.3182 13.7005 13.2516 13.485 13.2425C13.2696 13.2333 13.0556 13.2819 12.8652 13.3832C12.6748 13.4845 12.5148 13.6349 12.4017 13.8188C12.2887 14.0027 12.2267 14.2135 12.2221 14.4294C12.2175 14.6453 12.2706 14.8586 12.3757 15.0471C12.4809 15.2357 12.6344 15.3927 12.8204 15.502C13.0063 15.6113 13.218 15.6689 13.4337 15.6689C13.6234 15.6676 13.8101 15.6222 13.9793 15.5363C14.2655 15.3912 14.4826 15.1385 14.5831 14.8334C14.6837 14.5283 14.6594 14.1958 14.5157 13.9086ZM16.6336 13.8237C16.5158 13.7463 16.3777 13.7056 16.2368 13.7067C16.0959 13.7079 15.9584 13.7508 15.8419 13.8302C15.7254 13.9096 15.635 14.0218 15.5821 14.1526C15.5292 14.2835 15.5163 14.4271 15.5449 14.5653C15.5735 14.7035 15.6424 14.8301 15.7429 14.9291C15.8433 15.0281 15.9708 15.095 16.1093 15.1214C16.2477 15.1478 16.3908 15.1325 16.5206 15.0775C16.6503 15.0224 16.7609 14.93 16.8382 14.812C16.9416 14.6537 16.9781 14.4608 16.9397 14.2755C16.9014 14.0903 16.7913 13.9279 16.6336 13.8237ZM18.954 12.0004C18.9607 11.8807 18.9319 11.7617 18.8711 11.6585C18.8104 11.5552 18.7204 11.4723 18.6126 11.4202C18.5048 11.3682 18.384 11.3493 18.2655 11.3659C18.147 11.3826 18.036 11.4341 17.9467 11.5139C17.8574 11.5937 17.7938 11.6983 17.7638 11.8143C17.7338 11.9304 17.7388 12.0527 17.7782 12.1659C17.8176 12.2791 17.8896 12.378 17.9852 12.4502C18.0807 12.5224 18.1955 12.5646 18.315 12.5715C18.4753 12.5806 18.6326 12.5255 18.7525 12.4184C18.8723 12.3113 18.9448 12.161 18.954 12.0004ZM20.6305 11.5686C20.5531 11.5641 20.4761 11.5828 20.4093 11.6221C20.3425 11.6615 20.2888 11.7198 20.255 11.7897C20.2213 11.8597 20.209 11.938 20.2198 12.015C20.2305 12.0919 20.2638 12.1639 20.3153 12.2218C20.3669 12.2798 20.4345 12.3212 20.5096 12.3407C20.5846 12.3602 20.6638 12.3569 20.737 12.3314C20.8102 12.3058 20.8742 12.2591 20.9209 12.1971C20.9676 12.1351 20.9949 12.0607 20.9994 11.9831C21.0052 11.8792 20.9696 11.7772 20.9005 11.6995C20.8313 11.6218 20.7343 11.5747 20.6305 11.5686ZM19.0518 15.462C18.9693 15.4079 18.8727 15.3795 18.7741 15.3804C18.6755 15.3813 18.5794 15.4114 18.4979 15.467C18.4164 15.5226 18.3532 15.6012 18.3163 15.6928C18.2793 15.7844 18.2703 15.8848 18.2904 15.9815C18.3105 16.0782 18.3588 16.1668 18.4291 16.236C18.4994 16.3052 18.5887 16.352 18.6855 16.3705C18.7824 16.3889 18.8826 16.3781 18.9733 16.3396C19.0641 16.301 19.1414 16.2364 19.1955 16.1538C19.2315 16.0989 19.2563 16.0375 19.2685 15.973C19.2807 15.9086 19.2801 15.8423 19.2668 15.7781C19.2535 15.7138 19.2276 15.6528 19.1907 15.5986C19.1538 15.5444 19.1066 15.498 19.0518 15.462ZM7.92676 19.1279C7.86194 19.0853 7.78597 19.0629 7.70844 19.0635C7.63092 19.0642 7.55532 19.0878 7.49122 19.1315C7.42711 19.1751 7.37738 19.2369 7.34829 19.3088C7.31921 19.3808 7.31208 19.4598 7.32782 19.5359C7.34356 19.6119 7.38145 19.6815 7.43671 19.736C7.49196 19.7905 7.5621 19.8273 7.63826 19.8419C7.71441 19.8564 7.79316 19.848 7.86455 19.8177C7.93594 19.7874 7.99677 19.7366 8.03933 19.6717C8.06761 19.6286 8.08713 19.5804 8.09677 19.5297C8.10642 19.479 8.106 19.427 8.09555 19.3764C8.08509 19.3259 8.06481 19.278 8.03584 19.2353C8.00688 19.1927 7.96981 19.1562 7.92676 19.1279ZM16.1435 19.0867C16.0742 19.1217 16.0169 19.1764 15.9787 19.244C15.9405 19.3116 15.9232 19.389 15.929 19.4665C15.9347 19.544 15.9633 19.618 16.011 19.6792C16.0588 19.7403 16.1236 19.786 16.1972 19.8103C16.2709 19.8346 16.3501 19.8365 16.4248 19.8157C16.4995 19.7949 16.5664 19.7525 16.617 19.6936C16.6676 19.6348 16.6996 19.5622 16.709 19.4851C16.7185 19.408 16.7049 19.3299 16.6699 19.2605C16.6468 19.2144 16.6149 19.1734 16.5759 19.1397C16.5369 19.106 16.4916 19.0803 16.4427 19.0642C16.3938 19.048 16.3422 19.0417 16.2909 19.0456C16.2395 19.0495 16.1894 19.0634 16.1435 19.0867ZM11.5902 15.1244C11.738 14.8985 11.8064 14.6296 11.7845 14.3604C11.7625 14.0913 11.6516 13.8371 11.4692 13.6381C11.2868 13.4392 11.0434 13.3069 10.7774 13.2621C10.5115 13.2174 10.2383 13.2627 10.001 13.391C9.76369 13.5193 9.57591 13.7232 9.46734 13.9705C9.35878 14.2177 9.33566 14.4942 9.40162 14.756C9.46758 15.0179 9.61887 15.2503 9.83153 15.4164C10.0442 15.5824 10.3061 15.6727 10.5757 15.6729C10.7771 15.6736 10.9755 15.6238 11.1527 15.5279C11.3299 15.4321 11.4803 15.2934 11.5902 15.1244ZM9.16844 16.9875C9.06829 16.9219 8.95096 16.8875 8.83128 16.8886C8.7116 16.8898 8.59495 16.9264 8.49608 16.994C8.3972 17.0615 8.32053 17.1569 8.27577 17.2681C8.231 17.3792 8.22015 17.5012 8.24458 17.6186C8.26902 17.7359 8.32764 17.8434 8.41303 17.9274C8.49843 18.0113 8.60677 18.0681 8.72435 18.0904C8.84194 18.1127 8.9635 18.0997 9.07366 18.0528C9.18383 18.0059 9.27765 17.9274 9.34327 17.8272C9.43116 17.6926 9.46212 17.5285 9.42934 17.3711C9.39656 17.2137 9.30272 17.0757 9.16844 16.9875ZM11.994 19.3109C11.8955 19.3053 11.7976 19.3291 11.7127 19.3792C11.6277 19.4293 11.5595 19.5035 11.5166 19.5925C11.4737 19.6814 11.4582 19.7811 11.4719 19.8789C11.4856 19.9767 11.5279 20.0683 11.5935 20.142C11.6592 20.2157 11.7451 20.2682 11.8406 20.293C11.9361 20.3178 12.0367 20.3137 12.1298 20.2812C12.2229 20.2486 12.3043 20.1892 12.3637 20.1104C12.4231 20.0315 12.4578 19.9368 12.4635 19.8382C12.4673 19.7727 12.4581 19.7071 12.4365 19.6451C12.415 19.5832 12.3814 19.5261 12.3378 19.4771C12.2942 19.4282 12.2414 19.3883 12.1824 19.3598C12.1234 19.3312 12.0594 19.3146 11.994 19.3109ZM11.9995 16.1684C11.8587 16.1598 11.7185 16.1933 11.5968 16.2646C11.475 16.3358 11.3771 16.4417 11.3154 16.5688C11.2538 16.6958 11.2311 16.8384 11.2504 16.9783C11.2697 17.1182 11.33 17.2493 11.4237 17.3549C11.5174 17.4605 11.6403 17.5358 11.7768 17.5714C11.9133 17.607 12.0573 17.6012 12.1905 17.5547C12.3237 17.5083 12.4402 17.4233 12.5251 17.3105C12.61 17.1977 12.6597 17.0622 12.6676 16.9212C12.6785 16.7327 12.6143 16.5475 12.489 16.4064C12.3637 16.2652 12.1877 16.1796 11.9995 16.1684ZM14.9137 16.9391C14.8068 16.9935 14.7184 17.0783 14.6597 17.183C14.6009 17.2877 14.5745 17.4075 14.5838 17.5273C14.5931 17.647 14.6376 17.7613 14.7118 17.8557C14.7859 17.95 14.8864 18.0202 15.0004 18.0574C15.1144 18.0946 15.2369 18.097 15.3523 18.0645C15.4677 18.0319 15.5708 17.9657 15.6487 17.8744C15.7266 17.7831 15.7756 17.6707 15.7897 17.5514C15.8037 17.4321 15.7821 17.3114 15.7276 17.2044C15.6916 17.1334 15.642 17.0702 15.5816 17.0185C15.5212 16.9667 15.4512 16.9274 15.3756 16.9027C15.3 16.8781 15.2203 16.8686 15.1411 16.8748C15.0618 16.8811 14.9846 16.9029 14.9137 16.9391Z" fill="#003CCC"/>
</svg>
