<svg width="24" height="24" viewBox="0 0 24 24" fill="none" xmlns="http://www.w3.org/2000/svg">
<path d="M18.1677 5.43085H5.81903V16.6543H18.1677V5.43085Z" fill="white"/>
<path fill-rule="evenodd" clip-rule="evenodd" d="M21.9933 12C21.9933 17.5156 17.5192 21.9867 12 21.9867C6.48082 21.9867 2.00665 17.5156 2.00665 12C2.00665 6.48449 6.48082 2.01329 12 2.01329C17.5192 2.01329 21.9933 6.48449 21.9933 12ZM9.16817 15.9742H7.22874C6.82121 15.9742 6.61991 15.9742 6.49716 15.8957C6.36459 15.8098 6.28358 15.6675 6.27376 15.5105C6.26639 15.3658 6.36705 15.1891 6.56836 14.8358L11.357 6.40072C11.5608 6.04253 11.6639 5.86344 11.794 5.7972C11.934 5.72606 12.1009 5.72606 12.2408 5.7972C12.371 5.86344 12.4741 6.04253 12.6778 6.40072L13.6623 8.11806L13.6673 8.12683C13.8874 8.5111 13.999 8.70596 14.0477 8.91048C14.1017 9.13374 14.1017 9.36926 14.0477 9.59252C13.9986 9.7986 13.8881 9.99487 13.6647 10.385L11.1493 14.8285L11.1428 14.8399C10.9213 15.2273 10.809 15.4237 10.6534 15.5718C10.484 15.7338 10.2803 15.8515 10.0569 15.9178C9.85311 15.9742 9.6248 15.9742 9.16817 15.9742ZM14.0659 15.9742H16.8448C17.2548 15.9742 17.4611 15.9742 17.5839 15.8933C17.7164 15.8074 17.7999 15.6626 17.8073 15.5057C17.8144 15.3657 17.7159 15.1959 17.523 14.8631C17.5163 14.8518 17.5096 14.8403 17.5029 14.8285L16.1108 12.4488L16.095 12.422C15.8994 12.0914 15.8007 11.9245 15.6739 11.86C15.534 11.7888 15.3694 11.7888 15.2295 11.86C15.1019 11.9262 14.9988 12.1004 14.795 12.4512L13.4079 14.831L13.4032 14.8392C13.2001 15.1894 13.0987 15.3645 13.106 15.5081C13.1158 15.6652 13.1968 15.8098 13.3294 15.8957C13.4497 15.9742 13.6559 15.9742 14.0659 15.9742Z" fill="#E84142"/>
</svg>
