<svg width="24" height="24" viewBox="0 0 24 24" fill="none" xmlns="http://www.w3.org/2000/svg">
<path d="M14.2415 14.3657C13.7483 14.6326 13.2269 14.8431 12.6868 14.9933C12.5031 15.0527 12.3964 15.0497 12.335 14.8394C12.2108 14.435 12.0809 14.0327 11.9509 13.6304C11.865 13.3645 11.7791 13.0985 11.6948 12.8318C11.6549 12.7093 11.6208 12.5997 11.8123 12.5342L11.8998 12.5039C12.5639 12.2742 13.2263 12.045 13.9416 12.0465C14.5887 12.049 15.0201 12.3074 15.1761 12.7882C15.3492 13.3351 15.1506 13.7945 14.5833 14.1745C14.5207 14.2115 14.458 14.2458 14.3956 14.2799C14.3439 14.3081 14.2924 14.3362 14.2415 14.3657Z" fill="url(#paint0_linear_927_79293)"/>
<path d="M12.5866 10.9317C12.6206 10.9118 12.6543 10.8921 12.6874 10.873C12.8146 10.8061 12.9381 10.7325 13.0575 10.6524C13.4808 10.3476 13.6547 9.91541 13.5346 9.49961C13.3899 9.00747 13.0291 8.74549 12.4749 8.72798C12.1159 8.7269 11.7588 8.78076 11.4159 8.8877L11.4078 8.88994C10.5225 9.13599 10.522 9.13615 10.7878 9.98867C10.8018 10.0589 10.8225 10.1277 10.8496 10.194C10.9224 10.3332 10.956 10.5086 10.989 10.6805C11.0481 10.9884 11.1051 11.285 11.3807 11.3426C11.7506 11.4202 12.1962 11.1598 12.5866 10.9317Z" fill="url(#paint1_linear_927_79293)"/>
<path fill-rule="evenodd" clip-rule="evenodd" d="M15.9205 21.2528C15.6191 21.2761 15.3418 21.3808 15.0641 21.4856C14.9046 21.5458 14.7451 21.606 14.5808 21.6509C12.3413 22.2603 9.95989 22.0676 7.84698 21.1063C5.73406 20.1449 4.02207 18.4751 3.00612 16.3846C1.99018 14.2941 1.73394 11.9139 2.28158 9.6544C2.82922 7.39488 4.14642 5.39761 6.00612 4.00686C10.4363 0.648095 16.8604 1.60987 20.0846 6.10998C23.245 10.5192 22.4207 16.3956 18.1562 19.8543C18.1414 19.8664 18.1236 19.8767 18.1058 19.8871C18.0512 19.9188 17.9955 19.9512 18.0164 20.0403L15.9205 21.2528ZM15.2562 10.4335C15.7373 9.62946 15.8157 9.28645 15.6585 8.6802C15.3375 7.44237 14.4955 6.91685 13.0697 7.03963C12.9619 7.048 12.8461 7.08045 12.7313 7.1126C12.5026 7.1767 12.2782 7.2396 12.1293 7.10812C11.9741 6.97105 11.9264 6.73436 11.8787 6.49712C11.8576 6.39261 11.8366 6.288 11.8063 6.19175C11.6665 5.74655 11.5969 5.52478 11.4529 5.45236C11.3104 5.38077 11.0951 5.45476 10.6669 5.60191L10.647 5.60874C10.4218 5.68568 10.3492 5.78105 10.4395 6.01349C10.5361 6.26275 10.6166 6.51709 10.6973 6.77221C10.7162 6.83221 10.7352 6.89227 10.7545 6.9523C10.9456 7.56192 10.9445 7.56226 10.3325 7.7459L10.3168 7.75061C10.1322 7.80564 10.0349 7.79079 9.97705 7.57836C9.86051 7.14917 9.71869 6.72652 9.56909 6.30998C9.56212 6.28936 9.55598 6.26677 9.5497 6.2437C9.51478 6.1154 9.47588 5.97247 9.27115 6.07309C9.16625 6.12492 9.04833 6.14925 8.93064 6.17353C8.70433 6.22023 8.47884 6.26675 8.34827 6.50831C8.33261 6.53656 8.35695 6.58671 8.38094 6.63615C8.39333 6.66168 8.40563 6.68702 8.41228 6.70906C8.45294 6.83615 8.49255 6.96385 8.53216 7.09154C8.62018 7.37529 8.7082 7.65905 8.80774 7.93614C8.89571 8.18127 8.82979 8.29381 8.58231 8.36581C8.32186 8.44193 8.06367 8.52671 7.80542 8.61151C7.50332 8.71071 7.20116 8.80992 6.89526 8.89532C6.64516 8.96559 6.63135 9.05931 6.70087 9.28924L6.70954 9.31779C6.97392 10.1892 6.9743 10.1904 7.84964 9.9689C7.88998 9.95363 7.93129 9.94108 7.97329 9.93134C8.31563 9.89506 8.56699 9.99229 8.67814 10.3421C9.19937 11.9677 9.7222 13.5923 10.2467 15.2161C10.3483 15.5325 10.2699 15.7299 9.95631 15.8693C9.87241 15.9053 9.77358 15.9251 9.67541 15.9447C9.47063 15.9857 9.26867 16.0262 9.21077 16.2116C9.15136 16.4019 9.19788 16.6103 9.24462 16.8197C9.26527 16.9122 9.28597 17.005 9.29759 17.0964C9.30917 17.1529 9.31678 17.2101 9.32037 17.2676C9.3167 17.5722 9.46151 17.5742 9.70182 17.4869C10.0822 17.3496 10.4682 17.2279 10.857 17.1052L11.0594 17.0413C11.6656 16.852 11.6657 16.8523 11.8661 17.4757L11.8674 17.4797C11.8919 17.5544 11.9172 17.6291 11.9425 17.7038C11.9677 17.7785 11.9931 17.8535 12.0176 17.9282C12.1547 18.3491 12.2235 18.5602 12.3622 18.6287C12.5017 18.6976 12.7118 18.6226 13.1332 18.4722L13.1535 18.4649C13.3749 18.387 13.4477 18.2947 13.3629 18.0607C13.2096 17.6285 13.0662 17.1928 12.9326 16.7535C12.839 16.4362 13.0232 16.4083 13.2044 16.3808C13.2789 16.3695 13.3529 16.3583 13.4069 16.3271C13.5921 16.2199 13.7395 16.1702 13.8133 16.4721C13.8699 16.7088 13.949 16.943 14.0283 17.1779C14.0917 17.366 14.1554 17.5545 14.2077 17.745C14.2858 18.0234 14.4205 18.0555 14.6744 17.9749L14.6936 17.9687C15.4911 17.7112 15.4925 17.7107 15.2368 16.8973C15.2047 16.7944 15.1592 16.6873 15.1137 16.5801C15.0076 16.3303 14.9013 16.08 14.963 15.8814C15.0304 15.664 15.2954 15.5797 15.5596 15.4957C15.6764 15.4585 15.7929 15.4215 15.8922 15.373C17.4567 14.5973 17.9583 13.3916 17.384 11.7729C17.1053 10.9895 16.5499 10.5634 15.7273 10.4667C15.5753 10.4495 15.4199 10.4375 15.2562 10.4335Z" fill="url(#paint2_linear_927_79293)"/>
<defs>
<linearGradient id="paint0_linear_927_79293" x1="-5.7" y1="9.44297" x2="9.18594" y2="29.443" gradientUnits="userSpaceOnUse">
<stop stop-color="#8CD22F"/>
<stop offset="1" stop-color="#669919"/>
</linearGradient>
<linearGradient id="paint1_linear_927_79293" x1="-5.7" y1="9.44297" x2="9.18594" y2="29.443" gradientUnits="userSpaceOnUse">
<stop stop-color="#8CD22F"/>
<stop offset="1" stop-color="#669919"/>
</linearGradient>
<linearGradient id="paint2_linear_927_79293" x1="-5.7" y1="9.44297" x2="9.18594" y2="29.443" gradientUnits="userSpaceOnUse">
<stop stop-color="#8CD22F"/>
<stop offset="1" stop-color="#669919"/>
</linearGradient>
</defs>
</svg>
