<svg width="24" height="24" viewBox="0 0 24 24" fill="none" xmlns="http://www.w3.org/2000/svg">
<path fill-rule="evenodd" clip-rule="evenodd" d="M22 12C22 17.5228 17.5228 22 12 22C6.47715 22 2 17.5228 2 12C2 6.47715 6.47715 2 12 2C17.5228 2 22 6.47715 22 12ZM12.0001 5.31731L8.45337 7.3645L9.75732 8.12078L12.0001 6.82988L14.2429 8.12078L15.5468 7.3645L12.0001 5.31731ZM14.2429 9.19002L15.5468 9.9463L15.5468 11.4589L13.304 12.7497V15.3315L12.0001 16.0879L10.6961 15.3315V12.7497L8.45337 11.4589V9.9463L9.75732 9.19002L12.0001 10.4809L14.2429 9.19002ZM15.5468 12.5281V14.0407L14.2429 14.7969V13.2844L15.5468 12.5281ZM14.2298 15.8662L16.4726 14.5753L16.4726 11.9935L17.7766 11.2372V15.3315L14.2298 17.3787V15.8662ZM16.4726 9.41168L15.1687 8.6554L16.4726 7.89911L17.7765 8.6554V10.168L16.4726 10.9243V9.41168ZM10.6961 17.9264V16.4139L12.0001 17.1701L13.304 16.4139V17.9264L12.0001 18.6827L10.6961 17.9264ZM9.75732 14.7969L8.45337 14.0407V12.5281L9.75732 13.2844V14.7969ZM12.0001 9.41168L10.6961 8.6554L12.0001 7.89911L13.304 8.6554L12.0001 9.41168ZM8.83151 8.6554L7.52757 9.41168L7.52757 10.9243L6.22363 10.168V8.6554L7.52757 7.89911L8.83151 8.6554ZM6.22363 11.2372L7.52757 11.9935V14.5753L9.77034 15.8662V17.3787L6.22363 15.3315V11.2372Z" fill="#F0B90B"/>
</svg>
