<svg width="24" height="24" viewBox="0 0 24 24" fill="none" xmlns="http://www.w3.org/2000/svg">
<path fill-rule="evenodd" clip-rule="evenodd" d="M22 12C22 17.5228 17.5228 22 12 22C6.47715 22 2 17.5228 2 12C2 6.47715 6.47715 2 12 2C17.5228 2 22 6.47715 22 12ZM4.26095 10.7826L5.7185 9.34786L7.17606 7.91308H9.56115H11.9462L13.1653 9.11308L14.3976 10.3261L15.5636 9.1783C16.1997 8.55221 16.7827 8.04351 16.8489 8.04351C17.0212 8.04351 19.5653 10.5479 19.5653 10.7174C19.5653 10.7826 18.9558 11.4479 18.2137 12.1783L16.8489 13.5218H14.7951H12.7413L13.7748 14.5392L14.7951 15.5435L13.3641 16.9522L11.9462 18.3479L10.5814 17.0044C9.83941 16.2739 9.22989 15.6087 9.22989 15.5435C9.22989 15.4783 9.74666 14.9044 10.3827 14.2783L11.5487 13.1305L10.5152 12.1261L9.4949 11.1087L8.2626 12.3218L7.04355 13.5218L5.65225 12.1522L4.26095 10.7826ZM16.3189 13L14.0663 10.7826L11.8137 8.56525H9.75991H7.70608L9.95867 10.7826L12.2113 13H14.2651H16.3189ZM9.16364 10.7826L8.16985 9.80438C7.62658 9.2696 7.14956 8.82612 7.10981 8.82612C7.07006 8.82612 6.59304 9.2696 6.04977 9.80438L5.05598 10.7826L6.08952 11.8L7.10981 12.8044L8.1301 11.8L9.16364 10.7826ZM18.8233 10.7826L17.8427 9.80438C17.2995 9.2696 16.8224 8.82612 16.7827 8.82612C16.7429 8.82612 16.2792 9.25656 15.7491 9.7783L14.7951 10.7174L15.8286 11.7348L16.8489 12.7392L17.8427 11.7609L18.8233 10.7826ZM11.9462 17.5653L12.9798 16.5479L14.0001 15.5435L12.9665 14.5261L11.9462 13.5218L10.9127 14.5392L9.89242 15.5435L10.926 16.5609L11.9462 17.5653Z" fill="url(#paint0_linear_1559_63932)"/>
<defs>
<linearGradient id="paint0_linear_1559_63932" x1="18.9565" y1="4.78261" x2="4.78261" y2="19.6522" gradientUnits="userSpaceOnUse">
<stop stop-color="#14B23D"/>
<stop offset="1" stop-color="#FFC100"/>
</linearGradient>
</defs>
</svg>
