<svg width="24" height="24" viewBox="0 0 24 24" fill="none" xmlns="http://www.w3.org/2000/svg">
<path fill-rule="evenodd" clip-rule="evenodd" d="M9.58001 21.7029C14.9384 23.039 20.3649 19.7783 21.7007 14.4206C23.0364 9.0625 19.7761 3.63505 14.418 2.29928C9.06121 0.963513 3.63469 4.22449 2.29955 9.58287C0.963158 14.9403 4.22382 20.3671 9.58001 21.7029ZM14.2097 8.05296C15.5952 8.5302 16.6084 9.24558 16.4093 10.5764C16.2653 11.5505 15.7252 12.0221 15.0083 12.1875C15.9927 12.7 16.4937 13.486 16.0165 14.8487C15.4242 16.541 14.0172 16.6839 12.1461 16.3298L11.692 18.1497L10.5947 17.8762L11.0428 16.0807C10.7584 16.0101 10.4678 15.935 10.1684 15.8538L9.71863 17.6577L8.62258 17.3843L9.07669 15.5609C8.97425 15.5347 8.87115 15.5078 8.76733 15.4807C8.61143 15.4401 8.45388 15.399 8.29442 15.359L6.86646 15.0031L7.4112 13.747C7.4112 13.747 8.21972 13.962 8.20879 13.9461C8.51944 14.023 8.65727 13.8204 8.71165 13.6854L9.42923 10.8086C9.45618 10.815 9.48257 10.8217 9.50803 10.828C9.52066 10.8312 9.53305 10.8343 9.54518 10.8373C9.50142 10.8198 9.46173 10.8086 9.4311 10.8007L9.94303 8.74709C9.95647 8.51394 9.87615 8.21985 9.43173 8.1089C9.44892 8.09734 8.63477 7.91075 8.63477 7.91075L8.92667 6.73875L10.44 7.11661L10.4387 7.12223C10.6662 7.1788 10.9006 7.23256 11.1394 7.28694L11.5891 5.48487L12.6858 5.75834L12.2452 7.52509C12.5396 7.59228 12.8358 7.6601 13.1243 7.73199L13.5619 5.9768L14.6592 6.25027L14.2097 8.05296ZM10.7389 14.5889C11.6343 14.8254 13.5911 15.3422 13.9022 14.092C14.221 12.8138 12.3232 12.3879 11.3971 12.1801C11.2936 12.1569 11.2023 12.1364 11.1275 12.1178L10.525 14.5333C10.5864 14.5486 10.6583 14.5676 10.7389 14.5889ZM11.5832 11.0591C12.3297 11.2584 13.958 11.6929 14.2416 10.5567C14.5313 9.39444 12.9487 9.0441 12.1758 8.873C12.0888 8.85375 12.0121 8.83677 11.9495 8.82116L11.4032 11.012C11.4548 11.0249 11.5153 11.041 11.5832 11.0591Z" fill="#F7931A"/>
</svg>
