<svg width="24" height="24" viewBox="0 0 24 24" fill="none" xmlns="http://www.w3.org/2000/svg">
<path d="M22 11.9999C22 17.5228 17.5229 22 12.0001 22C6.47715 22 2 17.5228 2 11.9999C2 6.47712 6.47715 2 12.0001 2C17.5228 2 22 6.47712 22 11.9999" fill="#EFBA0C"/>
<path fill-rule="evenodd" clip-rule="evenodd" d="M13.819 6.83032L12.0004 4.97342L7.57724 9.42553L9.39664 11.2395L13.819 6.83032ZM16.4224 9.42589L14.6039 7.56909L7.57715 14.6166L9.39664 16.4306L16.4224 9.42589ZM8.6123 12.0215L6.79327 10.1642L4.97424 12.0215L6.79327 13.835L8.6123 12.0215ZM19.0258 12.0215L17.2072 10.1647L10.1805 17.2122L12 19.0262L19.0258 12.0215Z" fill="#252525"/>
</svg>
