<svg width="24" height="24" viewBox="0 0 24 24" fill="none" xmlns="http://www.w3.org/2000/svg">
<path fill-rule="evenodd" clip-rule="evenodd" d="M12 22C17.5228 22 22 17.5228 22 12C22 6.47715 17.5228 2 12 2C6.47715 2 2 6.47715 2 12C2 17.5228 6.47715 22 12 22ZM14.2333 7.33321H12.6001C11.3206 7.33321 10.279 8.38725 10.279 9.66679C10.279 10.9463 11.3206 12 12.6001 12H14.2333V14.3332H12.6001C11.5697 14.3333 10.5683 13.9924 9.75197 13.3638C8.93561 12.7351 8.35018 11.8541 8.08694 10.8579C7.91444 11.5454 7.90062 12.263 8.04653 12.9566C8.19244 13.6502 8.49426 14.3014 8.92911 14.8611C9.36397 15.4208 9.92048 15.8742 10.5565 16.187C11.1925 16.4997 11.8914 16.6637 12.6001 16.6664H14.2333V19H12.6001C8.73683 18.9963 5.6001 15.8636 5.6001 12C5.6001 8.17764 8.66978 5.07147 12.4752 5.00184C12.5168 5 14.2333 5 14.2333 5V7.33321Z" fill="#144BFE"/>
</svg>
