<svg width="24" height="24" viewBox="0 0 24 24" fill="none" xmlns="http://www.w3.org/2000/svg">
<path d="M12.0011 2C10.0232 1.99978 8.08965 2.58611 6.44499 3.68485C4.80033 4.78358 3.51843 6.34535 2.76142 8.17266C2.00441 9.99996 1.80628 12.0107 2.1921 13.9506C2.57792 15.8905 3.53035 17.6725 4.92894 19.0711C6.32753 20.4697 8.10946 21.4221 10.0494 21.8079C11.9893 22.1937 14 21.9956 15.8273 21.2386C17.6547 20.4816 19.2164 19.1997 20.3152 17.555C21.4139 15.9104 22.0002 13.9768 22 11.9989C21.9962 9.34819 20.9415 6.80713 19.0672 4.93279C17.1929 3.05845 14.6518 2.00378 12.0011 2ZM18.2643 5.80722L18.8585 5.18222C20.0443 6.37284 20.8995 7.85187 21.3398 9.47359L20.4958 9.67715C20.3164 9.71223 20.1306 9.69247 19.9626 9.62044C19.7946 9.54841 19.6522 9.42745 19.5539 9.27333L18.1433 6.83054C18.0578 6.66769 18.0236 6.48278 18.0452 6.30013C18.0668 6.11748 18.1432 5.94564 18.2643 5.80722ZM12.0011 2.33011C12.8372 2.32926 13.6698 2.43727 14.478 2.65141L14.2326 3.48437C14.1719 3.65582 14.0613 3.80518 13.915 3.91323C13.7687 4.02128 13.5935 4.08308 13.4118 4.09067H10.5916C10.409 4.08273 10.2331 4.02002 10.0867 3.9107C9.94028 3.80139 9.83017 3.65053 9.77069 3.47777L9.52421 2.64701C10.3326 2.43441 11.1652 2.32788 12.0011 2.33011ZM5.14481 5.19102L5.7434 5.80612C5.86345 5.94422 5.93918 6.11524 5.96077 6.29695C5.98235 6.47866 5.94879 6.66266 5.86444 6.82504L4.44939 9.26782C4.35111 9.42195 4.20869 9.54291 4.04069 9.61494C3.87269 9.68697 3.68688 9.70673 3.50749 9.67165L2.66242 9.46809C3.10359 7.84811 3.95914 6.37099 5.14481 5.18222V5.19102ZM5.7434 18.1917L5.14811 18.8167C3.96189 17.6278 3.10529 16.1508 2.66242 14.5308L3.50749 14.3239C3.68688 14.2889 3.87269 14.3086 4.04069 14.3807C4.20869 14.4527 4.35111 14.5736 4.44939 14.7278L5.86004 17.1706C5.94561 17.3327 5.98026 17.5169 5.95945 17.6991C5.93864 17.8813 5.86334 18.053 5.7434 18.1917ZM12.0055 21.6732C11.1694 21.674 10.3368 21.566 9.52861 21.3519L9.77399 20.5189C9.8338 20.3462 9.94415 20.1953 10.0907 20.0861C10.2373 19.9768 10.4133 19.914 10.596 19.906H13.4162C13.5987 19.9141 13.7745 19.9769 13.9209 20.0862C14.0673 20.1955 14.1774 20.3462 14.237 20.5189L14.4824 21.3519C13.6727 21.5658 12.8386 21.6738 12.0011 21.6732H12.0055ZM12.0055 19.2524C10.5715 19.2526 9.16964 18.8276 7.9772 18.0311C6.78476 17.2345 5.85531 16.1023 5.30639 14.7775C4.75747 13.4527 4.61373 11.9949 4.89336 10.5884C5.17299 9.18195 5.86342 7.88998 6.87734 6.87591C7.89125 5.86184 9.18312 5.17121 10.5896 4.89137C11.996 4.61153 13.4538 4.75505 14.7787 5.30376C16.1036 5.85248 17.236 6.78176 18.0327 7.97408C18.8294 9.16639 19.2546 10.5682 19.2546 12.0022C19.2542 12.9543 19.0662 13.897 18.7015 14.7765C18.3367 15.656 17.8023 16.455 17.1287 17.1279C16.4552 17.8008 15.6557 18.3345 14.7759 18.6985C13.8961 19.0624 12.9532 19.2495 12.0011 19.2491L12.0055 19.2524ZM18.8629 18.82L18.2687 18.195C18.1488 18.057 18.0731 17.8862 18.0515 17.7047C18.0299 17.5232 18.0634 17.3394 18.1477 17.1772L19.5583 14.7344C19.6567 14.5803 19.799 14.4593 19.967 14.3871C20.135 14.3149 20.3207 14.2948 20.5002 14.3294L21.3442 14.5341C20.9013 16.1531 20.0446 17.629 18.8585 18.8167L18.8629 18.82Z" fill="white"/>
<path d="M12.0011 5.34507C10.6848 5.34485 9.39796 5.735 8.3034 6.46617C7.20883 7.19734 6.35568 8.23669 5.85185 9.45276C5.34802 10.6688 5.21613 12.007 5.47288 13.298C5.72963 14.5891 6.36347 15.775 7.29425 16.7057C8.22502 17.6365 9.41092 18.2704 10.7019 18.5271C11.993 18.7839 13.3312 18.652 14.5472 18.1481C15.7633 17.6443 16.8026 16.7912 17.5338 15.6966C18.265 14.602 18.6551 13.3152 18.6549 11.9989C18.6549 11.1251 18.4828 10.2599 18.1484 9.45259C17.814 8.64531 17.3239 7.9118 16.7061 7.29393C16.0882 6.67607 15.3547 6.18595 14.5474 5.85157C13.7401 5.51718 12.8749 5.34507 12.0011 5.34507ZM15.7687 15.1316C15.7436 15.1712 15.7076 15.2027 15.6651 15.2222C15.6225 15.2417 15.5752 15.2485 15.5288 15.2416L12.5128 14.6574C12.4236 14.6386 12.3939 14.686 12.4445 14.7674L14.0356 17.0781C14.0885 17.154 14.0554 17.2135 13.9652 17.2135H10.0502C9.95994 17.2135 9.92803 17.1529 9.97864 17.0781L11.5753 14.7641C11.6259 14.6882 11.594 14.6408 11.507 14.654L8.54378 15.2273C8.49684 15.2338 8.44902 15.2269 8.40581 15.2075C8.3626 15.188 8.32576 15.1568 8.29951 15.1173L7.10122 13.0662C7.07936 13.0237 7.06964 12.9759 7.07314 12.9281C7.07663 12.8804 7.0932 12.8345 7.12103 12.7956L11.9054 6.83495C11.9173 6.81879 11.9329 6.80566 11.9509 6.79662C11.9689 6.78757 11.9887 6.78286 12.0088 6.78286C12.0289 6.78286 12.0487 6.78757 12.0667 6.79662C12.0847 6.80566 12.1003 6.81879 12.1122 6.83495L16.8823 12.7768C16.9102 12.8163 16.9271 12.8624 16.9314 12.9106C16.9357 12.9587 16.927 13.0071 16.9065 13.0508L15.7687 15.1316Z" fill="white"/>
</svg>
