<svg width="24" height="24" viewBox="0 0 24 24" fill="none" xmlns="http://www.w3.org/2000/svg">
<path fill-rule="evenodd" clip-rule="evenodd" d="M22 12C22 17.5228 17.5228 22 12 22C6.47715 22 2 17.5228 2 12C2 6.47715 6.47715 2 12 2C17.5228 2 22 6.47715 22 12ZM12.0168 7.29073H8.20752V10.3484H6.88383V11.4437H8.20752V12.5934H6.88383V13.6888H8.20752V16.7094H12.0168C14.3078 16.7094 16.0505 15.4758 16.7211 13.6888H17.9304V12.5934H16.9863C17.0095 12.3992 17.0213 12.2009 17.0213 11.9992V11.9723C17.0213 11.7931 17.0119 11.6168 16.9936 11.4437H17.9304V10.3484H16.7437C16.0902 8.53614 14.3339 7.29073 12.0168 7.29073ZM9.27246 15.7268V13.6888H15.5543C14.9686 14.9105 13.7104 15.7268 12.0168 15.7268H9.27246ZM9.27246 12.5934H15.8805C15.9062 12.409 15.9193 12.2196 15.9193 12.0261V11.9992C15.9193 11.8101 15.9067 11.6247 15.8822 11.4437H9.27246V12.5934ZM15.5623 10.3484C14.9802 9.10948 13.7182 8.27171 12.0168 8.27171H9.27246V10.3484H15.5623Z" fill="#FDC134"/>
</svg>
