<svg width="24" height="24" viewBox="0 0 24 24" fill="none" xmlns="http://www.w3.org/2000/svg">
<path d="M10.5688 8.21939H12.1343C12.7258 8.21939 15.7058 8.45421 15.7114 12.1319C15.7169 15.7716 12.7173 15.7688 12.2423 15.7683C12.2373 15.7683 12.2326 15.7683 12.2282 15.7683V15.784H10.5688V12.653H13.0736V11.3503H10.5688V8.21939Z" fill="#C1A632"/>
<path fill-rule="evenodd" clip-rule="evenodd" d="M6.4443 3.6853C8.08879 2.58649 10.0222 2 12 2C14.6522 2 17.1957 3.05357 19.0711 4.92893C20.9464 6.8043 22 9.34783 22 12C22 13.9778 21.4135 15.9112 20.3147 17.5557C19.2159 19.2002 17.6541 20.4819 15.8268 21.2388C13.9996 21.9957 11.9889 22.1937 10.0491 21.8078C8.10929 21.422 6.32746 20.4696 4.92894 19.0711C3.53041 17.6725 2.578 15.8907 2.19215 13.9509C1.8063 12.0111 2.00433 10.0004 2.76121 8.17316C3.51809 6.3459 4.79981 4.78412 6.4443 3.6853ZM8.30661 17.9823H12.3131C12.3131 17.9823 17.9499 18.4553 17.9499 12.0973C17.9499 5.99712 12.8304 6.02249 11.8206 6.02749C11.795 6.02762 11.772 6.02773 11.7518 6.02773H8.30661V11.3514H6.89433V12.6575H8.30661V17.9823Z" fill="#C1A632"/>
</svg>
