<svg width="24" height="24" viewBox="0 0 24 24" fill="none" xmlns="http://www.w3.org/2000/svg">
<path d="M21.7007 14.4206C20.3649 19.7783 14.9384 23.039 9.58001 21.7029C4.22382 20.3671 0.963158 14.9403 2.29955 9.58287C3.63469 4.22449 9.06121 0.963513 14.418 2.29928C19.7761 3.63505 23.0364 9.0625 21.7007 14.4206Z" fill="#C9CDD4"/>
<path fill-rule="evenodd" clip-rule="evenodd" d="M12.0117 4L11.8901 4.36456V14.9367L12.0117 15.0582L16.9129 12.162L12.0117 4Z" fill="#343434"/>
<path fill-rule="evenodd" clip-rule="evenodd" d="M12.0117 15.9898L11.9307 16.0506V19.8177L12.0117 19.9999L16.9129 13.0734L12.0117 15.9898Z" fill="#3C3C3B"/>
<path fill-rule="evenodd" clip-rule="evenodd" d="M12.0116 4L7.09009 12.162L12.0116 15.0582V4Z" fill="#8C8C8C"/>
<path fill-rule="evenodd" clip-rule="evenodd" d="M12.0116 20V15.9899L7.09009 13.0734L12.0116 20Z" fill="#8C8C8C"/>
<path fill-rule="evenodd" clip-rule="evenodd" d="M12.0117 15.0582L16.913 12.162L12.0117 9.91394V15.0582Z" fill="#141414"/>
<path fill-rule="evenodd" clip-rule="evenodd" d="M7.09009 12.162L12.0116 15.0582V9.91394L7.09009 12.162Z" fill="#393939"/>
</svg>
