<svg width="24" height="24" viewBox="0 0 24 24" fill="none" xmlns="http://www.w3.org/2000/svg">
<circle cx="12" cy="12" r="10" fill="#0052B4"/>
<path d="M12 4.96875L12.374 6.11978H13.5842L12.6051 6.83113L12.9791 7.98212L12 7.27081L11.0209 7.98212L11.3949 6.83113L10.4158 6.11978H11.626L12 4.96875Z" fill="#FFDA44"/>
<path d="M7.02814 7.02818L8.10649 7.57754L8.9623 6.72187L8.77293 7.91721L9.85129 8.46662L8.65594 8.65594L8.46662 9.85129L7.91712 8.77293L6.72187 8.9623L7.57759 8.10649L7.02814 7.02818Z" fill="#FFDA44"/>
<path d="M4.96875 12L6.11973 11.626L6.11978 10.4158L6.83113 11.3949L7.98212 11.0209L7.27081 12L7.98212 12.9791L6.83113 12.6051L6.11978 13.5842V12.374L4.96875 12Z" fill="#FFDA44"/>
<path d="M7.02814 16.9719L7.57754 15.8935L6.72187 15.0377L7.91721 15.2271L8.46657 14.1488L8.65594 15.3441L9.85124 15.5334L8.77297 16.0829L8.9623 17.2782L8.10649 16.4224L7.02814 16.9719Z" fill="#FFDA44"/>
<path d="M12 19.0312L11.626 17.8803L10.4158 17.8802L11.3949 17.1689L11.0209 16.0179L12 16.7292L12.9791 16.0179L12.6051 17.1689L13.5842 17.8802H12.374L12 19.0312Z" fill="#FFDA44"/>
<path d="M16.9718 16.9719L15.8935 16.4225L15.0377 17.2782L15.2271 16.0828L14.1488 15.5334L15.3441 15.3441L15.5334 14.1488L16.0828 15.2271L17.2781 15.0377L16.4224 15.8936L16.9718 16.9719Z" fill="#FFDA44"/>
<path d="M19.0312 12L17.8802 12.374V13.5842L17.1689 12.6051L16.0179 12.9791L16.7292 12L16.0179 11.0209L17.1689 11.3949L17.8802 10.4158V11.626L19.0312 12Z" fill="#FFDA44"/>
<path d="M16.9718 7.02818L16.4225 8.10649L17.2782 8.9623L16.0828 8.77293L15.5334 9.85124L15.3441 8.65594L14.1488 8.46657L15.2271 7.91721L15.0377 6.72192L15.8936 7.57759L16.9718 7.02818Z" fill="#FFDA44"/>
</svg>
