<svg width="24" height="24" viewBox="0 0 24 24" fill="none" xmlns="http://www.w3.org/2000/svg">
<path d="M17.9009 3.92412C14.8277 4.31805 11.7695 5.59171 10.6324 8.20925H19.8943L18.8651 10.5911H10.0429C9.99724 11.02 9.97633 11.4512 9.98032 11.8826C9.97493 12.337 10.0166 12.7907 10.1046 13.2365H17.65L16.6208 15.6343H11.0543C12.3176 17.717 15.5391 19.069 18.9113 19.2258C19.9681 18.2147 20.7902 16.9847 21.3201 15.6223C21.8499 14.2599 22.0746 12.7981 21.9783 11.3397C21.882 9.8813 21.467 8.46166 20.7626 7.18054C20.0582 5.89942 19.0814 4.78791 17.9009 3.92412ZM2 12.0004C1.99868 13.6568 2.4097 15.2875 3.19607 16.7458C3.98245 18.2042 5.11952 19.4444 6.50498 20.3549C7.89044 21.2655 9.48082 21.8177 11.133 21.962C12.7852 22.1063 14.4475 21.8381 15.9701 21.1815C15.4872 21.1322 15.0071 21.0575 14.532 20.9579C13.517 20.7457 12.5362 20.3947 11.6173 19.9146C9.84251 19.0102 8.46152 17.4871 7.736 15.6338H4.40036L5.41174 13.2361H7.14362C7.0832 12.7663 7.05216 12.2932 7.05067 11.8196C7.05067 11.3629 7.06672 10.9533 7.09883 10.5906H4.4018L5.41319 8.20877H7.58044C8.23148 6.23832 9.59247 4.57979 11.3991 3.5552C12.3711 2.98399 13.4263 2.56774 14.5267 2.32146C13.0466 1.93725 11.4981 1.89687 9.99992 2.20342C8.50177 2.50998 7.09387 3.15531 5.88433 4.08988C4.67479 5.02445 3.69576 6.2234 3.02242 7.59468C2.34907 8.96596 1.99932 10.4731 2 12.0004Z" fill="url(#paint0_linear_927_79331)"/>
<defs>
<linearGradient id="paint0_linear_927_79331" x1="18.5219" y1="3.9997" x2="9.04352" y2="17.5235" gradientUnits="userSpaceOnUse">
<stop stop-color="#8656EF"/>
<stop offset="0.97" stop-color="#1AA3FF"/>
</linearGradient>
</defs>
</svg>
