<svg width="24" height="24" viewBox="0 0 24 24" fill="none" xmlns="http://www.w3.org/2000/svg">
<path fill-rule="evenodd" clip-rule="evenodd" d="M12 22C17.5228 22 22 17.5228 22 12C22 6.47715 17.5228 2 12 2C6.47715 2 2 6.47715 2 12C2 17.5228 6.47715 22 12 22Z" fill="#DE8A0C"/>
<path d="M7.58719 13.5761V11.8767H11.5071C12.0201 11.8767 12.3808 11.7484 12.5892 11.4919C12.7977 11.2301 12.9206 10.9014 12.958 10.5059H7.58719V9.46385H12.95C12.9019 9.09511 12.7816 8.77713 12.5892 8.50993C12.3969 8.24273 12.0682 8.10912 11.6033 8.10912H7.58719V6.41772H16.4129V7.45982H14.5291C14.7536 7.71633 14.9219 8.01293 15.0342 8.34961C15.1464 8.68628 15.2159 9.0577 15.2426 9.46385H16.4129V10.5059H15.2426C15.2052 11.1152 15.0662 11.6576 14.8257 12.1332C14.5853 12.6088 14.1497 12.9749 13.5191 13.2314L15.8037 18.2495H13.3347L11.2586 13.5761H7.58719Z" fill="white"/>
</svg>
