<svg width="24" height="24" viewBox="0 0 24 24" fill="none" xmlns="http://www.w3.org/2000/svg">
<path d="M11.9989 2C13.9767 1.99978 15.9103 2.58608 17.5549 3.68476C19.1995 4.78344 20.4814 6.34515 21.2385 8.17239C21.9955 9.99963 22.1937 12.0103 21.808 13.9502C21.4223 15.8901 20.4699 17.672 19.0715 19.0707C17.673 20.4693 15.8912 21.4218 13.9513 21.8078C12.0115 22.1937 10.0008 21.9957 8.17342 21.2389C6.3461 20.4821 4.78425 19.2003 3.68538 17.5558C2.58652 15.9113 2 13.9779 2 12C2 9.34803 3.05342 6.80466 4.92854 4.92933C6.80366 3.05399 9.34691 2.0003 11.9989 2ZM10.4136 5.8495L8.85842 11.7269L7.78707 12.1416L7.27202 14.0702L8.34337 13.6656L7.45151 17.0279H17.0167L17.6734 14.5329H11.9175L12.5741 12.0881L13.6243 11.6934L14.1394 9.76477L13.0881 10.1695L14.2297 5.84615H10.4136V5.8495Z" fill="url(#paint0_linear_927_79259)"/>
<defs>
<linearGradient id="paint0_linear_927_79259" x1="-5.7" y1="9.44297" x2="9.18593" y2="29.443" gradientUnits="userSpaceOnUse">
<stop stop-color="#C7C7C7"/>
<stop offset="1" stop-color="#9C9C9C"/>
</linearGradient>
</defs>
</svg>
