<svg width="24" height="24" viewBox="0 0 24 24" fill="none" xmlns="http://www.w3.org/2000/svg">
<path d="M12 22C17.5357 22 22 17.5357 22 12C22 6.46429 17.5357 2 12 2C6.46429 2 2 6.46429 2 12C2 17.5357 6.46429 22 12 22Z" fill="white"/>
<path d="M10.251 10.0745L8.93824 9.35196L5 11.5196V15.8399L8.93824 18L12.8765 15.8399V9.12104L15.0618 7.92179L17.2471 9.12104V11.5196L15.0618 12.7188L13.749 11.9963V13.9181L15.0618 14.6406L19 12.4804V8.16015L15.0618 6L11.1235 8.16015V14.879L8.93824 16.0782L6.75295 14.879V12.473L8.93824 11.2737L10.251 11.9963V10.0745Z" fill="#6C00F6"/>
</svg>
