<svg width="24" height="24" viewBox="0 0 24 24" fill="none" xmlns="http://www.w3.org/2000/svg">
<path fill-rule="evenodd" clip-rule="evenodd" d="M12.0121 22C17.526 22 22 17.526 22 12.0121C22 6.474 17.526 2 12.0121 2C6.474 2 2 6.474 2 12.0121C2 17.526 6.474 22 12.0121 22ZM12.0121 3.81378C14.1161 3.81378 16.0508 4.63603 17.5018 5.96614L11.9637 9.40024L6.474 5.96614C7.92503 4.63603 9.85973 3.81378 12.0121 3.81378ZM17.7195 6.13543C19.243 7.63482 20.1862 9.71463 20.1862 12.0121C20.1862 12.8343 20.0653 13.6324 19.8235 14.4063L16.5103 8.96493L17.7195 8.21524V6.13543ZM19.1463 15.9782C17.7678 18.4692 15.0834 20.1862 12.0121 20.1862C8.91657 20.1862 6.23216 18.4692 4.85369 15.9782H5.53083L9.13422 10.029L10.9722 11.1657L11.0689 16.3168H13.0762L13.0036 11.1415L14.7932 10.029L18.4208 15.9782H19.1463ZM4.17654 14.3579C3.9347 13.6082 3.81378 12.8343 3.81378 12.0121C3.81378 9.73881 4.73277 7.68319 6.23216 6.1838V8.21524L7.41717 8.96493L4.17654 14.3579Z" fill="#D4CCD3"/>
<path fill-rule="evenodd" clip-rule="evenodd" d="M12.0121 22C17.526 22 22 17.526 22 12.0121C22 6.474 17.526 2 12.0121 2C6.474 2 2 6.474 2 12.0121C2 17.526 6.474 22 12.0121 22ZM12.0121 3.81378C14.1161 3.81378 16.0508 4.63603 17.5018 5.96614L11.9637 9.40024L6.474 5.96614C7.92503 4.63603 9.85973 3.81378 12.0121 3.81378ZM17.7195 6.13543C19.243 7.63482 20.1862 9.71463 20.1862 12.0121C20.1862 12.8343 20.0653 13.6324 19.8235 14.4063L16.5103 8.96493L17.7195 8.21524V6.13543ZM19.1463 15.9782C17.7678 18.4692 15.0834 20.1862 12.0121 20.1862C8.91657 20.1862 6.23216 18.4692 4.85369 15.9782H5.53083L9.13422 10.029L10.9722 11.1657L11.0689 16.3168H13.0762L13.0036 11.1415L14.7932 10.029L18.4208 15.9782H19.1463ZM4.17654 14.3579C3.9347 13.6082 3.81378 12.8343 3.81378 12.0121C3.81378 9.73881 4.73277 7.68319 6.23216 6.1838V8.21524L7.41717 8.96493L4.17654 14.3579Z" fill="url(#paint0_linear_927_79337)"/>
<defs>
<linearGradient id="paint0_linear_927_79337" x1="-5.7" y1="9.44297" x2="9.18594" y2="29.443" gradientUnits="userSpaceOnUse">
<stop stop-color="#C7C7C7"/>
<stop offset="1" stop-color="#9C9C9C"/>
</linearGradient>
</defs>
</svg>
