<svg width="24" height="24" viewBox="0 0 24 24" fill="none" xmlns="http://www.w3.org/2000/svg">
<path d="M12 22C17.5357 22 22 17.5357 22 12C22 6.46429 17.5357 2 12 2C6.46429 2 2 6.46429 2 12C2 17.5357 6.46429 22 12 22Z" fill="black"/>
<path d="M12.454 6.14249C12.5765 6.22699 12.657 6.34199 12.732 6.46749C14.397 9.35249 16.0635 12.2375 17.7275 15.1225C17.867 15.361 17.956 15.6225 17.9855 15.8975C18.0715 16.6055 17.726 17.34 17.1295 17.7295C16.751 17.99 16.304 18.079 15.85 18.05C13.233 18.05 10.6165 18.0495 7.99949 18.05C7.63249 18.049 7.24749 17.9605 6.93249 17.7675C6.54199 17.515 6.23499 17.145 6.09599 16.6975C5.96149 16.2845 5.96999 15.829 6.12849 15.4235C6.21699 15.199 6.35399 14.983 6.47349 14.7735C8.04049 12.0575 9.609 9.34249 11.176 6.62599C11.2705 6.46599 11.3605 6.27349 11.514 6.16249C11.7815 5.95649 12.1785 5.94749 12.454 6.14249Z" fill="white"/>
<path d="M11.2105 9.1925C11.211 11.6365 11.2105 14.0805 11.211 16.525C10.2405 16.525 9.27 16.5245 8.3 16.525C8.1475 16.5235 7.9955 16.539 7.85 16.493C7.603 16.4415 7.448 16.1315 7.546 15.9015C7.597 15.775 7.672 15.657 7.7365 15.537C8.8555 13.491 9.976 11.445 11.095 9.399L11.1135 9.365C11.146 9.307 11.178 9.2495 11.2105 9.1925Z" fill="black"/>
<path d="M12.7895 9.192C14.0015 11.4 15.2125 13.6175 16.421 15.828C16.545 16.0415 16.472 16.2945 16.2815 16.437C16.166 16.501 16.0315 16.528 15.9005 16.526C14.863 16.5235 13.826 16.5255 12.7885 16.525C12.7895 14.0805 12.7885 11.6365 12.7895 9.192Z" fill="black"/>
</svg>
