<svg width="24" height="24" viewBox="0 0 24 24" fill="none" xmlns="http://www.w3.org/2000/svg">
<path fill-rule="evenodd" clip-rule="evenodd" d="M10.9286 11.85V19.35H12H13.0714V11.85V4.35001H12H10.9286V11.85ZM3.5402 4.46162C3.44645 4.55091 3.42859 4.61341 3.42859 4.81876V5.0643H6.82145H10.2143V4.70716V4.35001H6.93305H3.64734L3.5402 4.46162ZM13.7858 5.0643V4.70716V4.35001H17.067H20.3527L20.4599 4.46162C20.5536 4.55091 20.5715 4.61341 20.5715 4.81876V5.0643H17.1786H13.7858ZM2.82584 5.89018C2.73209 5.97947 2.71423 6.04197 2.71423 6.24732V6.49286H6.46423H10.2142V6.13572V5.77857H6.57584H2.93298L2.82584 5.89018ZM13.7858 6.49286V6.13572V5.77857H17.4242H21.067L21.1742 5.89018C21.2679 5.97947 21.2858 6.04197 21.2858 6.24732V6.49286H17.5358H13.7858ZM2.55348 7.26073C2.42402 7.32323 2.35706 7.47948 2.35706 7.72055V7.92145H6.28563H10.2142V7.5643V7.20716L6.43295 7.21163C3.92402 7.21163 2.61598 7.22948 2.55348 7.26073ZM13.7858 7.92145V7.5643V7.20716H17.5581C20.2233 7.20716 21.3572 7.22055 21.4331 7.25627C21.5759 7.31877 21.6429 7.47502 21.6429 7.72055V7.92145H17.7143H13.7858ZM2.11161 8.74733L2 8.85447V13.9929V19.1313L2.11161 19.2384L2.21875 19.35H6.21875H10.2143V18.9705V18.5911H7.51339H4.80804L4.70536 18.4884C4.62946 18.4125 4.59375 18.3098 4.57143 18.1045C4.48661 17.3723 4.1875 17.1268 3.29018 17.0464C2.99107 17.0196 2.90179 16.9973 2.81696 16.9125L2.71429 16.8098V14.3277V11.8455L2.81696 11.7429C2.88393 11.6759 3 11.6313 3.16071 11.6089C3.94643 11.5063 4.45982 10.8679 4.56696 9.86786C4.59375 9.63126 4.625 9.53304 4.70536 9.45269L4.80804 9.35001H7.51339H10.2143V8.99286V8.63572H6.21875H2.21875L2.11161 8.74733ZM13.7858 9.35001V8.99286V8.63572H17.7813H21.7813L21.8884 8.74733L22.0001 8.85447V13.9929V19.1313L21.8884 19.2384L21.7813 19.35H17.7813H13.7858V18.9705V18.5911H16.4867H19.192L19.2947 18.4884C19.3751 18.408 19.4063 18.3098 19.4331 18.0732C19.5358 17.1089 20.0268 16.4839 20.7992 16.3366C20.836 16.3298 20.87 16.3243 20.9015 16.3193L20.9018 16.3192L20.9018 16.3192C21.0001 16.3035 21.0734 16.2918 21.1281 16.2535C21.2883 16.141 21.2879 15.7997 21.2862 14.4571V14.4571V14.4571V14.457V14.457V14.457C21.286 14.3076 21.2858 14.1458 21.2858 13.9705C21.2858 13.7964 21.286 13.6355 21.2862 13.4869V13.4869V13.4868V13.4868V13.4868V13.4868C21.2878 12.1416 21.2883 11.7995 21.1273 11.6859C21.0725 11.6471 20.9988 11.6349 20.9001 11.6185C20.8677 11.6132 20.8327 11.6073 20.7947 11.6C20.0268 11.4571 19.5849 10.908 19.4376 9.91697C19.3884 9.59554 19.3572 9.49733 19.2768 9.43036C19.1831 9.35447 19.0224 9.35001 16.4822 9.35001H13.7858ZM5.20537 10.3902C4.98662 11.292 4.37502 12.0018 3.59823 12.2518L3.42859 12.3054V14.3232V16.3411L3.73662 16.3857C4.13395 16.4527 4.57591 16.6581 4.81252 16.8947C5.01341 17.0956 5.18752 17.4304 5.23662 17.7116L5.26787 17.8768H7.74109H10.2143V17.2518C10.2143 16.9081 10.1964 16.6268 10.1786 16.6268C10.0982 16.6268 9.57591 16.1089 9.38395 15.8411C8.44198 14.5197 8.64734 12.7116 9.86162 11.6089C10.0179 11.4706 10.1563 11.3589 10.1786 11.3589C10.1964 11.3589 10.2143 11.0688 10.2143 10.7116V10.0643H7.75002H5.28127L5.20537 10.3902ZM5.9018 12.975C6.14734 13.0464 6.51787 13.417 6.5893 13.6625C6.7143 14.0822 6.62502 14.417 6.30805 14.7295C5.85716 15.1848 5.28573 15.1848 4.83484 14.7295C4.37948 14.2786 4.37948 13.7072 4.83484 13.2563C5.14734 12.9393 5.48216 12.8545 5.9018 12.975ZM5.21423 13.9929C5.21423 13.908 5.25441 13.8143 5.32584 13.7473C5.3928 13.6759 5.48655 13.6357 5.57138 13.6357C5.6562 13.6357 5.74995 13.6759 5.81691 13.7473C5.88834 13.8143 5.92852 13.908 5.92852 13.9929C5.92852 14.0777 5.88834 14.1714 5.81691 14.2384C5.74995 14.3098 5.6562 14.35 5.57138 14.35C5.48655 14.35 5.3928 14.3098 5.32584 14.2384C5.25441 14.1714 5.21423 14.0777 5.21423 13.9929ZM13.7858 10.7116C13.7858 11.0688 13.8036 11.3589 13.8215 11.3589C13.9018 11.3589 14.4242 11.8768 14.6161 12.1447C15.5581 13.4661 15.3527 15.2741 14.1384 16.3768C13.9822 16.5152 13.8438 16.6268 13.8215 16.6268C13.8036 16.6268 13.7858 16.9081 13.7858 17.2518V17.8768H16.2545H18.7233L18.7813 17.5956C18.9554 16.7206 19.6206 15.9393 20.4063 15.6893L20.5715 15.6357V13.9706V12.3054L20.4063 12.2518C19.6206 12.0018 18.9554 11.2206 18.7813 10.3411L18.7233 10.0643H16.2545H13.7858V10.7116ZM18.759 12.975C19.1429 13.0911 19.5001 13.5822 19.5001 13.9929C19.5001 14.5464 18.9822 15.0643 18.4286 15.0643C17.8751 15.0643 17.3572 14.5464 17.3572 13.9929C17.3572 13.7116 17.4599 13.4839 17.692 13.2563C18.0045 12.9393 18.3393 12.8545 18.759 12.975ZM18.4286 14.35C18.1161 14.35 17.9598 13.9661 18.1831 13.7473C18.25 13.6759 18.3438 13.6357 18.4286 13.6357C18.6116 13.6357 18.7857 13.8098 18.7857 13.9929C18.7857 14.1759 18.6116 14.35 18.4286 14.35ZM10.0313 12.4661C9.6652 12.9437 9.52234 13.3679 9.52234 13.9929C9.52234 14.6268 9.66966 15.0598 10.0402 15.5286L10.2143 15.7473V13.9973C10.2143 13.0375 10.2098 12.2518 10.2054 12.2518C10.1964 12.2562 10.1206 12.35 10.0313 12.4661ZM13.7858 15.7473V13.9929V12.2384L13.9599 12.4571C14.3304 12.9259 14.4777 13.3589 14.4777 13.9929C14.4777 14.6268 14.3304 15.0598 13.9599 15.5286L13.7858 15.7473Z" fill="#8E949F"/>
</svg>
