<svg width="24" height="24" viewBox="0 0 24 24" fill="none" xmlns="http://www.w3.org/2000/svg">
<path d="M11.9982 2.0108L12.0045 2.0081L12.0027 2C12.0027 2 12 2.0063 11.9982 2.0108Z" fill="black"/>
<path d="M2 12C2 17.5228 6.47724 22 12.0018 22C16.0148 22 19.4762 19.6345 21.0661 16.2244C20.8447 15.7466 20.4236 15.366 19.9341 15.1717C19.3349 14.9332 18.7456 15.0304 18.1598 15.2608C17.5291 15.5091 16.9226 15.8456 16.2289 15.8663C15.5181 15.8888 14.8262 15.5937 14.2476 15.2014C14.1567 15.1402 14.0695 15.0763 13.9831 15.0079C13.4153 15.384 12.7333 15.6027 12.0018 15.6027C10.1096 15.6027 8.5647 14.1477 8.41264 12.296C8.41084 12.296 8.40814 12.296 8.40544 12.2987C8.38744 12.2987 8.35145 12.3032 8.30016 12.305C8.27227 12.3077 8.24078 12.3095 8.20389 12.3095H8.19489C8.13821 12.3113 8.07252 12.314 7.99874 12.314C7.48138 12.314 6.58251 12.2411 5.89419 11.8039C5.73043 11.6995 5.57927 11.5744 5.44611 11.426C5.40562 11.381 5.36873 11.3351 5.33274 11.2865C5.19147 11.093 5.03221 10.9131 4.86126 10.7556C4.11625 10.061 3.1508 9.711 2.51287 9.78838C2.51107 9.79288 2.51017 9.79738 2.51107 9.80188L2.48857 9.79288C2.47958 9.79558 2.47058 9.79558 2.46518 9.79738C2.44179 9.79918 2.42019 9.80367 2.3995 9.81087C2.3806 9.81267 2.35901 9.81717 2.34011 9.82257L2.31312 9.7218L2.31132 9.7173L2.28613 9.62552C2.09987 10.3867 2 11.1803 2 12Z" fill="#FFA35F"/>
<path d="M2.48762 9.79288L2.51011 9.80188C2.51011 9.80188 2.51011 9.79288 2.51191 9.78838C2.50471 9.79108 2.49572 9.79108 2.48852 9.79288H2.48762Z" fill="#FF0068"/>
<path d="M2.28517 9.62012V9.62462L2.31036 9.7164L2.31216 9.7209L2.33916 9.82167C2.35805 9.81537 2.37965 9.81087 2.39854 9.80997C2.41924 9.80277 2.43993 9.79828 2.46422 9.79648C2.46422 9.79198 2.46422 9.78748 2.46872 9.78478L2.48852 9.79198C2.49572 9.79018 2.50471 9.79018 2.51191 9.78748C3.14985 9.7101 4.1153 10.0601 4.8603 10.7547C5.03126 10.9122 5.19052 11.0921 5.33178 11.2856C5.36777 11.3351 5.40466 11.381 5.44515 11.4251C5.57742 11.5735 5.72948 11.6986 5.89323 11.803C6.58156 12.2402 7.48042 12.3131 7.99779 12.3131C8.07247 12.3131 8.13725 12.3104 8.19394 12.3086H8.20293C8.23982 12.3086 8.27132 12.3068 8.29921 12.3041C8.3514 12.3023 8.38739 12.2978 8.40448 12.2978C8.40718 12.2951 8.41078 12.2951 8.41168 12.2951V12.2879C8.40538 12.2267 8.40448 12.1674 8.40088 12.1062C8.39908 12.0702 8.39908 12.0351 8.39908 11.9991C8.39908 11.8695 8.40628 11.7418 8.41798 11.6149C8.43597 11.4583 8.46117 11.3054 8.49806 11.1569C8.87596 9.57243 10.2994 8.39644 11.9999 8.39644C13.9767 8.39644 15.5819 9.98813 15.6026 11.9604V11.9991C15.6026 12.3104 15.5621 12.6136 15.4865 12.9016C15.4775 12.9376 15.4676 12.9727 15.4569 13.0086C15.2589 13.6871 14.8693 14.2818 14.3474 14.7281C14.2314 14.8307 14.109 14.9233 13.9812 15.0061C14.0676 15.0745 14.1549 15.1384 14.2458 15.1996C14.8243 15.5919 15.5162 15.887 16.2271 15.8645C16.9199 15.8438 17.5272 15.5073 18.158 15.259C18.7437 15.0286 19.333 14.9314 19.9323 15.1699C20.4218 15.3651 20.8429 15.7457 21.0642 16.2226C21.1416 16.058 21.2127 15.8906 21.281 15.7214C21.281 15.7196 21.2828 15.7187 21.2828 15.7169C21.299 15.6783 21.3152 15.6396 21.3305 15.6009V15.5991C21.4304 15.3372 21.5213 15.0691 21.5996 14.7992C21.6014 14.7947 21.6041 14.792 21.6041 14.7884C21.8632 13.9021 22 12.9664 22 11.9982C22.0018 6.47724 17.5245 2 12.0017 2C10.3255 2 8.74459 2.41209 7.35625 3.1427C7.69547 3.44143 7.73416 3.95969 7.60279 4.40867C7.47592 4.84146 7.20149 5.31924 6.76061 5.44071C6.91717 5.96437 6.7948 6.55912 6.4034 6.95771C6.0237 7.34281 5.45595 7.47508 4.94308 7.35001C4.89989 7.69192 4.66685 8.00594 4.35373 8.1679C3.86156 8.42073 3.28391 8.27677 2.82593 8.01314C2.62978 8.46212 2.46602 8.9309 2.33646 9.41318C2.32566 9.44917 2.31666 9.48786 2.30676 9.52475C2.29957 9.55714 2.29147 9.58863 2.28427 9.62012H2.28517Z" fill="#FF0068"/>
<path d="M2.46422 9.79738C2.47052 9.79558 2.47952 9.79558 2.48762 9.79288L2.46782 9.78568C2.46782 9.78568 2.46332 9.79288 2.46332 9.79738H2.46422Z" fill="#FF0068"/>
<path d="M2.28247 9.62012L2.28517 9.62462V9.62012H2.28247Z" fill="#FF0068"/>
</svg>
