<svg width="24" height="24" viewBox="0 0 24 24" fill="none" xmlns="http://www.w3.org/2000/svg">
<path d="M12 22C17.5357 22 22 17.5357 22 12C22 6.46429 17.5357 2 12 2C6.46429 2 2 6.46429 2 12C2 17.5357 6.46429 22 12 22Z" fill="#0098EA"/>
<path d="M15.4286 7.57143H8.57144C7.32144 7.57143 6.53572 8.92857 7.14287 10.0357L11.3572 17.3571C11.6429 17.8214 12.3214 17.8214 12.6072 17.3571L16.8214 10.0357C17.4643 8.92857 16.6786 7.57143 15.4286 7.57143ZM11.3929 15.1429L10.4643 13.3571L8.25001 9.39285C8.10715 9.14286 8.28572 8.82143 8.60715 8.82143H11.3929V15.1429ZM15.75 9.39285L13.5357 13.3571L12.6072 15.1429V8.82143H15.3929C15.7143 8.82143 15.8929 9.14286 15.75 9.39285Z" fill="white"/>
</svg>
