<svg width="24" height="24" viewBox="0 0 24 24" fill="none" xmlns="http://www.w3.org/2000/svg">
<path fill-rule="evenodd" clip-rule="evenodd" d="M9.58001 21.7029C14.9384 23.039 20.3649 19.7783 21.7007 14.4206C23.0364 9.0625 19.7761 3.63505 14.418 2.29928C9.06121 0.963513 3.63469 4.22449 2.29955 9.58287C0.963158 14.9403 4.22382 20.3671 9.58001 21.7029ZM5.32022 5.07519C5.21743 5.06039 5.11439 5.04555 5.01833 5H5C5.00357 5.01205 5.00698 5.02415 5.01039 5.03625C5.01958 5.06886 5.02875 5.10143 5.04105 5.13283C6.28679 8.30384 7.53301 11.4751 8.77972 14.6466C9.50057 16.4799 10.2209 18.3143 10.9408 20.1496C11.0181 20.3391 11.0916 20.5286 11.1663 20.7208C11.2021 20.8132 11.2382 20.9061 11.2751 21C11.3245 20.9397 11.3704 20.8855 11.4146 20.8331C11.4341 20.8101 11.4533 20.7874 11.4723 20.7648L12.3322 19.6977C12.622 19.3386 12.9135 18.9789 13.2067 18.6188L14.063 17.5651C14.3533 17.2079 14.6428 16.8507 14.9317 16.4936L15.6809 15.569C15.7809 15.446 15.8813 15.3231 15.9817 15.2002C16.1115 15.0414 16.2413 14.8824 16.3707 14.723C16.5083 14.5533 16.6445 14.3845 16.7812 14.2151C16.9278 14.0334 17.0749 13.8511 17.2247 13.6664C17.3669 13.4911 17.5106 13.3152 17.6538 13.1399C17.8024 12.958 17.9504 12.7769 18.0956 12.5978C18.2262 12.4367 18.3565 12.2751 18.4868 12.1136C18.641 11.9225 18.7951 11.7314 18.9496 11.5411C19.0919 11.3655 19.2348 11.1904 19.3777 11.0152C19.5609 10.7906 19.7441 10.566 19.9261 10.3405C20.0284 10.2137 20.0253 10.2107 19.9118 10.1023L19.9034 10.0941C19.3482 9.56136 18.794 9.02783 18.2407 8.49355C18.1185 8.37559 17.9968 8.25724 17.8752 8.13893C17.6211 7.89182 17.3672 7.64487 17.1089 7.402C17.0914 7.38551 17.0748 7.36763 17.0581 7.34964C17.0003 7.28752 16.9413 7.22412 16.8435 7.21204C16.7391 7.19883 16.6357 7.17821 16.5324 7.15761C16.479 7.14696 16.4256 7.13631 16.3721 7.1267C16.1485 7.08569 15.9248 7.04515 15.7011 7.00461C15.3703 6.94468 15.0394 6.88474 14.7088 6.82321C14.4507 6.77543 14.1925 6.72583 13.9343 6.67621C13.6711 6.62565 13.4079 6.57508 13.1444 6.52639C12.8803 6.47756 12.6157 6.43007 12.3511 6.38256C12.0928 6.3362 11.8345 6.28983 11.5764 6.24219C11.3238 6.19555 11.0717 6.14779 10.8195 6.10002C10.6142 6.06113 10.4089 6.02224 10.2033 5.98395C10.0392 5.95348 9.87609 5.92387 9.71352 5.89437C9.50795 5.85706 9.30328 5.81991 9.09861 5.78137C8.86952 5.73871 8.64062 5.6953 8.41172 5.65189C8.18282 5.60848 7.95391 5.56507 7.72483 5.5224C7.53156 5.48616 7.33749 5.45114 7.14366 5.41617C6.96842 5.38456 6.79339 5.35298 6.61936 5.32056C6.49034 5.29583 6.36123 5.27167 6.23213 5.24751C5.97393 5.1992 5.71572 5.15088 5.45817 5.09795C5.41267 5.08851 5.36647 5.08186 5.32022 5.07519ZM13.6247 10.8564L13.6114 10.8622C13.6114 10.8622 13.6173 10.8674 13.6202 10.8674C13.6231 10.8674 13.6311 10.8637 13.6247 10.8564ZM13.7118 10.8562C13.6836 10.8659 13.6531 10.8659 13.6249 10.8563L13.6268 10.8555C13.6397 10.818 13.669 10.7973 13.6982 10.7766C13.7089 10.769 13.7196 10.7614 13.7294 10.7531C14.7044 9.93337 15.6774 9.11193 16.6485 8.28875C16.7218 8.22716 16.7555 8.22419 16.8288 8.29394C17.2737 8.72953 17.7223 9.15998 18.1705 9.59011C18.2873 9.70221 18.4041 9.8143 18.5208 9.92644C18.526 9.93127 18.5307 9.93687 18.5374 9.94493C18.5421 9.95051 18.5477 9.95727 18.5552 9.96577L17.7415 10.1142L14.5101 10.7078C14.244 10.7583 13.9779 10.808 13.7118 10.8562ZM6.65528 6.93674L6.6736 6.92338V6.92264C6.68707 6.93365 6.70057 6.94466 6.71409 6.95568C6.75798 6.99145 6.80199 7.02732 6.84514 7.06363C8.5747 8.51557 10.3045 9.96701 12.0346 11.418C12.0611 11.4361 12.0817 11.4618 12.094 11.4917C12.1062 11.5217 12.1095 11.5546 12.1035 11.5864C12.0179 12.2819 11.9339 12.9777 11.8513 13.6738C11.7633 14.4158 11.6751 15.1579 11.5867 15.8999L11.2934 18.316C11.2845 18.4163 11.2669 18.5157 11.2406 18.6128L6.65528 6.93674ZM18.4198 10.8621C18.4022 10.861 18.3845 10.861 18.3668 10.8622L17.0326 11.107C15.6985 11.3519 14.364 11.5958 13.0293 11.8387C12.9355 11.8558 12.9011 11.8869 12.8908 11.9871C12.8378 12.4759 12.779 12.9636 12.7202 13.4517C12.7091 13.5437 12.698 13.6358 12.687 13.7279C12.6108 14.374 12.5335 15.0206 12.4553 15.6677C12.3801 16.3024 12.3034 16.9378 12.2252 17.574C12.194 17.8347 12.1632 18.0954 12.1311 18.3681C12.1201 18.461 12.109 18.5553 12.0976 18.6514C13.7604 16.6047 15.411 14.5704 17.0632 12.534C17.5152 11.977 17.9673 11.4198 18.4198 10.8621ZM7.27619 6.31862L7.28352 6.29487L15.8201 7.88285L15.0306 8.55069C14.2106 9.2403 13.3915 9.93139 12.5734 10.624C12.5162 10.6722 12.4817 10.6893 12.4121 10.6306C10.8448 9.31426 9.27699 7.99811 7.7087 6.68222L7.27619 6.31862Z" fill="#FF050B"/>
</svg>
