<svg width="24" height="24" viewBox="0 0 24 24" fill="none" xmlns="http://www.w3.org/2000/svg">
<path fill-rule="evenodd" clip-rule="evenodd" d="M12 22C17.5228 22 22 17.5228 22 12C22 6.47715 17.5228 2 12 2C6.47715 2 2 6.47715 2 12C2 17.5228 6.47715 22 12 22Z" fill="#519431"/>
<path fill-rule="evenodd" clip-rule="evenodd" d="M9.64573 16.8037C8.9536 16.5015 8.35895 16.0677 7.86179 15.5023L9.03158 13.6013C9.57749 14.1667 10.1088 14.5664 10.6254 14.8004C10.8568 14.9052 11.0931 14.9865 11.3342 15.0443L11.3842 12.933C10.7286 12.7737 10.1783 12.5675 9.73346 12.3146C9.24605 12.0319 8.88048 11.6809 8.63678 11.2618C8.39307 10.8328 8.27122 10.3308 8.27122 9.75564C8.27122 9.29747 8.37357 8.87829 8.57829 8.4981C8.79275 8.10817 9.07545 7.77673 9.42639 7.50378C9.78708 7.22107 10.2014 7.00661 10.6693 6.86039C10.9867 6.7546 11.313 6.68468 11.6483 6.65065L11.6198 5.57361H13.1259L13.0985 6.68924C13.548 6.75039 13.9665 6.85618 14.3542 7.00661C15.0073 7.26007 15.5922 7.65487 16.1089 8.19103L15.056 9.91648C14.6661 9.5168 14.2274 9.21948 13.74 9.02451C13.514 8.93411 13.2828 8.86466 13.0463 8.81618L12.9964 10.8452C13.3653 10.9367 13.7058 11.0463 14.0178 11.174C14.4565 11.3495 14.8318 11.5639 15.1438 11.8174C15.4655 12.0709 15.7092 12.3731 15.8749 12.724C16.0504 13.0652 16.1381 13.4649 16.1381 13.923C16.1381 14.6347 15.9626 15.2391 15.6117 15.7362C15.2705 16.2236 14.7977 16.599 14.1933 16.8622C13.7556 17.0487 13.2676 17.1666 12.7295 17.2159L12.7603 18.4268H11.2542L11.2832 17.2006C10.6768 17.1382 10.131 17.0059 9.64573 16.8037ZM13.4622 14.7565C13.3452 14.8833 13.1795 14.9807 12.965 15.049C12.8732 15.0782 12.7769 15.1012 12.6761 15.1179L12.6288 13.2628C12.6783 13.282 12.727 13.3022 12.7749 13.3235C12.9504 13.3918 13.1015 13.4697 13.2282 13.5575C13.355 13.6452 13.4524 13.7476 13.5207 13.8646C13.5987 13.9815 13.6377 14.1131 13.6377 14.2594C13.6377 14.4543 13.5792 14.62 13.4622 14.7565ZM10.9618 9.15611C11.0787 9.01964 11.2396 8.91728 11.4443 8.84904C11.5255 8.81951 11.6123 8.79558 11.7047 8.77723L11.7518 10.5545C11.5959 10.4987 11.4545 10.4371 11.3273 10.3698C11.1616 10.2723 11.03 10.1651 10.9325 10.0481C10.835 9.93111 10.7863 9.78976 10.7863 9.62403C10.7863 9.43882 10.8448 9.28284 10.9618 9.15611Z" fill="#AAFF82"/>
</svg>
