<svg width="24" height="24" viewBox="0 0 24 24" fill="none" xmlns="http://www.w3.org/2000/svg">
<circle cx="12" cy="12" r="10" fill="white"/>
<path d="M21.685 9.5C21.8906 10.299 22 11.1368 22 12H2C2 11.1368 2.10938 10.299 2.31504 9.5H21.685Z" fill="#D80027"/>
<path d="M18.6146 4.5C19.4245 5.21491 20.1178 6.05899 20.6622 7H3.33782C3.88217 6.05899 4.57545 5.21491 5.38544 4.5H18.6146Z" fill="#D80027"/>
<path d="M20.6622 17C21.1098 16.2262 21.4567 15.3869 21.685 14.5H2.31504C2.54332 15.3869 2.89022 16.2262 3.33782 17H20.6622Z" fill="#D80027"/>
<path d="M18.6146 19.5H5.38544C7.14827 21.0559 9.46388 22 12 22C14.5361 22 16.8517 21.0559 18.6146 19.5Z" fill="#D80027"/>
<path d="M2.02914 12.7691C2.00983 12.5153 2 12.2588 2 12C2 6.47715 6.47715 2 12 2V12.7691H2.02914Z" fill="#2E52B2"/>
<path d="M4.29343 5.62696C4.34618 5.56324 4.39971 5.50018 4.454 5.4378L4.58414 5.83816L4.29343 5.62696Z" fill="#F0F0F0"/>
<path d="M3.19499 7.25533C3.20916 7.22909 3.22344 7.20293 3.23783 7.17684H3.79387L4.01238 6.50453L4.23066 7.17684H4.93758L4.36559 7.59223L4.58414 8.26457L4.01238 7.84918L3.44039 8.26457L3.65891 7.59223L3.19499 7.25533Z" fill="#F0F0F0"/>
<path d="M4.23066 9.60324L4.01238 8.93094L3.79387 9.60324H3.08691L3.65891 10.0186L3.44039 10.6909L4.01238 10.2756L4.58414 10.6909L4.36559 10.0186L4.93758 9.60324H4.23066Z" fill="#F0F0F0"/>
<path d="M7.00008 6.50453L6.78156 7.17684H6.07461L6.6466 7.59223L6.42809 8.26457L7.00008 7.84918L7.57184 8.26457L7.35328 7.59223L7.92531 7.17684H7.21836L7.00008 6.50453Z" fill="#F0F0F0"/>
<path d="M7.00008 8.93094L7.21836 9.60324H7.92531L7.35328 10.0186L7.57184 10.6909L7.00008 10.2756L6.42809 10.6909L6.6466 10.0186L6.07461 9.60324H6.78156L7.00008 8.93094Z" fill="#F0F0F0"/>
<path d="M10.2061 9.60324L9.98781 8.93094L9.76926 9.60324H9.06234L9.63434 10.0186L9.41578 10.6909L9.98781 10.2756L10.5595 10.6909L10.341 10.0186L10.913 9.60324H10.2061Z" fill="#F0F0F0"/>
<path d="M9.76926 7.17684L9.98781 6.50453L10.2061 7.17684H10.913L10.341 7.59223L10.5595 8.26457L9.98781 7.84918L9.41578 8.26457L9.63434 7.59223L9.06234 7.17684H9.76926Z" fill="#F0F0F0"/>
<path d="M7.00008 4.07812L6.78156 4.75047H6.07461L6.6466 5.16582L6.42809 5.83816L7.00008 5.42277L7.57184 5.83816L7.35328 5.16582L7.92531 4.75047H7.21836L7.00008 4.07812Z" fill="#F0F0F0"/>
<path d="M9.76926 4.75047L9.98781 4.07812L10.2061 4.75047H10.913L10.341 5.16582L10.5595 5.83816L9.98781 5.42277L9.41578 5.83816L9.63434 5.16582L9.06234 4.75047H9.76926Z" fill="#F0F0F0"/>
</svg>
