<svg width="24" height="24" viewBox="0 0 24 24" fill="none" xmlns="http://www.w3.org/2000/svg">
<path fill-rule="evenodd" clip-rule="evenodd" d="M22 12C22 17.5228 17.5228 22 12 22C6.47715 22 2 17.5228 2 12C2 6.47715 6.47715 2 12 2C17.5228 2 22 6.47715 22 12ZM10.1255 18.9529C10.1255 19.1882 9.94121 19.3215 9.71376 19.2509C6.69023 18.2862 4.49808 15.4509 4.49808 12.1058C4.49808 8.76072 6.69023 5.92542 9.71376 4.96071C9.94121 4.89013 10.1255 5.02346 10.1255 5.25875V5.83915C10.1255 5.99601 10.004 6.18032 9.85494 6.2313C7.46278 7.10973 5.74906 9.40777 5.74906 12.1019C5.74906 14.796 7.46278 17.094 9.85494 17.9725C10.004 18.0274 10.1255 18.2078 10.1255 18.3646V18.9529ZM12.6236 16.7921C12.6236 16.9646 12.4824 17.1058 12.3098 17.1058H11.6863C11.5138 17.1058 11.3726 16.9646 11.3726 16.7921V15.8039C10.0079 15.6195 9.34121 14.8548 9.16082 13.8156C9.12945 13.6391 9.27063 13.4784 9.45102 13.4784H10.1647C10.3138 13.4784 10.4393 13.5842 10.4706 13.7333C10.604 14.3529 10.9608 14.8274 12.0549 14.8274C12.8628 14.8274 13.4353 14.3764 13.4353 13.7019C13.4353 13.0274 13.0981 12.7725 11.9138 12.5764C10.1647 12.3411 9.33729 11.8117 9.33729 10.4391C9.33729 9.38032 10.1373 8.55679 11.3765 8.38032V7.4117C11.3765 7.23915 11.5177 7.09797 11.6902 7.09797H12.3138C12.4863 7.09797 12.6275 7.23915 12.6275 7.4117V8.40777C13.6353 8.58817 14.2745 9.16071 14.4824 10.1097C14.5216 10.2901 14.3804 10.4588 14.1961 10.4588H13.5373C13.3961 10.4588 13.2785 10.3646 13.2353 10.2274C13.0589 9.62346 12.6275 9.36464 11.8785 9.36464C11.051 9.36464 10.6236 9.76464 10.6236 10.3254C10.6236 10.9176 10.8667 11.2156 12.1373 11.3999C13.8549 11.6352 14.7412 12.1254 14.7412 13.5882C14.7412 14.698 13.9177 15.596 12.6275 15.8039V16.7921H12.6236ZM13.8745 18.9529C13.8745 19.1882 14.0589 19.3215 14.2863 19.2509C17.3098 18.2823 19.4981 15.4509 19.502 12.1137C19.502 8.76856 17.3098 5.93326 14.2863 4.96856C14.0589 4.89405 13.8745 5.0313 13.8745 5.2666V5.84699C13.8745 6.00385 13.9961 6.18424 14.1451 6.23915C16.5373 7.11758 18.251 9.41562 18.251 12.1097C18.251 14.8039 16.5373 17.1019 14.1451 17.9803C13.9804 18.0391 13.8745 18.1999 13.8745 18.3725V18.9529Z" fill="#2775CA"/>
</svg>
