<svg width="24" height="24" viewBox="0 0 24 24" fill="none" xmlns="http://www.w3.org/2000/svg">
<path fill-rule="evenodd" clip-rule="evenodd" d="M5.79135 3H18.4631C18.7655 3 19.0448 3.16175 19.1956 3.42416L22.8874 9.84878C23.0788 10.182 23.022 10.6025 22.7489 10.8727L12.5871 20.9264C12.2579 21.2521 11.7284 21.2521 11.3992 20.9264L1.25112 10.8862C0.971692 10.6098 0.919368 10.177 1.12485 9.84174L5.0711 3.40355C5.22479 3.15281 5.49751 3 5.79135 3ZM16.827 5.86837V7.67104H13.2173V8.92086C15.7525 9.05444 17.6546 9.60298 17.6687 10.2605L17.6686 11.6312C17.6545 12.2887 15.7525 12.8373 13.2173 12.9708V16.0381H10.8204V12.9708C8.28519 12.8373 6.38313 12.2887 6.36905 11.6312L6.36909 10.2605C6.38322 9.60298 8.28519 9.05444 10.8204 8.92086V7.67104H7.21071V5.86837H16.827ZM12.0189 12.0292C14.7243 12.0292 16.9857 11.5653 17.5391 10.9459C17.0698 10.4206 15.3723 10.0071 13.2173 9.8936V11.2022C12.8311 11.2225 12.4301 11.2333 12.0189 11.2333C11.6076 11.2333 11.2067 11.2225 10.8204 11.2022V9.8936C8.66537 10.0071 6.96787 10.4206 6.49858 10.9459C7.05198 11.5653 9.31333 12.0292 12.0189 12.0292Z" fill="#009393"/>
</svg>
