<svg width="24" height="24" viewBox="0 0 24 24" fill="none" xmlns="http://www.w3.org/2000/svg">
<path fill-rule="evenodd" clip-rule="evenodd" d="M13.7017 10.6154C13.7017 11.722 11.9758 11.5877 11.4283 11.5877V9.63834C11.9767 9.63834 13.7017 9.46479 13.7017 10.6154ZM14.1524 13.6416C14.1524 14.8507 12.0851 14.7127 11.4263 14.7127V12.5715C12.0851 12.5715 14.1524 12.3797 14.1524 13.6464M15.514 10.1839C15.4037 9.02371 14.4103 8.64016 13.1533 8.51934V6.92859H12.1877V8.4877C11.9317 8.4877 11.6709 8.4877 11.411 8.49729V6.92859H10.4406V8.52893H8.47208V9.57026C8.47208 9.57026 9.18931 9.55779 9.17876 9.57026C9.3082 9.55601 9.43811 9.59266 9.54101 9.67248C9.6439 9.75229 9.71172 9.869 9.73011 9.99791V14.3809C9.72742 14.426 9.71586 14.4701 9.69607 14.5108C9.67629 14.5514 9.64868 14.5877 9.61483 14.6176C9.58098 14.6476 9.54155 14.6705 9.4988 14.6852C9.45606 14.6998 9.41084 14.7059 9.36574 14.7031C9.37821 14.7146 8.65906 14.7031 8.65906 14.7031L8.46729 15.8662H10.4282V17.4962H11.3995V15.8901H12.1752V17.4857H13.1465V15.8777C14.7872 15.7818 15.9273 15.3723 16.0749 13.8334C16.1909 12.5936 15.6099 12.0413 14.6807 11.8198C15.2455 11.5321 15.6003 11.0249 15.5159 10.1811" fill="#F09242"/>
<path d="M6.72984 6.1519C7.71439 5.26126 8.90962 4.63613 10.2028 4.3355C11.4959 4.03486 12.8443 4.06863 14.1208 4.43361L14.232 4.46525C14.2876 4.48155 14.3423 4.49881 14.3969 4.51703C14.4755 4.54196 14.5542 4.56881 14.6309 4.59662L14.7076 4.62442C14.8121 4.66278 14.9166 4.70401 15.0192 4.74716L15.0317 4.75291C15.8496 5.10455 16.6096 5.57782 17.286 6.15669L17.7136 5.69452C17.6561 5.63698 17.5966 5.58425 17.5382 5.52959C16.0575 4.24695 14.1785 3.51648 12.2203 3.46228C12.1158 3.46228 12.0113 3.46228 11.9067 3.46228H11.8847C11.2496 3.47108 10.6172 3.54823 9.99861 3.69241L9.87204 3.72309L9.76656 3.7509C9.15015 3.91617 8.55442 4.15067 7.99074 4.44991C7.37352 4.78128 6.81162 5.20667 6.3252 5.71082L6.72984 6.1519Z" fill="#8E909F"/>
<path d="M6.1882 6.6898L5.71836 6.27844C2.53109 9.61913 2.99518 15.0549 5.71836 17.6458L6.19779 17.2709C4.87228 15.8283 4.13601 13.9411 4.13441 11.982C4.13281 10.0229 4.86505 8.13452 6.1882 6.6898Z" fill="#8E909F"/>
<path d="M18.4831 6.48651C18.4093 6.4098 18.3345 6.33405 18.2568 6.26214L17.8455 6.7128C20.2618 9.45803 20.7719 13.8161 17.9212 17.1711L18.322 17.6554C19.6916 16.1265 20.4625 14.1542 20.4928 12.1018C20.5231 10.0494 19.8108 8.05519 18.487 6.48651H18.4831Z" fill="#8E909F"/>
<path d="M17.3166 17.8126C17.0385 18.0207 16.7623 18.2115 16.4852 18.3879C15.4796 19.0987 14.3201 19.5613 13.1014 19.738C12.4779 19.8374 11.8438 19.8523 11.2163 19.7821C9.63578 19.6288 8.13959 18.9973 6.92727 17.9718C6.86398 17.9258 6.80166 17.8807 6.73549 17.8328L6.29346 18.2288C7.84011 19.7562 9.96016 20.4907 12.0466 20.4898C12.0927 20.4898 12.1425 20.4898 12.1847 20.4898H12.2068C14.1476 20.4392 16.0123 19.724 17.4892 18.4637C17.5563 18.4004 17.6244 18.3381 17.6886 18.2719L17.3166 17.8126Z" fill="#8E909F"/>
<path d="M11.9962 2.67121C13.8416 2.67045 15.6457 3.21702 17.1804 4.24179C18.7151 5.26656 19.9114 6.72348 20.6179 8.42825C21.3245 10.133 21.5096 12.009 21.1497 13.819C20.7899 15.629 19.9013 17.2916 18.5965 18.5965C17.2916 19.9013 15.629 20.7899 13.819 21.1497C12.0091 21.5096 10.133 21.3245 8.42825 20.6179C6.72348 19.9114 5.26656 18.7151 4.2418 17.1804C3.21703 15.6457 2.67045 13.8415 2.67121 11.9962C2.67501 9.5242 3.65868 7.15457 5.40663 5.40662C7.15457 3.65868 9.5242 2.67501 11.9962 2.67121ZM11.9962 2C10.0184 2.00076 8.08518 2.58799 6.44111 3.68744C4.79704 4.78688 3.51592 6.34916 2.75974 8.17671C2.00357 10.0043 1.8063 12.015 2.1929 13.9547C2.5795 15.8943 3.53259 17.6758 4.93165 19.0738C6.33071 20.4718 8.1129 21.4235 10.0529 21.8086C11.9928 22.1937 14.0034 21.9949 15.8304 21.2373C17.6573 20.4797 19.2186 19.1974 20.3168 17.5525C21.415 15.9076 22.0008 13.974 22 11.9962C21.9995 10.6829 21.7403 9.38268 21.2373 8.16962C20.7343 6.95656 19.9973 5.85445 19.0684 4.92622C18.1394 3.99799 17.0367 3.26182 15.8233 2.75974C14.6098 2.25766 13.3094 1.9995 11.9962 2Z" fill="white"/>
</svg>
