<svg width="24" height="24" viewBox="0 0 24 24" fill="none" xmlns="http://www.w3.org/2000/svg">
<path fill-rule="evenodd" clip-rule="evenodd" d="M12 22C17.5228 22 22 17.5228 22 12C22 6.47715 17.5228 2 12 2C6.47715 2 2 6.47715 2 12C2 17.5228 6.47715 22 12 22ZM13.019 14.0223L17.6647 18.6668L18.6668 17.664L14.5242 13.5231L17.476 10.5694C18.172 9.87298 18.172 8.74019 17.476 8.04374C16.78 7.34728 15.6479 7.34728 14.9519 8.04374L8.04622 14.9579C7.89947 15.1006 7.66887 15.0964 7.52631 14.9537C7.38375 14.8069 7.38794 14.5761 7.5305 14.4335L10.9896 10.9932C11.2663 10.7163 11.2663 10.2674 10.9896 9.99045L6.33553 5.33344L5.33344 6.33616L9.48019 10.4855L6.5284 13.4224L6.51583 13.435C5.81981 14.1356 5.824 15.2684 6.52421 15.9649C7.22442 16.6613 8.3565 16.6571 9.05251 15.9565L15.954 9.05066C16.0965 8.90801 16.3271 8.90801 16.4697 9.05066C16.6123 9.19331 16.6123 9.42406 16.4697 9.56671L13.019 13.0196C12.7422 13.2965 12.7422 13.7454 13.019 14.0223Z" fill="#00FF00"/>
</svg>
