<svg width="24" height="24" viewBox="0 0 24 24" fill="none" xmlns="http://www.w3.org/2000/svg">
<path fill-rule="evenodd" clip-rule="evenodd" d="M22 12C22 17.5228 17.5228 22 12 22C6.47715 22 2 17.5228 2 12C2 6.47715 6.47715 2 12 2C17.5228 2 22 6.47715 22 12ZM18.4292 6.39878H16.5632L13.6104 9.45815C12.7215 10.3805 11.2785 10.3805 10.3866 9.45815L7.43684 6.39878H5.57079L9.45511 10.4262C10.8585 11.8843 13.1385 11.8843 14.5449 10.4262L18.4292 6.39878ZM5.54643 17.6012H7.41249L10.3927 14.5145C11.2816 13.5921 12.7245 13.5921 13.6164 14.5145L16.5906 17.6012H18.4566L14.548 13.5464C13.1416 12.0883 10.8615 12.0883 9.45511 13.5464L5.54643 17.6012Z" fill="#8E909F"/>
</svg>
