<svg width="24" height="24" viewBox="0 0 24 24" fill="none" xmlns="http://www.w3.org/2000/svg">
<path fill-rule="evenodd" clip-rule="evenodd" d="M4.49902 12.0285C5.57803 10.5194 7.263 9.5694 9.13172 9.42084C11.4813 9.2371 13.741 10.3943 14.9881 12.4194C15.6019 13.4124 15.9029 14.4992 15.9029 15.6955C15.9029 16.5243 15.7973 17.1264 15.5276 17.877C14.8904 19.6324 13.4126 21.0749 11.6338 21.6692C10.0895 22.1852 8.45148 22.0953 6.96197 21.4151C5.63276 20.8052 4.50683 19.6793 3.90087 18.354C2.94305 16.2585 3.16589 13.8972 4.49902 12.0285ZM10.1091 12.4194C10.1091 12.1301 10.0231 11.9659 9.8237 11.8721C9.65168 11.79 9.5774 11.79 9.40539 11.876C9.19427 11.9815 9.09263 12.1653 9.09263 12.4468L9.08872 12.6852L8.8346 12.7986C8.18563 13.0879 7.72823 13.8933 7.82596 14.5774C7.95107 15.5079 8.58831 16.1138 9.54222 16.2038C9.96053 16.2468 10.1951 16.3953 10.3241 16.7003C10.4883 17.1029 10.2694 17.5721 9.85106 17.7089C9.60868 17.791 9.35065 17.7363 9.10436 17.5486C8.97144 17.4509 8.8307 17.3805 8.74078 17.3688C8.56094 17.3453 8.34201 17.4391 8.24819 17.5838C8.15045 17.7324 8.16218 18.0217 8.26773 18.1741C8.36156 18.307 8.75642 18.5807 8.9558 18.6511C9.09263 18.7019 9.09263 18.7058 9.09263 18.9404C9.09263 19.214 9.17864 19.3861 9.37411 19.5072C9.60086 19.6441 9.8667 19.5854 10.027 19.3548C10.0895 19.2688 10.1091 19.1828 10.1091 18.9873V18.7332L10.3632 18.612C10.6642 18.4712 11.0044 18.1624 11.1607 17.8887C11.579 17.1577 11.4422 16.2429 10.8362 15.6838C10.5118 15.3828 10.1404 15.2303 9.63213 15.1873C9.12 15.1404 8.8307 14.8237 8.86588 14.3468C8.87761 14.163 8.90497 14.0809 8.9988 13.9675C9.26855 13.6274 9.7025 13.5531 10.0348 13.7838C10.3671 14.0184 10.4062 14.034 10.5704 14.034C10.7033 14.034 10.762 14.0105 10.8793 13.905C11.0044 13.7877 11.0239 13.7447 11.0395 13.5492L11.0591 13.3264L10.8441 13.1192C10.7229 12.998 10.5157 12.8573 10.3671 12.7869L10.1091 12.6618V12.4194Z" fill="currentColor"/>
<path fill-rule="evenodd" clip-rule="evenodd" d="M15.6996 3.22434C15.0467 3.33771 14.5268 3.50973 13.9834 3.79512C12.3101 4.67084 11.2076 6.30108 11.0083 8.17371C11.0039 8.21652 10.9997 8.25583 10.9958 8.29196C10.9703 8.53038 10.9596 8.63035 11.0045 8.68284C11.0369 8.72075 11.0983 8.7339 11.2039 8.75655C11.2254 8.76116 11.2488 8.76617 11.2741 8.77186C12.5095 9.06507 13.7175 9.74141 14.644 10.6719C15.5745 11.5984 16.2508 12.8064 16.544 14.0457L16.6144 14.3467L16.8685 14.3233C17.3298 14.2842 17.7052 14.2256 18.0023 14.1435C20.5434 13.4515 22.2558 11.1175 22.1385 8.50602C22.0173 5.79285 20.0352 3.61528 17.3142 3.2087C16.9428 3.15397 16.0671 3.16179 15.6996 3.22434ZM18.1626 6.04697C18.444 6.12516 18.5535 6.2268 18.5535 6.41055C18.5535 6.50828 18.5261 6.57865 18.4675 6.63339C18.3307 6.75458 18.2681 6.7624 18.0179 6.69594C17.6739 6.60602 17.2243 6.6412 16.9389 6.78194C16.7239 6.8875 16.2469 7.33318 16.2469 7.42701C16.2469 7.45046 16.548 7.4661 17.0132 7.4661H17.7794L17.8928 7.57947C18.014 7.70067 18.0336 7.81013 17.9593 7.94696C17.8694 8.12289 17.8342 8.1268 16.9037 8.13071H16.0124V8.63503L17.8185 8.65848L17.9124 8.76795C18.0336 8.90869 18.0336 9.06898 17.9084 9.2019L17.8146 9.30355H17.0288C16.5988 9.30355 16.2469 9.31918 16.2469 9.33873C16.2469 9.40128 16.5128 9.71795 16.6535 9.82741C17.0249 10.1089 17.4432 10.2105 17.8928 10.1245C18.2212 10.062 18.3346 10.1011 18.4167 10.3005C18.5613 10.6367 18.2368 10.8361 17.5644 10.8321C17.3885 10.8282 17.1578 10.8048 17.0484 10.7774C16.4424 10.6132 15.9185 10.1793 15.6136 9.59285L15.4885 9.35046L15.121 9.33482C14.777 9.31918 14.7457 9.31136 14.6597 9.20972C14.5424 9.0768 14.5385 8.90869 14.6558 8.77186C14.734 8.68194 14.7848 8.6663 15.0272 8.64676L15.3087 8.62721V8.1698H15.1132C14.644 8.1698 14.4173 7.8805 14.6597 7.59511C14.7496 7.49347 14.777 7.48565 15.121 7.47392L15.4885 7.45828L15.6331 7.1768C16.114 6.24244 17.1617 5.7733 18.1626 6.04697Z" fill="currentColor"/>
<path fill-rule="evenodd" clip-rule="evenodd" d="M7.07926 2.02022C6.83687 2.04759 6.34037 2.15706 6.16444 2.2157C4.19408 2.87249 2.90396 4.72948 3.0056 6.75849C3.03297 7.2589 3.07206 7.49347 3.20889 7.93524C3.47474 8.78359 4.02988 9.60457 4.70622 10.1324L4.94078 10.32L5.1519 10.148C5.7344 9.67494 6.62185 9.19017 7.33337 8.95951C8.17 8.68585 8.75251 8.59202 9.61259 8.58811C10.0739 8.58811 10.1482 8.57639 10.1482 8.52556C10.1521 8.34964 10.2342 7.70067 10.2889 7.43482C10.4766 6.52001 10.9066 5.58956 11.5126 4.79985L11.6807 4.5731L11.536 4.31117C10.8832 3.12269 9.62041 2.2587 8.23255 2.04759C7.88852 1.99677 7.36074 1.98504 7.07926 2.02022ZM6.4342 4.11178C6.48111 4.16261 6.6844 4.46364 6.8916 4.78812C7.0988 5.1087 7.28646 5.39409 7.30992 5.42145C7.34119 5.45664 7.45457 5.30417 7.76341 4.8194C7.99016 4.46755 8.21691 4.14306 8.26773 4.10006C8.47493 3.93195 8.77987 4.07269 8.77987 4.33462C8.77987 4.45582 8.7095 4.59265 8.40847 5.06569L8.03317 5.6482L8.2951 5.67166C8.51794 5.69121 8.57267 5.71075 8.65086 5.80067C8.76814 5.94141 8.76814 6.11343 8.64304 6.23462C8.55312 6.32845 8.52185 6.33236 8.11526 6.33236H7.68522V6.68421H8.11135C8.51794 6.68421 8.53749 6.68812 8.63913 6.78585C8.70559 6.85622 8.74078 6.9305 8.74078 7.0126C8.73687 7.27454 8.58831 7.34882 8.08008 7.34882H7.68522V7.55211C7.68522 7.95869 7.4702 8.1698 7.19263 8.04079C7.04798 7.97042 6.98152 7.80622 6.98152 7.51301V7.34882H6.56712C6.16444 7.34882 6.15272 7.34491 6.03934 7.23544C5.89469 7.08688 5.89078 6.92659 6.02761 6.78585C6.12926 6.68812 6.14881 6.68421 6.55539 6.68421H6.98152V6.33236H6.55148C6.1449 6.33236 6.11362 6.32845 6.0237 6.23462C5.8986 6.11343 5.8986 5.94141 6.01979 5.80067C6.09798 5.70684 6.1449 5.69121 6.37165 5.67557C6.51239 5.66775 6.62967 5.65211 6.62967 5.64429C6.62967 5.63647 6.46156 5.36672 6.25827 5.05005C5.84778 4.40499 5.81259 4.29162 5.98461 4.12351C6.10971 3.9945 6.32082 3.99059 6.4342 4.11178Z" fill="currentColor"/>
</svg>
