<svg width="25" height="24" viewBox="0 0 25 24" fill="none" xmlns="http://www.w3.org/2000/svg">
<path d="M10.4609 10.75C10.7071 10.75 10.9509 10.7015 11.1784 10.6073C11.4059 10.513 11.6126 10.3749 11.7867 10.2008C11.9608 10.0267 12.0989 9.82002 12.1931 9.59253C12.2874 9.36505 12.3359 9.12123 12.3359 8.875C12.3359 8.62877 12.2874 8.38495 12.1931 8.15747C12.0989 7.92998 11.9608 7.72328 11.7867 7.54917C11.6126 7.37506 11.4059 7.23695 11.1784 7.14273C10.9509 7.0485 10.7071 7 10.4609 7C9.96358 7 9.48667 7.19754 9.13504 7.54917C8.78341 7.9008 8.58587 8.37772 8.58587 8.875C8.58587 9.37228 8.78341 9.8492 9.13504 10.2008C9.48667 10.5525 9.96358 10.75 10.4609 10.75Z" fill="#8E909F"/>
<path d="M19.8334 19.5C19.8334 20.163 19.57 20.7989 19.1011 21.2678C18.6323 21.7366 17.9964 22 17.3334 22H7.33337C6.67033 22 6.03445 21.7366 5.56561 21.2678C5.09677 20.7989 4.83337 20.163 4.83337 19.5V4.5C4.83337 3.83696 5.09677 3.20107 5.56561 2.73223C6.03445 2.26339 6.67033 2 7.33337 2H14.2084L19.8334 7.625V19.5ZM7.33337 3.25C7.00185 3.25 6.68391 3.3817 6.44949 3.61612C6.21507 3.85054 6.08337 4.16848 6.08337 4.5V17L8.86337 14.22C8.96189 14.1217 9.0904 14.0591 9.22852 14.0421C9.36664 14.0252 9.50648 14.0548 9.62587 14.1263L12.3334 15.75L15.0296 11.975C15.0824 11.9012 15.1506 11.8398 15.2294 11.795C15.3083 11.7502 15.396 11.7232 15.4864 11.7157C15.5768 11.7082 15.6677 11.7204 15.7529 11.7516C15.8381 11.7828 15.9154 11.8322 15.9796 11.8962L18.5834 14.5V7.625H16.0834C15.5861 7.625 15.1092 7.42746 14.7575 7.07583C14.4059 6.7242 14.2084 6.24728 14.2084 5.75V3.25H7.33337Z" fill="#8E909F"/>
</svg>
