<svg width="25" height="24" viewBox="0 0 25 24" fill="none" xmlns="http://www.w3.org/2000/svg">
<path d="M12.474 10.8141C12.4573 10.7928 12.4359 10.7755 12.4115 10.7636C12.3872 10.7518 12.3604 10.7456 12.3333 10.7456C12.3062 10.7456 12.2795 10.7518 12.2551 10.7636C12.2308 10.7755 12.2094 10.7928 12.1927 10.8141L9.69271 13.9771C9.6721 14.0034 9.65931 14.035 9.65581 14.0682C9.65231 14.1014 9.65823 14.135 9.6729 14.165C9.68757 14.1951 9.71039 14.2204 9.73876 14.2381C9.76714 14.2557 9.79991 14.2651 9.83334 14.265H11.4829V19.6757C11.4829 19.7739 11.5632 19.8543 11.6615 19.8543H13.0007C13.099 19.8543 13.1793 19.7739 13.1793 19.6757V14.2672H14.8333C14.9829 14.2672 15.0655 14.0954 14.974 13.9793L12.474 10.8141Z" fill="#8E909F"/>
<path d="M19.0164 8.75384C17.9941 6.05741 15.3891 4.14 12.3378 4.14C9.28646 4.14 6.68155 6.05518 5.65923 8.75161C3.74628 9.25384 2.33334 10.9971 2.33334 13.0686C2.33334 15.5351 4.3311 17.5329 6.79539 17.5329H7.69048C7.78869 17.5329 7.86905 17.4525 7.86905 17.3543V16.015C7.86905 15.9168 7.78869 15.8364 7.69048 15.8364H6.79539C6.04316 15.8364 5.33557 15.5373 4.80878 14.9949C4.28423 14.4547 4.00521 13.7271 4.02976 12.9726C4.04985 12.3833 4.25075 11.8297 4.61459 11.3632C4.98735 10.8878 5.50968 10.5418 6.09003 10.3878L6.93601 10.1668L7.24628 9.34982C7.43825 8.84089 7.7061 8.36545 8.04316 7.93464C8.37591 7.50765 8.77007 7.1323 9.2128 6.8208C10.1302 6.17571 11.2106 5.8342 12.3378 5.8342C13.465 5.8342 14.5454 6.17571 15.4628 6.8208C15.907 7.1333 16.2999 7.5083 16.6324 7.93464C16.9695 8.36545 17.2374 8.84312 17.4293 9.34982L17.7374 10.1646L18.5811 10.3878C19.7909 10.7137 20.6369 11.8141 20.6369 13.0686C20.6369 13.8074 20.349 14.5038 19.8266 15.0262C19.5705 15.2838 19.2658 15.4881 18.9301 15.6272C18.5945 15.7663 18.2346 15.8374 17.8713 15.8364H16.9762C16.878 15.8364 16.7976 15.9168 16.7976 16.015V17.3543C16.7976 17.4525 16.878 17.5329 16.9762 17.5329H17.8713C20.3356 17.5329 22.3333 15.5351 22.3333 13.0686C22.3333 10.9994 20.9249 9.2583 19.0164 8.75384Z" fill="#8E909F"/>
</svg>
