<svg width="24" height="24" viewBox="0 0 24 24" fill="none" xmlns="http://www.w3.org/2000/svg">
<path fill-rule="evenodd" clip-rule="evenodd" d="M12 22C17.5228 22 22 17.5228 22 12C22 6.47715 17.5228 2 12 2C6.47715 2 2 6.47715 2 12C2 17.5228 6.47715 22 12 22ZM12 20C16.4183 20 20 16.4183 20 12C20 7.58172 16.4183 4 12 4C7.58172 4 4 7.58172 4 12C4 16.4183 7.58172 20 12 20Z" fill="white"/>
<path fill-rule="evenodd" clip-rule="evenodd" d="M12 19C15.866 19 19 15.866 19 12C19 8.13401 15.866 5 12 5C8.13401 5 5 8.13401 5 12C5 15.866 8.13401 19 12 19ZM9.54517 13.2433C9.54517 13.5893 9.47593 13.9137 9.33745 14.2164C9.19666 14.522 8.98085 14.7714 8.69004 14.9646C8.39922 15.1549 8.02301 15.25 7.5614 15.25C7.32829 15.25 7.12633 15.237 6.95554 15.2111C6.78243 15.1851 6.61971 15.1433 6.46738 15.0857C6.31736 15.0251 6.16156 14.9473 6 14.8521V13.3298C6.27466 13.4999 6.55047 13.6311 6.82744 13.7234C7.10671 13.8156 7.3606 13.8618 7.5891 13.8618C7.79221 13.8618 7.94108 13.8185 8.03571 13.732C8.13034 13.6427 8.17765 13.5288 8.17765 13.3904C8.17765 13.2232 8.10841 13.0905 7.96993 12.9925C7.89838 12.9435 7.80375 12.883 7.68604 12.8109C7.56832 12.7359 7.42753 12.6523 7.26366 12.56C7.13672 12.488 7.01901 12.4144 6.91053 12.3395C6.80205 12.2616 6.70165 12.1809 6.60933 12.0973C6.42468 11.933 6.28274 11.7326 6.18349 11.4962C6.08424 11.2598 6.03462 10.9614 6.03462 10.601C6.03462 10.1916 6.1154 9.85135 6.27697 9.58034C6.43853 9.30644 6.66126 9.1003 6.94515 8.96191C7.23135 8.82064 7.56371 8.75 7.94223 8.75C8.27459 8.75 8.57233 8.79757 8.83545 8.89271C9.10087 8.98786 9.33745 9.09165 9.54517 9.20409L9.12626 10.5231C8.90931 10.3991 8.69581 10.3011 8.48578 10.229C8.27574 10.1541 8.08071 10.1166 7.90068 10.1166C7.72066 10.1166 7.59025 10.1555 7.50947 10.2334C7.42869 10.3083 7.3883 10.4049 7.3883 10.5231C7.3883 10.624 7.41945 10.712 7.48177 10.7869C7.54409 10.8648 7.66065 10.957 7.83144 11.0637C8.00455 11.1704 8.18804 11.2799 8.38191 11.3924C8.50424 11.4645 8.61849 11.538 8.72466 11.6129C8.83083 11.685 8.92662 11.7614 9.01201 11.8421C9.18281 12.0007 9.31437 12.1924 9.40669 12.4173C9.49901 12.6422 9.54517 12.9176 9.54517 13.2433ZM12.0814 15.1635H10.1114V8.84082H11.8771C12.6041 8.84082 13.1246 8.97633 13.4385 9.24734C13.7547 9.51835 13.9128 9.90757 13.9128 10.415C13.9128 10.6918 13.8724 10.9268 13.7916 11.1199C13.7108 11.3131 13.6104 11.4659 13.4904 11.5783C13.3704 11.6879 13.2458 11.7643 13.1165 11.8076V11.8508C13.2619 11.8998 13.4004 11.9719 13.532 12.067C13.6681 12.1651 13.7812 12.3135 13.8713 12.5125C13.9636 12.7085 14.0097 12.9752 14.0097 13.3125C14.0097 13.8863 13.8366 14.3389 13.4904 14.6705C13.1465 14.9992 12.6768 15.1635 12.0814 15.1635ZM11.8632 10.1339H11.479V11.267H11.8909C12.1171 11.267 12.2764 11.2079 12.3687 11.0897C12.461 10.9714 12.5072 10.8302 12.5072 10.6658C12.5072 10.3112 12.2925 10.1339 11.8632 10.1339ZM11.9325 12.5168H11.479V13.8445H11.9636C12.1991 13.8445 12.3641 13.781 12.4587 13.6542C12.5534 13.5273 12.6007 13.3659 12.6007 13.1698C12.6007 12.9997 12.5534 12.8484 12.4587 12.7157C12.3641 12.5831 12.1887 12.5168 11.9325 12.5168ZM16.7675 10.2377H18V8.84082H14.164V10.2377H15.3965V15.1635H16.7675V10.2377Z" fill="white"/>
</svg>
