<svg width="115" height="24" viewBox="0 0 115 24" fill="none" xmlns="http://www.w3.org/2000/svg">
<g clip-path="url(#clip0_1066_8216)">
<path fill-rule="evenodd" clip-rule="evenodd" d="M37.6762 7.7804C36.8863 7.42024 36.025 7.24397 35.1571 7.26487C34.7179 7.26135 34.28 7.31142 33.8529 7.41396C33.4369 7.51752 33.0308 7.65739 32.6393 7.83196L34.5203 0L29.815 0.728716L24.5621 22.8006C25.1596 23.0882 25.7859 23.3115 26.4306 23.4666C27.0467 23.6212 27.6703 23.744 28.2991 23.8345C28.8162 23.9101 29.3372 23.9566 29.8596 23.9738C30.3138 23.9891 30.6357 23.9891 30.8182 23.9891C32.1751 24.0013 33.5193 23.7269 34.7628 23.1838C35.9476 22.6683 37.0206 21.9267 37.9215 21.0004C39.7787 19.0596 40.8119 16.4748 40.8043 13.7885C40.8109 12.9274 40.6994 12.0694 40.4727 11.2387C40.269 10.4889 39.9185 9.78704 39.4416 9.17374C38.9649 8.58297 38.3616 8.1068 37.6762 7.7804ZM33.2148 19.745C32.6013 20.0837 31.9119 20.2611 31.2111 20.2605H30.6636C30.5412 20.2618 30.4188 20.2557 30.2971 20.2424C30.201 20.2337 30.1056 20.2188 30.0115 20.1978C29.9271 20.1797 29.8281 20.1615 29.7169 20.141L29.6924 20.1365L31.696 11.8197C32.0456 11.5053 32.4695 11.2852 32.9277 11.1802C33.29 11.0922 33.6601 11.0409 34.0326 11.0269C34.9021 11.0269 35.504 11.3014 35.8273 11.849C36.1505 12.3965 36.3135 13.1503 36.3135 14.1257C36.3149 14.9023 36.181 15.6731 35.9178 16.4038C35.6669 17.1106 35.3032 17.7722 34.8408 18.3628C34.3986 18.9295 33.8452 19.3998 33.2148 19.745ZM41.1874 23.5669H45.681L49.5085 7.59927H44.9815L41.1874 23.5669ZM46.1672 5.09544C46.6572 5.46298 47.2546 5.65886 47.8671 5.65278L47.8657 5.65696C48.2776 5.66123 48.6858 5.57912 49.064 5.41591C49.4293 5.25946 49.7634 5.03858 50.0505 4.76383C50.3374 4.48485 50.5686 4.15386 50.7318 3.78849C50.9048 3.41183 50.9932 3.00189 50.991 2.58743C50.9901 1.81552 50.7374 1.24379 50.233 0.87223C49.743 0.504686 49.1456 0.30881 48.5331 0.314895C48.1212 0.311641 47.7129 0.392725 47.3335 0.553156C46.969 0.710988 46.6355 0.932243 46.3484 1.20663C46.0609 1.486 45.8283 1.81684 45.6629 2.18197C45.4915 2.55757 45.404 2.966 45.4065 3.37885C45.4065 4.15076 45.6587 4.72342 46.1672 5.09544ZM58.1472 2.89536L53.4405 3.61989L53.4447 3.62965L50.4671 16.1976C50.2361 17.1642 50.0961 18.1503 50.0491 19.1431C49.993 19.9888 50.1362 20.8359 50.4671 21.6163C50.8092 22.3504 51.3883 22.9482 52.1112 23.3133C52.8841 23.7258 53.9672 23.932 55.3605 23.932C56.206 23.9461 57.0504 23.8662 57.8783 23.6937C58.5473 23.5432 59.2062 23.351 59.8512 23.1183L59.5154 19.6558C59.0654 19.8154 58.6044 19.9421 58.136 20.0348C57.6704 20.1281 57.1967 20.1748 56.7218 20.1742C56.1338 20.1742 55.6851 20.0919 55.3716 19.9289C55.0774 19.7904 54.845 19.5476 54.7196 19.2476C54.5904 18.9128 54.5389 18.5531 54.5691 18.1956C54.5939 17.7542 54.6649 17.3167 54.7809 16.8901L56.1157 11.3056H61.1247L62.0318 7.60206H56.9907L58.1472 2.89536ZM62.5014 13.3036C62.0512 14.5499 61.8253 15.866 61.834 17.191L61.8381 17.1952C61.8355 18.0792 61.9642 18.9587 62.2199 19.8049C62.4586 20.6143 62.8794 21.3584 63.4502 21.9799C64.0525 22.6218 64.7876 23.1245 65.6043 23.4527C66.4747 23.8168 67.5374 23.9989 68.7923 23.9989C69.6198 24.011 70.4457 23.925 71.2529 23.7425C71.8912 23.5824 72.5194 23.3842 73.1339 23.1489L72.794 19.536C72.3231 19.7322 71.8353 19.8847 71.3365 19.9916C70.7777 20.1134 70.2072 20.1742 69.6353 20.1728C68.444 20.1728 67.6219 19.8551 67.1774 19.2169C66.7306 18.5769 66.5072 17.7409 66.5072 16.7089C66.5072 14.9686 66.9517 13.5781 67.8337 12.5484C68.7157 11.5187 69.9014 11.0004 71.402 11.0004C71.9398 10.9882 72.4764 11.0553 72.9946 11.1997C73.421 11.3278 73.8413 11.4746 74.2556 11.64L75.805 8.11341C75.1773 7.81759 74.5202 7.58875 73.8445 7.43068C73.0429 7.24858 72.2226 7.16159 71.4006 7.17151C70.0397 7.15258 68.6902 7.42182 67.4408 7.96154C66.2937 8.46206 65.2638 9.19672 64.4172 10.1184C63.5767 11.0448 62.9258 12.1269 62.5014 13.3036ZM79.0082 23.5028C79.8968 23.8443 80.8432 24.0099 81.7949 23.9905V23.9947C83.2747 23.9947 84.5751 23.6858 85.6963 23.0681C86.788 22.4783 87.7443 21.6667 88.5039 20.6855C89.2596 19.7019 89.8355 18.5924 90.2051 17.4084C90.5814 16.2298 90.7749 15.0006 90.7792 13.7634C90.7909 12.8628 90.6578 11.9661 90.3849 11.1077C90.1411 10.3424 89.7443 9.63468 89.2186 9.02744C88.6793 8.42587 88.0071 7.95834 87.2554 7.66197C86.3665 7.32212 85.4203 7.15701 84.4687 7.17569C83.0336 7.17569 81.7601 7.48502 80.6454 8.10087C79.5563 8.7008 78.5979 9.51228 77.8267 10.4877C77.0514 11.4662 76.4595 12.577 76.0795 13.7662C75.6917 14.9424 75.4928 16.1727 75.4901 17.4112C75.4785 18.3088 75.6107 19.2026 75.8816 20.0585C76.1261 20.8236 76.5238 21.531 77.0506 22.1374C77.5876 22.7392 78.258 23.2068 79.0082 23.5028ZM82.2812 11.5717C82.7873 11.1893 83.4068 10.9873 84.041 10.9976L84.0438 11.0004C84.8937 11.0004 85.4803 11.2833 85.805 11.8503C86.1296 12.4174 86.2926 13.2089 86.2926 14.219C86.2863 14.8886 86.2007 15.5551 86.0376 16.2045C85.8728 16.8814 85.6109 17.531 85.2602 18.1329C84.9335 18.6959 84.4994 19.1892 83.9825 19.5848C83.4771 19.97 82.8567 20.1737 82.2213 20.163C81.37 20.163 80.7848 19.8788 80.4601 19.3145C80.1369 18.7497 79.9752 17.9601 79.9752 16.9458C79.9799 16.2755 80.066 15.6084 80.2316 14.9589C80.3961 14.2821 80.6575 13.6326 81.0077 13.0305C81.3328 12.4657 81.7655 11.9701 82.2812 11.5717ZM91.1832 23.5669H95.6809L99.5043 7.59927H94.9787L91.1832 23.5669ZM96.1658 5.09544C96.655 5.46354 97.2522 5.65949 97.8643 5.65278C98.2771 5.6572 98.6862 5.57508 99.0654 5.41173C99.4303 5.25469 99.7644 5.03388 100.052 4.75964C100.338 4.48061 100.569 4.14961 100.732 3.78431C100.904 3.40735 100.993 2.99768 100.992 2.58325C100.992 1.81552 100.737 1.24425 100.232 0.868049C99.7412 0.500213 99.1433 0.304322 98.5303 0.310714C98.119 0.30857 97.7116 0.391095 97.3335 0.553156C96.9684 0.710608 96.6343 0.931896 96.347 1.20663C96.059 1.48532 95.8268 1.81634 95.6628 2.18197C95.4905 2.55737 95.4021 2.9658 95.4037 3.37885C95.4046 4.15168 95.6587 4.72388 96.1658 5.09544ZM103.878 7.97408C103.464 8.10505 103.082 8.22488 102.741 8.3252L102.742 8.32798L99.0681 23.5669H103.592L106.541 11.2122C107.13 11.0919 107.73 11.0303 108.331 11.0283C108.939 11.0283 109.387 11.1439 109.683 11.3766C109.97 11.6052 110.167 11.9279 110.24 12.2879C110.324 12.7185 110.33 13.1608 110.257 13.5934C110.184 14.0894 110.089 14.5994 109.967 15.1261L107.963 23.5669H112.487L114.547 14.9394C115.133 12.5521 114.975 10.6697 114.074 9.29218C113.173 7.91463 111.538 7.22585 109.168 7.22585C108.444 7.22157 107.721 7.25785 107 7.33454C106.42 7.39661 105.842 7.48963 105.271 7.6132C104.802 7.71167 104.338 7.83196 103.878 7.97408ZM14.8951 0.36505C12.5935 -0.208766 10.1733 -0.0871735 7.94072 0.714453C5.70814 1.51608 3.7634 2.96174 2.35242 4.86861C0.941447 6.77549 0.127606 9.05795 0.013812 11.4274C-0.0999818 13.7968 0.491383 16.1467 1.71313 18.18C2.93487 20.2133 4.73212 21.8387 6.8776 22.8506C9.02309 23.8625 11.4205 24.2154 13.7665 23.8648C16.1126 23.5142 18.3021 22.4758 20.058 20.8809C21.8139 19.286 23.0574 17.2062 23.6314 14.9045C24.0125 13.3762 24.0888 11.7878 23.856 10.23C23.6232 8.67222 23.0858 7.17553 22.2746 5.8254C21.4633 4.47528 20.3941 3.29816 19.1279 2.36127C17.8618 1.42438 16.4235 0.746065 14.8951 0.36505ZM17.2847 10.294C17.1119 11.4616 16.464 12.0273 15.6044 12.2265C16.7845 12.841 17.385 13.7843 16.8138 15.4187C16.1032 17.4474 14.4158 17.6188 12.1712 17.1952L11.6264 19.3772L10.3097 19.0497L10.8475 16.8956C10.5061 16.8106 10.1578 16.7215 9.79832 16.617L9.2591 18.7808L7.94518 18.452L8.48997 16.2658C8.38535 16.2388 8.28025 16.2114 8.17455 16.1838C7.96916 16.1301 7.76153 16.0758 7.55086 16.0234L5.83845 15.597L6.49193 14.0922C6.49193 14.0922 7.46726 14.35 7.44776 14.3305C7.50795 14.35 7.57139 14.3573 7.63444 14.3521C7.69749 14.347 7.75889 14.3294 7.81511 14.3004C7.87132 14.2714 7.92124 14.2315 7.96198 14.1831C8.00271 14.1347 8.03347 14.0787 8.05246 14.0184L8.91215 10.5671L9.05149 10.6019C9.00619 10.5841 8.95961 10.5696 8.91215 10.5587L9.5294 8.10087C9.54473 7.8222 9.44859 7.46829 8.91494 7.33453C8.93584 7.32199 7.95911 7.09766 7.95911 7.09766L8.31023 5.69178L10.1216 6.14462L10.2736 6.18204C10.5016 6.23831 10.7296 6.29459 10.9576 6.34247L11.4954 4.1814L12.8121 4.50884L12.2826 6.62811C12.6356 6.70799 12.9872 6.79066 13.3374 6.87612L13.8627 4.77079L15.178 5.09822L14.6457 7.26486C16.308 7.83892 17.523 8.69722 17.2847 10.294ZM11.2795 10.8165L11.9344 8.18865C12.0144 8.20918 12.1135 8.23143 12.2261 8.25672C13.1608 8.46666 15.0292 8.88628 14.6835 10.2703C14.3443 11.6307 12.3975 11.1128 11.5002 10.874L11.5001 10.874C11.4168 10.8519 11.3426 10.8321 11.2795 10.8165ZM10.2262 15.0397L10.9493 12.1415C11.039 12.164 11.1486 12.1886 11.2728 12.2165C12.3832 12.4661 14.6588 12.9776 14.2766 14.5102C13.9033 16.01 11.5554 15.3897 10.4821 15.1061C10.3857 15.0807 10.2996 15.0579 10.2262 15.0397Z" fill="#656777"/>
</g>
<defs>
<clipPath id="clip0_1066_8216">
<rect width="115" height="24" fill="white"/>
</clipPath>
</defs>
</svg>
