<svg width="106" height="24" viewBox="0 0 106 24" fill="none" xmlns="http://www.w3.org/2000/svg">
<path fill-rule="evenodd" clip-rule="evenodd" d="M7.50035 0L14.9996 12.2206L7.50035 16.5752L0 12.2206L7.50035 0ZM43.2841 8.93799C42.5091 8.93795 41.7542 9.18411 41.1282 9.64094V3.40525C41.1279 3.1524 41.0273 2.90999 40.8485 2.7312C40.6697 2.55241 40.4273 2.45184 40.1745 2.45155C39.9224 2.45467 39.6815 2.55611 39.5032 2.73426C39.3248 2.91242 39.2231 3.15318 39.2197 3.40525V17.3055C39.2187 17.4432 39.2476 17.5795 39.3043 17.705C39.361 17.8306 39.4442 17.9423 39.5482 18.0326C39.6562 18.1242 39.7829 18.1912 39.9194 18.229C40.0559 18.2668 40.199 18.2745 40.3387 18.2516C40.5614 18.2125 40.7628 18.0954 40.9069 17.9212C41.051 17.747 41.1283 17.5272 41.1249 17.3011V14.1258C41.1249 14.1127 41.1249 14.0492 41.115 13.9747C41.115 13.9411 41.1104 13.9046 41.1068 13.877L41.1068 13.8769C41.1049 13.8623 41.1034 13.8502 41.103 13.8422V13.8028C41.0406 12.8404 41.2902 11.983 41.7884 11.4531C42.1607 11.0556 42.6644 10.853 43.2863 10.853C44.5072 10.853 45.0634 12.0093 45.0634 13.0834V17.3055C45.0619 17.4312 45.0856 17.556 45.133 17.6724C45.1804 17.7888 45.2506 17.8946 45.3394 17.9835C45.4282 18.0725 45.5339 18.1428 45.6503 18.1903C45.7667 18.2378 45.8914 18.2616 46.0171 18.2603C46.27 18.2597 46.5124 18.1589 46.6912 17.98C46.8699 17.801 46.9705 17.5585 46.9708 17.3055V13.0758C46.973 11.0698 45.6809 8.93799 43.2841 8.93799ZM34.3362 9.07705H35.4935C35.6191 9.07691 35.7434 9.10149 35.8594 9.1494C35.9755 9.1973 36.0809 9.26759 36.1698 9.35625C36.2586 9.44491 36.3292 9.55021 36.3773 9.66613C36.4255 9.78204 36.4504 9.90631 36.4505 10.0318C36.4518 10.1575 36.428 10.2822 36.3805 10.3986C36.333 10.515 36.2627 10.6207 36.1737 10.7095C36.0848 10.7984 35.979 10.8686 35.8626 10.9159C35.7462 10.9633 35.6214 10.987 35.4957 10.9855H34.3384V17.3417C34.3353 17.5937 34.2338 17.8346 34.0557 18.013C33.8775 18.1913 33.6368 18.2931 33.3847 18.2965C33.1317 18.2959 32.8893 18.1951 32.7106 18.0161C32.5318 17.8371 32.4313 17.5946 32.431 17.3417V10.9812H31.3437C31.2181 10.9825 31.0935 10.9587 30.9772 10.9112C30.8609 10.8638 30.7553 10.7936 30.6664 10.7048C30.5776 10.6159 30.5074 10.5103 30.4599 10.394C30.4125 10.2777 30.3887 10.1531 30.39 10.0275C30.3932 9.77539 30.4946 9.53451 30.6728 9.35616C30.8509 9.1778 31.0917 9.07608 31.3437 9.07267H32.431V7.13901C32.4279 6.91317 32.5053 6.69359 32.6493 6.51963C32.7934 6.34567 32.9947 6.22871 33.2172 6.1897C33.3569 6.16654 33.5001 6.17413 33.6366 6.21195C33.7731 6.24977 33.8998 6.31691 34.0077 6.40868C34.1116 6.4988 34.1948 6.61035 34.2515 6.73566C34.3082 6.86098 34.3371 6.99709 34.3362 7.13463V9.07705ZM23.5872 8.91609H23.5948C26.0519 8.91609 28.0545 11.0414 28.0655 13.6605C28.0646 13.9162 27.9623 14.1612 27.7811 14.3416C27.5998 14.5221 27.3544 14.6232 27.0986 14.6229H21.2221C21.5571 15.6281 22.3937 16.5139 23.5915 16.5139C24.577 16.5139 25.2646 16.1646 25.8121 15.3795C25.9361 15.1921 26.1221 15.0543 26.3375 14.9902C26.5529 14.9261 26.784 14.9399 26.9902 15.0292C27.135 15.0914 27.2617 15.189 27.3589 15.3129C27.4561 15.4369 27.5206 15.5833 27.5465 15.7387C27.5814 15.9482 27.5459 16.1634 27.4457 16.3507L27.4293 16.3825C26.7045 17.6461 25.2296 18.4311 23.5872 18.4311C21.1345 18.4311 19.1395 16.2971 19.1395 13.6736C19.1395 11.0501 21.1345 8.91609 23.5872 8.91609ZM23.5948 10.8235C22.3904 10.8235 21.556 11.7104 21.2221 12.7155H25.9698C25.6358 11.6994 24.7708 10.8235 23.5948 10.8235ZM87.9566 9.15916L87.9774 9.16573C88.1713 9.23095 88.3398 9.35547 88.4591 9.52171C88.5784 9.68794 88.6424 9.88746 88.642 10.0921V17.3504C88.642 17.6035 88.5416 17.8461 88.3628 18.0252C88.184 18.2042 87.9414 18.3049 87.6883 18.3052C87.4921 18.3072 87.3001 18.248 87.1392 18.1357C86.9783 18.0235 86.8563 17.8638 86.7905 17.6789C86.432 17.9716 86.019 18.1904 85.5755 18.3226C85.1319 18.4548 84.6666 18.4978 84.2063 18.4491C83.746 18.4004 83.3 18.2611 82.8939 18.039C82.4878 17.817 82.1297 17.5167 81.8403 17.1555C81.2403 16.4022 80.9118 15.4003 80.9118 14.3328V10.0789C80.9152 9.82704 81.0168 9.58643 81.1949 9.40831C81.373 9.23019 81.6136 9.12862 81.8655 9.12522C82.1183 9.12551 82.3607 9.22608 82.5395 9.40487C82.7183 9.58366 82.8189 9.82607 82.8192 10.0789V14.3284C82.8192 15.4025 83.3754 16.5577 84.5962 16.5577C86.4872 16.5577 86.7303 14.5408 86.7303 12.7834V10.0745C86.7314 9.9253 86.7672 9.77837 86.8348 9.64535C86.9025 9.51233 87.0001 9.39687 87.1201 9.30808C87.238 9.21935 87.3752 9.15964 87.5206 9.13377C87.6659 9.1079 87.8153 9.1166 87.9566 9.15916ZM54.4064 8.91609H54.3988C51.9461 8.91609 49.95 11.0501 49.95 13.6736C49.95 16.2971 51.9461 18.4311 54.3988 18.4311C56.0412 18.4311 57.5161 17.6461 58.2409 16.3825L58.2573 16.3507C58.3576 16.1634 58.393 15.9482 58.3581 15.7387C58.3322 15.5833 58.2677 15.4369 58.1705 15.3129C58.0733 15.189 57.9466 15.0914 57.8018 15.0292C57.5956 14.9399 57.3645 14.9261 57.1491 14.9902C56.9337 15.0543 56.7477 15.1921 56.6237 15.3795C56.0762 16.1646 55.3886 16.5139 54.4031 16.5139C53.2053 16.5139 52.3687 15.6281 52.0337 14.6229H57.9092C58.165 14.6232 58.4105 14.5221 58.592 14.3417C58.7734 14.1613 58.8759 13.9163 58.8771 13.6605C58.8716 11.0414 56.8668 8.91609 54.4064 8.91609ZM52.0337 12.7155C52.3687 11.7093 53.2053 10.8235 54.4031 10.8235C55.5791 10.8235 56.4441 11.6994 56.7781 12.7155H52.0337ZM100.104 9.3276C100.616 9.07274 101.18 8.93941 101.752 8.93799C104.147 8.93799 105.441 11.0567 105.438 13.0495V17.3055C105.438 17.5587 105.337 17.8014 105.158 17.9804C104.979 18.1594 104.737 18.26 104.484 18.2603C104.358 18.2617 104.233 18.2378 104.117 18.1903C104 18.1428 103.895 18.0725 103.806 17.9836C103.717 17.8946 103.647 17.7888 103.599 17.6724C103.552 17.556 103.528 17.4312 103.53 17.3055V13.0495C103.53 12.2316 103.155 10.8454 101.754 10.8454C100.066 10.8454 99.6188 12.9258 99.6188 14.0207V17.3055C99.6188 17.5586 99.5183 17.8013 99.3395 17.9803C99.1607 18.1593 98.9181 18.26 98.6651 18.2603C98.5394 18.2617 98.4147 18.2378 98.2983 18.1903C98.1819 18.1428 98.0762 18.0725 97.9874 17.9836C97.8985 17.8946 97.8284 17.7888 97.781 17.6724C97.7336 17.556 97.7099 17.4312 97.7114 17.3055V13.0495C97.7114 12.2316 97.3369 10.8454 95.9343 10.8454C95.3047 10.8454 94.8262 11.0271 94.4725 11.3929C93.9787 11.9042 93.7389 12.7758 93.7783 13.9112V13.9189C93.79 14.0035 93.79 14.0894 93.7783 14.174V17.2968C93.7814 17.5239 93.7031 17.7447 93.5575 17.919C93.4118 18.0934 93.2086 18.2098 92.9845 18.2472C92.9317 18.2559 92.8782 18.2603 92.8247 18.2603C92.5951 18.2616 92.3726 18.1808 92.1973 18.0326C92.0932 17.9423 92.0099 17.8306 91.9532 17.7051C91.8965 17.5796 91.8677 17.4433 91.8688 17.3055V10.045C91.8656 9.81913 91.943 9.59956 92.0871 9.4256C92.2312 9.25164 92.4325 9.13467 92.6549 9.09566C92.7947 9.0725 92.9378 9.0801 93.0744 9.11792C93.2109 9.15574 93.3376 9.22288 93.4455 9.31465C93.5623 9.41468 93.6529 9.54172 93.7094 9.68474C94.35 9.20258 95.1303 8.94235 95.9321 8.94346C96.4929 8.93799 97.0467 9.06827 97.5462 9.32319C98.0458 9.5781 98.4762 9.95009 98.8008 10.4074C99.1465 9.95198 99.5926 9.58246 100.104 9.3276ZM73.464 8.91609H73.4552C71.0026 8.91609 69.0076 11.0501 69.0076 13.6736C69.0076 16.2971 71.0026 18.4311 73.4552 18.4311C75.0976 18.4311 76.5736 17.6461 77.2974 16.3825L77.3149 16.3507C77.4151 16.1634 77.4505 15.9482 77.4156 15.7387C77.3897 15.5833 77.3253 15.4369 77.2281 15.3129C77.1309 15.189 77.0041 15.0914 76.8594 15.0292C76.6531 14.9399 76.4221 14.9261 76.2066 14.9902C75.9912 15.0543 75.8052 15.1921 75.6812 15.3795C75.1338 16.1646 74.4462 16.5139 73.4596 16.5139C72.2628 16.5139 71.4263 15.6281 71.0913 14.6229H76.9623C77.2182 14.6232 77.4637 14.5221 77.6451 14.3417C77.8266 14.1613 77.9291 13.9163 77.9303 13.6605C77.9248 11.0414 75.921 8.91609 73.464 8.91609ZM71.0913 12.7155C71.4263 11.7093 72.2628 10.8235 73.4596 10.8235C74.6367 10.8235 75.5017 11.6994 75.8356 12.7155H71.0913ZM63.8789 9.89496C64.491 9.41647 65.2389 9.08142 66.0382 9.08142C66.3035 9.07801 66.5595 9.17908 66.751 9.36282C66.8382 9.44631 66.9076 9.54659 66.955 9.65761C67.0024 9.76864 67.0269 9.88811 67.0269 10.0088C67.0341 10.2481 66.9509 10.4813 66.7938 10.6619C66.6367 10.8425 66.4173 10.9573 66.1794 10.9833C64.11 11.2833 63.891 13.2597 63.891 14.0952V17.2705C63.8944 17.4965 63.8171 17.7164 63.673 17.8905C63.5289 18.0647 63.3275 18.1819 63.1048 18.2209C63.0509 18.2296 62.9963 18.234 62.9417 18.234C62.8156 18.2356 62.6905 18.2121 62.5737 18.1647C62.4569 18.1174 62.3507 18.0472 62.2614 17.9582C62.1721 17.8693 62.1014 17.7635 62.0535 17.6469C62.0056 17.5303 61.9815 17.4053 61.9825 17.2792V10.0428C61.9796 9.81683 62.0573 9.59724 62.2015 9.42331C62.3457 9.24938 62.5472 9.13245 62.7698 9.09347C62.9095 9.07046 63.0526 9.07813 63.1891 9.11594C63.3256 9.15376 63.4523 9.22081 63.5603 9.31245C63.7328 9.46225 63.8458 9.66893 63.8789 9.89496ZM7.50035 17.9647L0 13.6156L7.50035 24L14.9996 13.6156L7.50035 17.9702V17.9647Z" fill="#656777"/>
</svg>
