<svg width="109" height="24" viewBox="0 0 109 24" fill="none" xmlns="http://www.w3.org/2000/svg">
<path fill-rule="evenodd" clip-rule="evenodd" d="M11.9987 7.45293e-08C14.3721 -0.000264388 16.6923 0.703299 18.6659 2.02171C20.6394 3.34013 22.1777 5.21418 23.0862 7.40687C23.9946 9.59956 24.2325 12.0124 23.7696 14.3403C23.3067 16.6681 22.1639 18.8064 20.4858 20.4848C18.8076 22.1632 16.6694 23.3062 14.3416 23.7693C12.0138 24.2325 9.6009 23.9949 7.40811 23.0867C5.21532 22.1785 3.34109 20.6404 2.02246 18.667C0.703822 16.6936 0 14.3734 0 12C0 8.81763 1.2641 5.76559 3.51425 3.51519C5.76439 1.26479 8.8163 0.000354987 11.9987 7.45293e-08ZM10.0963 4.6194L8.2301 11.6722L6.94448 12.1699L6.32642 14.4843L7.61204 13.9987L6.54181 18.0334H18.0201L18.808 15.0395H11.901L12.689 12.1057L13.9492 11.6321L14.5672 9.31772L13.3057 9.80334L14.6756 4.61538H10.0963V4.6194ZM29.2026 19.3271L32.3424 4.33578H35.4193L32.8119 16.816H40.4374L39.9156 19.3217L29.2026 19.3271ZM47.0983 8.46688H44.1685L41.8943 19.3271H44.824L47.0983 8.46688ZM47.9625 4.33578H45.0274L44.4695 6.99398H47.41L47.9625 4.33578ZM48.4495 10.6448L48.899 8.46689H50.3304L50.6889 6.72776L54.0535 4.70368L53.2655 8.46689H55.0555L54.6033 10.6448H52.804L51.8528 15.1933C51.6834 16.0192 51.5982 16.4896 51.5973 16.6047C51.5922 16.703 51.6089 16.8012 51.6461 16.8923C51.6833 16.9834 51.7402 17.0652 51.8127 17.1318C51.9558 17.2575 52.214 17.3204 52.5899 17.3204C52.7237 17.3204 53.0434 17.2977 53.5612 17.2495L53.101 19.4274C52.5892 19.5302 52.0685 19.5818 51.5465 19.5813C50.5101 19.5813 49.7569 19.3815 49.2869 18.9819C48.8169 18.5824 48.5824 18.029 48.5832 17.3217C48.5832 16.9882 48.7094 16.2181 48.9618 15.0114L49.8715 10.6448H48.4495ZM57.9011 14.8094H65.2589C65.4017 14.1823 65.4699 13.5407 65.4623 12.8976C65.4632 11.418 65.0712 10.2675 64.2864 9.44614C63.5015 8.62473 62.4451 8.21403 61.1171 8.21403C59.0319 8.21403 57.4266 8.99797 56.3011 10.5659C55.4773 11.7233 55.0443 13.1133 55.0649 14.5338C55.0658 16.0535 55.5225 17.2754 56.4348 18.1993C57.3472 19.1233 58.5334 19.5853 59.9934 19.5853C61.0087 19.5984 62.007 19.3233 62.8723 18.792C63.7276 18.264 64.4108 17.4716 64.9218 16.4147L62.2917 15.9799C61.7503 16.9895 60.9923 17.4943 60.0174 17.4943C59.7329 17.4976 59.4509 17.4395 59.1907 17.3241C58.9306 17.2087 58.6983 17.0386 58.5098 16.8254C58.0968 16.3822 57.8904 15.7993 57.8904 15.0769C57.8904 15.0503 57.8923 15.0192 57.8945 14.9833L57.8945 14.9831C57.8975 14.9342 57.9011 14.8764 57.9011 14.8094ZM62.7947 12.7211C62.7947 12.7893 62.792 12.8829 62.7853 13.0167H58.194C58.3635 12.1231 58.6886 11.4484 59.1693 10.9926C59.3828 10.7766 59.6369 10.6049 59.917 10.4873C60.1971 10.3698 60.4977 10.3087 60.8014 10.3077C61.0728 10.2958 61.3434 10.3437 61.5943 10.4479C61.8451 10.5522 62.0699 10.7103 62.2529 10.911C62.6141 11.315 62.7947 11.9184 62.7947 12.7211ZM73.6963 15.2361L76.5431 15.6963C76.074 16.9645 75.3788 17.9291 74.4575 18.59C73.5242 19.2551 72.4021 19.6031 71.2562 19.5826C69.8729 19.5826 68.7755 19.1701 67.9639 18.3451C67.1523 17.5202 66.7483 16.3862 66.7518 14.9431C66.7467 13.7875 66.9985 12.6451 67.489 11.5986C67.9628 10.5677 68.7362 9.70339 69.7084 9.11838C70.6858 8.51821 71.8122 8.20485 72.9592 8.21403C74.2408 8.21403 75.2633 8.54803 76.0268 9.21604C76.7902 9.88404 77.2201 10.7634 77.3164 11.8542L74.5244 12.1512C74.4566 11.5438 74.2707 11.0979 73.9666 10.8134C73.6418 10.5189 73.2139 10.3645 72.7759 10.3839C72.1886 10.3916 71.6246 10.6154 71.192 11.0127C70.7014 11.4354 70.3246 12.0678 70.0615 12.9097C69.8118 13.6746 69.6792 14.473 69.6682 15.2776C69.6682 15.9188 69.8252 16.4129 70.1391 16.7599C70.2849 16.9277 70.4658 17.0615 70.669 17.1517C70.8722 17.2418 71.0928 17.2862 71.315 17.2816C71.8131 17.2709 72.2925 17.0906 72.6742 16.7706C73.113 16.4299 73.4537 15.9184 73.6963 15.2361ZM80.1178 10.0013C78.9834 11.2 78.4161 12.8053 78.4161 14.8174C78.4101 15.6562 78.608 16.484 78.9927 17.2294C79.3842 17.9815 80.0038 18.5903 80.7626 18.9685C81.6062 19.3903 82.5395 19.601 83.4824 19.5826C85.3669 19.5826 86.8755 18.9404 88.0081 17.6562C89.123 16.4011 89.7251 14.7727 89.6951 13.0943C89.6924 11.6004 89.2425 10.4125 88.3453 9.53041C87.448 8.64836 86.1968 8.20734 84.5914 8.20734C82.7435 8.20466 81.2523 8.80266 80.1178 10.0013ZM86.1713 11.0488C86.5771 11.468 86.78 12.0254 86.78 12.7211H86.7747C86.7756 14.1177 86.3858 15.3039 85.6055 16.2796C85.0578 16.9681 84.3827 17.3124 83.58 17.3124C83.2806 17.3196 82.9831 17.2622 82.7079 17.144C82.4327 17.0258 82.1862 16.8496 81.9854 16.6274C81.5626 16.1708 81.3513 15.5536 81.3513 14.7759C81.3663 14.0705 81.5049 13.3733 81.7606 12.7157C82.0353 11.971 82.4202 11.4015 82.9151 11.0073C83.3916 10.6206 83.9885 10.4128 84.6021 10.42C84.8931 10.4093 85.1831 10.4598 85.4534 10.5681C85.7237 10.6764 85.9683 10.8401 86.1713 11.0488ZM93.0434 8.46688H95.9785L93.7043 19.3271H90.7732L93.0434 8.46688ZM93.9023 4.33578H96.8374L96.2849 6.99398H93.3498L93.9023 4.33578ZM101.684 8.46688H98.9031L96.6329 19.3271H99.568L100.498 14.8682C100.771 13.5661 101.016 12.7037 101.235 12.2809C101.519 11.7061 101.945 11.2134 102.472 10.8495C102.997 10.4883 103.474 10.3077 103.904 10.3077C104.072 10.2977 104.24 10.3209 104.399 10.376C104.557 10.4311 104.704 10.517 104.83 10.6288C104.943 10.7455 105.031 10.8845 105.088 11.0369C105.145 11.1893 105.17 11.3519 105.161 11.5144C105.162 11.691 105.067 12.2395 104.875 13.1599L103.587 19.3271H106.522L107.799 13.1813C108.024 12.1164 108.137 11.3935 108.137 11.0127C108.137 10.1672 107.88 9.48895 107.365 8.97791C106.849 8.46688 106.145 8.21136 105.254 8.21136C104.598 8.20845 103.949 8.33862 103.346 8.59397C102.635 8.9197 101.978 9.35236 101.398 9.87691L101.684 8.46688Z" fill="#656777"/>
</svg>
