<svg width="108" height="24" viewBox="0 0 108 24" fill="none" xmlns="http://www.w3.org/2000/svg">
<path fill-rule="evenodd" clip-rule="evenodd" d="M6.17543 0H22.5077C22.8975 0 23.2575 0.208473 23.4518 0.546687L28.2101 8.8272C28.4568 9.25663 28.3835 9.79862 28.0315 10.1468L14.9343 23.1049C14.51 23.5246 13.8275 23.5246 13.4032 23.1049L0.323662 10.1644C-0.036485 9.80804 -0.103925 9.25024 0.16091 8.81813L5.24713 0.52012C5.44521 0.196952 5.79672 0 6.17543 0ZM20.3989 3.69697V6.02037H15.7465V7.63124C19.0141 7.8034 21.4656 8.5104 21.4838 9.35783L21.4837 11.1245C21.4655 11.972 19.0141 12.679 15.7465 12.8511V16.8044H12.6572V12.8511C9.38968 12.679 6.93817 11.972 6.92002 11.1245L6.92008 9.35783C6.93828 8.5104 9.38968 7.8034 12.6572 7.63124V6.02037H8.00482V3.69697H20.3989ZM14.2019 11.6374C17.6889 11.6374 20.6035 11.0396 21.3168 10.2412C20.7119 9.56418 18.5241 9.03132 15.7465 8.88498V10.5716C15.2487 10.5978 14.7319 10.6116 14.2019 10.6116C13.6719 10.6116 13.1551 10.5978 12.6572 10.5716V8.88498C9.87969 9.03132 7.69182 9.56418 7.08697 10.2412C7.80023 11.0396 10.7148 11.6374 14.2019 11.6374Z" fill="#656777"/>
<path d="M34.586 4.49311L38.3614 4.06793V7.7352H41.6387V10.9241H38.3352V15.8669C38.3352 17.0362 38.8246 17.6208 39.8034 17.6208C40.4326 17.6208 40.957 17.5145 41.3765 17.3019L42.2417 20.4908C41.3852 20.8274 40.4763 21.0223 39.515 21.0755C37.9943 21.1463 36.7883 20.7832 35.8969 19.9859C35.0229 19.171 34.586 17.798 34.586 15.8669V10.9241H32.2788V7.7352H34.586V4.49311Z" fill="#656777"/>
<path d="M55.7688 15.4683H46.2516C46.3565 16.1415 46.7148 16.6995 47.3266 17.1425C47.9383 17.5676 48.7511 17.7803 49.7649 17.7803C51.2156 17.7803 52.3342 17.4348 53.1208 16.7439L55.2445 19.1355C53.951 20.4289 52.0982 21.0755 49.6862 21.0755C47.379 21.0755 45.5875 20.4465 44.3115 19.1887C43.053 17.9309 42.4238 16.2301 42.4238 14.0864C42.4238 12.0668 43.0443 10.4369 44.2852 9.19674C45.5262 7.9389 47.1955 7.30999 49.2929 7.30999C51.5827 7.30999 53.3305 8.01863 54.5365 9.43592C55.7601 10.8532 56.1708 12.864 55.7688 15.4683ZM46.2516 12.678H52.3867C52.3517 12.0048 52.0371 11.491 51.4428 11.1367C50.8485 10.7646 50.1319 10.5786 49.2929 10.5786C48.5413 10.5786 47.8946 10.7646 47.3528 11.1367C46.8109 11.5087 46.4439 12.0225 46.2516 12.678Z" fill="#656777"/>
<path d="M58.9164 4.49311L62.692 4.06793V7.7352H65.9689V10.9241H62.6657V15.8669C62.6657 17.0362 63.155 17.6208 64.1338 17.6208C64.763 17.6208 65.2875 17.5145 65.7066 17.3019L66.5718 20.4908C65.7154 20.8274 64.8069 21.0223 63.8452 21.0755C62.325 21.1463 61.1186 20.7832 60.227 19.9859C59.3531 19.171 58.9164 17.798 58.9164 15.8669V10.9241H56.6092V7.7352H58.9164V4.49311Z" fill="#656777"/>
<path d="M67.9878 2.18115H71.7892V9.27647C72.7158 8.05405 74.0265 7.44287 75.7223 7.44287C79.1654 7.44287 80.8869 9.54222 80.8869 13.741V20.7832H77.1119V13.7676C77.1119 12.864 76.8842 12.1643 76.43 11.6682C75.9933 11.1721 75.3986 10.9241 74.6469 10.9241C73.8257 10.9241 73.1349 11.2075 72.5759 11.7745C72.0339 12.3414 71.7628 13.1298 71.7628 14.1396V20.7832H67.9878V2.18115Z" fill="#656777"/>
<path d="M95.6938 15.4683H86.1769C86.2817 16.1415 86.6399 16.6995 87.2516 17.1425C87.8633 17.5676 88.6764 17.7803 89.6903 17.7803C91.1408 17.7803 92.2594 17.4348 93.0462 16.7439L95.1699 19.1355C93.8762 20.4289 92.0235 21.0755 89.6112 21.0755C87.3043 21.0755 85.5125 20.4465 84.2364 19.1887C82.9779 17.9309 82.3492 16.2301 82.3492 14.0864C82.3492 12.0668 82.9697 10.4369 84.2107 9.19674C85.4516 7.9389 87.1205 7.30999 89.2179 7.30999C91.5078 7.30999 93.2557 8.01863 94.4616 9.43592C95.685 10.8532 96.0959 12.864 95.6938 15.4683ZM86.1769 12.678H92.3115C92.277 12.0048 91.9621 11.491 91.3679 11.1367C90.7738 10.7646 90.0573 10.5786 89.2179 10.5786C88.4663 10.5786 87.82 10.7646 87.278 11.1367C86.7359 11.5087 86.3689 12.0225 86.1769 12.678Z" fill="#656777"/>
<path d="M97.2596 7.68205H100.773L101.062 9.11701C101.883 7.94774 103.037 7.36314 104.522 7.36314C105.746 7.36314 106.803 7.76177 107.694 8.55898L106.121 11.5884C105.51 11.1455 104.819 10.9241 104.05 10.9241C103.193 10.9241 102.477 11.1987 101.9 11.7479C101.324 12.2794 101.035 13.0146 101.035 13.9535V20.7832H97.2596V7.68205Z" fill="#656777"/>
</svg>
