<svg width="20" height="20" viewBox="0 0 20 20" fill="none" xmlns="http://www.w3.org/2000/svg">
<circle cx="10" cy="10" r="10" fill="white"/>
<path d="M19.685 7.5C19.8906 8.29905 20 9.13675 20 10H0C0 9.13675 0.109382 8.29905 0.315044 7.5H19.685Z" fill="#D80027"/>
<path d="M16.6146 2.5C17.4245 3.21491 18.1178 4.05899 18.6622 5H1.33782C1.88217 4.05899 2.57545 3.21491 3.38544 2.5H16.6146Z" fill="#D80027"/>
<path d="M18.6622 15C19.1098 14.2262 19.4567 13.3869 19.685 12.5H0.315044C0.543323 13.3869 0.890223 14.2262 1.33782 15H18.6622Z" fill="#D80027"/>
<path d="M16.6146 17.5H3.38544C5.14827 19.0559 7.46388 20 10 20C12.5361 20 14.8517 19.0559 16.6146 17.5Z" fill="#D80027"/>
<path d="M0.029139 10.7691C0.0098307 10.5153 0 10.2588 0 10C0 4.47715 4.47715 0 10 0V10.7691H0.029139Z" fill="#2E52B2"/>
<path d="M2.29343 3.62696C2.34618 3.56324 2.39971 3.50018 2.454 3.4378L2.58414 3.83816L2.29343 3.62696Z" fill="#F0F0F0"/>
<path d="M1.19499 5.25533C1.20916 5.22909 1.22344 5.20293 1.23783 5.17684H1.79387L2.01238 4.50453L2.23066 5.17684H2.93758L2.36559 5.59223L2.58414 6.26457L2.01238 5.84918L1.44039 6.26457L1.65891 5.59223L1.19499 5.25533Z" fill="#F0F0F0"/>
<path d="M2.23066 7.60324L2.01238 6.93094L1.79387 7.60324H1.08691L1.65891 8.01863L1.44039 8.69094L2.01238 8.27559L2.58414 8.69094L2.36559 8.01863L2.93758 7.60324H2.23066Z" fill="#F0F0F0"/>
<path d="M5.00008 4.50453L4.78156 5.17684H4.07461L4.6466 5.59223L4.42809 6.26457L5.00008 5.84918L5.57184 6.26457L5.35328 5.59223L5.92531 5.17684H5.21836L5.00008 4.50453Z" fill="#F0F0F0"/>
<path d="M5.00008 6.93094L5.21836 7.60324H5.92531L5.35328 8.01863L5.57184 8.69094L5.00008 8.27559L4.42809 8.69094L4.6466 8.01863L4.07461 7.60324H4.78156L5.00008 6.93094Z" fill="#F0F0F0"/>
<path d="M8.20605 7.60324L7.98781 6.93094L7.76926 7.60324H7.06234L7.63434 8.01863L7.41578 8.69094L7.98781 8.27559L8.55953 8.69094L8.34102 8.01863L8.91301 7.60324H8.20605Z" fill="#F0F0F0"/>
<path d="M7.76926 5.17684L7.98781 4.50453L8.20605 5.17684H8.91301L8.34102 5.59223L8.55953 6.26457L7.98781 5.84918L7.41578 6.26457L7.63434 5.59223L7.06234 5.17684H7.76926Z" fill="#F0F0F0"/>
<path d="M5.00008 2.07812L4.78156 2.75047H4.07461L4.6466 3.16582L4.42809 3.83816L5.00008 3.42277L5.57184 3.83816L5.35328 3.16582L5.92531 2.75047H5.21836L5.00008 2.07812Z" fill="#F0F0F0"/>
<path d="M7.76926 2.75047L7.98781 2.07812L8.20605 2.75047H8.91301L8.34102 3.16582L8.55953 3.83816L7.98781 3.42277L7.41578 3.83816L7.63434 3.16582L7.06234 2.75047H7.76926Z" fill="#F0F0F0"/>
</svg>
