<svg width="240" height="260" viewBox="0 0 240 260" fill="none" xmlns="http://www.w3.org/2000/svg">
<g clip-path="url(#clip0_884_64261)">
<circle opacity="0.24" cx="120" cy="140" r="120" fill="#282F3E"/>
<g filter="url(#filter0_d_884_64261)">
<rect x="66.735" width="112.43" height="221.204" rx="17.7796" fill="#171E2C"/>
</g>
<rect width="99.9162" height="170.714" transform="matrix(-1 0 0 1 173.27 27.4202)" fill="#11141C"/>
<path fill-rule="evenodd" clip-rule="evenodd" d="M173.27 103.989H95.0427C90.0722 103.989 86.0427 108.018 86.0427 112.989V143.329C86.0427 148.3 90.0722 152.329 95.0427 152.329H173.27V103.989ZM173.27 163.557H95.0427C90.0722 163.557 86.0427 167.586 86.0427 172.557V198.134H173.27V163.557Z" fill="#11141C"/>
<g opacity="0.8">
<path d="M173.27 103.989H95.0427C90.0722 103.989 86.0427 108.018 86.0427 112.989V143.329C86.0427 148.3 90.0722 152.329 95.0427 152.329H173.27V103.989Z" fill="#282F3E"/>
<path d="M173.27 163.557H95.0427C90.0722 163.557 86.0427 167.586 86.0427 172.557V198.134H173.27V163.557Z" fill="#282F3E"/>
</g>
<rect y="40.6386" width="130.115" height="47.993" rx="9" fill="#11141C"/>
<rect opacity="0.8" y="40.6386" width="130.115" height="47.993" rx="9" fill="#282F3E"/>
<g opacity="0.4">
<path d="M173.27 113.995H134.19C132.79 113.995 131.656 115.13 131.656 116.529C131.656 117.929 132.79 119.063 134.19 119.063H173.27V113.995Z" fill="#11141C"/>
<path d="M173.27 123.233H134.19C132.79 123.233 131.656 124.367 131.656 125.766C131.656 127.166 132.79 128.3 134.19 128.3H173.27V123.233Z" fill="#11141C"/>
<path d="M173.27 173.563H134.19C132.79 173.563 131.656 174.698 131.656 176.097C131.656 177.497 132.79 178.631 134.19 178.631H173.27V173.563Z" fill="#11141C"/>
<path d="M173.27 182.801H134.19C132.79 182.801 131.656 183.935 131.656 185.334C131.656 186.734 132.79 187.868 134.19 187.868H173.27V182.801Z" fill="#11141C"/>
<path d="M45.285 53.089C45.285 51.6997 46.4113 50.5734 47.8005 50.5734H115.648C117.037 50.5734 118.163 51.6997 118.163 53.089C118.163 54.4782 117.037 55.6045 115.648 55.6045H47.8005C46.4113 55.6045 45.285 54.4782 45.285 53.089Z" fill="#11141C"/>
<path d="M45.285 62.2596C45.285 60.8703 46.4113 59.7441 47.8005 59.7441H96.4438C97.833 59.7441 98.9593 60.8703 98.9593 62.2596C98.9593 63.6489 97.833 64.7751 96.4438 64.7751H47.8006C46.4113 64.7751 45.285 63.6489 45.285 62.2596Z" fill="#11141C"/>
</g>
<g opacity="0.48">
<path d="M21.7887 52.0091C21.7184 52.0166 21.5 52.0426 21.3075 52.0612C20.0857 52.1952 18.7345 52.6567 17.6423 53.3118C16.254 54.1455 15.1249 55.2806 14.2956 56.6763C13.6478 57.7631 13.2183 59.0285 13.0443 60.3609C12.9851 60.8187 12.9851 62.2107 13.0443 62.6685C13.3479 64.9872 14.3623 66.9486 16.08 68.5527C17.0278 69.4422 18.2088 70.1345 19.4934 70.5588C20.5078 70.8975 21.3112 71.0203 22.4551 71.0203C23.2992 71.0203 23.6731 70.9868 24.4172 70.8342C26.968 70.3094 29.2448 68.6644 30.6146 66.3531C31.2625 65.2663 31.6919 64.0009 31.8659 62.6685C31.9252 62.2107 31.9252 60.8187 31.8659 60.3609C31.6919 59.0285 31.2625 57.7631 30.6146 56.6763C29.7853 55.2806 28.6562 54.1455 27.2679 53.3118C26.198 52.6679 24.9207 52.2287 23.6398 52.0612C23.314 52.0166 22.0183 51.9831 21.7887 52.0091ZM20.9002 54.6405L21.8813 55.3551L21.8961 58.2209L20.7484 59.0583C20.1154 59.5198 19.5712 59.9106 19.5378 59.9255C19.4971 59.9441 19.0306 59.8101 18.1643 59.5272C17.4424 59.2928 16.8427 59.0843 16.8279 59.0695C16.8094 59.0546 16.5983 58.4219 16.354 57.6626L15.9097 56.2893L16.0615 56.0994C16.3207 55.7794 17.0093 55.1206 17.3795 54.8415C17.9792 54.3874 18.4827 54.0896 19.1602 53.7919L19.5119 53.6356L19.7155 53.777C19.8266 53.8589 20.3597 54.246 20.9002 54.6405ZM26.2276 54.0152C26.6237 54.2125 27.1161 54.5288 27.5307 54.8415C27.9009 55.1206 28.5895 55.7794 28.8487 56.0994L29.0005 56.2893L28.5562 57.6626C28.3119 58.4219 28.1009 59.0546 28.0823 59.0695C28.0675 59.0843 27.4678 59.2928 26.7459 59.5272C25.8796 59.8101 25.4131 59.9441 25.3724 59.9255C25.3391 59.9106 24.7949 59.5198 24.1618 59.0583L23.0141 58.2209L23.0289 55.3551L24.2099 54.4953L25.3872 53.6356L25.6723 53.7547C25.8277 53.8217 26.0758 53.937 26.2276 54.0152ZM18.3828 60.7666C18.7789 60.8969 19.1232 61.0197 19.1454 61.0458C19.1824 61.083 20.0598 63.759 20.0598 63.8409C20.0598 63.8632 19.6896 64.3954 19.2343 65.0244L18.405 66.167H15.4914L15.3433 65.9325C15.0879 65.538 14.6918 64.682 14.5178 64.1498C14.2512 63.3384 14.0254 61.9799 14.1364 61.8608C14.1623 61.8348 14.6955 61.4403 15.3248 60.9825L16.4688 60.1488L17.0648 60.3423C17.3943 60.4503 17.9866 60.6401 18.3828 60.7666ZM29.6002 60.9937C30.2 61.4291 30.7183 61.8125 30.7553 61.846C30.8071 61.8981 30.8108 61.9539 30.7812 62.2851C30.7331 62.8471 30.5813 63.5766 30.3925 64.1498C30.2185 64.682 29.8223 65.538 29.5669 65.9325L29.4188 66.167H26.5052L25.676 65.0244C25.2206 64.3954 24.8504 63.8632 24.8504 63.8409C24.8504 63.7888 25.7056 61.1351 25.7426 61.0681C25.7833 61.0011 28.4192 60.1376 28.4711 60.1748C28.4933 60.1897 29.0005 60.5582 29.6002 60.9937ZM24.6949 65.5603C25.1021 66.1261 25.4723 66.6397 25.5168 66.703L25.5982 66.8183L25.1466 68.214L24.6912 69.6097L24.3913 69.6916C23.2696 69.9856 21.6406 69.9856 20.5189 69.6916L20.219 69.6097L19.7637 68.214L19.312 66.8183L19.3935 66.703C19.4379 66.6397 19.8081 66.1261 20.2153 65.5603L20.9557 64.5331H23.9545L24.6949 65.5603Z" fill="#11141C"/>
<path d="M103.353 174.039C103.29 174.063 103.196 174.11 103.153 174.133C103.106 174.16 102.493 174.872 101.785 175.716C101.082 176.56 100.457 177.299 100.398 177.354C100.066 177.67 99.9015 178.487 100.062 179.023C100.281 179.738 100.828 180.293 101.535 180.52C101.914 180.641 102.473 180.633 102.876 180.5C103.044 180.445 103.189 180.398 103.196 180.398C103.208 180.398 103.216 180.731 103.216 181.141V181.88L102.493 181.903V182.685L103.619 182.697L104.74 182.704V181.884H104.037V181.137C104.037 180.441 104.041 180.391 104.107 180.418C104.521 180.594 105.162 180.656 105.561 180.559C106.147 180.414 106.749 179.941 106.999 179.421C107.32 178.769 107.296 178.139 106.925 177.526C106.78 177.291 104.322 174.328 104.158 174.192C103.943 174.02 103.572 173.949 103.353 174.039Z" fill="#11141C"/>
<path d="M111.709 175.063C111.064 175.243 110.56 175.657 110.286 176.232C110.138 176.548 110.083 176.838 110.103 177.213C110.126 177.576 110.224 177.873 110.423 178.186C110.501 178.311 111.15 179.097 111.862 179.937C113.015 181.293 113.183 181.473 113.355 181.555C113.749 181.739 114.062 181.641 114.429 181.223C115.317 180.222 116.986 178.206 117.087 178.01C117.247 177.717 117.341 177.283 117.31 176.998C117.22 176.193 116.673 175.478 115.93 175.2C115.313 174.969 114.433 175.048 113.863 175.38L113.702 175.474L113.472 175.337C113.347 175.259 113.128 175.161 112.987 175.114C112.655 175.009 111.994 174.981 111.709 175.063Z" fill="#11141C"/>
<path d="M113.183 185.319C112.635 185.495 112.19 185.866 111.955 186.335C111.799 186.648 111.752 186.84 111.717 187.281L111.69 187.617L111.525 187.668C111.217 187.758 110.974 187.914 110.697 188.192C110.298 188.595 110.095 189.071 110.095 189.603C110.095 190.772 111.095 191.721 112.245 191.643C112.569 191.62 112.929 191.506 113.151 191.362L113.3 191.264V193.14H112.596V194H114.824V193.14H114.121V191.264L114.269 191.362C114.629 191.6 115.258 191.71 115.731 191.62C116.528 191.463 117.181 190.818 117.349 190.006C117.49 189.333 117.228 188.555 116.704 188.09C116.509 187.918 116.094 187.696 115.891 187.649L115.762 187.621V187.301C115.762 187.125 115.735 186.875 115.7 186.75C115.528 186.077 114.965 185.511 114.281 185.307C113.996 185.221 113.46 185.229 113.183 185.319Z" fill="#11141C"/>
<path d="M103.411 185.347C103.333 185.397 100.785 188.782 100.394 189.361C100.328 189.451 100.285 189.568 100.285 189.646C100.285 189.779 100.218 189.685 102.661 192.992C103.13 193.629 103.38 193.93 103.454 193.965C103.611 194.027 103.81 193.98 103.927 193.852C104.193 193.57 106.964 189.814 106.988 189.708C107.003 189.626 106.992 189.548 106.941 189.454C106.788 189.165 103.974 185.393 103.873 185.339C103.732 185.268 103.533 185.272 103.411 185.347Z" fill="#11141C"/>
<path fill-rule="evenodd" clip-rule="evenodd" d="M103.423 120.859C104.298 120.859 105.069 120.615 105.705 120.303C105.059 121.547 104.672 122.986 104.595 124.471C102.012 124.754 99.9857 126.971 99.9857 129.688C99.9857 132.595 102.299 135 105.142 135C106.018 135 106.857 134.748 107.609 134.325C106.442 133.155 105.715 131.488 105.715 129.688C105.715 127.887 106.442 126.259 107.609 125.089C107.03 124.763 106.399 124.542 105.739 124.456C105.988 120.315 109.047 116.899 112.99 116.275C111.986 117.717 111.444 119.438 111.444 121.245V124.473C108.873 124.769 106.861 126.98 106.861 129.688C106.861 132.595 109.174 135 112.017 135C114.86 135 117.173 132.595 117.173 129.688C117.173 126.98 115.161 124.769 112.59 124.473V121.245C112.59 119.263 113.344 117.401 114.714 116L115.692 115H114.309C111.618 115 109.179 116.122 107.414 117.933C106.951 117.478 105.466 116.172 103.423 116.172C101.11 116.172 99.4964 117.858 99.2914 118.073C99.2822 118.082 99.2758 118.089 99.2723 118.092L98.8398 118.516L99.2723 118.939C99.2758 118.942 99.2822 118.949 99.2914 118.959C99.4964 119.173 101.11 120.859 103.423 120.859ZM112.017 127.93C111.069 127.93 110.298 128.718 110.298 129.688H109.152C109.152 128.072 110.438 126.758 112.017 126.758V127.93ZM103.423 129.688C103.423 128.718 104.194 127.93 105.142 127.93V126.758C103.563 126.758 102.277 128.072 102.277 129.688H103.423Z" fill="#11141C"/>
</g>
<g opacity="0.25">
<path d="M131.886 198.134H152.418C152.018 197.262 151.137 196.656 150.114 196.656H134.19C133.167 196.656 132.286 197.262 131.886 198.134Z" fill="#11141C"/>
<path d="M134.19 137.088C132.79 137.088 131.656 138.223 131.656 139.622C131.656 141.021 132.79 142.156 134.19 142.156H150.114C151.514 142.156 152.648 141.021 152.648 139.622C152.648 138.223 151.514 137.088 150.114 137.088H134.19Z" fill="#11141C"/>
<path d="M45.285 76.0155C45.285 74.6263 46.4113 73.5 47.8005 73.5H63.6104C64.9997 73.5 66.1259 74.6263 66.1259 76.0155C66.1259 77.4048 64.9997 78.5311 63.6104 78.5311H47.8005C46.4113 78.5311 45.285 77.4048 45.285 76.0155Z" fill="#11141C"/>
</g>
</g>
<defs>
<filter id="filter0_d_884_64261" x="54.735" y="-12" width="136.43" height="245.204" filterUnits="userSpaceOnUse" color-interpolation-filters="sRGB">
<feFlood flood-opacity="0" result="BackgroundImageFix"/>
<feColorMatrix in="SourceAlpha" type="matrix" values="0 0 0 0 0 0 0 0 0 0 0 0 0 0 0 0 0 0 127 0" result="hardAlpha"/>
<feOffset/>
<feGaussianBlur stdDeviation="6"/>
<feColorMatrix type="matrix" values="0 0 0 0 0 0 0 0 0 0 0 0 0 0 0 0 0 0 0.16 0"/>
<feBlend mode="normal" in2="BackgroundImageFix" result="effect1_dropShadow_884_64261"/>
<feBlend mode="normal" in="SourceGraphic" in2="effect1_dropShadow_884_64261" result="shape"/>
</filter>
<clipPath id="clip0_884_64261">
<rect width="240" height="260" fill="white"/>
</clipPath>
</defs>
</svg>
