<svg width="212" height="284" viewBox="0 0 212 284" fill="none" xmlns="http://www.w3.org/2000/svg">
<g opacity="0.8" filter="url(#filter0_d_747_49490)">
<path d="M30.4035 42.3231C30.4035 35.707 35.7669 30.3436 42.383 30.3436H168.853C175.469 30.3436 180.832 35.707 180.832 42.3231V86.518C180.832 93.1341 175.469 98.4975 168.852 98.4975H42.383C35.7669 98.4975 30.4035 93.1341 30.4035 86.518V42.3231Z" fill="#282F3E"/>
<path d="M30.4035 120.213C30.4035 113.597 35.7669 108.234 42.383 108.234H168.853C175.469 108.234 180.832 113.597 180.832 120.213V164.408C180.832 171.024 175.469 176.388 168.852 176.388H42.383C35.7669 176.388 30.4035 171.024 30.4035 164.408V120.213Z" fill="#282F3E"/>
<path d="M30.4035 198.104C30.4035 191.487 35.7669 186.124 42.383 186.124H168.853C175.469 186.124 180.832 191.487 180.832 198.104V242.298C180.832 248.914 175.469 254.278 168.852 254.278H42.383C35.7669 254.278 30.4035 248.914 30.4035 242.298V198.104Z" fill="#282F3E"/>
</g>
<g filter="url(#filter1_d_747_49490)">
<path d="M199.235 30.3436C199.235 40.4744 190.996 48.6871 180.832 48.6871C170.668 48.6871 162.429 40.4744 162.429 30.3436C162.429 20.2127 170.668 12 180.832 12C190.996 12 199.235 20.2127 199.235 30.3436Z" fill="#1C212B"/>
<path d="M48.807 253.656C48.807 263.787 40.5675 272 30.4035 272C20.2395 272 12 263.787 12 253.656C12 243.526 20.2395 235.313 30.4035 235.313C40.5675 235.313 48.807 243.526 48.807 253.656Z" fill="#1C212B"/>
<path d="M48.807 102.92C48.807 113.051 40.5675 121.264 30.4035 121.264C20.2395 121.264 12 113.051 12 102.92C12 92.7894 20.2395 84.5767 30.4035 84.5767C40.5675 84.5767 48.807 92.7894 48.807 102.92Z" fill="#1C212B"/>
<path d="M199.235 181.08C199.235 191.211 190.996 199.423 180.832 199.423C170.668 199.423 162.429 191.211 162.429 181.08C162.429 170.949 170.668 162.736 180.832 162.736C190.996 162.736 199.235 170.949 199.235 181.08Z" fill="#1C212B"/>
</g>
<g opacity="0.25">
<path d="M43.4276 79.3495C43.4276 77.7363 44.7353 76.4286 46.3484 76.4286H64.6013C66.2144 76.4286 67.5222 77.7363 67.5222 79.3495C67.5222 80.9626 66.2144 82.2704 64.6013 82.2704H46.3484C44.7353 82.2704 43.4276 80.9626 43.4276 79.3495Z" fill="#11141C"/>
<path d="M43.4276 157.24C43.4276 155.627 44.7353 154.319 46.3484 154.319H64.6013C66.2144 154.319 67.5222 155.627 67.5222 157.24C67.5222 158.853 66.2144 160.161 64.6013 160.161H46.3484C44.7353 160.161 43.4276 158.853 43.4276 157.24Z" fill="#11141C"/>
<path d="M43.4276 235.13C43.4276 233.517 44.7353 232.209 46.3484 232.209H64.6013C66.2144 232.209 67.5222 233.517 67.5222 235.13C67.5222 236.743 66.2144 238.051 64.6013 238.051H46.3484C44.7353 238.051 43.4276 236.743 43.4276 235.13Z" fill="#11141C"/>
</g>
<g opacity="0.4">
<path d="M43.4276 216.956C43.4276 215.342 44.7353 214.035 46.3484 214.035H114.093C115.706 214.035 117.014 215.342 117.014 216.956C117.014 218.569 115.706 219.876 114.093 219.876H46.3484C44.7353 219.876 43.4276 218.569 43.4276 216.956Z" fill="#11141C"/>
<path d="M43.4276 49.4916C43.4276 47.8784 44.7353 46.5707 46.3484 46.5707H143.397C145.01 46.5707 146.318 47.8784 146.318 49.4916C146.318 51.1047 145.01 52.4125 143.397 52.4125H46.3484C44.7353 52.4125 43.4276 51.1047 43.4276 49.4916Z" fill="#11141C"/>
<path d="M43.4276 61.1751C43.4276 59.5619 44.7353 58.2542 46.3484 58.2542H114.093C115.706 58.2542 117.014 59.5619 117.014 61.1751C117.014 62.7883 115.706 64.096 114.093 64.096H46.3484C44.7353 64.096 43.4276 62.7883 43.4276 61.1751Z" fill="#11141C"/>
<path d="M167.808 71.885C167.808 79.4131 161.685 85.5158 154.133 85.5158C146.58 85.5158 140.457 79.4131 140.457 71.885C140.457 64.3569 146.58 58.2542 154.133 58.2542C161.685 58.2542 167.808 64.3569 167.808 71.885Z" fill="#11141C"/>
<path d="M43.4276 127.382C43.4276 125.769 44.7353 124.461 46.3484 124.461H143.397C145.01 124.461 146.318 125.769 146.318 127.382C146.318 128.995 145.01 130.303 143.397 130.303H46.3484C44.7353 130.303 43.4276 128.995 43.4276 127.382Z" fill="#11141C"/>
<path d="M43.4276 139.065C43.4276 137.452 44.7353 136.144 46.3484 136.144H114.093C115.706 136.144 117.014 137.452 117.014 139.065C117.014 140.678 115.706 141.986 114.093 141.986H46.3484C44.7353 141.986 43.4276 140.678 43.4276 139.065Z" fill="#11141C"/>
<path d="M167.808 149.775C167.808 157.303 161.685 163.406 154.133 163.406C146.58 163.406 140.457 157.303 140.457 149.775C140.457 142.247 146.58 136.144 154.133 136.144C161.685 136.144 167.808 142.247 167.808 149.775Z" fill="#11141C"/>
<path d="M43.4276 205.272C43.4276 203.659 44.7353 202.351 46.3484 202.351H143.397C145.01 202.351 146.318 203.659 146.318 205.272C146.318 206.885 145.01 208.193 143.397 208.193H46.3484C44.7353 208.193 43.4276 206.885 43.4276 205.272Z" fill="#11141C"/>
<path d="M167.808 227.665C167.808 235.193 161.685 241.296 154.133 241.296C146.58 241.296 140.457 235.193 140.457 227.665C140.457 220.137 146.58 214.035 154.133 214.035C161.685 214.035 167.808 220.137 167.808 227.665Z" fill="#11141C"/>
</g>
<path fill-rule="evenodd" clip-rule="evenodd" d="M188.875 177.028H185.316C185.571 176.854 185.79 176.681 185.943 176.525C186.851 175.613 186.851 174.128 185.943 173.216C185.061 172.327 183.525 172.329 182.644 173.216C182.155 173.705 180.862 175.697 181.04 177.028H180.96C181.137 175.697 179.843 173.705 179.356 173.216C178.474 172.329 176.938 172.329 176.057 173.216C175.15 174.128 175.15 175.613 176.056 176.525C176.21 176.681 176.429 176.854 176.684 177.028H173.125C172.505 177.028 172 177.533 172 178.153V179.841C172 180.151 172.252 180.403 172.562 180.403H179.875V177.253H182.125V180.403H189.438C189.748 180.403 190 180.151 190 179.841V178.153C190 177.533 189.496 177.028 188.875 177.028ZM179.809 176.991C179.809 176.991 179.761 177.028 179.6 177.028C178.823 177.028 177.339 176.221 176.854 175.732C176.383 175.258 176.383 174.484 176.854 174.009C177.083 173.779 177.385 173.653 177.707 173.653C178.028 173.653 178.33 173.779 178.559 174.009C179.317 174.772 180.071 176.72 179.809 176.991ZM182.398 177.028C182.239 177.028 182.191 176.991 182.191 176.991C181.929 176.72 182.683 174.772 183.441 174.009C183.895 173.551 184.688 173.549 185.146 174.009C185.618 174.484 185.618 175.258 185.146 175.732C184.661 176.221 183.177 177.028 182.398 177.028Z" fill="#3D4451"/>
<path d="M174.025 181.976V188.279C174.025 188.9 174.53 189.404 175.15 189.404H179.875V181.976H174.025Z" fill="#3D4451"/>
<path d="M182.125 189.404V181.976H187.975V188.279C187.975 188.9 187.471 189.404 186.85 189.404H182.125Z" fill="#3D4451"/>
<path fill-rule="evenodd" clip-rule="evenodd" d="M26.0958 99.4805C26.8396 99.4805 27.4948 99.2728 28.0358 99.0078C27.4865 100.065 27.1574 101.288 27.0921 102.55C24.896 102.791 23.174 104.675 23.174 106.984C23.174 109.456 25.14 111.5 27.5568 111.5C28.3013 111.5 29.0146 111.285 29.6542 110.927C28.6619 109.932 28.0438 108.515 28.0438 106.984C28.0438 105.454 28.6619 104.07 29.6542 103.075C29.1617 102.799 28.625 102.611 28.0646 102.538C28.2763 99.0177 30.8759 96.114 34.2275 95.5842C33.3739 96.8098 32.9136 98.2723 32.9136 99.8078V102.552C30.7281 102.804 29.0177 104.683 29.0177 106.984C29.0177 109.456 30.9838 111.5 33.4005 111.5C35.8173 111.5 37.7833 109.456 37.7833 106.984C37.7833 104.683 36.073 102.804 33.8875 102.552V99.8078C33.8875 98.1239 34.5286 96.5408 35.6928 95.3502L36.524 94.5H35.3485C33.0612 94.5 30.9882 95.4539 29.4883 96.9927C29.0946 96.6061 27.832 95.4961 26.0958 95.4961C24.13 95.4961 22.7581 96.9296 22.5839 97.1116C22.576 97.1198 22.5706 97.1255 22.5677 97.1284L22.2 97.4883L22.5677 97.8482C22.5706 97.8511 22.576 97.8567 22.5838 97.8649C22.7581 98.047 24.13 99.4805 26.0958 99.4805ZM33.4005 105.49C32.595 105.49 31.9396 106.161 31.9396 106.984H30.9656C30.9656 105.611 32.058 104.494 33.4005 104.494V105.49ZM26.0958 106.984C26.0958 106.161 26.7512 105.49 27.5568 105.49V104.494C26.2143 104.494 25.1219 105.611 25.1219 106.984H26.0958Z" fill="#3D4451"/>
<path d="M188.974 28.1747C188.74 25.7555 186.92 24.0003 184.643 24.0003C183.126 24.0003 181.737 24.7686 180.956 25.9999C180.181 24.7526 178.849 24 177.357 24C175.08 24 173.26 25.7552 173.027 28.1744C173.008 28.2812 172.933 28.8436 173.163 29.7607C173.494 31.0836 174.261 32.2868 175.378 33.2395L180.308 37.4501C180.68 37.7675 181.226 37.7698 181.601 37.4555L186.622 33.2398C187.739 32.2868 188.506 31.0839 188.837 29.7607C189.067 28.8439 188.992 28.2815 188.974 28.1747Z" fill="#3D4451"/>
<path fill-rule="evenodd" clip-rule="evenodd" d="M22 249.5C22 248.395 22.8954 247.5 24 247.5H36.6667C37.7712 247.5 38.6667 248.395 38.6667 249.5V254.167H22V249.5ZM24.6667 249.167C24.1144 249.167 23.6667 249.614 23.6667 250.167V251.5C23.6667 252.052 24.1144 252.5 24.6667 252.5H26.8333C27.3856 252.5 27.8333 252.052 27.8333 251.5V250.167C27.8333 249.614 27.3856 249.167 26.8333 249.167H24.6667Z" fill="#3D4451"/>
<path d="M22 257.5H38.6667V258.833C38.6667 259.938 37.7712 260.833 36.6667 260.833H24C22.8954 260.833 22 259.938 22 258.833V257.5Z" fill="#3D4451"/>
<defs>
<filter id="filter0_d_747_49490" x="14.4035" y="14.3436" width="182.429" height="255.934" filterUnits="userSpaceOnUse" color-interpolation-filters="sRGB">
<feFlood flood-opacity="0" result="BackgroundImageFix"/>
<feColorMatrix in="SourceAlpha" type="matrix" values="0 0 0 0 0 0 0 0 0 0 0 0 0 0 0 0 0 0 127 0" result="hardAlpha"/>
<feOffset/>
<feGaussianBlur stdDeviation="8"/>
<feColorMatrix type="matrix" values="0 0 0 0 0 0 0 0 0 0 0 0 0 0 0 0 0 0 0.24 0"/>
<feBlend mode="normal" in2="BackgroundImageFix" result="effect1_dropShadow_747_49490"/>
<feBlend mode="normal" in="SourceGraphic" in2="effect1_dropShadow_747_49490" result="shape"/>
</filter>
<filter id="filter1_d_747_49490" x="0" y="0" width="211.235" height="284" filterUnits="userSpaceOnUse" color-interpolation-filters="sRGB">
<feFlood flood-opacity="0" result="BackgroundImageFix"/>
<feColorMatrix in="SourceAlpha" type="matrix" values="0 0 0 0 0 0 0 0 0 0 0 0 0 0 0 0 0 0 127 0" result="hardAlpha"/>
<feOffset/>
<feGaussianBlur stdDeviation="6"/>
<feColorMatrix type="matrix" values="0 0 0 0 0 0 0 0 0 0 0 0 0 0 0 0 0 0 0.16 0"/>
<feBlend mode="normal" in2="BackgroundImageFix" result="effect1_dropShadow_747_49490"/>
<feBlend mode="normal" in="SourceGraphic" in2="effect1_dropShadow_747_49490" result="shape"/>
</filter>
</defs>
</svg>
