<svg width="48" height="48" viewBox="0 0 48 48" fill="none" xmlns="http://www.w3.org/2000/svg">
<path fill-rule="evenodd" clip-rule="evenodd" d="M25.1792 10.4417V14.1434L25.6322 14.198C27.6939 14.4479 29.9586 15.3694 31.6142 16.6424L32.0672 16.9938L34.6833 14.3776L37.2995 11.7615L36.7294 11.2773C35.7376 10.4495 34.0976 9.40301 32.7934 8.76264C30.4897 7.63808 28.3967 7.06018 25.6322 6.78685L25.1792 6.73999V10.4417ZM21.8993 6.82589C19.0644 7.11484 15.9797 8.16912 13.5275 9.68415C12.8013 10.1371 11.5283 11.0586 11.0207 11.5116L10.7239 11.7771L13.3323 14.3854L15.9407 16.986L16.5186 16.5643C17.1199 16.1191 17.7993 15.6974 18.3694 15.4163C19.4315 14.8774 21.2511 14.323 22.3522 14.198L22.8364 14.1434V10.4417C22.8364 6.96646 22.8286 6.73999 22.7037 6.7478L22.6357 6.75483L22.6357 6.75483C22.4958 6.76943 22.2002 6.80028 21.8993 6.82589ZM5.20266 19.8675C5.91332 17.9229 7.24873 15.5957 8.51386 14.0729L9.0371 13.4403L11.6533 16.0565L14.2616 18.6648L13.754 19.3521C12.606 20.9061 11.7782 22.9366 11.5049 24.8499L11.4034 25.5606H7.70168H4L4.05467 25.0295C4.23428 23.2255 4.63257 21.4059 5.20266 19.8675ZM36.3546 16.0643L33.754 18.6648L34.2616 19.3521C35.4018 20.8983 36.2452 22.9522 36.5186 24.8733L36.6123 25.5606H40.3061C43.2191 25.5606 44 25.5371 44 25.459C44 25.0686 43.7267 23.1787 43.5627 22.4446C42.9145 19.5004 41.3682 16.3064 39.5096 14.0807L39.3546 13.8962L39.3545 13.8961L39.3539 13.8953C39.1407 13.6415 38.9849 13.4559 38.9785 13.4559C38.9707 13.4559 37.7915 14.6273 36.3546 16.0643ZM20.7278 28.4109C19.6501 26.1774 20.884 23.6783 23.344 23.1395C23.8047 23.038 24.6794 23.1083 25.2417 23.3035C26.2101 23.6315 26.8739 24.2953 28.6154 26.6928C30.0757 28.7076 34.613 35.5565 34.8317 36.0797C35.1519 36.8451 34.6052 37.665 33.7696 37.665C33.426 37.665 33.2698 37.5791 31.7313 36.5952C30.8098 36.0094 28.998 34.8146 27.6939 33.9399C22.7427 30.6209 21.2042 29.4027 20.7278 28.4109ZM4.05467 28.4266C4.51542 33.1513 6.34284 37.2044 9.47442 40.4922C10.146 41.2029 10.4506 41.3434 10.9816 41.1872C11.2628 41.1013 11.6298 40.7733 13.2542 39.1646C15.8235 36.6031 15.8313 36.5953 14.6755 35.2755C12.8559 33.1982 11.7548 30.8241 11.4658 28.3485L11.4112 27.9034H7.70949H4L4.05467 28.4266ZM35.5892 31.8234C36.05 30.8082 36.417 29.4806 36.5498 28.3482L36.6045 27.9031H40.2983C43.2191 27.9031 44 27.9265 44 28.0046C44 28.3248 43.7501 30.1678 43.6095 30.816C42.8833 34.3693 41.1183 37.7586 38.6505 40.3748C37.5572 41.5384 37.1746 41.5462 36.0188 40.4138C35.6361 40.0468 35.3315 39.7266 35.3315 39.6954C35.3315 39.6719 35.4565 39.586 35.6049 39.5079C35.9641 39.3127 36.6748 38.563 36.8856 38.1491C37.3386 37.2666 37.3932 36.1577 37.0262 35.2596C36.9247 34.9941 36.4951 34.2522 36.0734 33.604L35.3159 32.4247L35.5892 31.8234Z" fill="url(#paint0_linear_135_11838)"/>
<defs>
<linearGradient id="paint0_linear_135_11838" x1="56.021" y1="-0.810254" x2="7.745" y2="55.8917" gradientUnits="userSpaceOnUse">
<stop offset="0.104422" stop-color="#FFC53A"/>
<stop offset="0.9375" stop-color="#FF124C"/>
</linearGradient>
</defs>
</svg>
