<svg width="48" height="48" viewBox="0 0 48 48" fill="none" xmlns="http://www.w3.org/2000/svg">
<path fill-rule="evenodd" clip-rule="evenodd" d="M23.4699 4.1045C22.9914 4.34681 22.8659 4.62039 22.8423 5.52711C22.8401 5.5901 22.8385 5.64834 22.8369 5.70221C22.8273 6.03362 22.8225 6.1997 22.7373 6.29017C22.6518 6.38106 22.4851 6.39563 22.1511 6.42484C22.0937 6.42985 22.0314 6.4353 21.9637 6.44164C21.1086 6.51981 19.5867 6.85592 18.6139 7.1764C17.2489 7.62194 16.4252 8.00495 14.5267 9.04455C11.3181 10.8189 8.76851 11.9992 6.03847 12.9763C5.28536 13.242 4.55578 13.5469 4.41457 13.6485C3.77913 14.1097 3.91249 15.2274 4.65776 15.5792C4.97156 15.7277 5.65407 15.7433 7.3878 15.6261C9.95309 15.4541 11.8202 15.1336 14.9817 14.3442C18.9591 13.3515 22.2226 12.9919 25.6508 13.1873C28.475 13.3515 30.1146 13.6094 33.3389 14.4145C36.3513 15.1649 38.085 15.4541 40.619 15.6261C42.3527 15.7433 43.0352 15.7277 43.349 15.5792C44.0943 15.2274 44.2276 14.1097 43.5922 13.6485C43.451 13.5469 42.8626 13.2968 42.2821 13.0857C39.301 12.0305 36.822 10.8971 33.5585 9.09145C32.7269 8.63028 31.7228 8.09875 31.3227 7.91115C29.8557 7.23112 27.5258 6.58234 26.0431 6.44164C25.982 6.43602 25.9253 6.43104 25.8725 6.4264L25.8725 6.4264C25.5044 6.39405 25.3307 6.37879 25.2493 6.28413C25.1766 6.19952 25.1776 6.05149 25.1794 5.77114V5.77112C25.1798 5.72254 25.1801 5.66998 25.1801 5.61309C25.1801 4.80017 25.0624 4.46406 24.6859 4.1983C24.3799 3.97943 23.8073 3.93253 23.4699 4.1045ZM22.8266 26.2172V36.9649H24.0034H25.1801V26.2172V15.4694H24.0034H22.8266V26.2172ZM12.589 17.3537C12.6125 17.3303 13.0989 17.1974 13.6716 17.0645L14.1519 16.953L14.1524 16.9528C14.5015 16.8717 14.758 16.8121 14.7856 16.8066C14.8326 16.8066 15.7662 18.8311 16.8645 21.3167L18.8649 25.8269L19.2572 25.8659C19.7906 25.9285 20.128 26.1239 20.3163 26.4913C20.7007 27.2495 20.2927 29.0317 19.4612 30.2198C16.5193 34.3938 9.58438 34.8862 5.81097 31.1812C4.94018 30.3292 4.35965 29.2818 4.10861 28.1327C3.80266 26.7101 4.13999 25.9832 5.15984 25.8738L5.59915 25.8269L7.37211 21.8404L9.14506 17.854L10.3375 17.6898C10.9965 17.596 11.6084 17.5023 11.6947 17.4788C11.7731 17.4554 11.8437 17.471 11.8437 17.5023C11.8437 17.5413 11.02 19.4329 10.008 21.6997L8.17229 25.8269L10.2041 25.8503C11.326 25.8581 13.146 25.8581 14.2678 25.8503L16.2918 25.8269L14.4247 21.6138C13.3892 19.2922 12.5655 17.3772 12.589 17.3537ZM31.1423 21.3085L29.134 25.8264L28.7025 25.8733C27.6826 25.9827 27.3689 26.6315 27.6434 28.0698C28.0121 29.9848 29.4321 31.6966 31.4953 32.7284C32.0915 33.0255 33.2839 33.4006 34.0449 33.5335C34.8843 33.682 36.8298 33.6664 37.6693 33.5023C40.1169 33.0176 42.1016 31.7279 43.2156 29.8988C43.8511 28.8514 44.1884 27.163 43.8903 26.5455C43.702 26.1391 43.3725 25.928 42.8469 25.8733L42.4076 25.8264L40.6346 21.84L38.8617 17.8535L37.6693 17.6894C37.0103 17.5956 36.3984 17.5018 36.3121 17.4784C36.2336 17.4549 36.163 17.4705 36.163 17.5018C36.163 17.5409 36.9867 19.4325 37.9987 21.6993L39.8345 25.8264L37.8026 25.8499C36.6808 25.8577 34.8608 25.8577 33.7389 25.8499L31.7149 25.8264L33.5899 21.6133C34.6176 19.2918 35.4334 17.3689 35.4021 17.3455C35.3628 17.3142 34.9157 17.197 34.3979 17.0797C33.8801 16.9703 33.3859 16.8608 33.2996 16.8374C33.1584 16.7983 32.9309 17.2751 31.1423 21.3085ZM16.8174 40.3576C17.3195 39.8573 17.8216 39.5759 18.4727 39.4196C18.9669 39.3023 28.7888 39.2711 29.4085 39.3883C30.9697 39.6853 32.2406 41.2096 32.2406 42.7963C32.2406 43.2106 31.9738 43.6639 31.613 43.8437C31.3149 44.0001 31.1658 44.0001 24.0034 44.0001C16.8409 44.0001 16.6919 44.0001 16.3938 43.8437C15.4053 43.3435 15.6328 41.5457 16.8174 40.3576Z" fill="url(#paint0_linear_135_11857)"/>
<defs>
<linearGradient id="paint0_linear_135_11857" x1="56.021" y1="-4.74987" x2="-0.646572" y2="52.6822" gradientUnits="userSpaceOnUse">
<stop offset="0.104422" stop-color="#FFC53A"/>
<stop offset="0.9375" stop-color="#FF124C"/>
</linearGradient>
</defs>
</svg>
